<svg width="108" height="112" viewBox="0 0 108 112" fill="none" xmlns="http://www.w3.org/2000/svg">
<g clip-path="url(#clip0_1752_34794)">
<circle cx="54" cy="57.9961" r="54" fill="white"/>
<mask id="mask0_1752_34794" style="mask-type:alpha" maskUnits="userSpaceOnUse" x="-2" y="-2" width="111" height="114">
<path fill-rule="evenodd" clip-rule="evenodd" d="M108.722 -1.40039H-1.07812V63.0396H0.232059C2.77352 90.5001 25.876 112 54 112C82.124 112 105.226 90.5001 107.768 63.0396H108.722V-1.40039Z" fill="#D9D9D9"/>
</mask>
<g mask="url(#mask0_1752_34794)">
<path d="M13.5596 138.131C11.3466 126.488 15.4208 112.146 19.1432 109.411C19.1432 109.411 24.3363 106.015 32.0136 105.55C39.691 105.084 45.6648 106.48 45.6648 106.48C51.2483 123.674 65.6723 150.178 65.6723 158.919C65.6723 162.438 72.0288 206.053 77.6123 208.379L64.0439 214.749C64.0439 214.749 53.1095 173.018 51.0157 165.969C48.9218 158.919 37.5222 139.464 37.5222 139.464C37.5222 139.464 32.4039 166.532 27.9836 174.427C23.5633 182.323 -3.19092 210.519 -3.19092 210.519L-13.66 201.496C-1.0971 184.296 13.3458 171.008 14.5652 164.409C16.358 154.707 14.9284 145.332 13.5596 138.131Z" fill="#BABECB" stroke="black" stroke-width="0.884056" stroke-linecap="round" stroke-linejoin="round"/>
<path d="M58.5599 52.9722C48.3234 54.1354 43.8393 52.7395 32.9688 49.7151C32.9688 49.7151 30.875 50.4131 26.4547 49.9478C22.0344 49.4825 20.7024 47.3887 20.7024 47.3887C18.1783 49.4049 11.5353 61.1148 11.5353 73.4451C11.5353 85.7753 9.99987 111.413 6.64977 111.599C3.29966 111.785 21.9296 114.158 27.4492 111.599C32.9688 109.04 45.3629 107.877 52.575 110.436C52.3764 103.882 50.4036 88.1815 45.7743 75.2264L47.6255 73.4451L44.8772 72.8096C44.0792 70.74 43.6817 69.1582 42.7399 67.1636C45.7743 68.3268 55.0702 67.1636 59.2578 65.7677C56.2334 58.323 58.5599 52.9722 58.5599 52.9722Z" fill="#505798"/>
<path d="M47.6255 73.4451L44.8772 72.8096M47.6255 73.4451C46.7818 73.3004 45.8582 73.0858 44.8772 72.8096M47.6255 73.4451L45.7743 75.2264M21.1038 57.1598C23.6063 63.416 36.3901 70.42 44.8772 72.8096M18.7774 71.1186C20.7024 76.2368 35.9932 87.8691 36.2259 85.7753C36.4585 83.6815 45.7743 75.2264 45.7743 75.2264M42.7399 67.1636C40.7544 62.9585 39.3666 57.5912 36.6912 54.1354C38.9247 56.3688 41.3458 64.2167 42.7399 67.1636ZM42.7399 67.1636C45.7743 68.3268 55.0702 67.1636 59.2578 65.7677C56.2334 58.323 58.5599 52.9722 58.5599 52.9722C48.3234 54.1354 43.8393 52.7395 32.9688 49.7151C32.9688 49.7151 30.875 50.4131 26.4547 49.9478C22.0344 49.4825 20.7024 47.3887 20.7024 47.3887C18.1783 49.4049 11.5353 61.1148 11.5353 73.4451C11.5353 85.7753 9.99987 111.413 6.64977 111.599C3.29966 111.785 21.9296 114.158 27.4492 111.599C32.9688 109.04 45.3629 107.877 52.575 110.436C52.3764 103.882 50.4036 88.1815 45.7743 75.2264M42.7399 67.1636C43.6817 69.1582 44.0792 70.74 44.8772 72.8096" stroke="black" stroke-width="0.884056" stroke-linecap="round" stroke-linejoin="round"/>
<ellipse cx="59.4896" cy="59.2546" rx="1.39588" ry="6.74674" fill="black"/>
<path d="M41.543 81.5884C40.2402 83.2634 37.2778 85.3882 35.9595 86.2413C35.0289 85.8691 39.0176 82.519 40.4135 80.4252C41.8094 80.4252 42.8458 79.9133 41.543 81.5884Z" fill="black" stroke="black" stroke-width="0.884056" stroke-linecap="round" stroke-linejoin="round"/>
<path d="M35.9692 87.1723C33.7358 86.9862 25.1124 79.1072 21.3125 74.6094C25.0348 78.3317 32.3244 83.605 35.5039 85.7764L40.1568 82.2867L48.2995 84.8458L40.3895 83.6826C39.2263 84.9234 38.2026 87.3584 35.9692 87.1723Z" fill="black" stroke="black" stroke-width="0.884056" stroke-linecap="round" stroke-linejoin="round"/>
<path d="M73.142 50.6829C71.3432 53.345 63.0839 53.2441 58.6595 52.8838C56.6123 57.473 58.064 62.2135 58.9509 64.2225C61.5003 65.3598 75.0345 65.2833 78.7508 59.8082C80.8412 56.7284 89.1612 36.0907 92.072 26.52C94.6475 25.8857 94.9839 21.7051 95.1048 19.721C95.1427 19.0993 94.4707 18.4876 93.7818 18.1194C93.3979 17.9141 98.4685 11.0392 96.4387 9.87905C94.409 8.71887 91.2782 18.0215 90.2187 17.5414C89.1592 17.0614 93.0395 8.36271 89.6142 8.61795C88.0582 8.73389 87.7841 16.7176 85.7474 22.425C87.0908 24.5527 75.3906 47.3553 73.142 50.6829Z" fill="#FFCAA4" stroke="black" stroke-width="0.884056" stroke-linecap="round" stroke-linejoin="round"/>
<path d="M89.9027 20.2989C89.8315 21.3146 92.1641 21.8182 93.8302 21.9348C95.4964 22.0515 95.8839 21.4694 95.9364 20.7214C95.9888 19.9735 95.6862 19.343 94.02 19.2263C92.3539 19.1097 89.9738 19.2832 89.9027 20.2989Z" fill="#FFCAA4" stroke="black" stroke-width="0.884056" stroke-linecap="round" stroke-linejoin="round"/>
<path d="M89.3741 22.6977C89.3118 23.5861 91.352 24.0265 92.8093 24.1286C94.2666 24.2306 94.6055 23.7215 94.6514 23.0673C94.6972 22.4131 94.4326 21.8617 92.9753 21.7596C91.518 21.6576 89.4363 21.8094 89.3741 22.6977Z" fill="#FFCAA4" stroke="black" stroke-width="0.884056" stroke-linecap="round" stroke-linejoin="round"/>
<path d="M90.324 22.3058C89.4994 23.1575 87.5276 21.7983 86.3277 20.6365C85.1278 19.4747 85.3715 18.7256 85.9787 18.0985C86.5859 17.4713 87.3266 17.2035 88.5266 18.3653C89.7265 19.5272 91.1486 21.4542 90.324 22.3058Z" fill="#FFCAA4" stroke="black" stroke-width="0.884056" stroke-linecap="round" stroke-linejoin="round"/>
<path d="M46.0635 35.7617V17.8479H25.1253C25.1253 22.9661 24.66 25.1375 24.1947 26.2232C22.4111 24.9048 18.6577 23.1522 17.9133 26.6885C17.1688 30.2247 21.0152 31.574 23.0315 31.8067C24.5204 39.8097 23.0315 45.6879 22.1009 47.6266C23.9621 51.349 30.4762 50.7286 33.5006 49.9531V44.1369C45.9704 44.5092 46.0635 39.9493 46.0635 35.7617Z" fill="#FFCAA4" stroke="black" stroke-width="0.884056" stroke-linejoin="round"/>
<path d="M33.2681 44.1369C31.638 44.0628 28.9603 43.5781 28.2379 42.2365C28.2076 42.1704 28.1782 42.1059 28.1498 42.0431C28.1747 42.1094 28.2042 42.1739 28.2379 42.2365C29.3677 44.7001 31.818 49.3579 33.2681 49.7204V44.1369Z" fill="black" stroke="black" stroke-width="0.884056" stroke-linecap="round" stroke-linejoin="round"/>
<path d="M52.7879 13.1994C53.5323 20.8302 35.572 21.6522 26.4988 21.1093C26.4988 23.1353 24.917 25.3945 24.358 26.1929L24.3407 26.2176C24.3407 26.2176 22.2469 22.9606 18.5245 25.0544C18.3217 25.1684 17.193 26.6464 16.2624 17.1544C15.3318 7.66243 24.7152 7.6159 29.5232 8.77913C30.2212 9.16688 32.8268 9.70972 37.6659 8.77913C42.5049 7.84855 45.2656 5.28941 46.0411 4.12616C47.9798 3.97106 52.0434 5.56857 52.7879 13.1994Z" fill="black" stroke="black" stroke-width="0.697939" stroke-linecap="round" stroke-linejoin="round"/>
<path d="M47.6921 8.07129C45.9861 9.85491 40.7128 13.0499 33.2681 11.561" stroke="white" stroke-width="0.697939" stroke-linecap="round" stroke-linejoin="round"/>
<path d="M35.1508 30.7412C35.5253 29.5122 36.8253 28.8194 38.0543 29.1939C39.2834 29.5684 39.9762 30.8683 39.6017 32.0974C39.3799 32.8255 38.8333 33.3654 38.169 33.6067" stroke="black" stroke-width="0.697939" stroke-linecap="round" stroke-linejoin="round"/>
<circle cx="0.697939" cy="0.697939" r="0.697939" transform="matrix(-1 0 0 1 34.1868 28.6378)" fill="black"/>
<circle cx="0.697939" cy="0.697939" r="0.697939" transform="matrix(-1 0 0 1 41.7905 28.312)" fill="black"/>
<path d="M33.8806 24.5896C33.4153 23.659 31.0889 23.659 30.8562 25.7528" stroke="black" stroke-width="0.697939" stroke-linecap="round" stroke-linejoin="round"/>
<path d="M39.9294 25.1481C40.1621 24.3572 42.4886 23.8919 42.4886 25.8408" stroke="black" stroke-width="0.697939" stroke-linecap="round" stroke-linejoin="round"/>
<path d="M35.0921 39.5026C32.2001 38.7011 31.0114 34.7784 30.7786 32.9173C33.1565 35.0336 37.8765 36.6532 41.9315 34.6628C41.4379 38.3887 38.5335 40.4563 35.0921 39.5026Z" fill="black" stroke="black" stroke-width="0.697939" stroke-linecap="round" stroke-linejoin="round"/>
<path d="M35.976 38.1998C37.462 37.2461 38.8906 38.0193 39.4192 38.5251C35.4995 40.4812 33.5314 38.3408 33.0374 37.0261C34.1626 36.1641 35.4653 37.4494 35.976 38.1998Z" fill="white"/>
<path d="M32.0191 60.4176C35.4973 60.6065 33.1593 53.533 32.8694 48.8114L21.7827 47.3894C22.0001 54.2357 27.6714 60.1815 32.0191 60.4176Z" fill="#FFCAA4" stroke="black" stroke-width="0.884056" stroke-linecap="round" stroke-linejoin="round"/>
<path d="M22.248 48.0874V46.9242L30.158 47.8548L32.9498 50.1812L22.248 48.0874Z" fill="#FFCAA4"/>
<path d="M32.9497 51.1117C32.9497 51.1117 29.9422 48.4392 29.6927 47.1567C29.4431 45.8743 32.9497 48.8033 32.9497 48.8033V51.1117Z" fill="black"/>
<path d="M32.0193 40.8754L32.0193 44.1324" stroke="black" stroke-width="0.697939" stroke-linecap="round" stroke-linejoin="round"/>
<path d="M33.8804 41.3406V44.1323" stroke="black" stroke-width="0.697939" stroke-linecap="round" stroke-linejoin="round"/>
<path d="M35.7415 41.8059V44.1324" stroke="black" stroke-width="0.697939" stroke-linecap="round" stroke-linejoin="round"/>
<path d="M37.6028 41.8059V44.1324" stroke="black" stroke-width="0.697939" stroke-linecap="round" stroke-linejoin="round"/>
<path d="M39.4639 41.8059V43.6671" stroke="black" stroke-width="0.697939" stroke-linecap="round" stroke-linejoin="round"/>
<path d="M41.325 41.3406V43.2017" stroke="black" stroke-width="0.697939" stroke-linecap="round" stroke-linejoin="round"/>
<path d="M97.1013 57.1272C97.0139 57.4242 96.7013 57.5941 96.4031 57.5067C96.1048 57.4192 95.9339 57.1074 96.0213 56.8104C96.1087 56.5133 96.4213 56.3434 96.7196 56.4309C97.0178 56.5184 97.1887 56.8301 97.1013 57.1272Z" fill="white"/>
<path d="M97.058 57.1145C96.9777 57.3875 96.6902 57.5439 96.4157 57.4634L96.3904 57.5499C96.7123 57.6444 97.0501 57.461 97.1445 57.1399L97.058 57.1145ZM96.4157 57.4634C96.1413 57.3829 95.9843 57.0961 96.0646 56.8231L95.9781 56.7976C95.8836 57.1187 96.0684 57.4555 96.3904 57.5499L96.4157 57.4634ZM96.0646 56.8231C96.1449 56.55 96.4324 56.3936 96.7069 56.4741L96.7322 56.3876C96.4103 56.2932 96.0726 56.4766 95.9781 56.7976L96.0646 56.8231ZM96.7069 56.4741C96.9813 56.5547 97.1384 56.8414 97.058 57.1145L97.1445 57.1399C97.239 56.8188 97.0542 56.4821 96.7322 56.3876L96.7069 56.4741Z" fill="white"/>
<path d="M78.1224 32.7067L78.1224 32.7068L70.7016 66.3821L70.838 66.412L70.7016 66.3821C70.523 67.193 70.6665 68.0402 71.1013 68.7376C71.5362 69.4352 72.2271 69.9258 73.0225 70.1007L86.1548 72.9856C86.549 73.0721 86.9568 73.0783 87.3548 73.004C87.7528 72.9297 88.1331 72.7763 88.4741 72.5527C88.8152 72.3292 89.1102 72.0399 89.3426 71.7015C89.5749 71.363 89.74 70.982 89.8287 70.5802L97.2493 36.9059C97.3378 36.5043 97.3482 36.0897 97.2797 35.6855C97.2113 35.2814 97.0653 34.8955 96.8499 34.5501C96.6346 34.2047 96.3541 33.9065 96.0243 33.6726C95.6946 33.4387 95.3222 33.2738 94.9283 33.1873C94.9283 33.1873 94.9283 33.1873 94.9282 33.1873L81.796 30.3024L81.796 30.3024C81 30.1277 80.1659 30.2837 79.4772 30.735C78.7886 31.1862 78.3016 31.8955 78.1224 32.7067Z" fill="black" stroke="black" stroke-width="0.279218"/>
<path d="M94.5468 34.4141L92.0005 33.8539C91.8319 33.8212 91.6568 33.8582 91.5136 33.9568C91.3704 34.0553 91.2707 34.2074 91.2364 34.3796L91.1344 34.8519C91.1176 34.9372 91.0844 35.0185 91.0369 35.0912C90.9894 35.1638 90.9284 35.2263 90.8575 35.2751C90.7865 35.3239 90.707 35.3581 90.6234 35.3757C90.5398 35.3933 90.4539 35.3939 90.3704 35.3776L85.4079 34.2874C85.2411 34.2466 85.0977 34.1398 85.009 33.9904C84.9204 33.841 84.8938 33.6612 84.9351 33.4904L85.0374 33.0171C85.0787 32.8464 85.0521 32.6666 84.9635 32.5172C84.8748 32.3678 84.7314 32.261 84.5646 32.2202L83.6682 32.0277L81.4399 31.5391C81.1767 31.4813 80.9045 31.477 80.6386 31.5266C80.3728 31.5761 80.1185 31.6785 79.8904 31.828C79.6623 31.9774 79.4648 32.1709 79.3092 32.3974C79.1536 32.6239 79.0429 32.879 78.9835 33.1481L71.7402 66.0173C71.6814 66.2866 71.6751 66.5646 71.7216 66.8353C71.7682 67.1061 71.8666 67.3642 72.0113 67.5951C72.1561 67.8259 72.3443 68.0249 72.5652 68.1807C72.7861 68.3365 73.0353 68.446 73.2987 68.503L86.4047 71.3823C86.6678 71.4401 86.94 71.4443 87.2058 71.3948C87.4716 71.3452 87.7258 71.2427 87.9538 71.0933C88.1818 70.9438 88.3792 70.7503 88.5347 70.5238C88.6902 70.2973 88.8007 70.0421 88.86 69.773L96.1014 36.9079C96.1615 36.6383 96.169 36.3597 96.1233 36.0882C96.0777 35.8167 95.9798 35.5576 95.8353 35.3259C95.6909 35.0942 95.5027 34.8943 95.2815 34.7379C95.0604 34.5814 94.8107 34.4714 94.5468 34.4141Z" fill="#293044"/>
<path d="M77.3134 32.2572L77.3134 32.2572L69.8888 65.9317L70.0252 65.9616L69.8888 65.9318C69.71 66.7437 69.8617 67.5931 70.3106 68.2933C70.7595 68.9935 71.4688 69.4872 72.2825 69.6659L85.7501 72.623C86.1534 72.7114 86.5702 72.7198 86.9768 72.6476C87.3834 72.5754 87.7717 72.4241 88.1197 72.2022C88.4677 71.9803 88.7684 71.6922 89.0048 71.3544C89.2412 71.0166 89.4086 70.6357 89.4973 70.2333L96.9217 36.5599C97.0104 36.1579 97.0189 35.7424 96.9465 35.3371C96.8742 34.9319 96.7226 34.5448 96.5003 34.1981C96.278 33.8513 95.9894 33.5517 95.651 33.3162C95.3126 33.0807 94.931 32.914 94.528 32.8257C94.528 32.8257 94.528 32.8257 94.528 32.8257L81.0604 29.8686L81.0604 29.8686C80.2461 29.69 79.394 29.8412 78.6913 30.2891C77.9886 30.737 77.493 31.4449 77.3134 32.2572Z" fill="#0B44AC" stroke="black" stroke-width="0.279218"/>
<path d="M94.1707 33.8776L91.5593 33.3034C91.3865 33.2698 91.2074 33.306 91.0612 33.4039C90.915 33.5018 90.8137 33.6535 90.7795 33.8258L90.6774 34.298C90.6606 34.3834 90.6271 34.4646 90.5788 34.5371C90.5305 34.6095 90.4684 34.6718 90.396 34.7203C90.3236 34.7688 90.2423 34.8026 90.1567 34.8197C90.0712 34.8369 89.9831 34.8371 89.8976 34.8203L84.8084 33.7028C84.6373 33.6611 84.4898 33.5534 84.3982 33.4034C84.3066 33.2534 84.2784 33.0732 84.3198 32.9025L84.4221 32.4292C84.4635 32.2585 84.4353 32.0783 84.3438 31.9283C84.2522 31.7783 84.1047 31.6706 83.9336 31.6289L83.0144 31.4315L80.7291 30.9307C80.4592 30.8714 80.1803 30.8657 79.9082 30.9139C79.6362 30.9621 79.3763 31.0633 79.1434 31.2117C78.9105 31.3601 78.7093 31.5528 78.5511 31.7787C78.3928 32.0047 78.2808 32.2595 78.2213 32.5286L70.9743 65.397C70.9155 65.6663 70.9105 65.9446 70.9596 66.2159C71.0087 66.4872 71.1109 66.7461 71.2604 66.978C71.4099 67.2098 71.6037 67.4101 71.8308 67.5672C72.0579 67.7243 72.3138 67.8353 72.584 67.8937L86.0246 70.8449C86.2944 70.9042 86.5733 70.9099 86.8453 70.8616C87.1173 70.8134 87.3771 70.7122 87.6099 70.5637C87.8427 70.4153 88.0439 70.2226 88.202 69.9966C88.3601 69.7707 88.472 69.5158 88.5313 69.2467L95.7763 36.3824C95.8365 36.1128 95.8427 35.8339 95.7945 35.5619C95.7463 35.2898 95.6447 35.03 95.4955 34.7972C95.3463 34.5645 95.1524 34.3634 94.9251 34.2056C94.6977 34.0478 94.4414 33.9363 94.1707 33.8776Z" fill="#DDEAFF"/>
<path fill-rule="evenodd" clip-rule="evenodd" d="M78.3384 35.7469L94.5123 39.2314L90.618 56.478C90.6083 56.475 90.5984 56.4722 90.5884 56.4696C90.2763 56.389 89.958 56.5758 89.8774 56.8867C89.8593 56.9567 89.8548 57.027 89.8622 57.0948L89.8364 57.2084L89.8904 57.2206C89.952 57.3992 90.0996 57.5447 90.2968 57.5956C90.3188 57.6013 90.3408 57.6056 90.3627 57.6087L87.7752 69.0681L71.692 65.4802L74.2523 54.0263C74.2643 54.0302 74.2766 54.0338 74.289 54.037C74.6011 54.1176 74.9195 53.9308 75 53.6199C75.0805 53.3089 74.8927 52.9916 74.5806 52.911C74.5553 52.9045 74.53 52.8997 74.5048 52.8966L78.3384 35.7469ZM76.5125 54.1921L75.6242 53.991L75.7277 53.5351L76.6159 53.7361L76.5125 54.1921ZM78.289 54.5942L77.4007 54.3931L77.5042 53.9372L78.3925 54.1383L78.289 54.5942ZM80.0655 54.9964L79.1773 54.7953L79.2807 54.3394L80.169 54.5405L80.0655 54.9964ZM81.842 55.3986L80.9538 55.1975L81.0573 54.7416L81.9455 54.9427L81.842 55.3986ZM83.6186 55.8008L82.7303 55.5997L82.8338 55.1438L83.722 55.3448L83.6186 55.8008ZM85.3951 56.2029L84.5068 56.0018L84.6103 55.5459L85.4986 55.747L85.3951 56.2029ZM87.1716 56.6051L86.2834 56.404L86.3868 55.9481L87.2751 56.1492L87.1716 56.6051ZM88.9482 57.0073L88.0599 56.8062L88.1634 56.3503L89.0516 56.5514L88.9482 57.0073Z" fill="white"/>
<path d="M94.5123 39.2314L94.5579 39.2417L94.5683 39.1957L94.5222 39.1857L94.5123 39.2314ZM78.3384 35.7469L78.3482 35.7012L78.3029 35.6915L78.2928 35.7367L78.3384 35.7469ZM90.618 56.478L90.604 56.5227L90.6525 56.5379L90.6636 56.4883L90.618 56.478ZM90.5884 56.4696L90.5767 56.5148L90.5767 56.5148L90.5884 56.4696ZM89.8774 56.8867L89.8322 56.875L89.8322 56.875L89.8774 56.8867ZM89.8622 57.0948L89.9078 57.1052L89.9095 57.0975L89.9087 57.0898L89.8622 57.0948ZM89.8364 57.2084L89.7908 57.198L89.7805 57.2436L89.8261 57.254L89.8364 57.2084ZM89.8904 57.2206L89.9346 57.2054L89.9261 57.1807L89.9007 57.175L89.8904 57.2206ZM90.2968 57.5956L90.3085 57.5503L90.2968 57.5956ZM90.3627 57.6087L90.4083 57.619L90.4195 57.5694L90.3692 57.5624L90.3627 57.6087ZM87.7752 69.0681L87.7651 69.1137L87.8106 69.1239L87.8208 69.0784L87.7752 69.0681ZM71.692 65.4802L71.6463 65.47L71.6361 65.5156L71.6818 65.5258L71.692 65.4802ZM74.2523 54.0263L74.2669 53.9819L74.2179 53.9658L74.2067 54.0161L74.2523 54.0263ZM74.289 54.037L74.2773 54.0823L74.2773 54.0823L74.289 54.037ZM75 53.6199L74.9547 53.6082L75 53.6199ZM74.5806 52.911L74.5923 52.8657L74.5923 52.8657L74.5806 52.911ZM74.5048 52.8966L74.4592 52.8864L74.448 52.9367L74.4991 52.943L74.5048 52.8966ZM75.6242 53.991L75.5786 53.9806L75.5683 54.0262L75.6139 54.0366L75.6242 53.991ZM76.5125 54.1921L76.5021 54.2377L76.5477 54.248L76.5581 54.2024L76.5125 54.1921ZM75.7277 53.5351L75.738 53.4895L75.6924 53.4791L75.6821 53.5247L75.7277 53.5351ZM76.6159 53.7361L76.6615 53.7465L76.6719 53.7009L76.6263 53.6905L76.6159 53.7361ZM77.4007 54.3931L77.3551 54.3828L77.3448 54.4284L77.3904 54.4387L77.4007 54.3931ZM78.289 54.5942L78.2787 54.6398L78.3242 54.6501L78.3346 54.6046L78.289 54.5942ZM77.5042 53.9372L77.5145 53.8916L77.4689 53.8813L77.4586 53.9269L77.5042 53.9372ZM78.3925 54.1383L78.4381 54.1487L78.4484 54.1031L78.4028 54.0927L78.3925 54.1383ZM79.1773 54.7953L79.1317 54.785L79.1213 54.8306L79.1669 54.8409L79.1773 54.7953ZM80.0655 54.9964L80.0552 55.042L80.1008 55.0523L80.1111 55.0068L80.0655 54.9964ZM79.2807 54.3394L79.291 54.2938L79.2455 54.2835L79.2351 54.3291L79.2807 54.3394ZM80.169 54.5405L80.2146 54.5508L80.2249 54.5052L80.1793 54.4949L80.169 54.5405ZM80.9538 55.1975L80.9082 55.1871L80.8978 55.2328L80.9435 55.2431L80.9538 55.1975ZM81.842 55.3986L81.8317 55.4442L81.8773 55.4545L81.8876 55.4089L81.842 55.3986ZM81.0573 54.7416L81.0676 54.696L81.022 54.6857L81.0117 54.7312L81.0573 54.7416ZM81.9455 54.9427L81.9911 54.953L82.0015 54.9074L81.9558 54.8971L81.9455 54.9427ZM82.7303 55.5997L82.6847 55.5893L82.6744 55.6349L82.72 55.6453L82.7303 55.5997ZM83.6186 55.8008L83.6082 55.8464L83.6538 55.8567L83.6642 55.8111L83.6186 55.8008ZM82.8338 55.1438L82.8441 55.0982L82.7985 55.0878L82.7882 55.1334L82.8338 55.1438ZM83.722 55.3448L83.7676 55.3552L83.778 55.3096L83.7324 55.2993L83.722 55.3448ZM84.5068 56.0018L84.4612 55.9915L84.4509 56.0371L84.4965 56.0474L84.5068 56.0018ZM85.3951 56.2029L85.3848 56.2485L85.4304 56.2589L85.4407 56.2133L85.3951 56.2029ZM84.6103 55.5459L84.6206 55.5003L84.5751 55.49L84.5647 55.5356L84.6103 55.5459ZM85.4986 55.747L85.5442 55.7574L85.5545 55.7118L85.5089 55.7014L85.4986 55.747ZM86.2834 56.404L86.2378 56.3937L86.2274 56.4393L86.273 56.4496L86.2834 56.404ZM87.1716 56.6051L87.1613 56.6507L87.2069 56.661L87.2172 56.6155L87.1716 56.6051ZM86.3868 55.9481L86.3972 55.9025L86.3516 55.8922L86.3412 55.9378L86.3868 55.9481ZM87.2751 56.1492L87.3207 56.1595L87.331 56.1139L87.2854 56.1036L87.2751 56.1492ZM88.0599 56.8062L88.0143 56.7959L88.0039 56.8415L88.0496 56.8518L88.0599 56.8062ZM88.9482 57.0073L88.9378 57.0529L88.9834 57.0632L88.9937 57.0176L88.9482 57.0073ZM88.1634 56.3503L88.1737 56.3047L88.1281 56.2944L88.1178 56.3399L88.1634 56.3503ZM89.0516 56.5514L89.0972 56.5617L89.1076 56.5161L89.062 56.5058L89.0516 56.5514ZM94.5222 39.1857L78.3482 35.7012L78.3285 35.7926L94.5025 39.2771L94.5222 39.1857ZM90.6636 56.4883L94.5579 39.2417L94.4667 39.2211L90.5724 56.4678L90.6636 56.4883ZM90.5767 56.5148C90.586 56.5172 90.5951 56.5198 90.604 56.5227L90.6321 56.4334C90.6215 56.4301 90.6109 56.4271 90.6001 56.4243L90.5767 56.5148ZM89.9227 56.8984C89.9967 56.6126 90.2894 56.4407 90.5767 56.5148L90.6001 56.4243C90.2631 56.3373 89.9192 56.5389 89.8322 56.875L89.9227 56.8984ZM89.9087 57.0898C89.9019 57.0274 89.906 56.9628 89.9227 56.8984L89.8322 56.875C89.8126 56.9505 89.8077 57.0265 89.8157 57.0999L89.9087 57.0898ZM89.882 57.2187L89.9078 57.1052L89.8166 57.0845L89.7908 57.198L89.882 57.2187ZM89.9007 57.175L89.8467 57.1628L89.8261 57.254L89.8801 57.2662L89.9007 57.175ZM90.3085 57.5503C90.127 57.5035 89.9913 57.3697 89.9346 57.2054L89.8462 57.2358C89.9127 57.4287 90.0721 57.5859 90.2851 57.6409L90.3085 57.5503ZM90.3692 57.5624C90.349 57.5596 90.3288 57.5556 90.3085 57.5503L90.2851 57.6409C90.3088 57.647 90.3326 57.6517 90.3563 57.655L90.3692 57.5624ZM87.8208 69.0784L90.4083 57.619L90.3171 57.5984L87.7296 69.0578L87.8208 69.0784ZM71.6818 65.5258L87.7651 69.1137L87.7854 69.0225L71.7021 65.4345L71.6818 65.5258ZM74.2067 54.0161L71.6463 65.47L71.7376 65.4904L74.2979 54.0365L74.2067 54.0161ZM74.3007 53.9918C74.2892 53.9888 74.278 53.9855 74.2669 53.9819L74.2377 54.0707C74.2507 54.075 74.2639 54.0788 74.2773 54.0823L74.3007 53.9918ZM74.9547 53.6082C74.8807 53.894 74.588 54.0659 74.3007 53.9917L74.2773 54.0823C74.6143 54.1693 74.9582 53.9677 75.0452 53.6316L74.9547 53.6082ZM74.5689 52.9562C74.8562 53.0304 75.0287 53.3224 74.9547 53.6082L75.0452 53.6316C75.1323 53.2955 74.9293 52.9527 74.5923 52.8657L74.5689 52.9562ZM74.4991 52.943C74.5223 52.9458 74.5456 52.9502 74.5689 52.9562L74.5923 52.8657C74.5651 52.8587 74.5378 52.8535 74.5105 52.8502L74.4991 52.943ZM78.2928 35.7367L74.4592 52.8864L74.5505 52.9068L78.384 35.7571L78.2928 35.7367ZM75.6139 54.0366L76.5021 54.2377L76.5228 54.1465L75.6345 53.9454L75.6139 54.0366ZM75.6821 53.5247L75.5786 53.9806L75.6698 54.0013L75.7733 53.5454L75.6821 53.5247ZM76.6263 53.6905L75.738 53.4895L75.7173 53.5807L76.6056 53.7817L76.6263 53.6905ZM76.5581 54.2024L76.6615 53.7465L76.5703 53.7258L76.4669 54.1817L76.5581 54.2024ZM77.3904 54.4387L78.2787 54.6398L78.2993 54.5486L77.411 54.3475L77.3904 54.4387ZM77.4586 53.9269L77.3551 54.3828L77.4463 54.4035L77.5498 53.9476L77.4586 53.9269ZM78.4028 54.0927L77.5145 53.8916L77.4939 53.9828L78.3821 54.1839L78.4028 54.0927ZM78.3346 54.6046L78.4381 54.1487L78.3469 54.128L78.2434 54.5839L78.3346 54.6046ZM79.1669 54.8409L80.0552 55.042L80.0758 54.9508L79.1876 54.7497L79.1669 54.8409ZM79.2351 54.3291L79.1317 54.785L79.2228 54.8057L79.3263 54.3498L79.2351 54.3291ZM80.1793 54.4949L79.291 54.2938L79.2704 54.385L80.1587 54.5861L80.1793 54.4949ZM80.1111 55.0068L80.2146 54.5508L80.1234 54.5301L80.0199 54.9861L80.1111 55.0068ZM80.9435 55.2431L81.8317 55.4442L81.8524 55.353L80.9641 55.1519L80.9435 55.2431ZM81.0117 54.7312L80.9082 55.1871L80.9994 55.2078L81.1028 54.7519L81.0117 54.7312ZM81.9558 54.8971L81.0676 54.696L81.0469 54.7872L81.9352 54.9883L81.9558 54.8971ZM81.8876 55.4089L81.9911 54.953L81.8999 54.9323L81.7965 55.3882L81.8876 55.4089ZM82.72 55.6453L83.6082 55.8464L83.6289 55.7552L82.7406 55.5541L82.72 55.6453ZM82.7882 55.1334L82.6847 55.5893L82.7759 55.61L82.8794 55.1541L82.7882 55.1334ZM83.7324 55.2993L82.8441 55.0982L82.8235 55.1894L83.7117 55.3904L83.7324 55.2993ZM83.6642 55.8111L83.7676 55.3552L83.6765 55.3345L83.573 55.7904L83.6642 55.8111ZM84.4965 56.0474L85.3848 56.2485L85.4054 56.1573L84.5172 55.9563L84.4965 56.0474ZM84.5647 55.5356L84.4612 55.9915L84.5524 56.0122L84.6559 55.5563L84.5647 55.5356ZM85.5089 55.7014L84.6206 55.5003L84.6 55.5915L85.4883 55.7926L85.5089 55.7014ZM85.4407 56.2133L85.5442 55.7574L85.453 55.7367L85.3495 56.1926L85.4407 56.2133ZM86.273 56.4496L87.1613 56.6507L87.182 56.5595L86.2937 56.3584L86.273 56.4496ZM86.3412 55.9378L86.2378 56.3937L86.329 56.4144L86.4324 55.9585L86.3412 55.9378ZM87.2854 56.1036L86.3972 55.9025L86.3765 55.9937L87.2648 56.1948L87.2854 56.1036ZM87.2172 56.6155L87.3207 56.1595L87.2295 56.1389L87.126 56.5948L87.2172 56.6155ZM88.0496 56.8518L88.9378 57.0529L88.9585 56.9617L88.0702 56.7606L88.0496 56.8518ZM88.1178 56.3399L88.0143 56.7959L88.1055 56.8165L88.209 56.3606L88.1178 56.3399ZM89.062 56.5058L88.1737 56.3047L88.153 56.3959L89.0413 56.597L89.062 56.5058ZM88.9937 57.0176L89.0972 56.5617L89.006 56.541L88.9026 56.9969L88.9937 57.0176Z" fill="white"/>
<path d="M86.5663 53.0683L84.6794 52.6611L84.9509 51.4033L86.8377 51.8104L87.2449 49.9236L88.5027 50.195L88.0956 52.0819C88.0236 52.4155 87.822 52.7068 87.5352 52.8918C87.2484 53.0768 86.8999 53.1403 86.5663 53.0683Z" fill="#568DF4"/>
<path d="M78.654 50.0449L79.0612 48.158L80.3191 48.4295L79.9119 50.3163L81.7987 50.7235L81.5273 51.9813L79.6404 51.5742C79.3068 51.5022 79.0155 51.3006 78.8305 51.0138C78.6455 50.727 78.582 50.3785 78.654 50.0449Z" fill="#568DF4"/>
<path d="M80.9998 45.2832L79.7419 45.0117L80.1491 43.1249C80.2211 42.7913 80.4227 42.4999 80.7095 42.315C80.9963 42.13 81.3448 42.0665 81.6784 42.1385L83.5652 42.5456L83.2938 43.8035L81.407 43.3963L80.9998 45.2832Z" fill="#568DF4"/>
<path d="M88.325 44.8905L86.4382 44.4833L86.7096 43.2254L88.5964 43.6326C88.93 43.7046 89.2214 43.9061 89.4064 44.193C89.5914 44.4798 89.6549 44.8283 89.5829 45.1619L89.1757 47.0487L87.9178 46.7773L88.325 44.8905Z" fill="#568DF4"/>
<path d="M84.6014 48.3652L83.3435 48.0938L83.6149 46.8359L84.8728 47.1073L84.6014 48.3652Z" fill="#568DF4"/>
<path d="M85.6092 49.8984L84.3513 49.627L84.6228 48.3691L85.8806 48.6405L85.6092 49.8984Z" fill="#568DF4"/>
<path d="M83.0858 49.3535L81.8279 49.082L82.0993 47.8242L83.3572 48.0956L83.0858 49.3535Z" fill="#568DF4"/>
<path d="M86.1561 47.3847L84.8982 47.1133L85.1696 45.8554L86.4275 46.1268L86.1561 47.3847Z" fill="#568DF4"/>
<path d="M83.6248 46.8408L82.3669 46.5693L82.6384 45.3115L83.8963 45.5829L83.6248 46.8408Z" fill="#568DF4"/>
<path d="M75.8098 57.9038L75.9685 57.3193L78.1958 57.9897L78.09 58.3793L75.8098 57.9038Z" fill="#BCBFE3"/>
<path d="M75.5206 58.9254L75.6794 58.341L79.3019 59.0888L79.2729 59.5806L75.5206 58.9254Z" fill="#BCBFE3"/>
<path d="M74.4156 62.0554L74.3591 62.6797L75.7465 62.7979L75.7841 62.3817L74.4156 62.0554Z" fill="#BCBFE3"/>
<path d="M74.106 63.5359L74.2955 62.9793L76.8987 63.6366L76.817 64.1035L74.106 63.5359Z" fill="#BCBFE3"/>
<path d="M81.08 39.5113L81.2458 38.9104L89.8314 40.9183L89.9324 41.4577L81.08 39.5113Z" fill="#BCBFE3"/>
<path d="M82.6758 59.6616L82.8279 59.0752L83.9612 59.3998L83.8598 59.7907L82.6758 59.6616Z" fill="#BCBFE3"/>
<path d="M82.4059 60.6892L82.558 60.1028L86.1044 60.7771L86.0787 61.2685L82.4059 60.6892Z" fill="#BCBFE3"/>
<path d="M81.2617 63.9682L81.4138 63.3818L84.8601 64.3687L84.7586 64.7597L81.2617 63.9682Z" fill="#BCBFE3"/>
<path d="M80.9996 64.9948L81.1517 64.4085L86.9566 65.7296L86.9926 66.2386L80.9996 64.9948Z" fill="#BCBFE3"/>
<path fill-rule="evenodd" clip-rule="evenodd" d="M89.288 36.0799C89.4093 36.1075 89.4852 36.2282 89.4576 36.3494L88.8479 39.0276C88.8203 39.1489 88.6996 39.2248 88.5784 39.1972L85.56 38.5101C85.5705 38.3802 85.4843 38.259 85.3536 38.2292C85.2228 38.1995 85.0926 38.2715 85.0458 38.3931L84.3415 38.2327C84.2203 38.2051 84.1444 38.0845 84.172 37.9632L84.7816 35.285C84.8092 35.1637 84.9299 35.0878 85.0512 35.1154L85.7555 35.2758C85.751 35.2876 85.7472 35.2999 85.7443 35.3126C85.7117 35.456 85.8015 35.5988 85.945 35.6315C86.0884 35.6641 86.2312 35.5743 86.2639 35.4309C86.2668 35.4181 86.2687 35.4054 86.2697 35.3928L89.288 36.0799Z" fill="#868AC3"/>
<path d="M87.631 36.4918C87.4706 36.4585 87.3052 36.4741 87.1559 36.5368C87.0065 36.5994 86.8797 36.7063 86.7917 36.8438C86.7037 36.9813 86.6582 37.1434 86.6612 37.3094C86.6642 37.4755 86.7154 37.6381 86.8084 37.7767C86.9014 37.9153 87.032 38.0236 87.1837 38.0881C87.3353 38.1525 87.5013 38.1701 87.6605 38.1387C87.8197 38.1072 87.965 38.0281 88.0782 37.9114C88.1913 37.7947 88.267 37.6455 88.2959 37.4829C88.3343 37.2648 88.2859 37.038 88.1612 36.8522C88.0366 36.6664 87.8459 36.5368 87.631 36.4918ZM87.6789 37.6957C87.6746 37.72 87.661 37.7412 87.641 37.7549C87.6211 37.7685 87.5965 37.7734 87.5726 37.7684L87.5005 37.7534L87.4914 37.8048C87.4879 37.8264 87.4772 37.8459 87.4611 37.8601C87.4449 37.8743 87.4244 37.8823 87.4028 37.8828C87.3892 37.8828 87.3758 37.8797 87.3634 37.8738C87.351 37.8678 87.34 37.8592 87.3311 37.8485C87.3223 37.8377 87.3159 37.8252 87.3123 37.8118C87.3088 37.7983 87.3082 37.7843 87.3106 37.7708L87.3203 37.7159L87.2482 37.701C87.2349 37.6982 87.2223 37.6924 87.2112 37.6841C87.2002 37.6757 87.1911 37.6651 87.1845 37.6528C87.178 37.6406 87.1741 37.6271 87.1732 37.6133C87.1724 37.5994 87.1746 37.5857 87.1796 37.573C87.1879 37.5529 87.2029 37.5366 87.2219 37.5268C87.241 37.5169 87.2629 37.5141 87.2841 37.5189L87.5149 37.5669L87.5409 37.4207L87.3066 37.372C87.2827 37.367 87.2615 37.3526 87.2477 37.332C87.2338 37.3113 87.2284 37.2861 87.2327 37.2619L87.2911 36.9329C87.2954 36.9086 87.309 36.8874 87.329 36.8737C87.3489 36.8601 87.3735 36.8552 87.3974 36.8602L87.4695 36.8752L87.4786 36.8238C87.4821 36.8022 87.4927 36.7826 87.5089 36.7684C87.525 36.7542 87.5456 36.7462 87.5672 36.7458C87.5808 36.7458 87.5943 36.7489 87.6067 36.7548C87.619 36.7608 87.6301 36.7694 87.6389 36.7801C87.6477 36.7909 87.6541 36.8034 87.6577 36.8168C87.6612 36.8303 87.6618 36.8443 87.6594 36.8578L87.6497 36.9126L87.7218 36.9276C87.7351 36.9304 87.7478 36.9362 87.7588 36.9445C87.7699 36.9528 87.779 36.9635 87.7856 36.9757C87.7922 36.988 87.7961 37.0015 87.7969 37.0153C87.7978 37.0292 87.7956 37.0429 87.7906 37.0557C87.7822 37.0757 87.7672 37.092 87.7481 37.1018C87.7291 37.1117 87.7071 37.1144 87.6859 37.1097L87.4551 37.0617L87.4291 37.2079L87.6634 37.2566C87.6873 37.2616 87.7085 37.276 87.7224 37.2966C87.7362 37.3173 87.7416 37.3425 87.7373 37.3667L87.6789 37.6957Z" fill="#F6F7FA"/>
<path d="M85.3683 38.0924L85.8357 35.8428" stroke="#F6F7FA" stroke-width="0.23057" stroke-dasharray="0.51 0.26"/>
<path d="M55.6517 76.5402C55.6517 76.5402 48.0997 74.3758 47.2469 73.919C46.3941 73.4623 42.5162 78.796 39.0265 81.8204C39.0265 81.8204 50.5752 85.2293 54.2938 85.3956C58.0124 85.5618 75.1367 82.5876 85.1674 75.8215C86.0798 75.3095 91.8945 72.3319 90.99 70.5558C92.5573 69.5443 91.3513 67.6291 90.9195 67.9458C91.8372 67.2722 90.9728 66.001 89.9761 66.4658C83.9885 69.2576 82.2987 68.9907 80.7856 68.9907C80.7856 64.6047 75.9922 64.7937 77.1805 66.0006C79.6288 68.4872 77.6787 70.7413 77.6787 70.7413C77.6787 70.7413 75.8633 72.7201 68.5797 74.843C61.2962 76.9659 55.6517 76.5402 55.6517 76.5402Z" fill="#FFCAA4"/>
<path d="M90.9195 67.9458C91.8372 67.2722 90.9728 66.001 89.9761 66.4658C83.9885 69.2576 82.2987 68.9907 80.7856 68.9907C80.7856 64.6047 75.9922 64.7937 77.1805 66.0006C79.6288 68.4872 77.6787 70.7413 77.6787 70.7413C77.6787 70.7413 75.8633 72.7201 68.5797 74.843C61.2962 76.9659 55.6517 76.5402 55.6517 76.5402C55.6517 76.5402 48.0997 74.3758 47.2469 73.919C46.3941 73.4623 42.5162 78.796 39.0265 81.8204C39.0265 81.8204 50.5752 85.2293 54.2938 85.3956C58.0124 85.5618 75.1367 82.5876 85.1674 75.8215C86.0798 75.3095 91.8945 72.3319 90.99 70.5558M90.9195 67.9458C91.3513 67.6291 92.5573 69.5443 90.99 70.5558M90.9195 67.9458C89.505 68.9842 86.025 71.0082 83.4213 70.7972M90.99 70.5558C89.4227 71.5674 85.8282 73.52 83.9885 73.2379" stroke="black" stroke-width="0.884056" stroke-linecap="round" stroke-linejoin="round"/>
</g>
</g>
<defs>
<clipPath id="clip0_1752_34794">
<rect width="108" height="112" fill="white"/>
</clipPath>
</defs>
</svg>
