<svg width="108" height="112" viewBox="0 0 108 112" fill="none" xmlns="http://www.w3.org/2000/svg">
<g clip-path="url(#clip0_1600_67882)">
<circle cx="54" cy="57.9961" r="54" fill="white"/>
<mask id="mask0_1600_67882" style="mask-type:alpha" maskUnits="userSpaceOnUse" x="-2" y="-2" width="111" height="114">
<path fill-rule="evenodd" clip-rule="evenodd" d="M108.722 -1.40039H-1.07812V63.0396H0.232059C2.77352 90.5001 25.876 112 54 112C82.124 112 105.226 90.5001 107.768 63.0396H108.722V-1.40039Z" fill="#D9D9D9"/>
</mask>
<g mask="url(#mask0_1600_67882)">
<path d="M13.5596 138.131C11.3466 126.488 15.4208 112.146 19.1432 109.411C19.1432 109.411 24.3363 106.015 32.0136 105.55C39.691 105.084 45.6648 106.48 45.6648 106.48C51.2483 123.673 65.6723 150.178 65.6723 158.919C65.6723 162.438 72.0288 206.053 77.6123 208.379L64.0439 214.748C64.0439 214.748 53.1095 173.017 51.0157 165.968C48.9218 158.919 37.5222 139.464 37.5222 139.464C37.5222 139.464 32.4039 166.532 27.9836 174.427C23.5633 182.322 -3.19092 210.519 -3.19092 210.519L-13.66 201.496C-1.0971 184.296 13.3458 171.008 14.5652 164.409C16.358 154.707 14.9284 145.332 13.5596 138.131Z" fill="#BABECB" stroke="black" stroke-width="0.884056" stroke-linecap="round" stroke-linejoin="round"/>
<path d="M58.5599 52.9722C48.3234 54.1354 43.8393 52.7395 32.9688 49.7151C32.9688 49.7151 30.875 50.4131 26.4547 49.9478C22.0344 49.4825 20.7024 47.3887 20.7024 47.3887C18.1783 49.4049 11.5353 61.1148 11.5353 73.4451C11.5353 85.7753 9.99987 111.413 6.64977 111.599C3.29966 111.785 21.9296 114.158 27.4492 111.599C32.9688 109.04 45.3629 107.877 52.575 110.436C52.3764 103.882 50.4036 88.1815 45.7743 75.2264L47.6255 73.4451L44.8772 72.8096C44.0792 70.74 43.6817 69.1582 42.7399 67.1636C45.7743 68.3268 55.0702 67.1636 59.2578 65.7677C56.2334 58.323 58.5599 52.9722 58.5599 52.9722Z" fill="#505798"/>
<path d="M47.6255 73.4451L44.8772 72.8096M47.6255 73.4451C46.7818 73.3004 45.8582 73.0858 44.8772 72.8096M47.6255 73.4451L45.7743 75.2264M21.1038 57.1598C23.6063 63.416 36.3901 70.42 44.8772 72.8096M18.7774 71.1186C20.7024 76.2368 35.9932 87.8691 36.2259 85.7753C36.4585 83.6815 45.7743 75.2264 45.7743 75.2264M42.7399 67.1636C40.7544 62.9585 39.3666 57.5912 36.6912 54.1354C38.9247 56.3688 41.3458 64.2167 42.7399 67.1636ZM42.7399 67.1636C45.7743 68.3268 55.0702 67.1636 59.2578 65.7677C56.2334 58.323 58.5599 52.9722 58.5599 52.9722C48.3234 54.1354 43.8393 52.7395 32.9688 49.7151C32.9688 49.7151 30.875 50.4131 26.4547 49.9478C22.0344 49.4825 20.7024 47.3887 20.7024 47.3887C18.1783 49.4049 11.5353 61.1148 11.5353 73.4451C11.5353 85.7753 9.99987 111.413 6.64977 111.599C3.29966 111.785 21.9296 114.158 27.4492 111.599C32.9688 109.04 45.3629 107.877 52.575 110.436C52.3764 103.882 50.4036 88.1815 45.7743 75.2264M42.7399 67.1636C43.6817 69.1582 44.0792 70.74 44.8772 72.8096" stroke="black" stroke-width="0.884056" stroke-linecap="round" stroke-linejoin="round"/>
<ellipse cx="59.4896" cy="59.2546" rx="1.39588" ry="6.74674" fill="black"/>
<path d="M41.543 81.5884C40.2402 83.2634 37.2778 85.3882 35.9595 86.2413C35.0289 85.8691 39.0176 82.519 40.4135 80.4252C41.8094 80.4252 42.8458 79.9133 41.543 81.5884Z" fill="black" stroke="black" stroke-width="0.884056" stroke-linecap="round" stroke-linejoin="round"/>
<path d="M35.9692 87.1723C33.7358 86.9862 25.1124 79.1072 21.3125 74.6094C25.0348 78.3317 32.3244 83.605 35.5039 85.7764L40.1568 82.2867L48.2995 84.8458L40.3895 83.6826C39.2263 84.9234 38.2026 87.3584 35.9692 87.1723Z" fill="black" stroke="black" stroke-width="0.884056" stroke-linecap="round" stroke-linejoin="round"/>
<path d="M73.142 50.6829C71.3432 53.345 63.0839 53.2441 58.6595 52.8838C56.6123 57.473 58.064 62.2135 58.9509 64.2225C61.5003 65.3598 75.0345 65.2833 78.7508 59.8082C80.8412 56.7284 89.1612 36.0907 92.072 26.52C94.6475 25.8857 94.9839 21.7051 95.1048 19.721C95.1427 19.0993 94.4707 18.4876 93.7818 18.1194C93.3979 17.9141 98.4685 11.0392 96.4387 9.87905C94.409 8.71887 91.2782 18.0215 90.2187 17.5414C89.1592 17.0614 93.0395 8.36271 89.6142 8.61795C88.0582 8.73389 87.7841 16.7176 85.7474 22.425C87.0908 24.5527 75.3906 47.3553 73.142 50.6829Z" fill="#FFCAA4" stroke="black" stroke-width="0.884056" stroke-linecap="round" stroke-linejoin="round"/>
<path d="M89.9027 20.2989C89.8315 21.3146 92.1641 21.8182 93.8302 21.9348C95.4964 22.0515 95.8839 21.4694 95.9364 20.7214C95.9888 19.9735 95.6862 19.343 94.02 19.2263C92.3539 19.1097 89.9738 19.2832 89.9027 20.2989Z" fill="#FFCAA4" stroke="black" stroke-width="0.884056" stroke-linecap="round" stroke-linejoin="round"/>
<path d="M89.3741 22.6977C89.3118 23.5861 91.352 24.0265 92.8093 24.1286C94.2666 24.2306 94.6055 23.7215 94.6514 23.0673C94.6972 22.4131 94.4326 21.8617 92.9753 21.7596C91.518 21.6576 89.4363 21.8094 89.3741 22.6977Z" fill="#FFCAA4" stroke="black" stroke-width="0.884056" stroke-linecap="round" stroke-linejoin="round"/>
<path d="M90.324 22.3058C89.4994 23.1575 87.5276 21.7983 86.3277 20.6365C85.1278 19.4747 85.3715 18.7256 85.9787 18.0985C86.5859 17.4713 87.3266 17.2035 88.5266 18.3653C89.7265 19.5272 91.1486 21.4542 90.324 22.3058Z" fill="#FFCAA4" stroke="black" stroke-width="0.884056" stroke-linecap="round" stroke-linejoin="round"/>
<path d="M46.0635 35.7617V17.8479H25.1253C25.1253 22.9661 24.66 25.1375 24.1947 26.2232C22.4111 24.9048 18.6577 23.1522 17.9133 26.6885C17.1688 30.2247 21.0152 31.574 23.0315 31.8067C24.5204 39.8097 23.0315 45.6879 22.1009 47.6266C23.9621 51.349 30.4762 50.7286 33.5006 49.9531V44.1369C45.9704 44.5092 46.0635 39.9493 46.0635 35.7617Z" fill="#FFCAA4" stroke="black" stroke-width="0.884056" stroke-linejoin="round"/>
<path d="M33.2681 44.1368C31.638 44.0627 28.9603 43.578 28.2379 42.2363C28.2076 42.1703 28.1782 42.1058 28.1498 42.043C28.1747 42.1093 28.2042 42.1738 28.2379 42.2363C29.3677 44.6999 31.818 49.3578 33.2681 49.7203V44.1368Z" fill="black" stroke="black" stroke-width="0.884056" stroke-linecap="round" stroke-linejoin="round"/>
<path d="M52.7881 13.1994C53.5326 20.8302 35.5723 21.6522 26.4991 21.1093C26.4991 23.1353 24.9172 25.3945 24.3582 26.1929L24.3409 26.2176C24.3409 26.2176 22.2471 22.9606 18.5248 25.0544C18.322 25.1684 17.1932 26.6464 16.2627 17.1544C15.3321 7.66243 24.7155 7.6159 29.5235 8.77913C30.2214 9.16688 32.8271 9.70972 37.6661 8.77913C42.5051 7.84855 45.2659 5.28941 46.0414 4.12616C47.9801 3.97106 52.0436 5.56857 52.7881 13.1994Z" fill="black" stroke="black" stroke-width="0.697939" stroke-linecap="round" stroke-linejoin="round"/>
<path d="M47.6919 8.07129C45.9858 9.85491 40.7125 13.0499 33.2678 11.561" stroke="white" stroke-width="0.697939" stroke-linecap="round" stroke-linejoin="round"/>
<path d="M35.1508 30.7411C35.5253 29.512 36.8253 28.8193 38.0543 29.1937C39.2834 29.5682 39.9762 30.8682 39.6017 32.0973C39.3799 32.8254 38.8333 33.3653 38.169 33.6066" stroke="black" stroke-width="0.697939" stroke-linecap="round" stroke-linejoin="round"/>
<circle cx="0.697939" cy="0.697939" r="0.697939" transform="matrix(-1 0 0 1 34.187 28.6379)" fill="black"/>
<circle cx="0.697939" cy="0.697939" r="0.697939" transform="matrix(-1 0 0 1 41.7905 28.312)" fill="black"/>
<path d="M33.8809 24.5897C33.4156 23.6591 31.0891 23.6591 30.8565 25.7529" stroke="black" stroke-width="0.697939" stroke-linecap="round" stroke-linejoin="round"/>
<path d="M39.9292 25.1477C40.1618 24.3568 42.4883 23.8915 42.4883 25.8404" stroke="black" stroke-width="0.697939" stroke-linecap="round" stroke-linejoin="round"/>
<path d="M35.0924 39.5028C32.2003 38.7013 31.0116 34.7787 30.7788 32.9175C33.1568 35.0338 37.8767 36.6534 41.9317 34.663C41.4382 38.389 38.5338 40.4565 35.0924 39.5028Z" fill="black" stroke="black" stroke-width="0.697939" stroke-linecap="round" stroke-linejoin="round"/>
<path d="M35.976 38.1998C37.462 37.2461 38.8906 38.0193 39.4192 38.5251C35.4995 40.4812 33.5314 38.3408 33.0374 37.0261C34.1626 36.1641 35.4653 37.4494 35.976 38.1998Z" fill="white"/>
<path d="M32.0191 60.4176C35.4973 60.6065 33.1593 53.533 32.8694 48.8114L21.7827 47.3894C22.0001 54.2357 27.6714 60.1815 32.0191 60.4176Z" fill="#FFCAA4" stroke="black" stroke-width="0.884056" stroke-linecap="round" stroke-linejoin="round"/>
<path d="M22.248 48.0873V46.9241L30.158 47.8547L32.9498 50.1811L22.248 48.0873Z" fill="#FFCAA4"/>
<path d="M32.9499 51.1116C32.9499 51.1116 29.9425 48.4391 29.6929 47.1566C29.4433 45.8741 32.9499 48.8032 32.9499 48.8032V51.1116Z" fill="black"/>
<path d="M32.019 40.8752L32.019 44.1323" stroke="black" stroke-width="0.697939" stroke-linecap="round" stroke-linejoin="round"/>
<path d="M33.8804 41.3406V44.1323" stroke="black" stroke-width="0.697939" stroke-linecap="round" stroke-linejoin="round"/>
<path d="M35.7417 41.8059V44.1324" stroke="black" stroke-width="0.697939" stroke-linecap="round" stroke-linejoin="round"/>
<path d="M37.6025 41.8059V44.1324" stroke="black" stroke-width="0.697939" stroke-linecap="round" stroke-linejoin="round"/>
<path d="M39.4639 41.8059V43.6671" stroke="black" stroke-width="0.697939" stroke-linecap="round" stroke-linejoin="round"/>
<path d="M41.3252 41.3406V43.2017" stroke="black" stroke-width="0.697939" stroke-linecap="round" stroke-linejoin="round"/>
<path d="M97.1013 57.1272C97.0139 57.4242 96.7013 57.5941 96.4031 57.5067C96.1048 57.4192 95.9339 57.1074 96.0213 56.8104C96.1087 56.5133 96.4213 56.3434 96.7196 56.4309C97.0178 56.5184 97.1887 56.8301 97.1013 57.1272Z" fill="white"/>
<path d="M97.058 57.1145C96.9777 57.3875 96.6902 57.5439 96.4157 57.4634L96.3904 57.5499C96.7123 57.6444 97.0501 57.461 97.1445 57.1399L97.058 57.1145ZM96.4157 57.4634C96.1413 57.3829 95.9843 57.0961 96.0646 56.8231L95.9781 56.7976C95.8836 57.1187 96.0684 57.4555 96.3904 57.5499L96.4157 57.4634ZM96.0646 56.8231C96.1449 56.55 96.4324 56.3936 96.7069 56.4741L96.7322 56.3876C96.4103 56.2932 96.0726 56.4766 95.9781 56.7976L96.0646 56.8231ZM96.7069 56.4741C96.9813 56.5547 97.1384 56.8414 97.058 57.1145L97.1445 57.1399C97.239 56.8188 97.0542 56.4821 96.7322 56.3876L96.7069 56.4741Z" fill="white"/>
<path d="M78.1227 32.7067L78.1226 32.7068L70.7018 66.3821L70.8382 66.412L70.7018 66.3821C70.5233 67.193 70.6667 68.0402 71.1015 68.7376C71.5364 69.4352 72.2273 69.9258 73.0228 70.1007L86.1551 72.9856C86.5493 73.0721 86.957 73.0783 87.355 73.004C87.753 72.9297 88.1334 72.7763 88.4744 72.5527C88.8154 72.3292 89.1105 72.0399 89.3428 71.7015C89.5751 71.363 89.7403 70.982 89.8289 70.5802L97.2495 36.9059C97.3381 36.5043 97.3484 36.0897 97.28 35.6855C97.2115 35.2814 97.0655 34.8955 96.8502 34.5501C96.6348 34.2047 96.3543 33.9065 96.0246 33.6726C95.6949 33.4387 95.3224 33.2738 94.9285 33.1873C94.9285 33.1873 94.9285 33.1873 94.9285 33.1873L81.7962 30.3024L81.7962 30.3024C81.0002 30.1277 80.1661 30.2837 79.4774 30.735C78.7888 31.1862 78.3018 31.8955 78.1227 32.7067Z" fill="black" stroke="black" stroke-width="0.279218"/>
<path d="M94.547 34.4141L92.0007 33.8539C91.8321 33.8212 91.6571 33.8582 91.5139 33.9568C91.3706 34.0553 91.271 34.2074 91.2367 34.3796L91.1347 34.8519C91.1178 34.9372 91.0847 35.0185 91.0372 35.0912C90.9896 35.1638 90.9287 35.2263 90.8577 35.2751C90.7868 35.3239 90.7072 35.3581 90.6237 35.3757C90.5401 35.3933 90.4541 35.3939 90.3706 35.3776L85.4082 34.2874C85.2413 34.2466 85.0979 34.1398 85.0093 33.9904C84.9206 33.841 84.8941 33.6612 84.9354 33.4904L85.0376 33.0171C85.0789 32.8464 85.0523 32.6666 84.9637 32.5172C84.8751 32.3678 84.7316 32.261 84.5648 32.2202L83.6685 32.0277L81.4401 31.5391C81.177 31.4813 80.9047 31.477 80.6388 31.5266C80.373 31.5761 80.1188 31.6785 79.8907 31.828C79.6626 31.9774 79.4651 32.1709 79.3095 32.3974C79.1539 32.6239 79.0432 32.879 78.9838 33.1481L71.7404 66.0173C71.6816 66.2866 71.6753 66.5646 71.7219 66.8353C71.7684 67.1061 71.8668 67.3642 72.0116 67.5951C72.1563 67.8259 72.3445 68.0249 72.5654 68.1807C72.7863 68.3365 73.0356 68.446 73.299 68.503L86.405 71.3823C86.668 71.4401 86.9403 71.4443 87.2061 71.3948C87.4719 71.3452 87.726 71.2427 87.954 71.0933C88.1821 70.9438 88.3794 70.7503 88.5349 70.5238C88.6904 70.2973 88.801 70.0421 88.8603 69.773L96.1016 36.9079C96.1618 36.6383 96.1692 36.3597 96.1236 36.0882C96.0779 35.8167 95.98 35.5576 95.8356 35.3259C95.6911 35.0942 95.5029 34.8943 95.2818 34.7379C95.0607 34.5814 94.8109 34.4714 94.547 34.4141Z" fill="#293044"/>
<path d="M77.3137 32.2573L77.3137 32.2573L69.8891 65.9319L70.0254 65.9617L69.8891 65.9319C69.7102 66.7438 69.862 67.5932 70.3109 68.2934C70.7597 68.9936 71.469 69.4873 72.2827 69.6661L85.7504 72.6231C86.1537 72.7116 86.5705 72.7199 86.9771 72.6477C87.3836 72.5755 87.772 72.4242 88.1199 72.2023C88.4679 71.9804 88.7687 71.6924 89.0051 71.3545C89.2415 71.0167 89.4088 70.6358 89.4976 70.2335L96.9219 36.56C97.0107 36.158 97.0191 35.7425 96.9468 35.3372C96.8745 34.932 96.7228 34.5449 96.5005 34.1982C96.2782 33.8514 95.9896 33.5518 95.6512 33.3163C95.3129 33.0808 94.9313 32.9142 94.5283 32.8258C94.5283 32.8258 94.5283 32.8258 94.5282 32.8258L81.0607 29.8688L81.0606 29.8688C80.2464 29.6902 79.3942 29.8414 78.6916 30.2892C77.9889 30.7371 77.4932 31.445 77.3137 32.2573Z" fill="#0B44AC" stroke="black" stroke-width="0.279218"/>
<path d="M94.1709 33.8777L91.5596 33.3035C91.3868 33.27 91.2076 33.3061 91.0614 33.404C90.9152 33.5019 90.8139 33.6536 90.7797 33.8259L90.6777 34.2981C90.6609 34.3835 90.6274 34.4647 90.5791 34.5372C90.5308 34.6096 90.4686 34.6719 90.3962 34.7204C90.3238 34.7689 90.2425 34.8027 90.157 34.8199C90.0715 34.837 89.9834 34.8372 89.8978 34.8205L84.8086 33.7029C84.6375 33.6612 84.49 33.5536 84.3984 33.4035C84.3068 33.2535 84.2787 33.0734 84.3201 32.9026L84.4223 32.4293C84.4638 32.2586 84.4356 32.0785 84.344 31.9284C84.2524 31.7784 84.1049 31.6707 83.9338 31.629L83.0146 31.4316L80.7293 30.9308C80.4595 30.8715 80.1806 30.8658 79.9085 30.914C79.6364 30.9623 79.3765 31.0635 79.1437 31.2118C78.9108 31.3602 78.7095 31.5529 78.5513 31.7789C78.3931 32.0048 78.281 32.2596 78.2216 32.5287L70.9745 65.3971C70.9158 65.6665 70.9108 65.9447 70.9599 66.216C71.0089 66.4873 71.1111 66.7462 71.2606 66.9781C71.4101 67.21 71.6039 67.4102 71.831 67.5673C72.0581 67.7244 72.3141 67.8354 72.5842 67.8938L86.0248 70.8451C86.2946 70.9043 86.5735 70.91 86.8455 70.8618C87.1176 70.8135 87.3774 70.7123 87.6102 70.5639C87.8429 70.4154 88.0441 70.2227 88.2022 69.9968C88.3603 69.7708 88.4722 69.516 88.5315 69.2469L95.7766 36.3826C95.8368 36.1129 95.8429 35.834 95.7947 35.562C95.7465 35.29 95.6449 35.0301 95.4957 34.7974C95.3465 34.5646 95.1527 34.3636 94.9253 34.2057C94.698 34.0479 94.4416 33.9365 94.1709 33.8777Z" fill="#DDEAFF"/>
<path fill-rule="evenodd" clip-rule="evenodd" d="M78.3386 35.7471L94.5126 39.2315L90.6183 56.4782C90.6085 56.4751 90.5987 56.4723 90.5887 56.4697C90.2765 56.3891 89.9582 56.5759 89.8777 56.8868C89.8596 56.9568 89.855 57.0271 89.8624 57.095L89.8367 57.2085L89.8906 57.2207C89.9523 57.3994 90.0998 57.5448 90.2971 57.5957C90.319 57.6014 90.341 57.6058 90.363 57.6088L87.7755 69.0682L71.6922 65.4803L74.2526 54.0264C74.2646 54.0303 74.2768 54.0339 74.2892 54.0371C74.6014 54.1177 74.9197 53.931 75.0002 53.62C75.0807 53.3091 74.893 52.9917 74.5808 52.9111C74.5556 52.9046 74.5303 52.8998 74.5051 52.8967L78.3386 35.7471ZM76.5127 54.1922L75.6244 53.9911L75.7279 53.5352L76.6162 53.7363L76.5127 54.1922ZM78.2892 54.5944L77.401 54.3933L77.5044 53.9374L78.3927 54.1384L78.2892 54.5944ZM80.0658 54.9965L79.1775 54.7954L79.281 54.3395L80.1692 54.5406L80.0658 54.9965ZM81.8423 55.3987L80.954 55.1976L81.0575 54.7417L81.9458 54.9428L81.8423 55.3987ZM83.6188 55.8009L82.7306 55.5998L82.834 55.1439L83.7223 55.345L83.6188 55.8009ZM85.3953 56.2031L84.5071 56.002L84.6106 55.5461L85.4988 55.7471L85.3953 56.2031ZM87.1719 56.6052L86.2836 56.4041L86.3871 55.9482L87.2753 56.1493L87.1719 56.6052ZM88.9484 57.0074L88.0601 56.8063L88.1636 56.3504L89.0519 56.5515L88.9484 57.0074Z" fill="white"/>
<path d="M94.5126 39.2315L94.5582 39.2418L94.5686 39.1958L94.5224 39.1858L94.5126 39.2315ZM78.3386 35.7471L78.3485 35.7013L78.3031 35.6916L78.293 35.7369L78.3386 35.7471ZM90.6183 56.4782L90.6043 56.5228L90.6527 56.538L90.6639 56.4885L90.6183 56.4782ZM90.5887 56.4697L90.577 56.515L90.577 56.515L90.5887 56.4697ZM89.8777 56.8868L89.8324 56.8751L89.8324 56.8751L89.8777 56.8868ZM89.8624 57.095L89.908 57.1053L89.9098 57.0977L89.9089 57.0899L89.8624 57.095ZM89.8367 57.2085L89.7911 57.1982L89.7807 57.2438L89.8263 57.2541L89.8367 57.2085ZM89.8906 57.2207L89.9348 57.2055L89.9264 57.1809L89.901 57.1751L89.8906 57.2207ZM90.2971 57.5957L90.3087 57.5505L90.2971 57.5957ZM90.363 57.6088L90.4086 57.6191L90.4198 57.5696L90.3695 57.5625L90.363 57.6088ZM87.7755 69.0682L87.7653 69.1138L87.8108 69.124L87.8211 69.0785L87.7755 69.0682ZM71.6922 65.4803L71.6466 65.4701L71.6364 65.5157L71.682 65.5259L71.6922 65.4803ZM74.2526 54.0264L74.2671 53.982L74.2182 53.9659L74.2069 54.0162L74.2526 54.0264ZM74.2892 54.0371L74.2776 54.0824L74.2776 54.0824L74.2892 54.0371ZM75.0002 53.62L74.955 53.6083L75.0002 53.62ZM74.5808 52.9111L74.5925 52.8658L74.5925 52.8658L74.5808 52.9111ZM74.5051 52.8967L74.4595 52.8865L74.4482 52.9368L74.4994 52.9431L74.5051 52.8967ZM75.6244 53.9911L75.5789 53.9807L75.5685 54.0264L75.6141 54.0367L75.6244 53.9911ZM76.5127 54.1922L76.5024 54.2378L76.548 54.2481L76.5583 54.2025L76.5127 54.1922ZM75.7279 53.5352L75.7382 53.4896L75.6927 53.4793L75.6823 53.5248L75.7279 53.5352ZM76.6162 53.7363L76.6618 53.7466L76.6721 53.701L76.6265 53.6907L76.6162 53.7363ZM77.401 54.3933L77.3554 54.3829L77.345 54.4285L77.3906 54.4389L77.401 54.3933ZM78.2892 54.5944L78.2789 54.64L78.3245 54.6503L78.3348 54.6047L78.2892 54.5944ZM77.5044 53.9374L77.5148 53.8918L77.4692 53.8814L77.4589 53.927L77.5044 53.9374ZM78.3927 54.1384L78.4383 54.1488L78.4487 54.1032L78.403 54.0928L78.3927 54.1384ZM79.1775 54.7954L79.1319 54.7851L79.1216 54.8307L79.1672 54.841L79.1775 54.7954ZM80.0658 54.9965L80.0554 55.0421L80.101 55.0524L80.1114 55.0069L80.0658 54.9965ZM79.281 54.3395L79.2913 54.2939L79.2457 54.2836L79.2354 54.3292L79.281 54.3395ZM80.1692 54.5406L80.2148 54.551L80.2252 54.5053L80.1796 54.495L80.1692 54.5406ZM80.954 55.1976L80.9084 55.1873L80.8981 55.2329L80.9437 55.2432L80.954 55.1976ZM81.8423 55.3987L81.832 55.4443L81.8775 55.4546L81.8879 55.4091L81.8423 55.3987ZM81.0575 54.7417L81.0678 54.6961L81.0222 54.6858L81.0119 54.7314L81.0575 54.7417ZM81.9458 54.9428L81.9914 54.9531L82.0017 54.9075L81.9561 54.8972L81.9458 54.9428ZM82.7306 55.5998L82.685 55.5894L82.6746 55.6351L82.7202 55.6454L82.7306 55.5998ZM83.6188 55.8009L83.6085 55.8465L83.6541 55.8568L83.6644 55.8112L83.6188 55.8009ZM82.834 55.1439L82.8443 55.0983L82.7988 55.088L82.7884 55.1335L82.834 55.1439ZM83.7223 55.345L83.7679 55.3553L83.7782 55.3097L83.7326 55.2994L83.7223 55.345ZM84.5071 56.002L84.4615 55.9916L84.4511 56.0372L84.4968 56.0476L84.5071 56.002ZM85.3953 56.2031L85.385 56.2487L85.4306 56.259L85.4409 56.2134L85.3953 56.2031ZM84.6106 55.5461L84.6209 55.5005L84.5753 55.4901L84.565 55.5357L84.6106 55.5461ZM85.4988 55.7471L85.5444 55.7575L85.5548 55.7119L85.5091 55.7015L85.4988 55.7471ZM86.2836 56.4041L86.238 56.3938L86.2277 56.4394L86.2733 56.4497L86.2836 56.4041ZM87.1719 56.6052L87.1616 56.6508L87.2071 56.6611L87.2175 56.6156L87.1719 56.6052ZM86.3871 55.9482L86.3974 55.9026L86.3518 55.8923L86.3415 55.9379L86.3871 55.9482ZM87.2753 56.1493L87.3209 56.1597L87.3313 56.1141L87.2857 56.1037L87.2753 56.1493ZM88.0601 56.8063L88.0145 56.796L88.0042 56.8416L88.0498 56.8519L88.0601 56.8063ZM88.9484 57.0074L88.9381 57.053L88.9836 57.0633L88.994 57.0178L88.9484 57.0074ZM88.1636 56.3504L88.1739 56.3048L88.1284 56.2945L88.118 56.3401L88.1636 56.3504ZM89.0519 56.5515L89.0975 56.5618L89.1078 56.5162L89.0622 56.5059L89.0519 56.5515ZM94.5224 39.1858L78.3485 35.7013L78.3288 35.7928L94.5027 39.2772L94.5224 39.1858ZM90.6639 56.4885L94.5582 39.2418L94.467 39.2212L90.5727 56.4679L90.6639 56.4885ZM90.577 56.515C90.5862 56.5173 90.5953 56.52 90.6043 56.5228L90.6323 56.4336C90.6218 56.4303 90.6111 56.4272 90.6003 56.4244L90.577 56.515ZM89.9229 56.8985C89.9969 56.6127 90.2897 56.4408 90.577 56.515L90.6003 56.4244C90.2634 56.3374 89.9194 56.539 89.8324 56.8751L89.9229 56.8985ZM89.9089 57.0899C89.9021 57.0276 89.9063 56.963 89.9229 56.8985L89.8324 56.8751C89.8129 56.9506 89.8079 57.0266 89.816 57.1L89.9089 57.0899ZM89.8823 57.2188L89.908 57.1053L89.8168 57.0846L89.7911 57.1982L89.8823 57.2188ZM89.901 57.1751L89.847 57.1629L89.8263 57.2541L89.8803 57.2663L89.901 57.1751ZM90.3087 57.5505C90.1273 57.5036 89.9915 57.3699 89.9348 57.2055L89.8464 57.236C89.913 57.4289 90.0724 57.586 90.2854 57.641L90.3087 57.5505ZM90.3695 57.5625C90.3493 57.5597 90.329 57.5557 90.3087 57.5505L90.2854 57.641C90.3091 57.6471 90.3328 57.6518 90.3565 57.6551L90.3695 57.5625ZM87.8211 69.0785L90.4086 57.6191L90.3174 57.5985L87.7299 69.0579L87.8211 69.0785ZM71.682 65.5259L87.7653 69.1138L87.7857 69.0226L71.7024 65.4347L71.682 65.5259ZM74.2069 54.0162L71.6466 65.4701L71.7378 65.4905L74.2982 54.0366L74.2069 54.0162ZM74.3009 53.9919C74.2895 53.9889 74.2782 53.9856 74.2671 53.982L74.238 54.0708C74.251 54.0751 74.2642 54.0789 74.2776 54.0824L74.3009 53.9919ZM74.955 53.6083C74.881 53.8941 74.5882 54.066 74.3009 53.9919L74.2776 54.0824C74.6145 54.1694 74.9585 53.9678 75.0455 53.6317L74.955 53.6083ZM74.5692 52.9564C74.8564 53.0305 75.029 53.3225 74.955 53.6083L75.0455 53.6317C75.1325 53.2956 74.9295 52.9528 74.5925 52.8658L74.5692 52.9564ZM74.4994 52.9431C74.5226 52.946 74.5459 52.9504 74.5692 52.9564L74.5925 52.8658C74.5653 52.8588 74.538 52.8537 74.5108 52.8503L74.4994 52.9431ZM78.293 35.7369L74.4595 52.8865L74.5507 52.9069L78.3843 35.7573L78.293 35.7369ZM75.6141 54.0367L76.5024 54.2378L76.523 54.1466L75.6348 53.9455L75.6141 54.0367ZM75.6823 53.5248L75.5789 53.9807L75.67 54.0014L75.7735 53.5455L75.6823 53.5248ZM76.6265 53.6907L75.7382 53.4896L75.7176 53.5808L76.6059 53.7819L76.6265 53.6907ZM76.5583 54.2025L76.6618 53.7466L76.5706 53.7259L76.4671 54.1818L76.5583 54.2025ZM77.3906 54.4389L78.2789 54.64L78.2996 54.5488L77.4113 54.3477L77.3906 54.4389ZM77.4589 53.927L77.3554 54.3829L77.4466 54.4036L77.55 53.9477L77.4589 53.927ZM78.403 54.0928L77.5148 53.8918L77.4941 53.983L78.3824 54.184L78.403 54.0928ZM78.3348 54.6047L78.4383 54.1488L78.3471 54.1281L78.2436 54.584L78.3348 54.6047ZM79.1672 54.841L80.0554 55.0421L80.0761 54.9509L79.1878 54.7498L79.1672 54.841ZM79.2354 54.3292L79.1319 54.7851L79.2231 54.8058L79.3266 54.3499L79.2354 54.3292ZM80.1796 54.495L79.2913 54.2939L79.2706 54.3851L80.1589 54.5862L80.1796 54.495ZM80.1114 55.0069L80.2148 54.551L80.1236 54.5303L80.0202 54.9862L80.1114 55.0069ZM80.9437 55.2432L81.832 55.4443L81.8526 55.3531L80.9643 55.152L80.9437 55.2432ZM81.0119 54.7314L80.9084 55.1873L80.9996 55.208L81.1031 54.7521L81.0119 54.7314ZM81.9561 54.8972L81.0678 54.6961L81.0472 54.7873L81.9354 54.9884L81.9561 54.8972ZM81.8879 55.4091L81.9914 54.9531L81.9002 54.9324L81.7967 55.3884L81.8879 55.4091ZM82.7202 55.6454L83.6085 55.8465L83.6291 55.7553L82.7409 55.5542L82.7202 55.6454ZM82.7884 55.1335L82.685 55.5894L82.7761 55.6101L82.8796 55.1542L82.7884 55.1335ZM83.7326 55.2994L82.8443 55.0983L82.8237 55.1895L83.712 55.3906L83.7326 55.2994ZM83.6644 55.8112L83.7679 55.3553L83.6767 55.3346L83.5732 55.7905L83.6644 55.8112ZM84.4968 56.0476L85.385 56.2487L85.4057 56.1575L84.5174 55.9564L84.4968 56.0476ZM84.565 55.5357L84.4615 55.9916L84.5527 56.0123L84.6561 55.5564L84.565 55.5357ZM85.5091 55.7015L84.6209 55.5005L84.6002 55.5917L85.4885 55.7927L85.5091 55.7015ZM85.4409 56.2134L85.5444 55.7575L85.4532 55.7368L85.3498 56.1927L85.4409 56.2134ZM86.2733 56.4497L87.1616 56.6508L87.1822 56.5596L86.2939 56.3585L86.2733 56.4497ZM86.3415 55.9379L86.238 56.3938L86.3292 56.4145L86.4327 55.9586L86.3415 55.9379ZM87.2857 56.1037L86.3974 55.9026L86.3768 55.9938L87.265 56.1949L87.2857 56.1037ZM87.2175 56.6156L87.3209 56.1597L87.2298 56.139L87.1263 56.5949L87.2175 56.6156ZM88.0498 56.8519L88.9381 57.053L88.9587 56.9618L88.0705 56.7607L88.0498 56.8519ZM88.118 56.3401L88.0145 56.796L88.1057 56.8167L88.2092 56.3608L88.118 56.3401ZM89.0622 56.5059L88.1739 56.3048L88.1533 56.396L89.0415 56.5971L89.0622 56.5059ZM88.994 57.0178L89.0975 56.5618L89.0063 56.5412L88.9028 56.9971L88.994 57.0178Z" fill="white"/>
<path d="M86.5665 53.0683L84.6797 52.6611L84.9511 51.4033L86.8379 51.8104L87.2451 49.9236L88.503 50.195L88.0958 52.0819C88.0238 52.4155 87.8223 52.7068 87.5355 52.8918C87.2487 53.0768 86.9001 53.1403 86.5665 53.0683Z" fill="#568DF4"/>
<path d="M78.6543 50.0449L79.0614 48.158L80.3193 48.4295L79.9121 50.3163L81.7989 50.7235L81.5275 51.9813L79.6407 51.5742C79.3071 51.5022 79.0157 51.3006 78.8307 51.0138C78.6457 50.727 78.5823 50.3785 78.6543 50.0449Z" fill="#568DF4"/>
<path d="M81.0001 45.2832L79.7422 45.0117L80.1494 43.1249C80.2213 42.7913 80.4229 42.4999 80.7097 42.315C80.9965 42.13 81.3451 42.0665 81.6787 42.1385L83.5655 42.5456L83.294 43.8035L81.4072 43.3963L81.0001 45.2832Z" fill="#568DF4"/>
<path d="M88.3252 44.8905L86.4384 44.4833L86.7099 43.2254L88.5967 43.6326C88.9303 43.7046 89.2216 43.9061 89.4066 44.193C89.5916 44.4798 89.6551 44.8283 89.5831 45.1619L89.1759 47.0487L87.9181 46.7773L88.3252 44.8905Z" fill="#568DF4"/>
<path d="M84.6016 48.3652L83.3438 48.0938L83.6152 46.8359L84.8731 47.1073L84.6016 48.3652Z" fill="#568DF4"/>
<path d="M85.6094 49.8984L84.3516 49.627L84.623 48.3691L85.8809 48.6405L85.6094 49.8984Z" fill="#568DF4"/>
<path d="M83.086 49.3535L81.8281 49.082L82.0996 47.8242L83.3574 48.0956L83.086 49.3535Z" fill="#568DF4"/>
<path d="M86.1563 47.3847L84.8984 47.1133L85.1699 45.8554L86.4278 46.1268L86.1563 47.3847Z" fill="#568DF4"/>
<path d="M83.6251 46.8408L82.3672 46.5693L82.6386 45.3115L83.8965 45.5829L83.6251 46.8408Z" fill="#568DF4"/>
<path d="M75.81 57.9038L75.9688 57.3193L78.196 57.9897L78.0902 58.3793L75.81 57.9038Z" fill="#BCBFE3"/>
<path d="M75.5209 58.9254L75.6796 58.341L79.3021 59.0888L79.2732 59.5806L75.5209 58.9254Z" fill="#BCBFE3"/>
<path d="M74.4158 62.0554L74.3594 62.6797L75.7467 62.7979L75.7844 62.3817L74.4158 62.0554Z" fill="#BCBFE3"/>
<path d="M74.1062 63.5359L74.2958 62.9793L76.899 63.6366L76.8173 64.1035L74.1062 63.5359Z" fill="#BCBFE3"/>
<path d="M81.0802 39.5113L81.2461 38.9104L89.8317 40.9183L89.9327 41.4577L81.0802 39.5113Z" fill="#BCBFE3"/>
<path d="M82.676 59.6616L82.8281 59.0752L83.9615 59.3998L83.8601 59.7907L82.676 59.6616Z" fill="#BCBFE3"/>
<path d="M82.4061 60.6892L82.5582 60.1028L86.1046 60.7771L86.0789 61.2685L82.4061 60.6892Z" fill="#BCBFE3"/>
<path d="M81.262 63.9682L81.4141 63.3818L84.8603 64.3687L84.7589 64.7597L81.262 63.9682Z" fill="#BCBFE3"/>
<path d="M80.9999 64.9948L81.152 64.4085L86.9568 65.7296L86.9929 66.2386L80.9999 64.9948Z" fill="#BCBFE3"/>
<path fill-rule="evenodd" clip-rule="evenodd" d="M89.2883 36.0799C89.4095 36.1075 89.4854 36.2282 89.4578 36.3494L88.8482 39.0276C88.8206 39.1489 88.6999 39.2248 88.5786 39.1972L85.5603 38.5101C85.5708 38.3802 85.4846 38.259 85.3538 38.2292C85.223 38.1995 85.0929 38.2715 85.0461 38.3931L84.3418 38.2327C84.2205 38.2051 84.1446 38.0845 84.1722 37.9632L84.7819 35.285C84.8095 35.1637 84.9302 35.0878 85.0514 35.1154L85.7558 35.2758C85.7512 35.2876 85.7475 35.2999 85.7446 35.3126C85.7119 35.456 85.8018 35.5988 85.9452 35.6315C86.0887 35.6641 86.2315 35.5743 86.2641 35.4309C86.267 35.4181 86.269 35.4054 86.27 35.3928L89.2883 36.0799Z" fill="#868AC3"/>
<path d="M87.6312 36.4918C87.4708 36.4585 87.3055 36.4741 87.1561 36.5368C87.0067 36.5994 86.88 36.7063 86.7919 36.8438C86.7039 36.9813 86.6585 37.1434 86.6615 37.3094C86.6644 37.4755 86.7157 37.6381 86.8087 37.7767C86.9017 37.9153 87.0322 38.0236 87.1839 38.0881C87.3356 38.1525 87.5015 38.1701 87.6607 38.1387C87.8199 38.1072 87.9653 38.0281 88.0784 37.9114C88.1915 37.7947 88.2673 37.6455 88.2961 37.4829C88.3345 37.2648 88.2861 37.038 88.1615 36.8522C88.0368 36.6664 87.8461 36.5368 87.6312 36.4918ZM87.6791 37.6957C87.6748 37.72 87.6612 37.7412 87.6413 37.7549C87.6214 37.7685 87.5967 37.7734 87.5728 37.7684L87.5008 37.7534L87.4916 37.8048C87.4881 37.8264 87.4774 37.8459 87.4613 37.8601C87.4452 37.8743 87.4246 37.8823 87.4031 37.8828C87.3895 37.8828 87.376 37.8797 87.3636 37.8738C87.3512 37.8678 87.3402 37.8592 87.3314 37.8485C87.3225 37.8377 87.3161 37.8252 87.3126 37.8118C87.309 37.7983 87.3084 37.7843 87.3108 37.7708L87.3206 37.7159L87.2485 37.701C87.2351 37.6982 87.2225 37.6924 87.2115 37.6841C87.2005 37.6757 87.1913 37.6651 87.1848 37.6528C87.1782 37.6406 87.1743 37.6271 87.1735 37.6133C87.1726 37.5994 87.1748 37.5857 87.1798 37.573C87.1882 37.5529 87.2032 37.5366 87.2222 37.5268C87.2412 37.5169 87.2632 37.5141 87.2843 37.5189L87.5152 37.5669L87.5411 37.4207L87.3069 37.372C87.283 37.367 87.2618 37.3526 87.2479 37.332C87.234 37.3113 87.2287 37.2861 87.233 37.2619L87.2914 36.9329C87.2957 36.9086 87.3093 36.8874 87.3292 36.8737C87.3491 36.8601 87.3738 36.8552 87.3977 36.8602L87.4697 36.8752L87.4789 36.8238C87.4823 36.8022 87.493 36.7826 87.5091 36.7684C87.5253 36.7542 87.5459 36.7462 87.5675 36.7458C87.581 36.7458 87.5945 36.7489 87.6069 36.7548C87.6193 36.7608 87.6303 36.7694 87.6391 36.7801C87.648 36.7909 87.6544 36.8034 87.6579 36.8168C87.6615 36.8303 87.6621 36.8443 87.6597 36.8578L87.6499 36.9126L87.722 36.9276C87.7354 36.9304 87.748 36.9362 87.7591 36.9445C87.7701 36.9528 87.7793 36.9635 87.7859 36.9757C87.7925 36.988 87.7963 37.0015 87.7972 37.0153C87.7981 37.0292 87.7959 37.0429 87.7909 37.0557C87.7824 37.0757 87.7674 37.092 87.7484 37.1018C87.7293 37.1117 87.7073 37.1144 87.6862 37.1097L87.4553 37.0617L87.4294 37.2079L87.6636 37.2566C87.6875 37.2616 87.7088 37.276 87.7226 37.2966C87.7365 37.3173 87.7418 37.3425 87.7375 37.3667L87.6791 37.6957Z" fill="#F6F7FA"/>
<path d="M85.3686 38.0924L85.8359 35.8428" stroke="#F6F7FA" stroke-width="0.23057" stroke-dasharray="0.51 0.26"/>
<path d="M55.6517 76.5402C55.6517 76.5402 48.0997 74.3758 47.2469 73.919C46.3941 73.4623 42.5162 78.796 39.0265 81.8204C39.0265 81.8204 50.5752 85.2293 54.2938 85.3956C58.0124 85.5618 75.1367 82.5876 85.1674 75.8215C86.0798 75.3095 91.8945 72.3319 90.99 70.5558C92.5573 69.5443 91.3513 67.6291 90.9195 67.9458C91.8372 67.2722 90.9728 66.001 89.9761 66.4658C83.9885 69.2576 82.2987 68.9907 80.7856 68.9907C80.7856 64.6047 75.9922 64.7937 77.1805 66.0006C79.6288 68.4872 77.6787 70.7413 77.6787 70.7413C77.6787 70.7413 75.8633 72.7201 68.5797 74.843C61.2962 76.9659 55.6517 76.5402 55.6517 76.5402Z" fill="#FFCAA4"/>
<path d="M90.9195 67.9458C91.8372 67.2722 90.9728 66.001 89.9761 66.4658C83.9885 69.2576 82.2987 68.9907 80.7856 68.9907C80.7856 64.6047 75.9922 64.7937 77.1805 66.0006C79.6288 68.4872 77.6787 70.7413 77.6787 70.7413C77.6787 70.7413 75.8633 72.7201 68.5797 74.843C61.2962 76.9659 55.6517 76.5402 55.6517 76.5402C55.6517 76.5402 48.0997 74.3758 47.2469 73.919C46.3941 73.4623 42.5162 78.796 39.0265 81.8204C39.0265 81.8204 50.5752 85.2293 54.2938 85.3956C58.0124 85.5618 75.1367 82.5876 85.1674 75.8215C86.0798 75.3095 91.8945 72.3319 90.99 70.5558M90.9195 67.9458C91.3513 67.6291 92.5573 69.5443 90.99 70.5558M90.9195 67.9458C89.505 68.9842 86.025 71.0082 83.4213 70.7972M90.99 70.5558C89.4227 71.5674 85.8282 73.52 83.9885 73.2379" stroke="black" stroke-width="0.884056" stroke-linecap="round" stroke-linejoin="round"/>
</g>
</g>
<defs>
<clipPath id="clip0_1600_67882">
<rect width="108" height="112" fill="white"/>
</clipPath>
</defs>
</svg>
