<svg width="72" height="52" viewBox="0 0 72 52" fill="none" xmlns="http://www.w3.org/2000/svg">
<path d="M14.2672 19.1667H35.9122C38.2551 19.1667 40.854 21.9556 40.854 25.3959C40.854 28.8362 38.2551 31.6251 35.9122 31.6251L12.2124 31.6251C9.86958 31.6251 7.27067 33.414 7.27067 36.8542C7.27067 40.2945 9.86958 41.0834 12.2124 41.0834H47.354" stroke="#293044" stroke-width="1.08333"/>
<path d="M50.1141 7.72014L54.8354 8.75927C54.0764 11.8705 55.889 14.9271 58.8841 15.5864C61.8789 16.2455 64.922 14.2575 65.681 11.1463L70.4028 12.1855C70.8558 12.2852 71.1338 12.7313 71.0239 13.1818L64.9958 37.8917L62.6832 37.3827L62.2894 38.9967L64.6021 39.5057L61.7359 51.2545C61.626 51.7051 61.1697 51.9895 60.7168 51.8898L55.995 50.8506L45.1498 48.4637L40.428 47.4245C39.9751 47.3248 39.697 46.8787 39.8069 46.4281L42.6731 34.6793L44.9854 35.1882L45.3791 33.5743L43.0668 33.0654L49.0949 8.35546C49.2048 7.9049 49.6611 7.62045 50.1141 7.72014Z" fill="#293044"/>
<circle cx="55.7148" cy="23.2788" r="5.87824" transform="rotate(-76.9187 55.7148 23.2788)" fill="#F6F7FA"/>
<path d="M49.4019 6.67832L54.078 7.70749C53.3332 10.7606 55.1374 13.7658 58.1081 14.4196C61.0785 15.0733 64.0903 13.1282 64.8352 10.075L69.5117 11.1043C69.9647 11.204 70.2427 11.6501 70.1328 12.1006L64.2211 36.3337L61.9273 35.8288L61.5409 37.4126L63.8347 37.9175L61.0258 49.4316C60.9159 49.8821 60.4596 50.1666 60.0066 50.0669L55.3301 49.0376L44.5733 46.6702L39.8968 45.6409C39.4438 45.5412 39.1658 45.0951 39.2757 44.6446L42.0846 33.1305L44.378 33.6352L44.7644 32.0514L42.471 31.5467L48.3827 7.31364C48.4926 6.86307 48.9489 6.57863 49.4019 6.67832Z" fill="#F6F7FA" stroke="#293044" stroke-width="0.866667"/>
<path d="M50.1211 21.9958C49.8032 23.0536 49.8055 24.1753 50.1276 25.2189C50.4496 26.2626 51.077 27.1813 51.9304 27.859C52.7838 28.5368 53.8248 28.943 54.9219 29.0263C56.0189 29.1096 57.1227 28.8663 58.0937 28.3272C59.0647 27.7881 59.8592 26.9773 60.3768 25.9974C60.8944 25.0175 61.1118 23.9126 61.0016 22.8222C60.8913 21.7319 60.4584 20.7052 59.7575 19.8719C59.0565 19.0386 58.1192 18.4361 57.0638 18.1408C55.6487 17.7467 54.1231 17.9313 52.8216 18.6539C51.5201 19.3766 50.5489 20.5784 50.1211 21.9958ZM58.0912 22.4226C58.2484 22.4667 58.3804 22.5715 58.4581 22.714C58.5358 22.8566 58.5529 23.0252 58.5055 23.1829L58.3627 23.6583L58.6959 23.7515C58.8363 23.7885 58.9586 23.8727 59.0425 23.99C59.1264 24.1073 59.1667 24.2506 59.1566 24.3959C59.1482 24.4872 59.1196 24.5758 59.0729 24.6555C59.0261 24.7352 58.9624 24.8039 58.8863 24.8566C58.8101 24.9093 58.7235 24.9447 58.6328 24.9602C58.542 24.9757 58.4492 24.971 58.3613 24.9464L58.0056 24.8468L57.8628 25.3222C57.8362 25.4102 57.7904 25.4916 57.7288 25.5605C57.6671 25.6295 57.5912 25.6842 57.5064 25.7207C57.4216 25.7573 57.3301 25.7748 57.2385 25.7719C57.1469 25.7691 57.0575 25.746 56.9767 25.7043C56.8496 25.6356 56.7511 25.5248 56.6977 25.3906C56.6444 25.2564 56.6395 25.1071 56.6838 24.9678L57.1412 23.4453L56.1926 23.1797L55.7284 24.7249C55.6811 24.8825 55.5732 25.0161 55.4285 25.0965C55.2839 25.1768 55.1142 25.1972 54.957 25.1532L52.8227 24.5558C52.6654 24.5118 52.5334 24.407 52.4557 24.2644C52.378 24.1218 52.361 23.9532 52.4083 23.7956L52.5512 23.3202L52.218 23.2269C52.0774 23.1903 51.9547 23.1063 51.8708 22.9889C51.7868 22.8714 51.7467 22.7279 51.7573 22.5826C51.7656 22.4913 51.7942 22.4026 51.841 22.3229C51.8877 22.2433 51.9515 22.1746 52.0276 22.1219C52.1037 22.0692 52.1903 22.0338 52.2811 22.0183C52.3719 22.0027 52.4646 22.0074 52.5525 22.0321L52.9082 22.1316L53.0511 21.6562C53.0775 21.5681 53.1232 21.4865 53.1848 21.4174C53.2464 21.3483 53.3224 21.2935 53.4073 21.2568C53.4921 21.2201 53.5837 21.2025 53.6754 21.2053C53.7671 21.2081 53.8567 21.2312 53.9375 21.2729C54.0644 21.3421 54.1628 21.4532 54.216 21.5875C54.2693 21.7218 54.2742 21.8712 54.23 22.0107L53.7726 23.5332L54.7212 23.7987L55.1854 22.2536C55.2328 22.096 55.3407 21.9623 55.4853 21.882C55.63 21.8017 55.7996 21.7813 55.9568 21.8253L58.0912 22.4226Z" fill="#515BB2"/>
<path d="M61.5318 36.2477L46.3384 33.0886" stroke="#DADDFD" stroke-width="1.55726" stroke-dasharray="3.46 1.73"/>
<rect x="5.99854" y="1" width="13" height="26" rx="0.827313" fill="#293044"/>
<rect x="4.9001" y="0.3" width="13.2158" height="25.7158" rx="1.1" fill="#F6F7FC" stroke="#293044" stroke-width="0.6"/>
<path d="M4.93604 23.3546H18.4229" stroke="#293044" stroke-width="0.516332"/>
<path d="M14.7253 1.7H8.27177C8.07556 1.7 7.88835 1.61765 7.75576 1.47301C7.3442 1.02403 7.6627 0.3 8.27177 0.3H14.7253C15.3344 0.3 15.6529 1.02403 15.2413 1.47301C15.1087 1.61765 14.9215 1.7 14.7253 1.7Z" fill="#F6F7FC" stroke="#293044" stroke-width="0.6"/>
<rect opacity="0.5" x="6.99854" y="18" width="9" height="3" rx="1.19883" fill="#DADDFD"/>
<path fill-rule="evenodd" clip-rule="evenodd" d="M14.2181 6.40845C13.8099 6.40845 13.479 6.73933 13.479 7.14749V12.3208C13.479 12.3367 13.4732 12.3522 13.4625 12.3641C13.4286 12.4023 13.3986 12.444 13.373 12.4887L12.4024 14.1872C12.2645 14.4286 12.5058 14.7096 12.7652 14.6098L16.6293 13.1236C16.7006 13.0961 16.7718 13.0598 16.8483 13.0598H28.2598C28.668 13.0598 28.9989 12.7289 28.9989 12.3208V7.14749C28.9989 6.73933 28.668 6.40845 28.2598 6.40845H14.2181Z" fill="#293044"/>
<path fill-rule="evenodd" clip-rule="evenodd" d="M13.8237 5C13.4156 5 13.0847 5.33088 13.0847 5.73904V11.6678C13.0847 11.8041 13.1216 11.9318 13.1859 12.0414L12.0685 13.4074C11.8764 13.6422 12.1203 13.9794 12.4034 13.8705L16.0005 12.487C16.0457 12.4696 16.085 12.4418 16.1159 12.4068H27.8326C28.2408 12.4068 28.5717 12.0759 28.5717 11.6678V5.73904C28.5717 5.33088 28.2408 5 27.8326 5H13.8237Z" fill="#F6F7FA"/>
<path d="M13.1859 12.0414L13.4148 12.2286L13.5451 12.0693L13.4409 11.8918L13.1859 12.0414ZM12.0685 13.4074L11.8397 13.2202L11.8397 13.2202L12.0685 13.4074ZM12.4034 13.8705L12.2973 13.5946L12.2973 13.5946L12.4034 13.8705ZM16.0005 12.487L16.1066 12.7629H16.1066L16.0005 12.487ZM16.1159 12.4068V12.1112H15.9826L15.8944 12.2111L16.1159 12.4068ZM13.3803 5.73904C13.3803 5.49414 13.5788 5.29562 13.8237 5.29562V4.70438C13.2523 4.70438 12.7891 5.16762 12.7891 5.73904H13.3803ZM13.3803 11.6678V5.73904H12.7891V11.6678H13.3803ZM13.4409 11.8918C13.4024 11.8263 13.3803 11.7501 13.3803 11.6678H12.7891C12.7891 11.8581 12.8407 12.0373 12.931 12.1911L13.4409 11.8918ZM12.2973 13.5946L13.4148 12.2286L12.9571 11.8542L11.8397 13.2202L12.2973 13.5946ZM12.2973 13.5946L12.2973 13.5946L11.8397 13.2202C11.4556 13.6898 11.9433 14.3642 12.5096 14.1464L12.2973 13.5946ZM15.8944 12.2111L12.2973 13.5946L12.5096 14.1464L16.1066 12.7629L15.8944 12.2111ZM15.8944 12.2111L15.8944 12.2111L16.1066 12.7629C16.197 12.7282 16.2757 12.6725 16.3375 12.6025L15.8944 12.2111ZM27.8326 12.1112H16.1159V12.7024H27.8326V12.1112ZM28.276 11.6678C28.276 11.9127 28.0775 12.1112 27.8326 12.1112V12.7024C28.404 12.7024 28.8673 12.2392 28.8673 11.6678H28.276ZM28.276 5.73904V11.6678H28.8673V5.73904H28.276ZM27.8326 5.29562C28.0775 5.29562 28.276 5.49414 28.276 5.73904H28.8673C28.8673 5.16761 28.404 4.70438 27.8326 4.70438V5.29562ZM13.8237 5.29562H27.8326V4.70438H13.8237V5.29562Z" fill="#293044"/>
<circle cx="16.2771" cy="8.84163" r="0.852738" fill="#515BB2"/>
<circle cx="20.6481" cy="8.84163" r="0.852738" fill="#515BB2"/>
<circle cx="25.0153" cy="8.84163" r="0.852738" fill="#515BB2"/>
</svg>
