<svg width="54" height="53" viewBox="0 0 54 53" fill="none" xmlns="http://www.w3.org/2000/svg">
<rect x="1.21849" y="6.92045" width="34.3874" height="45.3936" rx="2.83361" transform="rotate(-3.35541 1.21849 6.92045)" fill="#293044"/>
<rect x="1.21849" y="6.92045" width="34.3874" height="45.3936" rx="2.83361" transform="rotate(-3.35541 1.21849 6.92045)" stroke="#293044" stroke-width="0.716583"/>
<path d="M18.9024 44.6244L44.7289 43.1102C45.4416 43.0684 46.0939 43.3343 46.511 43.7637C46.9216 44.1864 47.1079 44.7672 46.912 45.4087C46.2319 47.6358 44.6214 49.9025 41.2418 50.1006L21.644 51.2497C21.6442 51.2496 21.6393 51.25 21.6279 51.2476C21.6164 51.2453 21.5995 51.2405 21.577 51.2311C21.5308 51.2118 21.4703 51.1773 21.3959 51.1219C21.2461 51.0103 21.0694 50.8361 20.8738 50.6052C20.484 50.1451 20.0562 49.504 19.6602 48.8163C19.2651 48.1302 18.9089 47.4102 18.6594 46.7982C18.5346 46.4919 18.4387 46.2182 18.3778 45.9928C18.3141 45.7571 18.2985 45.609 18.3054 45.5381C18.3238 45.3495 18.4091 45.1043 18.5415 44.9085C18.6803 44.7032 18.8147 44.6295 18.9024 44.6244Z" fill="#293044" stroke="#293044" stroke-width="0.716583"/>
<rect x="3.22748" y="3.74317" width="39.3175" height="47.0119" rx="3.55655" transform="rotate(-3.35541 3.22748 3.74317)" fill="#F6F7FC"/>
<rect x="3.22748" y="3.74317" width="39.3175" height="47.0119" rx="3.55655" transform="rotate(-3.35541 3.22748 3.74317)" stroke="#293044" stroke-width="0.866667"/>
<path d="M45.4546 48.2614L13.3997 50.1408C13.7483 49.9575 14.0958 49.755 14.4354 49.5328C15.9792 48.5221 17.4076 47.0661 17.9512 45.0825C18.211 44.1346 18.8809 43.4246 19.6604 43.3789L52.2619 41.4675C52.5498 41.4506 52.7031 41.6651 52.6788 41.8455C52.5112 43.0875 51.9922 44.6185 50.8823 45.8699C49.784 47.1081 48.0772 48.1076 45.4546 48.2614Z" fill="#F6F7FC" stroke="#293044" stroke-width="1.06397"/>
<rect x="9.58984" y="18.8582" width="8.97723" height="2.99241" transform="rotate(-3.35541 9.58984 18.8582)" fill="#DFE1F2"/>
<rect x="9.17578" y="11.8884" width="8.97723" height="2.99241" transform="rotate(-3.35541 9.17578 11.8884)" fill="#DFE1F2"/>
<rect x="16.1406" y="26.6785" width="22.9418" height="2.99241" transform="rotate(-3.35541 16.1406 26.6785)" fill="#DFE1F2"/>
<rect x="16.5469" y="33.6482" width="22.9418" height="2.99241" transform="rotate(-3.35541 16.5469 33.6482)" fill="#BCBFE3"/>
<circle cx="43.3628" cy="13.9453" r="8.41309" transform="rotate(-3.35541 43.3628 13.9453)" fill="#F6F7FC" stroke="#293044" stroke-width="0.866667"/>
<path fill-rule="evenodd" clip-rule="evenodd" d="M42.8958 5.97924C47.2953 5.72129 51.071 9.07872 51.3289 13.4783C51.5868 17.8778 48.2294 21.6535 43.8299 21.9114C39.4303 22.1693 35.6547 18.8119 35.3967 14.4124C35.1388 10.0128 38.4962 6.23718 42.8958 5.97924ZM42.4908 14.9779L41.0762 13.8258C40.6776 13.5011 40.0912 13.5611 39.7665 13.9597C39.4418 14.3584 39.5017 14.9448 39.9004 15.2695L42.7549 17.5945C43.2349 17.9854 43.9337 17.9459 44.3665 17.5034L46.9535 14.8586C47.313 14.491 47.3065 13.9016 46.939 13.5421C46.5714 13.1826 45.982 13.1891 45.6225 13.5566L44.3489 14.8586L44.1116 10.8108C44.0815 10.2976 43.641 9.90586 43.1277 9.93594C42.6145 9.96603 42.2228 10.4065 42.2528 10.9198L42.4908 14.9779Z" fill="#515BB2"/>
</svg>
