<svg width="53" height="53" viewBox="0 0 53 53" fill="none" xmlns="http://www.w3.org/2000/svg">
<rect x="15.4741" y="11.48" width="2.16667" height="6.5" rx="1.08333" transform="rotate(-20.3229 15.4741 11.48)" fill="#BCBFE3"/>
<rect x="21.4468" y="3.03979" width="2.16667" height="6.5" rx="1.08333" transform="rotate(-20.3229 21.4468 3.03979)" fill="#BCBFE3"/>
<rect x="9.28271" y="18.8179" width="2.16667" height="6.5" rx="1.08333" transform="rotate(-20.3229 9.28271 18.8179)" fill="#BCBFE3"/>
<circle cx="28.1533" cy="20.9604" r="6.58285" transform="rotate(-29.0823 28.1533 20.9604)" fill="#293044"/>
<circle cx="28.0791" cy="19.3269" r="7.01619" transform="rotate(-29.0823 28.0791 19.3269)" fill="#F6F7FA" stroke="#293044" stroke-width="0.866667"/>
<path d="M24.8872 13.5733C23.7494 14.2061 22.8248 15.1621 22.2303 16.3204C21.6358 17.4788 21.3982 18.7874 21.5474 20.0807C21.6967 21.3741 22.2261 22.5942 23.0687 23.5867C23.9114 24.5792 25.0294 25.2995 26.2815 25.6566C27.5335 26.0137 28.8633 25.9915 30.1027 25.5928C31.3422 25.194 32.4355 24.4368 33.2445 23.4167C34.0536 22.3966 34.5419 21.1595 34.6479 19.8619C34.7538 18.5642 34.4726 17.2643 33.8398 16.1265C32.9895 14.6025 31.5695 13.4778 29.8913 12.9992C28.213 12.5206 26.4135 12.727 24.8872 13.5733ZM31.1565 20.6319C31.2508 20.8014 31.2739 21.0014 31.2207 21.188C31.1675 21.3745 31.0424 21.5323 30.8729 21.6266L30.3615 21.911L30.5613 22.2702C30.6474 22.4196 30.6795 22.5941 30.6523 22.7643C30.6251 22.9345 30.5402 23.0903 30.4118 23.2054C30.3295 23.276 30.2325 23.3274 30.1278 23.3559C30.0232 23.3844 29.9135 23.3893 29.8067 23.3702C29.6999 23.351 29.5987 23.3084 29.5105 23.2453C29.4222 23.1823 29.3491 23.1004 29.2964 23.0056L29.0831 22.6221L28.5717 22.9065C28.4769 22.959 28.3716 22.9897 28.2635 22.9966C28.1554 23.0034 28.0471 22.9862 27.9464 22.946C27.8458 22.9059 27.7553 22.8439 27.6815 22.7646C27.6078 22.6852 27.5526 22.5904 27.5199 22.4871C27.4711 22.3219 27.4808 22.1449 27.5473 21.9859C27.6138 21.827 27.733 21.6958 27.8849 21.6145L29.5226 20.7037L28.9538 19.681L27.2918 20.6053C27.1223 20.6996 26.9222 20.7227 26.7357 20.6695C26.5491 20.6163 26.3914 20.4911 26.2971 20.3216L25.0172 18.0205C24.9229 17.8509 24.8998 17.6509 24.953 17.4643C25.0062 17.2778 25.1314 17.12 25.3009 17.0257L25.8123 16.7413L25.6125 16.3821C25.5258 16.2328 25.4934 16.0583 25.5206 15.8879C25.5479 15.7175 25.6331 15.5617 25.7619 15.4469C25.8442 15.3763 25.9413 15.3249 26.0459 15.2964C26.1506 15.2679 26.2603 15.263 26.3671 15.2822C26.4738 15.3013 26.575 15.3439 26.6633 15.407C26.7515 15.47 26.8247 15.5519 26.8774 15.6467L27.0907 16.0303L27.6021 15.7458C27.6968 15.6931 27.8022 15.6621 27.9104 15.6551C28.0187 15.6481 28.1271 15.6652 28.2279 15.7053C28.3287 15.7454 28.4193 15.8074 28.4932 15.8868C28.5671 15.9662 28.6224 16.0611 28.6551 16.1645C28.7034 16.33 28.6934 16.5071 28.6267 16.666C28.56 16.825 28.4407 16.9563 28.2888 17.0378L26.6512 17.9486L27.22 18.9714L28.8819 18.047C29.0515 17.9527 29.2515 17.9296 29.4381 17.9828C29.6246 18.036 29.7824 18.1612 29.8767 18.3307L31.1565 20.6319Z" fill="#FFCA00"/>
<rect x="3.95264" y="24.5862" width="41.1061" height="28.1514" rx="2.69341" transform="rotate(-5.03613 3.95264 24.5862)" fill="#293044" stroke="#293044" stroke-width="0.681128"/>
<rect x="4.9321" y="22.3831" width="41.0954" height="27.9658" rx="3.35914" transform="rotate(-5.03613 4.9321 22.3831)" fill="#F6F7FC" stroke="#293044" stroke-width="0.866667"/>
<rect x="39.3384" y="28.7838" width="9.39773" height="7.37119" rx="0.596399" transform="rotate(-5.03613 39.3384 28.7838)" fill="#515BB2" stroke="#293044" stroke-width="0.866667"/>
<ellipse cx="12.7081" cy="10.0422" rx="6.58285" ry="6.69573" transform="rotate(-29.0823 12.7081 10.0422)" fill="#293044"/>
<circle cx="12.5791" cy="8.31054" r="7.01619" transform="rotate(-29.0823 12.5791 8.31054)" fill="#F6F7FA" stroke="#293044" stroke-width="0.866667"/>
<path d="M9.38718 2.55714C8.24937 3.18998 7.32476 4.14601 6.73029 5.30434C6.13581 6.46266 5.89817 7.77125 6.04742 9.06464C6.19666 10.358 6.72608 11.5781 7.56874 12.5706C8.4114 13.5631 9.52944 14.2834 10.7815 14.6405C12.0335 14.9976 13.3633 14.9753 14.6027 14.5766C15.8422 14.1779 16.9355 13.4207 17.7445 12.4006C18.5536 11.3805 19.0419 10.1434 19.1479 8.84574C19.2538 7.5481 18.9726 6.24817 18.3398 5.11035C17.4895 3.58634 16.0695 2.46172 14.3913 1.98309C12.713 1.50447 10.9135 1.71091 9.38718 2.55714ZM15.6565 9.61575C15.7508 9.78528 15.7739 9.98532 15.7207 10.1719C15.6675 10.3584 15.5424 10.5162 15.3729 10.6105L14.8615 10.8949L15.0613 11.2541C15.1474 11.4035 15.1795 11.5779 15.1523 11.7482C15.1251 11.9184 15.0402 12.0742 14.9118 12.1893C14.8295 12.2599 14.7325 12.3113 14.6278 12.3398C14.5232 12.3683 14.4135 12.3732 14.3067 12.354C14.1999 12.3349 14.0987 12.2923 14.0105 12.2292C13.9222 12.1662 13.8491 12.0843 13.7964 11.9895L13.5831 11.6059L13.0717 11.8904C12.9769 11.9429 12.8716 11.9736 12.7635 11.9805C12.6554 11.9873 12.5471 11.9701 12.4464 11.9299C12.3458 11.8898 12.2553 11.8278 12.1815 11.7484C12.1078 11.6691 12.0526 11.5743 12.0199 11.471C11.9711 11.3058 11.9808 11.1288 12.0473 10.9698C12.1138 10.8109 12.233 10.6797 12.3849 10.5984L14.0226 9.68758L13.4538 8.66484L11.7918 9.5892C11.6223 9.68349 11.4222 9.70657 11.2357 9.65337C11.0491 9.60016 10.8914 9.47504 10.7971 9.30551L9.51721 7.00434C9.42292 6.83482 9.39983 6.63477 9.45304 6.44822C9.50624 6.26168 9.63137 6.1039 9.8009 6.00961L10.3123 5.72519L10.1125 5.36596C10.0258 5.21672 9.99341 5.04216 10.0206 4.87177C10.0479 4.70139 10.1331 4.54563 10.2619 4.43082C10.3442 4.3602 10.4413 4.30878 10.5459 4.28028C10.6506 4.25178 10.7603 4.24692 10.8671 4.26605C10.9738 4.28517 11.075 4.32781 11.1633 4.39086C11.2515 4.45392 11.3247 4.53582 11.3774 4.63063L11.5907 5.01415L12.1021 4.72974C12.1968 4.67699 12.3022 4.64599 12.4104 4.63898C12.5187 4.63196 12.6271 4.64911 12.7279 4.68919C12.8287 4.72926 12.9193 4.79125 12.9932 4.87067C13.0671 4.95009 13.1224 5.04495 13.1551 5.14838C13.2034 5.31387 13.1934 5.49095 13.1267 5.64993C13.06 5.80892 12.9407 5.94016 12.7888 6.02167L11.1512 6.93251L11.72 7.95525L13.3819 7.0309C13.5515 6.93661 13.7515 6.91352 13.9381 6.96673C14.1246 7.01993 14.2824 7.14506 14.3767 7.31459L15.6565 9.61575Z" fill="#FFCA00"/>
<rect x="11.3257" y="26.9407" width="4.40692" height="17.5617" rx="1.10214" transform="rotate(-5.10004 11.3257 26.9407)" fill="#DADDFD"/>
</svg>
