<svg width="346" height="272" viewBox="0 0 346 272" fill="none" xmlns="http://www.w3.org/2000/svg">
<g clip-path="url(#clip0_1598_28436)">
<path d="M118.54 249.103C171.596 249.103 214.612 206.236 214.612 153.35C214.612 100.464 171.596 57.5976 118.54 57.5976C65.4845 57.5976 22.4687 100.464 22.4687 153.35C22.4687 206.236 65.4845 249.103 118.54 249.103Z" fill="#DFE1F2" stroke="#BCBFE3" stroke-width="1.90636"/>
<mask id="mask0_1598_28436" style="mask-type:alpha" maskUnits="userSpaceOnUse" x="-29" y="65" width="239" height="184">
<path d="M209.204 155.206C210.256 205.724 170.389 247.524 120.159 248.57C102.864 248.93 86.5945 244.412 72.6527 236.269C58.1511 227.799 -19.8685 253.261 -27.8705 238.362C-34.5179 225.985 10.9646 171.535 27.3053 158.994C26.2534 108.476 66.1201 66.6758 116.35 65.6299C166.58 64.5841 208.152 104.689 209.204 155.206Z" fill="#D9D9D9"/>
</mask>
<g mask="url(#mask0_1598_28436)">
<path d="M76.0757 214.3C69.9142 213.328 62.6988 205.518 59.8613 201.734L77.6971 209.842L76.0757 214.3Z" fill="black" stroke="black" stroke-width="1.59595" stroke-linecap="round" stroke-linejoin="round"/>
<path d="M59.0509 213.491L66.9911 197.66C69.1099 196.612 76.8096 200.985 78.4221 205C78.4221 205 73.4181 225.592 66.9911 226.462C60.564 227.332 26.1835 227.033 7.71856 216.86C6.05513 216.114 5.39829 214.422 4.95072 212.567C3.66929 211.65 3.80067 210.034 4.49056 209.276C3.59407 207.577 4.53372 206.026 5.21649 204.99C6.74131 202.677 11.2443 203.387 14.2542 204.321C16.4609 196.271 24.713 196.188 22.8397 198.468C18.9798 203.167 19.9194 206.873 19.9194 206.873C19.9194 206.873 23.3794 210.023 36.3509 212.567C49.3223 215.112 59.0509 213.491 59.0509 213.491Z" fill="#BF7657" stroke="black" stroke-width="1.59595" stroke-linecap="round" stroke-linejoin="round"/>
<path d="M32.0933 230.944L30.0681 191.498C30.0075 190.318 29.0306 189.393 27.8487 189.397L8.23251 189.468C6.98377 189.473 5.98576 190.509 6.02739 191.757L7.18785 226.542L7.33895 231.071C7.37869 232.262 8.35381 233.208 9.54545 233.211L29.8752 233.272C31.1454 233.276 32.1585 232.213 32.0933 230.944Z" fill="#DFE1F2" stroke="black" stroke-width="1.59595" stroke-linecap="round" stroke-linejoin="round"/>
<circle cx="2.43215" cy="2.43215" r="2.43215" transform="matrix(-0.979988 -0.199056 -0.199056 0.979988 26.7637 194.945)" fill="black"/>
<path d="M157.668 200.75C155.684 201.232 153.519 201.709 151.289 202.199C149.115 202.678 146.879 203.17 144.691 203.694C140.049 204.804 135.675 206.042 133.124 207.53L132.453 207.921L132.826 208.603C136.886 216.012 140.033 225.659 141.847 234.674C143.607 243.427 144.081 251.442 143.003 256.191C139.428 256.975 133.928 257.911 128.474 258.296C125.622 258.497 122.799 258.545 120.279 258.347C117.748 258.147 115.581 257.702 114.007 256.953C109.616 254.862 101.695 253.231 93.3478 252.671C85.4646 252.142 77.055 252.558 70.7259 254.526C71.1544 245.028 73.5132 228.437 78.5541 210.872L78.6838 210.42L78.3514 210.087C76.0082 207.744 71.5017 205.362 67.6911 203.594C65.7651 202.7 63.9808 201.948 62.6783 201.419C62.3552 201.287 62.0616 201.17 61.8027 201.067C64.8781 198.338 67.956 194.685 71.081 190.657C72.7656 188.486 74.4728 186.193 76.2061 183.866L76.3782 183.635C78.1723 181.226 79.9954 178.781 81.8609 176.382C85.5943 171.58 89.477 166.987 93.5896 163.272C97.7013 159.557 102.004 156.756 106.573 155.483L125.167 150.735C129.61 155.354 136.419 163.245 142.784 172.317C149.132 181.364 154.996 191.525 157.668 200.75Z" fill="#ACC7FA" stroke="black" stroke-width="1.59595"/>
<path d="M158.647 201.327C150.359 206.6 131.866 216.293 125.812 212.678C136.082 208.535 157.349 200.424 158.647 201.327Z" fill="black" stroke="black" stroke-width="1.59595" stroke-linecap="round" stroke-linejoin="round"/>
<path d="M141.902 285.835C143.972 279.492 139.149 238.462 130.895 209.628C139.19 204.976 147.702 203.952 151.263 203.952C156.358 229.991 152.27 260.17 152.877 285.835C154.839 292.212 155.617 303.916 152.877 306.508C151.164 308.129 150.758 306.508 150.758 305.292C150.254 306.899 150.39 308.237 148.953 308.237C147.515 308.237 147.029 305.678 146.99 304.842C146.99 307.295 146.089 308.237 144.538 308.237C141.84 308.129 143.556 301.408 141.902 295.409C140.982 297.173 138.394 300.147 135.402 297.931C134.544 297.296 141.19 290.877 141.902 285.835Z" fill="#BF7657"/>
<path d="M146.99 304.842C146.99 307.295 146.089 308.237 144.538 308.237C141.84 308.129 143.556 301.408 141.902 295.409C140.982 297.173 138.394 300.147 135.402 297.931C134.544 297.296 141.19 290.877 141.902 285.835C143.972 279.492 139.149 238.462 130.895 209.628C139.19 204.976 147.702 203.952 151.263 203.952C156.358 229.991 152.27 260.17 152.877 285.835C154.839 292.212 155.617 303.916 152.877 306.508C151.164 308.129 150.758 306.508 150.758 305.292M146.99 304.842C147.029 305.678 147.515 308.237 148.953 308.237C150.39 308.237 150.254 306.899 150.758 305.292M146.99 304.842C146.99 304.842 147.515 302.454 146.99 295.409M150.758 305.292C150.758 305.292 151.974 298.806 150.758 295.409" stroke="black" stroke-width="1.59595" stroke-linecap="round" stroke-linejoin="round"/>
<path d="M129.054 210.652L139.594 257.674C139.594 254.137 133.919 224.853 131.081 210.652H129.054Z" fill="black" stroke="black" stroke-width="1.59595" stroke-linecap="round" stroke-linejoin="round"/>
<path d="M15.0405 206.757C14.4327 208.423 10.3633 207.569 7.62909 206.572C4.89484 205.575 4.69135 204.373 5.13889 203.146C5.58642 201.919 6.5155 201.13 9.24975 202.127C11.984 203.124 15.6482 205.09 15.0405 206.757Z" fill="#BF7657" stroke="black" stroke-width="1.32862" stroke-linecap="round" stroke-linejoin="round"/>
<path d="M13.4194 210.809C12.8116 212.476 8.74224 211.622 6.00799 210.625C3.27374 209.628 3.07026 208.426 3.51779 207.199C3.96533 205.972 4.89441 205.183 7.62866 206.18C10.3629 207.177 14.0271 209.143 13.4194 210.809Z" fill="#BF7657" stroke="black" stroke-width="1.32862" stroke-linecap="round" stroke-linejoin="round"/>
<path d="M12.6088 214.864C12.0011 216.531 7.9317 215.676 5.19745 214.679C2.4632 213.682 2.25971 212.481 2.70725 211.254C3.15478 210.026 4.08386 209.238 6.81811 210.235C9.55236 211.232 13.2166 213.197 12.6088 214.864Z" fill="#BF7657" stroke="black" stroke-width="1.32862" stroke-linecap="round" stroke-linejoin="round"/>
<path d="M83.084 129.236V98.0234C83.084 98.0234 86.3269 81.7996 106.189 81.3942C126.052 80.9888 128.079 97.2032 128.079 97.2032C128.079 104.967 125.621 109.327 122.577 111.69C125.93 109.674 131.006 108.079 132.132 113.427C133.429 119.588 126.728 121.94 123.214 122.345C120.62 136.289 123.214 146.531 124.836 149.909C121.593 156.395 110.243 155.314 104.973 153.963V143.829C83.2461 144.477 83.084 136.532 83.084 129.236Z" fill="#F5B896" stroke="black" stroke-width="1.59595" stroke-linejoin="round"/>
<path d="M105.379 143.83C108.219 143.701 112.885 142.856 114.143 140.519C114.196 140.403 114.247 140.291 114.297 140.182C114.253 140.297 114.202 140.41 114.143 140.519C112.175 144.811 107.905 152.927 105.379 153.558V143.83Z" fill="black" stroke="black" stroke-width="1.59595" stroke-linecap="round" stroke-linejoin="round"/>
<path d="M83.248 129.907V98.5156H116.893C116.893 107.485 120.541 111.29 121.352 113.192C124.459 110.882 130.999 107.811 132.296 114.007C133.594 120.204 126.892 122.569 123.379 122.976C120.784 137.001 123.379 147.301 125 150.699C121.757 157.221 110.407 156.134 105.137 154.775V144.583C83.4102 145.236 83.248 137.245 83.248 129.907Z" fill="#BF7657" stroke="black" stroke-width="1.59595" stroke-linecap="round" stroke-linejoin="round"/>
<path d="M105.543 144.585C108.383 144.455 113.049 143.606 114.307 141.255C114.36 141.139 114.411 141.026 114.461 140.916C114.417 141.032 114.366 141.145 114.307 141.255C112.339 145.572 108.069 153.734 105.543 154.369V144.585Z" fill="black" stroke="black" stroke-width="1.59595" stroke-linecap="round" stroke-linejoin="round"/>
<rect width="34.0501" height="17.9379" transform="matrix(-1 0 0 1 120.076 82.6074)" fill="white" stroke="black" stroke-width="1.59595" stroke-linecap="round" stroke-linejoin="round"/>
<path d="M139.534 99.3218C138.561 82.0362 116.158 73.638 105.078 71.5996C96.9712 74.5893 80.0272 83.7485 77.1086 96.4681C74.19 109.188 79.6007 113.998 83.2489 115.221C84.6001 105.573 97.5221 88.2274 100.214 89.1298C108.727 91.9836 118.455 109.378 123.725 118.89V125.006C129.4 123.647 140.507 116.607 139.534 99.3218Z" fill="black"/>
<path d="M100.214 89.1298C108.727 91.9836 118.455 109.378 123.725 118.89V125.006C129.4 123.647 140.507 116.607 139.534 99.3218C138.561 82.0362 116.158 73.638 105.078 71.5996C96.9712 74.5893 80.0272 83.7485 77.1086 96.4681C74.19 109.188 79.6007 113.998 83.2489 115.221C84.6001 105.573 97.5221 88.2274 100.214 89.1298ZM100.214 89.1298C100.214 89.1298 95.7551 87.0914 94.539 87.4991" stroke="black" stroke-width="1.59595" stroke-linecap="round" stroke-linejoin="round"/>
<path d="M110.813 82.2012C115.677 84.6472 125.73 92.3116 127.027 103.401" stroke="white" stroke-width="1.59595" stroke-linecap="round" stroke-linejoin="round"/>
<path d="M101.837 120.957C101.185 118.803 98.9195 117.589 96.778 118.245C94.6364 118.902 93.4294 121.18 94.0819 123.333C94.4684 124.609 95.4208 125.555 96.5782 125.978" stroke="black" stroke-width="1.59595" stroke-linecap="round" stroke-linejoin="round"/>
<ellipse cx="104.732" cy="118.493" rx="1.21608" ry="1.22304" fill="black"/>
<ellipse cx="91.761" cy="117.668" rx="1.21608" ry="1.22304" fill="black"/>
<path d="M104.326 111.158C106.353 110.343 110.001 111.647 110.001 115.235" stroke="black" stroke-width="1.59595" stroke-linecap="round" stroke-linejoin="round"/>
<path d="M92.5703 110.837C91.3542 110.429 88.7599 111.326 88.1113 113.283" stroke="black" stroke-width="1.59595" stroke-linecap="round" stroke-linejoin="round"/>
<path d="M102.705 131.533C102.029 132.484 100.678 134.387 97.8408 134.387C95.5708 134.387 94.1926 132.484 93.7872 131.533" stroke="black" stroke-width="1.59595" stroke-linecap="round" stroke-linejoin="round"/>
<path d="M111.183 155.558C119.939 156.207 125.371 153.261 125.776 149.478C124.155 147.857 126.992 147.046 127.803 149.479C129.289 153.937 137.126 155.963 127.803 161.638C118.479 167.313 118.48 167.854 112.399 169.34C108.832 169.016 114.426 159.611 111.183 155.558Z" fill="white" stroke="black" stroke-width="1.32862" stroke-linecap="round" stroke-linejoin="round"/>
<path d="M100.274 232.258C96.626 211.18 105.139 177.805 105.949 169.428C101.733 172.022 88.5188 207.531 90.951 232.258C92.3022 236.447 96.626 250.028 96.626 246.446C96.626 238.339 100.559 233.905 100.274 232.258Z" fill="black" stroke="black" stroke-width="1.32862" stroke-linecap="round" stroke-linejoin="round"/>
<path d="M105.949 169.023L110.813 167.402L112.029 158.889L110.813 157.268L104.327 164.564L105.949 169.023Z" fill="black" stroke="black" stroke-width="1.32862" stroke-linecap="round" stroke-linejoin="round"/>
<path d="M104.291 166.099C105.913 161.64 109.426 157.316 111.588 155.154C106.075 155.154 105.778 154.073 105.913 151.506C103.481 151.506 102.103 154.424 101.454 156.37C100.805 158.316 98.6164 160.424 96.5896 160.424C97.5625 161.721 100.913 163.802 104.291 166.099Z" fill="white" stroke="black" stroke-width="1.32862" stroke-linecap="round" stroke-linejoin="round"/>
<path d="M96.8233 147.45C85.1747 146.871 82.8419 137.406 84.7694 124.037C85.2498 128.032 88.118 129.625 90.039 132.55C90.5351 133.305 90.2653 135.965 90.8497 136.604C92.0658 139.846 95.0656 140.707 98.4198 140.831C101.58 140.948 103.416 140.479 105.037 138.225C106.659 135.971 105.966 133.767 107.469 132.955C115.943 128.382 123.131 123.435 124.883 122.002C124.883 126.866 123.278 148.764 96.8233 147.45Z" fill="black" stroke="black" stroke-width="1.32862" stroke-linecap="round" stroke-linejoin="round"/>
<path d="M101.795 125.254L97.7411 125.659C97.7411 125.659 103.416 128.497 104.867 130.118C106.318 131.74 106.253 135.388 106.253 135.388C106.253 135.388 106.659 130.524 105.443 128.497C104.227 126.47 101.795 125.254 101.795 125.254Z" fill="black" stroke="black" stroke-width="1.32862" stroke-linecap="round" stroke-linejoin="round"/>
<path d="M93.3466 125.254L97.4002 125.659C97.4002 125.659 92.7055 128.091 91.2547 129.713C89.804 131.334 90.444 135.388 90.444 135.388C90.444 135.388 88.4823 130.524 89.6983 128.497C90.9144 126.47 93.3466 125.254 93.3466 125.254Z" fill="black" stroke="black" stroke-width="1.32862" stroke-linecap="round" stroke-linejoin="round"/>
<path d="M98.957 143.494L98.1463 144.305" stroke="white" stroke-width="1.32862" stroke-linecap="round" stroke-linejoin="round"/>
<path d="M105.016 143.326L105.059 144.472" stroke="white" stroke-width="1.32862" stroke-linecap="round" stroke-linejoin="round"/>
<path d="M108.09 143.494L108.133 144.64" stroke="white" stroke-width="1.32862" stroke-linecap="round" stroke-linejoin="round"/>
<path d="M94.9043 141.873L95.715 142.684" stroke="white" stroke-width="1.32862" stroke-linecap="round" stroke-linejoin="round"/>
<path d="M112.529 141.191L111.803 142.078" stroke="white" stroke-width="1.32862" stroke-linecap="round" stroke-linejoin="round"/>
<path d="M91.8496 141.748L92.2835 142.809" stroke="white" stroke-width="1.32862" stroke-linecap="round" stroke-linejoin="round"/>
<path d="M120.053 123.883L119.62 124.945" stroke="black" stroke-width="1.32862" stroke-linecap="round" stroke-linejoin="round"/>
<path d="M113.363 127.361L114.156 128.19" stroke="black" stroke-width="1.32862" stroke-linecap="round" stroke-linejoin="round"/>
<path d="M108.914 129.822L108.447 130.869" stroke="black" stroke-width="1.32862" stroke-linecap="round" stroke-linejoin="round"/>
<path d="M100.193 138.639L99.8487 139.732" stroke="black" stroke-width="1.32862" stroke-linecap="round" stroke-linejoin="round"/>
<path d="M111.117 129.25L111.265 130.387" stroke="black" stroke-width="1.32862" stroke-linecap="round" stroke-linejoin="round"/>
<path d="M102.316 138.629L102.593 139.742" stroke="black" stroke-width="1.32862" stroke-linecap="round" stroke-linejoin="round"/>
<path d="M117.131 125.963L117.203 127.107" stroke="black" stroke-width="1.32862" stroke-linecap="round" stroke-linejoin="round"/>
<path d="M114.492 125.75L114.98 126.788" stroke="black" stroke-width="1.32862" stroke-linecap="round" stroke-linejoin="round"/>
<path d="M88.2109 127.279L87.6339 128.27" stroke="black" stroke-width="1.32862" stroke-linecap="round" stroke-linejoin="round"/>
<path d="M92.4531 134.826L91.4539 135.388" stroke="black" stroke-width="1.32862" stroke-linecap="round" stroke-linejoin="round"/>
<path d="M95.9941 138.475L96.1365 139.612" stroke="black" stroke-width="1.32862" stroke-linecap="round" stroke-linejoin="round"/>
<path d="M94.0547 137.285L93.5829 138.33" stroke="black" stroke-width="1.32862" stroke-linecap="round" stroke-linejoin="round"/>
<path d="M87.6074 125.762L86.6991 126.461" stroke="black" stroke-width="1.32862" stroke-linecap="round" stroke-linejoin="round"/>
</g>
<path d="M20.8244 122.34L20.8254 122.341C31.2688 129.084 44.5672 127.844 53.541 120.16L63.5148 118.027L64.4443 117.828L64.2463 116.897L62.1192 106.893C65.4446 95.4617 61.0898 82.7862 50.6439 76.0406C37.8946 67.7852 20.8783 71.459 12.6475 84.241C4.41724 97.0221 8.07553 114.085 20.8244 122.34Z" fill="#DFE1F2" stroke="#F6F7FA" stroke-width="1.90636"/>
<circle cx="31.9176" cy="99.3492" r="7.26348" transform="rotate(-54.3251 31.9176 99.3492)" fill="#F6F7FA"/>
<path d="M44.9612 79.0572L48.0272 84.1619C44.5691 86.0947 43.3431 90.2879 45.289 93.5277C47.2346 96.7671 51.6154 97.8264 55.0735 95.8935L58.1397 100.999C58.4348 101.49 58.2685 102.115 57.7683 102.394L30.303 117.746L28.8005 115.244L27.0066 116.247L28.5091 118.749L15.4497 126.048C14.9495 126.328 14.3048 126.156 14.0097 125.665L10.9434 120.56L3.89739 108.829L0.831145 103.724C0.536076 103.232 0.702395 102.607 1.20263 102.328L14.2621 95.0282L15.7643 97.5294L17.5582 96.5267L16.0559 94.0255L43.5212 78.674C44.0214 78.3944 44.6661 78.566 44.9612 79.0572Z" fill="black" stroke="black" stroke-width="0.51882"/>
<path d="M43.7774 77.4809L46.8907 82.6643C43.4972 84.5611 42.3443 88.7595 44.3158 92.0419C46.287 95.3239 50.6361 96.4469 54.0296 94.5501L57.1431 99.734C57.4382 100.225 57.2719 100.85 56.7716 101.13L29.8364 116.185L28.3141 113.651L26.5538 114.635L28.0761 117.169L15.2775 124.323C14.7773 124.602 14.1326 124.431 13.8375 123.939L10.7239 118.756L3.58533 106.87L0.47177 101.686C0.176701 101.195 0.34302 100.57 0.843254 100.291L13.6418 93.1369L15.1638 95.671L16.9241 94.687L15.4021 92.153L42.3374 77.0977C42.8376 76.8181 43.4823 76.9897 43.7774 77.4809Z" fill="#F6F7FA" stroke="black" stroke-width="0.905521"/>
<path d="M30.6035 91.1033C29.3763 91.7056 28.3674 92.6559 27.7045 93.8342C27.0416 95.0124 26.7544 96.3656 26.8792 97.7227C27.0041 99.0797 27.5354 100.38 28.406 101.458C29.2765 102.537 30.4472 103.345 31.77 103.782C33.0928 104.218 34.5083 104.263 35.8375 103.91C37.1668 103.557 38.35 102.823 39.2375 101.8C40.1251 100.777 40.6772 99.5107 40.824 98.1622C40.9707 96.8137 40.7056 95.443 40.0621 94.2236C39.1974 92.5902 37.7161 91.3444 35.9429 90.7595C34.1698 90.1745 32.2497 90.2982 30.6035 91.1033ZM37.0889 98.7876C37.1848 98.9693 37.2041 99.1792 37.1426 99.3711C37.0811 99.563 36.9439 99.7212 36.761 99.811L36.2094 100.082L36.4126 100.467C36.5003 100.627 36.5299 100.811 36.4965 100.987C36.463 101.163 36.3686 101.321 36.2291 101.435C36.1396 101.504 36.035 101.553 35.9229 101.577C35.8108 101.602 35.694 101.601 35.5809 101.576C35.4678 101.55 35.3612 101.501 35.269 101.43C35.1767 101.36 35.101 101.271 35.0474 101.169L34.8305 100.758L34.279 101.029C34.1767 101.079 34.0639 101.106 33.9487 101.107C33.8335 101.109 33.7187 101.085 33.6127 101.038C33.5066 100.991 33.412 100.922 33.3356 100.836C33.2592 100.749 33.2029 100.647 33.1709 100.538C33.1233 100.363 33.1382 100.179 33.2131 100.016C33.288 99.8539 33.4184 99.7231 33.5822 99.6461L35.3485 98.7792L34.7701 97.6831L32.9776 98.5628C32.7947 98.6526 32.5812 98.6665 32.3842 98.6014C32.1871 98.5364 32.0225 98.3978 31.9266 98.2161L30.6252 95.75C30.5293 95.5683 30.51 95.3584 30.5715 95.1665C30.633 94.9745 30.7703 94.8163 30.9531 94.7266L31.5047 94.4559L31.3015 94.0709C31.2133 93.9108 31.1833 93.727 31.2168 93.5506C31.2502 93.3742 31.345 93.216 31.4851 93.1028C31.5745 93.0333 31.6791 92.9846 31.7912 92.9602C31.9033 92.9358 32.0202 92.9364 32.1333 92.9617C32.2464 92.9871 32.3529 93.0368 32.4452 93.1071C32.5374 93.1774 32.6131 93.2665 32.6667 93.3682L32.8836 93.7792L33.4351 93.5085C33.5374 93.4583 33.6503 93.4313 33.7656 93.4295C33.881 93.4277 33.9959 93.4512 34.1021 93.4981C34.2083 93.5451 34.3031 93.6144 34.3797 93.701C34.4562 93.7876 34.5125 93.8894 34.5446 93.999C34.5917 94.1741 34.5764 94.3584 34.5012 94.5208C34.4261 94.6833 34.2957 94.8142 34.132 94.8915L32.3656 95.7583L32.944 96.8544L34.7366 95.9747C34.9194 95.885 35.1329 95.8711 35.33 95.9361C35.5271 96.0011 35.6916 96.1397 35.7875 96.3214L37.0889 98.7876Z" fill="#868AC3"/>
<path d="M26.6305 112.615L16.6328 96.252" stroke="#BCBFE3" stroke-width="1.92423" stroke-dasharray="4.28 2.14"/>
<g clip-path="url(#clip1_1598_28436)">
<path d="M245.861 184.799C289.044 184.799 324.058 149.935 324.058 106.921C324.058 63.9063 289.044 29.0429 245.861 29.0429C202.678 29.0429 167.664 63.9063 167.664 106.921C167.664 149.935 202.678 184.799 245.861 184.799Z" fill="#BCBFE3" stroke="#3B4183" stroke-width="1.90636"/>
<mask id="mask1_1598_28436" style="mask-type:alpha" maskUnits="userSpaceOnUse" x="163" y="17" width="164" height="167">
<path d="M323.315 43.51L306.595 46.5853C277.077 11.8342 225.59 7.85799 191.68 37.7446C157.769 67.6312 154.176 120.099 183.694 154.85C213.212 189.601 264.699 193.578 298.609 163.691C328.177 137.609 335.252 93.5963 315.306 59.0621L323.315 43.51Z" fill="#FBFCFD"/>
</mask>
<g mask="url(#mask1_1598_28436)">
<path d="M318.05 303.29L361.908 299.14L359.645 295.714L359.103 294.893L360.073 294.732L377.988 291.754C368.83 277.48 364.073 259.948 360.167 242.955C359.504 240.069 358.865 237.201 358.234 234.366C355.066 220.133 352.089 206.76 347.135 196.415C344.644 191.212 339.336 187.005 332.384 183.5C325.444 180.002 316.959 177.247 308.24 174.9C302.089 173.243 295.846 171.796 289.963 170.431C287.504 169.861 285.108 169.306 282.808 168.755C275.137 166.92 268.493 165.138 264.248 163.073L223.986 167.115C218.516 170.871 209.125 183.85 215.814 206.224C217.847 210.918 222.445 213.823 228.771 215.608C235.107 217.396 243.042 218.023 251.517 218.261C255.654 218.377 259.907 218.401 264.154 218.424L264.445 218.426C268.785 218.45 273.116 218.476 277.291 218.605C285.628 218.86 293.406 219.523 299.461 221.414C302.743 222.438 305.401 225.341 307.577 229.669C309.759 234.008 311.509 239.883 312.922 247.037C315.721 261.211 317.222 280.553 318.05 303.29Z" fill="#DFE1F2" stroke="black" stroke-width="1.27676"/>
<path d="M239.07 178.723C237.646 185.245 232.232 197.066 221.974 192.174" stroke="black" stroke-width="1.27676" stroke-linecap="round" stroke-linejoin="round"/>
</g>
<path d="M226.61 71.9512L241.925 75.5129C248.795 78.1058 266.759 94.7568 282.075 114.703C283.975 120.921 273.738 129.616 271.39 137.142C268.805 145.422 273.981 152.738 273.981 164.201C258.309 162.42 244.062 164.201 235.514 165.982C229.026 167.334 215.449 166.694 209.157 165.27C215.996 161.565 218.061 137.25 218.061 122.528C213.787 120.035 203.102 118.254 195.978 116.473C200.538 99.6617 218.774 80.0245 226.61 71.9512Z" fill="#568DF4"/>
<path d="M218.061 122.528C213.787 120.035 203.102 118.254 195.978 116.473C200.538 99.6617 218.774 80.0245 226.61 71.9512L241.925 75.5129C248.795 78.1058 266.759 94.7568 282.075 114.703C283.975 120.921 273.738 129.616 271.39 137.142C268.805 145.422 273.981 152.738 273.981 164.201C258.309 162.42 244.062 164.201 235.514 165.982C229.026 167.334 215.449 166.694 209.157 165.27C215.996 161.565 218.061 137.25 218.061 122.528ZM218.061 122.528L225.185 126.09C225.185 114.703 225.185 105.076 226.61 94.0341" stroke="black" stroke-width="1.59595" stroke-linecap="round" stroke-linejoin="round"/>
<circle cx="227.679" cy="137.487" r="6.41118" fill="white"/>
<mask id="mask2_1598_28436" style="mask-type:alpha" maskUnits="userSpaceOnUse" x="196" y="71" width="87" height="96">
<path d="M226.46 71.9512L241.878 75.5137C247.626 78.0062 267.572 96.5274 282.296 116.849C284.209 123.069 273.904 129.628 271.539 137.156C268.938 145.438 274.148 152.755 274.148 164.221C261.873 162.064 244.42 162.776 236.228 165.289C229.857 167.244 215.225 166.714 208.891 165.289C215.775 161.584 217.855 137.264 217.855 122.539C213.552 120.045 203.864 118.255 196.693 116.473C201.282 99.6582 218.572 80.0262 226.46 71.9512Z" fill="#1361F0"/>
</mask>
<g mask="url(#mask2_1598_28436)">
<circle cx="200.61" cy="104.007" r="9.2606" fill="white"/>
<circle cx="252.612" cy="84.0616" r="6.41118" fill="white"/>
<path d="M234.091 109.707C234.091 113.248 229.439 116.118 225.898 116.118C225.542 116.118 225.899 113.248 225.899 109.707C225.899 106.166 226.611 102.939 226.611 102.939C230.152 102.939 234.091 106.166 234.091 109.707Z" fill="white"/>
<path d="M259.024 108.638C259.024 112.179 259.716 110.419 256.175 110.419C252.634 110.419 249.764 107.548 249.764 104.007C249.764 101.49 251.214 99.3118 253.325 98.2627C254.184 97.8361 253.727 100.09 254.75 100.09C255.106 100.446 257.6 105.432 259.024 108.638Z" fill="white"/>
<circle cx="236.228" cy="163.132" r="6.41118" fill="white"/>
<circle cx="273.271" cy="156.722" r="6.41118" fill="white"/>
</g>
<path d="M250.732 94.4004C262.486 110.428 273.507 152.684 274.338 164.201" stroke="black" stroke-width="1.59595" stroke-linecap="round" stroke-linejoin="round"/>
<path d="M195.624 116.892C203.087 121.525 214.857 131.781 224.83 126.82C215.581 123.179 196.792 116.097 195.624 116.892Z" fill="black" stroke="black" stroke-width="1.59595" stroke-linecap="round" stroke-linejoin="round"/>
<path d="M240.758 130.373L215.113 154.237L216.538 146.757L240.758 130.373Z" fill="black" stroke="black" stroke-width="1.59595" stroke-linecap="round" stroke-linejoin="round"/>
<circle cx="266.405" cy="114.702" r="2.13706" fill="black"/>
<path d="M301.664 149.606C307.007 140.345 287.18 121.587 277.8 111.139L278.513 116.838L267.115 121.468L259.021 139.623C263.148 143.385 269.903 140.995 275.762 143.623C287.098 148.709 299.081 151.249 301.664 149.606Z" fill="#F5B896" stroke="black" stroke-width="1.59595" stroke-linecap="round" stroke-linejoin="round"/>
<path d="M266.045 128.947C262.626 129.232 263.433 132.152 264.264 133.577C267.399 135.857 271.269 136.664 272.813 136.783M266.045 128.947C265.254 127.522 266.829 125.314 269.963 126.454C273.097 127.593 275.068 127.641 275.662 127.522C276.517 127.5 278.868 122.052 279.936 119.33C282.216 121.325 281.361 126.81 280.648 129.303C280.648 129.303 283.596 135.348 292.501 137.495M266.045 128.947C267.47 131.511 271.863 132.627 273.881 132.865" stroke="black" stroke-width="1.59595" stroke-linecap="round" stroke-linejoin="round"/>
<path d="M249.306 114.344C246.603 114.344 250.374 119.108 246.456 118.618C235.965 117.307 220.425 128.879 216.28 129.335C214.796 129.498 216.301 127.294 218.773 122.882C212.789 120.032 201.32 117.056 198.115 116.818C195.265 120.736 183.769 151.386 192.318 156.016C205.14 161.359 237.088 127.097 242.637 130.361C248.692 133.923 251.541 129.448 250.117 128.581C251.898 128.929 252.966 125.029 247.267 123.594C256.385 125.357 261.772 127.166 262.484 125.029C262.484 122.536 253.224 121.823 251.185 121.111C253.322 120.042 251.443 114.344 249.306 114.344Z" fill="#F5B896"/>
<path d="M198.115 137.477L216.28 129.335M216.28 129.335C214.796 129.498 216.301 127.294 218.773 122.882C212.789 120.032 201.32 117.056 198.115 116.818C195.265 120.736 183.769 151.386 192.318 156.016C205.14 161.359 237.088 127.097 242.637 130.361C248.692 133.923 251.541 129.448 250.117 128.581M216.28 129.335C220.425 128.879 235.965 117.307 246.456 118.618C250.374 119.108 246.603 114.344 249.306 114.344C251.443 114.344 253.322 120.042 251.185 121.111C253.224 121.823 262.484 122.536 262.484 125.029C261.772 127.166 256.385 125.357 247.267 123.594C252.966 125.029 251.898 128.929 250.117 128.581M250.117 128.581C249.048 128.407 245.842 127.512 245.842 127.512C245.842 127.512 248.593 128.581 250.117 128.581Z" stroke="black" stroke-width="1.59595" stroke-linecap="round" stroke-linejoin="round"/>
<path d="M253.429 142.434L261.977 109.194C262.261 108.089 263.362 107.402 264.479 107.634L280.94 111.039C282.137 111.287 282.883 112.488 282.574 113.671L281.155 119.111C281.067 119.45 280.76 119.687 280.41 119.687C280.119 119.687 279.854 119.85 279.722 120.109L276.064 127.311C275.768 127.894 275.215 128.306 274.562 128.265C273.619 128.206 272.148 127.956 270.203 127.276C269.999 127.205 269.807 127.096 269.631 126.971C268.414 126.105 267.622 125.986 267.106 126.262C265.663 127.036 263.77 129.463 263.485 131.076C263.369 131.732 263.451 132.476 263.774 133.123C264.056 133.69 264.31 134.296 264.424 134.919C265.048 138.331 269.815 141.242 273.495 142.577C274.624 142.987 275.365 144.157 275.087 145.326L274.715 146.889C274.449 148.007 273.345 148.715 272.217 148.489L255.08 145.062C253.878 144.821 253.124 143.621 253.429 142.434Z" fill="#868AC3" stroke="black" stroke-width="1.59595" stroke-linecap="round" stroke-linejoin="round"/>
<circle cx="266.527" cy="113.647" r="2.13706" transform="rotate(-11.4818 266.527 113.647)" fill="black"/>
<path d="M262.312 54.8944V27.4688H232.75C232.75 35.3046 229.544 37.9166 228.832 39.5788C226.101 37.5604 220.355 35.5896 219.215 41.0035C218.075 46.4174 221.729 49.562 224.815 49.9182C227.095 62.1706 227.051 70.0913 225.626 73.0594C228.476 78.7582 238.449 77.8084 243.079 76.6212V67.7167C262.17 68.2866 262.312 61.3056 262.312 54.8944Z" fill="#F5B896" stroke="black" stroke-width="1.59595" stroke-linejoin="round"/>
<path d="M242.723 67.7173C240.227 67.6039 236.128 66.8618 235.022 64.8078C234.975 64.7066 234.93 64.6079 234.887 64.5117C234.925 64.6133 234.97 64.712 235.022 64.8078C236.751 68.5795 240.503 75.7106 242.723 76.2656V67.7173Z" fill="black" stroke="black" stroke-width="1.59595" stroke-linecap="round" stroke-linejoin="round"/>
<path d="M278.955 27.8362C276.676 42.3682 266.845 39.1151 262.215 35.6721V31.0417C255.091 32.4664 248.324 28.7859 245.831 26.7676C246.051 31.8376 236.57 35.6721 231.584 34.6035C231.584 34.6035 230.051 39.5699 228.734 39.9462C226.478 37.5716 220.969 35.6721 219.474 39.9462C217.479 45.645 222.204 48.9693 224.816 49.9191L226.241 60.9606C224.46 62.504 218.69 65.021 212.706 62.7415C206.722 60.4619 209.263 53.9558 211.282 50.9876C207.007 50.1566 198.887 46.2861 200.596 37.4529C202.306 28.6197 210.094 26.174 213.775 26.0553C212.587 23.562 211.638 16.7947 217.337 9.67112C223.035 2.54758 233.721 5.75316 238.351 8.24639C239.301 5.99061 243.694 1.6215 253.667 2.19139C263.64 2.76127 265.658 10.5022 265.42 14.3015C270.882 12.7581 281.235 13.3042 278.955 27.8362Z" fill="#BFC2C8" stroke="black" stroke-width="1.59595" stroke-linecap="round" stroke-linejoin="round"/>
<path d="M226.05 20.7125C225.446 18.9553 227.246 16.2023 231.227 15.3699C234.859 14.6106 237.512 16.7357 237.995 17.6605" stroke="black" stroke-width="1.59595" stroke-linecap="round" stroke-linejoin="round"/>
<path d="M253.213 17.6736C254.104 16.0851 257.93 15.2903 261.145 17.6736C264.077 19.8475 263.624 23.5047 263.263 24.462" stroke="black" stroke-width="1.59595" stroke-linecap="round" stroke-linejoin="round"/>
<path d="M252.963 37.9623C254.744 37.25 257.949 38.3897 257.949 41.524" stroke="black" stroke-width="1.27676" stroke-linecap="round" stroke-linejoin="round"/>
<path d="M242.988 38.6742C241.92 38.318 239.64 39.1016 239.07 40.8112" stroke="black" stroke-width="1.27676" stroke-linecap="round" stroke-linejoin="round"/>
<path d="M238.003 50.2227C238.003 53.0721 239.784 55.6211 242.389 57.1102C246.379 59.3897 251.181 58.7709 253.787 56.754" stroke="black" stroke-width="1.27676" stroke-linecap="round" stroke-linejoin="round"/>
<circle cx="1.06853" cy="1.06853" r="1.06853" transform="matrix(-1 0 0 1 244.059 41.4473)" fill="black"/>
<circle cx="1.06853" cy="1.06853" r="1.06853" transform="matrix(-1 0 0 1 255.455 40.7266)" fill="black"/>
<path d="M245.987 46.0731C246.561 44.1914 248.551 43.1307 250.433 43.7041C252.314 44.2774 253.375 46.2676 252.802 48.1493C252.462 49.264 251.625 50.0906 250.608 50.46" stroke="black" stroke-width="1.27676" stroke-linecap="round" stroke-linejoin="round"/>
<path d="M239.791 44.8809C239.791 46.848 241.385 48.4426 243.352 48.4426C245.319 48.4426 246.914 46.848 246.914 44.8809C246.914 44.8809 245.319 44.8809 243.352 44.8809C241.385 44.8809 239.791 44.8809 239.791 44.8809Z" fill="white" stroke="black" stroke-width="1.27676" stroke-linecap="round" stroke-linejoin="round"/>
<path d="M252.613 44.8809C252.613 46.848 254.207 48.4426 256.175 48.4426C258.142 48.4426 259.736 46.848 259.736 44.8809C259.736 44.8809 258.142 44.8809 256.175 44.8809C254.207 44.8809 252.613 44.8809 252.613 44.8809Z" fill="white" stroke="black" stroke-width="1.27676" stroke-linecap="round" stroke-linejoin="round"/>
<path d="M284.134 44.7291L284.133 44.7302C278.228 56.0085 280.732 69.4557 289.406 77.8906L292.514 87.8761L292.796 88.7837L293.705 88.5019L303.722 85.3975C315.69 87.7273 328.213 82.1069 334.12 70.826C341.351 57.0575 336.021 40.0484 322.221 32.8453C308.423 25.6427 291.364 30.9611 284.134 44.7291Z" fill="#BCBFE3" stroke="#F6F7FA" stroke-width="1.90636"/>
<path d="M344.707 54.6596L343.389 60.4665C339.555 59.4696 335.769 61.649 334.932 65.3346C334.096 69.0196 336.526 72.8153 340.36 73.8122L339.042 79.6197C338.915 80.1785 338.363 80.5147 337.808 80.3705L307.356 72.4527L308.002 69.6069L306.013 69.0898L305.367 71.9356L290.888 68.1708C290.333 68.0266 289.986 67.4566 290.113 66.8978L291.431 61.0903L294.46 47.7451L295.778 41.9377C295.905 41.3788 296.457 41.0427 297.012 41.1869L311.492 44.9517L310.846 47.797L312.835 48.3141L313.481 45.4688L343.933 53.3866C344.487 53.5308 344.834 54.1007 344.707 54.6596Z" fill="black" stroke="black" stroke-width="0.51882"/>
<path d="M344.949 52.6993L343.611 58.5958C339.848 57.6175 336.111 59.8512 335.264 63.5852C334.416 67.3187 336.78 71.1386 340.542 72.1168L339.204 78.0139C339.077 78.5728 338.525 78.9089 337.97 78.7647L308.106 70.9997L308.76 68.1166L306.808 67.6091L306.154 70.4923L291.964 66.8027C291.409 66.6585 291.062 66.0885 291.189 65.5297L292.527 59.6326L295.596 46.1121L296.934 40.215C297.061 39.6562 297.614 39.32 298.168 39.4642L312.359 43.1538L311.704 46.0365L313.656 46.544L314.31 43.6613L344.175 51.4262C344.729 51.5705 345.076 52.1404 344.949 52.6993Z" fill="#F6F7FA" stroke="black" stroke-width="0.905521"/>
<path d="M326.009 53.4283C324.706 53.0141 323.32 53.0023 322.026 53.3944C320.733 53.7865 319.589 54.5648 318.74 55.6311C317.891 56.6973 317.376 58.0035 317.258 59.3845C317.141 60.7655 317.426 62.1593 318.08 63.3896C318.733 64.6199 319.724 65.6314 320.928 66.2963C322.132 66.9612 323.494 67.2495 324.843 67.1249C326.191 67.0003 327.466 66.4683 328.505 65.5962C329.544 64.7241 330.301 63.551 330.68 62.2253C331.185 60.4477 330.978 58.5233 330.102 56.8742C329.227 55.2251 327.755 53.9859 326.009 53.4283ZM325.375 63.4636C325.319 63.6611 325.187 63.8261 325.01 63.9221C324.833 64.0181 324.624 64.0374 324.43 63.9757L323.845 63.7895L323.725 64.208C323.678 64.3844 323.572 64.5375 323.426 64.6416C323.28 64.7457 323.102 64.7946 322.923 64.78C322.81 64.7683 322.701 64.7311 322.603 64.6712C322.505 64.6112 322.421 64.53 322.357 64.4334C322.293 64.3368 322.251 64.2273 322.233 64.1127C322.215 63.9981 322.222 63.8814 322.253 63.7709L322.381 63.3241L321.796 63.1379C321.687 63.1033 321.587 63.0445 321.503 62.966C321.419 62.8874 321.352 62.791 321.308 62.6837C321.264 62.5764 321.244 62.4609 321.248 62.3456C321.253 62.2302 321.283 62.1179 321.335 62.0167C321.422 61.8575 321.56 61.7348 321.727 61.6693C321.893 61.6039 322.078 61.5996 322.249 61.6573L324.124 62.2535L324.465 61.0619L322.562 60.4569C322.368 60.3951 322.204 60.2575 322.107 60.0742C322.01 59.8909 321.987 59.6769 322.043 59.4794L322.81 56.7984C322.866 56.6008 322.998 56.4359 323.175 56.3399C323.352 56.2439 323.56 56.2246 323.755 56.2863L324.34 56.4725L324.46 56.0539C324.507 55.8773 324.612 55.7239 324.759 55.6196C324.905 55.5154 325.083 55.4668 325.262 55.482C325.375 55.4937 325.484 55.5309 325.582 55.5908C325.68 55.6508 325.764 55.732 325.828 55.8286C325.892 55.9251 325.934 56.0347 325.952 56.1493C325.97 56.2639 325.963 56.3806 325.932 56.491L325.804 56.9379L326.389 57.1241C326.498 57.1585 326.598 57.2172 326.683 57.2957C326.767 57.3742 326.834 57.4706 326.878 57.578C326.922 57.6854 326.943 57.801 326.938 57.9165C326.934 58.032 326.904 58.1445 326.851 58.2458C326.764 58.4048 326.625 58.5272 326.459 58.5926C326.292 58.6579 326.107 58.6622 325.936 58.6047L324.061 58.0085L323.72 59.2001L325.623 59.8051C325.817 59.8668 325.981 60.0045 326.078 60.1878C326.175 60.3711 326.198 60.585 326.142 60.7826L325.375 63.4636Z" fill="#505798"/>
<path d="M308.265 66.208L312.367 47.4766" stroke="#BCBFE3" stroke-width="1.92423" stroke-dasharray="4.28 2.14"/>
</g>
</g>
<defs>
<clipPath id="clip0_1598_28436">
<rect width="346" height="272" fill="white"/>
</clipPath>
<clipPath id="clip1_1598_28436">
<rect width="226.042" height="224.369" fill="white" transform="translate(134.961 -12)"/>
</clipPath>
</defs>
</svg>
