<svg width="484" height="462" viewBox="0 0 484 462" fill="none" xmlns="http://www.w3.org/2000/svg">
<rect x="21.8201" y="24.8041" width="431.527" height="431.527" rx="215.763" fill="#F6F7FA"/>
<rect x="21.8201" y="24.8041" width="431.527" height="431.527" rx="215.763" stroke="white" stroke-width="4.10978"/>
<mask id="mask0_1979_18513" style="mask-type:alpha" maskUnits="userSpaceOnUse" x="23" y="26" width="429" height="429">
<circle cx="237.583" cy="240.567" r="213.708" fill="#D9D9D9"/>
</mask>
<g mask="url(#mask0_1979_18513)">
<path d="M5.48535 65.661H738.696" stroke="#E7EFFC" stroke-width="0.59328" stroke-linejoin="round"/>
<path d="M5.48535 111.056H738.696" stroke="#E7EFFC" stroke-width="0.59328" stroke-linejoin="round"/>
<path d="M5.48535 156.466H738.696" stroke="#E7EFFC" stroke-width="0.59328" stroke-linejoin="round"/>
<path d="M5.48535 201.861H738.696" stroke="#E7EFFC" stroke-width="0.59328" stroke-linejoin="round"/>
<path d="M5.48535 247.264H738.696" stroke="#E7EFFC" stroke-width="0.59328" stroke-linejoin="round"/>
<path d="M5.48535 292.665H738.696" stroke="#E7EFFC" stroke-width="0.59328" stroke-linejoin="round"/>
<path d="M5.48535 338.062H738.696" stroke="#E7EFFC" stroke-width="0.59328" stroke-linejoin="round"/>
<path d="M5.48535 383.463H738.696" stroke="#E7EFFC" stroke-width="0.59328" stroke-linejoin="round"/>
<path d="M5.48535 428.859H738.696" stroke="#E7EFFC" stroke-width="0.59328" stroke-linejoin="round"/>
<path d="M417.486 16.8497L417.486 750.06" stroke="#E7EFFC" stroke-width="0.59328" stroke-linejoin="round"/>
<path d="M372.081 16.8497L372.081 750.06" stroke="#E7EFFC" stroke-width="0.59328" stroke-linejoin="round"/>
<path d="M326.694 16.8497L326.694 750.06" stroke="#E7EFFC" stroke-width="0.59328" stroke-linejoin="round"/>
<path d="M281.292 16.8497L281.292 750.06" stroke="#E7EFFC" stroke-width="0.59328" stroke-linejoin="round"/>
<path d="M235.875 16.8497L235.875 750.06" stroke="#E7EFFC" stroke-width="0.59328" stroke-linejoin="round"/>
<path d="M190.48 16.8497L190.48 750.06" stroke="#E7EFFC" stroke-width="0.59328" stroke-linejoin="round"/>
<path d="M145.079 16.8497L145.079 750.06" stroke="#E7EFFC" stroke-width="0.59328" stroke-linejoin="round"/>
<path d="M99.6807 16.8497L99.6806 750.06" stroke="#E7EFFC" stroke-width="0.59328" stroke-linejoin="round"/>
<path d="M54.2783 16.8497L54.2783 750.06" stroke="#E7EFFC" stroke-width="0.59328" stroke-linejoin="round"/>
<g clip-path="url(#clip0_1979_18513)">
<path d="M259.301 335.419L241.493 312.867C237.782 311.897 226.981 321.371 225.736 328.279C225.736 328.279 240.439 359.359 250.937 358.635C261.435 357.91 315.968 346.161 341.973 323.942C344.372 322.211 344.861 319.308 344.964 316.214C346.699 314.335 345.961 311.811 344.616 310.833C345.484 307.839 343.482 305.683 342.058 304.261C338.876 301.085 331.953 303.689 327.477 306.16C321.331 294.092 308.191 296.667 311.916 299.676C319.589 305.875 319.311 312.073 319.311 312.073C319.311 312.073 314.846 318.212 295.069 326.509C275.291 334.806 259.301 335.419 259.301 335.419Z" fill="#F5B896" stroke="black" stroke-width="2.49923" stroke-linejoin="round"/>
<path d="M136.511 476.462C126.887 443.153 136.994 410.134 147.024 402.429C147.024 402.429 159.771 390.638 181.91 385.642C204.049 380.647 219.632 385.618 219.632 385.618C238.597 428.106 271.317 501.015 272.926 523.198C273.574 532.127 276.001 711.576 281.149 718.679L245.598 721.257C245.598 721.257 233.822 581.251 225.869 549.63C217.915 518.01 204.566 474.925 204.566 474.925C204.566 474.925 199.084 554.451 188.028 575.394C176.973 596.338 134.584 714.508 134.584 714.508L103.298 693.758C122.133 641.741 134.156 607.867 139.969 578.88C148.751 535.082 142.78 498.16 136.511 476.462Z" fill="#2F3476" stroke="black" stroke-width="2.49923" stroke-linecap="round" stroke-linejoin="round"/>
<path d="M177.275 422.71C175.54 435.155 167.181 458.091 147.622 450.27" stroke="black" stroke-width="2.49923" stroke-linecap="round" stroke-linejoin="round"/>
<path d="M204.872 475.89C204.872 475.89 205.53 448.602 203.199 416.473C203.199 416.473 209.021 442.19 210.777 457.31C212.534 472.43 211.848 499.345 211.848 499.345L204.872 475.89Z" fill="black" stroke="black" stroke-width="2.49923" stroke-linecap="round" stroke-linejoin="round"/>
<path d="M170.048 243.518C201.317 249.822 227.188 297.402 250.12 313.543C250.12 313.543 229.556 322.948 222.863 330.687C233.538 359.761 239.377 387.484 240.932 402.572C220.074 396.831 183.625 403.432 170.326 410.99C159.686 417.038 133.468 414.983 121.689 413.199C116.431 397.755 120.84 358.529 132.378 333.294C124.174 329.273 104.257 327.42 90.8995 325.092C97.0501 293.521 125.293 253.798 138.646 237.883L170.048 243.518Z" fill="#BCBFE3"/>
<path d="M132.378 333.294C124.174 329.273 104.257 327.42 90.8995 325.092C97.0501 293.521 125.293 253.798 138.646 237.883L170.048 243.518C201.317 249.822 227.188 297.402 250.12 313.543C250.12 313.543 229.556 322.948 222.863 330.687M132.378 333.294C120.84 358.529 116.431 397.755 121.689 413.199C133.468 414.983 159.686 417.038 170.326 410.99C183.625 403.432 220.074 396.831 240.932 402.572C237.964 373.773 219.386 298.932 181.362 256.545M132.378 333.294L145.974 338.902C141.599 324.052 144.468 284.279 146.786 261.691" stroke="black" stroke-width="2.58999" stroke-linecap="round" stroke-linejoin="round"/>
<path d="M90.9323 325.091C104.962 332.651 136.027 346.165 145.398 339.604C128.294 334.105 92.9253 323.476 90.9323 325.091Z" fill="black" stroke="black" stroke-width="2.49923" stroke-linecap="round" stroke-linejoin="round"/>
<path fill-rule="evenodd" clip-rule="evenodd" d="M125.617 255.146L135.123 302.619L134.421 302.734C134.421 302.734 144.319 335.497 134.984 352.509L135.881 364.871L135.417 418.123L129.455 556.391L264.474 551.699L240.705 399.854L232.325 361.687L219.339 323.344L204.766 291.238L199.254 292.139L187.076 251.201L175.939 245.376C175.939 245.376 184.905 274.659 190.681 293.54L146.061 300.831L134.016 244.333L125.617 255.146Z" fill="#585193"/>
<path d="M135.123 302.619L135.262 303.466C135.492 303.428 135.697 303.299 135.829 303.108C135.962 302.916 136.011 302.679 135.965 302.45L135.123 302.619ZM125.617 255.146L124.939 254.619C124.786 254.816 124.726 255.07 124.775 255.314L125.617 255.146ZM134.421 302.734L134.282 301.887C134.038 301.926 133.823 302.07 133.692 302.279C133.561 302.489 133.527 302.745 133.599 302.982L134.421 302.734ZM134.984 352.509L134.232 352.096C134.152 352.241 134.116 352.406 134.128 352.571L134.984 352.509ZM135.881 364.871L136.739 364.879C136.74 364.856 136.739 364.832 136.737 364.809L135.881 364.871ZM135.417 418.123L136.274 418.16C136.275 418.15 136.275 418.14 136.275 418.131L135.417 418.123ZM129.455 556.391L128.597 556.354C128.587 556.593 128.677 556.826 128.845 556.996C129.014 557.166 129.245 557.257 129.484 557.249L129.455 556.391ZM264.474 551.699L264.504 552.557C264.75 552.549 264.98 552.436 265.136 552.246C265.293 552.057 265.36 551.809 265.322 551.567L264.474 551.699ZM240.705 399.854L241.553 399.721C241.551 399.704 241.547 399.687 241.544 399.67L240.705 399.854ZM232.325 361.687L233.163 361.503C233.156 361.472 233.148 361.441 233.138 361.412L232.325 361.687ZM219.339 323.344L220.153 323.068C220.143 323.041 220.133 323.015 220.121 322.989L219.339 323.344ZM204.766 291.238L205.548 290.883C205.387 290.53 205.01 290.328 204.627 290.391L204.766 291.238ZM199.254 292.139L198.431 292.383C198.554 292.797 198.966 293.055 199.392 292.986L199.254 292.139ZM187.076 251.201L187.899 250.956C187.833 250.734 187.679 250.548 187.474 250.44L187.076 251.201ZM175.939 245.376L176.337 244.615C176.03 244.455 175.657 244.494 175.391 244.716C175.125 244.937 175.017 245.296 175.118 245.627L175.939 245.376ZM190.681 293.54L190.819 294.387C191.064 294.347 191.279 294.203 191.41 293.993C191.541 293.782 191.574 293.525 191.502 293.288L190.681 293.54ZM146.061 300.831L145.221 301.01C145.317 301.458 145.747 301.752 146.199 301.679L146.061 300.831ZM134.016 244.333L134.856 244.154C134.786 243.827 134.534 243.571 134.208 243.496C133.882 243.421 133.543 243.542 133.338 243.806L134.016 244.333ZM135.965 302.45L126.459 254.977L124.775 255.314L134.282 302.787L135.965 302.45ZM134.559 303.581L135.262 303.466L134.985 301.772L134.282 301.887L134.559 303.581ZM135.737 352.922C140.547 344.156 140.364 331.465 139.055 321.134C138.396 315.938 137.444 311.281 136.657 307.923C136.264 306.243 135.911 304.887 135.656 303.95C135.529 303.481 135.426 303.116 135.354 302.868C135.319 302.745 135.291 302.65 135.272 302.585C135.263 302.553 135.255 302.529 135.25 302.512C135.248 302.504 135.246 302.497 135.245 302.493C135.244 302.491 135.243 302.489 135.243 302.488C135.243 302.487 135.243 302.486 135.243 302.486C135.242 302.486 135.242 302.485 134.421 302.734C133.599 302.982 133.599 302.982 133.599 302.982C133.599 302.982 133.599 302.982 133.599 302.983C133.599 302.984 133.6 302.985 133.6 302.987C133.601 302.99 133.603 302.996 133.605 303.003C133.61 303.018 133.616 303.041 133.625 303.071C133.643 303.132 133.67 303.223 133.704 303.343C133.774 303.583 133.874 303.94 133.999 304.4C134.249 305.32 134.597 306.657 134.986 308.315C135.763 311.631 136.702 316.228 137.351 321.35C138.657 331.653 138.756 343.85 134.232 352.096L135.737 352.922ZM136.737 364.809L135.841 352.447L134.128 352.571L135.025 364.933L136.737 364.809ZM136.275 418.131L136.739 364.879L135.023 364.864L134.558 418.116L136.275 418.131ZM130.312 556.428L136.274 418.16L134.559 418.086L128.597 556.354L130.312 556.428ZM264.444 550.842L129.425 555.533L129.484 557.249L264.504 552.557L264.444 550.842ZM239.857 399.987L263.626 551.832L265.322 551.567L241.553 399.721L239.857 399.987ZM231.486 361.871L239.867 400.038L241.544 399.67L233.163 361.503L231.486 361.871ZM218.526 323.619L231.512 361.962L233.138 361.412L220.153 323.068L218.526 323.619ZM203.984 291.593L218.558 323.698L220.121 322.989L205.548 290.883L203.984 291.593ZM199.392 292.986L204.904 292.085L204.627 290.391L199.115 291.291L199.392 292.986ZM200.077 291.894L187.899 250.956L186.253 251.446L198.431 292.383L200.077 291.894ZM187.474 250.44L176.337 244.615L175.541 246.137L186.678 251.962L187.474 250.44ZM175.939 245.376C175.118 245.627 175.118 245.628 175.119 245.628C175.119 245.628 175.119 245.628 175.119 245.629C175.119 245.63 175.12 245.631 175.12 245.633C175.121 245.636 175.123 245.642 175.125 245.649C175.129 245.663 175.136 245.684 175.144 245.712C175.161 245.768 175.187 245.851 175.221 245.961C175.288 246.18 175.387 246.504 175.515 246.923C175.771 247.76 176.144 248.978 176.61 250.498C177.54 253.538 178.841 257.788 180.323 262.629C183.287 272.31 186.972 284.35 189.86 293.791L191.502 293.288C188.614 283.848 184.928 271.807 181.965 262.126C180.483 257.286 179.182 253.035 178.251 249.995C177.786 248.475 177.413 247.257 177.157 246.42C177.028 246.001 176.929 245.677 176.862 245.458C176.829 245.349 176.803 245.265 176.786 245.209C176.777 245.181 176.771 245.16 176.767 245.146C176.764 245.139 176.763 245.134 176.762 245.13C176.761 245.128 176.761 245.127 176.761 245.126C176.76 245.126 176.76 245.125 176.76 245.125C176.76 245.125 176.76 245.125 175.939 245.376ZM146.199 301.679L190.819 294.387L190.543 292.692L145.923 299.984L146.199 301.679ZM133.177 244.512L145.221 301.01L146.901 300.652L134.856 244.154L133.177 244.512ZM126.295 255.673L134.694 244.859L133.338 243.806L124.939 254.619L126.295 255.673Z" fill="black"/>
<g clip-path="url(#clip1_1979_18513)">
<path d="M240.774 445.844C240.788 446.037 218.725 447.803 191.613 449.769C164.502 451.736 142.4 453.173 142.386 452.981C142.372 452.789 164.436 451.022 191.561 449.055C218.687 447.087 240.76 445.652 240.774 445.844Z" fill="white"/>
<path d="M241.609 421.449C241.624 421.655 220.056 423.371 193.427 425.303C166.798 427.234 145.126 428.654 145.111 428.448C145.096 428.242 166.678 426.525 193.375 424.588C220.073 422.652 241.595 421.256 241.609 421.449Z" fill="white"/>
<path d="M239.882 397.649C239.897 397.855 217.446 399.635 189.741 401.645C162.036 403.654 139.55 405.133 139.535 404.927C139.52 404.721 161.971 402.941 189.689 400.93C217.408 398.92 239.868 397.456 239.882 397.649Z" fill="white"/>
<path d="M221.089 377.042C221.104 377.248 203.302 378.691 181.337 380.284C159.372 381.878 141.535 383.019 141.52 382.813C141.505 382.607 159.306 381.164 181.285 379.57C203.264 377.976 221.075 376.85 221.089 377.042Z" fill="white"/>
<path d="M221.441 354.659C221.455 354.851 204.717 356.231 184.035 357.731C163.352 359.231 146.591 360.282 146.577 360.089C146.563 359.897 163.314 358.516 183.983 357.017C204.651 355.518 221.427 354.467 221.441 354.659Z" fill="white"/>
<path d="M219.43 332.449C219.444 332.642 203.216 333.984 183.197 335.436C163.177 336.889 146.926 337.902 146.912 337.709C146.898 337.517 163.111 336.175 183.145 334.722C203.178 333.269 219.412 332.202 219.43 332.449Z" fill="white"/>
<path d="M216.899 313.799C216.913 313.991 200.94 315.219 181.243 316.523C161.545 317.828 145.564 318.738 145.55 318.546C145.536 318.354 161.494 317.127 181.205 315.808C200.915 314.489 216.885 313.606 216.899 313.799Z" fill="white"/>
</g>
<path d="M199.632 202.064L196.128 153.751C196.128 153.751 189.287 129.003 158.496 130.605C127.706 132.208 126.39 157.533 126.39 157.533C127.261 169.551 131.556 176.024 136.532 179.34C131.116 176.595 123.079 174.696 121.937 183.101C120.621 192.783 131.258 195.67 136.742 195.903C142.323 217.196 139.457 233.34 137.327 238.751C143.074 248.426 160.521 245.479 168.526 242.796L167.389 227.109C201.092 225.674 200.451 213.358 199.632 202.064Z" fill="#F5B896" stroke="black" stroke-width="2.39054" stroke-linejoin="round"/>
<path d="M136.631 176.975L135.921 167.187C169.193 164.774 189.504 157.245 195.5 153.783L196.155 162.818C189.708 169.341 153.786 174.974 136.631 176.975Z" fill="#DADDFD" stroke="black" stroke-width="2.39054" stroke-linecap="round" stroke-linejoin="round"/>
<path d="M196.037 152.482C188.244 158.094 151.125 165.201 136.485 166.263L138.787 180.603L129.639 176.221C124.364 173.071 122.811 163.261 122.444 155.298C116.843 156.335 104.157 155.363 105.25 170.421C106.251 184.225 126.54 211.767 114.547 229.037C105.634 241.871 78.9164 230.57 73.9814 226.302C76.1032 226.569 93.9594 223.465 93.0127 210.415C91.6929 192.219 66.267 180.817 79.0597 157.183C90.3126 136.394 110.416 140.192 124.362 146.959C126.257 144.089 129.271 127.68 153.433 130.343C156.621 130.694 159.434 126.123 171.355 125.259C183.277 124.394 188.295 131.897 195.309 142.443C199.141 148.206 204.593 148.708 196.037 152.482Z" fill="black" stroke="black" stroke-width="2.39054" stroke-linecap="round" stroke-linejoin="round"/>
<path d="M166.762 227.154C162.351 227.273 155.035 226.49 152.824 223.013C152.729 222.841 152.638 222.672 152.549 222.509C152.629 222.683 152.721 222.851 152.824 223.013C156.353 229.436 163.873 241.519 167.854 242.213L166.762 227.154Z" fill="black" stroke="black" stroke-width="2.39054" stroke-linecap="round" stroke-linejoin="round"/>
<path d="M173.62 194.371C174.354 191.14 177.568 189.116 180.799 189.85C184.029 190.583 186.054 193.797 185.32 197.028C184.885 198.942 183.58 200.432 181.917 201.177" stroke="black" stroke-width="1.79964" stroke-linecap="round" stroke-linejoin="round"/>
<path d="M172.041 181.365C169.816 179.023 164.109 178.514 161.905 183.311" stroke="black" stroke-width="1.79964" stroke-linecap="round" stroke-linejoin="round"/>
<path d="M184.549 179.425C185.728 177.939 189.665 176.947 192.042 178.835" stroke="black" stroke-width="1.79964" stroke-linecap="round" stroke-linejoin="round"/>
<path d="M159.685 194.153C159.434 198.983 162.384 208.138 169.362 211.481C176.341 214.824 183.298 212.89 186.757 210.835" stroke="black" stroke-width="1.79964" stroke-linecap="round" stroke-linejoin="round"/>
<path d="M165.384 189.47C165.788 190.749 166.648 192.144 168.656 191.811C170.528 191.501 171.402 189.818 171.092 187.946" stroke="black" stroke-width="1.79964" stroke-linecap="round" stroke-linejoin="round"/>
<path d="M185.797 187.147C186.142 188.444 186.938 189.877 188.959 189.636C190.843 189.411 191.793 187.769 191.568 185.885" stroke="black" stroke-width="1.79964" stroke-linecap="round" stroke-linejoin="round"/>
<g clip-path="url(#clip2_1979_18513)">
<path d="M283.906 404.839L283.869 404.816C283.769 404.753 283.621 404.659 283.426 404.537C283.035 404.291 282.459 403.93 281.717 403.469C280.232 402.547 278.082 401.223 275.426 399.619C270.114 396.411 262.778 392.084 254.683 387.609C246.587 383.133 237.744 378.516 229.414 374.722C221.065 370.919 213.308 367.979 207.362 366.812L283.906 404.839ZM283.906 404.839C283.919 404.852 283.933 404.866 283.948 404.881C284.04 404.971 284.175 405.101 284.35 405.267C284.701 405.599 285.213 406.074 285.868 406.652C287.175 407.807 289.054 409.378 291.344 411.047C295.904 414.37 302.184 418.147 308.89 419.739C317.858 421.868 324.771 419.214 329.412 416.033C331.723 414.448 333.473 412.733 334.646 411.414C335.234 410.753 335.68 410.188 335.981 409.784C336.132 409.582 336.247 409.42 336.326 409.305C336.366 409.248 336.397 409.203 336.418 409.171L336.444 409.132L336.451 409.12L336.454 409.116L336.455 409.115C336.455 409.114 336.456 409.114 335.404 408.435L336.456 409.114L337.433 407.599L335.672 407.213L290.789 397.381L290.358 397.138C289.966 396.917 289.384 396.588 288.624 396.159C287.104 395.301 284.873 394.04 282.028 392.429C276.338 389.207 268.193 384.588 258.376 378.995L257.757 380.082L258.376 378.995C244.428 371.048 220.1 361.426 209.707 357.983L209.706 357.982C208.993 357.747 208.234 357.691 207.494 357.819C206.755 357.947 206.058 358.255 205.466 358.716C204.874 359.177 204.405 359.777 204.1 360.462C203.823 361.083 203.689 361.758 203.706 362.436L203.701 362.455L203.712 362.643C203.773 363.644 204.165 364.596 204.825 365.35L205.736 364.554L204.825 365.35C205.485 366.105 206.377 366.619 207.361 366.812L283.906 404.839Z" fill="#E9EBFF" stroke="black" stroke-width="2.50271"/>
<path d="M334.17 408.074C334.372 410.065 331.843 411.174 329.856 411.059C327.869 410.944 325.711 410.323 324.008 411.352C323.38 411.819 322.859 412.416 322.482 413.102C322.105 413.788 321.881 414.548 321.824 415.329C321.734 416.89 321.549 418.444 321.27 419.982C321.05 421.02 320.448 421.938 319.584 422.554C317.873 423.617 315.462 422.532 314.482 420.78C313.644 418.931 313.446 416.854 313.921 414.88C314.242 413.478 314.373 412.039 314.31 410.602C314.268 409.881 314.033 409.184 313.631 408.584C313.229 407.984 312.673 407.503 312.022 407.19C310.423 406.582 308.668 407.476 306.953 407.647C306.068 407.681 305.186 407.522 304.368 407.183C303.55 406.843 302.815 406.331 302.213 405.68C301.612 405.03 301.159 404.257 300.884 403.415C300.61 402.572 300.522 401.681 300.625 400.801L334.17 408.074Z" fill="#FFCA00" stroke="black" stroke-width="2.49923" stroke-linecap="round" stroke-linejoin="round"/>
<path d="M317.844 362.27C317.844 362.27 317.398 362.643 316.73 363.455C315.8 364.616 315.143 365.97 314.806 367.419C314.298 369.567 314.555 371.825 315.531 373.804C316.158 374.944 316.844 376.051 317.587 377.119C318.403 378.283 318.95 379.613 319.187 381.015C319.32 382.446 318.929 383.877 318.086 385.041C317.309 386.108 316.375 387.05 315.315 387.836C314.323 388.643 313.328 389.25 312.414 389.866C311.563 390.44 310.757 391.078 310.004 391.775C309.198 392.395 308.538 393.185 308.071 394.089C307.604 394.993 307.342 395.988 307.302 397.005C307.302 397.005 307.336 396.867 307.299 396.585C307.301 396.174 307.358 395.766 307.468 395.37C307.918 393.932 308.762 392.649 309.905 391.667C310.656 390.959 311.461 390.31 312.312 389.726C313.231 389.09 314.223 388.451 315.195 387.681C316.231 386.903 317.144 385.973 317.905 384.924C318.727 383.787 319.106 382.39 318.973 380.994C318.745 379.623 318.208 378.322 317.402 377.189C316.665 376.112 315.984 374.996 315.364 373.847C314.368 371.83 314.121 369.525 314.667 367.343C315.022 365.878 315.711 364.515 316.68 363.359C317.026 362.954 317.417 362.588 317.844 362.27Z" fill="#BABECB" stroke="black" stroke-width="2.49923" stroke-linecap="round" stroke-linejoin="round"/>
<path d="M327.02 363.995C327.02 363.995 326.571 364.379 325.903 365.191C324.978 366.35 324.325 367.702 323.992 369.147C323.472 371.297 323.728 373.562 324.715 375.542C325.266 376.639 326.034 377.705 326.76 378.855C327.584 380.011 328.133 381.34 328.363 382.741C328.493 384.174 328.105 385.607 327.27 386.779C326.489 387.843 325.555 388.785 324.498 389.574C323.497 390.379 322.504 390.976 321.598 391.604C320.746 392.176 319.938 392.81 319.18 393.5C318.06 394.46 317.217 395.702 316.738 397.097C316.597 397.622 316.516 398.161 316.495 398.704C316.481 398.563 316.477 398.422 316.482 398.282C316.487 397.874 316.547 397.47 316.659 397.078C317.109 395.639 317.949 394.352 319.088 393.363C319.844 392.662 320.651 392.017 321.503 391.435C322.411 390.796 323.404 390.157 324.386 389.39C325.418 388.61 326.329 387.68 327.086 386.63C327.908 385.494 328.29 384.099 328.163 382.703C327.928 381.336 327.391 380.04 326.59 378.908C325.824 377.748 325.106 376.694 324.542 375.563C323.546 373.543 323.3 371.234 323.848 369.049C324.207 367.589 324.895 366.23 325.858 365.075C326.208 364.677 326.597 364.315 327.02 363.995Z" fill="#BABECB" stroke="black" stroke-width="2.49923" stroke-linecap="round" stroke-linejoin="round"/>
</g>
<path d="M224.961 354.241L190.841 351.374L187.222 369.003L206.257 374.478L208.487 376.238L209.226 378.096L207.875 379.417C207.395 379.519 206.97 379.795 206.683 380.193C206.397 380.591 206.271 381.081 206.329 381.566L206.458 382.187C206.458 382.187 209.631 383.455 211.465 382.963C212.585 382.668 213.652 382.196 214.621 381.562L216.46 377.96C216.46 377.96 220.474 377.563 221.246 375.561L227.385 374.442L227.404 379.572C227.404 379.572 228.832 384.072 232.505 383.732L234.095 373.008L232.891 365.227C232.891 365.227 226.802 354.534 224.961 354.241Z" fill="#F5B896" stroke="black" stroke-width="2.08855" stroke-linecap="round" stroke-linejoin="round"/>
<path d="M211.603 368.954C211.589 368.887 212.217 369.122 212.994 369.735C213.99 370.566 214.8 371.596 215.373 372.757C215.957 373.916 216.288 375.185 216.343 376.48C216.379 377.472 216.22 378.067 216.133 378.057C215.859 376.348 215.389 374.675 214.732 373.073C213.86 371.579 212.81 370.196 211.603 368.954Z" stroke="black" stroke-width="2.08855" stroke-linecap="round" stroke-linejoin="round"/>
<path d="M216.856 364.289C216.788 364.303 217.685 363.723 218.999 364.336C219.743 364.696 220.357 365.276 220.756 365.997C221.2 366.857 221.493 367.785 221.622 368.743C221.94 370.423 222.02 372.139 221.86 373.842C221.684 375.172 221.285 375.902 221.209 375.876C221.208 375.184 221.253 374.493 221.345 373.808C221.355 372.149 221.21 370.494 220.912 368.862C220.801 367.98 220.551 367.12 220.172 366.315C219.859 365.685 219.372 365.156 218.768 364.792C218.178 364.48 217.524 364.307 216.856 364.289Z" fill="#F5B896" stroke="black" stroke-width="2.08855" stroke-linecap="round" stroke-linejoin="round"/>
<path d="M221.979 358.976C222.749 359.38 223.43 359.932 223.983 360.599C224.538 361.16 225.19 361.854 225.825 362.665C226.231 363.091 226.547 363.595 226.753 364.146C226.945 364.728 227.07 365.329 227.125 365.939C227.537 368.842 227.549 371.788 227.161 374.695C226.958 374.737 226.904 370.796 226.407 366.018C226.354 365.459 226.239 364.907 226.066 364.373C225.882 363.915 225.618 363.493 225.285 363.128C224.651 362.318 224.036 361.601 223.53 361.003C222.955 360.374 222.436 359.695 221.979 358.976Z" fill="#F5B896" stroke="black" stroke-width="2.08855" stroke-linecap="round" stroke-linejoin="round"/>
<path d="M113.47 372.358C113.47 372.358 98.9404 366.609 103.05 349.37C107.16 332.132 109.073 328.205 109.073 328.205L138.84 336.855L137.34 342.427L195.01 352.097L191.117 360.577L187.225 369.057C187.225 369.057 139.37 378.983 113.47 372.358Z" fill="#F5B896" stroke="black" stroke-width="2.08855" stroke-linecap="round" stroke-linejoin="round"/>
<path d="M188.874 352.281L197.363 353.119L193.78 368.414L183.899 368.384L188.874 352.281Z" fill="#F5B896"/>
<path d="M278.489 214.886L278.489 214.886L264.412 334.764L264.771 334.807L264.412 334.765C264.077 337.621 264.89 340.494 266.672 342.751C268.454 345.008 271.059 346.466 273.915 346.803L321.724 352.436C323.139 352.602 324.574 352.488 325.945 352.1C327.316 351.712 328.598 351.058 329.716 350.175C330.835 349.292 331.768 348.197 332.464 346.952C333.159 345.708 333.603 344.339 333.769 342.924L347.846 223.049C348.012 221.635 347.898 220.201 347.511 218.831C347.123 217.46 346.47 216.18 345.587 215.062C344.705 213.944 343.611 213.011 342.367 212.316C341.124 211.621 339.757 211.178 338.342 211.011C338.342 211.011 338.342 211.011 338.342 211.011L290.534 205.378L290.534 205.378C287.676 205.042 284.802 205.855 282.543 207.638C280.284 209.421 278.826 212.028 278.489 214.886Z" fill="black" stroke="black" stroke-width="0.724009"/>
<path d="M320.253 350.027L272.445 344.394C269.684 344.068 267.166 342.66 265.443 340.478C263.721 338.296 262.935 335.519 263.258 332.757L277.336 212.879C277.661 210.116 279.071 207.596 281.254 205.873C283.438 204.149 286.216 203.364 288.979 203.688L336.787 209.322C338.154 209.482 339.477 209.911 340.678 210.583C341.88 211.254 342.937 212.156 343.79 213.237C344.643 214.317 345.275 215.555 345.65 216.88C346.024 218.205 346.134 219.591 345.974 220.958L331.897 340.832C331.736 342.201 331.307 343.524 330.635 344.727C329.963 345.929 329.06 346.988 327.979 347.841C326.898 348.695 325.659 349.328 324.334 349.703C323.008 350.078 321.622 350.188 320.253 350.027Z" fill="#568DF4" stroke="black" stroke-width="0.640668" stroke-linecap="round" stroke-linejoin="round"/>
<path d="M335.932 212.632L326.662 211.537C326.05 211.48 325.44 211.667 324.966 212.059C324.492 212.451 324.193 213.015 324.134 213.626L323.944 215.307C323.916 215.61 323.827 215.905 323.685 216.174C323.542 216.443 323.348 216.681 323.113 216.875C322.879 217.07 322.608 217.215 322.317 217.305C322.026 217.394 321.72 217.426 321.417 217.397L303.351 215.268C302.742 215.182 302.192 214.858 301.822 214.367C301.451 213.876 301.291 213.258 301.375 212.649L301.566 210.965C301.65 210.356 301.49 209.738 301.12 209.247C300.749 208.756 300.199 208.432 299.591 208.346L296.329 207.977L288.217 207.025C287.259 206.912 286.288 206.989 285.36 207.251C284.431 207.513 283.564 207.956 282.807 208.553C282.049 209.151 281.417 209.892 280.946 210.734C280.475 211.576 280.175 212.502 280.062 213.46L266.321 330.469C266.21 331.428 266.29 332.399 266.555 333.327C266.82 334.255 267.265 335.122 267.865 335.878C268.464 336.634 269.207 337.264 270.051 337.733C270.894 338.201 271.822 338.499 272.781 338.609L320.494 344.231C321.452 344.344 322.422 344.267 323.351 344.005C324.279 343.743 325.146 343.3 325.903 342.702C326.66 342.105 327.292 341.364 327.762 340.522C328.233 339.68 328.533 338.753 328.645 337.795L342.381 220.801C342.496 219.841 342.42 218.867 342.158 217.936C341.896 217.005 341.453 216.135 340.854 215.376C340.254 214.617 339.511 213.984 338.667 213.513C337.822 213.042 336.893 212.743 335.932 212.632Z" fill="#DADDFD"/>
<path d="M336.006 230.213L284.857 223.927C283.682 223.783 282.611 224.616 282.462 225.79L269.277 329.847C269.126 331.036 269.977 332.118 271.167 332.253L322.959 338.113C324.132 338.246 325.192 337.408 325.334 336.236L337.878 232.605C338.02 231.428 337.183 230.358 336.006 230.213Z" fill="#FBFCFD"/>
<circle cx="275.02" cy="281.931" r="1.6121" transform="rotate(6.45591 275.02 281.931)" fill="#BCBFE3"/>
<ellipse cx="331.424" cy="289.393" rx="1.53375" ry="1.53394" transform="rotate(6.45591 331.424 289.393)" fill="#BCBFE3"/>
<line y1="-0.955683" x2="50.5601" y2="-0.955683" transform="matrix(0.991159 0.132676 -0.13267 0.99116 277.948 283.509)" stroke="#BCBFE3" stroke-width="1.91137" stroke-dasharray="3.82 3.82"/>
<ellipse cx="311.789" cy="229.487" rx="10.2403" ry="10.1876" transform="rotate(6.45591 311.789 229.487)" fill="#DFE1F2"/>
<ellipse cx="311.279" cy="228.899" rx="9.66096" ry="9.35546" transform="rotate(6.45591 311.279 228.899)" fill="#FBFCFD"/>
<g clip-path="url(#clip3_1979_18513)">
<path d="M315.73 224.153L308.046 223.283C307.791 223.254 307.535 223.327 307.335 223.486C307.134 223.644 307.006 223.875 306.977 224.128L306.646 227.052C306.637 227.136 306.661 227.221 306.715 227.287C306.768 227.354 306.845 227.397 306.93 227.406L307.293 227.447C307.614 227.484 307.852 227.761 307.828 228.066C307.823 228.143 307.801 228.218 307.766 228.287C307.73 228.356 307.681 228.417 307.621 228.466C307.561 228.516 307.491 228.552 307.417 228.574C307.342 228.596 307.263 228.603 307.186 228.594L306.802 228.551C306.717 228.541 306.632 228.565 306.565 228.618C306.498 228.671 306.455 228.748 306.446 228.832L306.115 231.756C306.086 232.009 306.16 232.263 306.32 232.462C306.48 232.662 306.713 232.79 306.967 232.819L311.946 233.382L312.333 234.046C312.338 234.054 312.344 234.062 312.349 234.07L312.355 234.078C312.565 234.371 312.848 234.772 313.464 234.841C313.67 234.863 313.878 234.843 314.074 234.78C314.271 234.718 314.453 234.615 314.607 234.479C314.848 234.27 314.995 233.976 315.018 233.659C315.204 233.609 315.37 233.504 315.495 233.358C315.621 233.213 315.699 233.033 315.721 232.843L316.584 225.215C316.598 225.09 316.587 224.963 316.552 224.842C316.517 224.72 316.458 224.607 316.378 224.509C316.299 224.41 316.201 224.328 316.09 224.267C315.979 224.206 315.857 224.167 315.73 224.153Z" fill="#303778"/>
<path d="M312.883 233.713C313.084 233.996 313.225 234.17 313.535 234.206C313.65 234.218 313.767 234.207 313.877 234.172C313.987 234.137 314.088 234.08 314.175 234.003C314.237 233.951 314.288 233.885 314.323 233.811C314.358 233.738 314.376 233.657 314.377 233.576C314.37 233.007 314.175 230.227 314.051 228.489C313.735 228.934 313.304 229.287 312.803 229.51C312.303 229.733 311.751 229.818 311.205 229.757C311.198 229.757 311.191 229.756 311.184 229.755C311.083 229.736 310.947 229.737 310.867 229.844C310.792 229.944 310.79 230.102 310.862 230.248L312.883 233.713Z" fill="#868AC3"/>
<path d="M307.049 229.222L306.754 231.829C306.745 231.913 306.769 231.998 306.823 232.064C306.876 232.13 306.953 232.173 307.038 232.183L311.544 232.693L310.3 230.56L310.292 230.545C310.103 230.176 310.125 229.761 310.349 229.461C310.557 229.184 310.906 229.057 311.286 229.122C311.603 229.158 311.923 229.13 312.229 229.042C312.534 228.953 312.819 228.805 313.066 228.606C313.316 228.407 313.523 228.16 313.675 227.881C313.827 227.601 313.921 227.294 313.951 226.977C314.081 225.679 313.105 224.5 311.776 224.349L307.974 223.919C307.889 223.909 307.803 223.934 307.737 223.986C307.67 224.039 307.627 224.116 307.617 224.2L307.322 226.807L307.365 226.812C308.024 226.886 308.521 227.471 308.471 228.116C308.459 228.279 308.414 228.438 308.338 228.583C308.262 228.728 308.158 228.856 308.031 228.96C307.904 229.064 307.758 229.142 307.6 229.188C307.442 229.235 307.277 229.249 307.113 229.23L307.049 229.222Z" fill="#DFE1F2"/>
</g>
<path d="M315.502 276.625L309.682 275.922L310.107 271.907L315.927 272.609L316.565 266.587L320.445 267.055L319.808 273.078C319.695 274.143 319.178 275.115 318.371 275.78C317.563 276.445 316.532 276.749 315.502 276.625Z" fill="#515BB2"/>
<path d="M290.686 269.564L291.323 263.541L295.204 264.009L294.566 270.032L300.387 270.735L299.962 274.75L294.141 274.047C293.112 273.923 292.17 273.381 291.522 272.54C290.874 271.699 290.573 270.628 290.686 269.564Z" fill="#515BB2"/>
<path d="M296.269 253.967L292.389 253.498L293.026 247.476C293.139 246.411 293.656 245.439 294.463 244.774C295.271 244.109 296.302 243.805 297.332 243.929L303.152 244.632L302.728 248.647L296.907 247.944L296.269 253.967Z" fill="#515BB2"/>
<path d="M318.264 250.52L312.443 249.818L312.868 245.802L318.689 246.505C319.718 246.629 320.66 247.172 321.308 248.012C321.956 248.853 322.257 249.924 322.144 250.989L321.507 257.011L317.626 256.543L318.264 250.52Z" fill="#515BB2"/>
<path d="M308.118 262.512L304.236 262.043L304.661 258.027L308.543 258.496L308.118 262.512Z" fill="#515BB2"/>
<path d="M311.639 267.004L307.758 266.535L308.183 262.519L312.064 262.988L311.639 267.004Z" fill="#515BB2"/>
<path d="M303.839 266.061L299.958 265.593L300.383 261.577L304.264 262.045L303.839 266.061Z" fill="#515BB2"/>
<path d="M312.458 258.979L308.577 258.51L309.002 254.494L312.883 254.963L312.458 258.979Z" fill="#515BB2"/>
<path d="M304.682 258.037L300.801 257.568L301.226 253.553L305.107 254.021L304.682 258.037Z" fill="#515BB2"/>
<path d="M281.23 297.889L281.834 293.781L290.591 295.484L290.188 298.222L281.23 297.889Z" fill="#BCBFE3"/>
<path d="M279.795 315.046L280.168 311.701L288.909 314.013L288.661 316.243L279.795 315.046Z" fill="#BCBFE3"/>
<path d="M280.689 304.867L281.232 301.175L295.43 301.879L295.381 304.876L280.689 304.867Z" fill="#BCBFE3"/>
<path d="M279.043 322.855L279.426 319.132L290.986 320.426L290.994 323.464L279.043 322.855Z" fill="#BCBFE3"/>
<path d="M308.233 301.076L308.677 297.812L313.126 298.614L312.831 300.79L308.233 301.076Z" fill="#BCBFE3"/>
<path d="M306.687 319.709L307.034 316.357L319.133 319.312L318.902 321.546L306.687 319.709Z" fill="#BCBFE3"/>
<path d="M307.666 308.376L308.08 305.332L321.9 306.132L321.945 308.609L307.666 308.376Z" fill="#BCBFE3"/>
<path d="M305.953 327.978L306.31 324.248L316.253 324.85L316.237 327.875L305.953 327.978Z" fill="#BCBFE3"/>
<path d="M326.845 307.769C328.357 310.218 334.544 307.526 338.561 305.046C342.579 302.565 342.509 300.589 341.395 298.785C340.282 296.982 338.547 296.034 334.529 298.514C330.511 300.995 325.333 305.32 326.845 307.769Z" fill="#F5B896" stroke="black" stroke-width="2.49923" stroke-linejoin="round"/>
<path d="M330.762 313.681C332.274 316.13 338.461 313.438 342.478 310.957C346.496 308.476 346.426 306.501 345.312 304.697C344.199 302.894 342.464 301.945 338.446 304.426C334.428 306.907 329.25 311.232 330.762 313.681Z" fill="#F5B896" stroke="black" stroke-width="2.49923" stroke-linejoin="round"/>
<path d="M333.375 319.855C334.888 322.304 341.074 319.612 345.092 317.131C349.11 314.65 349.039 312.674 347.925 310.871C346.812 309.067 345.077 308.119 341.059 310.6C337.041 313.081 331.863 317.405 333.375 319.855Z" fill="#F5B896" stroke="black" stroke-width="2.49923" stroke-linejoin="round"/>
</g>
</g>
<path d="M317.064 117.892L362.139 109.368C367.018 108.445 373.529 113.229 374.884 120.394C376.239 127.558 371.925 134.389 367.046 135.312L317.691 144.646C312.812 145.568 308.498 152.4 309.853 159.564C311.208 166.728 317.719 171.513 322.598 170.59L395.78 156.75" stroke="black" stroke-width="2.60662"/>
<path d="M437.153 117.303L442.211 126.471C436.162 129.566 433.851 136.775 437.049 142.573C440.247 148.37 447.743 150.56 453.793 147.465L458.851 156.634C459.326 157.495 459.001 158.556 458.126 159.003L410.082 183.585L407.612 179.109L404.474 180.714L406.944 185.191L384.099 196.879C383.224 197.327 382.13 196.992 381.655 196.131L376.597 186.962L365.016 165.969L359.957 156.8C359.483 155.939 359.807 154.879 360.682 154.431L383.527 142.742L385.996 147.218L389.134 145.613L386.665 141.137L434.709 116.555C435.584 116.107 436.678 116.442 437.153 117.303Z" fill="black"/>
<circle cx="418.819" cy="146.479" r="12.4583" transform="rotate(-27.9832 418.819 146.479)" fill="#F6F7FA"/>
<path d="M437.801 114.689L442.81 123.77C436.874 126.807 434.633 133.931 437.806 139.681C440.978 145.431 448.361 147.63 454.298 144.593L459.307 153.674C459.782 154.535 459.458 155.596 458.583 156.043L411.465 180.151L409.016 175.711L405.937 177.286L408.386 181.726L385.998 193.181C385.123 193.629 384.029 193.294 383.554 192.433L378.544 183.352L367.057 162.53L362.047 153.448C361.572 152.588 361.897 151.527 362.772 151.079L385.16 139.624L387.609 144.064L390.689 142.488L388.239 138.049L435.357 113.941C436.232 113.494 437.326 113.828 437.801 114.689Z" fill="#F6F7FA" stroke="black" stroke-width="1.83681"/>
<path d="M414.374 137.222C412.232 138.177 410.443 139.742 409.232 141.72C408.022 143.698 407.444 145.999 407.573 148.333C407.701 150.667 408.53 152.929 409.954 154.832C411.378 156.736 413.334 158.195 415.574 159.027C417.814 159.858 420.237 160.024 422.538 159.503C424.838 158.982 426.913 157.798 428.498 156.1C430.084 154.403 431.11 152.268 431.447 149.966C431.784 147.663 431.416 145.297 430.389 143.167C429.01 140.312 426.55 138.084 423.547 136.969C420.545 135.855 417.246 135.946 414.374 137.222ZM425.006 150.802C425.158 151.12 425.178 151.481 425.061 151.806C424.943 152.131 424.698 152.393 424.379 152.536L423.416 152.965L423.74 153.638C423.881 153.918 423.92 154.234 423.851 154.534C423.783 154.834 423.611 155.099 423.365 155.285C423.207 155.399 423.025 155.476 422.831 155.51C422.637 155.545 422.437 155.537 422.245 155.486C422.053 155.436 421.873 155.344 421.719 155.217C421.566 155.091 421.442 154.933 421.356 154.756L421.01 154.038L420.048 154.467C419.869 154.546 419.674 154.585 419.477 154.58C419.279 154.576 419.084 154.528 418.905 154.441C418.726 154.354 418.568 154.229 418.443 154.076C418.317 153.923 418.227 153.745 418.179 153.555C418.109 153.252 418.146 152.938 418.285 152.664C418.423 152.39 418.655 152.174 418.941 152.053L422.023 150.678L421.101 148.763L417.973 150.158C417.654 150.3 417.287 150.31 416.953 150.186C416.619 150.063 416.346 149.815 416.193 149.497L414.118 145.188C413.965 144.871 413.945 144.51 414.063 144.184C414.18 143.859 414.425 143.597 414.744 143.455L415.707 143.025L415.383 142.353C415.242 142.073 415.202 141.756 415.271 141.456C415.339 141.155 415.511 140.89 415.759 140.705C415.916 140.591 416.099 140.515 416.292 140.48C416.486 140.445 416.686 140.453 416.879 140.504C417.071 140.555 417.25 140.646 417.404 140.773C417.558 140.899 417.682 141.057 417.767 141.234L418.113 141.952L419.076 141.523C419.254 141.444 419.449 141.405 419.647 141.409C419.845 141.413 420.04 141.46 420.219 141.547C420.399 141.635 420.557 141.759 420.682 141.913C420.808 142.066 420.898 142.244 420.946 142.434C421.016 142.737 420.978 143.052 420.839 143.326C420.7 143.599 420.468 143.815 420.183 143.938L417.1 145.312L418.023 147.227L421.151 145.832C421.47 145.69 421.837 145.68 422.17 145.804C422.504 145.928 422.777 146.175 422.93 146.493L425.006 150.802Z" fill="#515BB2"/>
<path d="M406.195 173.827L390.09 145.151" stroke="#BCBFE3" stroke-width="3.30045" stroke-dasharray="7.33 3.67"/>
<rect x="251.581" y="61.7455" width="4.59203" height="13.7761" rx="2.29602" transform="rotate(-31.0318 251.581 61.7455)" fill="white"/>
<rect x="260.689" y="41.8156" width="4.59203" height="13.7761" rx="2.29602" transform="rotate(-31.0318 260.689 41.8156)" fill="white"/>
<rect x="241.558" y="79.4661" width="4.59203" height="13.7761" rx="2.29602" transform="rotate(-31.0318 241.558 79.4661)" fill="white"/>
<circle cx="281.706" cy="76.4934" r="13.9517" transform="rotate(-39.7911 281.706 76.4934)" fill="black"/>
<circle cx="280.902" cy="73.121" r="14.8701" transform="rotate(-39.7911 280.902 73.121)" fill="#F6F7FA" stroke="black" stroke-width="1.83681"/>
<path d="M272.007 62.3964C269.887 64.1624 268.338 66.5175 267.556 69.1638C266.774 71.8101 266.795 74.6288 267.615 77.2635C268.435 79.8982 270.018 82.2305 272.164 83.9655C274.31 85.7005 276.922 86.7602 279.67 87.0107C282.418 87.2612 285.178 86.6913 287.602 85.3729C290.026 84.0545 292.005 82.0468 293.288 79.6039C294.571 77.161 295.101 74.3924 294.811 71.6483C294.52 68.9043 293.423 66.308 291.657 64.1877C289.286 61.3488 285.886 59.566 282.202 59.2302C278.519 58.8944 274.853 60.0331 272.007 62.3964ZM287.843 74.6269C288.106 74.9428 288.233 75.3503 288.196 75.7597C288.158 76.1691 287.96 76.547 287.644 76.8101L286.691 77.6038L287.249 78.2732C287.487 78.5504 287.622 78.901 287.633 79.2662C287.643 79.6315 287.528 79.9892 287.306 80.2795C287.162 80.459 286.98 80.6042 286.774 80.7048C286.567 80.8054 286.34 80.8587 286.11 80.8609C285.881 80.8631 285.653 80.8142 285.444 80.7177C285.236 80.6211 285.051 80.4794 284.904 80.3027L284.309 79.588L283.356 80.3817C283.179 80.5283 282.972 80.6339 282.75 80.6907C282.527 80.7476 282.295 80.7542 282.069 80.7103C281.844 80.6664 281.631 80.5729 281.446 80.4367C281.261 80.3005 281.109 80.1249 281 79.9226C280.834 79.5977 280.784 79.2253 280.86 78.8681C280.936 78.5109 281.133 78.1908 281.417 77.9617L284.469 75.4199L282.881 73.5141L279.784 76.0936C279.468 76.3567 279.061 76.4836 278.652 76.4462C278.242 76.4089 277.864 76.2105 277.601 75.8946L274.03 71.6065C273.766 71.2905 273.64 70.8831 273.677 70.4736C273.714 70.0642 273.913 69.6863 274.229 69.4232L275.181 68.6295L274.624 67.9601C274.385 67.6834 274.248 67.3327 274.238 66.9671C274.228 66.6016 274.344 66.2437 274.567 65.9538C274.711 65.7744 274.892 65.6291 275.099 65.5285C275.306 65.4279 275.532 65.3746 275.762 65.3724C275.992 65.3702 276.22 65.4191 276.428 65.5157C276.637 65.6122 276.821 65.754 276.968 65.9306L277.564 66.6453L278.517 65.8516C278.693 65.7045 278.9 65.5984 279.123 65.5412C279.346 65.484 279.578 65.477 279.804 65.5207C280.03 65.5645 280.243 65.6579 280.428 65.7942C280.613 65.9305 280.766 66.1062 280.875 66.3087C281.04 66.6344 281.089 67.0071 281.013 67.3644C280.937 67.7217 280.74 68.042 280.456 68.2716L277.404 70.8134L278.991 72.7192L282.088 70.1397C282.404 69.8766 282.812 69.7498 283.221 69.7871C283.631 69.8244 284.008 70.0228 284.271 70.3388L287.843 74.6269Z" fill="#FFCA00"/>
<rect x="232.755" y="93.5765" width="87.1202" height="59.664" rx="5.70842" transform="rotate(-15.745 232.755 93.5765)" fill="black" stroke="black" stroke-width="1.44358"/>
<rect x="233.925" y="88.6027" width="87.0976" height="59.2708" rx="7.11935" transform="rotate(-15.745 233.925 88.6027)" fill="#F6F7FC" stroke="black" stroke-width="1.83681"/>
<rect x="308.082" y="88.3825" width="19.9175" height="15.6225" rx="1.26401" transform="rotate(-15.745 308.082 88.3825)" fill="#515BB2" stroke="black" stroke-width="1.83681"/>
<ellipse cx="245.224" cy="59.8394" rx="13.9517" ry="14.1909" transform="rotate(-39.7911 245.224 59.8394)" fill="black"/>
<circle cx="244.266" cy="56.2851" r="14.8701" transform="rotate(-39.7911 244.266 56.2851)" fill="#F6F7FA" stroke="black" stroke-width="1.83681"/>
<path d="M235.373 45.5605C233.252 47.3265 231.703 49.6815 230.922 52.3278C230.14 54.9741 230.16 57.7929 230.98 60.4275C231.801 63.0622 233.384 65.3945 235.529 67.1295C237.675 68.8645 240.287 69.9243 243.035 70.1748C245.783 70.4253 248.543 69.8553 250.968 68.5369C253.392 67.2185 255.37 65.2109 256.653 62.768C257.936 60.325 258.466 57.5565 258.176 54.8124C257.885 52.0683 256.788 49.472 255.022 47.3518C252.651 44.5129 249.251 42.7301 245.567 42.3943C241.884 42.0585 238.218 43.1971 235.373 45.5605ZM251.208 57.7909C251.471 58.1068 251.598 58.5143 251.561 58.9238C251.524 59.3332 251.325 59.711 251.009 59.9742L250.056 60.7678L250.614 61.4373C250.852 61.7144 250.988 62.065 250.998 62.4303C251.008 62.7955 250.893 63.1533 250.671 63.4435C250.527 63.623 250.346 63.7683 250.139 63.8689C249.932 63.9694 249.706 64.0228 249.476 64.025C249.246 64.0272 249.018 63.9783 248.81 63.8817C248.601 63.7852 248.416 63.6434 248.269 63.4667L247.674 62.7521L246.721 63.5457C246.544 63.6924 246.337 63.7979 246.115 63.8548C245.892 63.9116 245.66 63.9183 245.435 63.8744C245.209 63.8305 244.996 63.737 244.812 63.6008C244.627 63.4645 244.474 63.2889 244.366 63.0867C244.199 62.7618 244.149 62.3893 244.225 62.0321C244.301 61.675 244.498 61.3548 244.782 61.1258L247.834 58.584L246.247 56.6782L243.15 59.2576C242.834 59.5208 242.426 59.6476 242.017 59.6103C241.607 59.573 241.229 59.3745 240.966 59.0586L237.395 54.7705C237.132 54.4546 237.005 54.0471 237.042 53.6377C237.079 53.2282 237.278 52.8504 237.594 52.5873L238.547 51.7936L237.989 51.1242C237.75 50.8475 237.614 50.4968 237.603 50.1312C237.593 49.7657 237.709 49.4077 237.932 49.1179C238.076 48.9384 238.258 48.7931 238.464 48.6926C238.671 48.592 238.898 48.5387 239.127 48.5364C239.357 48.5342 239.585 48.5832 239.793 48.6797C240.002 48.7763 240.187 48.918 240.334 49.0947L240.929 49.8094L241.882 49.0157C242.059 48.8685 242.266 48.7625 242.488 48.7053C242.711 48.648 242.944 48.641 243.169 48.6848C243.395 48.7285 243.608 48.8219 243.793 48.9582C243.978 49.0945 244.131 49.2703 244.24 49.4728C244.406 49.7984 244.454 50.1711 244.378 50.5285C244.302 50.8858 244.105 51.2061 243.821 51.4357L240.769 53.9774L242.357 55.8833L245.453 53.3038C245.769 53.0407 246.177 52.9138 246.586 52.9511C246.996 52.9885 247.374 53.1869 247.637 53.5028L251.208 57.7909Z" fill="#FFCA00"/>
<rect x="249.026" y="95.5757" width="9.34003" height="37.2202" rx="2.33587" transform="rotate(-15.8089 249.026 95.5757)" fill="#DADDFD"/>
<defs>
<clipPath id="clip0_1979_18513">
<rect width="339.021" height="655.626" fill="white" transform="translate(59.8281 107.878) rotate(-4.14868)"/>
</clipPath>
<clipPath id="clip1_1979_18513">
<rect width="109.243" height="222.813" fill="white" transform="translate(120.214 320.178) rotate(-4.14868)"/>
</clipPath>
<clipPath id="clip2_1979_18513">
<rect width="137.733" height="59.5201" fill="white" transform="translate(211.243 335.941) rotate(13.6202)"/>
</clipPath>
<clipPath id="clip3_1979_18513">
<rect width="9.66721" height="10.8756" fill="white" transform="translate(307.085 223.174) rotate(6.45591)"/>
</clipPath>
</defs>
</svg>
