<svg width="411" height="436" viewBox="0 0 411 436" fill="none" xmlns="http://www.w3.org/2000/svg">
<rect x="1" y="26.3867" width="408.612" height="408.612" rx="204.306" fill="#F7F9FE"/>
<rect x="1" y="26.3867" width="408.612" height="408.612" rx="204.306" stroke="#E7EFFC" stroke-width="2"/>
<mask id="mask0_1752_33473" style="mask-type:alpha" maskUnits="userSpaceOnUse" x="2" y="27" width="407" height="407">
<circle cx="205.306" cy="230.693" r="203.306" fill="#F7F9FE"/>
</mask>
<g mask="url(#mask0_1752_33473)">
<g opacity="0.7">
<path d="M-15.5 64.3008H682.022" stroke="#E7EFFC" stroke-linejoin="round"/>
<path d="M-15.5 107.488H682.022" stroke="#E7EFFC" stroke-linejoin="round"/>
<path d="M-15.5 150.686H682.022" stroke="#E7EFFC" stroke-linejoin="round"/>
<path d="M-15.5 193.873H682.022" stroke="#E7EFFC" stroke-linejoin="round"/>
<path d="M-15.5 237.065H682.022" stroke="#E7EFFC" stroke-linejoin="round"/>
<path d="M-15.5 280.258H682.022" stroke="#E7EFFC" stroke-linejoin="round"/>
<path d="M-15.5 323.444H682.022" stroke="#E7EFFC" stroke-linejoin="round"/>
<path d="M-15.5 366.635H682.022" stroke="#E7EFFC" stroke-linejoin="round"/>
<path d="M-15.5 409.818H682.022" stroke="#E7EFFC" stroke-linejoin="round"/>
</g>
<g opacity="0.7">
<path d="M376.438 17.8613L376.437 715.383" stroke="#E7EFFC" stroke-linejoin="round"/>
<path d="M333.258 17.8613L333.258 715.383" stroke="#E7EFFC" stroke-linejoin="round"/>
<path d="M290.078 17.8613L290.078 715.383" stroke="#E7EFFC" stroke-linejoin="round"/>
<path d="M246.883 17.8613L246.883 715.383" stroke="#E7EFFC" stroke-linejoin="round"/>
<path d="M203.672 17.8613L203.672 715.383" stroke="#E7EFFC" stroke-linejoin="round"/>
<path d="M160.492 17.8613L160.492 715.383" stroke="#E7EFFC" stroke-linejoin="round"/>
<path d="M117.297 17.8613L117.297 715.383" stroke="#E7EFFC" stroke-linejoin="round"/>
<path d="M74.1094 17.8613L74.1093 715.383" stroke="#E7EFFC" stroke-linejoin="round"/>
<path d="M30.9141 17.8613L30.914 715.383" stroke="#E7EFFC" stroke-linejoin="round"/>
</g>
<g clip-path="url(#clip0_1752_33473)">
<path d="M112.326 84.9445L112.326 84.9459C118.806 117.349 145.88 140.379 177.188 143.102L200.406 158.626L201.318 159.236L201.93 158.323L217.523 135.063C245.581 120.362 261.771 88.5815 255.29 56.174C247.453 16.7305 209.085 -8.81804 169.619 -0.873396C130.152 7.07112 104.489 45.5007 112.326 84.9445Z" fill="#ACC7FA" stroke="black" stroke-width="2.2"/>
<path d="M402.305 484.049C409.208 451.479 397.234 420.556 387.092 413.873C387.092 413.873 374.065 403.465 352.513 400.218C330.961 396.972 316.382 402.816 316.382 402.816C301.169 444.827 274.896 516.931 274.896 538.289C274.896 546.886 285.039 718.926 280.601 726.087H314.83C314.83 726.087 316.382 591.174 321.803 560.336C327.224 529.498 337.016 487.305 337.016 487.305C337.016 487.305 347.792 563.092 359.835 582.383C371.879 601.674 420.687 711.91 420.687 711.91L449.211 689.863C427.558 641.35 413.689 609.742 406.108 582.383C394.654 541.045 397.808 505.266 402.305 484.049Z" fill="#DFE1F2" stroke="black" stroke-width="2.39999" stroke-linecap="round" stroke-linejoin="round"/>
<path d="M336.791 488.251C336.791 488.251 334.265 462.161 334.265 431.226C334.265 431.226 330.475 456.261 329.844 470.865C329.212 485.469 331.738 511.2 331.738 511.2L336.791 488.251Z" fill="black" stroke="black" stroke-width="2.39999" stroke-linecap="round" stroke-linejoin="round"/>
<path d="M348.616 253.33C308.195 257.12 293.459 246.804 282.301 242.593C281.212 260.296 267.775 277.119 262.722 284.277C278.385 289.835 312.195 287.856 327.143 286.172C300.869 330.13 292.617 382.803 291.774 410.592C316.58 410.592 335.491 413.666 360.791 417.558C385.422 421.347 395.563 415.014 406.721 412.487C394.595 405.919 390.932 362.803 390.932 336.698C398.511 332.277 417.458 329.119 430.09 325.961C422.005 296.151 392.195 260.067 378.3 245.751L348.616 253.33Z" fill="#ACC7FA"/>
<path d="M390.932 336.698C398.511 332.277 417.458 329.119 430.09 325.961C422.005 296.151 392.195 260.067 378.3 245.751L348.616 253.33C308.195 257.12 293.459 246.804 282.301 242.593C281.212 260.296 267.775 277.119 262.722 284.277C278.385 289.835 312.195 287.856 327.143 286.172M390.932 336.698C390.932 362.803 394.595 405.919 406.721 412.487C395.563 415.014 385.422 421.347 360.791 417.558C335.491 413.666 316.58 410.592 291.774 410.592C292.617 382.803 300.869 330.13 327.143 286.172M390.932 336.698L378.3 343.014C378.3 319.664 378.3 298.822 375.774 280.488M327.143 286.172C329.176 282.635 333.848 277.559 336.159 274.822" stroke="black" stroke-width="2.39999" stroke-linecap="round" stroke-linejoin="round"/>
<path d="M297.458 410.593C290.89 391.393 302.301 352.698 306.301 332.909C299.732 352.614 292.616 390.172 291.143 410.593H297.458Z" fill="black" stroke="black" stroke-width="2.39999" stroke-linecap="round" stroke-linejoin="round"/>
<path d="M261.459 283.645C258.932 283.14 258.62 274.593 259.673 269.751C262.199 270.382 269.212 267.243 272.37 267.874C270.475 272.295 263.985 284.151 261.459 283.645Z" fill="black" stroke="black" stroke-width="2.39999" stroke-linecap="round" stroke-linejoin="round"/>
<path d="M429.633 325.98C425.211 333.558 408.791 360.085 378.475 343.062C394.896 332.927 417.633 325.348 429.633 325.98Z" fill="black" stroke="black" stroke-width="2.39999" stroke-linecap="round" stroke-linejoin="round"/>
<path d="M248.195 221.12C249.71 229.709 270.3 238.594 281.669 242.593C281.669 256.235 272.826 266.383 268.405 270.383C260.826 270.383 227.354 255.225 224.195 237.541C222.419 227.593 224.616 167.225 227.984 140.278C222.3 135.857 226.09 125.12 227.984 120.068C229.5 116.025 238.3 120.068 242.511 122.594C248.826 111.226 261.347 114.151 257.669 116.91C250.09 122.594 249.668 131.015 248.195 137.12C242.51 140.91 246.3 210.383 248.195 221.12Z" fill="#D98F6F" stroke="black" stroke-width="2.39999" stroke-linecap="round" stroke-linejoin="round"/>
<path d="M248.195 221.12C249.71 229.709 270.3 238.594 281.669 242.593C281.669 256.235 272.826 266.383 268.405 270.383C260.826 270.383 227.354 255.225 224.195 237.541C222.419 227.593 224.616 167.225 227.984 140.278C222.3 135.857 226.09 125.12 227.984 120.068C229.5 116.025 238.3 120.068 242.511 122.594C248.826 111.226 261.347 114.151 257.669 116.91C250.09 122.594 249.511 130.979 248.195 137.12C247.107 142.191 246.3 210.383 248.195 221.12Z" fill="#F5B896" stroke="black" stroke-width="2.2" stroke-linejoin="round"/>
<path d="M240.253 124.734C239.307 127.331 232.966 126 228.706 124.447C224.446 122.893 224.129 121.021 224.826 119.109C225.523 117.197 226.971 115.968 231.231 117.522C235.491 119.075 241.2 122.138 240.253 124.734Z" fill="#F5B896" stroke="black" stroke-width="2.39999" stroke-linecap="round" stroke-linejoin="round"/>
<path d="M237.727 131.05C236.78 133.647 230.44 132.316 226.18 130.762C221.92 129.209 221.603 127.337 222.3 125.425C222.997 123.512 224.445 122.284 228.705 123.837C232.965 125.391 238.674 128.453 237.727 131.05Z" fill="#F5B896" stroke="black" stroke-width="2.39999" stroke-linecap="round" stroke-linejoin="round"/>
<path d="M236.464 137.366C235.517 139.963 229.177 138.632 224.917 137.078C220.657 135.525 220.339 133.653 221.037 131.741C221.734 129.828 223.182 128.6 227.442 130.153C231.702 131.707 237.411 134.769 236.464 137.366Z" fill="#F5B896" stroke="black" stroke-width="2.39999" stroke-linecap="round" stroke-linejoin="round"/>
<path d="M377.842 242.68L346.707 250.653L336.289 264.606C301.179 310.094 287.969 386.861 287.086 416.096C307.622 408.787 344.719 412.774 358.631 419.418C369.76 424.734 395.949 420.747 407.653 418.089C411.809 402.143 404.522 362.942 391.091 338.358C399.041 333.707 418.914 330.385 432.163 327.062C423.684 295.701 392.416 257.74 377.842 242.68Z" fill="#ACC7FA"/>
<path d="M391.091 338.358C399.041 333.707 418.914 330.385 432.163 327.062C423.684 295.701 392.416 257.74 377.842 242.68L346.707 250.653L336.289 264.606C301.179 310.094 287.969 386.861 287.086 416.096C307.622 408.787 344.719 412.774 358.631 419.418C369.76 424.734 395.949 420.747 407.653 418.089C411.809 402.143 404.522 362.942 391.091 338.358ZM391.091 338.358L377.842 345.002C381.154 329.72 375.374 289.854 371.399 267.264" stroke="black" stroke-width="2.24041" stroke-linecap="round" stroke-linejoin="round"/>
<path d="M432.135 327.061C418.592 335.704 388.369 351.592 378.476 345.666C395.259 338.875 430.015 325.58 432.135 327.061Z" fill="black" stroke="black" stroke-width="2.52484" stroke-linecap="round" stroke-linejoin="round"/>
<path d="M383.776 342.344L401 419.418C401 413.621 391.725 365.62 387.088 342.344H383.776Z" fill="black" stroke="black" stroke-width="2.52484" stroke-linecap="round" stroke-linejoin="round"/>
<path d="M348.843 255.304C351.492 254.773 352.155 258.626 352.155 260.62L353.48 251.982C350.3 251.982 342.439 250.653 339.568 249.988C339.789 248.216 339.966 244.673 338.906 244.673C337.846 244.673 336.256 246.445 335.594 247.331V263.941C338.906 263.941 345.53 255.969 348.843 255.304Z" fill="#E74F4F" stroke="black" stroke-width="2.24041" stroke-linecap="round" stroke-linejoin="round"/>
<path d="M351.722 261.283C350.396 265.934 345.097 269.256 346.422 285.867" stroke="black" stroke-width="2.24041" stroke-linecap="round" stroke-linejoin="round"/>
<g clip-path="url(#clip1_1752_33473)">
<path d="M298.998 164.368C301.159 157.404 309.273 146.684 316.051 146.684C313.637 152.747 309.474 178.263 309.273 185.842C304.051 185.842 293.314 182.684 298.998 164.368Z" fill="#BFC2C8" stroke="black" stroke-width="2.39999" stroke-linecap="round" stroke-linejoin="round"/>
<path d="M307.209 211.12V164.368C307.209 159.316 310.367 141 341.314 140.369C372.261 139.737 377.314 161.21 377.314 161.21C377.314 173.307 373.484 180.1 368.742 183.782C373.966 180.64 381.875 178.155 383.629 186.488C385.65 196.088 375.208 199.751 369.735 200.383C365.693 222.109 369.735 238.067 372.261 243.33C367.208 253.435 349.524 251.751 341.314 249.646V233.856C307.461 234.867 307.209 222.488 307.209 211.12Z" fill="#F5B896" stroke="black" stroke-width="2.2" stroke-linejoin="round"/>
<path d="M340.43 234.192C344.856 233.991 352.125 232.675 354.086 229.033C354.168 228.854 354.248 228.678 354.325 228.508C354.258 228.688 354.178 228.863 354.086 229.033C351.019 235.721 344.367 248.366 340.43 249.35V234.192Z" fill="black" stroke="black" stroke-width="2.39999" stroke-linecap="round" stroke-linejoin="round"/>
<path d="M365.945 183.316C371.629 169.421 372.892 159.947 368.471 149.21C372.893 147 378.577 153 382.366 159.947C387.879 170.053 382.366 183.947 382.366 183.947C374.156 175.105 362.965 190.603 365.945 183.316Z" fill="#BFC2C8" stroke="black" stroke-width="2.39999" stroke-linecap="round" stroke-linejoin="round"/>
<path d="M343.208 155.308C340.051 153 327.419 152.369 321.735 155.308" stroke="black" stroke-width="1.89473" stroke-linecap="round" stroke-linejoin="round"/>
<path d="M337.524 158.685C333.314 157.422 331.461 157.168 327.419 158.684" stroke="black" stroke-width="1.89473" stroke-linecap="round" stroke-linejoin="round"/>
<path d="M336.475 195.84C335.459 192.504 331.929 190.623 328.593 191.64C325.256 192.656 323.375 196.185 324.392 199.522C324.994 201.499 326.478 202.964 328.281 203.619" stroke="black" stroke-width="1.89473" stroke-linecap="round" stroke-linejoin="round"/>
<circle cx="340.987" cy="192.025" r="1.89473" fill="black"/>
<circle cx="320.344" cy="191.14" r="1.89473" fill="black"/>
<path d="M339.923 179.14C341.186 176.614 347.502 176.614 348.134 182.298" stroke="black" stroke-width="1.89473" stroke-linecap="round" stroke-linejoin="round"/>
<path d="M323.502 180.656C322.871 178.509 316.555 177.246 316.555 182.537" stroke="black" stroke-width="1.89473" stroke-linecap="round" stroke-linejoin="round"/>
<path d="M336.634 219.625C344.485 217.449 347.712 206.8 348.344 201.748C341.889 207.493 329.075 211.89 318.067 206.486C319.407 216.601 327.292 222.214 336.634 219.625Z" fill="black" stroke="black" stroke-width="1.89473" stroke-linecap="round" stroke-linejoin="round"/>
<path d="M334.235 216.088C330.201 213.5 326.322 215.599 324.887 216.972C335.528 222.282 340.871 216.471 342.212 212.902C339.158 210.562 335.621 214.051 334.235 216.088Z" fill="white"/>
<circle cx="8.21049" cy="8.21049" r="8.21049" transform="matrix(-1 0 0 1 351.125 180.949)" stroke="black" stroke-width="1.89473" stroke-linecap="round" stroke-linejoin="round"/>
<path d="M311.571 189.16C311.571 193.694 315.247 197.37 319.781 197.37C321.148 197.37 322.437 197.036 323.571 196.445C323.571 196.445 323.571 195.118 324.834 193.581C326.018 192.14 327.596 191.686 327.596 191.686C327.853 190.89 327.992 190.041 327.992 189.16C327.992 184.625 324.316 180.949 319.781 180.949C315.247 180.949 311.571 184.625 311.571 189.16Z" stroke="black" stroke-width="1.89473" stroke-linecap="round" stroke-linejoin="round"/>
<path d="M367.546 182.844C363.756 184.949 355.419 189.16 352.388 189.16" stroke="black" stroke-width="1.89473" stroke-linecap="round" stroke-linejoin="round"/>
</g>
<path d="M319.181 335.956C321.014 327.805 312.581 325.223 308.135 324.951L336.329 321.032C337.573 334.04 339.925 361.27 339.387 366.123C338.849 370.976 329.851 380.053 325.42 383.985C320.904 382.667 312.722 379.801 316.129 378.881C320.388 377.733 323.62 357.445 323.098 349.739C322.575 342.034 316.891 346.146 319.181 335.956Z" fill="#454953" stroke="black" stroke-width="1.63106" stroke-linejoin="round"/>
<path d="M332.343 305.976C329.086 302.484 307.893 301.136 297.703 300.898L305.972 316.12L343.806 317.268C341.342 314.959 335.6 309.469 332.343 305.976Z" fill="#505660" stroke="black" stroke-width="1.63106" stroke-linejoin="round"/>
<path d="M343.763 316.651L311.331 315.454L303.192 325.912C313.715 326.141 335.519 326.38 338.556 325.495C341.593 324.609 343.292 319.23 343.763 316.651Z" fill="#2C2E34" stroke="black" stroke-width="1.63106" stroke-linejoin="round"/>
<path d="M305.863 304.367C303.374 299.587 293.538 300.891 288.931 302.141C285.675 306.018 288.264 316.245 290.222 321.174C292.18 326.102 303.302 326.473 309.962 324.896C316.622 323.32 308.975 310.342 305.863 304.367Z" fill="black" stroke="black" stroke-width="1.63106" stroke-linejoin="round"/>
<path d="M317.905 389.636C316.166 387.689 315.244 382.84 315 380.658L325.061 385.136L324.46 393.205C323 392.826 319.644 391.582 317.905 389.636Z" fill="#2C2E34" stroke="black" stroke-width="1.63106" stroke-linejoin="round"/>
<path d="M339.652 378.358C338.647 382.237 329.164 389.81 324.547 393.112L324.768 384.691C328.996 380.855 337.745 372.043 338.914 367.481C339.578 369.491 340.656 374.48 339.652 378.358Z" fill="black" stroke="black" stroke-width="1.63106" stroke-linejoin="round"/>
<path d="M320.79 342.116C320.79 337.695 330.089 332.879 337.036 332.01C355.64 329.685 387.791 348.943 395.141 349.752C395.948 350.113 397.631 347.396 393.246 339.571C403.857 334.518 421.667 327.978 427.352 327.557C432.404 334.504 452.789 388.852 437.631 397.063C414.895 406.536 355.526 346.523 351.105 352.221C351.105 369.241 346.684 372.254 344.615 373.03C340.573 374.546 337.212 371.168 337.843 369.273C337.212 371.168 332.615 373.662 329.457 372.399C326.299 371.136 325.212 369.24 327.106 366.747C321.422 371.8 315.313 365.978 317.914 364.188C324.684 359.53 326.11 347.763 328.803 343.074C325.263 347.904 320.79 348.516 320.79 342.116Z" fill="#F5B896"/>
<path d="M327.106 366.747C321.422 371.8 315.313 365.978 317.914 364.188C325.211 359.168 326.299 345.891 329.457 342.116C325.842 347.8 320.79 348.918 320.79 342.116C320.79 337.695 330.089 332.879 337.036 332.01C355.64 329.685 387.791 348.943 395.141 349.752M327.106 366.747C325.212 369.24 326.299 371.136 329.457 372.399C332.615 373.662 337.212 371.168 337.843 369.273M327.106 366.747C327.106 366.747 333.247 362.326 333.247 352.221M337.843 369.273C337.212 371.168 340.573 374.546 344.615 373.03C346.684 372.254 351.105 369.241 351.105 352.221C355.526 346.523 414.895 406.536 437.631 397.063C452.789 388.852 432.404 334.504 427.352 327.557C421.667 327.978 403.857 334.518 393.246 339.571C397.631 347.396 395.948 350.113 395.141 349.752M337.843 369.273C337.843 369.273 342.895 364.188 341.632 352.221M427.352 364.188L395.141 349.752" stroke="black" stroke-width="2.39999" stroke-linecap="round" stroke-linejoin="round"/>
<path d="M358.424 260.055L360.868 249.305H354.515L352.56 261.521C350.443 265.267 346.403 274.812 347.185 279.113C347.185 279.113 357.936 261.032 358.424 260.055Z" fill="#F5B896"/>
<path d="M359.645 259.592C359.513 259.973 359.44 260.323 359.44 260.618L359.645 259.592C360.406 257.399 363.145 254.185 365.403 254.638C368.715 255.302 376.664 258.625 379.977 258.625L377.327 242.678C376.664 241.792 375.074 240.021 374.014 240.021C372.955 240.021 373.131 242.235 373.352 244.007C370.04 247.994 364.608 250.651 361.428 250.651L359.645 259.592Z" fill="#E74F4F"/>
<path d="M359.44 260.618C359.44 258.625 362.753 254.106 365.403 254.638C368.715 255.302 376.664 258.625 379.977 258.625L377.327 242.678C376.664 241.792 375.074 240.021 374.014 240.021C372.955 240.021 373.131 242.235 373.352 244.007C370.04 247.994 364.608 250.651 361.428 250.651L359.44 260.618ZM359.44 260.618C356.791 265.933 350.034 266.731 346.854 285.866" stroke="black" stroke-width="2.24041" stroke-linecap="round" stroke-linejoin="round"/>
<rect x="349.625" y="289.863" width="21.5008" height="6.84117" fill="#FFDA68" stroke="black" stroke-width="2.24041" stroke-linecap="round" stroke-linejoin="round"/>
</g>
<path d="M73.1051 427.972C62.9973 436.165 45.7475 471.953 62.5047 511.636C77.8976 575.574 82.7384 599.328 83.5351 635.735C83.537 635.82 83.5388 635.904 83.5406 635.989C83.5923 647.53 57.6943 682.478 44.6425 698.623C50.3726 716.305 61.5332 749.915 60.3345 742.908C67.7244 730.825 82.4849 707.406 82.4081 710.397C82.0597 723.892 81.6822 739.177 81.3367 756.75L132.815 754.921L136.882 637.404L156.149 617.592C171.664 602.664 190.484 571.951 185.024 562.585C176.121 547.314 159.209 477.444 147.79 420.712C147.79 420.712 133.81 412.385 111.699 414.813C89.5887 417.24 73.1051 427.972 73.1051 427.972Z" fill="#BABECB"/>
<path d="M133.473 449.31C144.702 511.281 138.875 579.811 138.875 579.811L136.882 637.404M83.5351 635.735C82.7384 599.328 77.8976 575.574 62.5047 511.636C45.7476 471.953 62.9973 436.165 73.1051 427.972C73.1051 427.972 89.5887 417.24 111.699 414.813C133.81 412.385 147.79 420.712 147.79 420.712C159.209 477.444 176.121 547.314 185.024 562.585C190.484 571.951 171.664 602.664 156.149 617.592M83.5351 635.735C83.9787 647.008 57.7915 682.358 44.6425 698.623C50.3726 716.305 61.5332 749.915 60.3345 742.908C67.7244 730.825 82.4849 707.406 82.4081 710.397M83.5351 635.735C83.9502 654.7 83.2679 677.097 82.4081 710.397M82.4081 710.397C82.0597 723.892 81.6822 739.177 81.3367 756.75L132.815 754.921L136.882 637.404M136.882 637.404C137.717 634.766 146.368 627.004 156.149 617.592M136.882 637.404L156.149 617.592" stroke="black" stroke-width="2.24041" stroke-linecap="round" stroke-linejoin="round"/>
<path d="M160.445 357.654C170.544 356.059 182.371 343.258 187.022 337.057L157.787 350.345L160.445 357.654Z" fill="black" stroke="black" stroke-width="2.52484" stroke-linecap="round" stroke-linejoin="round"/>
<path d="M188.351 356.325L175.336 330.377C171.863 328.659 159.242 335.827 156.599 342.408C156.599 342.408 164.801 376.161 175.336 377.587C185.871 379.013 242.224 378.522 272.491 361.847C275.217 360.625 276.294 357.852 277.027 354.812C279.128 353.307 278.912 350.659 277.782 349.417C279.251 346.631 277.711 344.09 276.592 342.392C274.092 338.6 266.712 339.763 261.778 341.294C258.161 328.1 244.635 327.964 247.705 331.702C254.032 339.403 252.492 345.477 252.492 345.477C252.492 345.477 246.821 350.64 225.559 354.812C204.297 358.983 188.351 356.325 188.351 356.325Z" fill="#CE8361" stroke="black" stroke-width="2.24041" stroke-linecap="round" stroke-linejoin="round"/>
<path d="M230.959 388.691L230.884 390.149L232.344 390.145L273 390.023L274.333 390.019L274.378 388.686L274.742 377.764L276.769 317.01L276.816 315.586L275.392 315.581L236.039 315.438L234.72 315.433L234.652 316.75L230.959 388.691Z" fill="#505798" stroke="black" stroke-width="2.76621"/>
<circle cx="245.974" cy="329.04" r="3.98658" transform="rotate(-11.4818 245.974 329.04)" fill="black"/>
<path d="M110.795 259.983C141.841 268.62 164.431 318.453 186.357 336.392C186.357 336.392 164.95 344.365 157.641 351.674C166.272 381.749 170.129 410.11 170.593 425.426C149.996 418.117 112.788 422.104 98.8349 428.748C87.6725 434.064 61.4053 430.077 49.667 427.419C45.4981 411.473 52.8069 372.271 66.2778 347.688C58.3046 343.037 38.3717 339.714 25.0831 336.392C33.5878 305.031 64.9489 267.07 79.5664 252.01L110.795 259.983Z" fill="#BCBFE3"/>
<path d="M66.2778 347.688C58.3046 343.037 38.3717 339.714 25.0831 336.392C33.5878 305.031 64.9489 267.07 79.5664 252.01L110.795 259.983C141.841 268.62 164.431 318.453 186.357 336.392C186.357 336.392 164.95 344.365 157.641 351.674M66.2778 347.688C52.8069 372.271 45.4981 411.473 49.667 427.419C61.4053 430.077 87.6725 434.064 98.8349 428.748C112.788 422.104 149.996 418.117 170.593 425.426C169.708 396.191 156.458 319.424 121.243 273.936M66.2778 347.688L79.5664 354.332C76.2443 339.05 82.0418 299.184 86.0284 276.593" stroke="black" stroke-width="2.24041" stroke-linecap="round" stroke-linejoin="round"/>
<path d="M25.104 336.392C38.6879 345.035 69.0007 360.923 78.9229 354.996C62.0906 348.206 27.2301 334.911 25.104 336.392Z" fill="black" stroke="black" stroke-width="2.52484" stroke-linecap="round" stroke-linejoin="round"/>
<path d="M52.5513 474.909C49.1575 464.513 57.0638 397.26 70.5919 349.997C56.9966 342.372 43.0435 340.694 37.2072 340.694C28.8562 383.374 35.556 432.842 34.5611 474.909C31.3447 485.363 30.0709 504.547 34.5611 508.795C37.3699 511.453 38.0343 508.795 38.0343 506.802C38.861 509.436 38.638 511.63 40.9939 511.63C43.3498 511.63 44.1472 507.435 44.2103 506.064C44.2103 510.085 45.6874 511.63 48.2308 511.63C52.6518 511.453 49.839 500.436 52.5513 490.602C54.059 493.494 58.3007 498.368 63.2055 494.737C64.6116 493.696 53.7176 483.175 52.5513 474.909Z" fill="#CE8361"/>
<path d="M44.2103 506.064C44.2103 510.085 45.6874 511.63 48.2308 511.63C52.6518 511.453 49.839 500.436 52.5513 490.602C54.059 493.494 58.3007 498.368 63.2055 494.737C64.6116 493.696 53.7176 483.175 52.5513 474.909C49.1575 464.513 57.0638 397.26 70.5919 349.997C56.9966 342.372 43.0435 340.694 37.2072 340.694C28.8562 383.374 35.556 432.842 34.5611 474.909C31.3447 485.363 30.0709 504.547 34.5611 508.795C37.3699 511.453 38.0343 508.795 38.0343 506.802M44.2103 506.064C44.1472 507.435 43.3498 511.63 40.9939 511.63C38.638 511.63 38.861 509.436 38.0343 506.802M44.2103 506.064C44.2103 506.064 43.3498 502.151 44.2103 490.602M38.0343 506.802C38.0343 506.802 36.041 496.171 38.0343 490.602" stroke="black" stroke-width="2.24041" stroke-linecap="round" stroke-linejoin="round"/>
<path d="M73.6072 351.674L56.332 428.748C56.332 422.951 65.6341 374.95 70.2851 351.674H73.6072Z" fill="black" stroke="black" stroke-width="2.52484" stroke-linecap="round" stroke-linejoin="round"/>
<path d="M260.491 345.288C261.487 348.02 268.157 346.619 272.639 344.985C277.121 343.351 277.454 341.382 276.721 339.37C275.987 337.358 274.464 336.066 269.983 337.7C265.501 339.334 259.495 342.556 260.491 345.288Z" fill="#CE8361" stroke="black" stroke-width="2.24041" stroke-linecap="round" stroke-linejoin="round"/>
<path d="M263.149 351.932C264.145 354.664 270.815 353.264 275.297 351.63C279.779 349.995 280.112 348.026 279.379 346.014C278.645 344.003 277.122 342.71 272.64 344.344C268.159 345.979 262.152 349.2 263.149 351.932Z" fill="#CE8361" stroke="black" stroke-width="2.24041" stroke-linecap="round" stroke-linejoin="round"/>
<path d="M264.477 358.577C265.474 361.309 272.144 359.908 276.626 358.274C281.107 356.64 281.441 354.67 280.707 352.659C279.974 350.647 278.451 349.354 273.969 350.989C269.487 352.623 263.481 355.845 264.477 358.577Z" fill="#CE8361" stroke="black" stroke-width="2.24041" stroke-linecap="round" stroke-linejoin="round"/>
<path d="M148.872 220.5V169.339H86.4158C86.4158 183.956 87.7447 190.157 86.4158 193.258C81.3219 189.493 70.6024 184.488 68.4762 194.587C66.35 204.686 73.1651 210.552 78.9235 211.217C83.1758 234.073 83.0937 248.849 80.436 254.386C85.7514 265.017 104.355 263.245 112.993 261.03V244.419C148.607 245.482 148.872 232.46 148.872 220.5Z" fill="#CE8361" stroke="black" stroke-width="2.52484" stroke-linejoin="round"/>
<path d="M112.329 244.419C107.673 244.208 100.026 242.823 97.9625 238.992C97.876 238.803 97.7921 238.619 97.7111 238.439C97.7822 238.629 97.8663 238.813 97.9625 238.992C101.189 246.028 108.187 259.33 112.329 260.366V244.419Z" fill="black" stroke="black" stroke-width="2.52484" stroke-linecap="round" stroke-linejoin="round"/>
<path d="M80.251 210.815C80.251 228.08 80.9167 220.117 80.9162 229.419C20.4524 191.294 59.6542 125.103 104.836 134.808C117.903 131.485 146.562 134.01 156.662 170.687C153.937 177.813 143.858 181.937 132.078 184.225C131.201 184.395 125.663 159.906 124.769 160.056C125.433 178.66 124.331 185.175 124.769 185.304C107.885 187.762 91.3245 186.827 86.2321 185.978V191.958C81.1381 189.079 72.2778 185.965 69.6201 195.533C66.9624 205.101 74.7141 209.043 80.251 210.815Z" fill="black" stroke="black" stroke-width="2.52484" stroke-linecap="round" stroke-linejoin="round"/>
<path d="M19.124 229.419C36.3992 202.842 0.824947 144.721 58.9899 161.661C41.9979 164.74 47.0301 190.782 47.0301 195.533C47.0301 227.872 32.8483 229.419 19.124 229.419Z" fill="black" stroke="black" stroke-width="1.99329"/>
<path d="M115.467 131.748C104.836 131.748 80.2517 140.385 77.594 187.56" stroke="white" stroke-width="3.32215" stroke-linecap="round" stroke-linejoin="round"/>
<path d="M131.413 188.606C134.735 187.277 140.715 189.403 140.715 195.25" stroke="black" stroke-width="1.99329" stroke-linecap="round" stroke-linejoin="round"/>
<path d="M112.808 189.935C110.815 189.271 106.563 190.733 105.5 193.922" stroke="black" stroke-width="1.99329" stroke-linecap="round" stroke-linejoin="round"/>
<path d="M103.506 211.48C103.506 216.795 106.829 221.55 111.69 224.328C119.132 228.58 128.09 227.426 132.952 223.664" stroke="black" stroke-width="2.24041" stroke-linecap="round" stroke-linejoin="round"/>
<circle cx="1.99329" cy="1.99329" r="1.99329" transform="matrix(-1 0 0 1 114.802 195.108)" fill="black"/>
<circle cx="1.99329" cy="1.99329" r="1.99329" transform="matrix(-1 0 0 1 136.064 193.765)" fill="black"/>
<path d="M118.403 203.739C119.472 200.229 123.185 198.25 126.695 199.32C130.205 200.389 132.184 204.102 131.114 207.612C130.481 209.692 128.92 211.233 127.023 211.923" stroke="black" stroke-width="2.24041" stroke-linecap="round" stroke-linejoin="round"/>
<circle cx="122.775" cy="184.238" r="1.32886" fill="black"/>
<g clip-path="url(#clip2_1752_33473)">
<path d="M211.424 401.168L207.511 377.703L214.369 377.703L215.852 400.442L211.424 401.168Z" fill="white" stroke="black" stroke-width="2.14919" stroke-linecap="round"/>
<path d="M201.237 389.689L196.885 390.101L193.887 391.565L190.384 396.505L191.101 401.995C194.349 406.343 203.07 413.29 211.964 406.298C223.081 397.558 215.936 388.476 213.969 386.418C212.003 384.361 207.299 385.648 206.993 385.779C206.748 385.883 203.054 388.429 201.237 389.689Z" fill="#DB0000" stroke="black" stroke-width="0.903359" stroke-linecap="round" stroke-linejoin="round"/>
<path d="M209.464 408.475C202.035 411.652 193.548 408.522 190.545 401.498C188.525 396.774 190.466 392.332 195.492 390.183C197.211 389.448 199.174 389.064 201.188 389.069C202.917 387.452 204.678 386.254 206.426 385.507C211.269 383.436 215.404 385.106 217.487 389.977C220.493 396.999 216.892 405.298 209.464 408.475ZM196.017 391.408C192.765 392.798 189.703 396.138 191.771 400.974C194.486 407.322 202.187 410.137 208.941 407.249C215.694 404.361 218.979 396.848 216.264 390.5C214.457 386.275 211.15 384.936 206.952 386.731C205.284 387.444 203.589 388.618 201.913 390.218L201.714 390.407L201.439 390.402C199.516 390.365 197.641 390.713 196.017 391.408Z" fill="black"/>
<path d="M194.016 401.325C193.678 401.47 193.286 401.311 193.142 400.974C191.554 397.262 192.977 393.666 196.77 391.814C197.111 391.647 197.499 391.789 197.661 392.12C197.822 392.451 197.685 392.85 197.354 393.012C194.887 394.218 192.809 396.803 194.368 400.45C194.512 400.788 194.353 401.181 194.016 401.325Z" fill="black"/>
<path d="M202.077 391.189C201.739 391.334 201.347 391.177 201.202 390.839C200.276 388.672 200.034 384.965 203.163 383.627C203.502 383.483 203.893 383.64 204.038 383.978C204.183 384.316 204.026 384.708 203.687 384.852C201.194 385.919 201.933 389.158 202.428 390.315C202.572 390.653 202.415 391.045 202.077 391.189Z" fill="#09463F"/>
<path d="M201.955 390.913C201.655 391.041 201.299 390.933 201.124 390.645C199.334 387.692 198.748 385.544 199.28 383.888C199.657 382.714 200.606 381.795 202.103 381.155C202.441 381.011 202.833 381.168 202.977 381.506C203.122 381.844 202.965 382.236 202.627 382.38C201.484 382.869 200.806 383.495 200.547 384.296C200.147 385.539 200.708 387.39 202.263 389.954C202.455 390.267 202.352 390.678 202.038 390.869C202.011 390.887 201.984 390.901 201.955 390.913Z" fill="#073430"/>
<path d="M202.042 391.202C201.704 391.347 201.312 391.19 201.167 390.852C200.672 389.694 198.841 386.923 196.348 387.99C196.009 388.134 195.618 387.977 195.473 387.639C195.328 387.301 195.485 386.909 195.824 386.764C198.953 385.426 201.467 388.163 202.393 390.328C202.537 390.666 202.381 391.057 202.042 391.202Z" fill="#09463F"/>
<path d="M226.139 389.687L222.716 381.103L219.16 378.399L215.058 379.619L211.38 383.773L210.447 388.094L212.142 399.831L217.265 402.519L220.785 401.893L225.64 397.922L226.139 389.687Z" fill="#FFFAE1"/>
<path d="M218.136 403.037C215.279 403.068 212.797 401.839 211.147 399.576C210.893 399.226 210.97 398.736 211.319 398.482C211.67 398.227 212.159 398.307 212.413 398.653C213.754 400.495 215.779 401.495 218.116 401.47C222.621 401.421 225.489 397.765 225.428 392.152C225.358 385.653 221.617 379.31 217.877 379.351C214.826 379.384 211.736 383.709 210.841 389.197C210.77 389.624 210.367 389.913 209.942 389.844C209.516 389.775 209.225 389.371 209.296 388.945C210.191 383.436 213.422 377.83 217.86 377.782C222.999 377.726 226.922 385.313 226.995 392.134C227.079 399.599 222.605 402.989 218.136 403.037Z" fill="black"/>
<path d="M226.71 404.423L192.23 404.795C191.798 404.8 191.443 404.451 191.438 404.02C191.433 403.587 191.781 403.232 192.213 403.228L226.693 402.855C227.124 402.851 227.481 403.198 227.486 403.63C227.49 404.063 227.141 404.418 226.71 404.423Z" fill="black"/>
<path d="M185.625 399.545L179.718 392.418L177.737 387.977L175.08 387.875L174.562 392.535L175.072 399.698L181.138 407.149L192.86 412.233L205.823 412.904L214.16 407.424L216.307 400.364L219.223 398.136L217.218 396.913L214.479 397.051L211.539 402.496L198.558 404.237L185.625 399.545Z" fill="#FFDA68"/>
<path d="M215.378 396.015L212.603 400.979L215.965 403.742L215.66 401.487L218.829 397.733L215.378 396.015Z" fill="#A77C18"/>
<path d="M189.393 412.059C170.998 405.767 173.042 390.995 173.333 389.327C173.48 388.494 173.995 387.764 174.738 387.324C175.533 386.856 176.486 386.759 177.354 387.056C178.565 387.47 179.41 388.58 179.685 390.113C180.704 392.7 184.001 398.814 193.119 401.933C199.094 403.977 204.769 404.055 209.981 402.168C211.153 401.743 211.364 401.14 211.791 399.932C212.219 398.723 212.752 397.218 214.444 395.552C214.719 395.283 215.122 395.193 215.487 395.317L220.126 396.904C220.546 397.048 220.825 397.449 220.815 397.892C220.805 398.336 220.505 398.724 220.081 398.848C219.043 399.144 217.772 399.722 217.352 400.172C217.302 404.345 215.264 408.181 211.726 410.733C208.585 413.007 201.5 416.2 189.393 412.059ZM176.694 388.982C176.394 388.88 176.048 388.914 175.775 389.076C175.605 389.175 175.396 389.36 175.337 389.682C174.911 392.11 173.608 404.509 190.05 410.133C198.256 412.94 205.723 412.557 210.533 409.083C213.617 406.856 215.36 403.498 215.316 399.869C215.316 399.706 215.355 399.542 215.429 399.396C215.722 398.823 216.301 398.346 216.941 397.967L215.452 397.458C214.424 398.618 214.05 399.672 213.714 400.617C213.243 401.951 212.754 403.336 210.678 404.088C205.019 406.138 198.889 406.063 192.462 403.865C182.42 400.43 178.829 393.553 177.75 390.756C177.726 390.688 177.704 390.616 177.692 390.549C177.558 389.712 177.203 389.157 176.694 388.982Z" fill="black"/>
<path d="M191.129 407.713C183.434 405.08 179.522 400.48 177.595 397.084C177.317 396.594 177.489 395.973 177.979 395.698C178.471 395.419 179.092 395.592 179.368 396.082C181.12 399.171 184.698 403.362 191.788 405.788C197.763 407.832 203.437 407.91 208.65 406.023C209.179 405.83 209.76 406.102 209.955 406.633C210.147 407.161 209.874 407.745 209.345 407.936C203.688 409.987 197.556 409.911 191.129 407.713Z" fill="black"/>
<path d="M173.849 394.655C173.755 394.623 173.665 394.577 173.582 394.519C173.126 394.189 173.025 393.552 173.357 393.098C174.219 391.914 176.342 390.455 178.729 389.962C179.278 389.849 179.819 390.202 179.933 390.755C180.052 391.303 179.696 391.843 179.143 391.957C177.374 392.324 175.62 393.459 175.005 394.3C174.734 394.663 174.264 394.797 173.849 394.655Z" fill="black"/>
<path d="M215.228 405.261C214.871 405.139 214.601 404.827 214.546 404.434C214.526 404.292 214.468 404.094 214.195 403.893C213.572 403.435 212.358 403.318 211.756 403.416C211.198 403.504 210.678 403.13 210.585 402.576C210.495 402.021 210.87 401.498 211.427 401.406C212.359 401.257 214.187 401.355 215.402 402.259C216.056 402.74 216.458 403.398 216.56 404.162C216.637 404.719 216.244 405.232 215.686 405.308C215.53 405.328 215.374 405.311 215.228 405.261Z" fill="black"/>
<path d="M187.804 388.512L186.24 379.196L186.796 374.157L184.457 372.865L181.534 376.985L178.219 383.905L179.756 393.594L187.633 403.62L198.954 410.082L209.351 408.715L215.005 403.087L218.806 402.319L217.645 400.274L215.105 399.17L209.587 402.932L196.979 398.716L187.804 388.512Z" fill="#FFDA68"/>
<path d="M216.468 398.604L211.352 401.991L212.924 406.085L213.838 403.842L218.67 401.762L216.468 398.604Z" fill="#A77C18"/>
<path d="M184.619 401.901C171.368 387.744 180.994 374.867 182.135 373.439C182.707 372.727 183.554 372.278 184.456 372.201C185.418 372.122 186.328 372.46 186.953 373.128C187.826 374.06 188.002 375.478 187.442 377.033C186.996 379.908 186.743 387.102 193.311 394.12C197.616 398.719 202.685 401.346 208.374 401.929C209.653 402.061 210.161 401.592 211.182 400.655C212.205 399.72 213.478 398.553 215.88 397.759C216.27 397.631 216.681 397.729 216.943 398.009L220.285 401.579C220.588 401.903 220.628 402.403 220.385 402.813C220.142 403.223 219.667 403.45 219.22 403.375C218.129 403.184 216.68 403.152 216.064 403.383C213.82 407.259 209.962 409.923 205.431 410.715C201.404 411.425 193.34 411.218 184.619 401.901ZM185.344 374.631C185.127 374.399 184.798 374.276 184.466 374.305C184.261 374.321 183.976 374.399 183.753 374.673C182.09 376.749 174.381 387.744 186.225 400.398C192.137 406.713 199.064 409.717 205.227 408.637C209.177 407.945 212.517 405.594 214.391 402.184C214.477 402.031 214.597 401.896 214.741 401.792C215.307 401.389 216.08 401.204 216.856 401.138L215.784 399.993C214.247 400.613 213.354 401.43 212.553 402.162C211.426 403.195 210.256 404.268 207.99 404.037C201.812 403.404 196.331 400.575 191.701 395.629C184.468 387.9 184.857 379.86 185.36 376.763C185.374 376.688 185.392 376.611 185.417 376.543C185.737 375.701 185.711 375.023 185.344 374.631Z" fill="black"/>
<path d="M188.493 398.634C182.95 392.712 181.851 386.654 181.906 382.615C181.914 382.032 182.396 381.529 182.983 381.493C183.573 381.453 184.04 381.895 184.031 382.477C183.98 386.151 184.994 391.676 190.101 397.133C194.405 401.731 199.474 404.359 205.163 404.942C205.742 405 206.122 405.516 206.018 406.1C205.912 406.679 205.359 407.102 204.782 407.042C198.605 406.411 193.123 403.58 188.493 398.634Z" fill="black"/>
<path d="M179.785 378.65C179.717 378.577 179.66 378.494 179.616 378.402C179.379 377.889 179.624 377.249 180.162 376.974C181.563 376.256 184.243 375.849 186.653 376.463C187.207 376.605 187.508 377.177 187.32 377.745C187.138 378.31 186.533 378.656 185.974 378.513C184.188 378.059 182.01 378.33 181.012 378.838C180.577 379.056 180.083 378.969 179.785 378.65Z" fill="black"/>
<path d="M211.46 407.174C211.203 406.899 211.124 406.487 211.282 406.095C211.338 405.953 211.391 405.742 211.251 405.431C210.931 404.723 209.899 404.068 209.306 403.888C208.757 403.719 208.485 403.136 208.694 402.577C208.905 402.017 209.519 401.698 210.068 401.863C210.987 402.143 212.581 403.057 213.199 404.448C213.534 405.192 213.549 405.988 213.239 406.747C213.014 407.302 212.39 407.604 211.848 407.424C211.697 407.373 211.566 407.287 211.46 407.174Z" fill="black"/>
<path d="M194.69 411.21L186.471 411.056L182.334 409.815L180.728 411.545L183.568 414.596L188.69 418.405L197.218 418.64L207.423 413.695L215.373 405.356L216.503 396.564L212.987 391.025L213.173 387.77L211.189 388.411L209.698 390.335L211.666 395.472L205.332 405.223L194.69 411.21Z" fill="#FFDA68"/>
<path d="M209.507 389.132L211.246 393.879L215.052 393.217L213.356 392.115L212.66 387.804L209.507 389.132Z" fill="#A77C18"/>
<path d="M205.292 415.928C190.413 424.666 181.643 414.725 180.687 413.562C180.211 412.98 180.017 412.211 180.15 411.455C180.295 410.648 180.78 409.95 181.482 409.538C182.462 408.963 183.699 409.037 184.89 409.741C187.223 410.555 193.249 411.88 200.624 407.548C205.457 404.71 208.792 400.934 210.535 396.33C210.927 395.295 210.643 394.803 210.075 393.815C209.509 392.826 208.803 391.594 208.659 389.489C208.637 389.148 208.809 388.824 209.104 388.651L212.857 386.447C213.197 386.247 213.628 386.292 213.921 386.556C214.215 386.82 214.302 387.247 214.14 387.604C213.739 388.475 213.394 389.666 213.453 390.21C216.237 392.663 217.642 396.259 217.316 400.122C217.031 403.555 215.085 410.177 205.292 415.928ZM182.399 411.099C182.156 411.242 181.979 411.495 181.931 411.773C181.899 411.944 181.902 412.192 182.085 412.418C183.475 414.113 191.076 422.18 204.374 414.369C211.012 410.471 215.073 405.221 215.514 399.968C215.797 396.6 214.543 393.479 212.072 391.405C211.962 391.31 211.875 391.189 211.818 391.054C211.602 390.525 211.615 389.859 211.73 389.208L210.526 389.915C210.713 391.28 211.208 392.143 211.65 392.917C212.276 394.008 212.926 395.14 212.233 396.974C210.34 401.974 206.744 406.058 201.546 409.111C193.424 413.881 186.713 412.312 184.205 411.417C184.145 411.393 184.083 411.366 184.032 411.336C183.39 410.94 182.811 410.857 182.399 411.099Z" fill="black"/>
<path d="M203.368 412.232C197.143 415.887 191.781 415.854 188.379 415.183C187.888 415.085 187.568 414.61 187.667 414.12C187.763 413.627 188.24 413.309 188.729 413.408C191.824 414.019 196.717 414.04 202.452 410.672C207.285 407.834 210.62 404.059 212.363 399.455C212.539 398.986 213.058 398.753 213.529 398.929C213.995 399.106 214.231 399.628 214.054 400.095C212.164 405.094 208.566 409.179 203.368 412.232Z" fill="black"/>
<path d="M184.567 416.317C184.491 416.362 184.408 416.396 184.32 416.418C183.835 416.534 183.347 416.233 183.233 415.746C182.934 414.479 183.179 412.203 184.228 410.31C184.469 409.875 185.019 409.715 185.458 409.959C185.896 410.197 186.055 410.749 185.811 411.188C185.035 412.592 184.786 414.431 184.996 415.333C185.084 415.726 184.903 416.12 184.567 416.317Z" fill="black"/>
<path d="M215.647 394.602C215.359 394.772 214.993 394.773 214.696 394.582C214.588 394.513 214.422 394.437 214.128 394.504C213.459 394.658 212.679 395.408 212.396 395.87C212.133 396.297 211.58 396.431 211.153 396.172C210.727 395.91 210.592 395.354 210.852 394.927C211.29 394.212 212.413 393.038 213.726 392.744C214.428 392.583 215.104 392.694 215.678 393.068C216.097 393.34 216.215 393.902 215.944 394.321C215.867 394.437 215.766 394.533 215.647 394.602Z" fill="black"/>
<path fill-rule="evenodd" clip-rule="evenodd" d="M195.415 357.299C191.037 355.761 186.224 385.936 183.839 400.891L183.71 401.698C181.781 401.524 180.102 401.364 178.904 401.244C177.881 401.142 176.922 401.793 176.706 402.798C174.38 413.598 174.483 430.958 174.546 441.718L174.546 441.718C174.567 445.243 174.583 448.06 174.509 449.705C174.208 456.379 179.093 455.794 184.326 455.168C185.903 454.979 187.512 454.786 189.02 454.787C192.687 454.79 196.368 454.846 200.007 454.901L200.007 454.901C206.564 455 212.987 455.097 218.949 454.881C220.964 454.808 222.865 454.842 224.593 454.872C230.813 454.982 234.78 455.052 233.71 449.963C233.387 448.425 233.037 444.365 232.576 439.009C231.562 427.228 230.008 409.182 227.008 397.938C226.655 396.613 225.064 396.049 223.832 396.65C218.17 399.416 206.536 403.246 200.644 402.98C198.497 402.883 195.584 402.682 192.535 402.445C193.409 397.784 193.83 392.147 194.264 386.336C195.085 375.355 195.952 363.752 200.006 356.941C200.416 356.836 199.81 356.911 198.914 357.023C197.629 357.183 195.748 357.416 195.415 357.299Z" fill="#FFF7EE"/>
<path d="M183.839 400.891L184.949 401.068L184.949 401.068L183.839 400.891ZM195.415 357.299L195.042 358.359L195.415 357.299ZM183.71 401.698L184.82 401.875L184.655 402.912L183.609 402.818L183.71 401.698ZM178.904 401.244L179.016 400.126L179.016 400.126L178.904 401.244ZM176.706 402.798L175.607 402.562L176.706 402.798ZM174.546 441.718L175.67 441.711L175.67 441.724L175.67 441.737L174.546 441.718ZM174.546 441.718L173.422 441.725L173.422 441.712L173.422 441.699L174.546 441.718ZM174.509 449.705L175.632 449.756L174.509 449.705ZM184.326 455.168L184.46 456.283L184.326 455.168ZM189.02 454.787L189.019 455.911L189.02 454.787ZM200.007 454.901L200.021 456.025L200.006 456.025L199.99 456.025L200.007 454.901ZM200.007 454.901L199.993 453.777L200.009 453.777L200.024 453.777L200.007 454.901ZM218.949 454.881L218.909 453.758L218.949 454.881ZM224.593 454.872L224.573 455.996L224.573 455.996L224.593 454.872ZM233.71 449.963L232.611 450.195L233.71 449.963ZM232.576 439.009L231.457 439.105L232.576 439.009ZM227.008 397.938L225.922 398.228L227.008 397.938ZM223.832 396.65L224.325 397.66L224.325 397.66L223.832 396.65ZM200.644 402.98L200.594 404.103L200.644 402.98ZM192.535 402.445L192.448 403.565L191.2 403.468L191.43 402.238L192.535 402.445ZM194.264 386.336L193.144 386.252L194.264 386.336ZM200.006 356.941L199.04 356.366L199.277 355.967L199.727 355.852L200.006 356.941ZM198.914 357.023L198.775 355.908L198.914 357.023ZM182.729 400.714C183.921 393.244 185.726 381.926 187.783 372.666C188.809 368.045 189.911 363.881 191.047 360.952C191.61 359.501 192.214 358.264 192.875 357.423C193.489 356.64 194.507 355.789 195.787 356.239L195.042 358.359C195.228 358.425 195.138 358.18 194.642 358.811C194.192 359.385 193.684 360.37 193.142 361.765C192.071 364.528 190.999 368.554 189.977 373.154C187.937 382.335 186.143 393.583 184.949 401.068L182.729 400.714ZM182.601 401.521L182.729 400.714L184.949 401.068L184.82 401.875L182.601 401.521ZM179.016 400.126C180.21 400.246 181.885 400.405 183.812 400.579L183.609 402.818C181.678 402.643 179.995 402.483 178.792 402.362L179.016 400.126ZM175.607 402.562C175.952 400.959 177.463 399.971 179.016 400.126L178.792 402.362C178.298 402.313 177.892 402.627 177.804 403.035L175.607 402.562ZM173.422 441.725C173.359 431.014 173.25 413.509 175.607 402.562L177.804 403.035C175.511 413.686 175.606 430.903 175.67 441.711L173.422 441.725ZM173.422 441.699L173.422 441.699L175.67 441.737L175.67 441.737L173.422 441.699ZM173.386 449.654C173.459 448.045 173.443 445.266 173.422 441.725L175.67 441.712C175.69 445.22 175.708 448.074 175.632 449.756L173.386 449.654ZM184.46 456.283C183.163 456.439 181.826 456.599 180.579 456.64C179.337 456.68 178.091 456.606 176.988 456.24C175.853 455.864 174.861 455.173 174.203 454.018C173.564 452.894 173.306 451.444 173.386 449.654L175.632 449.756C175.562 451.303 175.801 452.282 176.157 452.906C176.494 453.499 176.994 453.874 177.696 454.107C178.431 454.351 179.369 454.431 180.506 454.394C181.637 454.357 182.873 454.21 184.192 454.052L184.46 456.283ZM189.019 455.911C187.591 455.91 186.051 456.093 184.46 456.283L184.192 454.052C185.755 453.865 187.433 453.662 189.021 453.664L189.019 455.911ZM199.99 456.025C196.349 455.97 192.676 455.914 189.019 455.911L189.021 453.664C192.697 453.667 196.386 453.722 200.024 453.777L199.99 456.025ZM200.021 456.025L200.021 456.025L199.993 453.777L199.993 453.777L200.021 456.025ZM218.99 456.004C212.993 456.221 206.541 456.124 199.99 456.025L200.024 453.777C206.588 453.877 212.98 453.973 218.909 453.758L218.99 456.004ZM224.573 455.996C222.843 455.965 220.97 455.932 218.99 456.004L218.909 453.758C220.958 453.684 222.888 453.718 224.612 453.748L224.573 455.996ZM234.81 449.732C235.101 451.117 235.093 452.339 234.636 453.354C234.16 454.41 233.288 455.046 232.275 455.421C231.292 455.784 230.107 455.93 228.844 455.989C227.571 456.049 226.117 456.023 224.573 455.996L224.612 453.748C226.178 453.776 227.553 453.8 228.739 453.744C229.936 453.688 230.843 453.554 231.495 453.313C232.118 453.083 232.426 452.789 232.587 452.431C232.767 452.031 232.854 451.354 232.611 450.195L234.81 449.732ZM233.696 438.913C234.162 444.323 234.505 448.281 234.81 449.732L232.611 450.195C232.269 448.569 231.913 444.406 231.457 439.105L233.696 438.913ZM228.094 397.648C231.125 409.01 232.685 427.171 233.696 438.913L231.457 439.105C230.439 427.286 228.891 409.355 225.922 398.228L228.094 397.648ZM223.339 395.641C225.082 394.789 227.524 395.513 228.094 397.648L225.922 398.228C225.785 397.714 225.046 397.308 224.325 397.66L223.339 395.641ZM200.695 401.857C203.443 401.981 207.672 401.139 212.01 399.873C216.316 398.617 220.578 396.99 223.339 395.641L224.325 397.66C221.425 399.077 217.039 400.747 212.639 402.031C208.272 403.305 203.738 404.245 200.594 404.103L200.695 401.857ZM192.622 401.325C195.668 401.562 198.567 401.761 200.695 401.857L200.594 404.103C198.428 404.005 195.5 403.803 192.448 403.565L192.622 401.325ZM195.385 386.419C194.952 392.212 194.527 397.918 193.639 402.652L191.43 402.238C192.29 397.651 192.708 392.082 193.144 386.252L195.385 386.419ZM200.971 357.516C199.055 360.736 197.852 365.17 197.032 370.254C196.215 375.322 195.796 380.918 195.385 386.419L193.144 386.252C193.553 380.772 193.978 375.077 194.813 369.896C195.646 364.731 196.903 359.957 199.04 356.366L200.971 357.516ZM198.775 355.908C199.213 355.853 199.611 355.804 199.846 355.782C199.905 355.776 199.971 355.771 200.032 355.769C200.06 355.767 200.107 355.766 200.161 355.768C200.187 355.769 200.232 355.772 200.286 355.78C200.322 355.785 200.45 355.803 200.598 355.87C200.673 355.904 201.27 356.187 201.26 356.912C201.256 357.222 201.128 357.445 201.044 357.56C200.959 357.677 200.87 357.751 200.822 357.789C200.666 357.909 200.507 357.962 200.503 357.964C200.423 357.994 200.338 358.016 200.284 358.03L199.727 355.852C199.776 355.84 199.762 355.842 199.723 355.856C199.71 355.861 199.683 355.871 199.647 355.888C199.623 355.9 199.54 355.939 199.447 356.011C199.4 356.047 199.312 356.121 199.228 356.236C199.145 356.35 199.017 356.572 199.013 356.881C199.003 357.604 199.598 357.885 199.67 357.917C199.815 357.983 199.939 358 199.967 358.004C200.015 358.011 200.052 358.013 200.069 358.014C200.088 358.015 200.102 358.015 200.109 358.015C200.117 358.014 200.121 358.014 200.122 358.014C200.123 358.014 200.118 358.014 200.105 358.015C200.092 358.016 200.075 358.018 200.053 358.02C199.863 358.037 199.511 358.081 199.053 358.138L198.775 355.908ZM195.787 356.239C195.668 356.197 195.596 356.202 195.667 356.205C195.709 356.208 195.78 356.208 195.885 356.205C196.094 356.198 196.374 356.177 196.702 356.146C197.355 356.084 198.129 355.988 198.775 355.908L199.053 358.138C198.414 358.217 197.606 358.318 196.914 358.384C196.569 358.416 196.236 358.442 195.958 358.451C195.82 358.456 195.679 358.457 195.549 358.45C195.448 358.444 195.245 358.431 195.042 358.359L195.787 356.239Z" fill="black"/>
<path d="M221.57 403.52C223.482 414.81 226.408 437.658 225.43 442.551" stroke="black" stroke-width="2.10843" stroke-linecap="round" stroke-linejoin="round"/>
<g clip-path="url(#clip3_1752_33473)">
<path d="M182.351 430.808C182.351 430.808 182.065 431.161 182.377 431.661C182.377 431.661 182.447 431.421 182.989 431.457L183.639 431.499C184.252 431.539 184.751 430.982 184.501 430.358C184.501 430.358 184.931 430.432 185.094 430.17C185.255 429.909 185.109 429.79 184.892 429.776L183.8 429.706C183.788 429.9 183.416 429.903 183.43 429.682L182.817 429.642C182.817 429.642 182.356 429.612 182.322 429.999C182.322 429.999 182.43 429.943 182.534 429.941L182.528 430.044C182.528 430.044 182.4 430.059 182.339 430.087C182.278 430.114 182.187 430.195 182.254 430.421C182.321 430.647 182.348 430.726 182.348 430.726C182.348 430.726 182.486 430.621 182.698 430.635L182.946 430.651C183.388 430.68 183.279 431.103 182.837 431.075C182.395 431.046 182.352 430.808 182.352 430.808L182.351 430.808Z" fill="#DB0000"/>
<path d="M184.683 430.513C184.683 430.513 184.831 430.532 184.945 430.445C184.945 430.445 185.875 431.271 184.323 432.711C182.77 434.151 183.829 435.217 183.829 435.217C183.829 435.217 183.551 435.452 183.668 435.954C183.668 435.954 183.086 435.573 182.661 434.964C182.047 434.083 181.722 432.775 183.623 431.872C183.623 431.872 184.873 431.342 184.682 430.513L184.683 430.513Z" fill="#DB0000"/>
<path d="M183.235 429.531C183.235 429.531 183.453 429.194 183.907 429.224C184.266 429.247 184.359 429.069 184.359 429.069C184.359 429.069 184.535 428.781 185.323 428.832C186.045 428.879 186.517 429.152 186.89 429.499C186.89 429.499 185.87 428.771 184.763 429.63L183.235 429.531Z" fill="#DB0000"/>
<path d="M187.501 432.021C187.542 430.929 186.775 429.708 184.96 429.656C186.826 428.273 189.678 431.817 187.036 433.411C187.036 433.411 187.498 432.835 187.501 432.021L187.501 432.021Z" fill="#DB0000"/>
<path d="M185.226 429.797C187.439 429.874 188.056 432.573 186.552 433.672L185.075 434.271C185.075 434.271 184.928 433.657 185.666 432.998C186.403 432.339 187.157 431.065 185.3 430.074C185.3 430.074 185.348 429.896 185.227 429.797L185.226 429.797Z" fill="#DB0000"/>
<path d="M185.088 430.393C185.088 430.393 185.203 430.298 185.245 430.216C186.843 431.008 186.509 432.153 185.465 433.064C184.823 433.645 184.966 434.325 184.966 434.325C184.966 434.325 184.203 434.734 183.924 435.115C183.924 435.115 182.92 434.141 184.489 432.735C186.029 431.355 185.088 430.393 185.088 430.393L185.088 430.393Z" fill="#DB0000"/>
</g>
<g clip-path="url(#clip4_1752_33473)">
<path d="M197.642 430.408C197.642 430.408 197.421 430.804 197.814 431.244C197.814 431.244 197.842 430.996 198.381 430.937L199.029 430.867C199.64 430.801 200.036 430.168 199.683 429.596C199.683 429.596 200.119 429.594 200.234 429.309C200.349 429.024 200.185 428.932 199.969 428.956L198.881 429.073C198.902 429.267 198.536 429.333 198.512 429.113L197.901 429.179C197.901 429.179 197.442 429.228 197.475 429.616C197.475 429.616 197.572 429.542 197.674 429.522L197.685 429.625C197.685 429.625 197.561 429.661 197.506 429.699C197.451 429.737 197.375 429.831 197.48 430.043C197.585 430.255 197.624 430.328 197.624 430.328C197.624 430.328 197.743 430.201 197.954 430.178L198.202 430.151C198.642 430.104 198.607 430.54 198.167 430.587C197.726 430.635 197.642 430.407 197.642 430.407L197.642 430.408Z" fill="#DB0000"/>
<path d="M199.9 429.714C199.9 429.714 200.049 429.707 200.147 429.601C200.147 429.601 201.205 430.256 199.922 431.94C198.639 433.625 199.865 434.494 199.865 434.494C199.865 434.494 199.632 434.773 199.833 435.248C199.833 435.248 199.194 434.973 198.671 434.445C197.916 433.683 197.371 432.45 199.089 431.234C199.089 431.234 200.23 430.497 199.9 429.714L199.9 429.714Z" fill="#DB0000"/>
<path d="M198.3 428.989C198.3 428.989 198.458 428.621 198.91 428.572C199.267 428.533 199.328 428.342 199.328 428.342C199.328 428.342 199.452 428.028 200.237 427.943C200.957 427.866 201.468 428.053 201.895 428.331C201.895 428.331 200.766 427.789 199.823 428.825L198.3 428.989Z" fill="#DB0000"/>
<path d="M202.926 430.716C202.779 429.634 201.814 428.562 200.017 428.823C201.618 427.14 205.036 430.143 202.706 432.166C202.706 432.166 203.063 431.519 202.926 430.717L202.926 430.716Z" fill="#DB0000"/>
<path d="M200.32 428.918C202.513 428.615 203.584 431.168 202.291 432.508L200.939 433.352C200.939 433.352 200.688 432.772 201.302 431.996C201.916 431.221 202.439 429.836 200.44 429.178C200.44 429.178 200.457 428.995 200.321 428.918L200.32 428.918Z" fill="#DB0000"/>
<path d="M200.28 429.519C200.28 429.519 200.377 429.405 200.404 429.318C202.114 429.824 201.981 431.009 201.109 432.086C200.576 432.768 200.834 433.413 200.834 433.413C200.834 433.413 200.152 433.948 199.943 434.371C199.943 434.371 198.786 433.584 200.091 431.929C201.372 430.305 200.28 429.519 200.28 429.519L200.28 429.519Z" fill="#DB0000"/>
</g>
<path d="M187.251 416.699C187.251 416.699 187.03 417.095 187.423 417.535C187.423 417.535 187.451 417.287 187.991 417.228L188.638 417.158C189.25 417.092 189.645 416.459 189.292 415.887C189.292 415.887 189.729 415.886 189.844 415.6C189.958 415.315 189.794 415.223 189.578 415.247L188.49 415.364C188.511 415.558 188.145 415.624 188.121 415.404L187.51 415.47C187.51 415.47 187.051 415.519 187.084 415.907C187.084 415.907 187.181 415.833 187.283 415.813L187.294 415.916C187.294 415.916 187.171 415.952 187.116 415.99C187.061 416.028 186.984 416.122 187.089 416.334C187.194 416.546 187.234 416.619 187.234 416.619C187.234 416.619 187.352 416.492 187.564 416.469L187.811 416.442C188.251 416.395 188.216 416.831 187.776 416.878C187.335 416.926 187.252 416.698 187.252 416.698L187.251 416.699Z" fill="#DB0000"/>
<path d="M189.525 416.006C189.525 416.006 189.674 415.999 189.772 415.893C189.772 415.893 190.83 416.548 189.547 418.232C188.264 419.917 189.49 420.786 189.49 420.786C189.49 420.786 189.257 421.066 189.458 421.54C189.458 421.54 188.819 421.265 188.296 420.737C187.541 419.975 186.996 418.742 188.714 417.526C188.714 417.526 189.855 416.789 189.525 416.006L189.525 416.006Z" fill="#DB0000"/>
<path d="M187.917 415.289C187.917 415.289 188.075 414.92 188.527 414.872C188.884 414.833 188.946 414.641 188.946 414.641C188.946 414.641 189.069 414.328 189.855 414.243C190.574 414.165 191.085 414.353 191.512 414.631C191.512 414.631 190.383 414.089 189.44 415.125L187.917 415.289Z" fill="#DB0000"/>
<path d="M192.551 417.005C192.404 415.924 191.439 414.851 189.642 415.112C191.243 413.429 194.661 416.432 192.331 418.455C192.331 418.455 192.688 417.808 192.551 417.006L192.551 417.005Z" fill="#DB0000"/>
<path d="M189.914 415.205C192.107 414.902 193.177 417.455 191.885 418.795L190.532 419.639C190.532 419.639 190.282 419.059 190.896 418.283C191.51 417.508 192.033 416.123 190.034 415.465C190.034 415.465 190.05 415.282 189.915 415.206L189.914 415.205Z" fill="#DB0000"/>
<path d="M189.889 415.814C189.889 415.814 189.986 415.7 190.013 415.612C191.723 416.119 191.591 417.304 190.718 418.381C190.185 419.063 190.443 419.708 190.443 419.708C190.443 419.708 189.761 420.243 189.552 420.666C189.552 420.666 188.396 419.879 189.701 418.224C190.981 416.6 189.889 415.814 189.889 415.814L189.889 415.814Z" fill="#DB0000"/>
<g clip-path="url(#clip5_1752_33473)">
<path d="M205.195 415.38C205.195 415.38 205.008 415.794 205.438 416.199C205.438 416.199 205.444 415.949 205.977 415.844L206.616 415.719C207.219 415.601 207.559 414.935 207.158 414.396C207.158 414.396 207.593 414.357 207.683 414.063C207.773 413.769 207.601 413.692 207.388 413.733L206.314 413.944C206.351 414.135 205.993 414.233 205.95 414.015L205.347 414.134C205.347 414.134 204.894 414.222 204.96 414.606C204.96 414.606 205.05 414.524 205.15 414.495L205.17 414.597C205.17 414.597 205.05 414.643 204.999 414.686C204.947 414.728 204.879 414.829 205.002 415.031C205.124 415.232 205.17 415.302 205.17 415.302C205.17 415.302 205.277 415.165 205.486 415.124L205.73 415.077C206.165 414.991 206.168 415.429 205.733 415.514C205.298 415.599 205.195 415.38 205.195 415.38L205.195 415.38Z" fill="#DB0000"/>
<path d="M207.386 414.491C207.386 414.491 207.534 414.472 207.622 414.358C207.622 414.358 208.732 414.919 207.599 416.708C206.465 418.497 207.762 419.257 207.762 419.257C207.762 419.257 207.553 419.555 207.794 420.011C207.794 420.011 207.134 419.792 206.568 419.311C205.749 418.616 205.101 417.434 206.708 416.076C206.708 416.076 207.781 415.243 207.385 414.491L207.386 414.491Z" fill="#DB0000"/>
<path d="M205.707 413.909C205.707 413.909 205.832 413.528 206.279 413.441C206.631 413.372 206.676 413.176 206.676 413.176C206.676 413.176 206.772 412.853 207.547 412.701C208.258 412.561 208.783 412.704 209.232 412.945C209.232 412.945 208.061 412.502 207.21 413.615L205.707 413.909Z" fill="#DB0000"/>
<path d="M210.47 415.231C210.23 414.166 209.177 413.18 207.408 413.594C208.859 411.78 212.522 414.478 210.375 416.694C210.375 416.694 210.675 416.019 210.47 415.231L210.47 415.231Z" fill="#DB0000"/>
<path d="M207.703 413.66C209.862 413.17 211.148 415.621 209.975 417.068L208.7 418.024C208.7 418.024 208.401 417.469 208.946 416.643C209.491 415.817 209.893 414.393 207.845 413.909C207.845 413.909 207.846 413.725 207.704 413.661L207.703 413.66Z" fill="#DB0000"/>
<path d="M207.725 414.269C207.725 414.269 207.812 414.148 207.831 414.058C209.579 414.416 209.549 415.608 208.772 416.756C208.3 417.481 208.612 418.102 208.612 418.102C208.612 418.102 207.978 418.693 207.806 419.132C207.806 419.132 206.587 418.447 207.744 416.687C208.88 414.959 207.725 414.27 207.725 414.27L207.725 414.269Z" fill="#DB0000"/>
</g>
<g clip-path="url(#clip6_1752_33473)">
<path d="M213.604 429.234C213.604 429.234 213.46 429.664 213.927 430.024C213.927 430.024 213.909 429.775 214.428 429.618L215.051 429.429C215.64 429.251 215.912 428.555 215.459 428.059C215.459 428.059 215.888 427.976 215.948 427.675C216.008 427.373 215.829 427.314 215.622 427.376L214.574 427.693C214.63 427.879 214.283 428.013 214.219 427.8L213.63 427.978C213.63 427.978 213.189 428.112 213.293 428.487C213.293 428.487 213.374 428.396 213.471 428.357L213.501 428.457C213.501 428.457 213.386 428.515 213.339 428.562C213.292 428.61 213.235 428.717 213.377 428.905C213.519 429.094 213.571 429.158 213.571 429.158C213.571 429.158 213.664 429.012 213.868 428.95L214.106 428.878C214.53 428.75 214.576 429.185 214.152 429.313C213.728 429.441 213.604 429.233 213.604 429.233L213.604 429.234Z" fill="#DB0000"/>
<path d="M215.714 428.134C215.714 428.134 215.859 428.099 215.935 427.977C215.935 427.977 217.096 428.425 216.147 430.318C215.198 432.211 216.564 432.838 216.564 432.838C216.564 432.838 216.386 433.156 216.671 433.585C216.671 433.585 215.993 433.433 215.381 433.011C214.497 432.401 213.734 431.29 215.198 429.778C215.198 429.778 216.182 428.843 215.713 428.134L215.714 428.134Z" fill="#DB0000"/>
<path d="M214.022 427.718C214.022 427.718 214.108 427.327 214.544 427.195C214.887 427.091 214.913 426.892 214.913 426.892C214.913 426.892 214.976 426.561 215.732 426.332C216.425 426.123 216.962 426.212 217.433 426.407C217.433 426.407 216.224 426.083 215.488 427.275L214.022 427.718Z" fill="#DB0000"/>
<path d="M218.889 428.554C218.544 427.518 217.397 426.643 215.679 427.232C216.942 425.282 220.855 427.601 218.941 430.019C218.941 430.019 219.171 429.318 218.889 428.555L218.889 428.554Z" fill="#DB0000"/>
<path d="M215.969 427.265C218.068 426.561 219.592 428.872 218.569 430.428L217.397 431.508C217.397 431.508 217.043 430.984 217.503 430.108C217.963 429.232 218.221 427.775 216.135 427.498C216.135 427.498 216.117 427.315 215.97 427.265L215.969 427.265Z" fill="#DB0000"/>
<path d="M216.05 427.875C216.05 427.875 216.124 427.746 216.134 427.655C217.909 427.836 217.998 429.025 217.339 430.245C216.942 431.014 217.314 431.6 217.314 431.6C217.314 431.6 216.743 432.252 216.616 432.706C216.616 432.706 215.334 432.146 216.31 430.279C217.268 428.446 216.05 427.876 216.05 427.876L216.05 427.875Z" fill="#DB0000"/>
</g>
</g>
</g>
<path d="M103 23.5L115.5 28.5" stroke="#568DF4" stroke-width="3" stroke-linecap="round"/>
<path d="M136 11.5V21" stroke="#568DF4" stroke-width="3" stroke-linecap="round"/>
<defs>
<clipPath id="clip0_1752_33473">
<rect width="525.471" height="793.26" fill="white" transform="translate(95.5312 -25.8076)"/>
</clipPath>
<clipPath id="clip1_1752_33473">
<rect width="186.947" height="156.631" fill="white" transform="translate(250.922 110.039)"/>
</clipPath>
<clipPath id="clip2_1752_33473">
<rect width="71.6867" height="107.53" fill="white" transform="translate(166.102 352.029)"/>
</clipPath>
<clipPath id="clip3_1752_33473">
<rect width="8.84615" height="8.84615" fill="white" transform="translate(180.93 427.622) rotate(3.71326)"/>
</clipPath>
<clipPath id="clip4_1752_33473">
<rect width="8.84615" height="8.84615" fill="white" transform="translate(195.68 427.51) rotate(-6.16071)"/>
</clipPath>
<clipPath id="clip5_1752_33473">
<rect width="8.84615" height="8.84615" fill="white" transform="translate(203.008 412.655) rotate(-11.09)"/>
</clipPath>
<clipPath id="clip6_1752_33473">
<rect width="8.84614" height="8.84614" fill="white" transform="translate(211.172 426.748) rotate(-16.8188)"/>
</clipPath>
</defs>
</svg>
