<svg width="452" height="440" viewBox="0 0 452 440" fill="none" xmlns="http://www.w3.org/2000/svg">
<g clip-path="url(#clip0_1600_65683)">
<rect x="1" y="26.3867" width="408.612" height="408.612" rx="204.306" fill="#F7F9FE"/>
<rect x="1" y="26.3867" width="408.612" height="408.612" rx="204.306" stroke="#E7EFFC" stroke-width="2"/>
<mask id="mask0_1600_65683" style="mask-type:alpha" maskUnits="userSpaceOnUse" x="2" y="27" width="407" height="407">
<circle cx="205.306" cy="230.693" r="203.306" fill="#F7F9FE"/>
</mask>
<g mask="url(#mask0_1600_65683)">
<g opacity="0.7">
<path d="M-15.5 64.3008H682.022" stroke="#E7EFFC" stroke-linejoin="round"/>
<path d="M-15.5 107.488H682.022" stroke="#E7EFFC" stroke-linejoin="round"/>
<path d="M-15.5 150.686H682.022" stroke="#E7EFFC" stroke-linejoin="round"/>
<path d="M-15.5 193.873H682.022" stroke="#E7EFFC" stroke-linejoin="round"/>
<path d="M-15.5 237.064H682.022" stroke="#E7EFFC" stroke-linejoin="round"/>
<path d="M-15.5 280.258H682.022" stroke="#E7EFFC" stroke-linejoin="round"/>
<path d="M-15.5 323.444H682.022" stroke="#E7EFFC" stroke-linejoin="round"/>
<path d="M-15.5 366.635H682.022" stroke="#E7EFFC" stroke-linejoin="round"/>
<path d="M-15.5 409.818H682.022" stroke="#E7EFFC" stroke-linejoin="round"/>
</g>
<g opacity="0.7">
<path d="M376.438 17.8613L376.437 715.383" stroke="#E7EFFC" stroke-linejoin="round"/>
<path d="M333.258 17.8613L333.258 715.383" stroke="#E7EFFC" stroke-linejoin="round"/>
<path d="M290.078 17.8613L290.078 715.383" stroke="#E7EFFC" stroke-linejoin="round"/>
<path d="M246.883 17.8613L246.883 715.383" stroke="#E7EFFC" stroke-linejoin="round"/>
<path d="M203.672 17.8613L203.672 715.383" stroke="#E7EFFC" stroke-linejoin="round"/>
<path d="M160.492 17.8613L160.492 715.383" stroke="#E7EFFC" stroke-linejoin="round"/>
<path d="M117.297 17.8613L117.297 715.383" stroke="#E7EFFC" stroke-linejoin="round"/>
<path d="M74.1094 17.8613L74.1093 715.383" stroke="#E7EFFC" stroke-linejoin="round"/>
<path d="M30.9141 17.8613L30.914 715.383" stroke="#E7EFFC" stroke-linejoin="round"/>
</g>
<g clip-path="url(#clip1_1600_65683)">
<path d="M112.326 84.9445L112.326 84.9459C118.806 117.349 145.88 140.379 177.188 143.102L200.406 158.626L201.318 159.236L201.93 158.323L217.523 135.063C245.581 120.362 261.771 88.5815 255.29 56.174C247.453 16.7305 209.085 -8.81804 169.619 -0.873396C130.152 7.07112 104.489 45.5007 112.326 84.9445Z" fill="#ACC7FA" stroke="black" stroke-width="2.2"/>
<path d="M402.305 484.049C409.208 451.479 397.234 420.556 387.092 413.872C387.092 413.872 374.065 403.465 352.513 400.218C330.961 396.972 316.382 402.816 316.382 402.816C301.169 444.827 274.896 516.931 274.896 538.289C274.896 546.886 285.038 718.926 280.601 726.087H314.83C314.83 726.087 316.382 591.174 321.803 560.336C327.224 529.498 337.016 487.305 337.016 487.305C337.016 487.305 347.792 563.092 359.835 582.383C371.879 601.674 420.687 711.909 420.687 711.909L449.211 689.862C427.558 641.35 413.689 609.742 406.108 582.383C394.654 541.045 397.808 505.266 402.305 484.049Z" fill="#DFE1F2" stroke="black" stroke-width="2.39999" stroke-linecap="round" stroke-linejoin="round"/>
<path d="M336.791 488.251C336.791 488.251 334.264 462.16 334.264 431.226C334.264 431.226 330.475 456.261 329.843 470.865C329.212 485.469 331.738 511.2 331.738 511.2L336.791 488.251Z" fill="black" stroke="black" stroke-width="2.39999" stroke-linecap="round" stroke-linejoin="round"/>
<path d="M348.616 253.33C308.195 257.12 293.459 246.804 282.301 242.594C281.212 260.296 267.774 277.12 262.722 284.278C278.385 289.835 312.195 287.856 327.143 286.172C300.869 330.13 292.616 382.803 291.774 410.593C316.58 410.593 335.491 413.666 360.791 417.558C385.422 421.348 395.563 415.014 406.721 412.487C394.595 405.919 390.932 362.803 390.932 336.698C398.511 332.277 417.458 329.119 430.09 325.962C422.005 296.151 392.195 260.067 378.3 245.751L348.616 253.33Z" fill="#ACC7FA"/>
<path d="M390.932 336.698C398.511 332.277 417.458 329.119 430.09 325.962C422.005 296.151 392.195 260.067 378.3 245.751L348.616 253.33C308.195 257.12 293.459 246.804 282.301 242.594C281.212 260.296 267.774 277.12 262.722 284.278C278.385 289.835 312.195 287.856 327.143 286.172M390.932 336.698C390.932 362.803 394.595 405.919 406.721 412.487C395.563 415.014 385.422 421.348 360.791 417.558C335.491 413.666 316.58 410.593 291.774 410.593C292.616 382.803 300.869 330.13 327.143 286.172M390.932 336.698L378.3 343.014C378.3 319.664 378.3 298.822 375.774 280.488M327.143 286.172C329.176 282.635 333.848 277.559 336.159 274.822" stroke="black" stroke-width="2.39999" stroke-linecap="round" stroke-linejoin="round"/>
<path d="M297.459 410.593C290.89 391.393 302.301 352.698 306.301 332.909C299.732 352.614 292.616 390.172 291.143 410.593H297.459Z" fill="black" stroke="black" stroke-width="2.39999" stroke-linecap="round" stroke-linejoin="round"/>
<path d="M261.459 283.646C258.932 283.141 258.62 274.593 259.673 269.751C262.199 270.383 269.212 267.243 272.37 267.875C270.475 272.296 263.985 284.151 261.459 283.646Z" fill="black" stroke="black" stroke-width="2.39999" stroke-linecap="round" stroke-linejoin="round"/>
<path d="M429.632 325.98C425.211 333.558 408.79 360.085 378.475 343.062C394.896 332.927 417.633 325.348 429.632 325.98Z" fill="black" stroke="black" stroke-width="2.39999" stroke-linecap="round" stroke-linejoin="round"/>
<path d="M248.194 221.12C249.71 229.709 270.3 238.593 281.668 242.593C281.668 256.235 272.826 266.383 268.405 270.383C260.826 270.383 227.354 255.225 224.195 237.541C222.418 227.593 224.616 167.225 227.984 140.278C222.3 135.857 226.089 125.12 227.984 120.067C229.5 116.025 238.3 120.067 242.51 122.594C248.826 111.225 261.347 114.151 257.669 116.91C250.09 122.594 249.668 131.015 248.194 137.12C242.51 140.909 246.3 210.383 248.194 221.12Z" fill="#D98F6F" stroke="black" stroke-width="2.39999" stroke-linecap="round" stroke-linejoin="round"/>
<path d="M248.194 221.12C249.71 229.709 270.3 238.593 281.668 242.593C281.668 256.235 272.826 266.383 268.405 270.383C260.826 270.383 227.354 255.225 224.195 237.541C222.418 227.593 224.615 167.225 227.984 140.278C222.3 135.857 226.089 125.12 227.984 120.067C229.5 116.025 238.3 120.067 242.51 122.594C248.826 111.225 261.347 114.151 257.669 116.91C250.09 122.594 249.511 130.979 248.194 137.12C247.107 142.191 246.3 210.383 248.194 221.12Z" fill="#F5B896" stroke="black" stroke-width="2.2" stroke-linejoin="round"/>
<path d="M240.253 124.734C239.307 127.331 232.966 126 228.706 124.447C224.446 122.893 224.129 121.021 224.826 119.109C225.523 117.197 226.971 115.968 231.231 117.522C235.491 119.075 241.2 122.138 240.253 124.734Z" fill="#F5B896" stroke="black" stroke-width="2.39999" stroke-linecap="round" stroke-linejoin="round"/>
<path d="M237.727 131.05C236.78 133.647 230.44 132.316 226.18 130.762C221.92 129.209 221.602 127.337 222.3 125.425C222.997 123.512 224.445 122.284 228.705 123.837C232.965 125.391 238.674 128.453 237.727 131.05Z" fill="#F5B896" stroke="black" stroke-width="2.39999" stroke-linecap="round" stroke-linejoin="round"/>
<path d="M236.464 137.366C235.517 139.963 229.177 138.632 224.917 137.078C220.656 135.525 220.339 133.653 221.037 131.741C221.734 129.828 223.181 128.6 227.442 130.153C231.702 131.707 237.411 134.769 236.464 137.366Z" fill="#F5B896" stroke="black" stroke-width="2.39999" stroke-linecap="round" stroke-linejoin="round"/>
<path d="M377.842 242.679L346.707 250.652L336.289 264.605C301.179 310.094 287.969 386.861 287.086 416.096C307.622 408.787 344.72 412.773 358.631 419.418C369.76 424.733 395.949 420.747 407.653 418.089C411.809 402.143 404.522 362.941 391.091 338.357C399.041 333.706 418.915 330.384 432.164 327.062C423.684 295.701 392.416 257.74 377.842 242.679Z" fill="#ACC7FA"/>
<path d="M391.091 338.357C399.041 333.706 418.915 330.384 432.164 327.062C423.684 295.701 392.416 257.74 377.842 242.679L346.707 250.652L336.289 264.605C301.179 310.094 287.969 386.861 287.086 416.096C307.622 408.787 344.72 412.773 358.631 419.418C369.76 424.733 395.949 420.747 407.653 418.089C411.809 402.143 404.522 362.941 391.091 338.357ZM391.091 338.357L377.842 345.002C381.155 329.72 375.374 289.854 371.4 267.263" stroke="black" stroke-width="2.24041" stroke-linecap="round" stroke-linejoin="round"/>
<path d="M432.135 327.061C418.592 335.704 388.369 351.592 378.477 345.666C395.259 338.875 430.016 325.58 432.135 327.061Z" fill="black" stroke="black" stroke-width="2.52484" stroke-linecap="round" stroke-linejoin="round"/>
<path d="M383.776 342.344L401 419.418C401 413.621 391.726 365.62 387.088 342.344H383.776Z" fill="black" stroke="black" stroke-width="2.52484" stroke-linecap="round" stroke-linejoin="round"/>
<path d="M348.843 255.304C351.493 254.772 352.155 258.626 352.155 260.619L353.48 251.981C350.3 251.981 342.439 250.652 339.568 249.988C339.789 248.216 339.966 244.672 338.906 244.672C337.846 244.672 336.256 246.444 335.594 247.33V263.941C338.906 263.941 345.531 255.968 348.843 255.304Z" fill="#E74F4F" stroke="black" stroke-width="2.24041" stroke-linecap="round" stroke-linejoin="round"/>
<path d="M351.722 261.283C350.397 265.934 345.097 269.256 346.422 285.867" stroke="black" stroke-width="2.24041" stroke-linecap="round" stroke-linejoin="round"/>
<g clip-path="url(#clip2_1600_65683)">
<path d="M298.998 164.368C301.16 157.404 309.273 146.684 316.051 146.684C313.637 152.747 309.474 178.263 309.273 185.842C304.051 185.842 293.314 182.684 298.998 164.368Z" fill="#BFC2C8" stroke="black" stroke-width="2.39999" stroke-linecap="round" stroke-linejoin="round"/>
<path d="M307.209 211.119V164.368C307.209 159.315 310.367 141 341.314 140.368C372.261 139.737 377.314 161.21 377.314 161.21C377.314 173.307 373.484 180.1 368.742 183.782C373.966 180.64 381.875 178.154 383.629 186.488C385.65 196.088 375.208 199.751 369.735 200.382C365.693 222.108 369.735 238.066 372.261 243.329C367.208 253.435 349.524 251.75 341.314 249.645V233.856C307.461 234.866 307.209 222.487 307.209 211.119Z" fill="#F5B896" stroke="black" stroke-width="2.2" stroke-linejoin="round"/>
<path d="M340.43 234.192C344.856 233.991 352.125 232.675 354.086 229.033C354.168 228.854 354.248 228.679 354.325 228.508C354.258 228.688 354.178 228.863 354.086 229.033C351.019 235.721 344.367 248.366 340.43 249.35V234.192Z" fill="black" stroke="black" stroke-width="2.39999" stroke-linecap="round" stroke-linejoin="round"/>
<path d="M365.945 183.316C371.629 169.42 372.892 159.947 368.471 149.21C372.892 147 378.577 153 382.366 159.947C387.879 170.053 382.366 183.946 382.366 183.946C374.156 175.105 362.965 190.602 365.945 183.316Z" fill="#BFC2C8" stroke="black" stroke-width="2.39999" stroke-linecap="round" stroke-linejoin="round"/>
<path d="M343.209 155.307C340.051 152.999 327.419 152.367 321.735 155.307" stroke="black" stroke-width="1.89473" stroke-linecap="round" stroke-linejoin="round"/>
<path d="M337.524 158.685C333.314 157.422 331.461 157.169 327.419 158.684" stroke="black" stroke-width="1.89473" stroke-linecap="round" stroke-linejoin="round"/>
<path d="M336.475 195.839C335.459 192.502 331.929 190.622 328.593 191.638C325.256 192.655 323.375 196.184 324.392 199.521C324.994 201.497 326.478 202.963 328.282 203.618" stroke="black" stroke-width="1.89473" stroke-linecap="round" stroke-linejoin="round"/>
<circle cx="340.987" cy="192.023" r="1.89473" fill="black"/>
<circle cx="320.344" cy="191.139" r="1.89473" fill="black"/>
<path d="M339.923 179.139C341.186 176.613 347.502 176.613 348.134 182.297" stroke="black" stroke-width="1.89473" stroke-linecap="round" stroke-linejoin="round"/>
<path d="M323.502 180.654C322.871 178.507 316.555 177.244 316.555 182.535" stroke="black" stroke-width="1.89473" stroke-linecap="round" stroke-linejoin="round"/>
<path d="M336.634 219.624C344.485 217.448 347.712 206.799 348.344 201.747C341.889 207.492 329.075 211.889 318.067 206.485C319.407 216.6 327.292 222.213 336.634 219.624Z" fill="black" stroke="black" stroke-width="1.89473" stroke-linecap="round" stroke-linejoin="round"/>
<path d="M334.235 216.087C330.201 213.498 326.322 215.597 324.887 216.97C335.528 222.28 340.871 216.47 342.212 212.901C339.158 210.561 335.621 214.05 334.235 216.087Z" fill="white"/>
<circle cx="8.21049" cy="8.21049" r="8.21049" transform="matrix(-1 0 0 1 351.125 180.949)" stroke="black" stroke-width="1.89473" stroke-linecap="round" stroke-linejoin="round"/>
<path d="M311.571 189.159C311.571 193.694 315.247 197.37 319.781 197.37C321.148 197.37 322.437 197.036 323.571 196.445C323.571 196.445 323.571 195.118 324.834 193.58C326.017 192.14 327.596 191.686 327.596 191.686C327.853 190.89 327.992 190.041 327.992 189.159C327.992 184.625 324.316 180.949 319.781 180.949C315.247 180.949 311.571 184.625 311.571 189.159Z" stroke="black" stroke-width="1.89473" stroke-linecap="round" stroke-linejoin="round"/>
<path d="M367.546 182.843C363.756 184.949 355.419 189.159 352.388 189.159" stroke="black" stroke-width="1.89473" stroke-linecap="round" stroke-linejoin="round"/>
</g>
<path d="M319.181 335.957C321.014 327.805 312.581 325.223 308.135 324.951L336.329 321.032C337.573 334.04 339.925 361.27 339.387 366.123C338.849 370.976 329.851 380.054 325.42 383.986C320.904 382.667 312.722 379.801 316.129 378.882C320.388 377.733 323.62 357.445 323.098 349.739C322.575 342.034 316.891 346.146 319.181 335.957Z" fill="#454953" stroke="black" stroke-width="1.63106" stroke-linejoin="round"/>
<path d="M332.343 305.976C329.086 302.483 307.893 301.135 297.703 300.898L305.972 316.119L343.806 317.267C341.342 314.958 335.6 309.468 332.343 305.976Z" fill="#505660" stroke="black" stroke-width="1.63106" stroke-linejoin="round"/>
<path d="M343.763 316.651L311.331 315.454L303.192 325.912C313.715 326.141 335.519 326.38 338.556 325.495C341.593 324.609 343.292 319.23 343.763 316.651Z" fill="#2C2E34" stroke="black" stroke-width="1.63106" stroke-linejoin="round"/>
<path d="M305.863 304.367C303.374 299.587 293.538 300.891 288.931 302.141C285.675 306.018 288.264 316.245 290.222 321.174C292.18 326.102 303.302 326.473 309.962 324.896C316.622 323.32 308.975 310.342 305.863 304.367Z" fill="black" stroke="black" stroke-width="1.63106" stroke-linejoin="round"/>
<path d="M317.905 389.636C316.166 387.69 315.244 382.84 315 380.659L325.061 385.137L324.46 393.205C323 392.827 319.644 391.582 317.905 389.636Z" fill="#2C2E34" stroke="black" stroke-width="1.63106" stroke-linejoin="round"/>
<path d="M339.652 378.359C338.647 382.237 329.164 389.81 324.547 393.112L324.768 384.692C328.996 380.856 337.745 372.044 338.914 367.482C339.578 369.491 340.656 374.48 339.652 378.359Z" fill="black" stroke="black" stroke-width="1.63106" stroke-linejoin="round"/>
<path d="M320.79 342.116C320.79 337.695 330.089 332.879 337.036 332.01C355.64 329.685 387.791 348.943 395.141 349.752C395.948 350.113 397.631 347.396 393.246 339.571C403.857 334.518 421.667 327.978 427.352 327.557C432.404 334.504 452.789 388.852 437.631 397.063C414.895 406.536 355.526 346.523 351.105 352.221C351.105 369.241 346.684 372.254 344.615 373.03C340.573 374.546 337.212 371.168 337.843 369.273C337.212 371.168 332.615 373.662 329.457 372.399C326.299 371.136 325.212 369.24 327.106 366.747C321.422 371.8 315.313 365.978 317.914 364.188C324.684 359.53 326.11 347.763 328.803 343.074C325.263 347.904 320.79 348.516 320.79 342.116Z" fill="#F5B896"/>
<path d="M327.106 366.747C321.422 371.8 315.313 365.978 317.914 364.188C325.211 359.168 326.299 345.891 329.457 342.116C325.842 347.8 320.79 348.918 320.79 342.116C320.79 337.695 330.089 332.879 337.036 332.01C355.64 329.685 387.791 348.943 395.141 349.752M327.106 366.747C325.212 369.24 326.299 371.136 329.457 372.399C332.615 373.662 337.212 371.168 337.843 369.273M327.106 366.747C327.106 366.747 333.247 362.326 333.247 352.221M337.843 369.273C337.212 371.168 340.573 374.546 344.615 373.03C346.684 372.254 351.105 369.241 351.105 352.221C355.526 346.523 414.895 406.536 437.631 397.063C452.789 388.852 432.404 334.504 427.352 327.557C421.667 327.978 403.857 334.518 393.246 339.571C397.631 347.396 395.948 350.113 395.141 349.752M337.843 369.273C337.843 369.273 342.895 364.188 341.632 352.221M427.352 364.188L395.141 349.752" stroke="black" stroke-width="2.39999" stroke-linecap="round" stroke-linejoin="round"/>
<path d="M358.424 260.055L360.867 249.305H354.515L352.56 261.521C350.443 265.268 346.403 274.813 347.185 279.113C347.185 279.113 357.936 261.033 358.424 260.055Z" fill="#F5B896"/>
<path d="M359.645 259.592C359.513 259.973 359.44 260.323 359.44 260.618L359.645 259.592C360.406 257.399 363.145 254.185 365.403 254.638C368.715 255.302 376.664 258.625 379.977 258.625L377.327 242.678C376.664 241.792 375.074 240.021 374.014 240.021C372.955 240.021 373.131 242.235 373.352 244.007C370.04 247.994 364.608 250.651 361.428 250.651L359.645 259.592Z" fill="#E74F4F"/>
<path d="M359.44 260.618C359.44 258.625 362.753 254.106 365.403 254.638C368.715 255.302 376.664 258.625 379.977 258.625L377.327 242.678C376.664 241.792 375.074 240.021 374.014 240.021C372.955 240.021 373.131 242.235 373.352 244.007C370.04 247.994 364.608 250.651 361.428 250.651L359.44 260.618ZM359.44 260.618C356.791 265.933 350.034 266.731 346.854 285.866" stroke="black" stroke-width="2.24041" stroke-linecap="round" stroke-linejoin="round"/>
<rect x="349.625" y="289.863" width="21.5008" height="6.84117" fill="#FFDA68" stroke="black" stroke-width="2.24041" stroke-linecap="round" stroke-linejoin="round"/>
</g>
<path d="M73.1051 427.972C62.9973 436.165 45.7475 471.953 62.5047 511.636C77.8976 575.574 82.7384 599.328 83.5351 635.735C83.537 635.82 83.5388 635.904 83.5406 635.989C83.5923 647.53 57.6943 682.478 44.6425 698.623C50.3726 716.305 61.5332 749.915 60.3345 742.908C67.7244 730.825 82.4849 707.406 82.4081 710.397C82.0597 723.892 81.6822 739.177 81.3367 756.75L132.815 754.921L136.882 637.404L156.149 617.592C171.664 602.664 190.484 571.951 185.024 562.585C176.121 547.314 159.209 477.444 147.79 420.712C147.79 420.712 133.81 412.385 111.699 414.813C89.5887 417.24 73.1051 427.972 73.1051 427.972Z" fill="#BABECB"/>
<path d="M133.473 449.31C144.702 511.281 138.875 579.811 138.875 579.811L136.882 637.404M83.5351 635.735C82.7384 599.328 77.8976 575.574 62.5047 511.636C45.7476 471.953 62.9973 436.165 73.1051 427.972C73.1051 427.972 89.5887 417.24 111.699 414.813C133.81 412.385 147.79 420.712 147.79 420.712C159.209 477.444 176.121 547.314 185.024 562.585C190.484 571.951 171.664 602.664 156.149 617.592M83.5351 635.735C83.9787 647.008 57.7915 682.358 44.6425 698.623C50.3726 716.305 61.5332 749.915 60.3345 742.908C67.7244 730.825 82.4849 707.406 82.4081 710.397M83.5351 635.735C83.9502 654.7 83.2679 677.097 82.4081 710.397M82.4081 710.397C82.0597 723.892 81.6822 739.177 81.3367 756.75L132.815 754.921L136.882 637.404M136.882 637.404C137.717 634.766 146.368 627.004 156.149 617.592M136.882 637.404L156.149 617.592" stroke="black" stroke-width="2.24041" stroke-linecap="round" stroke-linejoin="round"/>
<path d="M160.445 357.654C170.544 356.06 182.371 343.258 187.022 337.057L157.787 350.346L160.445 357.654Z" fill="black" stroke="black" stroke-width="2.52484" stroke-linecap="round" stroke-linejoin="round"/>
<path d="M188.351 356.326L175.336 330.377C171.863 328.659 159.242 335.828 156.599 342.409C156.599 342.409 164.801 376.161 175.336 377.587C185.87 379.014 242.224 378.522 272.49 361.848C275.217 360.625 276.294 357.852 277.027 354.812C279.128 353.308 278.912 350.659 277.782 349.417C279.251 346.632 277.711 344.09 276.592 342.392C274.092 338.6 266.711 339.764 261.778 341.295C258.161 328.1 244.634 327.965 247.705 331.702C254.032 339.403 252.492 345.478 252.492 345.478C252.492 345.478 246.82 350.641 225.559 354.812C204.297 358.983 188.351 356.326 188.351 356.326Z" fill="#CE8361" stroke="black" stroke-width="2.24041" stroke-linecap="round" stroke-linejoin="round"/>
<path d="M230.959 388.691L230.884 390.15L232.344 390.145L273 390.023L274.333 390.019L274.378 388.686L274.742 377.764L276.769 317.011L276.816 315.587L275.392 315.582L236.039 315.439L234.72 315.434L234.652 316.751L230.959 388.691Z" fill="#505798" stroke="black" stroke-width="2.76621"/>
<circle cx="245.974" cy="329.041" r="3.98658" transform="rotate(-11.4818 245.974 329.041)" fill="black"/>
<path d="M110.795 259.983C141.84 268.621 164.431 318.453 186.357 336.392C186.357 336.392 164.949 344.366 157.641 351.674C166.272 381.749 170.129 410.11 170.593 425.426C149.996 418.117 112.788 422.104 98.8348 428.748C87.6723 434.064 61.4052 430.077 49.6669 427.419C45.498 411.473 52.8067 372.272 66.2777 347.688C58.3045 343.037 38.3716 339.715 25.083 336.392C33.5877 305.031 64.9488 267.07 79.5663 252.01L110.795 259.983Z" fill="#BCBFE3"/>
<path d="M66.2777 347.688C58.3045 343.037 38.3716 339.715 25.083 336.392C33.5877 305.031 64.9488 267.07 79.5663 252.01L110.795 259.983C141.84 268.621 164.431 318.453 186.357 336.392C186.357 336.392 164.949 344.366 157.641 351.674M66.2777 347.688C52.8067 372.272 45.498 411.473 49.6669 427.419C61.4052 430.077 87.6723 434.064 98.8348 428.748C112.788 422.104 149.996 418.117 170.593 425.426C169.707 396.191 156.458 319.424 121.243 273.936M66.2777 347.688L79.5663 354.332C76.2441 339.05 82.0417 299.184 86.0283 276.594" stroke="black" stroke-width="2.24041" stroke-linecap="round" stroke-linejoin="round"/>
<path d="M25.1038 336.393C38.6877 345.035 69.0005 360.923 78.9226 354.997C62.0904 348.206 27.2299 334.911 25.1038 336.393Z" fill="black" stroke="black" stroke-width="2.52484" stroke-linecap="round" stroke-linejoin="round"/>
<path d="M52.5511 474.909C49.1573 464.514 57.0637 397.26 70.5918 349.997C56.9964 342.372 43.0434 340.694 37.207 340.694C28.856 383.374 35.5559 432.843 34.561 474.909C31.3445 485.363 30.0707 504.547 34.5609 508.795C37.3698 511.453 38.0342 508.795 38.0342 506.802C38.8609 509.436 38.6379 511.63 40.9937 511.63C43.3496 511.63 44.147 507.435 44.2102 506.064C44.2102 510.085 45.6873 511.63 48.2307 511.63C52.6517 511.453 49.8389 500.436 52.5511 490.602C54.0589 493.494 58.3006 498.368 63.2054 494.737C64.6114 493.696 53.7175 483.175 52.5511 474.909Z" fill="#CE8361"/>
<path d="M44.2102 506.064C44.2102 510.085 45.6873 511.63 48.2307 511.63C52.6517 511.453 49.8389 500.436 52.5511 490.602C54.0589 493.494 58.3006 498.368 63.2054 494.737C64.6114 493.696 53.7175 483.175 52.5511 474.909C49.1573 464.514 57.0637 397.26 70.5918 349.997C56.9964 342.372 43.0434 340.694 37.207 340.694C28.856 383.374 35.5559 432.843 34.5609 474.909C31.3445 485.363 30.0707 504.547 34.5609 508.795C37.3698 511.453 38.0342 508.795 38.0342 506.802M44.2102 506.064C44.147 507.435 43.3496 511.63 40.9937 511.63C38.6379 511.63 38.8609 509.436 38.0342 506.802M44.2102 506.064C44.2102 506.064 43.3496 502.151 44.2102 490.602M38.0342 506.802C38.0342 506.802 36.0409 496.171 38.0342 490.602" stroke="black" stroke-width="2.24041" stroke-linecap="round" stroke-linejoin="round"/>
<path d="M73.6072 351.675L56.332 428.749C56.332 422.951 65.634 374.95 70.285 351.675H73.6072Z" fill="black" stroke="black" stroke-width="2.52484" stroke-linecap="round" stroke-linejoin="round"/>
<path d="M260.491 345.289C261.487 348.021 268.157 346.62 272.639 344.986C277.121 343.352 277.454 341.382 276.721 339.371C275.987 337.359 274.464 336.066 269.982 337.701C265.501 339.335 259.494 342.557 260.491 345.289Z" fill="#CE8361" stroke="black" stroke-width="2.24041" stroke-linecap="round" stroke-linejoin="round"/>
<path d="M263.148 351.933C264.145 354.665 270.815 353.265 275.297 351.63C279.778 349.996 280.112 348.027 279.378 346.015C278.645 344.003 277.122 342.711 272.64 344.345C268.158 345.979 262.152 349.201 263.148 351.933Z" fill="#CE8361" stroke="black" stroke-width="2.24041" stroke-linecap="round" stroke-linejoin="round"/>
<path d="M264.477 358.577C265.473 361.309 272.144 359.909 276.625 358.275C281.107 356.64 281.441 354.671 280.707 352.659C279.974 350.648 278.451 349.355 273.969 350.99C269.487 352.624 263.481 355.846 264.477 358.577Z" fill="#CE8361" stroke="black" stroke-width="2.24041" stroke-linecap="round" stroke-linejoin="round"/>
<path d="M148.872 220.5V169.339H86.4156C86.4156 183.957 87.7445 190.158 86.4156 193.259C81.3217 189.494 70.6022 184.488 68.476 194.587C66.3498 204.687 73.1649 210.553 78.9233 211.217C83.1756 234.074 83.0935 248.849 80.4358 254.386C85.7512 265.017 104.355 263.245 112.993 261.031V244.42C148.606 245.483 148.872 232.46 148.872 220.5Z" fill="#CE8361" stroke="black" stroke-width="2.52484" stroke-linejoin="round"/>
<path d="M112.328 244.42C107.673 244.208 100.026 242.824 97.9624 238.992C97.8758 238.803 97.792 238.619 97.711 238.44C97.7821 238.629 97.8661 238.813 97.9624 238.992C101.189 246.028 108.187 259.331 112.328 260.366V244.42Z" fill="black" stroke="black" stroke-width="2.52484" stroke-linecap="round" stroke-linejoin="round"/>
<path d="M80.2511 210.815C80.2511 228.081 80.9167 220.117 80.9163 229.419C20.4524 191.294 59.6543 125.104 104.836 134.808C117.903 131.486 146.563 134.011 156.662 170.687C153.937 177.813 143.858 181.938 132.078 184.225C131.201 184.396 125.663 159.906 124.769 160.057C125.434 178.661 124.332 185.175 124.769 185.305C107.885 187.763 91.3246 186.828 86.2322 185.979V191.959C81.1382 189.08 72.2779 185.966 69.6202 195.534C66.9625 205.101 74.7142 209.044 80.2511 210.815Z" fill="black" stroke="black" stroke-width="2.52484" stroke-linecap="round" stroke-linejoin="round"/>
<path d="M19.1239 229.419C36.3991 202.842 0.824795 144.722 58.9897 161.661C41.9977 164.741 47.03 190.782 47.03 195.533C47.03 227.872 32.8482 229.419 19.1239 229.419Z" fill="black" stroke="black" stroke-width="1.99329"/>
<path d="M115.467 131.748C104.836 131.748 80.2514 140.386 77.5937 187.561" stroke="white" stroke-width="3.32215" stroke-linecap="round" stroke-linejoin="round"/>
<path d="M131.413 188.606C134.735 187.278 140.715 189.404 140.715 195.251" stroke="black" stroke-width="1.99329" stroke-linecap="round" stroke-linejoin="round"/>
<path d="M112.809 189.935C110.815 189.271 106.563 190.733 105.5 193.922" stroke="black" stroke-width="1.99329" stroke-linecap="round" stroke-linejoin="round"/>
<path d="M103.507 211.48C103.507 216.795 106.829 221.55 111.69 224.328C119.132 228.58 128.091 227.426 132.952 223.664" stroke="black" stroke-width="2.24041" stroke-linecap="round" stroke-linejoin="round"/>
<circle cx="1.99329" cy="1.99329" r="1.99329" transform="matrix(-1 0 0 1 114.803 195.108)" fill="black"/>
<circle cx="1.99329" cy="1.99329" r="1.99329" transform="matrix(-1 0 0 1 136.064 193.765)" fill="black"/>
<path d="M118.403 203.739C119.472 200.229 123.185 198.25 126.695 199.32C130.205 200.389 132.184 204.102 131.114 207.612C130.481 209.692 128.92 211.233 127.023 211.923" stroke="black" stroke-width="2.24041" stroke-linecap="round" stroke-linejoin="round"/>
<circle cx="122.775" cy="184.238" r="1.32886" fill="black"/>
<g clip-path="url(#clip3_1600_65683)">
<path d="M211.424 401.167L207.511 377.702L214.369 377.702L215.852 400.441L211.424 401.167Z" fill="white" stroke="black" stroke-width="2.14919" stroke-linecap="round"/>
<path d="M201.237 389.689L196.885 390.101L193.887 391.564L190.384 396.504L191.101 401.995C194.349 406.343 203.07 413.29 211.964 406.298C223.081 397.558 215.936 388.475 213.969 386.418C212.003 384.36 207.299 385.647 206.993 385.778C206.748 385.883 203.054 388.429 201.237 389.689Z" fill="#DB0000" stroke="black" stroke-width="0.903359" stroke-linecap="round" stroke-linejoin="round"/>
<path d="M209.464 408.474C202.035 411.651 193.548 408.521 190.545 401.498C188.525 396.773 190.466 392.331 195.492 390.182C197.211 389.447 199.174 389.063 201.188 389.068C202.917 387.451 204.678 386.253 206.426 385.506C211.269 383.435 215.404 385.105 217.487 389.976C220.493 396.998 216.892 405.297 209.464 408.474ZM196.017 391.407C192.765 392.797 189.703 396.137 191.771 400.973C194.486 407.321 202.187 410.136 208.941 407.248C215.694 404.36 218.979 396.847 216.264 390.499C214.457 386.274 211.15 384.935 206.952 386.73C205.284 387.443 203.589 388.617 201.913 390.217L201.714 390.406L201.439 390.401C199.516 390.364 197.641 390.712 196.017 391.407Z" fill="black"/>
<path d="M194.016 401.324C193.678 401.469 193.286 401.311 193.142 400.974C191.554 397.261 192.977 393.666 196.77 391.813C197.111 391.647 197.499 391.788 197.661 392.119C197.822 392.451 197.685 392.85 197.354 393.011C194.887 394.217 192.809 396.803 194.368 400.449C194.512 400.788 194.353 401.18 194.016 401.324Z" fill="black"/>
<path d="M202.077 391.189C201.739 391.333 201.347 391.176 201.202 390.838C200.276 388.672 200.034 384.965 203.163 383.627C203.502 383.482 203.893 383.639 204.038 383.977C204.183 384.316 204.026 384.707 203.687 384.852C201.194 385.918 201.933 389.157 202.428 390.314C202.572 390.652 202.415 391.044 202.077 391.189Z" fill="#09463F"/>
<path d="M201.955 390.912C201.655 391.041 201.299 390.932 201.124 390.645C199.334 387.691 198.748 385.543 199.28 383.888C199.657 382.714 200.606 381.795 202.103 381.155C202.441 381.01 202.833 381.167 202.977 381.505C203.122 381.843 202.965 382.235 202.627 382.38C201.484 382.869 200.806 383.495 200.547 384.295C200.147 385.539 200.708 387.389 202.263 389.953C202.455 390.267 202.352 390.677 202.038 390.868C202.011 390.887 201.984 390.9 201.955 390.912Z" fill="#073430"/>
<path d="M202.042 391.201C201.704 391.346 201.312 391.189 201.167 390.851C200.672 389.693 198.841 386.922 196.348 387.989C196.009 388.133 195.618 387.976 195.473 387.638C195.328 387.3 195.485 386.908 195.824 386.763C198.953 385.425 201.467 388.162 202.393 390.327C202.537 390.665 202.381 391.056 202.042 391.201Z" fill="#09463F"/>
<path d="M226.139 389.687L222.716 381.103L219.16 378.398L215.058 379.618L211.38 383.772L210.447 388.093L212.142 399.83L217.265 402.518L220.785 401.892L225.64 397.921L226.139 389.687Z" fill="#FFFAE1"/>
<path d="M218.136 403.036C215.279 403.067 212.797 401.838 211.147 399.575C210.893 399.226 210.97 398.736 211.319 398.481C211.67 398.226 212.159 398.306 212.413 398.653C213.754 400.494 215.779 401.494 218.116 401.469C222.621 401.42 225.489 397.764 225.428 392.151C225.358 385.652 221.617 379.31 217.877 379.35C214.826 379.383 211.736 383.708 210.841 389.196C210.77 389.623 210.367 389.913 209.942 389.844C209.516 389.774 209.225 389.37 209.296 388.945C210.191 383.435 213.422 377.829 217.86 377.781C222.999 377.726 226.922 385.312 226.995 392.133C227.079 399.598 222.605 402.988 218.136 403.036Z" fill="black"/>
<path d="M226.71 404.422L192.23 404.794C191.798 404.799 191.443 404.45 191.438 404.019C191.433 403.586 191.781 403.232 192.213 403.227L226.693 402.854C227.124 402.85 227.481 403.197 227.486 403.63C227.49 404.062 227.141 404.417 226.71 404.422Z" fill="black"/>
<path d="M185.625 399.545L179.718 392.418L177.737 387.978L175.08 387.875L174.562 392.536L175.072 399.699L181.138 407.149L192.86 412.234L205.823 412.905L214.16 407.425L216.307 400.364L219.223 398.137L217.218 396.913L214.479 397.051L211.539 402.496L198.558 404.238L185.625 399.545Z" fill="#FFDA68"/>
<path d="M215.378 396.015L212.603 400.979L215.965 403.742L215.66 401.487L218.829 397.733L215.378 396.015Z" fill="#A77C18"/>
<path d="M189.393 412.059C170.998 405.767 173.042 390.995 173.333 389.327C173.48 388.494 173.995 387.764 174.738 387.324C175.533 386.856 176.486 386.759 177.354 387.056C178.565 387.47 179.41 388.58 179.685 390.113C180.704 392.7 184.001 398.814 193.119 401.933C199.094 403.977 204.769 404.055 209.981 402.168C211.153 401.743 211.364 401.14 211.791 399.932C212.219 398.723 212.752 397.218 214.444 395.552C214.719 395.283 215.122 395.193 215.487 395.317L220.126 396.904C220.546 397.048 220.825 397.449 220.815 397.892C220.805 398.336 220.505 398.724 220.081 398.848C219.043 399.144 217.772 399.722 217.352 400.172C217.302 404.345 215.264 408.181 211.726 410.733C208.585 413.007 201.5 416.2 189.393 412.059ZM176.694 388.982C176.394 388.88 176.048 388.914 175.775 389.076C175.605 389.175 175.396 389.36 175.337 389.682C174.911 392.11 173.608 404.509 190.05 410.133C198.256 412.94 205.723 412.557 210.533 409.083C213.617 406.856 215.36 403.498 215.316 399.869C215.316 399.706 215.355 399.542 215.429 399.396C215.722 398.823 216.301 398.346 216.941 397.967L215.452 397.458C214.424 398.618 214.05 399.672 213.714 400.617C213.243 401.951 212.754 403.336 210.678 404.088C205.019 406.138 198.889 406.063 192.462 403.865C182.42 400.43 178.829 393.553 177.75 390.756C177.726 390.688 177.704 390.616 177.692 390.549C177.558 389.712 177.203 389.157 176.694 388.982Z" fill="black"/>
<path d="M191.129 407.713C183.434 405.081 179.522 400.481 177.595 397.085C177.317 396.594 177.489 395.973 177.979 395.698C178.471 395.419 179.092 395.593 179.368 396.083C181.12 399.172 184.698 403.363 191.788 405.788C197.763 407.832 203.437 407.911 208.65 406.023C209.179 405.83 209.76 406.102 209.955 406.633C210.147 407.161 209.874 407.745 209.345 407.936C203.688 409.988 197.556 409.911 191.129 407.713Z" fill="black"/>
<path d="M173.849 394.655C173.755 394.623 173.665 394.577 173.582 394.519C173.126 394.189 173.025 393.552 173.357 393.098C174.219 391.913 176.342 390.455 178.729 389.962C179.278 389.849 179.819 390.202 179.933 390.755C180.052 391.303 179.696 391.843 179.143 391.957C177.374 392.324 175.62 393.459 175.005 394.3C174.734 394.663 174.264 394.797 173.849 394.655Z" fill="black"/>
<path d="M215.228 405.26C214.871 405.138 214.601 404.827 214.546 404.434C214.526 404.291 214.468 404.093 214.195 403.892C213.572 403.434 212.358 403.318 211.756 403.415C211.198 403.504 210.678 403.13 210.585 402.576C210.495 402.02 210.87 401.497 211.427 401.406C212.359 401.256 214.187 401.354 215.402 402.258C216.056 402.74 216.458 403.398 216.56 404.162C216.637 404.719 216.244 405.232 215.686 405.307C215.53 405.327 215.374 405.311 215.228 405.26Z" fill="black"/>
<path d="M187.804 388.512L186.24 379.196L186.796 374.157L184.457 372.865L181.534 376.985L178.219 383.905L179.756 393.594L187.633 403.62L198.954 410.082L209.351 408.715L215.005 403.087L218.806 402.319L217.645 400.274L215.105 399.17L209.587 402.932L196.979 398.716L187.804 388.512Z" fill="#FFDA68"/>
<path d="M216.468 398.604L211.352 401.991L212.924 406.085L213.838 403.841L218.67 401.762L216.468 398.604Z" fill="#A77C18"/>
<path d="M184.619 401.9C171.368 387.743 180.994 374.866 182.135 373.439C182.707 372.727 183.554 372.277 184.456 372.201C185.418 372.122 186.328 372.46 186.953 373.127C187.826 374.059 188.002 375.477 187.442 377.032C186.996 379.907 186.743 387.102 193.311 394.119C197.616 398.718 202.685 401.346 208.374 401.929C209.653 402.06 210.161 401.592 211.182 400.655C212.205 399.719 213.478 398.552 215.88 397.758C216.27 397.631 216.681 397.728 216.943 398.009L220.285 401.579C220.588 401.902 220.628 402.402 220.385 402.812C220.142 403.223 219.667 403.449 219.22 403.374C218.129 403.184 216.68 403.152 216.064 403.382C213.82 407.258 209.962 409.923 205.431 410.715C201.404 411.425 193.34 411.218 184.619 401.9ZM185.344 374.63C185.127 374.399 184.798 374.275 184.466 374.304C184.261 374.32 183.976 374.398 183.753 374.672C182.09 376.749 174.381 387.744 186.225 400.397C192.137 406.713 199.064 409.716 205.227 408.636C209.177 407.945 212.517 405.593 214.391 402.183C214.477 402.031 214.597 401.896 214.741 401.792C215.307 401.389 216.08 401.204 216.856 401.138L215.784 399.992C214.247 400.613 213.354 401.43 212.553 402.161C211.426 403.194 210.256 404.268 207.99 404.036C201.812 403.404 196.331 400.574 191.701 395.628C184.468 387.9 184.857 379.86 185.36 376.762C185.374 376.688 185.392 376.61 185.417 376.543C185.737 375.701 185.711 375.022 185.344 374.63Z" fill="black"/>
<path d="M188.493 398.634C182.95 392.711 181.851 386.654 181.906 382.615C181.914 382.031 182.396 381.528 182.983 381.492C183.573 381.453 184.04 381.895 184.031 382.477C183.98 386.151 184.994 391.676 190.101 397.132C194.405 401.731 199.474 404.359 205.163 404.942C205.742 405 206.122 405.515 206.018 406.099C205.912 406.679 205.359 407.101 204.782 407.042C198.605 406.411 193.123 403.58 188.493 398.634Z" fill="black"/>
<path d="M179.785 378.649C179.717 378.576 179.66 378.493 179.616 378.401C179.379 377.888 179.624 377.248 180.162 376.973C181.563 376.255 184.243 375.848 186.653 376.462C187.207 376.604 187.508 377.176 187.32 377.744C187.138 378.309 186.533 378.655 185.974 378.512C184.188 378.058 182.01 378.329 181.012 378.837C180.577 379.055 180.083 378.968 179.785 378.649Z" fill="black"/>
<path d="M211.46 407.174C211.203 406.899 211.124 406.487 211.282 406.095C211.338 405.953 211.391 405.742 211.251 405.431C210.931 404.723 209.899 404.068 209.306 403.888C208.757 403.719 208.485 403.136 208.694 402.577C208.905 402.017 209.519 401.698 210.068 401.863C210.987 402.143 212.581 403.057 213.199 404.448C213.534 405.192 213.549 405.988 213.239 406.747C213.014 407.302 212.39 407.604 211.848 407.424C211.697 407.373 211.566 407.287 211.46 407.174Z" fill="black"/>
<path d="M194.69 411.21L186.471 411.055L182.334 409.814L180.728 411.544L183.568 414.595L188.69 418.404L197.218 418.639L207.423 413.695L215.373 405.355L216.502 396.564L212.987 391.025L213.173 387.769L211.189 388.41L209.698 390.335L211.666 395.471L205.332 405.222L194.69 411.21Z" fill="#FFDA68"/>
<path d="M209.507 389.131L211.246 393.878L215.052 393.216L213.356 392.114L212.66 387.804L209.507 389.131Z" fill="#A77C18"/>
<path d="M205.292 415.927C190.413 424.665 181.643 414.724 180.687 413.562C180.211 412.979 180.017 412.21 180.15 411.454C180.295 410.648 180.78 409.949 181.482 409.537C182.462 408.962 183.699 409.036 184.89 409.74C187.223 410.554 193.249 411.879 200.624 407.547C205.457 404.709 208.792 400.934 210.535 396.33C210.927 395.294 210.643 394.802 210.075 393.814C209.509 392.825 208.803 391.594 208.659 389.488C208.637 389.147 208.809 388.823 209.104 388.65L212.857 386.446C213.197 386.246 213.628 386.291 213.921 386.555C214.215 386.819 214.302 387.246 214.14 387.603C213.739 388.474 213.394 389.665 213.453 390.209C216.237 392.662 217.642 396.259 217.316 400.121C217.031 403.554 215.085 410.176 205.292 415.927ZM182.399 411.098C182.156 411.241 181.979 411.494 181.931 411.772C181.899 411.943 181.902 412.191 182.085 412.417C183.475 414.112 191.076 422.179 204.374 414.368C211.012 410.47 215.073 405.22 215.514 399.967C215.797 396.6 214.543 393.479 212.072 391.404C211.962 391.309 211.875 391.189 211.818 391.054C211.602 390.524 211.615 389.858 211.73 389.207L210.526 389.914C210.713 391.279 211.208 392.142 211.65 392.917C212.276 394.007 212.926 395.14 212.232 396.973C210.34 401.973 206.744 406.057 201.546 409.11C193.424 413.88 186.713 412.311 184.205 411.416C184.145 411.392 184.083 411.366 184.032 411.335C183.39 410.94 182.811 410.856 182.399 411.098Z" fill="black"/>
<path d="M203.368 412.231C197.143 415.887 191.781 415.854 188.379 415.182C187.888 415.084 187.568 414.609 187.667 414.119C187.763 413.626 188.24 413.309 188.729 413.407C191.824 414.019 196.717 414.04 202.452 410.672C207.285 407.833 210.62 404.058 212.363 399.454C212.539 398.986 213.058 398.752 213.529 398.928C213.995 399.105 214.231 399.628 214.054 400.094C212.164 405.094 208.566 409.178 203.368 412.231Z" fill="black"/>
<path d="M184.567 416.317C184.491 416.361 184.408 416.395 184.32 416.417C183.835 416.533 183.347 416.232 183.233 415.745C182.934 414.478 183.179 412.203 184.228 410.309C184.469 409.874 185.019 409.714 185.458 409.958C185.896 410.196 186.055 410.749 185.811 411.188C185.035 412.591 184.785 414.431 184.996 415.333C185.084 415.725 184.903 416.12 184.567 416.317Z" fill="black"/>
<path d="M215.647 394.602C215.359 394.771 214.993 394.773 214.696 394.582C214.588 394.513 214.422 394.437 214.128 394.504C213.459 394.658 212.679 395.408 212.396 395.87C212.133 396.297 211.58 396.431 211.153 396.172C210.727 395.91 210.592 395.354 210.852 394.926C211.29 394.212 212.413 393.038 213.725 392.744C214.428 392.583 215.104 392.694 215.678 393.068C216.097 393.339 216.215 393.901 215.944 394.321C215.867 394.437 215.766 394.532 215.647 394.602Z" fill="black"/>
<path fill-rule="evenodd" clip-rule="evenodd" d="M195.415 357.299C191.037 355.76 186.224 385.935 183.839 400.891L183.71 401.698C181.781 401.524 180.102 401.364 178.904 401.244C177.881 401.142 176.922 401.793 176.706 402.798C174.38 413.598 174.483 430.958 174.546 441.718C174.567 445.243 174.583 448.059 174.509 449.705C174.208 456.379 179.093 455.794 184.326 455.167C185.903 454.979 187.512 454.786 189.02 454.787C192.687 454.79 196.368 454.846 200.007 454.901L200.007 454.901C206.564 455 212.987 455.097 218.949 454.881C220.964 454.808 222.865 454.841 224.593 454.872L224.593 454.872C230.813 454.982 234.78 455.052 233.71 449.963C233.387 448.425 233.037 444.365 232.576 439.009C231.562 427.228 230.008 409.182 227.008 397.938C226.655 396.613 225.064 396.048 223.832 396.65C218.17 399.416 206.536 403.246 200.644 402.98C198.497 402.883 195.584 402.682 192.535 402.445C193.409 397.784 193.83 392.147 194.264 386.335C195.085 375.355 195.952 363.752 200.006 356.941C200.416 356.836 199.81 356.911 198.914 357.023C197.629 357.183 195.748 357.416 195.415 357.299Z" fill="#FFF7EE"/>
<path d="M183.839 400.891L184.949 401.068L184.949 401.068L183.839 400.891ZM195.415 357.299L195.787 356.239L195.415 357.299ZM183.71 401.698L184.82 401.875L184.655 402.912L183.609 402.817L183.71 401.698ZM178.904 401.244L179.016 400.126L179.016 400.126L178.904 401.244ZM176.706 402.798L175.607 402.562L176.706 402.798ZM174.546 441.718L175.67 441.711L174.546 441.718ZM174.509 449.705L175.632 449.755L174.509 449.705ZM184.326 455.167L184.46 456.283L184.326 455.167ZM189.02 454.787L189.019 455.911L189.02 454.787ZM200.007 454.901L200.016 456.025L200.003 456.025L199.99 456.024L200.007 454.901ZM200.007 454.901L199.999 453.777L200.011 453.777L200.024 453.777L200.007 454.901ZM218.949 454.881L218.909 453.758L218.909 453.758L218.949 454.881ZM224.593 454.872L224.713 455.989L224.643 455.997L224.573 455.995L224.593 454.872ZM224.593 454.872L224.472 453.755L224.542 453.747L224.612 453.748L224.593 454.872ZM233.71 449.963L232.611 450.194L233.71 449.963ZM232.576 439.009L231.457 439.105L232.576 439.009ZM227.008 397.938L225.922 398.228L227.008 397.938ZM223.832 396.65L224.325 397.66L224.325 397.66L223.832 396.65ZM200.644 402.98L200.695 401.857L200.644 402.98ZM192.535 402.445L192.448 403.565L191.2 403.468L191.43 402.238L192.535 402.445ZM194.264 386.335L193.144 386.252L194.264 386.335ZM200.006 356.941L199.04 356.366L199.277 355.967L199.727 355.852L200.006 356.941ZM198.914 357.023L198.775 355.908L198.914 357.023ZM182.729 400.714C183.921 393.244 185.726 381.926 187.783 372.666C188.809 368.045 189.911 363.881 191.047 360.952C191.61 359.5 192.214 358.264 192.875 357.423C193.489 356.64 194.507 355.789 195.787 356.239L195.042 358.359C195.228 358.425 195.138 358.18 194.642 358.811C194.192 359.384 193.684 360.37 193.142 361.765C192.071 364.528 190.999 368.554 189.977 373.153C187.937 382.335 186.143 393.583 184.949 401.068L182.729 400.714ZM182.601 401.521L182.729 400.714L184.949 401.068L184.82 401.875L182.601 401.521ZM179.016 400.126C180.21 400.246 181.885 400.405 183.812 400.579L183.609 402.817C181.678 402.643 179.995 402.483 178.792 402.362L179.016 400.126ZM175.607 402.562C175.952 400.959 177.463 399.971 179.016 400.126L178.792 402.362C178.298 402.313 177.892 402.627 177.804 403.035L175.607 402.562ZM173.422 441.725C173.359 431.014 173.25 413.509 175.607 402.562L177.804 403.035C175.511 413.686 175.606 430.902 175.67 441.711L173.422 441.725ZM173.387 449.654C173.459 448.045 173.443 445.266 173.422 441.725L175.67 441.711C175.69 445.22 175.708 448.074 175.632 449.755L173.387 449.654ZM184.46 456.283C183.163 456.438 181.826 456.599 180.579 456.64C179.337 456.68 178.091 456.606 176.988 456.24C175.853 455.864 174.861 455.173 174.203 454.018C173.564 452.894 173.306 451.444 173.387 449.654L175.632 449.755C175.562 451.303 175.801 452.282 176.157 452.906C176.494 453.499 176.994 453.874 177.696 454.107C178.431 454.351 179.369 454.43 180.506 454.394C181.637 454.357 182.873 454.21 184.192 454.052L184.46 456.283ZM189.019 455.911C187.591 455.91 186.051 456.093 184.46 456.283L184.192 454.052C185.755 453.865 187.433 453.662 189.021 453.663L189.019 455.911ZM199.99 456.024C196.349 455.969 192.676 455.914 189.019 455.911L189.021 453.663C192.697 453.666 196.386 453.722 200.024 453.777L199.99 456.024ZM200.016 456.025L200.016 456.025L199.998 453.777L199.999 453.777L200.016 456.025ZM218.99 456.004C212.993 456.221 206.541 456.123 199.99 456.024L200.024 453.777C206.588 453.876 212.98 453.973 218.909 453.758L218.99 456.004ZM224.573 455.995C222.842 455.965 220.97 455.932 218.99 456.004L218.909 453.758C220.958 453.684 222.888 453.718 224.612 453.748L224.573 455.995ZM224.713 455.989L224.713 455.989L224.472 453.755L224.472 453.755L224.713 455.989ZM234.81 449.732C235.101 451.117 235.093 452.339 234.636 453.354C234.16 454.41 233.288 455.046 232.275 455.421C231.292 455.784 230.107 455.93 228.844 455.989C227.571 456.049 226.117 456.023 224.573 455.995L224.612 453.748C226.178 453.776 227.553 453.8 228.739 453.744C229.936 453.688 230.843 453.554 231.495 453.313C232.118 453.083 232.426 452.789 232.587 452.431C232.767 452.031 232.854 451.354 232.611 450.194L234.81 449.732ZM233.696 438.912C234.162 444.323 234.505 448.281 234.81 449.732L232.611 450.194C232.269 448.569 231.913 444.406 231.457 439.105L233.696 438.912ZM228.094 397.648C231.125 409.01 232.685 427.171 233.696 438.912L231.457 439.105C230.439 427.286 228.891 409.354 225.922 398.228L228.094 397.648ZM223.339 395.641C225.082 394.789 227.524 395.513 228.094 397.648L225.922 398.228C225.785 397.714 225.046 397.308 224.325 397.66L223.339 395.641ZM200.695 401.857C203.443 401.981 207.672 401.139 212.01 399.873C216.316 398.617 220.578 396.99 223.339 395.641L224.325 397.66C221.425 399.077 217.039 400.747 212.639 402.031C208.272 403.305 203.738 404.244 200.594 404.102L200.695 401.857ZM192.622 401.324C195.668 401.562 198.567 401.761 200.695 401.857L200.594 404.102C198.428 404.005 195.5 403.803 192.448 403.565L192.622 401.324ZM195.385 386.419C194.952 392.212 194.527 397.917 193.639 402.652L191.43 402.238C192.29 397.651 192.708 392.082 193.144 386.252L195.385 386.419ZM200.971 357.516C199.055 360.736 197.852 365.169 197.032 370.253C196.215 375.322 195.796 380.918 195.385 386.419L193.144 386.252C193.553 380.772 193.978 375.076 194.813 369.896C195.646 364.73 196.903 359.957 199.04 356.366L200.971 357.516ZM198.775 355.908C199.213 355.853 199.611 355.803 199.846 355.782C199.905 355.776 199.971 355.771 200.032 355.768C200.06 355.767 200.107 355.766 200.161 355.768C200.187 355.769 200.232 355.772 200.286 355.78C200.322 355.785 200.45 355.803 200.598 355.87C200.673 355.904 201.27 356.187 201.26 356.912C201.256 357.222 201.128 357.445 201.044 357.56C200.959 357.677 200.87 357.751 200.822 357.789C200.666 357.909 200.507 357.962 200.503 357.964C200.423 357.993 200.338 358.016 200.284 358.03L199.727 355.852C199.776 355.84 199.762 355.841 199.723 355.856C199.71 355.861 199.683 355.871 199.647 355.888C199.623 355.899 199.54 355.939 199.447 356.011C199.4 356.047 199.312 356.121 199.228 356.236C199.145 356.35 199.017 356.572 199.013 356.881C199.003 357.604 199.598 357.885 199.67 357.917C199.815 357.983 199.939 358 199.967 358.004C200.015 358.011 200.052 358.013 200.069 358.014C200.088 358.015 200.102 358.015 200.109 358.014C200.117 358.014 200.121 358.014 200.122 358.014C200.123 358.014 200.118 358.014 200.105 358.015C200.092 358.016 200.075 358.018 200.053 358.02C199.863 358.037 199.511 358.081 199.053 358.138L198.775 355.908ZM195.787 356.239C195.668 356.197 195.596 356.202 195.667 356.205C195.709 356.207 195.78 356.208 195.885 356.205C196.094 356.198 196.374 356.177 196.702 356.146C197.355 356.084 198.129 355.988 198.775 355.908L199.053 358.138C198.414 358.217 197.606 358.318 196.914 358.384C196.569 358.416 196.236 358.442 195.958 358.451C195.82 358.456 195.679 358.457 195.549 358.45C195.448 358.444 195.245 358.431 195.042 358.359L195.787 356.239Z" fill="black"/>
<path d="M221.57 403.52C223.482 414.81 226.408 437.658 225.43 442.551" stroke="black" stroke-width="2.10843" stroke-linecap="round" stroke-linejoin="round"/>
<g clip-path="url(#clip4_1600_65683)">
<path d="M182.351 430.808C182.351 430.808 182.065 431.161 182.377 431.662C182.377 431.662 182.447 431.422 182.989 431.457L183.639 431.499C184.252 431.539 184.751 430.982 184.501 430.359C184.501 430.359 184.931 430.432 185.094 430.171C185.255 429.909 185.109 429.791 184.892 429.777L183.8 429.706C183.788 429.9 183.416 429.903 183.43 429.682L182.817 429.642C182.817 429.642 182.356 429.612 182.322 430C182.322 430 182.43 429.943 182.534 429.941L182.528 430.045C182.528 430.045 182.4 430.059 182.339 430.087C182.278 430.115 182.187 430.195 182.254 430.422C182.321 430.648 182.348 430.726 182.348 430.726C182.348 430.726 182.486 430.622 182.698 430.636L182.946 430.652C183.388 430.68 183.279 431.104 182.837 431.075C182.395 431.046 182.352 430.808 182.352 430.808L182.351 430.808Z" fill="#DB0000"/>
<path d="M184.683 430.513C184.683 430.513 184.831 430.532 184.945 430.444C184.945 430.444 185.875 431.27 184.323 432.71C182.77 434.15 183.829 435.216 183.829 435.216C183.829 435.216 183.551 435.452 183.668 435.953C183.668 435.953 183.086 435.573 182.661 434.963C182.047 434.083 181.722 432.775 183.623 431.872C183.623 431.872 184.873 431.341 184.682 430.513L184.683 430.513Z" fill="#DB0000"/>
<path d="M183.235 429.531C183.235 429.531 183.453 429.194 183.907 429.224C184.266 429.247 184.359 429.069 184.359 429.069C184.359 429.069 184.535 428.781 185.323 428.832C186.045 428.879 186.517 429.152 186.89 429.499C186.89 429.499 185.87 428.771 184.763 429.63L183.235 429.531Z" fill="#DB0000"/>
<path d="M187.501 432.021C187.542 430.93 186.775 429.708 184.96 429.657C186.826 428.273 189.678 431.818 187.036 433.411C187.036 433.411 187.498 432.836 187.501 432.021L187.501 432.021Z" fill="#DB0000"/>
<path d="M185.226 429.797C187.439 429.874 188.056 432.573 186.552 433.672L185.075 434.271C185.075 434.271 184.928 433.657 185.666 432.998C186.403 432.339 187.157 431.065 185.3 430.074C185.3 430.074 185.348 429.896 185.227 429.797L185.226 429.797Z" fill="#DB0000"/>
<path d="M185.088 430.392C185.088 430.392 185.203 430.297 185.245 430.215C186.843 431.008 186.509 432.153 185.465 433.064C184.823 433.644 184.966 434.324 184.966 434.324C184.966 434.324 184.203 434.734 183.924 435.115C183.924 435.115 182.92 434.141 184.489 432.735C186.029 431.354 185.088 430.393 185.088 430.393L185.088 430.392Z" fill="#DB0000"/>
</g>
<g clip-path="url(#clip5_1600_65683)">
<path d="M197.642 430.407C197.642 430.407 197.421 430.804 197.814 431.244C197.814 431.244 197.842 430.995 198.381 430.937L199.029 430.867C199.64 430.801 200.036 430.167 199.683 429.596C199.683 429.596 200.119 429.594 200.234 429.309C200.349 429.023 200.185 428.932 199.969 428.955L198.881 429.073C198.902 429.266 198.536 429.333 198.512 429.112L197.901 429.178C197.901 429.178 197.442 429.228 197.475 429.616C197.475 429.616 197.572 429.541 197.674 429.522L197.685 429.625C197.685 429.625 197.561 429.661 197.506 429.699C197.451 429.736 197.375 429.831 197.48 430.043C197.585 430.254 197.624 430.327 197.624 430.327C197.624 430.327 197.743 430.2 197.954 430.177L198.202 430.151C198.642 430.103 198.607 430.539 198.167 430.587C197.726 430.634 197.642 430.407 197.642 430.407L197.642 430.407Z" fill="#DB0000"/>
<path d="M199.9 429.713C199.9 429.713 200.049 429.706 200.147 429.6C200.147 429.6 201.205 430.255 199.922 431.94C198.639 433.625 199.865 434.493 199.865 434.493C199.865 434.493 199.632 434.773 199.833 435.247C199.833 435.247 199.194 434.972 198.671 434.444C197.915 433.682 197.371 432.449 199.089 431.234C199.089 431.234 200.23 430.496 199.9 429.713L199.9 429.713Z" fill="#DB0000"/>
<path d="M198.3 428.989C198.3 428.989 198.458 428.621 198.91 428.572C199.267 428.533 199.328 428.342 199.328 428.342C199.328 428.342 199.452 428.028 200.237 427.943C200.957 427.866 201.468 428.053 201.895 428.331C201.895 428.331 200.766 427.789 199.823 428.825L198.3 428.989Z" fill="#DB0000"/>
<path d="M202.926 430.716C202.779 429.634 201.814 428.562 200.017 428.823C201.618 427.14 205.036 430.143 202.706 432.166C202.706 432.166 203.063 431.519 202.926 430.717L202.926 430.716Z" fill="#DB0000"/>
<path d="M200.32 428.917C202.513 428.614 203.584 431.167 202.291 432.507L200.939 433.351C200.939 433.351 200.688 432.771 201.302 431.995C201.916 431.22 202.439 429.835 200.44 429.177C200.44 429.177 200.457 428.994 200.321 428.917L200.32 428.917Z" fill="#DB0000"/>
<path d="M200.28 429.518C200.28 429.518 200.377 429.404 200.404 429.317C202.114 429.823 201.981 431.008 201.109 432.085C200.576 432.767 200.834 433.413 200.834 433.413C200.834 433.413 200.152 433.947 199.943 434.37C199.943 434.37 198.786 433.583 200.091 431.928C201.372 430.304 200.28 429.518 200.28 429.518L200.28 429.518Z" fill="#DB0000"/>
</g>
<path d="M187.251 416.698C187.251 416.698 187.03 417.095 187.423 417.535C187.423 417.535 187.451 417.286 187.991 417.228L188.638 417.158C189.25 417.092 189.645 416.458 189.292 415.887C189.292 415.887 189.729 415.885 189.844 415.6C189.958 415.314 189.794 415.223 189.578 415.246L188.49 415.364C188.511 415.557 188.145 415.624 188.121 415.403L187.51 415.469C187.51 415.469 187.051 415.519 187.084 415.907C187.084 415.907 187.181 415.832 187.283 415.813L187.294 415.916C187.294 415.916 187.171 415.952 187.116 415.99C187.061 416.027 186.984 416.122 187.089 416.334C187.194 416.545 187.234 416.618 187.234 416.618C187.234 416.618 187.352 416.491 187.564 416.468L187.811 416.442C188.251 416.394 188.216 416.83 187.776 416.878C187.335 416.925 187.252 416.698 187.252 416.698L187.251 416.698Z" fill="#DB0000"/>
<path d="M189.525 416.006C189.525 416.006 189.674 415.999 189.772 415.893C189.772 415.893 190.83 416.548 189.547 418.232C188.264 419.917 189.49 420.786 189.49 420.786C189.49 420.786 189.257 421.066 189.458 421.54C189.458 421.54 188.819 421.265 188.296 420.737C187.541 419.975 186.996 418.742 188.714 417.526C188.714 417.526 189.855 416.789 189.525 416.006L189.525 416.006Z" fill="#DB0000"/>
<path d="M187.917 415.288C187.917 415.288 188.075 414.92 188.527 414.871C188.884 414.832 188.946 414.64 188.946 414.64C188.946 414.64 189.069 414.327 189.855 414.242C190.574 414.165 191.085 414.352 191.512 414.63C191.512 414.63 190.383 414.088 189.44 415.124L187.917 415.288Z" fill="#DB0000"/>
<path d="M192.551 417.005C192.404 415.924 191.439 414.851 189.642 415.112C191.243 413.429 194.661 416.432 192.331 418.455C192.331 418.455 192.688 417.808 192.551 417.006L192.551 417.005Z" fill="#DB0000"/>
<path d="M189.914 415.204C192.107 414.901 193.177 417.454 191.885 418.794L190.532 419.638C190.532 419.638 190.282 419.058 190.896 418.282C191.51 417.507 192.033 416.122 190.034 415.464C190.034 415.464 190.05 415.281 189.915 415.205L189.914 415.204Z" fill="#DB0000"/>
<path d="M189.889 415.813C189.889 415.813 189.986 415.699 190.013 415.611C191.723 416.118 191.591 417.303 190.718 418.38C190.185 419.062 190.443 419.707 190.443 419.707C190.443 419.707 189.761 420.242 189.552 420.665C189.552 420.665 188.396 419.878 189.701 418.223C190.981 416.599 189.889 415.813 189.889 415.813L189.889 415.813Z" fill="#DB0000"/>
<g clip-path="url(#clip6_1600_65683)">
<path d="M205.195 415.379C205.195 415.379 205.008 415.793 205.438 416.198C205.438 416.198 205.444 415.948 205.977 415.843L206.616 415.718C207.219 415.6 207.559 414.934 207.158 414.395C207.158 414.395 207.593 414.356 207.683 414.062C207.773 413.768 207.601 413.691 207.388 413.732L206.314 413.943C206.351 414.134 205.993 414.232 205.95 414.014L205.347 414.133C205.347 414.133 204.894 414.221 204.96 414.605C204.96 414.605 205.05 414.523 205.15 414.494L205.17 414.596C205.17 414.596 205.05 414.642 204.999 414.685C204.947 414.727 204.879 414.828 205.002 415.03C205.124 415.231 205.17 415.301 205.17 415.301C205.17 415.301 205.277 415.164 205.486 415.123L205.73 415.076C206.165 414.99 206.168 415.428 205.733 415.513C205.298 415.598 205.195 415.379 205.195 415.379L205.195 415.379Z" fill="#DB0000"/>
<path d="M207.386 414.491C207.386 414.491 207.534 414.471 207.622 414.357C207.622 414.357 208.732 414.919 207.599 416.707C206.465 418.496 207.762 419.256 207.762 419.256C207.762 419.256 207.553 419.555 207.794 420.01C207.794 420.01 207.134 419.791 206.568 419.31C205.749 418.615 205.101 417.434 206.708 416.075C206.708 416.075 207.781 415.243 207.385 414.491L207.386 414.491Z" fill="#DB0000"/>
<path d="M205.707 413.909C205.707 413.909 205.832 413.528 206.279 413.44C206.631 413.371 206.676 413.175 206.676 413.175C206.676 413.175 206.772 412.852 207.547 412.7C208.258 412.561 208.783 412.704 209.232 412.944C209.232 412.944 208.061 412.501 207.21 413.614L205.707 413.909Z" fill="#DB0000"/>
<path d="M210.47 415.23C210.23 414.165 209.177 413.179 207.408 413.593C208.859 411.779 212.522 414.477 210.375 416.693C210.375 416.693 210.675 416.018 210.47 415.23L210.47 415.23Z" fill="#DB0000"/>
<path d="M207.703 413.66C209.862 413.169 211.148 415.621 209.975 417.067L208.7 418.024C208.7 418.024 208.401 417.468 208.946 416.642C209.491 415.817 209.893 414.392 207.845 413.909C207.845 413.909 207.846 413.725 207.704 413.66L207.703 413.66Z" fill="#DB0000"/>
<path d="M207.725 414.268C207.725 414.268 207.812 414.147 207.831 414.057C209.579 414.415 209.549 415.607 208.772 416.755C208.3 417.48 208.612 418.101 208.612 418.101C208.612 418.101 207.978 418.692 207.806 419.131C207.806 419.131 206.587 418.446 207.744 416.686C208.88 414.958 207.725 414.269 207.725 414.269L207.725 414.268Z" fill="#DB0000"/>
</g>
<g clip-path="url(#clip7_1600_65683)">
<path d="M213.604 429.233C213.604 429.233 213.46 429.664 213.927 430.023C213.927 430.023 213.909 429.774 214.428 429.617L215.051 429.429C215.64 429.251 215.912 428.555 215.459 428.058C215.459 428.058 215.888 427.976 215.948 427.674C216.008 427.373 215.829 427.313 215.622 427.376L214.574 427.693C214.63 427.879 214.283 428.012 214.219 427.8L213.63 427.978C213.63 427.978 213.189 428.111 213.293 428.486C213.293 428.486 213.374 428.395 213.471 428.357L213.501 428.456C213.501 428.456 213.386 428.514 213.339 428.562C213.292 428.609 213.235 428.716 213.377 428.905C213.519 429.093 213.571 429.158 213.571 429.158C213.571 429.158 213.664 429.011 213.868 428.95L214.106 428.878C214.53 428.75 214.576 429.184 214.152 429.313C213.728 429.441 213.604 429.233 213.604 429.233L213.604 429.233Z" fill="#DB0000"/>
<path d="M215.714 428.134C215.714 428.134 215.859 428.099 215.935 427.977C215.935 427.977 217.096 428.425 216.147 430.318C215.198 432.211 216.564 432.838 216.564 432.838C216.564 432.838 216.386 433.156 216.671 433.585C216.671 433.585 215.993 433.433 215.381 433.011C214.497 432.401 213.734 431.29 215.198 429.778C215.198 429.778 216.182 428.843 215.713 428.134L215.714 428.134Z" fill="#DB0000"/>
<path d="M214.022 427.718C214.022 427.718 214.108 427.326 214.544 427.195C214.887 427.091 214.913 426.891 214.913 426.891C214.913 426.891 214.976 426.56 215.732 426.332C216.425 426.122 216.962 426.212 217.433 426.406C217.433 426.406 216.224 426.082 215.488 427.275L214.022 427.718Z" fill="#DB0000"/>
<path d="M218.889 428.554C218.544 427.518 217.397 426.642 215.679 427.231C216.942 425.281 220.855 427.6 218.941 430.018C218.941 430.018 219.171 429.317 218.889 428.554L218.889 428.554Z" fill="#DB0000"/>
<path d="M215.969 427.264C218.068 426.561 219.592 428.871 218.569 430.428L217.397 431.507C217.397 431.507 217.043 430.984 217.503 430.108C217.963 429.232 218.221 427.774 216.135 427.498C216.135 427.498 216.117 427.314 215.97 427.264L215.969 427.264Z" fill="#DB0000"/>
<path d="M216.05 427.875C216.05 427.875 216.124 427.745 216.134 427.654C217.909 427.836 217.998 429.025 217.339 430.244C216.942 431.013 217.314 431.6 217.314 431.6C217.314 431.6 216.743 432.251 216.616 432.705C216.616 432.705 215.334 432.146 216.31 430.278C217.268 428.446 216.05 427.875 216.05 427.875L216.05 427.875Z" fill="#DB0000"/>
</g>
</g>
</g>
<path d="M103 23.5L115.5 28.5" stroke="#568DF4" stroke-width="3" stroke-linecap="round"/>
<path d="M136 11.5V21" stroke="#568DF4" stroke-width="3" stroke-linecap="round"/>
<path d="M203.836 21.9403C204.067 20.8342 204.087 19.6904 203.896 18.5739C203.705 17.4575 203.305 16.3897 202.719 15.4318C202.133 14.4739 201.372 13.6446 200.48 12.9919C199.587 12.3393 198.58 11.8763 197.517 11.63C197.516 11.6299 197.516 11.6299 197.516 11.6299L162.108 3.4184L162.108 3.41838C159.959 2.92044 157.714 3.33669 155.868 4.57018C154.022 5.80328 152.725 7.75204 152.258 9.98614L152.258 9.98633L132.879 102.849L132.879 102.849C132.413 105.082 132.814 107.423 133.997 109.356C135.18 111.291 137.05 112.661 139.198 113.159L174.606 121.371C175.671 121.617 176.77 121.642 177.841 121.444C178.912 121.246 179.934 120.829 180.848 120.218C181.762 119.607 182.551 118.814 183.17 117.884C183.789 116.955 184.226 115.907 184.458 114.8L203.836 21.9403ZM203.836 21.9403L203.465 21.8545M203.836 21.9403L203.836 21.9403L203.465 21.8545M203.465 21.8545L184.086 114.714C183.865 115.774 183.446 116.777 182.854 117.667C182.262 118.556 181.507 119.314 180.634 119.898C179.761 120.481 178.787 120.879 177.766 121.067C176.745 121.256 175.698 121.233 174.684 120.998L139.276 112.786C137.232 112.312 135.449 111.008 134.319 109.16C133.189 107.313 132.804 105.074 133.25 102.934L197.438 12.0028C198.451 12.2373 199.41 12.6782 200.261 13.3003C201.112 13.9223 201.838 14.7133 202.397 15.6281C202.957 16.5429 203.339 17.5637 203.522 18.632C203.705 19.7003 203.686 20.7953 203.465 21.8545Z" fill="black" stroke="black" stroke-width="0.761821"/>
<path d="M189.726 13.0371L189.726 13.0372L196.592 14.6316C196.592 14.6317 196.592 14.6317 196.592 14.6317C197.355 14.8065 198.077 15.1371 198.717 15.604C199.358 16.0709 199.903 16.6648 200.323 17.3507C200.742 18.0366 201.028 18.801 201.164 19.6C201.3 20.3987 201.284 21.2166 201.117 22.0071C201.117 22.0074 201.117 22.0077 201.117 22.008M189.726 13.0371L175.248 116.956C175.958 117.12 176.691 117.137 177.406 117.005C178.121 116.873 178.803 116.595 179.415 116.186C180.026 115.778 180.554 115.247 180.969 114.624C181.384 114.001 181.677 113.299 181.832 112.557L200.746 21.9213L201.117 22.008M189.726 13.0371L189.716 13.0351C189.158 12.9205 188.583 13.0428 188.118 13.3696C187.654 13.6955 187.335 14.1983 187.228 14.7666L186.962 16.066L186.962 16.066L186.961 16.0725C186.925 16.2608 186.855 16.4396 186.754 16.5987C186.654 16.7577 186.524 16.8934 186.374 16.9986C186.225 17.1037 186.057 17.1762 185.883 17.2128C185.709 17.2491 185.531 17.2494 185.359 17.2142L171.985 14.1128C171.64 14.0227 171.338 13.7927 171.149 13.4678C170.959 13.1409 170.898 12.7452 170.985 12.3679L170.985 12.368L170.987 12.359L171.253 11.0579C171.381 10.4949 171.291 9.89843 171 9.39813C170.707 8.89583 170.234 8.53105 169.682 8.38886L169.682 8.38871L169.671 8.38628L167.254 7.83816L167.254 7.83797M189.726 13.0371L167.254 7.83797M201.117 22.008L182.203 112.642C182.038 113.432 181.726 114.179 181.285 114.842C180.844 115.505 180.281 116.07 179.628 116.506C178.976 116.942 178.246 117.24 177.481 117.381C176.716 117.523 175.931 117.505 175.17 117.328L139.827 109.133M201.117 22.008L139.827 109.133M139.827 109.133C139.066 108.959 138.345 108.629 137.705 108.165C137.066 107.7 136.52 107.108 136.1 106.425C135.68 105.742 135.392 104.98 135.254 104.183C135.115 103.386 135.128 102.57 135.291 101.78L135.292 101.779L154.211 11.1328L154.211 11.1326C154.376 10.3435 154.688 9.5962 155.13 8.93341C155.571 8.2706 156.134 7.70484 156.787 7.26897C157.44 6.83307 158.169 6.53559 158.935 6.39437C159.7 6.25316 160.485 6.27106 161.246 6.44744L161.168 6.82027M139.827 109.133L135.663 101.865L154.582 11.2185C154.737 10.4763 155.031 9.77382 155.446 9.15111C155.861 8.52839 156.389 7.99767 157.001 7.58925C157.612 7.18084 158.295 6.90272 159.01 6.77078C159.725 6.63883 160.458 6.65565 161.168 6.82027M161.168 6.82027L161.246 6.44748M161.168 6.82027L167.177 8.21118L161.246 6.44748M161.246 6.44748L167.254 7.83797M161.246 6.44748L167.254 7.83797" fill="black" stroke="black" stroke-width="0.761821"/>
<path d="M203.063 21.0182C203.297 19.8959 203.313 18.7342 203.109 17.5994C202.904 16.4646 202.484 15.3786 201.871 14.4035C201.258 13.4285 200.464 12.5834 199.535 11.917C198.606 11.2506 197.56 10.776 196.457 10.5205C196.457 10.5205 196.457 10.5205 196.457 10.5205L160.151 2.10419L160.151 2.10417C157.922 1.58786 155.596 1.99634 153.686 3.23721C151.777 4.47789 150.439 6.449 149.964 8.71615L149.964 8.7164L130.578 101.57L130.578 101.57C130.106 103.836 130.534 106.215 131.772 108.184C133.01 110.153 134.956 111.551 137.184 112.067L173.49 120.484C174.594 120.74 175.734 120.771 176.843 120.576C177.953 120.381 179.011 119.965 179.956 119.35C180.902 118.735 181.717 117.935 182.356 116.994C182.994 116.054 183.443 114.992 183.678 113.869L203.063 21.0182ZM203.063 21.0182L202.576 20.9054M203.063 21.0182L203.063 21.0181L202.576 20.9054M202.576 20.9054L183.191 113.756C182.969 114.816 182.545 115.818 181.943 116.705C181.341 117.592 180.572 118.347 179.681 118.926C178.79 119.505 177.793 119.898 176.749 120.081C175.704 120.265 174.632 120.235 173.593 119.994L137.287 111.578C135.19 111.092 133.357 109.776 132.191 107.921C131.024 106.065 130.62 103.821 131.066 101.683L196.355 11.0099C197.393 11.2503 198.377 11.697 199.252 12.3244C200.127 12.9518 200.874 13.7477 201.452 14.6666C202.029 15.5855 202.426 16.6094 202.619 17.6798C202.812 18.7503 202.797 19.8464 202.576 20.9054Z" fill="#0D4FCA" stroke="black"/>
<path d="M195.48 13.5287L188.439 11.8943C187.973 11.7983 187.491 11.8948 187.099 12.1624C186.707 12.4301 186.437 12.8472 186.348 13.3223L186.082 14.6247C186.038 14.8601 185.949 15.0838 185.821 15.283C185.692 15.4822 185.526 15.653 185.332 15.7856C185.137 15.9182 184.919 16.0101 184.689 16.0559C184.459 16.1017 184.222 16.1006 183.991 16.0527L170.269 12.8718C169.808 12.7534 169.409 12.4532 169.159 12.0372C168.91 11.6212 168.831 11.1232 168.94 10.6524L169.207 9.34717C169.315 8.87643 169.236 8.37844 168.987 7.96241C168.737 7.54637 168.338 7.24625 167.877 7.12785L165.399 6.56558L159.237 5.13992C158.509 4.9712 157.758 4.9503 157.026 5.07842C156.295 5.20655 155.597 5.48118 154.972 5.88665C154.348 6.29211 153.81 6.82047 153.388 7.44155C152.966 8.06262 152.669 8.76426 152.513 9.50639L133.587 100.144C133.434 100.887 133.426 101.656 133.563 102.406C133.7 103.156 133.979 103.873 134.386 104.516C134.792 105.159 135.318 105.716 135.932 106.154C136.546 106.592 137.237 106.903 137.966 107.07L174.206 115.47C174.934 115.639 175.685 115.66 176.416 115.531C177.148 115.403 177.845 115.129 178.47 114.723C179.094 114.317 179.632 113.789 180.054 113.168C180.475 112.547 180.772 111.845 180.927 111.103L199.847 20.4761C200.005 19.7325 200.016 18.9625 199.882 18.2103C199.747 17.4581 199.469 16.7386 199.063 16.093C198.657 15.4475 198.131 14.8886 197.517 14.4485C196.902 14.0085 196.209 13.6959 195.48 13.5287Z" fill="#DDEAFF"/>
<path fill-rule="evenodd" clip-rule="evenodd" d="M153.278 18.4236L196.452 28.0622L186.053 75.7845C186.018 75.7724 185.983 75.7614 185.946 75.7517C185.113 75.5288 184.263 76.0454 184.048 76.9055C184.003 77.0854 183.99 77.266 184.004 77.4412L183.928 77.7883L184.081 77.8243C184.245 78.3206 184.64 78.7252 185.168 78.8665C185.236 78.8848 185.305 78.8981 185.373 78.9066L178.468 110.594L135.536 100.67L142.367 69.0025C142.387 69.0084 142.406 69.014 142.426 69.0193C143.259 69.2422 144.109 68.7256 144.323 67.8655C144.538 67.0053 144.037 66.1274 143.204 65.9045C143.15 65.8902 143.097 65.8789 143.043 65.8706L153.278 18.4236ZM148.362 69.4447L145.99 68.8885L146.263 67.6425L148.635 68.1988L148.362 69.4447ZM153.104 70.5572L150.733 70.001L151.006 68.755L153.377 69.3112L153.104 70.5572ZM157.846 71.6697L155.475 71.1134L155.748 69.8675L158.119 70.4237L157.846 71.6697ZM162.588 72.7821L160.217 72.2259L160.49 70.9799L162.861 71.5362L162.588 72.7821ZM167.33 73.8946L164.959 73.3384L165.232 72.0924L167.603 72.6486L167.33 73.8946ZM172.072 75.0071L169.701 74.4508L169.974 73.2049L172.345 73.7611L172.072 75.0071ZM176.815 76.1195L174.444 75.5633L174.717 74.3173L177.088 74.8736L176.815 76.1195ZM181.557 77.232L179.186 76.6758L179.459 75.4298L181.83 75.9861L181.557 77.232Z" fill="white"/>
<path d="M196.452 28.0622L196.577 28.0894L196.604 27.9654L196.48 27.9377L196.452 28.0622ZM153.278 18.4236L153.306 18.2991L153.18 18.2712L153.153 18.3967L153.278 18.4236ZM186.053 75.7845L186.011 75.9051L186.147 75.9522L186.178 75.8117L186.053 75.7845ZM185.946 75.7517L185.979 75.6285L185.946 75.7517ZM184.048 76.9055L183.925 76.8746L184.048 76.9055ZM184.004 77.4412L184.129 77.4685L184.133 77.4499L184.131 77.431L184.004 77.4412ZM183.928 77.7883L183.803 77.761L183.776 77.8837L183.899 77.9124L183.928 77.7883ZM184.081 77.8243L184.202 77.7843L184.18 77.7164L184.11 77.7001L184.081 77.8243ZM185.168 78.8665L185.201 78.7432L185.201 78.7432L185.168 78.8665ZM185.373 78.9066L185.498 78.9338L185.527 78.7974L185.389 78.7801L185.373 78.9066ZM178.468 110.594L178.44 110.719L178.565 110.748L178.593 110.621L178.468 110.594ZM135.536 100.67L135.412 100.643L135.385 100.766L135.508 100.794L135.536 100.67ZM142.367 69.0025L142.405 68.8807L142.272 68.8394L142.243 68.9756L142.367 69.0025ZM142.426 69.0193L142.459 68.8961L142.459 68.8961L142.426 69.0193ZM143.204 65.9045L143.237 65.7813L143.237 65.7813L143.204 65.9045ZM143.043 65.8706L142.918 65.8437L142.89 65.9759L143.023 65.9966L143.043 65.8706ZM145.99 68.8885L145.866 68.8612L145.839 68.984L145.961 69.0127L145.99 68.8885ZM148.362 69.4447L148.332 69.5689L148.458 69.5985L148.486 69.472L148.362 69.4447ZM146.263 67.6425L146.293 67.5183L146.167 67.4888L146.139 67.6152L146.263 67.6425ZM148.635 68.1988L148.759 68.2261L148.786 68.1033L148.664 68.0746L148.635 68.1988ZM150.733 70.001L150.608 69.9737L150.581 70.0964L150.703 70.1251L150.733 70.001ZM153.104 70.5572L153.075 70.6814L153.201 70.7109L153.228 70.5845L153.104 70.5572ZM151.006 68.755L151.035 68.6308L150.909 68.6012L150.881 68.7277L151.006 68.755ZM153.377 69.3112L153.501 69.3385L153.528 69.2158L153.406 69.187L153.377 69.3112ZM155.475 71.1134L155.35 71.0861L155.323 71.2089L155.446 71.2376L155.475 71.1134ZM157.846 71.6697L157.817 71.7938L157.943 71.8234L157.97 71.697L157.846 71.6697ZM155.748 69.8675L155.777 69.7433L155.651 69.7137L155.623 69.8402L155.748 69.8675ZM158.119 70.4237L158.243 70.451L158.27 70.3282L158.148 70.2995L158.119 70.4237ZM160.217 72.2259L160.092 72.1986L160.065 72.3214L160.188 72.3501L160.217 72.2259ZM162.588 72.7821L162.559 72.9063L162.685 72.9359L162.713 72.8094L162.588 72.7821ZM160.49 70.9799L160.519 70.8558L160.393 70.8262L160.365 70.9526L160.49 70.9799ZM162.861 71.5362L162.986 71.5635L163.013 71.4407L162.89 71.412L162.861 71.5362ZM164.959 73.3384L164.835 73.3111L164.808 73.4338L164.93 73.4626L164.959 73.3384ZM167.33 73.8946L167.301 74.0188L167.427 74.0484L167.455 73.9219L167.33 73.8946ZM165.232 72.0924L165.261 71.9682L165.135 71.9387L165.108 72.0651L165.232 72.0924ZM167.603 72.6486L167.728 72.6759L167.755 72.5532L167.632 72.5245L167.603 72.6486ZM169.701 74.4508L169.577 74.4235L169.55 74.5463L169.672 74.575L169.701 74.4508ZM172.072 75.0071L172.043 75.1313L172.169 75.1608L172.197 75.0344L172.072 75.0071ZM169.974 73.2049L170.003 73.0807L169.877 73.0511L169.85 73.1776L169.974 73.2049ZM172.345 73.7611L172.47 73.7884L172.497 73.6656L172.375 73.6369L172.345 73.7611ZM174.444 75.5633L174.319 75.536L174.292 75.6588L174.414 75.6875L174.444 75.5633ZM176.815 76.1195L176.785 76.2437L176.911 76.2733L176.939 76.1468L176.815 76.1195ZM174.717 74.3173L174.746 74.1932L174.62 74.1636L174.592 74.29L174.717 74.3173ZM177.088 74.8736L177.212 74.9009L177.239 74.7781L177.117 74.7494L177.088 74.8736ZM179.186 76.6758L179.061 76.6485L179.034 76.7713L179.157 76.8L179.186 76.6758ZM181.557 77.232L181.528 77.3562L181.654 77.3858L181.681 77.2593L181.557 77.232ZM179.459 75.4298L179.488 75.3056L179.362 75.2761L179.334 75.4025L179.459 75.4298ZM181.83 75.9861L181.954 76.0134L181.981 75.8906L181.859 75.8619L181.83 75.9861ZM196.48 27.9377L153.306 18.2991L153.25 18.5481L196.424 28.1867L196.48 27.9377ZM186.178 75.8117L196.577 28.0894L196.327 28.035L185.929 75.7574L186.178 75.8117ZM185.913 75.8749C185.947 75.8838 185.979 75.8939 186.011 75.9051L186.095 75.664C186.057 75.6509 186.018 75.639 185.979 75.6285L185.913 75.8749ZM184.172 76.9365C184.371 76.1422 185.152 75.6713 185.913 75.8749L185.979 75.6285C185.074 75.3863 184.156 75.9487 183.925 76.8746L184.172 76.9365ZM184.131 77.431C184.118 77.2693 184.131 77.1026 184.172 76.9365L183.925 76.8746C183.876 77.0681 183.862 77.2627 183.877 77.4515L184.131 77.431ZM184.052 77.8156L184.129 77.4685L183.879 77.4139L183.803 77.761L184.052 77.8156ZM184.11 77.7001L183.957 77.6641L183.899 77.9124L184.052 77.9484L184.11 77.7001ZM185.201 78.7432C184.717 78.6139 184.354 78.243 184.202 77.7843L183.96 77.8642C184.136 78.3983 184.562 78.8365 185.135 78.9897L185.201 78.7432ZM185.389 78.7801C185.326 78.7722 185.264 78.76 185.201 78.7432L185.135 78.9897C185.209 79.0095 185.283 79.0239 185.357 79.0332L185.389 78.7801ZM178.593 110.621L185.498 78.9338L185.248 78.8795L178.344 110.567L178.593 110.621ZM135.508 100.794L178.44 110.719L178.497 110.47L135.565 100.545L135.508 100.794ZM142.243 68.9756L135.412 100.643L135.661 100.696L142.492 69.0294L142.243 68.9756ZM142.459 68.8961C142.441 68.8913 142.423 68.8861 142.405 68.8807L142.33 69.1243C142.35 69.1308 142.371 69.1368 142.393 69.1425L142.459 68.8961ZM144.2 67.8345C144.001 68.6288 143.22 69.0997 142.459 68.8961L142.393 69.1425C143.298 69.3847 144.216 68.8223 144.447 67.8964L144.2 67.8345ZM143.171 66.0277C143.934 66.2318 144.399 67.0388 144.2 67.8345L144.447 67.8964C144.678 66.9719 144.141 66.023 143.237 65.7813L143.171 66.0277ZM143.023 65.9966C143.073 66.0042 143.122 66.0146 143.171 66.0277L143.237 65.7813C143.179 65.7658 143.121 65.7535 143.063 65.7445L143.023 65.9966ZM153.153 18.3967L142.918 65.8437L143.168 65.8975L153.403 18.4505L153.153 18.3967ZM145.961 69.0127L148.332 69.5689L148.391 69.3205L146.02 68.7643L145.961 69.0127ZM146.139 67.6152L145.866 68.8612L146.115 68.9158L146.388 67.6698L146.139 67.6152ZM148.664 68.0746L146.293 67.5183L146.234 67.7667L148.605 68.3229L148.664 68.0746ZM148.486 69.472L148.759 68.2261L148.51 68.1715L148.237 69.4174L148.486 69.472ZM150.703 70.1251L153.075 70.6814L153.133 70.433L150.762 69.8768L150.703 70.1251ZM150.881 68.7277L150.608 69.9737L150.857 70.0283L151.13 68.7823L150.881 68.7277ZM153.406 69.187L151.035 68.6308L150.976 68.8792L153.348 69.4354L153.406 69.187ZM153.228 70.5845L153.501 69.3385L153.252 69.2839L152.979 70.5299L153.228 70.5845ZM155.446 71.2376L157.817 71.7938L157.875 71.5455L155.504 70.9892L155.446 71.2376ZM155.623 69.8402L155.35 71.0861L155.599 71.1407L155.872 69.8948L155.623 69.8402ZM158.148 70.2995L155.777 69.7433L155.719 69.9916L158.09 70.5479L158.148 70.2995ZM157.97 71.697L158.243 70.451L157.994 70.3964L157.721 71.6424L157.97 71.697ZM160.188 72.3501L162.559 72.9063L162.617 72.658L160.246 72.1017L160.188 72.3501ZM160.365 70.9526L160.092 72.1986L160.342 72.2532L160.615 71.0072L160.365 70.9526ZM162.89 71.412L160.519 70.8558L160.461 71.1041L162.832 71.6604L162.89 71.412ZM162.713 72.8094L162.986 71.5635L162.736 71.5089L162.463 72.7548L162.713 72.8094ZM164.93 73.4626L167.301 74.0188L167.359 73.7704L164.988 73.2142L164.93 73.4626ZM165.108 72.0651L164.835 73.3111L165.084 73.3657L165.357 72.1197L165.108 72.0651ZM167.632 72.5245L165.261 71.9682L165.203 72.2166L167.574 72.7728L167.632 72.5245ZM167.455 73.9219L167.728 72.6759L167.479 72.6213L167.206 73.8673L167.455 73.9219ZM169.672 74.575L172.043 75.1313L172.102 74.8829L169.73 74.3267L169.672 74.575ZM169.85 73.1776L169.577 74.4235L169.826 74.4781L170.099 73.2322L169.85 73.1776ZM172.375 73.6369L170.003 73.0807L169.945 73.3291L172.316 73.8853L172.375 73.6369ZM172.197 75.0344L172.47 73.7884L172.221 73.7338L171.948 74.9798L172.197 75.0344ZM174.414 75.6875L176.785 76.2437L176.844 75.9954L174.473 75.4391L174.414 75.6875ZM174.592 74.29L174.319 75.536L174.568 75.5906L174.841 74.3446L174.592 74.29ZM177.117 74.7494L174.746 74.1932L174.687 74.4415L177.058 74.9978L177.117 74.7494ZM176.939 76.1468L177.212 74.9009L176.963 74.8463L176.69 76.0922L176.939 76.1468ZM179.157 76.8L181.528 77.3562L181.586 77.1078L179.215 76.5516L179.157 76.8ZM179.334 75.4025L179.061 76.6485L179.31 76.7031L179.583 75.4571L179.334 75.4025ZM181.859 75.8619L179.488 75.3056L179.43 75.554L181.801 76.1102L181.859 75.8619ZM181.681 77.2593L181.954 76.0134L181.705 75.9588L181.432 77.2047L181.681 77.2593Z" fill="white"/>
<path d="M175.224 66.3362L170.188 65.21L170.912 61.7305L175.949 62.8568L177.036 57.6376L180.393 58.3884L179.306 63.6076C179.114 64.5304 178.576 65.3363 177.811 65.848C177.045 66.3598 176.115 66.5354 175.224 66.3362Z" fill="#568DF4"/>
<path d="M154.107 57.9742L155.194 52.755L158.552 53.5058L157.465 58.725L162.502 59.8513L161.777 63.3307L156.741 62.2045C155.85 62.0053 155.072 61.4478 154.578 60.6544C154.085 59.8611 153.915 58.897 154.107 57.9742Z" fill="#568DF4"/>
<path d="M160.366 44.8031L157.008 44.0522L158.095 38.8331C158.287 37.9103 158.825 37.1044 159.59 36.5926C160.356 36.0809 161.286 35.9053 162.177 36.1045L167.214 37.2307L166.489 40.7102L161.452 39.5839L160.366 44.8031Z" fill="#568DF4"/>
<path d="M179.928 43.7137L174.892 42.5875L175.616 39.108L180.653 40.2343C181.543 40.4334 182.321 40.991 182.815 41.7843C183.309 42.5777 183.478 43.5418 183.286 44.4646L182.199 49.6838L178.841 48.9329L179.928 43.7137Z" fill="#568DF4"/>
<path d="M169.998 53.328L166.641 52.5771L167.365 49.0977L170.723 49.8485L169.998 53.328Z" fill="#568DF4"/>
<path d="M172.67 57.5692L169.312 56.8184L170.037 53.3389L173.395 54.0898L172.67 57.5692Z" fill="#568DF4"/>
<path d="M165.928 56.0604L162.57 55.3096L163.295 51.8301L166.653 52.581L165.928 56.0604Z" fill="#568DF4"/>
<path d="M174.123 50.6151L170.766 49.8643L171.49 46.3848L174.848 47.1357L174.123 50.6151Z" fill="#568DF4"/>
<path d="M167.381 49.1063L164.023 48.3555L164.748 44.876L168.106 45.6269L167.381 49.1063Z" fill="#568DF4"/>
<path d="M146.522 79.7089L146.945 78.0923L152.891 79.9466L152.608 81.0244L146.522 79.7089Z" fill="#BCBFE3"/>
<path d="M145.769 82.5368L146.192 80.9201L155.862 82.9887L155.785 84.3491L145.769 82.5368Z" fill="#BCBFE3"/>
<path d="M142.815 91.1925L142.664 92.9194L146.367 93.2464L146.468 92.0951L142.815 91.1925Z" fill="#BCBFE3"/>
<path d="M141.962 95.2894L142.468 93.7496L149.417 95.5677L149.199 96.8592L141.962 95.2894Z" fill="#BCBFE3"/>
<path d="M160.599 28.8304L161.041 27.1683L183.959 32.7222L184.229 34.2145L160.599 28.8304Z" fill="#BCBFE3"/>
<path d="M164.852 84.5737L165.258 82.9517L168.283 83.8494L168.012 84.9308L164.852 84.5737Z" fill="#BCBFE3"/>
<path d="M164.132 87.4103L164.538 85.7883L174.004 87.6536L173.936 89.0128L164.132 87.4103Z" fill="#BCBFE3"/>
<path d="M161.086 96.4839L161.492 94.8618L170.691 97.5917L170.421 98.6731L161.086 96.4839Z" fill="#BCBFE3"/>
<path d="M160.39 99.3229L160.796 97.7009L176.291 101.355L176.387 102.763L160.39 99.3229Z" fill="#BCBFE3"/>
<path fill-rule="evenodd" clip-rule="evenodd" d="M186.596 19.0513C186.927 19.1266 187.134 19.4558 187.059 19.7866L185.396 27.0939C185.32 27.4247 184.991 27.6319 184.66 27.5565L176.425 25.6818C176.453 25.3275 176.218 24.9967 175.861 24.9155C175.505 24.8343 175.15 25.0307 175.022 25.3625L173.1 24.925C172.769 24.8497 172.562 24.5205 172.638 24.1896L174.301 16.8824C174.376 16.5516 174.706 16.3444 175.036 16.4198L176.958 16.8572C176.946 16.8895 176.936 16.923 176.928 16.9577C176.839 17.3491 177.084 17.7387 177.475 17.8278C177.867 17.9169 178.256 17.6718 178.345 17.2804C178.353 17.2457 178.358 17.211 178.361 17.1766L186.596 19.0513Z" fill="#868AC3"/>
<path d="M178.133 20.4796C177.705 20.3874 177.264 20.4307 176.865 20.604C176.466 20.7773 176.128 21.0728 175.893 21.4532C175.658 21.8337 175.537 22.2819 175.545 22.7412C175.553 23.2005 175.689 23.6503 175.938 24.0337C176.186 24.4171 176.534 24.7169 176.939 24.8951C177.344 25.0733 177.787 25.122 178.212 25.035C178.637 24.9481 179.025 24.7293 179.327 24.4064C179.629 24.0835 179.831 23.671 179.908 23.221C180.011 22.6177 179.881 21.9903 179.549 21.4764C179.216 20.9625 178.707 20.604 178.133 20.4796ZM178.261 23.8098C178.25 23.8768 178.213 23.9357 178.16 23.9734C178.107 24.0111 178.041 24.0245 177.977 24.0108L177.785 23.9693L177.761 24.1114C177.751 24.1712 177.723 24.2252 177.68 24.2645C177.637 24.3038 177.582 24.326 177.524 24.3273C177.488 24.3272 177.452 24.3187 177.419 24.3023C177.386 24.2858 177.357 24.2619 177.333 24.2323C177.309 24.2026 177.292 24.1679 177.283 24.1308C177.273 24.0936 177.272 24.0549 177.278 24.0174L177.304 23.8657L177.112 23.8243C177.076 23.8165 177.042 23.8005 177.013 23.7775C176.984 23.7545 176.959 23.725 176.942 23.6911C176.924 23.6572 176.914 23.6198 176.912 23.5816C176.909 23.5434 176.915 23.5054 176.928 23.4702C176.951 23.4148 176.991 23.3697 177.042 23.3424C177.092 23.3152 177.151 23.3075 177.207 23.3206L177.824 23.4534L177.893 23.0489L177.268 22.9142C177.204 22.9005 177.147 22.8607 177.11 22.8035C177.073 22.7464 177.059 22.6767 177.07 22.6096L177.226 21.6996C177.238 21.6325 177.274 21.5737 177.327 21.536C177.38 21.4983 177.446 21.4849 177.51 21.4986L177.702 21.5401L177.727 21.398C177.736 21.3381 177.764 21.284 177.807 21.2446C177.851 21.2053 177.906 21.1832 177.963 21.1821C177.999 21.1821 178.035 21.1907 178.068 21.2071C178.102 21.2235 178.131 21.2475 178.154 21.2771C178.178 21.3068 178.195 21.3415 178.205 21.3786C178.214 21.4158 178.216 21.4545 178.209 21.492L178.183 21.6437L178.376 21.6851C178.411 21.6928 178.445 21.7087 178.475 21.7317C178.504 21.7547 178.529 21.7843 178.546 21.8182C178.564 21.8521 178.574 21.8895 178.576 21.9277C178.579 21.966 178.573 22.0041 178.559 22.0393C178.537 22.0946 178.497 22.1397 178.446 22.1669C178.395 22.1942 178.337 22.2019 178.28 22.1887L177.664 22.056L177.595 22.4605L178.22 22.5952C178.284 22.6089 178.34 22.6487 178.377 22.7058C178.414 22.763 178.429 22.8327 178.417 22.8998L178.261 23.8098Z" fill="#F6F7FA"/>
<path d="M175.912 24.5423L177.188 18.4044" stroke="#F6F7FA" stroke-width="0.62909" stroke-dasharray="1.4 0.7"/>
<path d="M231.269 58.4434L233.685 65.2507C229.42 66.721 227.198 71.3966 228.724 75.6944C230.248 79.9915 234.942 82.2832 239.207 80.8129L241.623 87.6208C241.847 88.2527 241.515 88.9421 240.881 89.1606L207.039 100.828L205.861 97.5093L203.649 98.272L204.826 101.59L188.751 107.133C188.117 107.351 187.421 107.016 187.197 106.384L184.781 99.5762L179.259 84.0145L176.843 77.2066C176.619 76.5747 176.951 75.8853 177.585 75.6668L193.661 70.1248L194.838 73.4426L197.05 72.6799L195.873 69.3621L229.715 57.6949C230.349 57.4764 231.045 57.8115 231.269 58.4434Z" fill="black"/>
<path d="M231.946 56.7293L234.338 63.4718C230.116 64.9274 227.919 69.5628 229.432 73.8255C230.944 78.0875 235.593 80.3627 239.815 78.9071L242.208 85.6501C242.432 86.282 242.1 86.9714 241.466 87.1899L207.973 98.7369L206.805 95.4455L204.614 96.2007L205.782 99.492L189.878 104.975C189.244 105.193 188.549 104.858 188.325 104.227L185.932 97.4835L180.455 82.0487L178.062 75.3057C177.838 74.6739 178.17 73.9845 178.804 73.7659L194.708 68.283L195.876 71.5738L198.066 70.8187L196.898 67.5279L230.392 55.9809C231.026 55.7624 231.722 56.0975 231.946 56.7293Z" fill="#F6F7FA" stroke="black" stroke-width="1.00057"/>
<path d="M214.224 69.6878C212.715 70.1167 211.376 70.9997 210.378 72.2251C209.38 73.4506 208.767 74.9634 208.616 76.5723C208.466 78.1813 208.784 79.814 209.532 81.2641C210.279 82.7142 211.422 83.9165 212.816 84.7189C214.209 85.5214 215.791 85.8881 217.362 85.7725C218.932 85.6569 220.42 85.0642 221.637 84.0695C222.854 83.0748 223.747 81.7226 224.201 80.1841C224.655 78.6455 224.651 76.9896 224.189 75.4258C223.567 73.3304 222.169 71.5497 220.301 70.474C218.433 69.3984 216.247 69.1156 214.224 69.6878ZM219.867 80.0825C219.936 80.3155 219.913 80.5644 219.803 80.7743C219.692 80.9843 219.504 81.1381 219.279 81.202L218.601 81.3948L218.747 81.8885C218.811 82.0947 218.805 82.3152 218.729 82.5132C218.654 82.7111 218.514 82.8744 218.333 82.9756C218.217 83.0367 218.089 83.0702 217.958 83.0737C217.827 83.0772 217.695 83.0507 217.574 82.9959C217.452 82.9412 217.343 82.8597 217.254 82.7573C217.165 82.6549 217.1 82.5341 217.061 82.4038L216.905 81.8767L216.227 82.0695C216.101 82.105 215.969 82.1111 215.839 82.0873C215.709 82.0636 215.585 82.0107 215.476 81.9323C215.367 81.854 215.275 81.7522 215.208 81.6344C215.141 81.5166 215.099 81.3856 215.087 81.2509C215.071 81.0366 215.127 80.8253 215.246 80.6527C215.365 80.48 215.54 80.3566 215.74 80.3033L217.912 79.6859L217.497 78.2803L215.293 78.9068C215.068 78.9707 214.825 78.9394 214.617 78.8199C214.41 78.7003 214.254 78.5022 214.186 78.2692L213.251 75.1065C213.182 74.8735 213.206 74.6247 213.316 74.4147C213.426 74.2048 213.615 74.0509 213.84 73.987L214.518 73.7942L214.372 73.3005C214.307 73.0943 214.313 72.8736 214.388 72.6755C214.464 72.4774 214.604 72.3142 214.786 72.2134C214.901 72.1523 215.029 72.1188 215.161 72.1153C215.292 72.1118 215.423 72.1384 215.545 72.1931C215.667 72.2478 215.776 72.3294 215.865 72.4318C215.953 72.5342 216.019 72.6549 216.058 72.7852L216.213 73.3123L216.892 73.1195C217.017 73.0838 217.15 73.0774 217.28 73.101C217.41 73.1245 217.534 73.1774 217.644 73.2557C217.753 73.334 217.845 73.4358 217.912 73.5538C217.98 73.6717 218.021 73.8028 218.034 73.9376C218.049 74.1522 217.992 74.3634 217.873 74.536C217.754 74.7086 217.579 74.8321 217.378 74.8858L215.206 75.5031L215.622 76.9088L217.826 76.2823C218.051 76.2183 218.294 76.2496 218.501 76.3692C218.709 76.4887 218.864 76.6868 218.933 76.9198L219.867 80.0825Z" fill="#BCBFE3"/>
<path d="M209.691 92.4718L201.789 71.4751" stroke="#BCBFE3" stroke-width="2.25129" stroke-dasharray="5 2.5"/>
<path d="M114.5 5L124.5 24" stroke="#568DF4" stroke-width="3" stroke-linecap="round"/>
</g>
<defs>
<clipPath id="clip0_1600_65683">
<rect width="452" height="440" fill="white"/>
</clipPath>
<clipPath id="clip1_1600_65683">
<rect width="525.471" height="793.26" fill="white" transform="translate(95.5312 -25.8076)"/>
</clipPath>
<clipPath id="clip2_1600_65683">
<rect width="186.947" height="156.631" fill="white" transform="translate(250.922 110.039)"/>
</clipPath>
<clipPath id="clip3_1600_65683">
<rect width="71.6867" height="107.53" fill="white" transform="translate(166.102 352.029)"/>
</clipPath>
<clipPath id="clip4_1600_65683">
<rect width="8.84615" height="8.84615" fill="white" transform="translate(180.93 427.622) rotate(3.71326)"/>
</clipPath>
<clipPath id="clip5_1600_65683">
<rect width="8.84615" height="8.84615" fill="white" transform="translate(195.68 427.509) rotate(-6.16071)"/>
</clipPath>
<clipPath id="clip6_1600_65683">
<rect width="8.84615" height="8.84615" fill="white" transform="translate(203.008 412.655) rotate(-11.09)"/>
</clipPath>
<clipPath id="clip7_1600_65683">
<rect width="8.84614" height="8.84614" fill="white" transform="translate(211.172 426.748) rotate(-16.8188)"/>
</clipPath>
</defs>
</svg>
