<svg width="484" height="432" viewBox="0 0 484 432" fill="none" xmlns="http://www.w3.org/2000/svg">
<g clip-path="url(#clip0_1979_29273)">
<rect x="74.5" y="27.5" width="377.293" height="377.293" rx="188.647" fill="#F7F9FE"/>
<rect x="74.5" y="27.5" width="377.293" height="377.293" rx="188.647" stroke="#E7EFFC"/>
<mask id="mask0_1979_29273" style="mask-type:alpha" maskUnits="userSpaceOnUse" x="75" y="28" width="377" height="377">
<circle cx="263.147" cy="216.147" r="188.147" fill="#DFE1F2"/>
</mask>
<g mask="url(#mask0_1979_29273)">
<path d="M58.7969 62.1608H704.307" stroke="#E7EFFC" stroke-width="0.522982" stroke-linejoin="round"/>
<path d="M58.7969 102.127H704.307" stroke="#E7EFFC" stroke-width="0.522982" stroke-linejoin="round"/>
<path d="M58.7969 142.104H704.307" stroke="#E7EFFC" stroke-width="0.522982" stroke-linejoin="round"/>
<path d="M58.7969 182.071H704.307" stroke="#E7EFFC" stroke-width="0.522982" stroke-linejoin="round"/>
<path d="M58.7969 222.042H704.307" stroke="#E7EFFC" stroke-width="0.522982" stroke-linejoin="round"/>
<path d="M58.7969 262.014H704.307" stroke="#E7EFFC" stroke-width="0.522982" stroke-linejoin="round"/>
<path d="M58.7969 301.98H704.307" stroke="#E7EFFC" stroke-width="0.522982" stroke-linejoin="round"/>
<path d="M58.7969 341.95H704.307" stroke="#E7EFFC" stroke-width="0.522982" stroke-linejoin="round"/>
<path d="M58.7969 381.915H704.307" stroke="#E7EFFC" stroke-width="0.522982" stroke-linejoin="round"/>
<path d="M421.512 19.1852L421.512 664.696" stroke="#E7EFFC" stroke-width="0.522982" stroke-linejoin="round"/>
<path d="M381.551 19.1852L381.551 664.696" stroke="#E7EFFC" stroke-width="0.522982" stroke-linejoin="round"/>
<path d="M341.59 19.1852L341.59 664.696" stroke="#E7EFFC" stroke-width="0.522982" stroke-linejoin="round"/>
<path d="M301.617 19.1852L301.617 664.696" stroke="#E7EFFC" stroke-width="0.522982" stroke-linejoin="round"/>
<path d="M261.625 19.1852L261.625 664.696" stroke="#E7EFFC" stroke-width="0.522982" stroke-linejoin="round"/>
<path d="M221.664 19.1852L221.664 664.696" stroke="#E7EFFC" stroke-width="0.522982" stroke-linejoin="round"/>
<path d="M181.695 19.1852L181.695 664.696" stroke="#E7EFFC" stroke-width="0.522982" stroke-linejoin="round"/>
<path d="M141.727 19.1852L141.727 664.696" stroke="#E7EFFC" stroke-width="0.522982" stroke-linejoin="round"/>
<path d="M101.754 19.1852L101.754 664.696" stroke="#E7EFFC" stroke-width="0.522982" stroke-linejoin="round"/>
<path d="M238.83 64.9813L238.829 64.9821C204.771 107.812 204.629 166.697 234.742 209.157L239.983 255.654L240.082 256.524L240.953 256.427L287.576 251.228C336.135 271.11 393.673 257.663 427.734 214.83C469.183 162.842 460.506 87.1222 408.353 45.7559C356.2 4.38988 280.279 12.9928 238.83 64.9813Z" fill="#E9EBFF" stroke="black" stroke-width="1.75639"/>
</g>
<g clip-path="url(#clip1_1979_29273)">
<path d="M90.0435 393.518C79.5011 402.063 61.5097 439.39 78.9873 480.779C95.0421 547.467 100.091 572.242 100.922 610.215C100.924 610.303 100.926 610.391 100.928 610.479C100.982 622.516 73.9701 658.967 60.3571 675.807C66.3336 694.248 77.974 729.304 76.7238 721.995C84.4315 709.393 99.8267 684.968 99.7466 688.087C99.3832 702.162 98.9894 718.104 98.629 736.433L152.32 734.525L156.562 611.955L176.658 591.291C192.84 575.721 212.47 543.688 206.775 533.919C197.489 517.991 179.849 445.117 167.94 385.947C167.94 385.947 153.358 377.261 130.297 379.793C107.236 382.325 90.0435 393.518 90.0435 393.518Z" fill="#BCBFE3"/>
<path d="M153.007 415.774C164.719 480.41 158.641 551.886 158.641 551.886L156.562 611.955M100.922 610.215C100.091 572.242 95.0421 547.467 78.9873 480.779C61.5097 439.39 79.5011 402.063 90.0435 393.518C90.0435 393.518 107.236 382.325 130.297 379.793C153.358 377.261 167.94 385.947 167.94 385.947C179.849 445.117 197.489 517.991 206.775 533.919C212.47 543.688 192.84 575.721 176.658 591.291M100.922 610.215C101.385 621.973 74.0715 658.842 60.3571 675.807C66.3336 694.248 77.974 729.304 76.7238 721.995C84.4315 709.393 99.8267 684.968 99.7466 688.086M100.922 610.215C101.355 629.995 100.643 653.355 99.7466 688.086M99.7466 688.086C99.3832 702.162 98.9894 718.104 98.629 736.433L152.32 734.525L156.562 611.955M156.562 611.955C157.434 609.204 166.456 601.108 176.658 591.291M156.562 611.955L176.658 591.291" stroke="black" stroke-width="2.33674" stroke-linecap="round" stroke-linejoin="round"/>
<path d="M120.203 422.183C118.565 434.733 110.081 458.156 89.2427 451.452" stroke="black" stroke-width="2.33674" stroke-linecap="round" stroke-linejoin="round"/>
<path d="M181.139 320.177C191.673 318.514 204.008 305.162 208.859 298.694L178.367 312.554L181.139 320.177Z" fill="black" stroke="black" stroke-width="2.6334" stroke-linecap="round" stroke-linejoin="round"/>
<path d="M210.245 318.791L196.671 291.726C193.048 289.935 179.885 297.412 177.128 304.275C177.128 304.275 185.683 339.479 196.671 340.967C207.658 342.454 266.435 341.942 298.003 324.55C300.847 323.275 301.97 320.383 302.735 317.212C304.925 315.643 304.701 312.88 303.521 311.586C305.054 308.68 303.448 306.03 302.28 304.259C299.674 300.303 291.975 301.517 286.83 303.114C283.057 289.352 268.949 289.21 272.152 293.109C278.751 301.14 277.144 307.476 277.144 307.476C277.144 307.476 271.229 312.861 249.053 317.212C226.877 321.563 210.245 318.791 210.245 318.791Z" fill="#CE8361" stroke="black" stroke-width="2.33674" stroke-linecap="round" stroke-linejoin="round"/>
<path d="M256.288 349.459L259.831 280.445C259.914 278.846 261.237 277.593 262.838 277.599L297.933 277.726C299.624 277.732 300.976 279.135 300.92 280.826L298.909 341.103L298.626 349.604C298.572 351.217 297.251 352.499 295.636 352.504L259.293 352.613C257.573 352.618 256.2 351.177 256.288 349.459Z" fill="#B4BAF8" stroke="black" stroke-width="2" stroke-linecap="round" stroke-linejoin="round"/>
<circle cx="270.346" cy="290.333" r="4.158" transform="rotate(-11.4818 270.346 290.333)" fill="black"/>
<path d="M129.354 218.306C161.735 227.315 185.297 279.29 208.166 298.001C208.166 298.001 185.838 306.317 178.215 313.94C187.217 345.308 191.24 374.888 191.724 390.863C170.241 383.24 131.433 387.398 116.88 394.328C105.238 399.872 77.8413 395.714 65.5983 392.942C61.2501 376.31 68.8731 335.423 82.9233 309.782C74.6073 304.931 53.8173 301.466 39.9573 298.001C48.8277 265.291 81.5373 225.698 96.7833 209.99L129.354 218.306Z" fill="#505798"/>
<path d="M82.9233 309.782C74.6073 304.931 53.8173 301.466 39.9573 298.001C48.8277 265.291 81.5373 225.698 96.7833 209.99L129.354 218.306C161.735 227.315 185.297 279.29 208.166 298.001C208.166 298.001 185.838 306.317 178.215 313.94M82.9233 309.782C68.8731 335.423 61.2501 376.31 65.5983 392.942C77.8413 395.714 105.238 399.872 116.88 394.328C131.433 387.398 170.241 383.24 191.724 390.863C190.8 360.371 176.981 280.303 140.252 232.859M82.9233 309.782L96.7833 316.712C93.3183 300.773 99.3651 259.193 103.523 235.631" stroke="black" stroke-width="2.33674" stroke-linecap="round" stroke-linejoin="round"/>
<path d="M39.9784 298.001C54.1464 307.016 85.7625 323.587 96.1113 317.405C78.5553 310.322 42.196 296.456 39.9784 298.001Z" fill="black" stroke="black" stroke-width="2.6334" stroke-linecap="round" stroke-linejoin="round"/>
<path d="M68.6055 442.474C65.0659 431.631 73.3121 361.485 87.4219 312.19C73.242 304.238 58.689 302.488 52.6017 302.488C43.8916 347.003 50.8795 398.598 49.8418 442.474C46.4871 453.376 45.1585 473.385 49.8418 477.817C52.7714 480.589 53.4644 477.817 53.4644 475.738C54.3266 478.485 54.0941 480.773 56.5512 480.773C59.0084 480.773 59.8401 476.397 59.9059 474.968C59.9059 479.162 61.4466 480.773 64.0993 480.773C68.7104 480.589 65.7767 469.097 68.6055 458.841C70.1781 461.857 74.6022 466.941 79.7179 463.154C81.1844 462.068 69.822 451.095 68.6055 442.474Z" fill="#CE8361"/>
<path d="M59.9059 474.968C59.9059 479.162 61.4466 480.773 64.0993 480.773C68.7104 480.589 65.7767 469.097 68.6055 458.841C70.1781 461.857 74.6022 466.941 79.7179 463.154C81.1844 462.068 69.822 451.095 68.6055 442.474C65.0659 431.631 73.3121 361.485 87.4219 312.19C73.242 304.238 58.689 302.488 52.6017 302.488C43.8916 347.003 50.8795 398.598 49.8418 442.474C46.4871 453.376 45.1585 473.385 49.8418 477.817C52.7714 480.589 53.4644 477.817 53.4644 475.738M59.9059 474.968C59.8401 476.397 59.0084 480.773 56.5512 480.773C54.0941 480.773 54.3266 478.485 53.4644 475.738M59.9059 474.968C59.9059 474.968 59.0084 470.887 59.9059 458.841M53.4644 475.738C53.4644 475.738 51.3854 464.65 53.4644 458.841" stroke="black" stroke-width="2.33674" stroke-linecap="round" stroke-linejoin="round"/>
<path d="M90.5668 313.94L72.5488 394.328C72.5488 388.281 82.2508 338.217 87.1018 313.94H90.5668Z" fill="black" stroke="black" stroke-width="2.6334" stroke-linecap="round" stroke-linejoin="round"/>
<path d="M285.487 307.279C286.526 310.129 293.483 308.668 298.157 306.964C302.832 305.259 303.18 303.205 302.415 301.107C301.65 299.009 300.061 297.661 295.387 299.365C290.712 301.07 284.448 304.43 285.487 307.279Z" fill="#CE8361" stroke="black" stroke-width="2.33674" stroke-linecap="round" stroke-linejoin="round"/>
<path d="M288.259 314.209C289.298 317.059 296.255 315.598 300.93 313.894C305.604 312.189 305.952 310.135 305.187 308.037C304.422 305.939 302.834 304.591 298.159 306.295C293.485 308 287.22 311.36 288.259 314.209Z" fill="#CE8361" stroke="black" stroke-width="2.33674" stroke-linecap="round" stroke-linejoin="round"/>
<path d="M289.645 321.139C290.684 323.989 297.641 322.528 302.316 320.824C306.99 319.119 307.338 317.065 306.573 314.967C305.808 312.869 304.219 311.521 299.545 313.225C294.87 314.93 288.606 318.29 289.645 321.139Z" fill="#CE8361" stroke="black" stroke-width="2.33674" stroke-linecap="round" stroke-linejoin="round"/>
<path d="M167.158 175.087V121.726C167.158 121.726 161.614 93.9897 127.657 93.2967C93.7002 92.6037 90.2353 120.324 90.2353 120.324C90.2353 133.597 94.4374 141.051 99.6406 145.091C93.9087 141.643 85.2302 138.916 83.3053 148.06C81.0877 158.594 92.5452 162.613 98.5512 163.306C102.986 187.145 98.5512 204.655 95.7793 210.43C101.323 221.518 120.727 219.67 129.736 217.36V200.035C166.881 201.144 167.158 187.561 167.158 175.087Z" fill="#CE8361" stroke="black" stroke-width="2.33674" stroke-linejoin="round"/>
<path d="M129.043 200.034C124.187 199.814 116.211 198.37 114.059 194.373C113.969 194.176 113.881 193.984 113.797 193.797C113.871 193.995 113.959 194.187 114.059 194.373C117.425 201.712 124.724 215.586 129.043 216.666V200.034Z" fill="black" stroke="black" stroke-width="2.33674" stroke-linecap="round" stroke-linejoin="round"/>
<path d="M178.939 108.544C175.705 98.8419 160.921 96.5318 148.447 98.1488C133.201 83.5965 84.6913 79.4377 74.9893 122.404C67.2277 156.776 87.2323 176.919 99.2443 184.08C99.2443 184.08 99.8479 183.656 99.9373 183.387C101.046 180.061 99.4753 168.141 98.5513 162.597C87.4633 162.597 81.2263 151.509 86.0773 144.579C89.9581 139.035 99.2443 143.655 103.402 146.658C110.055 144.995 113.104 136.263 113.797 132.105C188.641 141.114 182.173 118.246 178.939 108.544Z" fill="black" stroke="black" stroke-width="2.33674" stroke-linecap="round" stroke-linejoin="round"/>
<circle cx="17.325" cy="17.325" r="17.325" transform="matrix(-1 0 0 1 90.2344 157.053)" fill="black"/>
<path d="M70.8311 163.983C64.5941 165.369 59.7431 168.834 61.1291 178.536" stroke="white" stroke-width="2.6334" stroke-linecap="round" stroke-linejoin="round"/>
<path d="M152.604 104.77C160.458 103.798 174.087 104.77 176.166 112.932C178.354 121.52 170.781 124.787 168.088 125.176" stroke="white" stroke-width="2.6334" stroke-linecap="round" stroke-linejoin="round"/>
<path d="M150.858 143.86C154.323 142.474 160.56 144.691 160.56 150.79" stroke="black" stroke-width="2.079" stroke-linecap="round" stroke-linejoin="round"/>
<path d="M131.455 145.246C129.376 144.553 124.941 146.077 123.832 149.404" stroke="black" stroke-width="2.079" stroke-linecap="round" stroke-linejoin="round"/>
<path d="M121.753 167.717C121.753 173.261 125.218 178.22 130.288 181.118C138.049 185.553 147.394 184.349 152.464 180.425" stroke="black" stroke-width="2.33674" stroke-linecap="round" stroke-linejoin="round"/>
<circle cx="2.079" cy="2.079" r="2.079" transform="matrix(-1 0 0 1 133.534 150.642)" fill="black"/>
<circle cx="2.079" cy="2.079" r="2.079" transform="matrix(-1 0 0 1 155.71 149.24)" fill="black"/>
<path d="M137.289 159.644C138.405 155.983 142.277 153.919 145.938 155.034C149.599 156.15 151.663 160.022 150.548 163.683C149.887 165.852 148.259 167.46 146.28 168.179" stroke="black" stroke-width="2.33674" stroke-linecap="round" stroke-linejoin="round"/>
<path d="M97.498 211.376V207.911L122.446 211.376L130.762 218.306L121.06 222.464L119.674 228.008L123.832 239.789V248.105L112.051 228.008L97.498 211.376Z" fill="#CE8361"/>
<path d="M122.446 223.157C119.674 222.602 118.981 226.622 118.981 228.701L117.595 219.691C120.921 219.691 129.145 218.305 132.148 217.612C131.917 215.764 131.732 212.068 132.841 212.068C133.949 212.068 135.613 213.916 136.306 214.84V232.165C132.841 232.165 125.911 223.85 122.446 223.157Z" fill="white" stroke="black" stroke-width="2.33674" stroke-linecap="round" stroke-linejoin="round"/>
<path d="M111.144 227.631C111.282 228.028 111.358 228.393 111.358 228.701L111.144 227.631C110.348 225.343 107.483 221.991 105.121 222.464C101.656 223.157 93.34 226.622 89.875 226.622L92.647 209.99C93.34 209.066 95.0032 207.218 96.112 207.218C97.2208 207.218 97.036 209.528 96.805 211.376C100.27 215.534 105.953 218.306 109.279 218.306L111.144 227.631Z" fill="white"/>
<path d="M111.358 228.701C111.358 226.622 107.893 221.909 105.121 222.464C101.656 223.157 93.34 226.622 89.875 226.622L92.647 209.99C93.34 209.066 95.0032 207.218 96.112 207.218C97.2208 207.218 97.036 209.528 96.805 211.376C100.27 215.534 105.953 218.306 109.279 218.306L111.358 228.701ZM111.358 228.701C114.13 234.245 121.199 235.076 124.525 255.035" stroke="black" stroke-width="2.33674" stroke-linecap="round" stroke-linejoin="round"/>
<path d="M118.98 229.394C120.366 234.245 125.91 237.71 124.524 255.035" stroke="black" stroke-width="2.33674" stroke-linecap="round" stroke-linejoin="round"/>
<circle cx="141.85" cy="139.304" r="1.386" fill="black"/>
<mask id="path-56-outside-1_1979_29273" maskUnits="userSpaceOnUse" x="176.995" y="317.325" width="95.4381" height="150.897" fill="black">
<rect fill="white" x="176.995" y="317.325" width="95.4381" height="150.897"/>
<path fill-rule="evenodd" clip-rule="evenodd" d="M214.327 319.685C208.033 319.888 206.94 331.625 205.649 345.482C204.871 353.836 204.021 362.96 201.916 370.792C197.006 369.665 193.217 368.758 192.323 368.509C186.382 385.171 183.252 415.58 181.352 434.035L181.352 434.035L181.352 434.036C180.763 439.761 180.292 444.336 179.892 446.993C178.271 457.77 185.621 457.747 193.495 457.723C195.868 457.715 198.289 457.708 200.525 457.996C205.964 458.696 211.415 459.484 216.805 460.264L216.806 460.264C226.516 461.669 236.027 463.044 244.911 463.825C247.913 464.088 250.728 464.503 253.285 464.88C262.494 466.238 268.367 467.104 267.675 458.641C267.466 456.083 267.662 449.425 267.92 440.644C268.535 419.73 269.503 386.773 266.202 368.479C263.916 369.839 259.108 371.546 253.47 373.03C251.195 361.8 251.835 352.611 252.248 346.67C252.578 341.94 252.763 339.27 251.22 339.27C248.352 339.27 246.855 339.725 243.735 340.674C243.585 340.72 243.432 340.766 243.275 340.814C243.623 347.033 243.438 351.108 243.229 355.689C243.006 360.574 242.757 366.035 243.102 375.286C236.926 376.343 230.914 376.819 226.886 376.101C223.685 375.53 219.339 374.639 214.806 373.663C217.543 365.069 216.949 356.423 216.383 348.2C215.667 337.785 214.998 328.049 221.201 319.955C222.728 319.75 215.224 319.656 214.327 319.685Z"/>
</mask>
<path fill-rule="evenodd" clip-rule="evenodd" d="M214.327 319.685C208.033 319.888 206.94 331.625 205.649 345.482C204.871 353.836 204.021 362.96 201.916 370.792C197.006 369.665 193.217 368.758 192.323 368.509C186.382 385.171 183.252 415.58 181.352 434.035L181.352 434.035L181.352 434.036C180.763 439.761 180.292 444.336 179.892 446.993C178.271 457.77 185.621 457.747 193.495 457.723C195.868 457.715 198.289 457.708 200.525 457.996C205.964 458.696 211.415 459.484 216.805 460.264L216.806 460.264C226.516 461.669 236.027 463.044 244.911 463.825C247.913 464.088 250.728 464.503 253.285 464.88C262.494 466.238 268.367 467.104 267.675 458.641C267.466 456.083 267.662 449.425 267.92 440.644C268.535 419.73 269.503 386.773 266.202 368.479C263.916 369.839 259.108 371.546 253.47 373.03C251.195 361.8 251.835 352.611 252.248 346.67C252.578 341.94 252.763 339.27 251.22 339.27C248.352 339.27 246.855 339.725 243.735 340.674C243.585 340.72 243.432 340.766 243.275 340.814C243.623 347.033 243.438 351.108 243.229 355.689C243.006 360.574 242.757 366.035 243.102 375.286C236.926 376.343 230.914 376.819 226.886 376.101C223.685 375.53 219.339 374.639 214.806 373.663C217.543 365.069 216.949 356.423 216.383 348.2C215.667 337.785 214.998 328.049 221.201 319.955C222.728 319.75 215.224 319.656 214.327 319.685Z" fill="#E9EBFF"/>
<path d="M205.649 345.482L203.657 345.297L205.649 345.482ZM214.327 319.685L214.263 317.686L214.327 319.685ZM201.916 370.792L203.848 371.311L203.348 373.172L201.469 372.741L201.916 370.792ZM192.323 368.509L190.44 367.837L191.065 366.082L192.86 366.583L192.323 368.509ZM181.352 434.035L179.352 434.016L179.353 433.923L179.363 433.83L181.352 434.035ZM181.352 434.035L183.352 434.054L183.351 434.154L183.34 434.253L181.352 434.035ZM181.352 434.036L179.362 433.831L179.364 433.818L181.352 434.036ZM179.892 446.993L181.87 447.291L181.87 447.291L179.892 446.993ZM193.495 457.723L193.489 455.723L193.495 457.723ZM200.525 457.996L200.781 456.012L200.781 456.012L200.525 457.996ZM216.805 460.264L217.091 458.285L217.108 458.287L217.124 458.29L216.805 460.264ZM216.806 460.264L216.519 462.244L216.503 462.241L216.486 462.238L216.806 460.264ZM244.911 463.825L245.086 461.832L245.086 461.832L244.911 463.825ZM253.285 464.88L253.576 462.902L253.576 462.902L253.285 464.88ZM267.675 458.641L269.669 458.479L267.675 458.641ZM267.92 440.644L269.919 440.703L267.92 440.644ZM266.202 368.479L265.179 366.76L267.658 365.287L268.17 368.124L266.202 368.479ZM253.47 373.03L253.979 374.964L251.93 375.504L251.51 373.427L253.47 373.03ZM252.248 346.67L250.253 346.531L252.248 346.67ZM251.22 339.27L251.22 341.27L251.22 341.27L251.22 339.27ZM243.735 340.674L243.153 338.761L243.153 338.761L243.735 340.674ZM243.275 340.814L241.278 340.926L241.191 339.357L242.694 338.9L243.275 340.814ZM243.229 355.689L241.231 355.598L243.229 355.689ZM243.102 375.286L245.1 375.212L245.165 376.962L243.439 377.258L243.102 375.286ZM226.886 376.101L227.237 374.132L227.237 374.132L226.886 376.101ZM214.806 373.663L214.385 375.619L212.232 375.155L212.901 373.056L214.806 373.663ZM216.383 348.2L214.388 348.337L216.383 348.2ZM221.201 319.955L219.614 318.738L220.117 318.082L220.936 317.972L221.201 319.955ZM203.657 345.297C204.297 338.431 204.904 331.844 206.176 326.959C206.812 324.518 207.659 322.305 208.897 320.654C210.186 318.933 211.957 317.76 214.263 317.686L214.392 321.684C213.551 321.711 212.825 322.082 212.098 323.052C211.32 324.091 210.633 325.717 210.047 327.967C208.876 332.466 208.291 338.676 207.64 345.668L203.657 345.297ZM199.985 370.273C202.037 362.637 202.876 353.691 203.657 345.297L207.64 345.668C206.866 353.981 206.005 363.284 203.848 371.311L199.985 370.273ZM192.86 366.583C193.698 366.816 197.433 367.711 202.364 368.843L201.469 372.741C196.579 371.619 192.735 370.7 191.787 370.436L192.86 366.583ZM179.363 433.83C180.312 424.607 181.573 412.35 183.343 400.309C185.108 388.3 187.398 376.366 190.44 367.837L194.207 369.181C191.307 377.314 189.061 388.916 187.301 400.89C185.545 412.833 184.292 425.007 183.341 434.24L179.363 433.83ZM179.352 434.016L179.352 434.016L183.352 434.054L183.352 434.054L179.352 434.016ZM179.364 433.818L179.364 433.817L183.34 434.253L183.34 434.254L179.364 433.818ZM177.914 446.696C178.305 444.098 178.77 439.584 179.362 433.831L183.341 434.241C182.755 439.939 182.278 444.575 181.87 447.291L177.914 446.696ZM193.501 459.723C191.555 459.729 189.52 459.737 187.637 459.563C185.761 459.391 183.862 459.027 182.223 458.189C180.522 457.32 179.14 455.959 178.36 453.94C177.606 451.986 177.48 449.583 177.914 446.696L181.87 447.291C181.493 449.792 181.678 451.427 182.092 452.499C182.481 453.506 183.125 454.158 184.043 454.627C185.023 455.128 186.337 455.427 188.003 455.58C189.662 455.733 191.498 455.729 193.489 455.723L193.501 459.723ZM200.27 459.979C198.187 459.711 195.903 459.715 193.501 459.723L193.489 455.723C195.833 455.715 198.39 455.704 200.781 456.012L200.27 459.979ZM216.518 462.243C211.126 461.463 205.691 460.677 200.27 459.979L200.781 456.012C206.238 456.715 211.704 457.505 217.091 458.285L216.518 462.243ZM216.486 462.238L216.485 462.238L217.124 458.29L217.125 458.29L216.486 462.238ZM244.736 465.817C235.786 465.031 226.217 463.646 216.519 462.244L217.092 458.285C226.815 459.691 236.268 461.058 245.086 461.832L244.736 465.817ZM252.993 466.859C250.43 466.481 247.671 466.075 244.736 465.817L245.086 461.832C248.155 462.102 251.025 462.525 253.576 462.902L252.993 466.859ZM269.669 458.479C269.856 460.775 269.633 462.762 268.767 464.34C267.85 466.008 266.377 466.933 264.705 467.377C263.109 467.8 261.263 467.807 259.363 467.663C257.444 467.516 255.275 467.195 252.993 466.859L253.576 462.902C255.899 463.244 257.917 463.541 259.668 463.674C261.437 463.809 262.743 463.759 263.68 463.51C264.541 463.282 264.982 462.922 265.26 462.415C265.588 461.817 265.84 460.739 265.682 458.804L269.669 458.479ZM269.919 440.703C269.658 449.574 269.471 456.065 269.669 458.479L265.682 458.804C265.461 456.102 265.665 449.277 265.921 440.585L269.919 440.703ZM268.17 368.124C271.518 386.675 270.531 419.889 269.919 440.703L265.921 440.585C266.539 419.571 267.489 386.872 264.234 368.835L268.17 368.124ZM252.961 371.096C258.587 369.614 263.155 367.964 265.179 366.76L267.224 370.198C264.677 371.713 259.628 373.477 253.979 374.964L252.961 371.096ZM254.243 346.809C253.831 352.725 253.212 361.684 255.43 372.633L251.51 373.427C249.178 361.915 249.838 352.496 250.253 346.531L254.243 346.809ZM251.22 337.27C251.71 337.27 252.233 337.379 252.723 337.663C253.21 337.945 253.555 338.335 253.793 338.732C254.23 339.461 254.37 340.321 254.429 341.029C254.551 342.48 254.403 344.52 254.243 346.809L250.253 346.531C250.423 344.09 250.533 342.43 250.443 341.363C250.397 340.813 250.315 340.71 250.363 340.79C250.406 340.862 250.515 341.007 250.718 341.124C250.925 341.244 251.115 341.27 251.22 341.27L251.22 337.27ZM243.153 338.761C246.288 337.807 248.032 337.27 251.22 337.27L251.22 341.27C248.673 341.27 247.422 341.643 244.317 342.588L243.153 338.761ZM242.694 338.9C242.851 338.853 243.003 338.806 243.153 338.761L244.317 342.588C244.167 342.633 244.014 342.68 243.856 342.728L242.694 338.9ZM241.231 355.598C241.439 351.03 241.62 347.039 241.278 340.926L245.272 340.702C245.626 347.027 245.436 351.186 245.227 355.78L241.231 355.598ZM241.103 375.361C240.756 366.029 241.007 360.506 241.231 355.598L245.227 355.78C245.005 360.643 244.759 366.041 245.1 375.212L241.103 375.361ZM227.237 374.132C230.903 374.785 236.624 374.366 242.764 373.315L243.439 377.258C237.228 378.321 230.926 378.852 226.535 378.07L227.237 374.132ZM215.227 371.708C219.755 372.683 224.071 373.568 227.237 374.132L226.535 378.07C223.298 377.493 218.924 376.596 214.385 375.619L215.227 371.708ZM218.378 348.063C218.94 356.232 219.582 365.257 216.712 374.27L212.901 373.056C215.504 364.881 214.957 356.614 214.388 348.337L218.378 348.063ZM222.789 321.171C217.121 328.566 217.651 337.487 218.378 348.063L214.388 348.337C213.683 338.083 212.874 327.531 219.614 318.738L222.789 321.171ZM214.263 317.686C214.777 317.669 216.932 317.687 218.724 317.733C219.622 317.756 220.488 317.786 221.045 317.828C221.186 317.838 221.328 317.851 221.457 317.867C221.517 317.874 221.791 317.904 222.064 318.003C222.141 318.031 222.327 318.103 222.533 318.244C222.677 318.344 223.25 318.758 223.381 319.587C223.534 320.556 222.973 321.189 222.728 321.406C222.48 321.625 222.237 321.73 222.152 321.765C221.843 321.893 221.522 321.929 221.467 321.937L220.936 317.972C221.071 317.954 220.871 317.966 220.619 318.07C220.548 318.1 220.316 318.198 220.075 318.412C219.837 318.623 219.277 319.249 219.43 320.213C219.561 321.036 220.128 321.445 220.265 321.539C220.462 321.675 220.636 321.74 220.699 321.763C220.91 321.84 221.069 321.849 220.964 321.836C220.929 321.832 220.861 321.825 220.75 321.817C220.301 321.783 219.522 321.754 218.622 321.731C216.819 321.686 214.774 321.671 214.392 321.684L214.263 317.686Z" fill="black" mask="url(#path-56-outside-1_1979_29273)"/>
</g>
<path d="M263.02 411.27C264.055 422.128 265.257 444.037 263.99 448.617" stroke="black" stroke-width="2.3927" stroke-linecap="round" stroke-linejoin="round"/>
<path d="M256.648 191.326L256.648 191.326C255.779 195.495 256.526 199.864 258.734 203.475C260.944 207.086 264.435 209.643 268.444 210.573L334.544 225.903C336.531 226.363 338.583 226.409 340.583 226.039C342.582 225.67 344.49 224.892 346.196 223.751C347.903 222.61 349.375 221.13 350.531 219.394C351.686 217.659 352.503 215.703 352.934 213.636L352.242 213.476L352.934 213.636L389.11 40.2862C389.11 40.2862 389.11 40.2861 389.11 40.2861C389.541 38.2213 389.579 36.086 389.222 34.0018C388.865 31.9176 388.119 29.9243 387.025 28.1361C385.931 26.3479 384.511 24.7998 382.844 23.5814C381.178 22.3629 379.298 21.4987 377.313 21.0388C377.313 21.0388 377.313 21.0388 377.313 21.0387L311.213 5.70945L311.213 5.70941C307.201 4.77986 303.01 5.5569 299.563 7.85959C296.118 10.1615 293.697 13.7995 292.824 17.9701L292.824 17.9705L256.648 191.326Z" fill="black" stroke="black" stroke-width="1.42217"/>
<path d="M362.765 23.6638L362.774 23.6658L375.591 26.6422C375.591 26.6423 375.592 26.6424 375.592 26.6425C377.016 26.9688 378.364 27.5859 379.559 28.4574C380.754 29.3291 381.772 30.4377 382.556 31.7182C383.339 32.9986 383.872 34.4257 384.126 35.9173C384.38 37.4082 384.35 38.9352 384.038 40.4108C384.038 40.4114 384.038 40.4119 384.038 40.4125M362.765 23.6638L335.747 217.661C337.072 217.968 338.44 217.999 339.775 217.753C341.109 217.506 342.384 216.987 343.525 216.225C344.666 215.462 345.652 214.471 346.426 213.308C347.2 212.146 347.747 210.834 348.037 209.449L383.345 40.2507L384.038 40.4125M362.765 23.6638L362.756 23.6619C361.714 23.4479 360.641 23.6762 359.772 24.2864C358.905 24.8947 358.311 25.8331 358.11 26.8938M362.765 23.6638L358.11 26.8938M384.038 40.4125L348.729 209.609C348.422 211.082 347.84 212.477 347.016 213.715C346.192 214.952 345.142 216.008 343.924 216.822C342.706 217.636 341.344 218.192 339.915 218.456C338.487 218.719 337.021 218.686 335.601 218.357L269.623 203.057M384.038 40.4125L269.623 203.057M269.623 203.057C268.202 202.732 266.856 202.118 265.661 201.25C264.467 200.382 263.449 199.278 262.665 198.002C261.88 196.727 261.344 195.304 261.085 193.817C260.827 192.33 260.851 190.806 261.155 189.331L261.156 189.33L296.474 20.1106L296.474 20.1103C296.782 18.6371 297.365 17.2421 298.189 16.0048C299.014 14.7675 300.065 13.7113 301.283 12.8976C302.502 12.0839 303.864 11.5286 305.293 11.2649C306.721 11.0013 308.188 11.0347 309.607 11.364L309.462 12.06M269.623 203.057L261.849 189.49L297.167 20.2707C297.457 18.8851 298.005 17.5737 298.779 16.4112C299.554 15.2487 300.54 14.258 301.682 13.4955C302.824 12.7331 304.098 12.2139 305.433 11.9676C306.768 11.7213 308.137 11.7527 309.462 12.06M309.462 12.06L309.608 11.3641M309.462 12.06L320.68 14.6565M309.608 11.3641L358.307 29.4772C358.225 29.9167 358.062 30.3348 357.825 30.7076C357.589 31.0803 357.284 31.4005 356.929 31.6498C356.574 31.899 356.175 32.0725 355.756 32.1603C355.336 32.248 354.904 32.2484 354.484 32.1613M309.608 11.3641L320.823 13.9598L320.68 14.6565M309.608 11.3641L358.11 26.8938M320.68 14.6565L325.193 15.6801C326.032 15.8963 326.757 16.4519 327.208 17.2253C327.658 17.9986 327.798 18.9265 327.596 19.8055M320.68 14.6565L320.826 13.9605L320.824 13.9602L325.335 14.9834L325.345 14.9857L325.355 14.9883C326.386 15.2537 327.27 15.9347 327.816 16.8723C328.36 17.8063 328.527 18.9198 328.288 19.9708M327.596 19.8055L327.098 22.2423C326.896 23.1213 327.035 24.0492 327.486 24.8225C327.936 25.5958 328.661 26.1515 329.501 26.3676M327.596 19.8055L328.286 19.9795C328.286 19.9766 328.287 19.9737 328.288 19.9708M327.596 19.8055L328.289 19.9628L328.288 19.9708M329.501 26.3676L354.484 32.1613M329.501 26.3676L329.663 25.6758C329.661 25.6751 329.658 25.6744 329.656 25.6738M329.501 26.3676L329.647 25.6717L329.656 25.6738M354.484 32.1613L354.63 31.4654L354.621 31.4634M354.484 32.1613L354.613 31.4618C354.616 31.4623 354.619 31.4629 354.621 31.4634M354.621 31.4634C354.943 31.5291 355.276 31.5285 355.599 31.4608C355.926 31.3925 356.238 31.2572 356.517 31.0609C356.797 30.8646 357.038 30.6112 357.227 30.3143C357.415 30.0174 357.546 29.6836 357.611 29.3321L357.614 29.3198L357.614 29.3199L358.11 26.8938M354.621 31.4634L329.656 25.6738M329.656 25.6738C329.01 25.5055 328.448 25.0761 328.094 24.4696C327.739 23.8594 327.626 23.1207 327.787 22.4164L327.789 22.408L327.791 22.3996L328.288 19.9708" fill="black" stroke="black" stroke-width="1.42217"/>
<path d="M332.661 223.334L264.885 207.622C260.972 206.714 257.55 204.259 255.372 200.795C253.195 197.331 252.439 193.142 253.272 189.149L289.461 15.8101C290.297 11.8155 292.654 8.34526 296.014 6.16236C299.374 3.97947 303.461 3.26268 307.378 4.16962L375.154 19.8812C377.092 20.3301 378.93 21.1639 380.562 22.3352C382.195 23.5064 383.59 24.9921 384.669 26.7075C385.747 28.4229 386.487 30.3344 386.847 32.3327C387.207 34.3311 387.18 36.3772 386.767 38.3543L350.579 211.688C350.166 213.666 349.374 215.537 348.25 217.193C347.126 218.849 345.691 220.258 344.027 221.34C342.363 222.421 340.503 223.154 338.553 223.496C336.603 223.838 334.601 223.783 332.661 223.334Z" fill="#568DF4" stroke="black" stroke-width="1.05538" stroke-linecap="round" stroke-linejoin="round"/>
<path d="M373.519 24.5834L360.375 21.5324C359.505 21.3532 358.606 21.5332 357.874 22.0329C357.143 22.5326 356.639 23.3113 356.472 24.1982L355.975 26.6294C355.894 27.0689 355.728 27.4865 355.488 27.8584C355.247 28.2302 354.937 28.549 354.575 28.7966C354.212 29.0442 353.805 29.2156 353.376 29.3011C352.946 29.3867 352.504 29.3847 352.073 29.2952L326.456 23.357C325.595 23.136 324.85 22.5757 324.385 21.7991C323.919 21.0224 323.772 20.0928 323.974 19.214L324.473 16.7773C324.675 15.8986 324.527 14.9689 324.062 14.1922C323.597 13.4156 322.852 12.8553 321.991 12.6343L317.364 11.5846L305.861 8.92323C304.503 8.60825 303.1 8.56924 301.735 8.80842C300.369 9.0476 299.066 9.56029 297.9 10.3172C296.735 11.0741 295.73 12.0605 294.942 13.2199C294.154 14.3793 293.6 15.6891 293.31 17.0746L257.979 186.278C257.692 187.664 257.677 189.099 257.932 190.499C258.188 191.899 258.71 193.238 259.469 194.439C260.228 195.639 261.209 196.678 262.356 197.496C263.503 198.314 264.793 198.895 266.152 199.206L333.806 214.888C335.164 215.203 336.566 215.242 337.932 215.002C339.297 214.763 340.6 214.25 341.765 213.493C342.93 212.736 343.935 211.75 344.722 210.59C345.509 209.43 346.063 208.121 346.352 206.735L381.673 37.5529C381.966 36.1647 381.988 34.7272 381.737 33.3231C381.485 31.9189 380.966 30.5756 380.208 29.3705C379.451 28.1654 378.47 27.1221 377.322 26.3006C376.174 25.4791 374.882 24.8955 373.519 24.5834Z" fill="#DADDFD"/>
<ellipse cx="10.5861" cy="10.0661" rx="10.5861" ry="10.0661" transform="matrix(0.994064 0.108772 -0.163892 0.986474 330.137 16.5698)" fill="#DFE1F2"/>
<ellipse cx="10.0574" cy="9.35694" rx="10.0574" ry="9.35694" transform="matrix(0.994064 0.108772 -0.163892 0.986474 330.078 16.8624)" fill="#FBFCFD"/>
<g clip-path="url(#clip2_1979_29273)">
<path d="M343.228 22.5605L335.814 21.6678C335.568 21.6382 335.316 21.7143 335.113 21.8794C334.91 22.0445 334.773 22.285 334.732 22.548L334.259 25.5896C334.245 25.6773 334.264 25.7653 334.313 25.8343C334.361 25.9032 334.434 25.9475 334.516 25.9574L334.866 25.9996C335.175 26.0367 335.392 26.3247 335.353 26.6421C335.344 26.7224 335.319 26.8007 335.281 26.8723C335.243 26.9439 335.192 27.0073 335.131 27.0587C335.07 27.1102 335.001 27.1487 334.927 27.1716C334.854 27.1946 334.777 27.2016 334.702 27.1923L334.332 27.1477C334.25 27.1378 334.166 27.1632 334.098 27.2182C334.03 27.2732 333.985 27.3534 333.971 27.4411L333.498 30.4826C333.457 30.7457 333.515 31.0097 333.66 31.2166C333.805 31.4235 334.024 31.5564 334.27 31.586L339.074 32.1644L339.415 32.8542C339.419 32.8627 339.424 32.8713 339.429 32.8795L339.434 32.8872C339.623 33.192 339.877 33.6083 340.471 33.6798C340.67 33.7026 340.873 33.6806 341.067 33.6154C341.261 33.5502 341.443 33.4432 341.6 33.3012C341.844 33.0839 342.003 32.7775 342.042 32.4484C342.225 32.3953 342.391 32.2859 342.521 32.1345C342.65 31.983 342.735 31.7963 342.766 31.5985L344.002 23.664C344.022 23.5336 344.018 23.4017 343.99 23.2757C343.962 23.1497 343.911 23.0321 343.839 22.9296C343.767 22.8272 343.676 22.7418 343.572 22.6785C343.467 22.6151 343.35 22.575 343.228 22.5605Z" fill="#303778"/>
<path d="M339.967 32.5076C340.147 32.8008 340.274 32.9824 340.574 33.0185C340.685 33.0314 340.798 33.0192 340.907 32.9829C341.016 32.9465 341.117 32.8867 341.205 32.8074C341.268 32.7525 341.321 32.6844 341.359 32.6075C341.396 32.5307 341.418 32.447 341.423 32.3621C341.446 31.7713 341.403 28.8796 341.372 27.0728C341.042 27.5363 340.605 27.9037 340.108 28.1364C339.61 28.3691 339.07 28.4586 338.543 28.3957C338.536 28.3953 338.53 28.3944 338.523 28.3932C338.426 28.3744 338.294 28.3757 338.211 28.487C338.132 28.5912 338.123 28.7555 338.185 28.9074L339.967 32.5076Z" fill="#868AC3"/>
<path d="M334.537 27.846L334.114 30.5569C334.101 30.6446 334.12 30.7326 334.169 30.8016C334.217 30.8706 334.29 30.9148 334.372 30.9247L338.719 31.4481L337.623 29.2318L337.616 29.2162C337.452 28.833 337.494 28.4016 337.728 28.0891C337.944 27.8002 338.29 27.668 338.655 27.7355C338.96 27.772 339.273 27.743 339.574 27.6502C339.875 27.5575 340.16 27.4028 340.41 27.1953C340.662 26.9881 340.876 26.7315 341.038 26.4405C341.2 26.1494 341.308 25.8299 341.354 25.5008C341.547 24.1499 340.662 22.9251 339.379 22.7707L335.71 22.329C335.628 22.3191 335.544 22.3445 335.477 22.3995C335.409 22.4546 335.364 22.5347 335.35 22.6224L334.928 25.3334L334.969 25.3383C335.605 25.4149 336.056 26.0224 335.974 26.6929C335.954 26.8625 335.902 27.0278 335.821 27.1787C335.74 27.3297 335.632 27.4633 335.503 27.5712C335.375 27.68 335.229 27.7611 335.073 27.8096C334.918 27.8581 334.756 27.873 334.598 27.8534L334.537 27.846Z" fill="#DFE1F2"/>
</g>
<path fill-rule="evenodd" clip-rule="evenodd" d="M294.756 33.7208L375.353 51.7141L355.939 140.811C355.865 140.785 355.791 140.762 355.714 140.741C354.159 140.325 352.573 141.29 352.172 142.895C352.089 143.224 352.063 143.554 352.087 143.874L351.94 144.543L352.234 144.612C352.539 145.538 353.276 146.292 354.261 146.556C354.398 146.592 354.534 146.618 354.67 146.634L341.781 205.785L261.636 187.258L274.386 128.151C274.412 128.159 274.438 128.166 274.465 128.173C276.02 128.589 277.606 127.625 278.007 126.019C278.409 124.414 277.473 122.775 275.918 122.359C275.828 122.335 275.738 122.315 275.648 122.3L294.756 33.7208ZM285.545 128.967L281.119 127.929L281.628 125.603L286.055 126.642L285.545 128.967ZM294.398 131.044L289.971 130.006L290.481 127.68L294.907 128.718L294.398 131.044ZM303.25 133.121L298.824 132.083L299.334 129.757L303.76 130.795L303.25 133.121ZM312.103 135.198L307.677 134.159L308.186 131.833L312.613 132.872L312.103 135.198ZM320.956 137.275L316.53 136.236L317.039 133.91L321.466 134.949L320.956 137.275ZM329.809 139.351L325.382 138.313L325.892 135.987L330.318 137.025L329.809 139.351ZM338.661 141.428L334.235 140.39L334.745 138.064L339.171 139.102L338.661 141.428ZM347.514 143.505L343.088 142.466L343.597 140.14L348.024 141.179L347.514 143.505Z" fill="white"/>
<path d="M375.353 51.7141L375.586 51.7648L375.636 51.5333L375.405 51.4817L375.353 51.7141ZM294.756 33.7208L294.808 33.4884L294.574 33.4362L294.523 33.6706L294.756 33.7208ZM355.939 140.811L355.859 141.035L356.114 141.126L356.171 140.862L355.939 140.811ZM355.714 140.741L355.653 140.971L355.714 140.741ZM352.172 142.895L352.403 142.953L352.172 142.895ZM352.087 143.874L352.32 143.925L352.327 143.891L352.324 143.856L352.087 143.874ZM351.94 144.543L351.708 144.492L351.658 144.721L351.886 144.775L351.94 144.543ZM352.234 144.612L352.46 144.537L352.418 144.411L352.288 144.38L352.234 144.612ZM354.261 146.556L354.2 146.786L354.261 146.556ZM354.67 146.634L354.903 146.685L354.959 146.428L354.697 146.397L354.67 146.634ZM341.781 205.785L341.727 206.017L341.962 206.071L342.014 205.836L341.781 205.785ZM261.636 187.258L261.403 187.207L261.353 187.437L261.582 187.49L261.636 187.258ZM274.386 128.151L274.454 127.923L274.207 127.849L274.153 128.101L274.386 128.151ZM274.465 128.173L274.526 127.943L274.526 127.943L274.465 128.173ZM278.007 126.019L278.238 126.077L278.238 126.077L278.007 126.019ZM275.918 122.359L275.856 122.589L275.856 122.589L275.918 122.359ZM275.648 122.3L275.415 122.25L275.362 122.494L275.609 122.535L275.648 122.3ZM281.119 127.929L280.886 127.878L280.836 128.107L281.064 128.161L281.119 127.929ZM285.545 128.967L285.491 129.199L285.726 129.254L285.778 129.018L285.545 128.967ZM281.628 125.603L281.683 125.371L281.447 125.316L281.396 125.552L281.628 125.603ZM286.055 126.642L286.287 126.692L286.338 126.463L286.109 126.41L286.055 126.642ZM289.971 130.006L289.739 129.955L289.689 130.184L289.917 130.238L289.971 130.006ZM294.398 131.044L294.343 131.276L294.579 131.331L294.63 131.095L294.398 131.044ZM290.481 127.68L290.535 127.448L290.3 127.393L290.248 127.629L290.481 127.68ZM294.907 128.718L295.14 128.769L295.19 128.54L294.962 128.486L294.907 128.718ZM298.824 132.083L298.592 132.032L298.541 132.261L298.77 132.314L298.824 132.083ZM303.25 133.121L303.196 133.353L303.431 133.408L303.483 133.172L303.25 133.121ZM299.334 129.757L299.388 129.525L299.153 129.47L299.101 129.706L299.334 129.757ZM303.76 130.795L303.993 130.846L304.043 130.617L303.814 130.563L303.76 130.795ZM307.677 134.159L307.444 134.108L307.394 134.338L307.622 134.391L307.677 134.159ZM312.103 135.198L312.049 135.43L312.284 135.485L312.336 135.249L312.103 135.198ZM308.186 131.833L308.241 131.602L308.006 131.546L307.954 131.782L308.186 131.833ZM312.613 132.872L312.845 132.923L312.896 132.694L312.667 132.64L312.613 132.872ZM316.53 136.236L316.297 136.185L316.247 136.414L316.475 136.468L316.53 136.236ZM320.956 137.275L320.902 137.506L321.137 137.562L321.189 137.325L320.956 137.275ZM317.039 133.91L317.094 133.678L316.858 133.623L316.807 133.859L317.039 133.91ZM321.466 134.949L321.698 135L321.748 134.77L321.52 134.717L321.466 134.949ZM325.382 138.313L325.15 138.262L325.099 138.491L325.328 138.545L325.382 138.313ZM329.809 139.351L329.754 139.583L329.989 139.638L330.041 139.402L329.809 139.351ZM325.892 135.987L325.946 135.755L325.711 135.7L325.659 135.936L325.892 135.987ZM330.318 137.025L330.551 137.076L330.601 136.847L330.373 136.793L330.318 137.025ZM334.235 140.39L334.002 140.339L333.952 140.568L334.181 140.621L334.235 140.39ZM338.661 141.428L338.607 141.66L338.842 141.715L338.894 141.479L338.661 141.428ZM334.745 138.064L334.799 137.832L334.564 137.777L334.512 138.013L334.745 138.064ZM339.171 139.102L339.404 139.153L339.454 138.924L339.225 138.87L339.171 139.102ZM343.088 142.466L342.855 142.415L342.805 142.645L343.033 142.698L343.088 142.466ZM347.514 143.505L347.46 143.737L347.695 143.792L347.747 143.556L347.514 143.505ZM343.597 140.14L343.652 139.909L343.416 139.853L343.365 140.089L343.597 140.14ZM348.024 141.179L348.256 141.23L348.306 141.001L348.078 140.947L348.024 141.179ZM375.405 51.4817L294.808 33.4884L294.704 33.9532L375.301 51.9465L375.405 51.4817ZM356.171 140.862L375.586 51.7648L375.12 51.6634L355.706 140.76L356.171 140.862ZM355.653 140.971C355.723 140.99 355.792 141.011 355.859 141.035L356.019 140.587C355.939 140.559 355.859 140.533 355.776 140.511L355.653 140.971ZM352.403 142.953C352.773 141.47 354.232 140.591 355.653 140.971L355.776 140.511C354.086 140.059 352.372 141.109 351.941 142.838L352.403 142.953ZM352.324 143.856C352.303 143.561 352.327 143.256 352.403 142.953L351.941 142.838C351.852 143.191 351.824 143.546 351.85 143.892L352.324 143.856ZM352.173 144.594L352.32 143.925L351.854 143.823L351.708 144.492L352.173 144.594ZM352.288 144.38L351.995 144.311L351.886 144.775L352.179 144.844L352.288 144.38ZM354.323 146.326C353.421 146.085 352.742 145.393 352.46 144.537L352.008 144.687C352.336 145.683 353.131 146.5 354.2 146.786L354.323 146.326ZM354.697 146.397C354.573 146.383 354.448 146.359 354.323 146.326L354.2 146.786C354.347 146.825 354.495 146.853 354.642 146.871L354.697 146.397ZM342.014 205.836L354.903 146.685L354.437 146.583L341.548 205.734L342.014 205.836ZM261.582 187.49L341.727 206.017L341.835 205.553L261.689 187.026L261.582 187.49ZM274.153 128.101L261.403 187.207L261.868 187.308L274.619 128.201L274.153 128.101ZM274.526 127.943C274.502 127.937 274.478 127.93 274.454 127.923L274.318 128.379C274.346 128.388 274.374 128.396 274.403 128.403L274.526 127.943ZM277.776 125.962C277.406 127.444 275.947 128.323 274.526 127.943L274.403 128.403C276.093 128.855 277.806 127.806 278.238 126.077L277.776 125.962ZM275.856 122.589C277.28 122.97 278.148 124.476 277.776 125.962L278.238 126.077C278.67 124.351 277.666 122.58 275.979 122.129L275.856 122.589ZM275.609 122.535C275.691 122.549 275.774 122.567 275.856 122.589L275.979 122.129C275.882 122.103 275.784 122.082 275.687 122.065L275.609 122.535ZM294.523 33.6706L275.415 122.25L275.881 122.35L294.989 33.771L294.523 33.6706ZM281.064 128.161L285.491 129.199L285.599 128.736L281.173 127.697L281.064 128.161ZM281.396 125.552L280.886 127.878L281.351 127.98L281.861 125.654L281.396 125.552ZM286.109 126.41L281.683 125.371L281.574 125.835L286 126.873L286.109 126.41ZM285.778 129.018L286.287 126.692L285.822 126.591L285.312 128.917L285.778 129.018ZM289.917 130.238L294.343 131.276L294.452 130.812L290.026 129.774L289.917 130.238ZM290.248 127.629L289.739 129.955L290.204 130.057L290.714 127.731L290.248 127.629ZM294.962 128.486L290.535 127.448L290.427 127.912L294.853 128.95L294.962 128.486ZM294.63 131.095L295.14 128.769L294.675 128.667L294.165 130.993L294.63 131.095ZM298.77 132.314L303.196 133.353L303.305 132.889L298.879 131.851L298.77 132.314ZM299.101 129.706L298.592 132.032L299.057 132.134L299.566 129.808L299.101 129.706ZM303.814 130.563L299.388 129.525L299.279 129.988L303.706 131.027L303.814 130.563ZM303.483 133.172L303.993 130.846L303.528 130.744L303.018 133.07L303.483 133.172ZM307.622 134.391L312.049 135.43L312.158 134.966L307.731 133.928L307.622 134.391ZM307.954 131.782L307.444 134.108L307.909 134.21L308.419 131.884L307.954 131.782ZM312.667 132.64L308.241 131.602L308.132 132.065L312.558 133.104L312.667 132.64ZM312.336 135.249L312.845 132.923L312.38 132.821L311.871 135.147L312.336 135.249ZM316.475 136.468L320.902 137.506L321.01 137.043L316.584 136.004L316.475 136.468ZM316.807 133.859L316.297 136.185L316.762 136.287L317.272 133.961L316.807 133.859ZM321.52 134.717L317.094 133.678L316.985 134.142L321.411 135.18L321.52 134.717ZM321.189 137.325L321.698 135L321.233 134.898L320.723 137.224L321.189 137.325ZM325.328 138.545L329.754 139.583L329.863 139.119L325.437 138.081L325.328 138.545ZM325.659 135.936L325.15 138.262L325.615 138.364L326.124 136.038L325.659 135.936ZM330.373 136.793L325.946 135.755L325.838 136.219L330.264 137.257L330.373 136.793ZM330.041 139.402L330.551 137.076L330.086 136.974L329.576 139.3L330.041 139.402ZM334.181 140.621L338.607 141.66L338.716 141.196L334.289 140.158L334.181 140.621ZM334.512 138.013L334.002 140.339L334.468 140.441L334.977 138.115L334.512 138.013ZM339.225 138.87L334.799 137.832L334.69 138.296L339.117 139.334L339.225 138.87ZM338.894 141.479L339.404 139.153L338.938 139.051L338.429 141.377L338.894 141.479ZM343.033 142.698L347.46 143.737L347.568 143.273L343.142 142.235L343.033 142.698ZM343.365 140.089L342.855 142.415L343.32 142.517L343.83 140.191L343.365 140.089ZM348.078 140.947L343.652 139.909L343.543 140.372L347.969 141.411L348.078 140.947ZM347.747 143.556L348.256 141.23L347.791 141.128L347.281 143.454L347.747 143.556Z" fill="white"/>
<path d="M335.672 123.164L326.27 121.062L327.622 114.566L337.024 116.669L339.053 106.926L345.322 108.327L343.293 118.071C342.934 119.793 341.929 121.298 340.5 122.253C339.071 123.208 337.334 123.536 335.672 123.164Z" fill="#515BB2"/>
<path d="M296.247 107.554L298.276 97.8108L304.544 99.2125L302.515 108.956L311.918 111.058L310.565 117.554L301.163 115.451C299.5 115.079 298.048 114.039 297.127 112.558C296.205 111.077 295.888 109.277 296.247 107.554Z" fill="#515BB2"/>
<path d="M307.932 82.9661L301.664 81.5645L303.693 71.8213C304.052 70.0986 305.056 68.5941 306.485 67.6389C307.915 66.6836 309.651 66.3558 311.314 66.7275L320.716 68.83L319.363 75.3255L309.961 73.223L307.932 82.9661Z" fill="#515BB2"/>
<path d="M344.451 80.9326L335.048 78.8301L336.401 72.3346L345.803 74.4372C347.466 74.8089 348.918 75.8498 349.84 77.3308C350.761 78.8118 351.078 80.6116 350.719 82.3343L348.69 92.0774L342.422 90.6758L344.451 80.9326Z" fill="#515BB2"/>
<path d="M325.917 98.8804L319.648 97.4788L321.001 90.9833L327.269 92.385L325.917 98.8804Z" fill="#515BB2"/>
<path d="M330.905 106.798L324.637 105.396L325.989 98.9008L332.258 100.302L330.905 106.798Z" fill="#515BB2"/>
<path d="M318.323 103.981L312.055 102.58L313.407 96.0841L319.676 97.4858L318.323 103.981Z" fill="#515BB2"/>
<path d="M333.616 93.816L327.348 92.4143L328.7 85.9189L334.968 87.3205L333.616 93.816Z" fill="#515BB2"/>
<path d="M321.034 90.9993L314.766 89.5977L316.118 83.1022L322.386 84.5039L321.034 90.9993Z" fill="#515BB2"/>
<path d="M282.119 146.701L282.91 143L294.009 147.246L293.482 149.713L282.119 146.701Z" fill="#BCBFE3"/>
<path d="M280.718 156.342L281.509 152.641L299.56 157.377L299.416 160.491L280.718 156.342Z" fill="#BCBFE3"/>
<path d="M276.254 167.456L275.973 171.472L282.886 172.232L283.074 169.555L276.254 167.456Z" fill="#BCBFE3"/>
<path d="M273.61 179.094L274.555 175.513L287.527 179.741L287.12 182.744L273.61 179.094Z" fill="#BCBFE3"/>
<path d="M308.398 53.1486L309.224 50.046L352.007 60.414L352.511 63.1998L308.398 53.1486Z" fill="#BCBFE3"/>
<path d="M316.344 155.743L317.102 152.071L322.749 154.104L322.244 156.551L316.344 155.743Z" fill="#BCBFE3"/>
<path d="M314.992 165.33L315.75 161.658L333.422 165.88L333.294 168.957L314.992 165.33Z" fill="#BCBFE3"/>
<path d="M310.367 178.162L311.125 174.305L328.298 180.796L327.793 183.367L310.367 178.162Z" fill="#BCBFE3"/>
<path d="M308.007 187.023L308.765 183.166L337.692 191.855L337.871 195.202L308.007 187.023Z" fill="#BCBFE3"/>
<path d="M440.321 118.43L444.83 131.138C436.868 133.883 432.722 142.611 435.569 150.634C438.415 158.656 447.177 162.935 455.139 160.19L459.649 172.899C460.067 174.078 459.447 175.365 458.264 175.773L395.087 197.553L392.889 191.359L388.759 192.782L390.957 198.977L360.947 209.323C359.764 209.731 358.465 209.106 358.047 207.926L353.537 195.217L343.229 166.166L338.719 153.457C338.3 152.278 338.92 150.991 340.103 150.583L370.113 140.237L372.311 146.431L376.441 145.007L374.243 138.813L437.42 117.033C438.603 116.625 439.902 117.251 440.321 118.43Z" fill="black"/>
<path d="M441.594 115.231L446.06 127.817C438.178 130.535 434.077 139.188 436.901 147.146C439.724 155.102 448.403 159.349 456.285 156.632L460.752 169.22C461.17 170.399 460.551 171.686 459.367 172.094L396.841 193.65L394.661 187.506L390.572 188.916L392.752 195.06L363.062 205.296C361.879 205.703 360.58 205.078 360.162 203.898L355.695 191.31L345.471 162.497L341.004 149.909C340.585 148.729 341.205 147.442 342.389 147.035L372.078 136.799L374.258 142.942L378.347 141.533L376.167 135.389L438.694 113.833C439.877 113.425 441.175 114.051 441.594 115.231Z" fill="#F6F7FA" stroke="black" stroke-width="1.86787"/>
<path d="M408.144 139.871C405.437 140.989 403.144 142.912 401.555 145.398C399.965 147.884 399.152 150.821 399.216 153.837C399.28 156.853 400.22 159.813 401.916 162.342C403.612 164.871 405.988 166.857 408.745 168.047C411.501 169.238 414.513 169.58 417.4 169.03C420.287 168.48 422.92 167.063 424.965 164.958C427.01 162.853 428.376 160.155 428.89 157.204C429.404 154.254 429.042 151.184 427.851 148.383C426.25 144.629 423.276 141.626 419.582 140.03C415.888 138.435 411.774 138.377 408.144 139.871ZM420.831 157.942C421.009 158.36 421.019 158.826 420.859 159.239C420.699 159.652 420.383 159.977 419.98 160.144L418.763 160.646L419.139 161.531C419.302 161.9 419.338 162.31 419.24 162.693C419.143 163.076 418.918 163.409 418.603 163.635C418.402 163.773 418.172 163.863 417.929 163.897C417.687 163.932 417.438 163.911 417.2 163.835C416.963 163.76 416.743 163.632 416.557 163.461C416.37 163.29 416.222 163.08 416.123 162.847L415.722 161.902L414.505 162.405C414.279 162.498 414.035 162.537 413.789 162.521C413.543 162.505 413.302 162.433 413.082 162.311C412.863 162.189 412.672 162.02 412.522 161.816C412.372 161.612 412.267 161.378 412.215 161.131C412.139 160.736 412.199 160.333 412.383 159.987C412.567 159.641 412.864 159.375 413.225 159.233L417.121 157.624L416.05 155.106L412.096 156.739C411.693 156.906 411.236 156.9 410.825 156.722C410.415 156.545 410.084 156.211 409.907 155.793L407.498 150.128C407.321 149.71 407.311 149.244 407.471 148.831C407.63 148.418 407.947 148.092 408.35 147.926L409.567 147.423L409.191 146.539C409.026 146.17 408.99 145.76 409.087 145.376C409.185 144.993 409.411 144.66 409.726 144.434C409.927 144.296 410.157 144.207 410.4 144.172C410.643 144.138 410.892 144.159 411.129 144.235C411.367 144.31 411.587 144.438 411.773 144.609C411.959 144.78 412.107 144.99 412.207 145.223L412.608 146.167L413.825 145.665C414.05 145.572 414.295 145.532 414.541 145.548C414.787 145.563 415.029 145.635 415.249 145.757C415.468 145.879 415.66 146.048 415.81 146.252C415.961 146.456 416.066 146.691 416.118 146.938C416.192 147.333 416.132 147.736 415.948 148.082C415.763 148.428 415.466 148.694 415.105 148.836L411.209 150.445L412.279 152.964L416.233 151.331C416.636 151.164 417.094 151.17 417.504 151.348C417.915 151.525 418.245 151.859 418.423 152.276L420.831 157.942Z" fill="#515BB2"/>
<path d="M392.107 185.024L377.355 145.828" stroke="#BCBFE3" stroke-width="4.20272" stroke-dasharray="9.34 4.67"/>
<path d="M45 431H438" stroke="#BCBFE3" stroke-width="3" stroke-linecap="round" stroke-linejoin="round"/>
</g>
<defs>
<clipPath id="clip0_1979_29273">
<rect width="484" height="432" fill="white"/>
</clipPath>
<clipPath id="clip1_1979_29273">
<rect width="576.576" height="870.407" fill="white" transform="translate(-170 -88)"/>
</clipPath>
<clipPath id="clip2_1979_29273">
<rect width="9.3354" height="11.376" fill="white" transform="matrix(0.992828 0.119528 -0.153853 0.98809 334.887 21.5562)"/>
</clipPath>
</defs>
</svg>
