<svg width="412" height="440" viewBox="0 0 412 440" fill="none" xmlns="http://www.w3.org/2000/svg">
<g clip-path="url(#clip0_1752_33472)">
<rect x="2" y="26.3867" width="408.612" height="408.612" rx="204.306" fill="#F7F9FE"/>
<rect x="2" y="26.3867" width="408.612" height="408.612" rx="204.306" stroke="#E7EFFC" stroke-width="2"/>
<mask id="mask0_1752_33472" style="mask-type:alpha" maskUnits="userSpaceOnUse" x="3" y="27" width="407" height="407">
<circle cx="206.306" cy="230.693" r="203.306" fill="#F7F9FE"/>
</mask>
<g mask="url(#mask0_1752_33472)">
<g opacity="0.7">
<path d="M-14.5 64.3008H683.022" stroke="#E7EFFC" stroke-linejoin="round"/>
<path d="M-14.5 107.488H683.022" stroke="#E7EFFC" stroke-linejoin="round"/>
<path d="M-14.5 150.686H683.022" stroke="#E7EFFC" stroke-linejoin="round"/>
<path d="M-14.5 193.873H683.022" stroke="#E7EFFC" stroke-linejoin="round"/>
<path d="M-14.5 237.065H683.022" stroke="#E7EFFC" stroke-linejoin="round"/>
<path d="M-14.5 280.258H683.022" stroke="#E7EFFC" stroke-linejoin="round"/>
<path d="M-14.5 323.444H683.022" stroke="#E7EFFC" stroke-linejoin="round"/>
<path d="M-14.5 366.635H683.022" stroke="#E7EFFC" stroke-linejoin="round"/>
<path d="M-14.5 409.818H683.022" stroke="#E7EFFC" stroke-linejoin="round"/>
</g>
<g opacity="0.7">
<path d="M377.438 17.8613L377.437 715.383" stroke="#E7EFFC" stroke-linejoin="round"/>
<path d="M334.258 17.8613L334.258 715.383" stroke="#E7EFFC" stroke-linejoin="round"/>
<path d="M291.078 17.8613L291.078 715.383" stroke="#E7EFFC" stroke-linejoin="round"/>
<path d="M247.883 17.8613L247.883 715.383" stroke="#E7EFFC" stroke-linejoin="round"/>
<path d="M204.672 17.8613L204.672 715.383" stroke="#E7EFFC" stroke-linejoin="round"/>
<path d="M161.492 17.8613L161.492 715.383" stroke="#E7EFFC" stroke-linejoin="round"/>
<path d="M118.297 17.8613L118.297 715.383" stroke="#E7EFFC" stroke-linejoin="round"/>
<path d="M75.1094 17.8613L75.1093 715.383" stroke="#E7EFFC" stroke-linejoin="round"/>
<path d="M31.9141 17.8613L31.914 715.383" stroke="#E7EFFC" stroke-linejoin="round"/>
</g>
<g clip-path="url(#clip1_1752_33472)">
<path d="M113.326 84.9445L113.326 84.9459C119.806 117.349 146.88 140.379 178.188 143.102L201.406 158.626L202.318 159.236L202.93 158.323L218.523 135.063C246.581 120.362 262.771 88.5815 256.29 56.174C248.453 16.7305 210.085 -8.81804 170.619 -0.873396C131.152 7.07112 105.489 45.5007 113.326 84.9445Z" fill="#ACC7FA" stroke="black" stroke-width="2.2"/>
<path d="M403.305 484.049C410.208 451.479 398.234 420.556 388.092 413.873C388.092 413.873 375.065 403.465 353.513 400.218C331.961 396.972 317.382 402.816 317.382 402.816C302.169 444.827 275.896 516.931 275.896 538.289C275.896 546.886 286.039 718.926 281.601 726.087H315.83C315.83 726.087 317.382 591.174 322.803 560.336C328.224 529.498 338.016 487.305 338.016 487.305C338.016 487.305 348.792 563.092 360.835 582.383C372.879 601.674 421.687 711.91 421.687 711.91L450.211 689.863C428.558 641.35 414.689 609.742 407.108 582.383C395.654 541.045 398.808 505.266 403.305 484.049Z" fill="#DFE1F2" stroke="black" stroke-width="2.39999" stroke-linecap="round" stroke-linejoin="round"/>
<path d="M337.791 488.251C337.791 488.251 335.265 462.161 335.265 431.226C335.265 431.226 331.475 456.261 330.844 470.865C330.212 485.469 332.738 511.2 332.738 511.2L337.791 488.251Z" fill="black" stroke="black" stroke-width="2.39999" stroke-linecap="round" stroke-linejoin="round"/>
<path d="M349.616 253.33C309.195 257.12 294.459 246.804 283.301 242.593C282.212 260.296 268.775 277.119 263.722 284.277C279.385 289.835 313.195 287.856 328.143 286.172C301.869 330.13 293.617 382.803 292.774 410.592C317.58 410.592 336.491 413.666 361.791 417.558C386.422 421.347 396.563 415.014 407.721 412.487C395.595 405.919 391.932 362.803 391.932 336.698C399.511 332.277 418.458 329.119 431.09 325.961C423.005 296.151 393.195 260.067 379.3 245.751L349.616 253.33Z" fill="#ACC7FA"/>
<path d="M391.932 336.698C399.511 332.277 418.458 329.119 431.09 325.961C423.005 296.151 393.195 260.067 379.3 245.751L349.616 253.33C309.195 257.12 294.459 246.804 283.301 242.593C282.212 260.296 268.775 277.119 263.722 284.277C279.385 289.835 313.195 287.856 328.143 286.172M391.932 336.698C391.932 362.803 395.595 405.919 407.721 412.487C396.563 415.014 386.422 421.347 361.791 417.558C336.491 413.666 317.58 410.592 292.774 410.592C293.617 382.803 301.869 330.13 328.143 286.172M391.932 336.698L379.3 343.014C379.3 319.664 379.3 298.822 376.774 280.488M328.143 286.172C330.176 282.635 334.848 277.559 337.159 274.822" stroke="black" stroke-width="2.39999" stroke-linecap="round" stroke-linejoin="round"/>
<path d="M298.458 410.593C291.89 391.393 303.301 352.698 307.301 332.909C300.732 352.614 293.616 390.172 292.143 410.593H298.458Z" fill="black" stroke="black" stroke-width="2.39999" stroke-linecap="round" stroke-linejoin="round"/>
<path d="M262.459 283.645C259.932 283.14 259.62 274.593 260.673 269.751C263.199 270.382 270.212 267.243 273.37 267.874C271.475 272.295 264.985 284.151 262.459 283.645Z" fill="black" stroke="black" stroke-width="2.39999" stroke-linecap="round" stroke-linejoin="round"/>
<path d="M430.633 325.98C426.211 333.558 409.791 360.085 379.475 343.062C395.896 332.927 418.633 325.348 430.633 325.98Z" fill="black" stroke="black" stroke-width="2.39999" stroke-linecap="round" stroke-linejoin="round"/>
<path d="M249.195 221.12C250.71 229.709 271.3 238.594 282.669 242.593C282.669 256.235 273.826 266.383 269.405 270.383C261.826 270.383 228.354 255.225 225.195 237.541C223.419 227.593 225.616 167.225 228.984 140.278C223.3 135.857 227.09 125.12 228.984 120.068C230.5 116.025 239.3 120.068 243.511 122.594C249.826 111.226 262.347 114.151 258.669 116.91C251.09 122.594 250.668 131.015 249.195 137.12C243.51 140.91 247.3 210.383 249.195 221.12Z" fill="#D98F6F" stroke="black" stroke-width="2.39999" stroke-linecap="round" stroke-linejoin="round"/>
<path d="M249.195 221.12C250.71 229.709 271.3 238.594 282.669 242.593C282.669 256.235 273.826 266.383 269.405 270.383C261.826 270.383 228.354 255.225 225.195 237.541C223.419 227.593 225.616 167.225 228.984 140.278C223.3 135.857 227.09 125.12 228.984 120.068C230.5 116.025 239.3 120.068 243.511 122.594C249.826 111.226 262.347 114.151 258.669 116.91C251.09 122.594 250.511 130.979 249.195 137.12C248.107 142.191 247.3 210.383 249.195 221.12Z" fill="#F5B896" stroke="black" stroke-width="2.2" stroke-linejoin="round"/>
<path d="M241.253 124.734C240.307 127.331 233.966 126 229.706 124.447C225.446 122.893 225.129 121.021 225.826 119.109C226.523 117.197 227.971 115.968 232.231 117.522C236.491 119.075 242.2 122.138 241.253 124.734Z" fill="#F5B896" stroke="black" stroke-width="2.39999" stroke-linecap="round" stroke-linejoin="round"/>
<path d="M238.727 131.05C237.78 133.647 231.44 132.316 227.18 130.762C222.92 129.209 222.603 127.337 223.3 125.425C223.997 123.512 225.445 122.284 229.705 123.837C233.965 125.391 239.674 128.453 238.727 131.05Z" fill="#F5B896" stroke="black" stroke-width="2.39999" stroke-linecap="round" stroke-linejoin="round"/>
<path d="M237.464 137.366C236.517 139.963 230.177 138.632 225.917 137.078C221.657 135.525 221.339 133.653 222.037 131.741C222.734 129.828 224.182 128.6 228.442 130.153C232.702 131.707 238.411 134.769 237.464 137.366Z" fill="#F5B896" stroke="black" stroke-width="2.39999" stroke-linecap="round" stroke-linejoin="round"/>
<path d="M378.842 242.68L347.707 250.653L337.289 264.606C302.179 310.094 288.969 386.861 288.086 416.096C308.622 408.787 345.719 412.774 359.631 419.418C370.76 424.734 396.949 420.747 408.653 418.089C412.809 402.143 405.522 362.942 392.091 338.358C400.041 333.707 419.914 330.385 433.163 327.062C424.684 295.701 393.416 257.74 378.842 242.68Z" fill="#ACC7FA"/>
<path d="M392.091 338.358C400.041 333.707 419.914 330.385 433.163 327.062C424.684 295.701 393.416 257.74 378.842 242.68L347.707 250.653L337.289 264.606C302.179 310.094 288.969 386.861 288.086 416.096C308.622 408.787 345.719 412.774 359.631 419.418C370.76 424.734 396.949 420.747 408.653 418.089C412.809 402.143 405.522 362.942 392.091 338.358ZM392.091 338.358L378.842 345.002C382.154 329.72 376.374 289.854 372.399 267.264" stroke="black" stroke-width="2.24041" stroke-linecap="round" stroke-linejoin="round"/>
<path d="M433.135 327.061C419.592 335.704 389.369 351.592 379.476 345.666C396.259 338.875 431.015 325.58 433.135 327.061Z" fill="black" stroke="black" stroke-width="2.52484" stroke-linecap="round" stroke-linejoin="round"/>
<path d="M384.776 342.344L402 419.418C402 413.621 392.725 365.62 388.088 342.344H384.776Z" fill="black" stroke="black" stroke-width="2.52484" stroke-linecap="round" stroke-linejoin="round"/>
<path d="M349.843 255.304C352.492 254.773 353.155 258.626 353.155 260.62L354.48 251.982C351.3 251.982 343.439 250.653 340.568 249.988C340.789 248.216 340.966 244.673 339.906 244.673C338.846 244.673 337.256 246.445 336.594 247.331V263.941C339.906 263.941 346.53 255.969 349.843 255.304Z" fill="#E74F4F" stroke="black" stroke-width="2.24041" stroke-linecap="round" stroke-linejoin="round"/>
<path d="M352.722 261.283C351.396 265.934 346.097 269.256 347.422 285.867" stroke="black" stroke-width="2.24041" stroke-linecap="round" stroke-linejoin="round"/>
<g clip-path="url(#clip2_1752_33472)">
<path d="M299.998 164.368C302.159 157.404 310.273 146.684 317.051 146.684C314.637 152.747 310.474 178.263 310.273 185.842C305.051 185.842 294.314 182.684 299.998 164.368Z" fill="#BFC2C8" stroke="black" stroke-width="2.39999" stroke-linecap="round" stroke-linejoin="round"/>
<path d="M308.209 211.12V164.368C308.209 159.316 311.367 141 342.314 140.369C373.261 139.737 378.314 161.21 378.314 161.21C378.314 173.307 374.484 180.1 369.742 183.782C374.966 180.64 382.875 178.155 384.629 186.488C386.65 196.088 376.208 199.751 370.735 200.383C366.693 222.109 370.735 238.067 373.261 243.33C368.208 253.435 350.524 251.751 342.314 249.646V233.856C308.461 234.867 308.209 222.488 308.209 211.12Z" fill="#F5B896" stroke="black" stroke-width="2.2" stroke-linejoin="round"/>
<path d="M341.43 234.192C345.856 233.991 353.125 232.675 355.086 229.033C355.168 228.854 355.248 228.678 355.325 228.508C355.258 228.688 355.178 228.863 355.086 229.033C352.019 235.721 345.367 248.366 341.43 249.35V234.192Z" fill="black" stroke="black" stroke-width="2.39999" stroke-linecap="round" stroke-linejoin="round"/>
<path d="M366.945 183.316C372.629 169.421 373.892 159.947 369.471 149.21C373.893 147 379.577 153 383.366 159.947C388.879 170.053 383.366 183.947 383.366 183.947C375.156 175.105 363.965 190.603 366.945 183.316Z" fill="#BFC2C8" stroke="black" stroke-width="2.39999" stroke-linecap="round" stroke-linejoin="round"/>
<path d="M344.208 155.308C341.051 153 328.419 152.369 322.735 155.308" stroke="black" stroke-width="1.89473" stroke-linecap="round" stroke-linejoin="round"/>
<path d="M338.524 158.685C334.314 157.422 332.461 157.168 328.419 158.684" stroke="black" stroke-width="1.89473" stroke-linecap="round" stroke-linejoin="round"/>
<path d="M337.475 195.84C336.459 192.504 332.929 190.623 329.593 191.64C326.256 192.656 324.375 196.185 325.392 199.522C325.994 201.499 327.478 202.964 329.281 203.619" stroke="black" stroke-width="1.89473" stroke-linecap="round" stroke-linejoin="round"/>
<circle cx="341.987" cy="192.025" r="1.89473" fill="black"/>
<circle cx="321.344" cy="191.14" r="1.89473" fill="black"/>
<path d="M340.923 179.14C342.186 176.614 348.502 176.614 349.134 182.298" stroke="black" stroke-width="1.89473" stroke-linecap="round" stroke-linejoin="round"/>
<path d="M324.502 180.656C323.871 178.509 317.555 177.246 317.555 182.537" stroke="black" stroke-width="1.89473" stroke-linecap="round" stroke-linejoin="round"/>
<path d="M337.634 219.625C345.485 217.449 348.712 206.8 349.344 201.748C342.889 207.493 330.075 211.89 319.067 206.486C320.407 216.601 328.292 222.214 337.634 219.625Z" fill="black" stroke="black" stroke-width="1.89473" stroke-linecap="round" stroke-linejoin="round"/>
<path d="M335.235 216.088C331.201 213.5 327.322 215.599 325.887 216.972C336.528 222.282 341.871 216.471 343.212 212.902C340.158 210.562 336.621 214.051 335.235 216.088Z" fill="white"/>
<circle cx="8.21049" cy="8.21049" r="8.21049" transform="matrix(-1 0 0 1 352.125 180.949)" stroke="black" stroke-width="1.89473" stroke-linecap="round" stroke-linejoin="round"/>
<path d="M312.571 189.16C312.571 193.694 316.247 197.37 320.781 197.37C322.148 197.37 323.437 197.036 324.571 196.445C324.571 196.445 324.571 195.118 325.834 193.581C327.018 192.14 328.596 191.686 328.596 191.686C328.853 190.89 328.992 190.041 328.992 189.16C328.992 184.625 325.316 180.949 320.781 180.949C316.247 180.949 312.571 184.625 312.571 189.16Z" stroke="black" stroke-width="1.89473" stroke-linecap="round" stroke-linejoin="round"/>
<path d="M368.546 182.844C364.756 184.949 356.419 189.16 353.388 189.16" stroke="black" stroke-width="1.89473" stroke-linecap="round" stroke-linejoin="round"/>
</g>
<path d="M320.181 335.956C322.014 327.805 313.581 325.223 309.135 324.951L337.329 321.032C338.573 334.04 340.925 361.27 340.387 366.123C339.849 370.976 330.851 380.053 326.42 383.985C321.904 382.667 313.722 379.801 317.129 378.881C321.388 377.733 324.62 357.445 324.098 349.739C323.575 342.034 317.891 346.146 320.181 335.956Z" fill="#454953" stroke="black" stroke-width="1.63106" stroke-linejoin="round"/>
<path d="M333.343 305.976C330.086 302.484 308.893 301.136 298.703 300.898L306.972 316.12L344.806 317.268C342.342 314.959 336.6 309.469 333.343 305.976Z" fill="#505660" stroke="black" stroke-width="1.63106" stroke-linejoin="round"/>
<path d="M344.763 316.651L312.331 315.454L304.192 325.912C314.715 326.141 336.519 326.38 339.556 325.495C342.593 324.609 344.292 319.23 344.763 316.651Z" fill="#2C2E34" stroke="black" stroke-width="1.63106" stroke-linejoin="round"/>
<path d="M306.863 304.367C304.374 299.587 294.538 300.891 289.931 302.141C286.675 306.018 289.264 316.245 291.222 321.174C293.18 326.102 304.302 326.473 310.962 324.896C317.622 323.32 309.975 310.342 306.863 304.367Z" fill="black" stroke="black" stroke-width="1.63106" stroke-linejoin="round"/>
<path d="M318.905 389.636C317.166 387.689 316.244 382.84 316 380.658L326.061 385.136L325.46 393.205C324 392.826 320.644 391.582 318.905 389.636Z" fill="#2C2E34" stroke="black" stroke-width="1.63106" stroke-linejoin="round"/>
<path d="M340.652 378.358C339.647 382.237 330.164 389.81 325.547 393.112L325.768 384.691C329.996 380.855 338.745 372.043 339.914 367.481C340.578 369.491 341.656 374.48 340.652 378.358Z" fill="black" stroke="black" stroke-width="1.63106" stroke-linejoin="round"/>
<path d="M321.79 342.116C321.79 337.695 331.089 332.879 338.036 332.01C356.64 329.685 388.791 348.943 396.141 349.752C396.948 350.113 398.631 347.396 394.246 339.571C404.857 334.518 422.667 327.978 428.352 327.557C433.404 334.504 453.789 388.852 438.631 397.063C415.895 406.536 356.526 346.523 352.105 352.221C352.105 369.241 347.684 372.254 345.615 373.03C341.573 374.546 338.212 371.168 338.843 369.273C338.212 371.168 333.615 373.662 330.457 372.399C327.299 371.136 326.212 369.24 328.106 366.747C322.422 371.8 316.313 365.978 318.914 364.188C325.684 359.53 327.11 347.763 329.803 343.074C326.263 347.904 321.79 348.516 321.79 342.116Z" fill="#F5B896"/>
<path d="M328.106 366.747C322.422 371.8 316.313 365.978 318.914 364.188C326.211 359.168 327.299 345.891 330.457 342.116C326.842 347.8 321.79 348.918 321.79 342.116C321.79 337.695 331.089 332.879 338.036 332.01C356.64 329.685 388.791 348.943 396.141 349.752M328.106 366.747C326.212 369.24 327.299 371.136 330.457 372.399C333.615 373.662 338.212 371.168 338.843 369.273M328.106 366.747C328.106 366.747 334.247 362.326 334.247 352.221M338.843 369.273C338.212 371.168 341.573 374.546 345.615 373.03C347.684 372.254 352.105 369.241 352.105 352.221C356.526 346.523 415.895 406.536 438.631 397.063C453.789 388.852 433.404 334.504 428.352 327.557C422.667 327.978 404.857 334.518 394.246 339.571C398.631 347.396 396.948 350.113 396.141 349.752M338.843 369.273C338.843 369.273 343.895 364.188 342.632 352.221M428.352 364.188L396.141 349.752" stroke="black" stroke-width="2.39999" stroke-linecap="round" stroke-linejoin="round"/>
<path d="M359.424 260.055L361.868 249.305H355.515L353.56 261.521C351.443 265.267 347.403 274.812 348.185 279.113C348.185 279.113 358.936 261.032 359.424 260.055Z" fill="#F5B896"/>
<path d="M360.645 259.592C360.513 259.973 360.44 260.323 360.44 260.618L360.645 259.592C361.406 257.399 364.145 254.185 366.403 254.638C369.715 255.302 377.664 258.625 380.977 258.625L378.327 242.678C377.664 241.792 376.074 240.021 375.014 240.021C373.955 240.021 374.131 242.235 374.352 244.007C371.04 247.994 365.608 250.651 362.428 250.651L360.645 259.592Z" fill="#E74F4F"/>
<path d="M360.44 260.618C360.44 258.625 363.753 254.106 366.403 254.638C369.715 255.302 377.664 258.625 380.977 258.625L378.327 242.678C377.664 241.792 376.074 240.021 375.014 240.021C373.955 240.021 374.131 242.235 374.352 244.007C371.04 247.994 365.608 250.651 362.428 250.651L360.44 260.618ZM360.44 260.618C357.791 265.933 351.034 266.731 347.854 285.866" stroke="black" stroke-width="2.24041" stroke-linecap="round" stroke-linejoin="round"/>
<rect x="350.625" y="289.863" width="21.5008" height="6.84117" fill="#FFDA68" stroke="black" stroke-width="2.24041" stroke-linecap="round" stroke-linejoin="round"/>
</g>
<path d="M74.1051 427.972C63.9973 436.165 46.7475 471.953 63.5047 511.636C78.8976 575.574 83.7384 599.328 84.5351 635.735C84.537 635.82 84.5388 635.904 84.5406 635.989C84.5923 647.53 58.6943 682.478 45.6425 698.623C51.3726 716.305 62.5332 749.915 61.3345 742.908C68.7244 730.825 83.4849 707.406 83.4081 710.397C83.0597 723.892 82.6822 739.177 82.3367 756.75L133.815 754.921L137.882 637.404L157.149 617.592C172.664 602.664 191.484 571.951 186.024 562.585C177.121 547.314 160.209 477.444 148.79 420.712C148.79 420.712 134.81 412.385 112.699 414.813C90.5887 417.24 74.1051 427.972 74.1051 427.972Z" fill="#BABECB"/>
<path d="M134.473 449.31C145.702 511.281 139.875 579.811 139.875 579.811L137.882 637.404M84.5351 635.735C83.7384 599.328 78.8976 575.574 63.5047 511.636C46.7476 471.953 63.9973 436.165 74.1051 427.972C74.1051 427.972 90.5887 417.24 112.699 414.813C134.81 412.385 148.79 420.712 148.79 420.712C160.209 477.444 177.121 547.314 186.024 562.585C191.484 571.951 172.664 602.664 157.149 617.592M84.5351 635.735C84.9787 647.008 58.7915 682.358 45.6425 698.623C51.3726 716.305 62.5332 749.915 61.3345 742.908C68.7244 730.825 83.4849 707.406 83.4081 710.397M84.5351 635.735C84.9502 654.7 84.2679 677.097 83.4081 710.397M83.4081 710.397C83.0597 723.892 82.6822 739.177 82.3367 756.75L133.815 754.921L137.882 637.404M137.882 637.404C138.717 634.766 147.368 627.004 157.149 617.592M137.882 637.404L157.149 617.592" stroke="black" stroke-width="2.24041" stroke-linecap="round" stroke-linejoin="round"/>
<path d="M161.445 357.654C171.544 356.059 183.371 343.258 188.022 337.057L158.787 350.345L161.445 357.654Z" fill="black" stroke="black" stroke-width="2.52484" stroke-linecap="round" stroke-linejoin="round"/>
<path d="M189.351 356.325L176.336 330.377C172.863 328.659 160.242 335.827 157.599 342.408C157.599 342.408 165.801 376.161 176.336 377.587C186.871 379.013 243.224 378.522 273.491 361.847C276.217 360.625 277.294 357.852 278.027 354.812C280.128 353.307 279.912 350.659 278.782 349.417C280.251 346.631 278.711 344.09 277.592 342.392C275.092 338.6 267.712 339.763 262.778 341.294C259.161 328.1 245.635 327.964 248.705 331.702C255.032 339.403 253.492 345.477 253.492 345.477C253.492 345.477 247.821 350.64 226.559 354.812C205.297 358.983 189.351 356.325 189.351 356.325Z" fill="#CE8361" stroke="black" stroke-width="2.24041" stroke-linecap="round" stroke-linejoin="round"/>
<path d="M231.959 388.691L231.884 390.149L233.344 390.145L274 390.023L275.333 390.019L275.378 388.686L275.742 377.764L277.769 317.01L277.816 315.586L276.392 315.581L237.039 315.438L235.72 315.433L235.652 316.75L231.959 388.691Z" fill="#505798" stroke="black" stroke-width="2.76621"/>
<circle cx="246.974" cy="329.04" r="3.98658" transform="rotate(-11.4818 246.974 329.04)" fill="black"/>
<path d="M111.795 259.983C142.841 268.62 165.431 318.453 187.357 336.392C187.357 336.392 165.95 344.365 158.641 351.674C167.272 381.749 171.129 410.11 171.593 425.426C150.996 418.117 113.788 422.104 99.8349 428.748C88.6725 434.064 62.4053 430.077 50.667 427.419C46.4981 411.473 53.8069 372.271 67.2778 347.688C59.3046 343.037 39.3717 339.714 26.0831 336.392C34.5878 305.031 65.9489 267.07 80.5664 252.01L111.795 259.983Z" fill="#BCBFE3"/>
<path d="M67.2778 347.688C59.3046 343.037 39.3717 339.714 26.0831 336.392C34.5878 305.031 65.9489 267.07 80.5664 252.01L111.795 259.983C142.841 268.62 165.431 318.453 187.357 336.392C187.357 336.392 165.95 344.365 158.641 351.674M67.2778 347.688C53.8069 372.271 46.4981 411.473 50.667 427.419C62.4053 430.077 88.6725 434.064 99.8349 428.748C113.788 422.104 150.996 418.117 171.593 425.426C170.708 396.191 157.458 319.424 122.243 273.936M67.2778 347.688L80.5664 354.332C77.2443 339.05 83.0418 299.184 87.0284 276.593" stroke="black" stroke-width="2.24041" stroke-linecap="round" stroke-linejoin="round"/>
<path d="M26.104 336.392C39.6879 345.035 70.0007 360.923 79.9229 354.996C63.0906 348.206 28.2301 334.911 26.104 336.392Z" fill="black" stroke="black" stroke-width="2.52484" stroke-linecap="round" stroke-linejoin="round"/>
<path d="M53.5513 474.909C50.1575 464.513 58.0638 397.26 71.5919 349.997C57.9966 342.372 44.0435 340.694 38.2072 340.694C29.8562 383.374 36.556 432.842 35.5611 474.909C32.3447 485.363 31.0709 504.547 35.5611 508.795C38.3699 511.453 39.0343 508.795 39.0343 506.802C39.861 509.436 39.638 511.63 41.9939 511.63C44.3498 511.63 45.1472 507.435 45.2103 506.064C45.2103 510.085 46.6874 511.63 49.2308 511.63C53.6518 511.453 50.839 500.436 53.5513 490.602C55.059 493.494 59.3007 498.368 64.2055 494.737C65.6116 493.696 54.7176 483.175 53.5513 474.909Z" fill="#CE8361"/>
<path d="M45.2103 506.064C45.2103 510.085 46.6874 511.63 49.2308 511.63C53.6518 511.453 50.839 500.436 53.5513 490.602C55.059 493.494 59.3007 498.368 64.2055 494.737C65.6116 493.696 54.7176 483.175 53.5513 474.909C50.1575 464.513 58.0638 397.26 71.5919 349.997C57.9966 342.372 44.0435 340.694 38.2072 340.694C29.8562 383.374 36.556 432.842 35.5611 474.909C32.3447 485.363 31.0709 504.547 35.5611 508.795C38.3699 511.453 39.0343 508.795 39.0343 506.802M45.2103 506.064C45.1472 507.435 44.3498 511.63 41.9939 511.63C39.638 511.63 39.861 509.436 39.0343 506.802M45.2103 506.064C45.2103 506.064 44.3498 502.151 45.2103 490.602M39.0343 506.802C39.0343 506.802 37.041 496.171 39.0343 490.602" stroke="black" stroke-width="2.24041" stroke-linecap="round" stroke-linejoin="round"/>
<path d="M74.6072 351.674L57.332 428.748C57.332 422.951 66.6341 374.95 71.2851 351.674H74.6072Z" fill="black" stroke="black" stroke-width="2.52484" stroke-linecap="round" stroke-linejoin="round"/>
<path d="M261.491 345.288C262.487 348.02 269.157 346.619 273.639 344.985C278.121 343.351 278.454 341.382 277.721 339.37C276.987 337.358 275.464 336.066 270.983 337.7C266.501 339.334 260.495 342.556 261.491 345.288Z" fill="#CE8361" stroke="black" stroke-width="2.24041" stroke-linecap="round" stroke-linejoin="round"/>
<path d="M264.149 351.932C265.145 354.664 271.815 353.264 276.297 351.63C280.779 349.995 281.112 348.026 280.379 346.014C279.645 344.003 278.122 342.71 273.64 344.344C269.159 345.979 263.152 349.2 264.149 351.932Z" fill="#CE8361" stroke="black" stroke-width="2.24041" stroke-linecap="round" stroke-linejoin="round"/>
<path d="M265.477 358.577C266.474 361.309 273.144 359.908 277.626 358.274C282.107 356.64 282.441 354.67 281.707 352.659C280.974 350.647 279.451 349.354 274.969 350.989C270.487 352.623 264.481 355.845 265.477 358.577Z" fill="#CE8361" stroke="black" stroke-width="2.24041" stroke-linecap="round" stroke-linejoin="round"/>
<path d="M149.872 220.5V169.339H87.4158C87.4158 183.956 88.7447 190.157 87.4158 193.258C82.3219 189.493 71.6024 184.488 69.4762 194.587C67.35 204.686 74.1651 210.552 79.9235 211.217C84.1758 234.073 84.0937 248.849 81.436 254.386C86.7514 265.017 105.355 263.245 113.993 261.03V244.419C149.607 245.482 149.872 232.46 149.872 220.5Z" fill="#CE8361" stroke="black" stroke-width="2.52484" stroke-linejoin="round"/>
<path d="M113.329 244.419C108.673 244.208 101.026 242.823 98.9625 238.992C98.876 238.803 98.7921 238.619 98.7111 238.439C98.7822 238.629 98.8663 238.813 98.9625 238.992C102.189 246.028 109.187 259.33 113.329 260.366V244.419Z" fill="black" stroke="black" stroke-width="2.52484" stroke-linecap="round" stroke-linejoin="round"/>
<path d="M81.251 210.815C81.251 228.08 81.9167 220.117 81.9162 229.419C21.4524 191.294 60.6542 125.103 105.836 134.808C118.903 131.485 147.562 134.01 157.662 170.687C154.937 177.813 144.858 181.937 133.078 184.225C132.201 184.395 126.663 159.906 125.769 160.056C126.433 178.66 125.331 185.175 125.769 185.304C108.885 187.762 92.3245 186.827 87.2321 185.978V191.958C82.1381 189.079 73.2778 185.965 70.6201 195.533C67.9624 205.101 75.7141 209.043 81.251 210.815Z" fill="black" stroke="black" stroke-width="2.52484" stroke-linecap="round" stroke-linejoin="round"/>
<path d="M20.124 229.419C37.3992 202.842 1.82495 144.721 59.9899 161.661C42.9979 164.74 48.0301 190.782 48.0301 195.533C48.0301 227.872 33.8483 229.419 20.124 229.419Z" fill="black" stroke="black" stroke-width="1.99329"/>
<path d="M116.467 131.748C105.836 131.748 81.2517 140.385 78.594 187.56" stroke="white" stroke-width="3.32215" stroke-linecap="round" stroke-linejoin="round"/>
<path d="M132.413 188.606C135.735 187.277 141.715 189.403 141.715 195.25" stroke="black" stroke-width="1.99329" stroke-linecap="round" stroke-linejoin="round"/>
<path d="M113.808 189.935C111.815 189.271 107.563 190.733 106.5 193.922" stroke="black" stroke-width="1.99329" stroke-linecap="round" stroke-linejoin="round"/>
<path d="M104.506 211.48C104.506 216.795 107.829 221.55 112.69 224.328C120.132 228.58 129.09 227.426 133.952 223.664" stroke="black" stroke-width="2.24041" stroke-linecap="round" stroke-linejoin="round"/>
<circle cx="1.99329" cy="1.99329" r="1.99329" transform="matrix(-1 0 0 1 115.802 195.108)" fill="black"/>
<circle cx="1.99329" cy="1.99329" r="1.99329" transform="matrix(-1 0 0 1 137.064 193.765)" fill="black"/>
<path d="M119.403 203.739C120.472 200.229 124.185 198.25 127.695 199.32C131.205 200.389 133.184 204.102 132.114 207.612C131.481 209.692 129.92 211.233 128.023 211.923" stroke="black" stroke-width="2.24041" stroke-linecap="round" stroke-linejoin="round"/>
<circle cx="123.775" cy="184.238" r="1.32886" fill="black"/>
<g clip-path="url(#clip3_1752_33472)">
<path d="M212.424 401.168L208.511 377.703L215.369 377.703L216.852 400.442L212.424 401.168Z" fill="white" stroke="black" stroke-width="2.14919" stroke-linecap="round"/>
<path d="M202.237 389.689L197.885 390.101L194.887 391.565L191.384 396.505L192.101 401.995C195.349 406.343 204.07 413.29 212.964 406.298C224.081 397.558 216.936 388.476 214.969 386.418C213.003 384.361 208.299 385.648 207.993 385.779C207.748 385.883 204.054 388.429 202.237 389.689Z" fill="#DB0000" stroke="black" stroke-width="0.903359" stroke-linecap="round" stroke-linejoin="round"/>
<path d="M210.464 408.475C203.035 411.652 194.548 408.522 191.545 401.498C189.525 396.774 191.466 392.332 196.492 390.183C198.211 389.448 200.174 389.064 202.188 389.069C203.917 387.452 205.678 386.254 207.426 385.507C212.269 383.436 216.404 385.106 218.487 389.977C221.493 396.999 217.892 405.298 210.464 408.475ZM197.017 391.408C193.765 392.798 190.703 396.138 192.771 400.974C195.486 407.322 203.187 410.137 209.941 407.249C216.694 404.361 219.979 396.848 217.264 390.5C215.457 386.275 212.15 384.936 207.952 386.731C206.284 387.444 204.589 388.618 202.913 390.218L202.714 390.407L202.439 390.402C200.516 390.365 198.641 390.713 197.017 391.408Z" fill="black"/>
<path d="M195.016 401.325C194.678 401.47 194.286 401.311 194.142 400.974C192.554 397.262 193.977 393.666 197.77 391.814C198.111 391.647 198.499 391.789 198.661 392.12C198.822 392.451 198.685 392.85 198.354 393.012C195.887 394.218 193.809 396.803 195.368 400.45C195.512 400.788 195.353 401.181 195.016 401.325Z" fill="black"/>
<path d="M203.077 391.189C202.739 391.334 202.347 391.177 202.202 390.839C201.276 388.672 201.034 384.965 204.163 383.627C204.502 383.483 204.893 383.64 205.038 383.978C205.183 384.316 205.026 384.708 204.687 384.852C202.194 385.919 202.933 389.158 203.428 390.315C203.572 390.653 203.415 391.045 203.077 391.189Z" fill="#09463F"/>
<path d="M202.955 390.913C202.655 391.041 202.299 390.933 202.124 390.645C200.334 387.692 199.748 385.544 200.28 383.888C200.657 382.714 201.606 381.795 203.103 381.155C203.441 381.011 203.833 381.168 203.977 381.506C204.122 381.844 203.965 382.236 203.627 382.38C202.484 382.869 201.806 383.495 201.547 384.296C201.147 385.539 201.708 387.39 203.263 389.954C203.455 390.267 203.352 390.678 203.038 390.869C203.011 390.887 202.984 390.901 202.955 390.913Z" fill="#073430"/>
<path d="M203.042 391.202C202.704 391.347 202.312 391.19 202.167 390.852C201.672 389.694 199.841 386.923 197.348 387.99C197.009 388.134 196.618 387.977 196.473 387.639C196.328 387.301 196.485 386.909 196.824 386.764C199.953 385.426 202.467 388.163 203.393 390.328C203.537 390.666 203.381 391.057 203.042 391.202Z" fill="#09463F"/>
<path d="M227.139 389.687L223.716 381.103L220.16 378.399L216.058 379.619L212.38 383.773L211.447 388.094L213.142 399.831L218.265 402.519L221.785 401.893L226.64 397.922L227.139 389.687Z" fill="#FFFAE1"/>
<path d="M219.136 403.037C216.279 403.068 213.797 401.839 212.147 399.576C211.893 399.226 211.97 398.736 212.319 398.482C212.67 398.227 213.159 398.307 213.413 398.653C214.754 400.495 216.779 401.495 219.116 401.47C223.621 401.421 226.489 397.765 226.428 392.152C226.358 385.653 222.617 379.31 218.877 379.351C215.826 379.384 212.736 383.709 211.841 389.197C211.77 389.624 211.367 389.913 210.942 389.844C210.516 389.775 210.225 389.371 210.296 388.945C211.191 383.436 214.422 377.83 218.86 377.782C223.999 377.726 227.922 385.313 227.995 392.134C228.079 399.599 223.605 402.989 219.136 403.037Z" fill="black"/>
<path d="M227.71 404.423L193.23 404.795C192.798 404.8 192.443 404.451 192.438 404.02C192.433 403.587 192.781 403.232 193.213 403.228L227.693 402.855C228.124 402.851 228.481 403.198 228.486 403.63C228.49 404.063 228.141 404.418 227.71 404.423Z" fill="black"/>
<path d="M186.625 399.545L180.718 392.418L178.737 387.977L176.08 387.875L175.562 392.535L176.072 399.698L182.138 407.149L193.86 412.233L206.823 412.904L215.16 407.424L217.307 400.364L220.223 398.136L218.218 396.913L215.479 397.051L212.539 402.496L199.558 404.237L186.625 399.545Z" fill="#FFDA68"/>
<path d="M216.378 396.015L213.603 400.979L216.965 403.742L216.66 401.487L219.829 397.733L216.378 396.015Z" fill="#A77C18"/>
<path d="M190.393 412.059C171.998 405.767 174.042 390.995 174.333 389.327C174.48 388.494 174.995 387.764 175.738 387.324C176.533 386.856 177.486 386.759 178.354 387.056C179.565 387.47 180.41 388.58 180.685 390.113C181.704 392.7 185.001 398.814 194.119 401.933C200.094 403.977 205.769 404.055 210.981 402.168C212.153 401.743 212.364 401.14 212.791 399.932C213.219 398.723 213.752 397.218 215.444 395.552C215.719 395.283 216.122 395.193 216.487 395.317L221.126 396.904C221.546 397.048 221.825 397.449 221.815 397.892C221.805 398.336 221.505 398.724 221.081 398.848C220.043 399.144 218.772 399.722 218.352 400.172C218.302 404.345 216.264 408.181 212.726 410.733C209.585 413.007 202.5 416.2 190.393 412.059ZM177.694 388.982C177.394 388.88 177.048 388.914 176.775 389.076C176.605 389.175 176.396 389.36 176.337 389.682C175.911 392.11 174.608 404.509 191.05 410.133C199.256 412.94 206.723 412.557 211.533 409.083C214.617 406.856 216.36 403.498 216.316 399.869C216.316 399.706 216.355 399.542 216.429 399.396C216.722 398.823 217.301 398.346 217.941 397.967L216.452 397.458C215.424 398.618 215.05 399.672 214.714 400.617C214.243 401.951 213.754 403.336 211.678 404.088C206.019 406.138 199.889 406.063 193.462 403.865C183.42 400.43 179.829 393.553 178.75 390.756C178.726 390.688 178.704 390.616 178.692 390.549C178.558 389.712 178.203 389.157 177.694 388.982Z" fill="black"/>
<path d="M192.129 407.713C184.434 405.08 180.522 400.48 178.595 397.084C178.317 396.594 178.489 395.973 178.979 395.698C179.471 395.419 180.092 395.592 180.368 396.082C182.12 399.171 185.698 403.362 192.788 405.788C198.763 407.832 204.437 407.91 209.65 406.023C210.179 405.83 210.76 406.102 210.955 406.633C211.147 407.161 210.874 407.745 210.345 407.936C204.688 409.987 198.556 409.911 192.129 407.713Z" fill="black"/>
<path d="M174.849 394.655C174.755 394.623 174.665 394.577 174.582 394.519C174.126 394.189 174.025 393.552 174.357 393.098C175.219 391.914 177.342 390.455 179.729 389.962C180.278 389.849 180.819 390.202 180.933 390.755C181.052 391.303 180.696 391.843 180.143 391.957C178.374 392.324 176.62 393.459 176.005 394.3C175.734 394.663 175.264 394.797 174.849 394.655Z" fill="black"/>
<path d="M216.228 405.261C215.871 405.139 215.601 404.827 215.546 404.434C215.526 404.292 215.468 404.094 215.195 403.893C214.572 403.435 213.358 403.318 212.756 403.416C212.198 403.504 211.678 403.13 211.585 402.576C211.495 402.021 211.87 401.498 212.427 401.406C213.359 401.257 215.187 401.355 216.402 402.259C217.056 402.74 217.458 403.398 217.56 404.162C217.637 404.719 217.244 405.232 216.686 405.308C216.53 405.328 216.374 405.311 216.228 405.261Z" fill="black"/>
<path d="M188.804 388.512L187.24 379.196L187.796 374.157L185.457 372.865L182.534 376.985L179.219 383.905L180.756 393.594L188.633 403.62L199.954 410.082L210.351 408.715L216.005 403.087L219.806 402.319L218.645 400.274L216.105 399.17L210.587 402.932L197.979 398.716L188.804 388.512Z" fill="#FFDA68"/>
<path d="M217.468 398.604L212.352 401.991L213.924 406.085L214.838 403.842L219.67 401.762L217.468 398.604Z" fill="#A77C18"/>
<path d="M185.619 401.901C172.368 387.744 181.994 374.867 183.135 373.439C183.707 372.727 184.554 372.278 185.456 372.201C186.418 372.122 187.328 372.46 187.953 373.128C188.826 374.06 189.002 375.478 188.442 377.033C187.996 379.908 187.743 387.102 194.311 394.12C198.616 398.719 203.685 401.346 209.374 401.929C210.653 402.061 211.161 401.592 212.182 400.655C213.205 399.72 214.478 398.553 216.88 397.759C217.27 397.631 217.681 397.729 217.943 398.009L221.285 401.579C221.588 401.903 221.628 402.403 221.385 402.813C221.142 403.223 220.667 403.45 220.22 403.375C219.129 403.184 217.68 403.152 217.064 403.383C214.82 407.259 210.962 409.923 206.431 410.715C202.404 411.425 194.34 411.218 185.619 401.901ZM186.344 374.631C186.127 374.399 185.798 374.276 185.466 374.305C185.261 374.321 184.976 374.399 184.753 374.673C183.09 376.749 175.381 387.744 187.225 400.398C193.137 406.713 200.064 409.717 206.227 408.637C210.177 407.945 213.517 405.594 215.391 402.184C215.477 402.031 215.597 401.896 215.741 401.792C216.307 401.389 217.08 401.204 217.856 401.138L216.784 399.993C215.247 400.613 214.354 401.43 213.553 402.162C212.426 403.195 211.256 404.268 208.99 404.037C202.812 403.404 197.331 400.575 192.701 395.629C185.468 387.9 185.857 379.86 186.36 376.763C186.374 376.688 186.392 376.611 186.417 376.543C186.737 375.701 186.711 375.023 186.344 374.631Z" fill="black"/>
<path d="M189.493 398.634C183.95 392.712 182.851 386.654 182.906 382.615C182.914 382.032 183.396 381.529 183.983 381.493C184.573 381.453 185.04 381.895 185.031 382.477C184.98 386.151 185.994 391.676 191.101 397.133C195.405 401.731 200.474 404.359 206.163 404.942C206.742 405 207.122 405.516 207.018 406.1C206.912 406.679 206.359 407.102 205.782 407.042C199.605 406.411 194.123 403.58 189.493 398.634Z" fill="black"/>
<path d="M180.785 378.65C180.717 378.577 180.66 378.494 180.616 378.402C180.379 377.889 180.624 377.249 181.162 376.974C182.563 376.256 185.243 375.849 187.653 376.463C188.207 376.605 188.508 377.177 188.32 377.745C188.138 378.31 187.533 378.656 186.974 378.513C185.188 378.059 183.01 378.33 182.012 378.838C181.577 379.056 181.083 378.969 180.785 378.65Z" fill="black"/>
<path d="M212.46 407.174C212.203 406.899 212.124 406.487 212.282 406.095C212.338 405.953 212.391 405.742 212.251 405.431C211.931 404.723 210.899 404.068 210.306 403.888C209.757 403.719 209.485 403.136 209.694 402.577C209.905 402.017 210.519 401.698 211.068 401.863C211.987 402.143 213.581 403.057 214.199 404.448C214.534 405.192 214.549 405.988 214.239 406.747C214.014 407.302 213.39 407.604 212.848 407.424C212.697 407.373 212.566 407.287 212.46 407.174Z" fill="black"/>
<path d="M195.69 411.21L187.471 411.056L183.334 409.815L181.728 411.545L184.568 414.596L189.69 418.405L198.218 418.64L208.423 413.695L216.373 405.356L217.503 396.564L213.987 391.025L214.173 387.77L212.189 388.411L210.698 390.335L212.666 395.472L206.332 405.223L195.69 411.21Z" fill="#FFDA68"/>
<path d="M210.507 389.132L212.246 393.879L216.052 393.217L214.356 392.115L213.66 387.804L210.507 389.132Z" fill="#A77C18"/>
<path d="M206.292 415.928C191.413 424.666 182.643 414.725 181.687 413.562C181.211 412.98 181.017 412.211 181.15 411.455C181.295 410.648 181.78 409.95 182.482 409.538C183.462 408.963 184.699 409.037 185.89 409.741C188.223 410.555 194.249 411.88 201.624 407.548C206.457 404.71 209.792 400.934 211.535 396.33C211.927 395.295 211.643 394.803 211.075 393.815C210.509 392.826 209.803 391.594 209.659 389.489C209.637 389.148 209.809 388.824 210.104 388.651L213.857 386.447C214.197 386.247 214.628 386.292 214.921 386.556C215.215 386.82 215.302 387.247 215.14 387.604C214.739 388.475 214.394 389.666 214.453 390.21C217.237 392.663 218.642 396.259 218.316 400.122C218.031 403.555 216.085 410.177 206.292 415.928ZM183.399 411.099C183.156 411.242 182.979 411.495 182.931 411.773C182.899 411.944 182.902 412.192 183.085 412.418C184.475 414.113 192.076 422.18 205.374 414.369C212.012 410.471 216.073 405.221 216.514 399.968C216.797 396.6 215.543 393.479 213.072 391.405C212.962 391.31 212.875 391.189 212.818 391.054C212.602 390.525 212.615 389.859 212.73 389.208L211.526 389.915C211.713 391.28 212.208 392.143 212.65 392.917C213.276 394.008 213.926 395.14 213.233 396.974C211.34 401.974 207.744 406.058 202.546 409.111C194.424 413.881 187.713 412.312 185.205 411.417C185.145 411.393 185.083 411.366 185.032 411.336C184.39 410.94 183.811 410.857 183.399 411.099Z" fill="black"/>
<path d="M204.368 412.232C198.143 415.887 192.781 415.854 189.379 415.183C188.888 415.085 188.568 414.61 188.667 414.12C188.763 413.627 189.24 413.309 189.729 413.408C192.824 414.019 197.717 414.04 203.452 410.672C208.285 407.834 211.62 404.059 213.363 399.455C213.539 398.986 214.058 398.753 214.529 398.929C214.995 399.106 215.231 399.628 215.054 400.095C213.164 405.094 209.566 409.179 204.368 412.232Z" fill="black"/>
<path d="M185.567 416.317C185.491 416.362 185.408 416.396 185.32 416.418C184.835 416.534 184.347 416.233 184.233 415.746C183.934 414.479 184.179 412.203 185.228 410.31C185.469 409.875 186.019 409.715 186.458 409.959C186.896 410.197 187.055 410.749 186.811 411.188C186.035 412.592 185.786 414.431 185.996 415.333C186.084 415.726 185.903 416.12 185.567 416.317Z" fill="black"/>
<path d="M216.647 394.602C216.359 394.772 215.993 394.773 215.696 394.582C215.588 394.513 215.422 394.437 215.128 394.504C214.459 394.658 213.679 395.408 213.396 395.87C213.133 396.297 212.58 396.431 212.153 396.172C211.727 395.91 211.592 395.354 211.852 394.927C212.29 394.212 213.413 393.038 214.726 392.744C215.428 392.583 216.104 392.694 216.678 393.068C217.097 393.34 217.215 393.902 216.944 394.321C216.867 394.437 216.766 394.533 216.647 394.602Z" fill="black"/>
<path fill-rule="evenodd" clip-rule="evenodd" d="M196.415 357.299C192.037 355.761 187.224 385.936 184.839 400.891L184.71 401.698C182.781 401.524 181.102 401.364 179.904 401.244C178.881 401.142 177.922 401.793 177.706 402.798C175.38 413.598 175.483 430.958 175.546 441.718L175.546 441.718C175.567 445.243 175.583 448.06 175.509 449.705C175.208 456.379 180.093 455.794 185.326 455.168C186.903 454.979 188.512 454.786 190.02 454.787C193.687 454.79 197.368 454.846 201.007 454.901L201.007 454.901C207.564 455 213.987 455.097 219.949 454.881C221.964 454.808 223.865 454.842 225.593 454.872C231.813 454.982 235.78 455.052 234.71 449.963C234.387 448.425 234.037 444.365 233.576 439.009C232.562 427.228 231.008 409.182 228.008 397.938C227.655 396.613 226.064 396.049 224.832 396.65C219.17 399.416 207.536 403.246 201.644 402.98C199.497 402.883 196.584 402.682 193.535 402.445C194.409 397.784 194.83 392.147 195.264 386.336C196.085 375.355 196.952 363.752 201.006 356.941C201.416 356.836 200.81 356.911 199.914 357.023C198.629 357.183 196.748 357.416 196.415 357.299Z" fill="#FFF7EE"/>
<path d="M184.839 400.891L185.949 401.068L185.949 401.068L184.839 400.891ZM196.415 357.299L196.042 358.359L196.415 357.299ZM184.71 401.698L185.82 401.875L185.655 402.912L184.609 402.818L184.71 401.698ZM179.904 401.244L180.016 400.126L180.016 400.126L179.904 401.244ZM177.706 402.798L176.607 402.562L177.706 402.798ZM175.546 441.718L176.67 441.711L176.67 441.724L176.67 441.737L175.546 441.718ZM175.546 441.718L174.422 441.725L174.422 441.712L174.422 441.699L175.546 441.718ZM175.509 449.705L176.632 449.756L175.509 449.705ZM185.326 455.168L185.46 456.283L185.326 455.168ZM190.02 454.787L190.019 455.911L190.02 454.787ZM201.007 454.901L201.021 456.025L201.006 456.025L200.99 456.025L201.007 454.901ZM201.007 454.901L200.993 453.777L201.009 453.777L201.024 453.777L201.007 454.901ZM219.949 454.881L219.909 453.758L219.949 454.881ZM225.593 454.872L225.573 455.996L225.573 455.996L225.593 454.872ZM234.71 449.963L233.611 450.195L234.71 449.963ZM233.576 439.009L232.457 439.105L233.576 439.009ZM228.008 397.938L226.922 398.228L228.008 397.938ZM224.832 396.65L225.325 397.66L225.325 397.66L224.832 396.65ZM201.644 402.98L201.594 404.103L201.644 402.98ZM193.535 402.445L193.448 403.565L192.2 403.468L192.43 402.238L193.535 402.445ZM195.264 386.336L194.144 386.252L195.264 386.336ZM201.006 356.941L200.04 356.366L200.277 355.967L200.727 355.852L201.006 356.941ZM199.914 357.023L199.775 355.908L199.914 357.023ZM183.729 400.714C184.921 393.244 186.726 381.926 188.783 372.666C189.809 368.045 190.911 363.881 192.047 360.952C192.61 359.501 193.214 358.264 193.875 357.423C194.489 356.64 195.507 355.789 196.787 356.239L196.042 358.359C196.228 358.425 196.138 358.18 195.642 358.811C195.192 359.385 194.684 360.37 194.142 361.765C193.071 364.528 191.999 368.554 190.977 373.154C188.937 382.335 187.143 393.583 185.949 401.068L183.729 400.714ZM183.601 401.521L183.729 400.714L185.949 401.068L185.82 401.875L183.601 401.521ZM180.016 400.126C181.21 400.246 182.885 400.405 184.812 400.579L184.609 402.818C182.678 402.643 180.995 402.483 179.792 402.362L180.016 400.126ZM176.607 402.562C176.952 400.959 178.463 399.971 180.016 400.126L179.792 402.362C179.298 402.313 178.892 402.627 178.804 403.035L176.607 402.562ZM174.422 441.725C174.359 431.014 174.25 413.509 176.607 402.562L178.804 403.035C176.511 413.686 176.606 430.903 176.67 441.711L174.422 441.725ZM174.422 441.699L174.422 441.699L176.67 441.737L176.67 441.737L174.422 441.699ZM174.386 449.654C174.459 448.045 174.443 445.266 174.422 441.725L176.67 441.712C176.69 445.22 176.708 448.074 176.632 449.756L174.386 449.654ZM185.46 456.283C184.163 456.439 182.826 456.599 181.579 456.64C180.337 456.68 179.091 456.606 177.988 456.24C176.853 455.864 175.861 455.173 175.203 454.018C174.564 452.894 174.306 451.444 174.386 449.654L176.632 449.756C176.562 451.303 176.801 452.282 177.157 452.906C177.494 453.499 177.994 453.874 178.696 454.107C179.431 454.351 180.369 454.431 181.506 454.394C182.637 454.357 183.873 454.21 185.192 454.052L185.46 456.283ZM190.019 455.911C188.591 455.91 187.051 456.093 185.46 456.283L185.192 454.052C186.755 453.865 188.433 453.662 190.021 453.664L190.019 455.911ZM200.99 456.025C197.349 455.97 193.676 455.914 190.019 455.911L190.021 453.664C193.697 453.667 197.386 453.722 201.024 453.777L200.99 456.025ZM201.021 456.025L201.021 456.025L200.993 453.777L200.993 453.777L201.021 456.025ZM219.99 456.004C213.993 456.221 207.541 456.124 200.99 456.025L201.024 453.777C207.588 453.877 213.98 453.973 219.909 453.758L219.99 456.004ZM225.573 455.996C223.843 455.965 221.97 455.932 219.99 456.004L219.909 453.758C221.958 453.684 223.888 453.718 225.612 453.748L225.573 455.996ZM235.81 449.732C236.101 451.117 236.093 452.339 235.636 453.354C235.16 454.41 234.288 455.046 233.275 455.421C232.292 455.784 231.107 455.93 229.844 455.989C228.571 456.049 227.117 456.023 225.573 455.996L225.612 453.748C227.178 453.776 228.553 453.8 229.739 453.744C230.936 453.688 231.843 453.554 232.495 453.313C233.118 453.083 233.426 452.789 233.587 452.431C233.767 452.031 233.854 451.354 233.611 450.195L235.81 449.732ZM234.696 438.913C235.162 444.323 235.505 448.281 235.81 449.732L233.611 450.195C233.269 448.569 232.913 444.406 232.457 439.105L234.696 438.913ZM229.094 397.648C232.125 409.01 233.685 427.171 234.696 438.913L232.457 439.105C231.439 427.286 229.891 409.355 226.922 398.228L229.094 397.648ZM224.339 395.641C226.082 394.789 228.524 395.513 229.094 397.648L226.922 398.228C226.785 397.714 226.046 397.308 225.325 397.66L224.339 395.641ZM201.695 401.857C204.443 401.981 208.672 401.139 213.01 399.873C217.316 398.617 221.578 396.99 224.339 395.641L225.325 397.66C222.425 399.077 218.039 400.747 213.639 402.031C209.272 403.305 204.738 404.245 201.594 404.103L201.695 401.857ZM193.622 401.325C196.668 401.562 199.567 401.761 201.695 401.857L201.594 404.103C199.428 404.005 196.5 403.803 193.448 403.565L193.622 401.325ZM196.385 386.419C195.952 392.212 195.527 397.918 194.639 402.652L192.43 402.238C193.29 397.651 193.708 392.082 194.144 386.252L196.385 386.419ZM201.971 357.516C200.055 360.736 198.852 365.17 198.032 370.254C197.215 375.322 196.796 380.918 196.385 386.419L194.144 386.252C194.553 380.772 194.978 375.077 195.813 369.896C196.646 364.731 197.903 359.957 200.04 356.366L201.971 357.516ZM199.775 355.908C200.213 355.853 200.611 355.804 200.846 355.782C200.905 355.776 200.971 355.771 201.032 355.769C201.06 355.767 201.107 355.766 201.161 355.768C201.187 355.769 201.232 355.772 201.286 355.78C201.322 355.785 201.45 355.803 201.598 355.87C201.673 355.904 202.27 356.187 202.26 356.912C202.256 357.222 202.128 357.445 202.044 357.56C201.959 357.677 201.87 357.751 201.822 357.789C201.666 357.909 201.507 357.962 201.503 357.964C201.423 357.994 201.338 358.016 201.284 358.03L200.727 355.852C200.776 355.84 200.762 355.842 200.723 355.856C200.71 355.861 200.683 355.871 200.647 355.888C200.623 355.9 200.54 355.939 200.447 356.011C200.4 356.047 200.312 356.121 200.228 356.236C200.145 356.35 200.017 356.572 200.013 356.881C200.003 357.604 200.598 357.885 200.67 357.917C200.815 357.983 200.939 358 200.967 358.004C201.015 358.011 201.052 358.013 201.069 358.014C201.088 358.015 201.102 358.015 201.109 358.015C201.117 358.014 201.121 358.014 201.122 358.014C201.123 358.014 201.118 358.014 201.105 358.015C201.092 358.016 201.075 358.018 201.053 358.02C200.863 358.037 200.511 358.081 200.053 358.138L199.775 355.908ZM196.787 356.239C196.668 356.197 196.596 356.202 196.667 356.205C196.709 356.208 196.78 356.208 196.885 356.205C197.094 356.198 197.374 356.177 197.702 356.146C198.355 356.084 199.129 355.988 199.775 355.908L200.053 358.138C199.414 358.217 198.606 358.318 197.914 358.384C197.569 358.416 197.236 358.442 196.958 358.451C196.82 358.456 196.679 358.457 196.549 358.45C196.448 358.444 196.245 358.431 196.042 358.359L196.787 356.239Z" fill="black"/>
<path d="M222.57 403.52C224.482 414.81 227.408 437.658 226.43 442.551" stroke="black" stroke-width="2.10843" stroke-linecap="round" stroke-linejoin="round"/>
<g clip-path="url(#clip4_1752_33472)">
<path d="M183.351 430.808C183.351 430.808 183.065 431.161 183.377 431.661C183.377 431.661 183.447 431.421 183.989 431.457L184.639 431.499C185.252 431.539 185.751 430.982 185.501 430.358C185.501 430.358 185.931 430.432 186.094 430.17C186.255 429.909 186.109 429.79 185.892 429.776L184.8 429.706C184.788 429.9 184.416 429.903 184.43 429.682L183.817 429.642C183.817 429.642 183.356 429.612 183.322 429.999C183.322 429.999 183.43 429.943 183.534 429.941L183.528 430.044C183.528 430.044 183.4 430.059 183.339 430.087C183.278 430.114 183.187 430.195 183.254 430.421C183.321 430.647 183.348 430.726 183.348 430.726C183.348 430.726 183.486 430.621 183.698 430.635L183.946 430.651C184.388 430.68 184.279 431.103 183.837 431.075C183.395 431.046 183.352 430.808 183.352 430.808L183.351 430.808Z" fill="#DB0000"/>
<path d="M185.683 430.513C185.683 430.513 185.831 430.532 185.945 430.445C185.945 430.445 186.875 431.271 185.323 432.711C183.77 434.151 184.829 435.217 184.829 435.217C184.829 435.217 184.551 435.452 184.668 435.954C184.668 435.954 184.086 435.573 183.661 434.964C183.047 434.083 182.722 432.775 184.623 431.872C184.623 431.872 185.873 431.342 185.682 430.513L185.683 430.513Z" fill="#DB0000"/>
<path d="M184.235 429.531C184.235 429.531 184.453 429.194 184.907 429.224C185.266 429.247 185.359 429.069 185.359 429.069C185.359 429.069 185.535 428.781 186.323 428.832C187.045 428.879 187.517 429.152 187.89 429.499C187.89 429.499 186.87 428.771 185.763 429.63L184.235 429.531Z" fill="#DB0000"/>
<path d="M188.501 432.021C188.542 430.929 187.775 429.708 185.96 429.656C187.826 428.273 190.678 431.817 188.036 433.411C188.036 433.411 188.498 432.835 188.501 432.021L188.501 432.021Z" fill="#DB0000"/>
<path d="M186.226 429.797C188.439 429.874 189.056 432.573 187.552 433.672L186.075 434.271C186.075 434.271 185.928 433.657 186.666 432.998C187.403 432.339 188.157 431.065 186.3 430.074C186.3 430.074 186.348 429.896 186.227 429.797L186.226 429.797Z" fill="#DB0000"/>
<path d="M186.088 430.393C186.088 430.393 186.203 430.298 186.245 430.216C187.843 431.008 187.509 432.153 186.465 433.064C185.823 433.645 185.966 434.325 185.966 434.325C185.966 434.325 185.203 434.734 184.924 435.115C184.924 435.115 183.92 434.141 185.489 432.735C187.029 431.355 186.088 430.393 186.088 430.393L186.088 430.393Z" fill="#DB0000"/>
</g>
<g clip-path="url(#clip5_1752_33472)">
<path d="M198.642 430.408C198.642 430.408 198.421 430.804 198.814 431.244C198.814 431.244 198.842 430.996 199.381 430.937L200.029 430.867C200.64 430.801 201.036 430.168 200.683 429.596C200.683 429.596 201.119 429.594 201.234 429.309C201.349 429.024 201.185 428.932 200.969 428.956L199.881 429.073C199.902 429.267 199.536 429.333 199.512 429.113L198.901 429.179C198.901 429.179 198.442 429.228 198.475 429.616C198.475 429.616 198.572 429.542 198.674 429.522L198.685 429.625C198.685 429.625 198.561 429.661 198.506 429.699C198.451 429.737 198.375 429.831 198.48 430.043C198.585 430.255 198.624 430.328 198.624 430.328C198.624 430.328 198.743 430.201 198.954 430.178L199.202 430.151C199.642 430.104 199.607 430.54 199.167 430.587C198.726 430.635 198.642 430.407 198.642 430.407L198.642 430.408Z" fill="#DB0000"/>
<path d="M200.9 429.714C200.9 429.714 201.049 429.707 201.147 429.601C201.147 429.601 202.205 430.256 200.922 431.94C199.639 433.625 200.865 434.494 200.865 434.494C200.865 434.494 200.632 434.773 200.833 435.248C200.833 435.248 200.194 434.973 199.671 434.445C198.916 433.683 198.371 432.45 200.089 431.234C200.089 431.234 201.23 430.497 200.9 429.714L200.9 429.714Z" fill="#DB0000"/>
<path d="M199.3 428.989C199.3 428.989 199.458 428.621 199.91 428.572C200.267 428.533 200.328 428.342 200.328 428.342C200.328 428.342 200.452 428.028 201.237 427.943C201.957 427.866 202.468 428.053 202.895 428.331C202.895 428.331 201.766 427.789 200.823 428.825L199.3 428.989Z" fill="#DB0000"/>
<path d="M203.926 430.716C203.779 429.634 202.814 428.562 201.017 428.823C202.618 427.14 206.036 430.143 203.706 432.166C203.706 432.166 204.063 431.519 203.926 430.717L203.926 430.716Z" fill="#DB0000"/>
<path d="M201.32 428.918C203.513 428.615 204.584 431.168 203.291 432.508L201.939 433.352C201.939 433.352 201.688 432.772 202.302 431.996C202.916 431.221 203.439 429.836 201.44 429.178C201.44 429.178 201.457 428.995 201.321 428.918L201.32 428.918Z" fill="#DB0000"/>
<path d="M201.28 429.519C201.28 429.519 201.377 429.405 201.404 429.318C203.114 429.824 202.981 431.009 202.109 432.086C201.576 432.768 201.834 433.413 201.834 433.413C201.834 433.413 201.152 433.948 200.943 434.371C200.943 434.371 199.786 433.584 201.091 431.929C202.372 430.305 201.28 429.519 201.28 429.519L201.28 429.519Z" fill="#DB0000"/>
</g>
<path d="M188.251 416.699C188.251 416.699 188.03 417.095 188.423 417.535C188.423 417.535 188.451 417.287 188.991 417.228L189.638 417.158C190.25 417.092 190.645 416.459 190.292 415.887C190.292 415.887 190.729 415.886 190.844 415.6C190.958 415.315 190.794 415.223 190.578 415.247L189.49 415.364C189.511 415.558 189.145 415.624 189.121 415.404L188.51 415.47C188.51 415.47 188.051 415.519 188.084 415.907C188.084 415.907 188.181 415.833 188.283 415.813L188.294 415.916C188.294 415.916 188.171 415.952 188.116 415.99C188.061 416.028 187.984 416.122 188.089 416.334C188.194 416.546 188.234 416.619 188.234 416.619C188.234 416.619 188.352 416.492 188.564 416.469L188.811 416.442C189.251 416.395 189.216 416.831 188.776 416.878C188.335 416.926 188.252 416.698 188.252 416.698L188.251 416.699Z" fill="#DB0000"/>
<path d="M190.525 416.006C190.525 416.006 190.674 415.999 190.772 415.893C190.772 415.893 191.83 416.548 190.547 418.232C189.264 419.917 190.49 420.786 190.49 420.786C190.49 420.786 190.257 421.066 190.458 421.54C190.458 421.54 189.819 421.265 189.296 420.737C188.541 419.975 187.996 418.742 189.714 417.526C189.714 417.526 190.855 416.789 190.525 416.006L190.525 416.006Z" fill="#DB0000"/>
<path d="M188.917 415.289C188.917 415.289 189.075 414.92 189.527 414.872C189.884 414.833 189.946 414.641 189.946 414.641C189.946 414.641 190.069 414.328 190.855 414.243C191.574 414.165 192.085 414.353 192.512 414.631C192.512 414.631 191.383 414.089 190.44 415.125L188.917 415.289Z" fill="#DB0000"/>
<path d="M193.551 417.005C193.404 415.924 192.439 414.851 190.642 415.112C192.243 413.429 195.661 416.432 193.331 418.455C193.331 418.455 193.688 417.808 193.551 417.006L193.551 417.005Z" fill="#DB0000"/>
<path d="M190.914 415.205C193.107 414.902 194.177 417.455 192.885 418.795L191.532 419.639C191.532 419.639 191.282 419.059 191.896 418.283C192.51 417.508 193.033 416.123 191.034 415.465C191.034 415.465 191.05 415.282 190.915 415.206L190.914 415.205Z" fill="#DB0000"/>
<path d="M190.889 415.814C190.889 415.814 190.986 415.7 191.013 415.612C192.723 416.119 192.591 417.304 191.718 418.381C191.185 419.063 191.443 419.708 191.443 419.708C191.443 419.708 190.761 420.243 190.552 420.666C190.552 420.666 189.396 419.879 190.701 418.224C191.981 416.6 190.889 415.814 190.889 415.814L190.889 415.814Z" fill="#DB0000"/>
<g clip-path="url(#clip6_1752_33472)">
<path d="M206.195 415.38C206.195 415.38 206.008 415.794 206.438 416.199C206.438 416.199 206.444 415.949 206.977 415.844L207.616 415.719C208.219 415.601 208.559 414.935 208.158 414.396C208.158 414.396 208.593 414.357 208.683 414.063C208.773 413.769 208.601 413.692 208.388 413.733L207.314 413.944C207.351 414.135 206.993 414.233 206.95 414.015L206.347 414.134C206.347 414.134 205.894 414.222 205.96 414.606C205.96 414.606 206.05 414.524 206.15 414.495L206.17 414.597C206.17 414.597 206.05 414.643 205.999 414.686C205.947 414.728 205.879 414.829 206.002 415.031C206.124 415.232 206.17 415.302 206.17 415.302C206.17 415.302 206.277 415.165 206.486 415.124L206.73 415.077C207.165 414.991 207.168 415.429 206.733 415.514C206.298 415.599 206.195 415.38 206.195 415.38L206.195 415.38Z" fill="#DB0000"/>
<path d="M208.386 414.491C208.386 414.491 208.534 414.472 208.622 414.358C208.622 414.358 209.732 414.919 208.599 416.708C207.465 418.497 208.762 419.257 208.762 419.257C208.762 419.257 208.553 419.555 208.794 420.011C208.794 420.011 208.134 419.792 207.568 419.311C206.749 418.616 206.101 417.434 207.708 416.076C207.708 416.076 208.781 415.243 208.385 414.491L208.386 414.491Z" fill="#DB0000"/>
<path d="M206.707 413.909C206.707 413.909 206.832 413.528 207.279 413.441C207.631 413.372 207.676 413.176 207.676 413.176C207.676 413.176 207.772 412.853 208.547 412.701C209.258 412.561 209.783 412.704 210.232 412.945C210.232 412.945 209.061 412.502 208.21 413.615L206.707 413.909Z" fill="#DB0000"/>
<path d="M211.47 415.231C211.23 414.166 210.177 413.18 208.408 413.594C209.859 411.78 213.522 414.478 211.375 416.694C211.375 416.694 211.675 416.019 211.47 415.231L211.47 415.231Z" fill="#DB0000"/>
<path d="M208.703 413.66C210.862 413.17 212.148 415.621 210.975 417.068L209.7 418.024C209.7 418.024 209.401 417.469 209.946 416.643C210.491 415.817 210.893 414.393 208.845 413.909C208.845 413.909 208.846 413.725 208.704 413.661L208.703 413.66Z" fill="#DB0000"/>
<path d="M208.725 414.269C208.725 414.269 208.812 414.148 208.831 414.058C210.579 414.416 210.549 415.608 209.772 416.756C209.3 417.481 209.612 418.102 209.612 418.102C209.612 418.102 208.978 418.693 208.806 419.132C208.806 419.132 207.587 418.447 208.744 416.687C209.88 414.959 208.725 414.27 208.725 414.27L208.725 414.269Z" fill="#DB0000"/>
</g>
<g clip-path="url(#clip7_1752_33472)">
<path d="M214.604 429.234C214.604 429.234 214.46 429.664 214.927 430.024C214.927 430.024 214.909 429.775 215.428 429.618L216.051 429.429C216.64 429.251 216.912 428.555 216.459 428.059C216.459 428.059 216.888 427.976 216.948 427.675C217.008 427.373 216.829 427.314 216.622 427.376L215.574 427.693C215.63 427.879 215.283 428.013 215.219 427.8L214.63 427.978C214.63 427.978 214.189 428.112 214.293 428.487C214.293 428.487 214.374 428.396 214.471 428.357L214.501 428.457C214.501 428.457 214.386 428.515 214.339 428.562C214.292 428.61 214.235 428.717 214.377 428.905C214.519 429.094 214.571 429.158 214.571 429.158C214.571 429.158 214.664 429.012 214.868 428.95L215.106 428.878C215.53 428.75 215.576 429.185 215.152 429.313C214.728 429.441 214.604 429.233 214.604 429.233L214.604 429.234Z" fill="#DB0000"/>
<path d="M216.714 428.134C216.714 428.134 216.859 428.099 216.935 427.977C216.935 427.977 218.096 428.425 217.147 430.318C216.198 432.211 217.564 432.838 217.564 432.838C217.564 432.838 217.386 433.156 217.671 433.585C217.671 433.585 216.993 433.433 216.381 433.011C215.497 432.401 214.734 431.29 216.198 429.778C216.198 429.778 217.182 428.843 216.713 428.134L216.714 428.134Z" fill="#DB0000"/>
<path d="M215.022 427.718C215.022 427.718 215.108 427.327 215.544 427.195C215.887 427.091 215.913 426.892 215.913 426.892C215.913 426.892 215.976 426.561 216.732 426.332C217.425 426.123 217.962 426.212 218.433 426.407C218.433 426.407 217.224 426.083 216.488 427.275L215.022 427.718Z" fill="#DB0000"/>
<path d="M219.889 428.554C219.544 427.518 218.397 426.643 216.679 427.232C217.942 425.282 221.855 427.601 219.941 430.019C219.941 430.019 220.171 429.318 219.889 428.555L219.889 428.554Z" fill="#DB0000"/>
<path d="M216.969 427.265C219.068 426.561 220.592 428.872 219.569 430.428L218.397 431.508C218.397 431.508 218.043 430.984 218.503 430.108C218.963 429.232 219.221 427.775 217.135 427.498C217.135 427.498 217.117 427.315 216.97 427.265L216.969 427.265Z" fill="#DB0000"/>
<path d="M217.05 427.875C217.05 427.875 217.124 427.746 217.134 427.655C218.909 427.836 218.998 429.025 218.339 430.245C217.942 431.014 218.314 431.6 218.314 431.6C218.314 431.6 217.743 432.252 217.616 432.706C217.616 432.706 216.334 432.146 217.31 430.279C218.268 428.446 217.05 427.876 217.05 427.876L217.05 427.875Z" fill="#DB0000"/>
</g>
</g>
</g>
<path d="M104 23.5L116.5 28.5" stroke="#568DF4" stroke-width="3" stroke-linecap="round"/>
<path d="M137 11.5V21" stroke="#568DF4" stroke-width="3" stroke-linecap="round"/>
<path d="M204.836 21.94C205.067 20.8339 205.087 19.69 204.896 18.5736C204.705 17.4571 204.305 16.3893 203.719 15.4315C203.133 14.4736 202.372 13.6443 201.48 12.9916C200.587 12.3389 199.58 11.8759 198.517 11.6296C198.516 11.6296 198.516 11.6296 198.516 11.6296L163.108 3.41804L163.108 3.41802C160.959 2.92008 158.714 3.33632 156.868 4.56982C155.022 5.80292 153.725 7.75167 153.258 9.98577L153.258 9.98596L133.879 102.848L133.879 102.848C133.413 105.082 133.814 107.422 134.997 109.356C136.18 111.291 138.05 112.66 140.198 113.159L175.606 121.37C176.671 121.617 177.77 121.642 178.841 121.443C179.912 121.245 180.934 120.829 181.848 120.218C182.762 119.607 183.551 118.813 184.17 117.884C184.789 116.954 185.226 115.906 185.458 114.799L204.836 21.94ZM204.836 21.94L204.465 21.8541M204.836 21.94L204.836 21.9399L204.465 21.8541M204.465 21.8541L185.086 114.714C184.865 115.773 184.446 116.777 183.854 117.666C183.262 118.556 182.507 119.314 181.634 119.897C180.761 120.481 179.787 120.878 178.766 121.067C177.745 121.256 176.698 121.232 175.684 120.997L140.276 112.786C138.232 112.311 136.449 111.007 135.319 109.16C134.189 107.312 133.804 105.073 134.25 102.934L198.438 12.0024C199.451 12.237 200.41 12.6778 201.261 13.2999C202.112 13.9219 202.838 14.7129 203.397 15.6278C203.957 16.5426 204.339 17.5633 204.522 18.6316C204.705 19.6999 204.686 20.7949 204.465 21.8541Z" fill="black" stroke="black" stroke-width="0.761821"/>
<path d="M190.726 13.0372L190.726 13.0373L197.592 14.6317C197.592 14.6318 197.592 14.6318 197.592 14.6319C198.355 14.8067 199.077 15.1372 199.717 15.6041C200.358 16.0711 200.903 16.6649 201.323 17.3508C201.742 18.0367 202.028 18.8012 202.164 19.6002C202.3 20.3988 202.284 21.2168 202.117 22.0072C202.117 22.0075 202.117 22.0078 202.117 22.0081M190.726 13.0372L176.248 116.956C176.958 117.12 177.691 117.137 178.406 117.005C179.121 116.873 179.803 116.595 180.415 116.186C181.026 115.778 181.554 115.247 181.969 114.624C182.384 114.001 182.677 113.299 182.832 112.557L201.746 21.9214L202.117 22.0081M190.726 13.0372L190.716 13.0353C190.158 12.9206 189.583 13.0429 189.118 13.3698C188.654 13.6957 188.335 14.1985 188.228 14.7667L187.962 16.0661L187.962 16.0661L187.961 16.0727C187.925 16.2609 187.855 16.4397 187.754 16.5988C187.654 16.7578 187.524 16.8936 187.374 16.9987C187.225 17.1039 187.057 17.1763 186.883 17.2129C186.709 17.2492 186.531 17.2495 186.359 17.2143L172.985 14.113C172.64 14.0228 172.338 13.7928 172.149 13.4679C171.959 13.1411 171.898 12.7453 171.985 12.368L171.985 12.3681L171.987 12.3591L172.253 11.058C172.381 10.495 172.291 9.89855 172 9.39825C171.707 8.89595 171.234 8.53117 170.682 8.38899L170.682 8.38883L170.671 8.3864L168.254 7.83828L168.254 7.83809M190.726 13.0372L168.254 7.83809M202.117 22.0081L183.203 112.643C183.038 113.432 182.726 114.179 182.285 114.842C181.844 115.505 181.281 116.071 180.628 116.507C179.976 116.943 179.246 117.24 178.481 117.381C177.716 117.523 176.931 117.505 176.17 117.329L140.827 109.133M202.117 22.0081L140.827 109.133M140.827 109.133C140.066 108.959 139.345 108.63 138.705 108.165C138.066 107.7 137.52 107.108 137.1 106.425C136.68 105.742 136.392 104.98 136.254 104.183C136.115 103.386 136.128 102.57 136.291 101.78L136.292 101.779L155.211 11.1329L155.211 11.1327C155.376 10.3436 155.688 9.59632 156.13 8.93353C156.571 8.27072 157.134 7.70496 157.787 7.26909C158.44 6.83319 159.169 6.53571 159.935 6.39449C160.7 6.25328 161.485 6.27118 162.246 6.44756L162.168 6.8204M140.827 109.133L136.663 101.865L155.582 11.2187C155.737 10.4765 156.031 9.77394 156.446 9.15123C156.861 8.52851 157.389 7.99779 158.001 7.58938C158.612 7.18096 159.295 6.90284 160.01 6.7709C160.725 6.63896 161.458 6.65577 162.168 6.8204M162.168 6.8204L162.246 6.44761M162.168 6.8204L168.177 8.2113L162.246 6.44761M162.246 6.44761L168.254 7.83809M162.246 6.44761L168.254 7.83809" fill="black" stroke="black" stroke-width="0.761821"/>
<path d="M204.063 21.0183C204.297 19.896 204.313 18.7343 204.109 17.5995C203.904 16.4647 203.484 15.3787 202.871 14.4036C202.258 13.4286 201.464 12.5835 200.535 11.9171C199.606 11.2507 198.56 10.7761 197.457 10.5206C197.457 10.5206 197.457 10.5206 197.457 10.5206L161.151 2.10431L161.151 2.10429C158.922 1.58799 156.596 1.99646 154.686 3.23734C152.777 4.47802 151.439 6.44912 150.964 8.71627L150.964 8.71652L131.578 101.57L131.578 101.57C131.106 103.836 131.534 106.215 132.772 108.184C134.01 110.153 135.956 111.551 138.184 112.068L174.49 120.484C175.594 120.74 176.734 120.771 177.843 120.576C178.953 120.382 180.011 119.965 180.956 119.35C181.902 118.735 182.717 117.935 183.356 116.994C183.994 116.054 184.443 114.992 184.678 113.869L204.063 21.0183ZM204.063 21.0183L203.576 20.9056M204.063 21.0183L204.063 21.0182L203.576 20.9056M203.576 20.9056L184.191 113.756C183.969 114.816 183.545 115.818 182.943 116.705C182.341 117.592 181.572 118.347 180.681 118.926C179.79 119.506 178.793 119.898 177.749 120.081C176.704 120.265 175.632 120.235 174.593 119.995L138.287 111.578C136.19 111.092 134.357 109.776 133.191 107.921C132.024 106.065 131.62 103.822 132.066 101.683L197.355 11.01C198.393 11.2504 199.377 11.6971 200.252 12.3245C201.127 12.9519 201.874 13.7478 202.452 14.6667C203.029 15.5856 203.426 16.6095 203.619 17.68C203.812 18.7504 203.797 19.8465 203.576 20.9056Z" fill="#0D4FCA" stroke="black"/>
<path d="M196.48 13.5288L189.439 11.8944C188.973 11.7985 188.491 11.8949 188.099 12.1626C187.707 12.4303 187.437 12.8474 187.348 13.3225L187.082 14.6248C187.038 14.8602 186.949 15.0839 186.821 15.2831C186.692 15.4823 186.526 15.6531 186.332 15.7857C186.137 15.9183 185.919 16.0102 185.689 16.056C185.459 16.1018 185.222 16.1007 184.991 16.0528L171.269 12.8719C170.808 12.7535 170.409 12.4534 170.159 12.0373C169.91 11.6213 169.831 11.1233 169.94 10.6526L170.207 9.34729C170.315 8.87655 170.236 8.37857 169.987 7.96253C169.737 7.54649 169.338 7.24637 168.877 7.12797L166.399 6.5657L160.237 5.14004C159.509 4.97132 158.758 4.95042 158.026 5.07855C157.295 5.20667 156.597 5.4813 155.972 5.88677C155.348 6.29223 154.81 6.82059 154.388 7.44167C153.966 8.06275 153.669 8.76438 153.513 9.50652L134.587 100.145C134.434 100.887 134.426 101.656 134.563 102.406C134.7 103.156 134.979 103.873 135.386 104.516C135.792 105.159 136.318 105.716 136.932 106.154C137.546 106.592 138.237 106.903 138.966 107.07L175.206 115.47C175.934 115.639 176.685 115.66 177.416 115.532C178.148 115.403 178.845 115.129 179.47 114.723C180.094 114.318 180.632 113.789 181.054 113.168C181.475 112.547 181.772 111.845 181.927 111.103L200.847 20.4763C201.005 19.7326 201.016 18.9626 200.882 18.2104C200.747 17.4583 200.469 16.7387 200.063 16.0932C199.657 15.4476 199.131 14.8887 198.517 14.4487C197.902 14.0086 197.209 13.696 196.48 13.5288Z" fill="#DDEAFF"/>
<path fill-rule="evenodd" clip-rule="evenodd" d="M154.278 18.4242L197.452 28.0628L187.054 75.7829C187.019 75.7707 186.983 75.7597 186.946 75.7499C186.113 75.527 185.263 76.0436 185.048 76.9037C185.003 77.0836 184.99 77.2642 185.004 77.4394L184.928 77.7865L185.081 77.8225C185.245 78.3188 185.64 78.7234 186.168 78.8647C186.236 78.883 186.305 78.8963 186.373 78.9049L179.468 110.595L136.536 100.67L143.368 69.0004C143.387 69.0063 143.406 69.0118 143.426 69.017C144.259 69.2399 145.109 68.7233 145.324 67.8632C145.538 67.0031 145.037 66.1251 144.204 65.9022C144.151 65.8879 144.097 65.8767 144.044 65.8684L154.278 18.4242ZM149.362 69.4429L146.991 68.8867L147.264 67.6407L149.635 68.197L149.362 69.4429ZM154.104 70.5554L151.733 69.9992L152.006 68.7532L154.377 69.3094L154.104 70.5554ZM158.846 71.6679L156.475 71.1116L156.748 69.8657L159.119 70.4219L158.846 71.6679ZM163.588 72.7803L161.217 72.2241L161.49 70.9781L163.861 71.5344L163.588 72.7803ZM168.33 73.8928L165.959 73.3366L166.232 72.0906L168.603 72.6469L168.33 73.8928ZM173.072 75.0053L170.701 74.4491L170.974 73.2031L173.345 73.7593L173.072 75.0053ZM177.815 76.1178L175.444 75.5615L175.717 74.3156L178.088 74.8718L177.815 76.1178ZM182.557 77.2302L180.186 76.674L180.459 75.428L182.83 75.9843L182.557 77.2302Z" fill="white"/>
<path d="M197.452 28.0628L197.577 28.09L197.604 27.966L197.48 27.9383L197.452 28.0628ZM154.278 18.4242L154.306 18.2998L154.18 18.2718L154.153 18.3974L154.278 18.4242ZM187.054 75.7829L187.012 75.9034L187.148 75.9506L187.178 75.8101L187.054 75.7829ZM186.946 75.7499L186.913 75.8731L186.913 75.8731L186.946 75.7499ZM185.048 76.9037L185.172 76.9347L185.172 76.9347L185.048 76.9037ZM185.004 77.4394L185.129 77.4667L185.133 77.4481L185.131 77.4292L185.004 77.4394ZM184.928 77.7865L184.803 77.7592L184.776 77.8819L184.899 77.9106L184.928 77.7865ZM185.081 77.8225L185.203 77.7826L185.18 77.7146L185.111 77.6983L185.081 77.8225ZM186.168 78.8647L186.201 78.7414L186.201 78.7414L186.168 78.8647ZM186.373 78.9049L186.498 78.932L186.528 78.7956L186.389 78.7783L186.373 78.9049ZM179.468 110.595L179.44 110.719L179.565 110.748L179.593 110.622L179.468 110.595ZM136.536 100.67L136.412 100.643L136.385 100.766L136.508 100.794L136.536 100.67ZM143.368 69.0004L143.406 68.8785L143.273 68.8374L143.243 68.9735L143.368 69.0004ZM143.426 69.017L143.393 69.1402L143.393 69.1402L143.426 69.017ZM144.204 65.9022L144.171 66.0255L144.171 66.0255L144.204 65.9022ZM144.044 65.8684L143.919 65.8415L143.89 65.9736L144.024 65.9944L144.044 65.8684ZM146.991 68.8867L146.866 68.8594L146.839 68.9822L146.961 69.0109L146.991 68.8867ZM149.362 69.4429L149.332 69.5671L149.458 69.5967L149.486 69.4702L149.362 69.4429ZM147.264 67.6407L147.293 67.5165L147.167 67.487L147.139 67.6134L147.264 67.6407ZM149.635 68.197L149.759 68.2243L149.786 68.1015L149.664 68.0728L149.635 68.197ZM151.733 69.9992L151.608 69.9719L151.581 70.0946L151.704 70.1234L151.733 69.9992ZM154.104 70.5554L154.075 70.6796L154.201 70.7092L154.228 70.5827L154.104 70.5554ZM152.006 68.7532L152.035 68.629L151.909 68.5995L151.881 68.7259L152.006 68.7532ZM154.377 69.3094L154.501 69.3367L154.528 69.214L154.406 69.1853L154.377 69.3094ZM156.475 71.1116L156.35 71.0843L156.323 71.2071L156.446 71.2358L156.475 71.1116ZM158.846 71.6679L158.817 71.7921L158.943 71.8216L158.971 71.6952L158.846 71.6679ZM156.748 69.8657L156.777 69.7415L156.651 69.7119L156.623 69.8384L156.748 69.8657ZM159.119 70.4219L159.244 70.4492L159.27 70.3264L159.148 70.2977L159.119 70.4219ZM161.217 72.2241L161.092 72.1968L161.066 72.3196L161.188 72.3483L161.217 72.2241ZM163.588 72.7803L163.559 72.9045L163.685 72.9341L163.713 72.8076L163.588 72.7803ZM161.49 70.9781L161.519 70.854L161.393 70.8244L161.365 70.9508L161.49 70.9781ZM163.861 71.5344L163.986 71.5617L164.013 71.4389L163.89 71.4102L163.861 71.5344ZM165.959 73.3366L165.835 73.3093L165.808 73.4321L165.93 73.4608L165.959 73.3366ZM168.33 73.8928L168.301 74.017L168.427 74.0466L168.455 73.9201L168.33 73.8928ZM166.232 72.0906L166.261 71.9664L166.135 71.9369L166.108 72.0633L166.232 72.0906ZM168.603 72.6469L168.728 72.6742L168.755 72.5514L168.632 72.5227L168.603 72.6469ZM170.701 74.4491L170.577 74.4217L170.55 74.5445L170.672 74.5732L170.701 74.4491ZM173.072 75.0053L173.043 75.1295L173.169 75.159L173.197 75.0326L173.072 75.0053ZM170.974 73.2031L171.004 73.0789L170.878 73.0493L170.85 73.1758L170.974 73.2031ZM173.345 73.7593L173.47 73.7866L173.497 73.6638L173.375 73.6351L173.345 73.7593ZM175.444 75.5615L175.319 75.5342L175.292 75.657L175.414 75.6857L175.444 75.5615ZM177.815 76.1178L177.786 76.2419L177.912 76.2715L177.939 76.1451L177.815 76.1178ZM175.717 74.3156L175.746 74.1914L175.62 74.1618L175.592 74.2883L175.717 74.3156ZM178.088 74.8718L178.212 74.8991L178.239 74.7763L178.117 74.7476L178.088 74.8718ZM180.186 76.674L180.061 76.6467L180.034 76.7695L180.157 76.7982L180.186 76.674ZM182.557 77.2302L182.528 77.3544L182.654 77.384L182.681 77.2575L182.557 77.2302ZM180.459 75.428L180.488 75.3038L180.362 75.2743L180.334 75.4007L180.459 75.428ZM182.83 75.9843L182.954 76.0116L182.981 75.8888L182.859 75.8601L182.83 75.9843ZM197.48 27.9383L154.306 18.2998L154.25 18.5487L197.424 28.1873L197.48 27.9383ZM187.178 75.8101L197.577 28.09L197.327 28.0357L186.929 75.7558L187.178 75.8101ZM186.913 75.8731C186.947 75.8821 186.98 75.8922 187.012 75.9034L187.096 75.6624C187.058 75.6492 187.019 75.6372 186.979 75.6267L186.913 75.8731ZM185.172 76.9347C185.371 76.1404 186.152 75.6695 186.913 75.8731L186.979 75.6267C186.074 75.3845 185.156 75.9469 184.925 76.8728L185.172 76.9347ZM185.131 77.4292C185.118 77.2675 185.131 77.1008 185.172 76.9347L184.925 76.8728C184.876 77.0663 184.862 77.2609 184.877 77.4497L185.131 77.4292ZM185.053 77.8138L185.129 77.4667L184.879 77.4121L184.803 77.7592L185.053 77.8138ZM185.111 77.6983L184.957 77.6623L184.899 77.9106L185.052 77.9466L185.111 77.6983ZM186.201 78.7414C185.717 78.6121 185.354 78.2412 185.203 77.7826L184.96 77.8624C185.136 78.3965 185.562 78.8347 186.135 78.9879L186.201 78.7414ZM186.389 78.7783C186.327 78.7705 186.264 78.7583 186.201 78.7414L186.135 78.9879C186.209 79.0077 186.283 79.0222 186.358 79.0315L186.389 78.7783ZM179.593 110.622L186.498 78.932L186.249 78.8777L179.344 110.568L179.593 110.622ZM136.508 100.794L179.44 110.719L179.497 110.471L136.565 100.546L136.508 100.794ZM143.243 68.9735L136.412 100.643L136.661 100.697L143.493 69.0273L143.243 68.9735ZM143.459 68.8938C143.441 68.889 143.423 68.8839 143.406 68.8785L143.33 69.1222C143.351 69.1286 143.372 69.1346 143.393 69.1402L143.459 68.8938ZM145.2 67.8323C145.001 68.6265 144.22 69.0974 143.459 68.8938L143.393 69.1402C144.298 69.3824 145.216 68.82 145.447 67.8941L145.2 67.8323ZM144.171 66.0255C144.934 66.2295 145.399 67.0365 145.2 67.8323L145.447 67.8941C145.678 66.9696 145.141 66.0207 144.237 65.779L144.171 66.0255ZM144.024 65.9944C144.073 66.002 144.122 66.0123 144.171 66.0255L144.237 65.779C144.179 65.7635 144.121 65.7514 144.063 65.7423L144.024 65.9944ZM154.153 18.3974L143.919 65.8415L144.168 65.8953L154.403 18.4511L154.153 18.3974ZM146.961 69.0109L149.332 69.5671L149.391 69.3188L147.02 68.7625L146.961 69.0109ZM147.139 67.6134L146.866 68.8594L147.115 68.914L147.388 67.668L147.139 67.6134ZM149.664 68.0728L147.293 67.5165L147.234 67.7649L149.605 68.3212L149.664 68.0728ZM149.486 69.4702L149.759 68.2243L149.51 68.1697L149.237 69.4156L149.486 69.4702ZM151.704 70.1234L154.075 70.6796L154.133 70.4312L151.762 69.875L151.704 70.1234ZM151.881 68.7259L151.608 69.9719L151.857 70.0265L152.13 68.7805L151.881 68.7259ZM154.406 69.1853L152.035 68.629L151.977 68.8774L154.348 69.4336L154.406 69.1853ZM154.228 70.5827L154.501 69.3367L154.252 69.2821L153.979 70.5281L154.228 70.5827ZM156.446 71.2358L158.817 71.7921L158.875 71.5437L156.504 70.9875L156.446 71.2358ZM156.623 69.8384L156.35 71.0843L156.599 71.1389L156.872 69.893L156.623 69.8384ZM159.148 70.2977L156.777 69.7415L156.719 69.9899L159.09 70.5461L159.148 70.2977ZM158.971 71.6952L159.244 70.4492L158.994 70.3946L158.721 71.6406L158.971 71.6952ZM161.188 72.3483L163.559 72.9045L163.617 72.6562L161.246 72.0999L161.188 72.3483ZM161.365 70.9508L161.092 72.1968L161.342 72.2514L161.615 71.0054L161.365 70.9508ZM163.89 71.4102L161.519 70.854L161.461 71.1023L163.832 71.6586L163.89 71.4102ZM163.713 72.8076L163.986 71.5617L163.737 71.5071L163.464 72.753L163.713 72.8076ZM165.93 73.4608L168.301 74.017L168.359 73.7686L165.988 73.2124L165.93 73.4608ZM166.108 72.0633L165.835 73.3093L166.084 73.3639L166.357 72.1179L166.108 72.0633ZM168.632 72.5227L166.261 71.9664L166.203 72.2148L168.574 72.771L168.632 72.5227ZM168.455 73.9201L168.728 72.6742L168.479 72.6196L168.206 73.8655L168.455 73.9201ZM170.672 74.5732L173.043 75.1295L173.102 74.8811L170.731 74.3249L170.672 74.5732ZM170.85 73.1758L170.577 74.4217L170.826 74.4764L171.099 73.2304L170.85 73.1758ZM173.375 73.6351L171.004 73.0789L170.945 73.3273L173.316 73.8835L173.375 73.6351ZM173.197 75.0326L173.47 73.7866L173.221 73.732L172.948 74.978L173.197 75.0326ZM175.414 75.6857L177.786 76.2419L177.844 75.9936L175.473 75.4373L175.414 75.6857ZM175.592 74.2883L175.319 75.5342L175.568 75.5888L175.841 74.3429L175.592 74.2883ZM178.117 74.7476L175.746 74.1914L175.687 74.4397L178.059 74.996L178.117 74.7476ZM177.939 76.1451L178.212 74.8991L177.963 74.8445L177.69 76.0905L177.939 76.1451ZM180.157 76.7982L182.528 77.3544L182.586 77.106L180.215 76.5498L180.157 76.7982ZM180.334 75.4007L180.061 76.6467L180.31 76.7013L180.583 75.4553L180.334 75.4007ZM182.859 75.8601L180.488 75.3038L180.43 75.5522L182.801 76.1084L182.859 75.8601ZM182.681 77.2575L182.954 76.0116L182.705 75.957L182.432 77.2029L182.681 77.2575Z" fill="white"/>
<path d="M176.224 66.334L171.188 65.2077L171.912 61.7283L176.949 62.8545L178.036 57.6353L181.393 58.3862L180.306 63.6054C180.114 64.5282 179.576 65.3341 178.811 65.8458C178.045 66.3575 177.115 66.5331 176.224 66.334Z" fill="#568DF4"/>
<path d="M155.107 57.9724L156.194 52.7532L159.552 53.5041L158.465 58.7232L163.502 59.8495L162.777 63.329L157.741 62.2027C156.85 62.0036 156.072 61.446 155.578 60.6527C155.085 59.8593 154.915 58.8952 155.107 57.9724Z" fill="#568DF4"/>
<path d="M161.366 44.8013L158.008 44.0505L159.095 38.8313C159.287 37.9085 159.825 37.1026 160.59 36.5909C161.356 36.0792 162.286 35.9036 163.177 36.1027L168.214 37.229L167.489 40.7084L162.452 39.5821L161.366 44.8013Z" fill="#568DF4"/>
<path d="M180.928 43.7115L175.892 42.5852L176.616 39.1058L181.653 40.232C182.543 40.4312 183.321 40.9887 183.815 41.7821C184.309 42.5754 184.478 43.5395 184.286 44.4623L183.199 49.6815L179.841 48.9306L180.928 43.7115Z" fill="#568DF4"/>
<path d="M170.998 53.3257L167.641 52.5749L168.365 49.0954L171.723 49.8463L170.998 53.3257Z" fill="#568DF4"/>
<path d="M173.67 57.5669L170.312 56.8161L171.037 53.3367L174.395 54.0875L173.67 57.5669Z" fill="#568DF4"/>
<path d="M166.928 56.0582L163.57 55.3073L164.295 51.8279L167.653 52.5787L166.928 56.0582Z" fill="#568DF4"/>
<path d="M175.123 50.6128L171.766 49.862L172.49 46.3826L175.848 47.1334L175.123 50.6128Z" fill="#568DF4"/>
<path d="M168.381 49.1041L165.023 48.3532L165.748 44.8738L169.106 45.6246L168.381 49.1041Z" fill="#568DF4"/>
<path d="M147.522 79.7091L147.945 78.0924L153.891 79.9467L153.608 81.0245L147.522 79.7091Z" fill="#BCBFE3"/>
<path d="M146.769 82.5369L147.192 80.9203L156.862 82.9888L156.785 84.3492L146.769 82.5369Z" fill="#BCBFE3"/>
<path d="M143.815 91.1927L143.664 92.9196L147.367 93.2465L147.468 92.0952L143.815 91.1927Z" fill="#BCBFE3"/>
<path d="M142.962 95.2895L143.468 93.7497L150.417 95.5679L150.199 96.8594L142.962 95.2895Z" fill="#BCBFE3"/>
<path d="M161.599 28.8305L162.041 27.1685L184.959 32.7224L185.229 34.2146L161.599 28.8305Z" fill="#BCBFE3"/>
<path d="M165.852 84.5738L166.258 82.9518L169.283 83.8496L169.012 84.9309L165.852 84.5738Z" fill="#BCBFE3"/>
<path d="M165.132 87.4105L165.538 85.7884L175.004 87.6538L174.936 89.0129L165.132 87.4105Z" fill="#BCBFE3"/>
<path d="M162.086 96.484L162.492 94.8619L171.691 97.5919L171.421 98.6732L162.086 96.484Z" fill="#BCBFE3"/>
<path d="M161.39 99.3225L161.796 97.7005L177.291 101.355L177.387 102.763L161.39 99.3225Z" fill="#BCBFE3"/>
<path fill-rule="evenodd" clip-rule="evenodd" d="M187.597 19.0508C187.927 19.1261 188.135 19.4553 188.059 19.7862L186.396 27.0934C186.32 27.4242 185.991 27.6314 185.66 27.5561L177.425 25.6814C177.454 25.327 177.218 24.9963 176.862 24.915C176.505 24.8338 176.15 25.0302 176.022 25.362L174.101 24.9246C173.77 24.8492 173.563 24.52 173.638 24.1892L175.301 16.8819C175.377 16.5511 175.706 16.344 176.037 16.4193L177.958 16.8568C177.946 16.889 177.936 16.9225 177.928 16.9572C177.839 17.3486 178.084 17.7382 178.475 17.8273C178.867 17.9164 179.256 17.6713 179.345 17.2799C179.353 17.2452 179.359 17.2106 179.361 17.1761L187.597 19.0508Z" fill="#868AC3"/>
<path d="M182.944 20.4663C182.516 20.3741 182.074 20.4174 181.676 20.5907C181.277 20.764 180.939 21.0595 180.704 21.4399C180.469 21.8204 180.347 22.2686 180.355 22.7279C180.363 23.1872 180.5 23.637 180.748 24.0204C180.996 24.4038 181.345 24.7035 181.75 24.8818C182.155 25.06 182.598 25.1087 183.023 25.0217C183.448 24.9347 183.836 24.716 184.138 24.3931C184.439 24.0702 184.642 23.6577 184.719 23.2077C184.821 22.6044 184.692 21.977 184.359 21.4631C184.027 20.9492 183.518 20.5907 182.944 20.4663ZM183.072 23.7965C183.06 23.8635 183.024 23.9224 182.971 23.9601C182.918 23.9978 182.852 24.0112 182.788 23.9975L182.596 23.956L182.571 24.0981C182.562 24.1578 182.533 24.2119 182.49 24.2512C182.447 24.2905 182.392 24.3127 182.335 24.314C182.299 24.3139 182.263 24.3054 182.23 24.289C182.196 24.2725 182.167 24.2486 182.143 24.219C182.12 24.1893 182.103 24.1546 182.093 24.1175C182.084 24.0803 182.082 24.0416 182.089 24.0041L182.115 23.8524L181.922 23.8109C181.887 23.8032 181.853 23.7872 181.823 23.7642C181.794 23.7412 181.77 23.7117 181.752 23.6778C181.735 23.6439 181.724 23.6065 181.722 23.5683C181.72 23.5301 181.726 23.4921 181.739 23.4569C181.761 23.4015 181.801 23.3563 181.852 23.3291C181.903 23.3018 181.961 23.2942 182.018 23.3073L182.634 23.4401L182.703 23.0356L182.078 22.9009C182.014 22.8872 181.958 22.8474 181.921 22.7902C181.884 22.7331 181.869 22.6634 181.881 22.5963L182.037 21.6863C182.048 21.6192 182.085 21.5604 182.138 21.5227C182.191 21.485 182.257 21.4716 182.32 21.4853L182.513 21.5268L182.537 21.3847C182.546 21.3248 182.575 21.2707 182.618 21.2313C182.661 21.192 182.716 21.1699 182.774 21.1688C182.81 21.1688 182.846 21.1774 182.879 21.1938C182.912 21.2102 182.941 21.2342 182.965 21.2638C182.989 21.2935 183.006 21.3282 183.015 21.3653C183.025 21.4025 183.026 21.4412 183.02 21.4787L182.994 21.6304L183.186 21.6718C183.222 21.6795 183.256 21.6954 183.285 21.7184C183.315 21.7414 183.339 21.771 183.357 21.8049C183.374 21.8388 183.385 21.8762 183.387 21.9144C183.389 21.9527 183.383 21.9907 183.37 22.0259C183.348 22.0813 183.307 22.1264 183.257 22.1536C183.206 22.1808 183.147 22.1885 183.091 22.1754L182.474 22.0427L182.405 22.4471L183.03 22.5819C183.094 22.5956 183.151 22.6354 183.188 22.6925C183.225 22.7497 183.239 22.8194 183.228 22.8865L183.072 23.7965Z" fill="#F6F7FA"/>
<path d="M176.913 24.5419L178.188 18.4039" stroke="#F6F7FA" stroke-width="0.62909" stroke-dasharray="1.4 0.7"/>
<path d="M232.269 58.4434L234.685 65.2507C230.42 66.721 228.199 71.3966 229.724 75.6944C231.248 79.9915 235.942 82.2832 240.207 80.8129L242.623 87.6208C242.847 88.2527 242.515 88.9421 241.881 89.1606L208.039 100.828L206.861 97.5093L204.649 98.272L205.826 101.59L189.751 107.133C189.117 107.351 188.421 107.016 188.197 106.384L185.781 99.5762L180.259 84.0145L177.843 77.2066C177.619 76.5747 177.951 75.8853 178.585 75.6668L194.661 70.1248L195.838 73.4426L198.05 72.6799L196.873 69.3621L230.715 57.6949C231.349 57.4764 232.045 57.8115 232.269 58.4434Z" fill="black"/>
<path d="M232.946 56.7296L235.338 63.4721C231.116 64.9277 228.919 69.5631 230.432 73.8258C231.944 78.0879 236.593 80.363 240.816 78.9074L243.208 85.6504C243.432 86.2823 243.1 86.9717 242.467 87.1902L208.973 98.7372L207.805 95.4458L205.614 96.201L206.782 99.4923L190.878 104.975C190.244 105.194 189.549 104.859 189.325 104.227L186.932 97.4838L181.455 82.0491L179.062 75.306C178.838 74.6742 179.17 73.9848 179.804 73.7663L195.708 68.2833L196.876 71.5741L199.066 70.819L197.898 67.5282L231.392 55.9812C232.026 55.7627 232.722 56.0978 232.946 56.7296Z" fill="#F6F7FA" stroke="black" stroke-width="1.00057"/>
<path d="M215.224 69.6878C213.715 70.1167 212.376 70.9997 211.378 72.2251C210.38 73.4506 209.767 74.9634 209.616 76.5723C209.466 78.1813 209.784 79.814 210.532 81.2641C211.279 82.7142 212.422 83.9165 213.816 84.719C215.209 85.5214 216.791 85.8881 218.362 85.7725C219.932 85.6569 221.42 85.0642 222.637 84.0695C223.855 83.0748 224.747 81.7226 225.201 80.1841C225.655 78.6455 225.651 76.9896 225.189 75.4258C224.567 73.3304 223.169 71.5497 221.301 70.474C219.433 69.3984 217.247 69.1156 215.224 69.6878ZM220.867 80.0825C220.936 80.3155 220.913 80.5644 220.803 80.7743C220.692 80.9843 220.504 81.1381 220.279 81.202L219.601 81.3948L219.747 81.8885C219.811 82.0947 219.805 82.3152 219.729 82.5132C219.654 82.7111 219.514 82.8744 219.333 82.9756C219.217 83.0367 219.089 83.0702 218.958 83.0737C218.827 83.0772 218.695 83.0507 218.574 82.9959C218.452 82.9412 218.343 82.8597 218.254 82.7573C218.165 82.6549 218.1 82.5341 218.061 82.4038L217.905 81.8767L217.227 82.0695C217.102 82.105 216.969 82.1111 216.839 82.0873C216.709 82.0636 216.585 82.0107 216.476 81.9323C216.367 81.854 216.275 81.7522 216.208 81.6344C216.141 81.5166 216.099 81.3856 216.087 81.2509C216.071 81.0366 216.127 80.8253 216.246 80.6527C216.365 80.48 216.54 80.3566 216.74 80.3033L218.912 79.6859L218.497 78.2803L216.293 78.9068C216.068 78.9707 215.825 78.9394 215.617 78.8199C215.41 78.7003 215.254 78.5022 215.186 78.2692L214.251 75.1065C214.183 74.8735 214.206 74.6247 214.316 74.4147C214.426 74.2048 214.615 74.0509 214.84 73.987L215.518 73.7942L215.372 73.3005C215.307 73.0943 215.313 72.8736 215.388 72.6755C215.464 72.4774 215.604 72.3142 215.786 72.2134C215.901 72.1523 216.03 72.1188 216.161 72.1153C216.292 72.1118 216.423 72.1384 216.545 72.1931C216.667 72.2478 216.776 72.3294 216.865 72.4318C216.953 72.5342 217.019 72.6549 217.058 72.7852L217.213 73.3123L217.892 73.1195C218.017 73.0838 218.15 73.0774 218.28 73.101C218.41 73.1245 218.534 73.1774 218.644 73.2557C218.753 73.334 218.845 73.4358 218.912 73.5538C218.98 73.6717 219.021 73.8028 219.034 73.9376C219.049 74.1522 218.992 74.3634 218.873 74.536C218.754 74.7086 218.579 74.8321 218.378 74.8858L216.206 75.5031L216.622 76.9088L218.826 76.2823C219.051 76.2183 219.294 76.2496 219.501 76.3692C219.709 76.4887 219.864 76.6868 219.933 76.9198L220.867 80.0825Z" fill="#BCBFE3"/>
<path d="M210.691 92.4721L202.789 71.4754" stroke="#BCBFE3" stroke-width="2.25129" stroke-dasharray="5 2.5"/>
<path d="M115.5 5L125.5 24" stroke="#568DF4" stroke-width="3" stroke-linecap="round"/>
</g>
<defs>
<clipPath id="clip0_1752_33472">
<rect width="412" height="440" fill="white"/>
</clipPath>
<clipPath id="clip1_1752_33472">
<rect width="525.471" height="793.26" fill="white" transform="translate(96.5312 -25.8076)"/>
</clipPath>
<clipPath id="clip2_1752_33472">
<rect width="186.947" height="156.631" fill="white" transform="translate(251.922 110.039)"/>
</clipPath>
<clipPath id="clip3_1752_33472">
<rect width="71.6867" height="107.53" fill="white" transform="translate(167.102 352.029)"/>
</clipPath>
<clipPath id="clip4_1752_33472">
<rect width="8.84615" height="8.84615" fill="white" transform="translate(181.93 427.622) rotate(3.71326)"/>
</clipPath>
<clipPath id="clip5_1752_33472">
<rect width="8.84615" height="8.84615" fill="white" transform="translate(196.68 427.51) rotate(-6.16071)"/>
</clipPath>
<clipPath id="clip6_1752_33472">
<rect width="8.84615" height="8.84615" fill="white" transform="translate(204.008 412.655) rotate(-11.09)"/>
</clipPath>
<clipPath id="clip7_1752_33472">
<rect width="8.84614" height="8.84614" fill="white" transform="translate(212.172 426.748) rotate(-16.8188)"/>
</clipPath>
</defs>
</svg>
