<svg width="562" height="413" viewBox="0 0 562 413" fill="none" xmlns="http://www.w3.org/2000/svg">
<path opacity="0.4" fill-rule="evenodd" clip-rule="evenodd" d="M396.499 12.9018C402.012 15.4086 407.425 18.3001 412.704 21.5838C417.982 24.8674 422.968 28.4449 427.654 32.282C428.663 33.1089 428.811 34.5977 427.985 35.6073C427.158 36.617 425.669 36.7651 424.659 35.9383C420.132 32.2303 415.312 28.772 410.207 25.5966C405.103 22.4212 399.87 19.6263 394.543 17.2038C393.355 16.6636 392.83 15.2626 393.37 14.0746C393.91 12.8867 395.311 12.3615 396.499 12.9018ZM363.359 4.94712C363.146 6.23476 361.93 7.10651 360.643 6.89423C348.855 4.95093 336.944 4.59585 325.219 5.75707C323.92 5.88569 322.763 4.93718 322.634 3.6385C322.506 2.33983 323.454 1.18278 324.753 1.05416C336.884 -0.147303 349.211 0.219845 361.411 2.23125C362.699 2.44354 363.571 3.65947 363.359 4.94712ZM449.437 58.4944C450.498 57.7348 451.974 57.9794 452.734 59.0406C459.93 69.0957 465.708 79.9909 469.992 91.4038C470.451 92.6256 469.832 93.9878 468.61 94.4464C467.388 94.905 466.026 94.2864 465.567 93.0646C461.427 82.0339 455.844 71.5058 448.891 61.7911C448.131 60.7299 448.376 59.2539 449.437 58.4944ZM292.078 10.7578C292.537 11.9796 291.918 13.3418 290.696 13.8004C279.666 17.941 269.138 23.5243 259.423 30.4773C258.362 31.2369 256.886 30.9923 256.126 29.9311C255.367 28.8699 255.611 27.3938 256.672 26.6343C266.727 19.4376 277.623 13.66 289.036 9.37595C290.257 8.91733 291.62 9.536 292.078 10.7578ZM475.729 125.003C477.028 124.874 478.185 125.823 478.314 127.121C479.515 139.252 479.148 151.579 477.137 163.78C476.924 165.067 475.708 165.939 474.421 165.727C473.133 165.515 472.261 164.299 472.474 163.011C474.417 151.224 474.772 139.312 473.611 127.587C473.482 126.288 474.431 125.131 475.729 125.003ZM233.239 51.3834C234.249 52.2103 234.397 53.6991 233.57 54.7087C229.862 59.2363 226.404 64.0561 223.228 69.1606C220.053 74.2652 217.258 79.4976 214.836 84.8248C214.295 86.0128 212.894 86.5379 211.706 85.9977C210.519 85.4575 209.993 84.0565 210.534 82.8686C213.04 77.3557 215.932 71.9429 219.216 66.6643C222.499 61.3858 226.077 56.3997 229.914 51.7143C230.741 50.7047 232.229 50.5565 233.239 51.3834ZM465.293 195.739C466.481 196.279 467.006 197.68 466.466 198.868C463.959 204.381 461.068 209.793 457.784 215.072C454.5 220.351 450.923 225.337 447.086 230.022C446.259 231.032 444.77 231.18 443.761 230.353C442.751 229.526 442.603 228.037 443.43 227.028C447.138 222.5 450.596 217.68 453.771 212.576C456.947 207.471 459.742 202.239 462.164 196.912C462.704 195.724 464.105 195.198 465.293 195.739ZM202.579 116.009C203.867 116.222 204.738 117.438 204.526 118.725C202.583 130.513 202.228 142.424 203.389 154.149C203.518 155.448 202.569 156.605 201.27 156.734C199.972 156.862 198.815 155.914 198.686 154.615C197.485 142.484 197.852 130.157 199.863 117.957C200.075 116.669 201.291 115.797 202.579 116.009ZM420.874 251.805C421.633 252.866 421.389 254.342 420.327 255.102C410.272 262.299 399.377 268.076 387.964 272.36C386.742 272.819 385.38 272.2 384.922 270.979C384.463 269.757 385.082 268.395 386.303 267.936C397.334 263.795 407.862 258.212 417.577 251.259C418.638 250.499 420.114 250.744 420.874 251.805ZM354.365 278.098C354.494 279.397 353.545 280.554 352.247 280.682C340.116 281.884 327.789 281.516 315.588 279.505C314.301 279.293 313.429 278.077 313.641 276.789C313.853 275.502 315.069 274.63 316.357 274.842C328.144 276.785 340.056 277.141 351.781 275.979C353.08 275.851 354.237 276.799 354.365 278.098ZM208.39 187.29C209.611 186.831 210.974 187.45 211.432 188.672C215.573 199.702 221.156 210.231 228.109 219.945C228.869 221.006 228.624 222.482 227.563 223.242C226.502 224.002 225.026 223.757 224.266 222.696C217.069 212.641 211.292 201.745 207.008 190.333C206.549 189.111 207.168 187.749 208.39 187.29ZM249.015 246.129C249.842 245.119 251.331 244.971 252.34 245.798C256.868 249.506 261.688 252.964 266.792 256.14C271.897 259.315 277.129 262.11 282.457 264.533C283.645 265.073 284.17 266.474 283.629 267.662C283.089 268.85 281.688 269.375 280.5 268.835C274.987 266.328 269.575 263.436 264.296 260.153C259.017 256.869 254.031 253.291 249.346 249.454C248.336 248.627 248.188 247.139 249.015 246.129Z" fill="#DFE1F2"/>
<path opacity="0.4" d="M72.2466 273.291C53.7444 292.891 54.6888 323.774 74.3597 342.249C94.0306 360.724 124.993 359.815 143.495 340.215C158.723 324.041 160.756 300.212 149.974 282.031L150.422 261.838L130.18 263.368C111.22 253.642 87.4752 257.117 72.2466 273.291Z" fill="#BCBFE3"/>
<path d="M285.856 296.417C287.152 296.579 288.334 295.661 288.497 294.366L291.056 274.011C291.14 273.343 291.627 272.793 292.282 272.62C341.47 259.611 380.357 217.815 387.086 164.302C395.931 93.9579 345.884 29.4855 275.515 20.6372C205.813 11.8728 141.927 60.8965 132.123 130.213C131.939 131.51 132.861 132.702 134.156 132.865L222.791 144.01C224.092 144.174 225.253 143.25 225.485 141.987C227.874 129.004 237.49 118.442 250.333 114.919C263.815 111.221 278.197 116.009 286.772 127.051C295.346 138.092 296.425 153.212 289.505 165.359C282.584 177.506 269.027 184.287 255.157 182.54L210.839 176.968C209.544 176.805 208.362 177.723 208.199 179.018L195.17 282.631C195.008 283.926 195.926 285.108 197.221 285.271L285.856 296.417Z" fill="black" stroke="black" stroke-width="0.727756"/>
<path d="M194.483 306.114C193.188 305.951 192.005 306.869 191.843 308.165L181.358 391.547C181.195 392.842 182.113 394.024 183.409 394.187L272.044 405.332C273.339 405.495 274.522 404.577 274.684 403.282L285.169 319.9C285.332 318.604 284.414 317.422 283.118 317.259L194.483 306.114Z" fill="black" stroke="black" stroke-width="0.727756"/>
<path d="M280.722 294.509C282.366 294.716 283.867 293.551 284.073 291.907L286.633 271.551C286.684 271.146 286.981 270.805 287.39 270.696C336.82 257.623 375.9 215.623 382.662 161.843C391.551 91.1501 341.251 26.3588 270.539 17.4675C200.499 8.66042 136.291 57.9254 126.438 127.585C126.205 129.237 127.377 130.751 129.022 130.958L217.657 142.103C219.316 142.311 220.767 141.135 221.056 139.563C223.401 126.819 232.84 116.452 245.446 112.994C258.68 109.364 272.798 114.064 281.215 124.902C289.632 135.741 290.69 150.582 283.897 162.505C277.104 174.429 263.797 181.085 250.182 179.371L205.864 173.798C204.22 173.591 202.72 174.756 202.513 176.4L189.485 280.013C189.278 281.657 190.443 283.157 192.087 283.364L280.722 294.509Z" fill="#ACC7FA" stroke="black" stroke-width="2"/>
<path d="M289.066 150.074C290.803 137.606 285.696 125.168 275.698 117.518C265.701 109.868 252.36 108.19 240.779 113.127C229.199 118.064 221.171 128.85 219.767 141.361" stroke="black" stroke-width="0.955285"/>
<path d="M189.234 306.057C187.59 305.85 186.09 307.016 185.883 308.659L175.698 389.658C175.492 391.302 176.657 392.802 178.301 393.009L266.936 404.154C268.58 404.361 270.08 403.196 270.287 401.552L280.472 320.553C280.679 318.909 279.514 317.409 277.87 317.202L189.234 306.057Z" fill="#ACC7FA" stroke="black" stroke-width="2"/>
<path d="M495.896 204.685C495.896 202.202 493.883 200.18 491.4 200.18H321.644C319.161 200.18 317.148 202.193 317.148 204.676V245.734C317.148 248.217 319.161 250.23 321.644 250.23H491.4C493.883 250.23 495.896 248.211 495.896 245.728C495.896 227.621 495.896 220.755 495.896 204.685Z" fill="black"/>
<path d="M310 202.527C310 200.044 312.013 198.031 314.496 198.031H487.827C490.31 198.031 492.322 200.044 492.322 202.527V243.585C492.322 246.068 490.31 248.08 487.827 248.08H314.496C312.013 248.08 310 246.068 310 243.585L310 202.527Z" fill="#F6F7FA"/>
<path d="M310 200.031C310 198.926 310.895 198.031 312 198.031H361.624C362.729 198.031 363.624 198.926 363.624 200.031V246.08C363.624 247.185 362.729 248.08 361.624 248.08H312C310.895 248.08 310 247.185 310 246.08L310 200.031Z" fill="#568DF4"/>
<path d="M363.617 198.033V248.083" stroke="black" stroke-width="1.32"/>
<path fill-rule="evenodd" clip-rule="evenodd" d="M310 202.529C310 200.046 312.013 198.033 314.496 198.033H487.827C490.31 198.033 492.322 200.046 492.322 202.529V243.587C492.322 246.07 490.31 248.083 487.827 248.083H314.496C312.013 248.083 310 246.07 310 243.587L310 202.529Z" stroke="black" stroke-width="1.32"/>
<rect x="374.344" y="219.477" width="107.249" height="7.1499" fill="#DFE1F2"/>
<ellipse cx="340.958" cy="219.114" rx="9.84856" ry="9.84854" stroke="white" stroke-width="4.00535"/>
<path d="M328.633 231.467L334.025 226.075" stroke="white" stroke-width="4.00535"/>
<path d="M326.82 230.931L329.15 233.261L325.709 236.701L323.38 234.372L326.82 230.931Z" fill="white" stroke="white" stroke-width="2.97436"/>
</svg>
