<svg width="440" height="408" viewBox="0 0 440 408" fill="none" xmlns="http://www.w3.org/2000/svg">
<path opacity="0.4" fill-rule="evenodd" clip-rule="evenodd" d="M339.499 12.9018C345.012 15.4086 350.425 18.3001 355.704 21.5838C360.982 24.8674 365.968 28.4449 370.654 32.282C371.663 33.1089 371.811 34.5977 370.985 35.6073C370.158 36.617 368.669 36.7651 367.659 35.9383C363.132 32.2303 358.312 28.772 353.207 25.5966C348.103 22.4212 342.87 19.6263 337.543 17.2038C336.355 16.6636 335.83 15.2626 336.37 14.0746C336.91 12.8867 338.311 12.3615 339.499 12.9018ZM306.359 4.94712C306.146 6.23476 304.93 7.10651 303.643 6.89423C291.855 4.95093 279.944 4.59585 268.219 5.75707C266.92 5.88569 265.763 4.93718 265.634 3.6385C265.506 2.33983 266.454 1.18278 267.753 1.05416C279.884 -0.147303 292.211 0.219845 304.411 2.23125C305.699 2.44354 306.571 3.65947 306.359 4.94712ZM392.437 58.4944C393.498 57.7348 394.974 57.9794 395.734 59.0406C402.93 69.0957 408.708 79.9909 412.992 91.4038C413.451 92.6256 412.832 93.9878 411.61 94.4464C410.388 94.905 409.026 94.2864 408.567 93.0646C404.427 82.0339 398.844 71.5058 391.891 61.7911C391.131 60.7299 391.376 59.2539 392.437 58.4944ZM235.078 10.7578C235.537 11.9796 234.918 13.3418 233.696 13.8004C222.666 17.941 212.138 23.5243 202.423 30.4773C201.362 31.2369 199.886 30.9923 199.126 29.9311C198.367 28.8699 198.611 27.3938 199.672 26.6343C209.727 19.4376 220.623 13.66 232.036 9.37595C233.257 8.91733 234.62 9.536 235.078 10.7578ZM418.729 125.003C420.028 124.874 421.185 125.823 421.314 127.121C422.515 139.252 422.148 151.579 420.137 163.78C419.924 165.067 418.708 165.939 417.421 165.727C416.133 165.515 415.261 164.299 415.474 163.011C417.417 151.224 417.772 139.312 416.611 127.587C416.482 126.288 417.431 125.131 418.729 125.003ZM176.239 51.3834C177.249 52.2103 177.397 53.6991 176.57 54.7087C172.862 59.2363 169.404 64.0561 166.228 69.1606C163.053 74.2652 160.258 79.4976 157.836 84.8248C157.295 86.0128 155.894 86.5379 154.706 85.9977C153.519 85.4575 152.993 84.0565 153.534 82.8686C156.04 77.3557 158.932 71.9429 162.216 66.6643C165.499 61.3858 169.077 56.3997 172.914 51.7143C173.741 50.7047 175.229 50.5565 176.239 51.3834ZM408.293 195.739C409.481 196.279 410.006 197.68 409.466 198.868C406.959 204.381 404.068 209.793 400.784 215.072C397.5 220.351 393.923 225.337 390.086 230.022C389.259 231.032 387.77 231.18 386.761 230.353C385.751 229.526 385.603 228.037 386.43 227.028C390.138 222.5 393.596 217.68 396.771 212.576C399.947 207.471 402.742 202.239 405.164 196.912C405.704 195.724 407.105 195.198 408.293 195.739ZM145.579 116.009C146.867 116.222 147.738 117.438 147.526 118.725C145.583 130.513 145.228 142.424 146.389 154.149C146.518 155.448 145.569 156.605 144.27 156.734C142.972 156.862 141.815 155.914 141.686 154.615C140.485 142.484 140.852 130.157 142.863 117.957C143.075 116.669 144.291 115.797 145.579 116.009ZM363.874 251.805C364.633 252.866 364.389 254.342 363.327 255.102C353.272 262.299 342.377 268.076 330.964 272.36C329.742 272.819 328.38 272.2 327.922 270.979C327.463 269.757 328.082 268.395 329.303 267.936C340.334 263.795 350.862 258.212 360.577 251.259C361.638 250.499 363.114 250.744 363.874 251.805ZM297.365 278.098C297.494 279.397 296.545 280.554 295.247 280.682C283.116 281.884 270.789 281.516 258.588 279.505C257.301 279.293 256.429 278.077 256.641 276.789C256.853 275.502 258.069 274.63 259.357 274.842C271.144 276.785 283.056 277.141 294.781 275.979C296.08 275.851 297.237 276.799 297.365 278.098ZM151.39 187.29C152.611 186.831 153.974 187.45 154.432 188.672C158.573 199.702 164.156 210.231 171.109 219.945C171.869 221.006 171.624 222.482 170.563 223.242C169.502 224.002 168.026 223.757 167.266 222.696C160.069 212.641 154.292 201.745 150.008 190.333C149.549 189.111 150.168 187.749 151.39 187.29ZM192.015 246.129C192.842 245.119 194.331 244.971 195.34 245.798C199.868 249.506 204.688 252.964 209.792 256.14C214.897 259.315 220.129 262.11 225.457 264.533C226.645 265.073 227.17 266.474 226.629 267.662C226.089 268.85 224.688 269.375 223.5 268.835C217.987 266.328 212.575 263.436 207.296 260.153C202.017 256.869 197.031 253.291 192.346 249.454C191.336 248.627 191.188 247.139 192.015 246.129Z" fill="#DFE1F2"/>
<path opacity="0.4" d="M15.2466 273.291C-3.25562 292.891 -2.31117 323.774 17.3597 342.249C37.0306 360.724 67.9925 359.815 86.4948 340.214C101.723 324.041 103.756 300.211 92.9737 282.03L93.4216 261.837L73.1796 263.368C54.2202 253.642 30.4752 257.117 15.2466 273.291Z" fill="#BCBFE3"/>
<path d="M228.856 296.417C230.152 296.58 231.334 295.662 231.497 294.367L234.056 274.011C234.14 273.344 234.627 272.794 235.282 272.621C284.47 259.612 323.357 217.816 330.086 164.302C338.931 93.9584 288.884 29.4859 218.515 20.6377C148.813 11.8733 84.927 60.897 75.1229 130.214C74.9395 131.51 75.8605 132.703 77.1563 132.865L165.791 144.011C167.092 144.174 168.253 143.25 168.485 141.987C170.874 129.004 180.49 118.442 193.333 114.92C206.815 111.222 221.197 116.01 229.772 127.051C238.346 138.093 239.425 153.212 232.505 165.359C225.584 177.506 212.027 184.287 198.157 182.541L153.839 176.968C152.544 176.805 151.362 177.723 151.199 179.019L138.17 282.632C138.008 283.927 138.926 285.109 140.221 285.272L228.856 296.417Z" fill="black" stroke="black" stroke-width="0.727756"/>
<path d="M137.483 306.114C136.188 305.951 135.005 306.869 134.843 308.165L124.358 391.547C124.195 392.842 125.113 394.024 126.409 394.187L215.044 405.332C216.339 405.495 217.522 404.577 217.684 403.282L228.169 319.9C228.332 318.604 227.414 317.422 226.118 317.259L137.483 306.114Z" fill="black" stroke="black" stroke-width="0.727756"/>
<path d="M223.722 294.509C225.366 294.716 226.867 293.551 227.073 291.907L229.633 271.551C229.684 271.146 229.981 270.805 230.39 270.696C279.82 257.623 318.9 215.623 325.662 161.843C334.551 91.1501 284.251 26.3588 213.539 17.4675C143.499 8.66042 79.2911 57.9254 69.4383 127.585C69.2048 129.237 70.3772 130.751 72.0222 130.958L160.657 142.103C162.316 142.311 163.767 141.135 164.056 139.563C166.401 126.819 175.84 116.452 188.446 112.994C201.68 109.364 215.798 114.064 224.215 124.902C232.632 135.741 233.69 150.582 226.897 162.505C220.104 174.429 206.797 181.085 193.182 179.371L148.864 173.798C147.22 173.591 145.72 174.756 145.513 176.4L132.485 280.013C132.278 281.657 133.443 283.157 135.087 283.364L223.722 294.509Z" fill="#ACC7FA" stroke="black" stroke-width="2"/>
<path d="M232.066 150.074C233.803 137.606 228.696 125.168 218.698 117.518C208.701 109.868 195.36 108.19 183.779 113.127C172.199 118.064 164.171 128.85 162.767 141.361" stroke="black" stroke-width="0.955285"/>
<path d="M132.234 306.057C130.59 305.85 129.09 307.016 128.883 308.659L118.698 389.658C118.492 391.302 119.657 392.802 121.301 393.009L209.936 404.154C211.58 404.361 213.08 403.196 213.287 401.552L223.472 320.553C223.679 318.909 222.514 317.409 220.87 317.202L132.234 306.057Z" fill="#ACC7FA" stroke="black" stroke-width="2"/>
<path d="M438.896 204.685C438.896 202.202 436.883 200.181 434.4 200.181H264.644C262.161 200.181 260.148 202.193 260.148 204.676V245.734C260.148 248.217 262.161 250.23 264.644 250.23H434.4C436.883 250.23 438.896 248.211 438.896 245.728C438.896 227.622 438.896 220.755 438.896 204.685Z" fill="black"/>
<path d="M253 202.527C253 200.044 255.013 198.031 257.496 198.031H430.827C433.31 198.031 435.322 200.044 435.322 202.527V243.585C435.322 246.068 433.31 248.08 430.827 248.08H257.496C255.013 248.08 253 246.068 253 243.585L253 202.527Z" fill="#F6F7FA"/>
<path d="M253 200.031C253 198.927 253.895 198.031 255 198.031H304.624C305.729 198.031 306.624 198.927 306.624 200.031V246.08C306.624 247.185 305.729 248.08 304.624 248.08H255C253.895 248.08 253 247.185 253 246.08L253 200.031Z" fill="#568DF4"/>
<path d="M306.617 198.033V248.083" stroke="black" stroke-width="1.32"/>
<path fill-rule="evenodd" clip-rule="evenodd" d="M253 202.529C253 200.046 255.013 198.033 257.496 198.033H430.827C433.31 198.033 435.322 200.046 435.322 202.529V243.587C435.322 246.07 433.31 248.083 430.827 248.083H257.496C255.013 248.083 253 246.07 253 243.587L253 202.529Z" stroke="black" stroke-width="1.32"/>
<rect x="317.344" y="219.477" width="107.249" height="7.1499" fill="#DFE1F2"/>
<ellipse cx="283.958" cy="219.114" rx="9.84856" ry="9.84854" stroke="white" stroke-width="4.00535"/>
<path d="M271.633 231.467L277.025 226.074" stroke="white" stroke-width="4.00535"/>
<path d="M269.82 230.932L272.15 233.261L268.709 236.702L266.38 234.372L269.82 230.932Z" fill="white" stroke="white" stroke-width="2.97436"/>
</svg>
