<svg width="1144" height="264" viewBox="0 0 1144 264" fill="none" xmlns="http://www.w3.org/2000/svg">
<g clip-path="url(#clip0_1979_23093)">
<mask id="mask0_1979_23093" style="mask-type:alpha" maskUnits="userSpaceOnUse" x="64" y="196" width="297" height="294">
<path opacity="0.8" d="M265.958 196.546L215.329 211.202C168.707 234.137 120.656 180.905 81.6961 232.895C41.8519 285.798 81.189 360.889 114.597 414.994C131.231 441.944 155.081 488.372 190.781 486.738C261.888 499.925 208.834 464.094 220.114 443.756C233.882 418.675 232.123 426.234 256.377 409.199C271.989 398.278 288.067 396.414 305.845 390.201C403.695 356.129 359.203 192.125 265.958 196.546Z" fill="#EFC2C2"/>
</mask>
<g mask="url(#mask0_1979_23093)">
<g opacity="0.7">
<path d="M359.593 264.475C359.851 263.087 361.081 262.238 362.463 262.495C363.846 262.751 364.69 263.984 364.432 265.372C364.175 266.76 362.945 267.608 361.562 267.352C360.18 267.096 359.336 265.862 359.593 264.475Z" fill="#CBD0FF"/>
<path d="M352.203 211.765C352.46 210.378 353.69 209.529 355.073 209.785C356.455 210.042 357.299 211.275 357.042 212.663C356.784 214.051 355.554 214.899 354.172 214.643C352.962 214.418 351.977 212.98 352.203 211.765Z" fill="#CBD0FF"/>
<path d="M349.14 228.238C349.397 226.85 350.627 226.002 352.01 226.258C353.393 226.514 354.237 227.748 353.979 229.135C353.722 230.523 352.492 231.372 351.109 231.115C349.899 230.891 348.883 229.626 349.14 228.238Z" fill="#CBD0FF"/>
<path d="M346.054 244.929C346.312 243.542 347.541 242.693 348.924 242.949C350.307 243.206 351.151 244.439 350.893 245.827C350.636 247.214 349.406 248.063 348.023 247.807C346.814 247.582 345.797 246.317 346.054 244.929Z" fill="#CBD0FF"/>
<path d="M343 261.39C343.257 260.002 344.487 259.154 345.869 259.41C347.252 259.667 348.096 260.9 347.839 262.288C347.581 263.675 346.351 264.524 344.969 264.268C343.759 264.043 342.742 262.778 343 261.39Z" fill="#CBD0FF"/>
<path d="M335.781 208.722C336.038 207.334 337.268 206.485 338.651 206.742C340.033 206.998 340.877 208.231 340.62 209.619C340.363 211.007 339.133 211.856 337.75 211.599C336.367 211.343 335.556 209.936 335.781 208.722Z" fill="#CBD0FF"/>
<path d="M332.718 225.215C332.976 223.827 334.206 222.978 335.588 223.235C336.971 223.491 337.815 224.724 337.557 226.112C337.3 227.5 336.07 228.349 334.687 228.092C333.305 227.836 332.461 226.603 332.718 225.215Z" fill="#CBD0FF"/>
<path d="M329.64 241.861C329.897 240.473 331.127 239.625 332.51 239.881C333.893 240.137 334.737 241.371 334.479 242.758C334.222 244.146 332.992 244.995 331.609 244.738C330.227 244.482 329.383 243.249 329.64 241.861Z" fill="#CBD0FF"/>
<path d="M326.585 258.329C326.843 256.941 328.073 256.093 329.455 256.349C330.838 256.606 331.682 257.839 331.425 259.227C331.167 260.614 329.937 261.463 328.555 261.207C327.172 260.95 326.328 259.717 326.585 258.329Z" fill="#CBD0FF"/>
<path d="M319.187 205.646C319.444 204.259 320.674 203.41 322.057 203.667C323.44 203.923 324.284 205.156 324.026 206.544C323.769 207.932 322.539 208.78 321.156 208.524C319.774 208.267 318.962 206.861 319.187 205.646Z" fill="#CBD0FF"/>
<path d="M316.124 222.139C316.382 220.751 317.612 219.903 318.994 220.159C320.377 220.416 321.221 221.649 320.964 223.037C320.706 224.424 319.476 225.273 318.094 225.016C316.711 224.76 315.867 223.527 316.124 222.139Z" fill="#CBD0FF"/>
<path d="M313.038 238.788C313.296 237.401 314.526 236.552 315.908 236.808C317.291 237.065 318.135 238.298 317.878 239.686C317.62 241.074 316.39 241.922 315.008 241.666C313.625 241.409 312.781 240.176 313.038 238.788Z" fill="#CBD0FF"/>
<path d="M309.992 255.255C310.249 253.867 311.479 253.019 312.862 253.275C314.244 253.532 315.088 254.765 314.831 256.153C314.574 257.54 313.343 258.389 311.961 258.133C310.578 257.876 309.734 256.643 309.992 255.255Z" fill="#CBD0FF"/>
<path d="M302.593 202.555C302.851 201.167 304.081 200.319 305.463 200.575C306.846 200.831 307.69 202.065 307.432 203.452C307.175 204.84 305.945 205.689 304.563 205.432C303.353 205.208 302.368 203.769 302.593 202.555Z" fill="#CBD0FF"/>
<path d="M299.539 219.055C299.796 217.668 301.026 216.819 302.409 217.075C303.791 217.332 304.635 218.565 304.378 219.953C304.12 221.341 302.89 222.189 301.508 221.933C300.298 221.708 299.281 220.443 299.539 219.055Z" fill="#CBD0FF"/>
<path d="M296.453 235.707C296.71 234.319 297.94 233.471 299.323 233.727C300.705 233.984 301.549 235.217 301.292 236.605C301.034 237.992 299.805 238.841 298.422 238.585C297.212 238.36 296.195 237.095 296.453 235.707Z" fill="#CBD0FF"/>
<path d="M293.39 252.215C293.647 250.827 294.878 249.978 296.26 250.235C297.643 250.491 298.487 251.724 298.229 253.112C297.972 254.5 296.742 255.348 295.359 255.092C294.15 254.868 293.133 253.602 293.39 252.215Z" fill="#CBD0FF"/>
</g>
<g opacity="0.7">
<path d="M274.57 265.952C274.827 264.564 276.057 263.715 277.44 263.972C278.822 264.228 279.666 265.461 279.409 266.849C279.152 268.237 277.922 269.085 276.539 268.829C275.156 268.572 274.312 267.339 274.57 265.952Z" fill="#CBD0FF"/>
<path d="M257.976 262.878C258.233 261.49 259.463 260.642 260.846 260.898C262.229 261.155 263.073 262.388 262.815 263.776C262.558 265.163 261.328 266.012 259.945 265.756C258.563 265.499 257.719 264.266 257.976 262.878Z" fill="#CBD0FF"/>
<path d="M241.398 259.804C241.655 258.416 242.885 257.567 244.268 257.824C245.65 258.08 246.494 259.313 246.237 260.701C245.98 262.089 244.75 262.937 243.367 262.681C242.157 262.457 241.141 261.191 241.398 259.804Z" fill="#CBD0FF"/>
<path d="M224.968 256.771C225.226 255.383 226.456 254.535 227.838 254.791C229.221 255.047 230.065 256.28 229.807 257.668C229.55 259.056 228.32 259.905 226.937 259.648C225.555 259.392 224.711 258.159 224.968 256.771Z" fill="#CBD0FF"/>
<path d="M208.382 253.702C208.64 252.314 209.87 251.465 211.252 251.722C212.635 251.978 213.479 253.211 213.221 254.599C212.964 255.987 211.734 256.835 210.351 256.579C208.969 256.323 208.125 255.09 208.382 253.702Z" fill="#CBD0FF"/>
<path d="M191.789 250.593C192.046 249.205 193.276 248.356 194.659 248.613C196.041 248.869 196.885 250.102 196.628 251.49C196.37 252.878 195.14 253.726 193.758 253.47C192.548 253.246 191.531 251.981 191.789 250.593Z" fill="#CBD0FF"/>
<path d="M286.859 199.709C287.116 198.322 288.346 197.473 289.729 197.729C291.111 197.986 291.955 199.219 291.698 200.607C291.441 201.995 290.211 202.843 288.828 202.587C287.445 202.33 286.634 200.924 286.859 199.709Z" fill="#CBD0FF"/>
<path d="M283.804 216.169C284.061 214.781 285.291 213.933 286.674 214.189C288.057 214.446 288.901 215.679 288.643 217.066C288.386 218.454 287.156 219.303 285.773 219.046C284.391 218.79 283.547 217.557 283.804 216.169Z" fill="#CBD0FF"/>
<path d="M280.718 232.819C280.976 231.431 282.206 230.583 283.588 230.839C284.971 231.095 285.815 232.329 285.557 233.716C285.3 235.104 284.07 235.953 282.687 235.696C281.305 235.44 280.461 234.207 280.718 232.819Z" fill="#CBD0FF"/>
<path d="M277.656 249.315C277.913 247.927 279.143 247.079 280.526 247.335C281.908 247.592 282.752 248.825 282.495 250.212C282.238 251.6 281.008 252.449 279.625 252.192C278.242 251.936 277.398 250.703 277.656 249.315Z" fill="#CBD0FF"/>
<path d="M270.273 196.622C270.53 195.234 271.76 194.386 273.143 194.642C274.526 194.898 275.369 196.132 275.112 197.519C274.855 198.907 273.625 199.756 272.242 199.499C270.86 199.243 270.048 197.836 270.273 196.622Z" fill="#CBD0FF"/>
<path d="M267.21 213.094C267.468 211.706 268.698 210.857 270.08 211.114C271.463 211.37 272.307 212.603 272.05 213.991C271.792 215.379 270.562 216.227 269.18 215.971C267.797 215.715 266.953 214.482 267.21 213.094Z" fill="#CBD0FF"/>
<path d="M264.124 229.746C264.382 228.358 265.612 227.51 266.994 227.766C268.377 228.022 269.221 229.255 268.964 230.643C268.706 232.031 267.476 232.88 266.094 232.623C264.711 232.367 263.867 231.134 264.124 229.746Z" fill="#CBD0FF"/>
<path d="M261.07 246.246C261.327 244.858 262.557 244.01 263.94 244.266C265.322 244.523 266.166 245.756 265.909 247.144C265.652 248.531 264.422 249.38 263.039 249.124C261.656 248.867 260.812 247.634 261.07 246.246Z" fill="#CBD0FF"/>
<path d="M253.679 193.53C253.937 192.142 255.166 191.293 256.549 191.55C257.932 191.806 258.776 193.039 258.518 194.427C258.261 195.815 257.031 196.664 255.648 196.407C254.439 196.183 253.454 194.744 253.679 193.53Z" fill="#CBD0FF"/>
<path d="M250.625 210.012C250.882 208.625 252.112 207.776 253.494 208.032C254.877 208.289 255.721 209.522 255.464 210.91C255.206 212.298 253.976 213.146 252.594 212.89C251.384 212.665 250.367 211.4 250.625 210.012Z" fill="#CBD0FF"/>
<path d="M247.531 226.669C247.788 225.281 249.018 224.433 250.401 224.689C251.783 224.946 252.627 226.179 252.37 227.566C252.113 228.954 250.883 229.803 249.5 229.546C248.29 229.322 247.273 228.057 247.531 226.669Z" fill="#CBD0FF"/>
<path d="M244.484 243.152C244.741 241.764 245.971 240.915 247.354 241.172C248.736 241.428 249.58 242.661 249.323 244.049C249.066 245.437 247.836 246.286 246.453 246.029C245.243 245.805 244.227 244.54 244.484 243.152Z" fill="#CBD0FF"/>
<path d="M234.203 206.99C234.46 205.602 235.69 204.754 237.073 205.01C238.455 205.267 239.299 206.5 239.042 207.887C238.784 209.275 237.554 210.124 236.172 209.867C234.789 209.611 233.945 208.378 234.203 206.99Z" fill="#CBD0FF"/>
<path d="M231.117 223.625C231.374 222.237 232.604 221.389 233.987 221.645C235.369 221.902 236.213 223.135 235.956 224.523C235.699 225.91 234.468 226.759 233.086 226.503C231.703 226.246 230.859 225.013 231.117 223.625Z" fill="#CBD0FF"/>
<path d="M228.062 240.1C228.319 238.713 229.549 237.864 230.932 238.12C232.315 238.377 233.159 239.61 232.901 240.998C232.644 242.385 231.414 243.234 230.031 242.978C228.649 242.721 227.805 241.488 228.062 240.1Z" fill="#CBD0FF"/>
<path d="M217.617 203.902C217.874 202.515 219.104 201.666 220.487 201.922C221.869 202.179 222.713 203.412 222.456 204.8C222.199 206.188 220.968 207.036 219.586 206.78C218.203 206.523 217.359 205.29 217.617 203.902Z" fill="#CBD0FF"/>
<path d="M214.515 220.552C214.772 219.165 216.002 218.316 217.385 218.573C218.768 218.829 219.612 220.062 219.354 221.45C219.097 222.838 217.867 223.686 216.484 223.43C215.102 223.173 214.258 221.94 214.515 220.552Z" fill="#CBD0FF"/>
<path d="M211.468 237.035C211.726 235.648 212.956 234.799 214.338 235.056C215.721 235.312 216.565 236.545 216.307 237.933C216.05 239.321 214.82 240.169 213.437 239.913C212.055 239.656 211.211 238.423 211.468 237.035Z" fill="#CBD0FF"/>
<path d="M201.023 200.827C201.28 199.439 202.51 198.591 203.893 198.847C205.276 199.103 206.119 200.337 205.862 201.724C205.605 203.112 204.375 203.961 202.992 203.704C201.782 203.48 200.766 202.215 201.023 200.827Z" fill="#CBD0FF"/>
<path d="M197.921 217.477C198.179 216.089 199.409 215.24 200.791 215.497C202.174 215.753 203.018 216.986 202.761 218.374C202.503 219.762 201.273 220.611 199.891 220.354C198.681 220.13 197.664 218.865 197.921 217.477Z" fill="#CBD0FF"/>
<path d="M194.875 233.951C195.132 232.563 196.362 231.714 197.745 231.971C199.127 232.227 199.971 233.46 199.714 234.848C199.456 236.236 198.226 237.084 196.844 236.828C195.634 236.604 194.617 235.338 194.875 233.951Z" fill="#CBD0FF"/>
</g>
<g opacity="0.7">
<path d="M174.328 247.344C174.585 245.956 175.815 245.108 177.198 245.364C178.58 245.62 179.424 246.854 179.167 248.241C178.909 249.629 177.679 250.478 176.297 250.221C174.914 249.965 174.07 248.732 174.328 247.344Z" fill="#CBD0FF"/>
<path d="M171.234 263.982C171.491 262.595 172.721 261.746 174.104 262.002C175.486 262.259 176.33 263.492 176.073 264.88C175.816 266.268 174.586 267.116 173.203 266.86C171.82 266.603 171.009 265.197 171.234 263.982Z" fill="#CBD0FF"/>
<path d="M157.734 244.253C157.991 242.865 159.221 242.017 160.604 242.273C161.986 242.53 162.83 243.763 162.573 245.151C162.316 246.538 161.086 247.387 159.703 247.13C158.32 246.874 157.476 245.641 157.734 244.253Z" fill="#CBD0FF"/>
<path d="M154.648 260.92C154.905 259.533 156.135 258.684 157.518 258.94C158.901 259.197 159.744 260.43 159.487 261.818C159.23 263.205 158 264.054 156.617 263.798C155.235 263.541 154.423 262.135 154.648 260.92Z" fill="#CBD0FF"/>
<path d="M141.14 241.176C141.397 239.789 142.627 238.94 144.01 239.196C145.393 239.453 146.237 240.686 145.979 242.074C145.722 243.462 144.492 244.31 143.109 244.054C141.899 243.829 140.883 242.564 141.14 241.176Z" fill="#CBD0FF"/>
<path d="M138.046 257.855C138.304 256.467 139.534 255.618 140.916 255.875C142.299 256.131 143.143 257.364 142.886 258.752C142.628 260.14 141.398 260.988 140.016 260.732C138.806 260.508 137.821 259.069 138.046 257.855Z" fill="#CBD0FF"/>
<path d="M124.718 238.15C124.976 236.762 126.206 235.914 127.588 236.17C128.971 236.427 129.815 237.66 129.557 239.048C129.3 240.435 128.07 241.284 126.687 241.028C125.305 240.771 124.461 239.538 124.718 238.15Z" fill="#CBD0FF"/>
<path d="M121.64 254.782C121.898 253.394 123.127 252.545 124.51 252.802C125.893 253.058 126.737 254.291 126.479 255.679C126.222 257.067 124.992 257.915 123.609 257.659C122.227 257.402 121.415 255.996 121.64 254.782Z" fill="#CBD0FF"/>
<path d="M108.124 235.076C108.382 233.689 109.612 232.84 110.994 233.096C112.377 233.353 113.221 234.586 112.964 235.974C112.706 237.362 111.476 238.21 110.094 237.954C108.711 237.697 107.867 236.464 108.124 235.076Z" fill="#CBD0FF"/>
<path d="M105.038 251.708C105.296 250.321 106.526 249.472 107.908 249.728C109.291 249.985 110.135 251.218 109.878 252.606C109.62 253.994 108.39 254.842 107.008 254.586C105.625 254.329 104.813 252.923 105.038 251.708Z" fill="#CBD0FF"/>
<path d="M91.5385 231.971C91.7959 230.584 93.0259 229.735 94.4086 229.991C95.7912 230.248 96.6351 231.481 96.3777 232.869C96.1204 234.257 94.8905 235.105 93.5078 234.849C92.298 234.624 91.2811 233.359 91.5385 231.971Z" fill="#CBD0FF"/>
<path d="M88.4526 248.632C88.7099 247.244 89.94 246.395 91.3226 246.652C92.7053 246.908 93.5492 248.141 93.2918 249.529C93.0345 250.917 91.8045 251.765 90.4219 251.509C89.212 251.285 88.2274 249.846 88.4526 248.632Z" fill="#CBD0FF"/>
<path d="M85.3979 265.124C85.6552 263.736 86.8853 262.887 88.2679 263.144C89.6506 263.4 90.4945 264.633 90.2371 266.021C89.9798 267.409 88.7498 268.257 87.3672 268.001C86.1574 267.777 85.1405 266.511 85.3979 265.124Z" fill="#CBD0FF"/>
<path d="M183.554 197.548C183.811 196.16 185.041 195.312 186.424 195.568C187.807 195.825 188.651 197.058 188.393 198.446C188.136 199.833 186.906 200.682 185.523 200.426C184.141 200.169 183.297 198.936 183.554 197.548Z" fill="#CBD0FF"/>
<path d="M180.468 214.191C180.726 212.804 181.956 211.955 183.338 212.212C184.721 212.468 185.565 213.701 185.307 215.089C185.05 216.477 183.82 217.325 182.437 217.069C181.055 216.812 180.211 215.579 180.468 214.191Z" fill="#CBD0FF"/>
<path d="M177.414 230.683C177.671 229.295 178.901 228.447 180.283 228.703C181.666 228.959 182.51 230.193 182.253 231.58C181.995 232.968 180.765 233.817 179.383 233.56C178 233.304 177.156 232.071 177.414 230.683Z" fill="#CBD0FF"/>
<path d="M166.968 194.468C167.226 193.08 168.456 192.232 169.838 192.488C171.221 192.745 172.065 193.978 171.807 195.365C171.55 196.753 170.32 197.602 168.937 197.345C167.555 197.089 166.711 195.856 166.968 194.468Z" fill="#CBD0FF"/>
<path d="M163.874 211.107C164.132 209.719 165.362 208.871 166.744 209.127C168.127 209.383 168.971 210.617 168.714 212.004C168.456 213.392 167.226 214.241 165.844 213.984C164.461 213.728 163.617 212.495 163.874 211.107Z" fill="#CBD0FF"/>
<path d="M160.82 227.61C161.077 226.222 162.307 225.374 163.69 225.63C165.072 225.886 165.916 227.119 165.659 228.507C165.402 229.895 164.172 230.744 162.789 230.487C161.406 230.231 160.562 228.998 160.82 227.61Z" fill="#CBD0FF"/>
<path d="M147.289 208.053C147.546 206.665 148.776 205.816 150.158 206.073C151.541 206.329 152.385 207.562 152.128 208.95C151.87 210.338 150.64 211.186 149.258 210.93C148.048 210.706 147.031 209.44 147.289 208.053Z" fill="#CBD0FF"/>
<path d="M144.226 224.533C144.483 223.146 145.713 222.297 147.096 222.553C148.479 222.81 149.323 224.043 149.065 225.431C148.808 226.819 147.578 227.667 146.195 227.411C144.985 227.186 143.969 225.921 144.226 224.533Z" fill="#CBD0FF"/>
<path d="M130.867 205.017C131.124 203.629 132.354 202.781 133.737 203.037C135.119 203.294 135.963 204.527 135.706 205.915C135.449 207.302 134.218 208.151 132.836 207.894C131.453 207.638 130.609 206.405 130.867 205.017Z" fill="#CBD0FF"/>
<path d="M127.804 221.49C128.062 220.102 129.291 219.254 130.674 219.51C132.057 219.767 132.901 221 132.643 222.388C132.386 223.775 131.156 224.624 129.773 224.367C128.391 224.111 127.547 222.878 127.804 221.49Z" fill="#CBD0FF"/>
<path d="M114.273 201.925C114.53 200.537 115.76 199.689 117.143 199.945C118.525 200.201 119.369 201.434 119.112 202.822C118.855 204.21 117.625 205.059 116.242 204.802C114.859 204.546 114.015 203.313 114.273 201.925Z" fill="#CBD0FF"/>
<path d="M111.218 218.403C111.475 217.015 112.706 216.167 114.088 216.423C115.471 216.68 116.315 217.913 116.057 219.3C115.8 220.688 114.57 221.537 113.187 221.28C111.805 221.024 110.961 219.791 111.218 218.403Z" fill="#CBD0FF"/>
<path d="M97.6791 198.85C97.9365 197.463 99.1665 196.614 100.549 196.87C101.932 197.127 102.776 198.36 102.518 199.748C102.261 201.136 101.031 201.984 99.6484 201.728C98.4386 201.503 97.4218 200.238 97.6791 198.85Z" fill="#CBD0FF"/>
<path d="M94.6323 215.333C94.8896 213.945 96.1197 213.097 97.5023 213.353C98.885 213.61 99.7289 214.843 99.4715 216.231C99.2141 217.618 97.9842 218.467 96.6016 218.211C95.3917 217.986 94.3749 216.721 94.6323 215.333Z" fill="#CBD0FF"/>
</g>
<g opacity="0.7">
<path d="M75.8276 229.087C76.0849 227.699 77.3149 226.851 78.6975 227.107C80.0802 227.364 80.9242 228.597 80.6668 229.984C80.4095 231.372 79.1794 232.221 77.7968 231.964C76.4142 231.708 75.5702 230.475 75.8276 229.087Z" fill="#CBD0FF"/>
<path d="M72.7416 245.73C72.999 244.342 74.229 243.493 75.6116 243.75C76.9942 244.006 77.8382 245.239 77.5809 246.627C77.3235 248.015 76.0935 248.863 74.7109 248.607C73.3282 248.351 72.5165 246.944 72.7416 245.73Z" fill="#CBD0FF"/>
<path d="M69.6791 262.22C69.9365 260.832 71.1665 259.984 72.5491 260.24C73.9317 260.496 74.7757 261.73 74.5184 263.117C74.261 264.505 73.031 265.354 71.6484 265.097C70.2657 264.841 69.4218 263.608 69.6791 262.22Z" fill="#CBD0FF"/>
<path d="M81.9682 195.953C82.2256 194.565 83.4555 193.716 84.8382 193.973C86.2208 194.229 87.0648 195.462 86.8074 196.85C86.5501 198.238 85.32 199.087 83.9374 198.83C82.5548 198.574 81.7109 197.341 81.9682 195.953Z" fill="#CBD0FF"/>
<path d="M78.9135 212.435C79.1709 211.048 80.4009 210.199 81.7835 210.455C83.1661 210.712 84.0101 211.945 83.7528 213.333C83.4954 214.72 82.2654 215.569 80.8827 215.313C79.5001 215.056 78.6562 213.823 78.9135 212.435Z" fill="#CBD0FF"/>
<path d="M62.3276 209.351C62.585 207.963 63.815 207.115 65.1976 207.371C66.5802 207.628 67.4242 208.861 67.1668 210.249C66.9095 211.636 65.6795 212.485 64.2969 212.229C62.9142 211.972 62.0703 210.739 62.3276 209.351Z" fill="#CBD0FF"/>
</g>
</g>
<mask id="mask1_1979_23093" style="mask-type:alpha" maskUnits="userSpaceOnUse" x="784" y="216" width="297" height="294">
<path opacity="0.8" d="M985.958 216.546L935.329 231.202C888.707 254.137 840.656 200.905 801.696 252.895C761.852 305.798 801.189 380.889 834.597 434.994C851.231 461.944 875.081 508.372 910.781 506.738C981.888 519.925 928.834 484.094 940.114 463.756C953.882 438.675 952.123 446.234 976.377 429.199C991.989 418.278 1008.07 416.414 1025.84 410.201C1123.69 376.129 1079.2 212.125 985.958 216.546Z" fill="#EFC2C2"/>
</mask>
<g mask="url(#mask1_1979_23093)">
<g opacity="0.7">
<path d="M1072.2 231.765C1072.46 230.378 1073.69 229.529 1075.07 229.785C1076.46 230.042 1077.3 231.275 1077.04 232.663C1076.78 234.051 1075.55 234.899 1074.17 234.643C1072.96 234.418 1071.98 232.98 1072.2 231.765Z" fill="#CBD0FF"/>
<path d="M1069.14 248.238C1069.4 246.85 1070.63 246.002 1072.01 246.258C1073.39 246.514 1074.24 247.748 1073.98 249.135C1073.72 250.523 1072.49 251.372 1071.11 251.115C1069.9 250.891 1068.88 249.626 1069.14 248.238Z" fill="#CBD0FF"/>
<path d="M1066.05 264.929C1066.31 263.542 1067.54 262.693 1068.92 262.949C1070.31 263.206 1071.15 264.439 1070.89 265.827C1070.64 267.214 1069.41 268.063 1068.02 267.807C1066.81 267.582 1065.8 266.317 1066.05 264.929Z" fill="#CBD0FF"/>
<path d="M1055.78 228.722C1056.04 227.334 1057.27 226.485 1058.65 226.742C1060.03 226.998 1060.88 228.231 1060.62 229.619C1060.36 231.007 1059.13 231.856 1057.75 231.599C1056.37 231.343 1055.56 229.936 1055.78 228.722Z" fill="#CBD0FF"/>
<path d="M1052.72 245.215C1052.98 243.827 1054.21 242.978 1055.59 243.235C1056.97 243.491 1057.81 244.724 1057.56 246.112C1057.3 247.5 1056.07 248.349 1054.69 248.092C1053.3 247.836 1052.46 246.603 1052.72 245.215Z" fill="#CBD0FF"/>
<path d="M1049.64 261.861C1049.9 260.473 1051.13 259.625 1052.51 259.881C1053.89 260.137 1054.74 261.371 1054.48 262.758C1054.22 264.146 1052.99 264.995 1051.61 264.738C1050.23 264.482 1049.38 263.249 1049.64 261.861Z" fill="#CBD0FF"/>
<path d="M1039.19 225.646C1039.44 224.259 1040.67 223.41 1042.06 223.667C1043.44 223.923 1044.28 225.156 1044.03 226.544C1043.77 227.932 1042.54 228.78 1041.16 228.524C1039.77 228.267 1038.96 226.861 1039.19 225.646Z" fill="#CBD0FF"/>
<path d="M1036.12 242.139C1036.38 240.751 1037.61 239.903 1038.99 240.159C1040.38 240.416 1041.22 241.649 1040.96 243.037C1040.71 244.424 1039.48 245.273 1038.09 245.016C1036.71 244.76 1035.87 243.527 1036.12 242.139Z" fill="#CBD0FF"/>
<path d="M1033.04 258.788C1033.3 257.401 1034.53 256.552 1035.91 256.808C1037.29 257.065 1038.14 258.298 1037.88 259.686C1037.62 261.074 1036.39 261.922 1035.01 261.666C1033.63 261.409 1032.78 260.176 1033.04 258.788Z" fill="#CBD0FF"/>
<path d="M1022.59 222.555C1022.85 221.167 1024.08 220.319 1025.46 220.575C1026.85 220.831 1027.69 222.065 1027.43 223.452C1027.18 224.84 1025.95 225.689 1024.56 225.432C1023.35 225.208 1022.37 223.769 1022.59 222.555Z" fill="#CBD0FF"/>
<path d="M1019.54 239.055C1019.8 237.668 1021.03 236.819 1022.41 237.075C1023.79 237.332 1024.64 238.565 1024.38 239.953C1024.12 241.341 1022.89 242.189 1021.51 241.933C1020.3 241.708 1019.28 240.443 1019.54 239.055Z" fill="#CBD0FF"/>
<path d="M1016.45 255.707C1016.71 254.319 1017.94 253.471 1019.32 253.727C1020.71 253.984 1021.55 255.217 1021.29 256.605C1021.03 257.992 1019.8 258.841 1018.42 258.585C1017.21 258.36 1016.2 257.095 1016.45 255.707Z" fill="#CBD0FF"/>
</g>
<g opacity="0.7">
<path d="M1006.86 219.709C1007.12 218.322 1008.35 217.473 1009.73 217.729C1011.11 217.986 1011.96 219.219 1011.7 220.607C1011.44 221.995 1010.21 222.843 1008.83 222.587C1007.45 222.33 1006.63 220.924 1006.86 219.709Z" fill="#CBD0FF"/>
<path d="M1003.8 236.169C1004.06 234.781 1005.29 233.933 1006.67 234.189C1008.06 234.446 1008.9 235.679 1008.64 237.066C1008.39 238.454 1007.16 239.303 1005.77 239.046C1004.39 238.79 1003.55 237.557 1003.8 236.169Z" fill="#CBD0FF"/>
<path d="M1000.72 252.819C1000.98 251.431 1002.21 250.583 1003.59 250.839C1004.97 251.095 1005.81 252.329 1005.56 253.716C1005.3 255.104 1004.07 255.953 1002.69 255.696C1001.3 255.44 1000.46 254.207 1000.72 252.819Z" fill="#CBD0FF"/>
<path d="M990.273 216.622C990.53 215.234 991.76 214.386 993.143 214.642C994.526 214.898 995.369 216.132 995.112 217.519C994.855 218.907 993.625 219.756 992.242 219.499C990.86 219.243 990.048 217.836 990.273 216.622Z" fill="#CBD0FF"/>
<path d="M987.21 233.094C987.468 231.706 988.698 230.857 990.08 231.114C991.463 231.37 992.307 232.603 992.05 233.991C991.792 235.379 990.562 236.227 989.18 235.971C987.797 235.715 986.953 234.482 987.21 233.094Z" fill="#CBD0FF"/>
<path d="M984.124 249.746C984.382 248.358 985.612 247.51 986.994 247.766C988.377 248.022 989.221 249.255 988.964 250.643C988.706 252.031 987.476 252.88 986.094 252.623C984.711 252.367 983.867 251.134 984.124 249.746Z" fill="#CBD0FF"/>
<path d="M981.07 266.246C981.327 264.858 982.557 264.01 983.94 264.266C985.322 264.523 986.166 265.756 985.909 267.144C985.652 268.531 984.422 269.38 983.039 269.124C981.656 268.867 980.812 267.634 981.07 266.246Z" fill="#CBD0FF"/>
<path d="M973.679 213.53C973.937 212.142 975.166 211.293 976.549 211.55C977.932 211.806 978.776 213.039 978.518 214.427C978.261 215.815 977.031 216.664 975.648 216.407C974.439 216.183 973.454 214.744 973.679 213.53Z" fill="#CBD0FF"/>
<path d="M970.625 230.012C970.882 228.625 972.112 227.776 973.494 228.032C974.877 228.289 975.721 229.522 975.464 230.91C975.206 232.298 973.976 233.146 972.594 232.89C971.384 232.665 970.367 231.4 970.625 230.012Z" fill="#CBD0FF"/>
<path d="M967.531 246.669C967.788 245.281 969.018 244.433 970.401 244.689C971.783 244.946 972.627 246.179 972.37 247.566C972.113 248.954 970.883 249.803 969.5 249.546C968.29 249.322 967.273 248.057 967.531 246.669Z" fill="#CBD0FF"/>
<path d="M964.484 263.152C964.741 261.764 965.971 260.915 967.354 261.172C968.736 261.428 969.58 262.661 969.323 264.049C969.066 265.437 967.836 266.286 966.453 266.029C965.243 265.805 964.227 264.54 964.484 263.152Z" fill="#CBD0FF"/>
<path d="M954.203 226.99C954.46 225.602 955.69 224.754 957.073 225.01C958.455 225.267 959.299 226.5 959.042 227.887C958.784 229.275 957.554 230.124 956.172 229.867C954.789 229.611 953.945 228.378 954.203 226.99Z" fill="#CBD0FF"/>
<path d="M951.117 243.625C951.374 242.237 952.604 241.389 953.987 241.645C955.369 241.902 956.213 243.135 955.956 244.523C955.699 245.91 954.468 246.759 953.086 246.503C951.703 246.246 950.859 245.013 951.117 243.625Z" fill="#CBD0FF"/>
<path d="M948.062 260.1C948.319 258.713 949.549 257.864 950.932 258.12C952.315 258.377 953.159 259.61 952.901 260.998C952.644 262.385 951.414 263.234 950.031 262.978C948.649 262.721 947.805 261.488 948.062 260.1Z" fill="#CBD0FF"/>
<path d="M937.617 223.902C937.874 222.515 939.104 221.666 940.487 221.922C941.869 222.179 942.713 223.412 942.456 224.8C942.199 226.188 940.968 227.036 939.586 226.78C938.203 226.523 937.359 225.29 937.617 223.902Z" fill="#CBD0FF"/>
<path d="M934.515 240.552C934.772 239.165 936.002 238.316 937.385 238.573C938.768 238.829 939.612 240.062 939.354 241.45C939.097 242.838 937.867 243.686 936.484 243.43C935.102 243.173 934.258 241.94 934.515 240.552Z" fill="#CBD0FF"/>
<path d="M931.468 257.035C931.726 255.648 932.956 254.799 934.338 255.056C935.721 255.312 936.565 256.545 936.307 257.933C936.05 259.321 934.82 260.169 933.437 259.913C932.055 259.656 931.211 258.423 931.468 257.035Z" fill="#CBD0FF"/>
<path d="M921.023 220.827C921.28 219.439 922.51 218.591 923.893 218.847C925.276 219.103 926.119 220.337 925.862 221.724C925.605 223.112 924.375 223.961 922.992 223.704C921.782 223.48 920.766 222.215 921.023 220.827Z" fill="#CBD0FF"/>
<path d="M917.921 237.477C918.179 236.089 919.409 235.24 920.791 235.497C922.174 235.753 923.018 236.986 922.761 238.374C922.503 239.762 921.273 240.611 919.891 240.354C918.681 240.13 917.664 238.865 917.921 237.477Z" fill="#CBD0FF"/>
<path d="M914.875 253.951C915.132 252.563 916.362 251.714 917.745 251.971C919.127 252.227 919.971 253.46 919.714 254.848C919.456 256.236 918.226 257.084 916.844 256.828C915.634 256.604 914.617 255.338 914.875 253.951Z" fill="#CBD0FF"/>
</g>
<g opacity="0.7">
<path d="M877.734 264.253C877.991 262.865 879.221 262.017 880.604 262.273C881.986 262.53 882.83 263.763 882.573 265.151C882.316 266.538 881.086 267.387 879.703 267.13C878.32 266.874 877.476 265.641 877.734 264.253Z" fill="#CBD0FF"/>
<path d="M861.14 261.176C861.397 259.789 862.627 258.94 864.01 259.196C865.393 259.453 866.237 260.686 865.979 262.074C865.722 263.462 864.492 264.31 863.109 264.054C861.899 263.829 860.883 262.564 861.14 261.176Z" fill="#CBD0FF"/>
<path d="M844.718 258.15C844.976 256.762 846.206 255.914 847.588 256.17C848.971 256.427 849.815 257.66 849.557 259.048C849.3 260.435 848.07 261.284 846.687 261.028C845.305 260.771 844.461 259.538 844.718 258.15Z" fill="#CBD0FF"/>
<path d="M828.124 255.076C828.382 253.689 829.612 252.84 830.994 253.096C832.377 253.353 833.221 254.586 832.964 255.974C832.706 257.362 831.476 258.21 830.094 257.954C828.711 257.697 827.867 256.464 828.124 255.076Z" fill="#CBD0FF"/>
<path d="M811.538 251.971C811.796 250.584 813.026 249.735 814.409 249.991C815.791 250.248 816.635 251.481 816.378 252.869C816.12 254.257 814.89 255.105 813.508 254.849C812.298 254.624 811.281 253.359 811.538 251.971Z" fill="#CBD0FF"/>
<path d="M903.554 217.548C903.811 216.161 905.041 215.312 906.424 215.568C907.807 215.825 908.651 217.058 908.393 218.446C908.136 219.834 906.906 220.682 905.523 220.426C904.141 220.169 903.297 218.936 903.554 217.548Z" fill="#CBD0FF"/>
<path d="M900.468 234.191C900.726 232.804 901.956 231.955 903.338 232.212C904.721 232.468 905.565 233.701 905.307 235.089C905.05 236.477 903.82 237.325 902.437 237.069C901.055 236.812 900.211 235.579 900.468 234.191Z" fill="#CBD0FF"/>
<path d="M897.414 250.683C897.671 249.295 898.901 248.447 900.283 248.703C901.666 248.96 902.51 250.193 902.253 251.58C901.995 252.968 900.765 253.817 899.383 253.56C898 253.304 897.156 252.071 897.414 250.683Z" fill="#CBD0FF"/>
<path d="M886.968 214.468C887.226 213.08 888.456 212.232 889.838 212.488C891.221 212.745 892.065 213.978 891.807 215.366C891.55 216.753 890.32 217.602 888.937 217.345C887.555 217.089 886.711 215.856 886.968 214.468Z" fill="#CBD0FF"/>
<path d="M883.874 231.107C884.132 229.719 885.362 228.871 886.744 229.127C888.127 229.384 888.971 230.617 888.714 232.004C888.456 233.392 887.226 234.241 885.844 233.984C884.461 233.728 883.617 232.495 883.874 231.107Z" fill="#CBD0FF"/>
<path d="M880.82 247.61C881.077 246.222 882.307 245.374 883.69 245.63C885.072 245.886 885.916 247.12 885.659 248.507C885.402 249.895 884.172 250.744 882.789 250.487C881.406 250.231 880.562 248.998 880.82 247.61Z" fill="#CBD0FF"/>
<path d="M867.289 228.053C867.546 226.665 868.776 225.816 870.158 226.073C871.541 226.329 872.385 227.562 872.128 228.95C871.87 230.338 870.64 231.186 869.258 230.93C868.048 230.706 867.031 229.44 867.289 228.053Z" fill="#CBD0FF"/>
<path d="M864.226 244.533C864.483 243.146 865.713 242.297 867.096 242.553C868.479 242.81 869.323 244.043 869.065 245.431C868.808 246.819 867.578 247.667 866.195 247.411C864.985 247.186 863.969 245.921 864.226 244.533Z" fill="#CBD0FF"/>
<path d="M850.867 225.017C851.124 223.629 852.354 222.781 853.737 223.037C855.119 223.294 855.963 224.527 855.706 225.915C855.449 227.302 854.218 228.151 852.836 227.895C851.453 227.638 850.609 226.405 850.867 225.017Z" fill="#CBD0FF"/>
<path d="M847.804 241.49C848.062 240.102 849.291 239.254 850.674 239.51C852.057 239.767 852.901 241 852.643 242.388C852.386 243.775 851.156 244.624 849.773 244.368C848.391 244.111 847.547 242.878 847.804 241.49Z" fill="#CBD0FF"/>
<path d="M834.273 221.925C834.53 220.537 835.76 219.689 837.143 219.945C838.525 220.201 839.369 221.435 839.112 222.822C838.855 224.21 837.625 225.059 836.242 224.802C834.859 224.546 834.015 223.313 834.273 221.925Z" fill="#CBD0FF"/>
<path d="M831.218 238.403C831.475 237.015 832.706 236.167 834.088 236.423C835.471 236.68 836.315 237.913 836.057 239.301C835.8 240.688 834.57 241.537 833.187 241.28C831.805 241.024 830.961 239.791 831.218 238.403Z" fill="#CBD0FF"/>
<path d="M817.679 218.85C817.936 217.463 819.167 216.614 820.549 216.871C821.932 217.127 822.776 218.36 822.518 219.748C822.261 221.136 821.031 221.984 819.648 221.728C818.439 221.503 817.422 220.238 817.679 218.85Z" fill="#CBD0FF"/>
<path d="M814.632 235.333C814.89 233.946 816.12 233.097 817.502 233.353C818.885 233.61 819.729 234.843 819.472 236.231C819.214 237.619 817.984 238.467 816.602 238.211C815.392 237.986 814.375 236.721 814.632 235.333Z" fill="#CBD0FF"/>
</g>
<g opacity="0.7">
<path d="M795.828 249.087C796.085 247.699 797.315 246.851 798.698 247.107C800.08 247.364 800.924 248.597 800.667 249.984C800.409 251.372 799.179 252.221 797.797 251.964C796.414 251.708 795.57 250.475 795.828 249.087Z" fill="#CBD0FF"/>
<path d="M792.742 265.73C792.999 264.342 794.229 263.493 795.612 263.75C796.994 264.006 797.838 265.239 797.581 266.627C797.324 268.015 796.093 268.863 794.711 268.607C793.328 268.351 792.516 266.944 792.742 265.73Z" fill="#CBD0FF"/>
<path d="M801.968 215.953C802.226 214.565 803.456 213.716 804.838 213.973C806.221 214.229 807.065 215.462 806.807 216.85C806.55 218.238 805.32 219.087 803.937 218.83C802.555 218.574 801.711 217.341 801.968 215.953Z" fill="#CBD0FF"/>
<path d="M798.914 232.435C799.171 231.048 800.401 230.199 801.783 230.455C803.166 230.712 804.01 231.945 803.753 233.333C803.495 234.72 802.265 235.569 800.883 235.313C799.5 235.056 798.656 233.823 798.914 232.435Z" fill="#CBD0FF"/>
<path d="M782.328 229.351C782.585 227.963 783.815 227.115 785.198 227.371C786.58 227.628 787.424 228.861 787.167 230.249C786.909 231.636 785.679 232.485 784.297 232.229C782.914 231.972 782.07 230.739 782.328 229.351Z" fill="#CBD0FF"/>
</g>
</g>
<path d="M598.668 149.335L668.924 149.335C676.529 149.335 684.964 158.387 684.964 169.554C684.964 180.72 676.529 189.773 668.924 189.773L641.998 189.773C634.393 189.773 625.958 198.825 625.958 209.991C625.958 221.158 634.393 230.21 641.998 230.21L792.5 230.21" stroke="#DADDFD" stroke-width="4"/>
<path d="M876.488 296.502C884.744 268.846 873.048 252.713 866.167 248.104L817.146 243.166C797.054 253.158 728.993 257.884 716.522 284.018C702.082 314.28 701.472 365.745 678.681 400.431L701.472 404.232L698.031 409.459L753.073 414.686C755.06 358.893 760.326 319.978 775.004 315.378C803.815 306.35 866.167 320.605 876.488 296.502Z" fill="#585193" stroke="black" stroke-width="1.54901" stroke-linecap="round" stroke-linejoin="round"/>
<path d="M847.677 262.92C849.397 270.821 855.933 285.143 868.318 279.217" stroke="black" stroke-width="1.63916" stroke-linecap="round" stroke-linejoin="round"/>
<path d="M866.013 133.543L845.739 138.719C837.42 141.859 810.561 156.842 801.86 185.318C797.026 201.137 806.917 219.628 806.917 246.127C820.289 241.382 835.937 247.421 852.641 250.872C860.501 252.496 877.803 249.147 885.424 247.421C877.142 242.935 874.64 213.488 874.64 195.658C879.816 192.639 892.757 190.482 901.384 188.325C895.863 167.965 875.503 143.32 866.013 133.543Z" fill="#E74F4F"/>
<path d="M874.64 195.658C879.816 192.639 892.757 190.482 901.384 188.325C895.863 167.965 875.503 143.32 866.013 133.543L845.739 138.719C837.42 141.859 810.561 156.842 801.86 185.318C797.026 201.137 806.917 219.628 806.917 246.127C820.289 241.382 835.937 247.421 852.641 250.872C860.501 252.496 877.803 249.147 885.424 247.421C877.142 242.935 874.64 213.488 874.64 195.658ZM874.64 195.658L866.013 199.972C866.013 188.325 866.013 169.789 864.287 157.268" stroke="black" stroke-width="1.54901" stroke-linecap="round" stroke-linejoin="round"/>
<path d="M834.643 154.692C819.977 171.946 807.492 232.18 806.485 246.127" stroke="black" stroke-width="1.63916" stroke-linecap="round" stroke-linejoin="round"/>
<path d="M901.816 188.831C892.776 194.442 878.522 206.864 866.444 200.855C877.645 196.446 900.401 187.869 901.816 188.831Z" fill="black" stroke="black" stroke-width="1.63916" stroke-linecap="round" stroke-linejoin="round"/>
<path d="M783.744 194.354L774.254 151.241L687.67 113.713L704.493 194.354L793.234 236.218L863.545 225.843L843.822 217.272C843.822 217.272 843.703 220.667 840.683 219.804C839.653 219.51 838.623 218.489 837.713 217.272C837.713 217.272 836.801 219.804 832.487 218.942C829.195 218.283 829.169 216.369 829.342 215.499C829.445 215.253 829.468 215.06 829.468 215.06C829.468 215.06 829.395 215.229 829.342 215.499C829.066 216.159 828.217 217.201 825.705 215.945C823.799 214.992 825.3 213.549 826.567 212.062C827.595 210.857 828.293 209.474 828.293 209.474L796.804 194.354H783.744Z" fill="white"/>
<path d="M783.744 194.354L774.254 151.241L687.67 113.713L704.493 194.354L793.234 236.218L863.545 225.843L843.822 217.272C843.822 217.272 843.703 220.667 840.683 219.805C839.653 219.51 838.623 218.489 837.713 217.272C837.713 217.272 836.801 219.805 832.487 218.942C828.174 218.079 829.468 215.06 829.468 215.06C829.468 215.06 829.156 217.67 825.705 215.945C823.799 214.992 825.3 213.549 826.567 212.062M783.744 194.354H796.804L828.293 209.474M783.744 194.354L790.214 228.432M828.293 209.474C828.293 209.474 827.595 210.857 826.567 212.062M828.293 209.474L826.567 212.062" stroke="black" stroke-width="1.63916" stroke-linecap="round" stroke-linejoin="round"/>
<path d="M737.87 167.633C740.027 169.789 743.047 175.138 737.87 179.279" stroke="black" stroke-width="1.63916" stroke-linecap="round" stroke-linejoin="round"/>
<path d="M730.968 166.339C729.015 168.416 726.281 173.566 730.968 177.554" stroke="black" stroke-width="1.63916" stroke-linecap="round" stroke-linejoin="round"/>
<path d="M788.8 197.478C792.205 195.115 792.794 184.394 797.723 182.328C816.885 178.332 814.66 201.58 817.384 204.085L817.822 204.298C817.662 204.28 817.517 204.207 817.384 204.085L803.805 197.478C803.136 200.622 801.932 201.387 801.26 201.641C799.424 202.336 798.029 200.551 797.744 199.907C798.014 200.703 795.629 201.926 794.186 201.344C792.713 200.749 792.794 199.872 792.794 198.683C790.142 201.062 787.586 198.321 788.8 197.478Z" fill="#FFCAA4"/>
<path d="M792.794 198.683C790.142 201.062 787.586 198.321 788.8 197.478C792.205 195.115 792.794 184.394 797.723 182.328C817.822 178.137 814.391 203.918 817.822 204.298L803.805 197.478M792.794 198.683C792.794 199.872 792.713 200.749 794.186 201.344C795.66 201.939 798.116 200.65 797.723 199.857M792.794 198.683C792.794 198.683 795.955 196.601 795.955 191.844M797.723 199.857C797.953 200.452 799.373 202.355 801.26 201.641C802.225 201.276 804.288 199.857 804.288 191.844C804.666 191.352 814.371 201.641 808.763 190.063M797.723 199.857C797.723 199.857 800.457 197.478 799.868 191.844" stroke="black" stroke-width="1.63916" stroke-linecap="round" stroke-linejoin="round"/>
<path d="M825.155 200.847C823.939 197.808 832.368 192.382 837.113 191.789C849.819 190.2 871.778 203.353 876.798 203.906C878.595 204.103 878.498 202.297 875.504 196.952C882.751 193.502 894.915 189.034 898.797 188.747C902.248 193.492 916.171 230.611 905.818 236.218C890.289 242.689 849.742 201.7 846.722 205.592C846.722 217.216 843.703 219.274 842.29 219.804C839.603 220.812 837.561 218.224 837.144 217.289C837.539 218.443 834.049 220.218 831.937 219.373C829.78 218.511 829.899 217.239 829.899 215.513C826.017 218.964 822.277 214.988 824.053 213.766C829.037 210.337 829.78 201.269 831.937 198.69C829.772 201.279 826.88 205.161 825.155 200.847Z" fill="#FFCAA4"/>
<path d="M829.899 215.513C826.017 218.964 822.277 214.988 824.053 213.766C829.037 210.337 829.78 201.269 831.937 198.69C829.772 201.279 826.88 205.161 825.155 200.847C823.939 197.808 832.368 192.382 837.113 191.789C849.819 190.2 871.778 203.353 876.798 203.906M829.899 215.513C829.899 217.239 829.78 218.511 831.937 219.373C834.094 220.236 837.688 218.367 837.113 217.216M829.899 215.513C829.899 215.513 834.525 212.494 834.525 205.592M837.113 217.216C837.45 218.079 839.529 220.84 842.29 219.804C843.703 219.274 846.722 217.216 846.722 205.592C849.742 201.7 890.289 242.689 905.818 236.218C916.171 230.611 902.248 193.492 898.797 188.747C894.915 189.034 882.751 193.502 875.504 196.952C878.498 202.297 878.595 204.103 876.798 203.906M837.113 217.216C837.113 217.216 841.115 213.766 840.252 205.592M898.797 213.766L876.798 203.906" stroke="black" stroke-width="1.63916" stroke-linecap="round" stroke-linejoin="round"/>
<path d="M820.527 111.109V77.8946C820.527 75.7198 823.978 60.6302 845.115 60.1989C866.251 59.7675 868.408 77.0218 868.408 77.0218C868.408 85.2838 865.792 89.9234 862.554 92.4382C866.121 90.2923 871.523 88.5947 872.722 94.2862C874.102 100.843 866.97 103.345 863.232 103.776C860.471 118.615 863.232 129.514 864.957 133.108C861.506 140.01 849.428 138.86 843.821 137.422V126.638C820.7 127.328 820.527 118.874 820.527 111.109Z" fill="#FFCAA4" stroke="black" stroke-width="1.63916" stroke-linejoin="round"/>
<path d="M844.308 126.837C847.33 126.7 852.295 125.801 853.634 123.312C853.69 123.19 853.745 123.07 853.797 122.954C853.751 123.077 853.697 123.196 853.634 123.312C851.539 127.881 846.996 136.52 844.308 137.192V126.837Z" fill="black" stroke="black" stroke-width="1.63916" stroke-linecap="round" stroke-linejoin="round"/>
<path d="M863.406 135.678C865.908 148.188 889.431 147.9 895.758 143.012C886.699 127.914 887.821 51.8611 849.171 55.6571C840.688 53.5003 824.153 57.1713 818.545 81.3274C819.01 82.5432 822.858 84.5579 822.858 84.5579C822.858 84.5579 829.76 87.7395 831.486 87.7395C832.055 87.8501 835.65 71.951 836.231 72.0487C835.799 84.1267 835.829 87.7395 836.231 88.4402C836.632 89.141 841.867 88.7506 845.289 88.8778L849.171 75.9308C849.504 81.1437 849.017 84.6895 850.465 88.8778C850.465 88.8778 860.197 89.0533 861.249 88.8778L861.249 93.4055C864.556 91.5363 871.602 88.7053 873.327 94.9169C875.053 101.128 867.72 103.758 863.406 104.189C860.818 124.463 862.112 129.208 863.406 135.678Z" fill="black" stroke="black" stroke-width="1.63916" stroke-linecap="round" stroke-linejoin="round"/>
<path d="M838.859 102.515C838.167 100.236 835.764 98.9507 833.492 99.6453C831.221 100.34 829.94 102.751 830.632 105.031C831.042 106.382 832.053 107.383 833.28 107.831" stroke="black" stroke-width="1.29407" stroke-linecap="round" stroke-linejoin="round"/>
<path d="M839.313 93.1022C840.783 91.306 844.837 90.6437 846.661 93.9709" stroke="black" stroke-width="1.29407" stroke-linecap="round" stroke-linejoin="round"/>
<path d="M830.271 92.3614C829.35 91.357 826.484 90.8501 824.883 92.3279" stroke="black" stroke-width="1.29407" stroke-linecap="round" stroke-linejoin="round"/>
<path d="M848.811 101.635C849.241 105.087 847.607 111.809 842.791 114.57C837.974 117.332 832.9 116.307 830.32 115.012" stroke="black" stroke-width="1.29407" stroke-linecap="round" stroke-linejoin="round"/>
<path d="M844.493 98.5709C844.271 99.5095 843.728 100.556 842.275 100.421C840.921 100.296 840.208 99.1337 840.333 97.7748" stroke="black" stroke-width="1.29407" stroke-linecap="round" stroke-linejoin="round"/>
<path d="M829.778 97.9671C829.598 98.915 829.104 99.9848 827.646 99.9169C826.288 99.8535 825.523 98.725 825.586 97.3619" stroke="black" stroke-width="1.29407" stroke-linecap="round" stroke-linejoin="round"/>
<path opacity="0.5" fill-rule="evenodd" clip-rule="evenodd" d="M440.567 20.4453C446.102 23.6018 451.495 27.1516 456.709 31.0994C461.923 35.0472 466.803 39.2746 471.343 43.7452C472.321 44.7086 472.333 46.2826 471.37 47.2608C470.406 48.2391 468.832 48.2511 467.854 47.2878C463.467 42.9677 458.75 38.8811 453.708 35.0634C448.665 31.2458 443.452 27.8145 438.104 24.7643C436.912 24.0841 436.496 22.5658 437.176 21.3732C437.857 20.1806 439.375 19.7652 440.567 20.4453ZM406.612 8.92465C406.266 10.2533 404.908 11.0496 403.579 10.7034C391.417 7.53397 378.972 6.0165 366.577 6.10558C365.204 6.11544 364.083 5.01045 364.073 3.63751C364.063 2.26458 365.168 1.14359 366.541 1.13373C379.366 1.04156 392.245 2.61159 404.833 5.89211C406.162 6.23833 406.958 7.59605 406.612 8.92465ZM491.644 73.3016C492.828 72.6079 494.351 73.0061 495.045 74.1909C501.618 85.4173 506.623 97.3874 510.014 109.756C510.377 111.08 509.598 112.448 508.273 112.811C506.949 113.174 505.582 112.395 505.219 111.071C501.941 99.1161 497.105 87.5493 490.754 76.703C490.061 75.5181 490.459 73.9953 491.644 73.3016ZM331.375 8.15773C331.738 9.48185 330.959 10.8495 329.635 11.2125C317.681 14.4897 306.114 19.3267 295.268 25.6769C294.083 26.3706 292.56 25.9724 291.866 24.7876C291.172 23.6028 291.571 22.0799 292.755 21.3862C303.982 14.8134 315.952 9.80814 328.321 6.41744C329.645 6.05446 331.012 6.83361 331.375 8.15773ZM512.794 145.508C514.167 145.498 515.287 146.603 515.297 147.976C515.39 160.801 513.819 173.68 510.539 186.269C510.193 187.597 508.835 188.394 507.506 188.047C506.178 187.701 505.381 186.344 505.728 185.015C508.897 172.853 510.415 160.407 510.326 148.012C510.316 146.639 511.421 145.518 512.794 145.508ZM265.825 45.0615C266.804 46.0248 266.816 47.5988 265.852 48.5771C261.532 52.9639 257.446 57.6808 253.628 62.7233C249.81 67.7658 246.379 72.9788 243.329 78.327C242.649 79.5197 241.13 79.9351 239.938 79.2549C238.745 78.5747 238.33 77.0565 239.01 75.8638C242.166 70.3293 245.716 64.9365 249.664 59.7222C253.612 54.5078 257.839 49.6281 262.31 45.0884C263.273 44.1102 264.847 44.0981 265.825 45.0615ZM495.058 218.612C496.251 219.292 496.666 220.81 495.986 222.003C492.829 227.538 489.279 232.93 485.332 238.145C481.384 243.359 477.156 248.239 472.686 252.778C471.723 253.757 470.149 253.769 469.17 252.805C468.192 251.842 468.18 250.268 469.143 249.29C473.463 244.903 477.55 240.186 481.368 235.144C485.185 230.101 488.617 224.888 491.667 219.54C492.347 218.347 493.865 217.932 495.058 218.612ZM227.489 109.819C228.818 110.166 229.614 111.523 229.268 112.852C226.099 125.014 224.581 137.459 224.67 149.855C224.68 151.228 223.575 152.349 222.202 152.359C220.829 152.368 219.708 151.263 219.698 149.89C219.606 137.066 221.176 124.187 224.457 111.598C224.803 110.269 226.161 109.473 227.489 109.819ZM443.13 273.079C443.823 274.264 443.425 275.787 442.24 276.481C431.014 283.053 419.044 288.059 406.675 291.449C405.351 291.812 403.983 291.033 403.62 289.709C403.257 288.385 404.036 287.017 405.361 286.654C417.315 283.377 428.882 278.54 439.728 272.19C440.913 271.496 442.436 271.894 443.13 273.079ZM370.923 294.229C370.933 295.602 369.828 296.723 368.455 296.733C355.63 296.825 342.751 295.255 330.163 291.975C328.834 291.628 328.038 290.271 328.384 288.942C328.73 287.614 330.088 286.817 331.416 287.163C343.579 290.333 356.024 291.85 368.419 291.761C369.792 291.751 370.913 292.856 370.923 294.229ZM226.722 185.056C228.046 184.693 229.414 185.472 229.777 186.796C233.054 198.751 237.891 210.318 244.241 221.164C244.935 222.349 244.537 223.872 243.352 224.565C242.167 225.259 240.644 224.861 239.951 223.676C233.378 212.449 228.373 200.479 224.982 188.111C224.619 186.787 225.398 185.419 226.722 185.056ZM263.626 250.606C264.589 249.628 266.163 249.616 267.142 250.579C271.528 254.899 276.245 258.986 281.288 262.803C286.33 266.621 291.543 270.052 296.892 273.102C298.084 273.783 298.5 275.301 297.819 276.494C297.139 277.686 295.621 278.102 294.428 277.421C288.894 274.265 283.501 270.715 278.287 266.767C273.072 262.82 268.193 258.592 263.653 254.122C262.675 253.158 262.663 251.584 263.626 250.606Z" fill="#DFE3FD"/>
<path fill-rule="evenodd" clip-rule="evenodd" d="M135.504 65.4194C135.504 61.1121 138.996 57.6204 143.303 57.6204H259.213C263.52 57.6204 267.012 61.1121 267.012 65.4194V265.495C267.012 269.802 263.52 273.294 259.213 273.294H143.303C138.996 273.294 135.504 269.802 135.504 265.495V65.4194Z" fill="#E9EBFF" stroke="black" stroke-width="1.51107" stroke-linejoin="round"/>
<path fill-rule="evenodd" clip-rule="evenodd" d="M174.676 215.678H227.562H174.676Z" fill="white"/>
<path d="M174.676 215.678H227.562" stroke="black" stroke-width="1.20918"/>
<path fill-rule="evenodd" clip-rule="evenodd" d="M174.676 226.361H227.562H174.676Z" fill="white"/>
<path d="M174.676 226.361H227.562" stroke="black" stroke-width="1.20918"/>
<path fill-rule="evenodd" clip-rule="evenodd" d="M174.676 237.049H227.562H174.676Z" fill="white"/>
<path d="M174.676 237.049H227.562" stroke="black" stroke-width="1.20918"/>
<path fill-rule="evenodd" clip-rule="evenodd" d="M181.188 247.732H221.033H181.188Z" fill="white"/>
<path d="M181.188 247.732H221.033" stroke="black" stroke-width="1.20918"/>
<path fill-rule="evenodd" clip-rule="evenodd" d="M469.02 65.42C469.02 61.1127 472.511 57.621 476.819 57.621H592.729C597.036 57.621 600.528 61.1127 600.528 65.42V265.495C600.528 269.803 597.036 273.294 592.729 273.294H476.819C472.511 273.294 469.02 269.803 469.02 265.495V65.42Z" fill="#E9EBFF" stroke="black" stroke-width="1.51107" stroke-linejoin="round"/>
<path fill-rule="evenodd" clip-rule="evenodd" d="M508.031 215.679H560.918H508.031Z" fill="white"/>
<path d="M508.031 215.679H560.918" stroke="black" stroke-width="1.20918"/>
<path fill-rule="evenodd" clip-rule="evenodd" d="M508.031 226.362H560.918H508.031Z" fill="white"/>
<path d="M508.031 226.362H560.918" stroke="black" stroke-width="1.20918"/>
<path fill-rule="evenodd" clip-rule="evenodd" d="M508.031 237.05H560.918H508.031Z" fill="white"/>
<path d="M508.031 237.05H560.918" stroke="black" stroke-width="1.20918"/>
<path fill-rule="evenodd" clip-rule="evenodd" d="M514.551 247.732H554.396H514.551Z" fill="white"/>
<path d="M514.551 247.732H554.396" stroke="black" stroke-width="1.20918"/>
<path fill-rule="evenodd" clip-rule="evenodd" d="M288.055 35.9629C288.055 31.6556 291.546 28.1638 295.854 28.1638H439.117C443.425 28.1638 446.917 31.6556 446.917 35.9629V282.329C446.917 286.636 443.425 290.128 439.118 290.128H295.854C291.546 290.128 288.055 286.636 288.055 282.329V35.9629Z" fill="white" stroke="black" stroke-width="1.51107" stroke-linejoin="round"/>
<path fill-rule="evenodd" clip-rule="evenodd" d="M335.469 212.249H399.565H335.469Z" fill="white"/>
<path d="M335.469 212.249H399.565" stroke="black" stroke-width="1.20918"/>
<path fill-rule="evenodd" clip-rule="evenodd" d="M335.469 225.194H399.565H335.469Z" fill="white"/>
<path d="M335.469 225.194H399.565" stroke="black" stroke-width="1.20918"/>
<path fill-rule="evenodd" clip-rule="evenodd" d="M335.469 238.146H399.565H335.469Z" fill="white"/>
<path d="M335.469 238.146H399.565" stroke="black" stroke-width="1.20918"/>
<path fill-rule="evenodd" clip-rule="evenodd" d="M343.383 251.093H391.671H343.383Z" fill="white"/>
<path d="M343.383 251.093H391.671" stroke="black" stroke-width="1.20918"/>
<circle cx="534.382" cy="143.731" r="43.1157" fill="white" stroke="black" stroke-width="1.16986"/>
<mask id="mask2_1979_23093" style="mask-type:alpha" maskUnits="userSpaceOnUse" x="491" y="93" width="86" height="94">
<path d="M576.913 143.731C576.913 167.22 557.871 186.262 534.382 186.262C510.893 186.262 491.852 167.22 491.852 143.731C491.852 134.133 496.991 104.139 502.353 97.0216C510.115 86.7205 520.491 101.2 534.382 101.2C557.871 101.2 576.913 120.242 576.913 143.731Z" fill="#DADDFD"/>
</mask>
<g mask="url(#mask2_1979_23093)">
<path d="M516.194 187.708C512.799 187.172 508.823 182.868 507.259 180.783L517.088 185.251L516.194 187.708Z" fill="black" stroke="black" stroke-width="0.848876" stroke-linecap="round" stroke-linejoin="round"/>
<path d="M506.812 187.261L511.188 178.537C512.356 177.96 516.599 180.37 517.487 182.582C517.487 182.582 514.73 193.93 511.188 194.41C507.646 194.889 488.699 194.724 478.523 189.118C477.607 188.707 477.245 187.775 476.998 186.753C476.292 186.247 476.364 185.356 476.745 184.939C476.25 184.002 476.768 183.148 477.145 182.577C477.985 181.302 480.466 181.693 482.125 182.208C483.341 177.772 487.889 177.726 486.857 178.983C484.729 181.572 485.247 183.614 485.247 183.614C485.247 183.614 487.154 185.35 494.302 186.753C501.451 188.155 506.812 187.261 506.812 187.261Z" fill="#BF7657" stroke="black" stroke-width="0.848876" stroke-linecap="round" stroke-linejoin="round"/>
<rect x="478.477" y="167.128" width="23.6792" height="33.955" transform="rotate(-0.58327 478.477 167.128)" fill="#505798" stroke="black" stroke-width="0.848876" stroke-linecap="round" stroke-linejoin="round"/>
<rect x="481.171" y="168.441" width="18.3178" height="29.934" transform="rotate(-0.58327 481.171 168.441)" fill="white" stroke="black" stroke-width="0.848876" stroke-linecap="round" stroke-linejoin="round"/>
<path d="M482.72 169.319C482.064 168.432 484.956 167.084 485.731 166.906C486.507 166.727 485.015 165.672 484.233 165.283L495.632 165.167C494.686 165.573 493.217 166.719 494.558 166.816C495.9 166.912 497.966 168.37 497.629 169.167L482.72 169.319Z" fill="black" stroke="black" stroke-width="0.848876" stroke-linecap="round" stroke-linejoin="round"/>
<path d="M532.887 154.87C522.449 157.774 514.854 174.528 507.482 180.56C507.482 180.56 514.68 183.241 517.137 185.698C514.235 195.809 512.938 205.345 512.782 210.494C519.707 208.037 532.217 209.377 536.908 211.611C540.661 213.398 549.493 212.058 553.439 211.164C554.841 205.803 552.383 192.623 547.854 184.357C550.535 182.794 557.237 181.677 561.704 180.56C558.845 170.016 548.301 157.253 543.387 152.19L532.887 154.87Z" fill="#515BB2"/>
<path d="M547.854 184.357C550.535 182.794 557.237 181.677 561.704 180.56C558.845 170.016 548.301 157.253 543.387 152.19L532.887 154.87C522.449 157.774 514.854 174.528 507.482 180.56C507.482 180.56 514.68 183.241 517.137 185.698M547.854 184.357C552.383 192.623 554.841 205.803 553.439 211.164C549.493 212.058 540.661 213.398 536.908 211.611C532.217 209.377 519.707 208.037 512.782 210.494C513.08 200.665 517.535 174.855 529.374 159.561M547.854 184.357L543.387 186.591C544.504 181.453 542.554 168.05 541.214 160.455" stroke="black" stroke-width="0.848876" stroke-linecap="round" stroke-linejoin="round"/>
<path d="M561.698 180.56C557.131 183.466 546.939 188.807 543.604 186.815C549.263 184.532 560.983 180.062 561.698 180.56Z" fill="black" stroke="black" stroke-width="0.848876" stroke-linecap="round" stroke-linejoin="round"/>
<path d="M552.47 227.131C553.611 223.636 550.953 201.024 546.405 185.134C550.975 182.57 555.667 182.006 557.629 182.006C560.437 196.356 558.184 212.987 558.518 227.131C559.6 230.645 560.028 237.095 558.518 238.524C557.574 239.417 557.351 238.524 557.351 237.853C557.073 238.739 557.148 239.477 556.356 239.477C555.564 239.477 555.296 238.066 555.274 237.605C555.274 238.957 554.778 239.477 553.923 239.477C552.436 239.417 553.382 235.713 552.47 232.407C551.963 233.379 550.537 235.018 548.888 233.797C548.415 233.447 552.078 229.91 552.47 227.131Z" fill="#BF7657"/>
<path d="M555.274 237.605C555.274 238.957 554.778 239.477 553.923 239.477C552.436 239.417 553.382 235.713 552.47 232.407C551.963 233.379 550.537 235.018 548.888 233.797C548.415 233.447 552.078 229.91 552.47 227.131C553.611 223.636 550.953 201.024 546.405 185.134C550.975 182.57 555.667 182.006 557.629 182.006C560.437 196.356 558.184 212.987 558.518 227.131C559.6 230.645 560.028 237.095 558.518 238.524C557.574 239.417 557.351 238.524 557.351 237.853M555.274 237.605C555.296 238.066 555.564 239.477 556.356 239.477C557.148 239.477 557.073 238.739 557.351 237.853M555.274 237.605C555.274 237.605 555.564 236.29 555.274 232.407M557.351 237.853C557.351 237.853 558.021 234.279 557.351 232.407" stroke="black" stroke-width="0.848876" stroke-linecap="round" stroke-linejoin="round"/>
<path d="M545.39 185.698L551.198 211.611C551.198 209.662 548.071 193.523 546.507 185.698H545.39Z" fill="black" stroke="black" stroke-width="0.848876" stroke-linecap="round" stroke-linejoin="round"/>
<path d="M520.085 141.46V124.259H541.083C541.083 129.174 540.637 131.259 541.083 132.301C542.796 131.035 546.4 129.352 547.115 132.748C547.83 136.143 545.539 138.116 543.602 138.339C542.173 146.024 542.2 150.991 543.094 152.853C541.307 156.427 535.052 155.831 532.148 155.087V149.502C520.174 149.859 520.085 145.481 520.085 141.46Z" fill="#BF7657" stroke="black" stroke-width="0.848876" stroke-linejoin="round"/>
<path d="M532.371 149.502C533.936 149.431 536.507 148.966 537.201 147.677C537.23 147.614 537.258 147.552 537.286 147.492C537.262 147.555 537.233 147.617 537.201 147.677C536.116 150.043 533.763 154.515 532.371 154.863V149.502Z" fill="black" stroke="black" stroke-width="0.848876" stroke-linecap="round" stroke-linejoin="round"/>
<path d="M528.859 123.822C531.182 129.898 538.018 130.375 541.146 129.854V131.864C542.858 130.896 546.507 129.764 547.4 132.981C548.294 136.198 544.794 138.193 542.933 138.789C542.754 139.325 542.56 143.48 542.486 145.491C551.421 147.993 560.208 143.555 563.484 141.023C554.549 141.693 556.113 127.396 553.655 121.141C551.689 116.138 545.39 116.823 542.486 117.791C540.848 115.035 534.98 109.481 524.615 109.302C514.25 109.123 511.509 116.376 511.435 120.024C511.509 122.854 512.999 128.603 518.36 128.96C523.721 129.317 527.593 125.684 528.859 123.822Z" fill="black" stroke="black" stroke-width="0.848876" stroke-linecap="round" stroke-linejoin="round"/>
<path d="M520.817 113.32C517.243 113.32 514.16 118.994 515.233 122.925" stroke="white" stroke-width="0.848876" stroke-linecap="round" stroke-linejoin="round"/>
<path d="M523.638 133.948C523.754 133.462 524.036 132.92 524.791 132.99C525.494 133.055 525.864 133.656 525.799 134.36" stroke="black" stroke-width="0.670165" stroke-linecap="round" stroke-linejoin="round"/>
<path d="M531.281 134.26C531.375 133.77 531.632 133.216 532.389 133.251C533.095 133.284 533.492 133.868 533.459 134.574" stroke="black" stroke-width="0.670165" stroke-linecap="round" stroke-linejoin="round"/>
<path d="M530.14 136.12C529.78 134.94 528.532 134.274 527.352 134.634C526.172 134.994 525.506 136.242 525.866 137.422C526.079 138.121 526.604 138.64 527.242 138.871" stroke="black" stroke-width="0.670165" stroke-linecap="round" stroke-linejoin="round"/>
<path d="M531.539 129.661C531.539 128.734 533.996 128.51 534.666 130.297" stroke="black" stroke-width="0.670165" stroke-linecap="round" stroke-linejoin="round"/>
<path d="M525.73 129.661C525.73 128.734 523.05 128.287 522.603 130.297" stroke="black" stroke-width="0.670165" stroke-linecap="round" stroke-linejoin="round"/>
<path d="M530.902 145.07C533.679 144.301 534.821 140.535 535.045 138.748C532.761 140.78 527.335 142.78 523.442 140.868C523.915 144.446 528.125 145.839 530.902 145.07Z" fill="black" stroke="black" stroke-width="0.670165" stroke-linecap="round" stroke-linejoin="round"/>
<path d="M529.606 143.819C528.179 142.903 526.807 143.645 526.299 144.131C530.063 146.01 531.953 143.955 532.428 142.693C531.347 141.865 530.096 143.098 529.606 143.819Z" fill="white"/>
<circle cx="2.90405" cy="2.90405" r="2.90405" transform="matrix(-1 0 0 1 535.561 130.744)" stroke="black" stroke-width="0.670165" stroke-linecap="round" stroke-linejoin="round"/>
<path d="M521.571 133.648C521.571 135.252 522.871 136.552 524.475 136.552C524.958 136.552 525.414 136.434 525.815 136.225C525.815 136.225 525.815 135.756 526.262 135.212C526.681 134.702 527.239 134.542 527.239 134.542C527.33 134.26 527.379 133.96 527.379 133.648C527.379 132.044 526.079 130.744 524.475 130.744C522.871 130.744 521.571 132.044 521.571 133.648Z" stroke="black" stroke-width="0.670165" stroke-linecap="round" stroke-linejoin="round"/>
<path d="M541.369 131.414C540.029 132.159 537.08 133.648 536.008 133.648" stroke="black" stroke-width="0.670165" stroke-linecap="round" stroke-linejoin="round"/>
</g>
<circle cx="367.705" cy="121.307" r="57.8329" fill="white" stroke="black" stroke-width="1.16986"/>
<mask id="mask3_1979_23093" style="mask-type:alpha" maskUnits="userSpaceOnUse" x="310" y="53" width="115" height="126">
<path d="M424.953 121.306C424.953 152.923 399.322 178.554 367.705 178.554C336.088 178.554 310.457 152.923 310.457 121.306C310.457 108.387 317.374 68.0132 324.593 58.4334C335.04 44.5678 349.007 64.0579 367.705 64.0579C399.322 64.0579 424.953 89.6887 424.953 121.306Z" fill="#DADDFD"/>
</mask>
<g mask="url(#mask3_1979_23093)">
<path d="M370.808 121.447C354.477 122.978 348.523 118.81 344.015 117.109C342.586 123.641 338.146 131.059 336.104 133.951C342.433 136.196 356.093 135.397 362.132 134.716C351.517 152.476 348.183 173.758 347.843 184.985C355.753 182.179 370.043 183.71 375.401 186.261C379.688 188.303 389.776 186.772 394.284 185.751C394.284 177.082 387.905 165.677 387.905 155.13C390.967 153.344 398.622 152.068 403.726 150.792C400.46 138.748 388.415 124.169 382.801 118.385L370.808 121.447Z" fill="#568DF4"/>
<path d="M387.905 155.13C390.967 153.344 398.622 152.068 403.726 150.792C400.46 138.748 388.415 124.169 382.801 118.385L370.808 121.447C354.477 122.978 348.523 118.81 344.015 117.109C342.586 123.641 338.146 131.059 336.104 133.951C342.433 136.196 356.093 135.397 362.132 134.716M387.905 155.13C387.905 165.677 394.284 177.082 394.284 185.751C389.776 186.772 379.688 188.303 375.401 186.261C370.043 183.71 355.753 182.179 347.843 184.985C348.183 173.758 351.517 152.476 362.132 134.716M387.905 155.13L382.801 157.682C384.077 151.813 382.036 137.275 381.015 129.613M362.132 134.716C362.954 133.287 365.026 130.718 365.96 129.613" stroke="black" stroke-width="1.41803" stroke-linecap="round" stroke-linejoin="round"/>
<path d="M335.594 133.695C334.574 133.491 334.447 130.038 334.873 128.082C335.893 128.337 337.68 128.592 338.955 128.847C338.19 130.633 336.615 133.9 335.594 133.695Z" fill="black" stroke="black" stroke-width="0.969664" stroke-linecap="round" stroke-linejoin="round"/>
<path d="M403.981 151.091C398.634 154.411 386.963 160.48 383.057 158.204C389.683 155.596 403.144 150.522 403.981 151.091Z" fill="black" stroke="black" stroke-width="0.969664" stroke-linecap="round" stroke-linejoin="round"/>
<path d="M393.558 204.896C394.861 200.904 391.825 175.075 386.629 156.924C391.223 153.351 396.745 152.684 399.451 153.351C402.658 169.742 400.085 188.74 400.467 204.896C401.702 208.911 402.191 216.278 400.467 217.91C399.388 218.931 399.133 217.91 399.133 217.145C398.815 218.156 398.901 218.999 397.996 218.999C397.092 218.999 396.785 217.388 396.761 216.861C396.761 218.405 396.194 218.999 395.217 218.999C393.519 218.931 394.599 214.7 393.558 210.923C392.979 212.034 391.35 213.906 389.466 212.511C388.926 212.111 393.11 208.071 393.558 204.896Z" fill="#D98F6F"/>
<path d="M396.761 216.861C396.761 218.405 396.194 218.999 395.217 218.999C393.519 218.931 394.599 214.7 393.558 210.923C392.979 212.034 391.35 213.906 389.466 212.511C388.926 212.111 393.11 208.071 393.558 204.896C394.861 200.904 391.825 175.075 386.629 156.924C391.223 153.351 396.745 152.684 399.451 153.351C402.658 169.742 400.085 188.74 400.467 204.896C401.702 208.911 402.191 216.278 400.467 217.91C399.388 218.931 399.133 217.91 399.133 217.145M396.761 216.861C396.785 217.388 397.092 218.999 397.996 218.999C398.901 218.999 398.815 218.156 399.133 217.145M396.761 216.861C396.761 216.861 397.092 215.358 396.761 210.923M399.133 217.145C399.133 217.145 399.898 213.062 399.133 210.923" stroke="black" stroke-width="0.969664" stroke-linecap="round" stroke-linejoin="round"/>
<path d="M385.098 156.668L391.732 186.269C391.732 184.042 388.16 165.608 386.374 156.668H385.098Z" fill="black" stroke="black" stroke-width="0.969664" stroke-linecap="round" stroke-linejoin="round"/>
<path d="M330.236 108.433C330.848 111.904 339.167 115.493 343.76 117.109C343.76 122.621 340.188 126.721 338.401 128.337C335.339 128.337 321.815 122.213 320.539 115.068C319.822 111.049 320.709 86.6582 322.07 75.7708C319.774 73.9845 321.305 69.6466 322.07 67.6051C322.683 65.9719 326.238 67.6051 327.939 68.6258C330.491 64.0327 335.55 65.2147 334.064 66.3293C331.001 68.6258 330.831 72.0281 330.236 74.4948C327.939 76.0259 329.47 104.095 330.236 108.433Z" fill="#D98F6F" stroke="black" stroke-width="0.969664" stroke-linecap="round" stroke-linejoin="round"/>
<path d="M327.027 69.4907C326.644 70.5399 324.082 70.0021 322.361 69.3745C320.64 68.7468 320.512 67.9905 320.794 67.2179C321.075 66.4453 321.66 65.949 323.381 66.5766C325.103 67.2042 327.409 68.4415 327.027 69.4907Z" fill="#D98F6F" stroke="black" stroke-width="0.969664" stroke-linecap="round" stroke-linejoin="round"/>
<path d="M326.006 72.0425C325.624 73.0917 323.062 72.5538 321.341 71.9262C319.619 71.2986 319.491 70.5423 319.773 69.7697C320.055 68.9971 320.64 68.5007 322.361 69.1283C324.082 69.756 326.389 70.9933 326.006 72.0425Z" fill="#D98F6F" stroke="black" stroke-width="0.969664" stroke-linecap="round" stroke-linejoin="round"/>
<path d="M325.496 74.5942C325.114 75.6434 322.552 75.1056 320.831 74.478C319.11 73.8503 318.982 73.094 319.263 72.3214C319.545 71.5488 320.13 71.0525 321.851 71.6801C323.572 72.3077 325.879 73.545 325.496 74.5942Z" fill="#D98F6F" stroke="black" stroke-width="0.969664" stroke-linecap="round" stroke-linejoin="round"/>
<path d="M356.159 105.704V86.0559C356.159 86.0559 358.201 75.8429 370.704 75.5877C383.208 75.3325 384.484 85.5395 384.484 85.5395C384.484 90.427 382.936 93.1717 381.02 94.6593C383.131 93.3899 386.327 92.3856 387.035 95.7525C387.852 99.6311 383.633 101.111 381.421 101.366C379.788 110.144 381.421 116.592 382.442 118.718C380.401 122.801 373.256 122.121 369.939 121.27V114.891C356.261 115.299 356.159 110.297 356.159 105.704Z" fill="#D98F6F" stroke="black" stroke-width="0.969664" stroke-linejoin="round"/>
<path d="M370.193 114.89C371.981 114.809 374.918 114.277 375.711 112.806C375.744 112.733 375.776 112.663 375.807 112.594C375.78 112.667 375.748 112.737 375.711 112.806C374.471 115.508 371.784 120.617 370.193 121.015V114.89Z" fill="black" stroke="black" stroke-width="0.969664" stroke-linecap="round" stroke-linejoin="round"/>
<path d="M356.264 105.895V86.2462H377.443C377.443 91.8601 379.74 94.2417 380.25 95.4325C382.206 93.9865 386.323 92.0642 387.14 95.9429C387.956 99.8215 383.737 101.302 381.526 101.557C379.893 110.335 381.526 116.782 382.547 118.909C380.505 122.991 373.36 122.311 370.043 121.46V115.081C356.366 115.489 356.264 110.488 356.264 105.895Z" fill="#D98F6F" stroke="black" stroke-width="0.969664" stroke-linejoin="round"/>
<path d="M370.298 115.081C372.086 115 375.023 114.468 375.815 112.996C375.848 112.924 375.881 112.853 375.912 112.784C375.884 112.857 375.852 112.928 375.815 112.996C374.576 115.699 371.888 120.807 370.298 121.205V115.081Z" fill="black" stroke="black" stroke-width="0.969664" stroke-linecap="round" stroke-linejoin="round"/>
<rect width="21.4347" height="11.2277" transform="matrix(-1 0 0 1 379.446 76.2886)" fill="white" stroke="black" stroke-width="0.765524" stroke-linecap="round" stroke-linejoin="round"/>
<path d="M391.695 86.7507C391.082 75.9313 376.98 70.6747 370.005 69.3988C364.901 71.2701 354.235 77.003 352.398 84.9645C350.561 92.9259 353.967 95.937 356.263 96.7025C357.114 90.6634 365.248 79.8065 366.943 80.3713C372.301 82.1575 378.426 93.045 381.743 98.9991V102.827C385.315 101.976 392.307 97.5701 391.695 86.7507Z" fill="black"/>
<path d="M366.943 80.3713C372.301 82.1575 378.426 93.045 381.743 98.9991V102.827C385.315 101.976 392.307 97.5701 391.695 86.7507C391.082 75.9313 376.98 70.6747 370.005 69.3988C364.901 71.2701 354.235 77.003 352.398 84.9645C350.561 92.9259 353.967 95.937 356.263 96.7025C357.114 90.6634 365.248 79.8065 366.943 80.3713ZM366.943 80.3713C366.943 80.3713 364.136 79.0954 363.37 79.3506" stroke="black" stroke-width="0.765524" stroke-linecap="round" stroke-linejoin="round"/>
<path d="M373.615 76.0333C376.677 77.5644 383.006 82.3617 383.822 89.3024" stroke="white" stroke-width="0.765524" stroke-linecap="round" stroke-linejoin="round"/>
<path d="M367.894 99.854C367.483 98.5059 366.058 97.746 364.71 98.1568C363.361 98.5675 362.602 99.9934 363.012 101.341C363.256 102.14 363.855 102.732 364.584 102.997" stroke="black" stroke-width="0.765524" stroke-linecap="round" stroke-linejoin="round"/>
<circle cx="370.043" cy="97.305" r="0.765524" fill="black"/>
<circle cx="361.878" cy="96.7887" r="0.765524" fill="black"/>
<path d="M362.898 94.0422C361.623 93.5319 359.326 94.3484 359.326 96.594" stroke="black" stroke-width="0.765524" stroke-linecap="round" stroke-linejoin="round"/>
<path d="M370.043 94.5526C370.808 94.2974 372.441 94.8588 372.85 96.0836" stroke="black" stroke-width="0.765524" stroke-linecap="round" stroke-linejoin="round"/>
<path d="M368.942 107.761C368.002 108.782 365.96 108.782 364.939 107.761" stroke="black" stroke-width="0.765524" stroke-linecap="round" stroke-linejoin="round"/>
<path d="M381.061 128.599C387.234 127.208 384.889 121.795 382.847 118.392C379.785 122.271 372.725 121.71 369.578 120.944C368.047 123.751 365.904 127.987 369.578 128.599C373.253 129.212 374.721 124.006 375.402 122.22C375.402 124.517 375.402 129.875 381.061 128.599Z" fill="#568DF4" stroke="black" stroke-linecap="round" stroke-linejoin="round"/>
<path d="M370.298 141.358C372.594 130.641 374.125 126.813 375.401 123.496" stroke="black" stroke-width="0.969664" stroke-linecap="round" stroke-linejoin="round"/>
<circle cx="0.765524" cy="0.765524" r="0.765524" transform="matrix(-0.952029 -0.306008 -0.306008 0.952029 370.845 132.577)" fill="black"/>
<circle cx="0.765524" cy="0.765524" r="0.765524" transform="matrix(-0.952029 -0.306008 -0.306008 0.952029 369.126 137.922)" fill="black"/>
</g>
<mask id="path-246-inside-1_1979_23093" fill="white">
<path fill-rule="evenodd" clip-rule="evenodd" d="M269.463 127.589C269.463 73.8647 313.015 30.3126 366.739 30.3126C420.463 30.3126 464.015 73.8647 464.015 127.589C464.015 181.313 420.463 224.865 366.739 224.865C313.015 224.865 269.463 181.313 269.463 127.589ZM366.739 18.6936C306.598 18.6936 257.844 67.4477 257.844 127.589C257.844 184.869 302.07 231.82 358.238 236.157C359.74 236.273 360.926 237.512 360.926 239.019V306.741C360.926 308.305 362.194 309.573 363.758 309.573H369.713C371.277 309.573 372.545 308.305 372.545 306.741V239.019C372.545 237.513 373.731 236.274 375.233 236.158C431.404 231.824 475.634 184.872 475.634 127.589C475.634 67.4477 426.88 18.6936 366.739 18.6936Z"/>
</mask>
<path fill-rule="evenodd" clip-rule="evenodd" d="M269.463 127.589C269.463 73.8647 313.015 30.3126 366.739 30.3126C420.463 30.3126 464.015 73.8647 464.015 127.589C464.015 181.313 420.463 224.865 366.739 224.865C313.015 224.865 269.463 181.313 269.463 127.589ZM366.739 18.6936C306.598 18.6936 257.844 67.4477 257.844 127.589C257.844 184.869 302.07 231.82 358.238 236.157C359.74 236.273 360.926 237.512 360.926 239.019V306.741C360.926 308.305 362.194 309.573 363.758 309.573H369.713C371.277 309.573 372.545 308.305 372.545 306.741V239.019C372.545 237.513 373.731 236.274 375.233 236.158C431.404 231.824 475.634 184.872 475.634 127.589C475.634 67.4477 426.88 18.6936 366.739 18.6936Z" fill="#ACC7FA"/>
<path d="M375.233 236.158L375.124 234.746L375.233 236.158ZM358.238 236.157L358.129 237.569L358.238 236.157ZM366.739 28.8966C312.233 28.8966 268.047 73.0826 268.047 127.589H270.879C270.879 74.6467 313.797 31.7285 366.739 31.7285V28.8966ZM465.431 127.589C465.431 73.0826 421.245 28.8966 366.739 28.8966V31.7285C419.681 31.7285 462.599 74.6467 462.599 127.589H465.431ZM366.739 226.281C421.245 226.281 465.431 182.095 465.431 127.589H462.599C462.599 180.531 419.681 223.449 366.739 223.449V226.281ZM268.047 127.589C268.047 182.095 312.233 226.281 366.739 226.281V223.449C313.797 223.449 270.879 180.531 270.879 127.589H268.047ZM259.26 127.589C259.26 68.2297 307.38 20.1096 366.739 20.1096V17.2776C305.816 17.2776 256.428 66.6657 256.428 127.589H259.26ZM358.347 234.746C302.911 230.465 259.26 184.124 259.26 127.589H256.428C256.428 185.615 301.229 233.175 358.129 237.569L358.347 234.746ZM362.342 306.741V239.019H359.51V306.741H362.342ZM369.713 308.157H363.758V310.989H369.713V308.157ZM371.129 239.019V306.741H373.961V239.019H371.129ZM474.218 127.589C474.218 184.126 430.564 230.469 375.124 234.746L375.342 237.57C432.245 233.18 477.05 185.617 477.05 127.589H474.218ZM366.739 20.1096C426.098 20.1096 474.218 68.2297 474.218 127.589H477.05C477.05 66.6657 427.662 17.2776 366.739 17.2776V20.1096ZM373.961 239.019C373.961 238.279 374.551 237.631 375.342 237.57L375.124 234.746C372.911 234.917 371.129 236.747 371.129 239.019H373.961ZM369.713 310.989C372.059 310.989 373.961 309.087 373.961 306.741H371.129C371.129 307.523 370.495 308.157 369.713 308.157V310.989ZM359.51 306.741C359.51 309.087 361.412 310.989 363.758 310.989V308.157C362.976 308.157 362.342 307.523 362.342 306.741H359.51ZM358.129 237.569C358.919 237.63 359.51 238.278 359.51 239.019H362.342C362.342 236.747 360.56 234.916 358.347 234.746L358.129 237.569Z" fill="black" mask="url(#path-246-inside-1_1979_23093)"/>
<circle cx="197.414" cy="143.732" r="43.1157" fill="white" stroke="black" stroke-width="1.16986"/>
<mask id="mask4_1979_23093" style="mask-type:alpha" maskUnits="userSpaceOnUse" x="154" y="93" width="86" height="94">
<path d="M239.944 143.732C239.944 167.221 220.903 186.263 197.414 186.263C173.924 186.263 154.883 167.221 154.883 143.732C154.883 134.134 160.022 104.14 165.384 97.0225C173.146 86.7214 183.522 101.201 197.414 101.201C220.903 101.201 239.944 120.243 239.944 143.732Z" fill="#DADDFD"/>
</mask>
<g mask="url(#mask4_1979_23093)">
<path d="M179.218 187.709C175.822 187.173 171.846 182.869 170.282 180.784L180.111 185.252L179.218 187.709Z" fill="black" stroke="black" stroke-width="0.848876" stroke-linecap="round" stroke-linejoin="round"/>
<path d="M169.836 187.262L174.211 178.538C175.379 177.961 179.622 180.371 180.511 182.583C180.511 182.583 177.753 193.931 174.211 194.411C170.669 194.89 151.723 194.725 141.547 189.119C140.63 188.708 140.268 187.775 140.022 186.753C139.315 186.248 139.388 185.357 139.768 184.94C139.274 184.003 139.792 183.149 140.168 182.578C141.008 181.303 143.49 181.694 145.149 182.209C146.365 177.773 150.912 177.727 149.88 178.984C147.753 181.573 148.271 183.615 148.271 183.615C148.271 183.615 150.177 185.351 157.326 186.753C164.474 188.156 169.836 187.262 169.836 187.262Z" fill="#D98F6F" stroke="black" stroke-width="0.848876" stroke-linecap="round" stroke-linejoin="round"/>
<rect x="141.5" y="167.129" width="23.6792" height="33.955" transform="rotate(-0.58327 141.5 167.129)" fill="#FFCA00" stroke="black" stroke-width="0.848876" stroke-linecap="round" stroke-linejoin="round"/>
<rect x="144.194" y="168.442" width="18.3178" height="29.934" transform="rotate(-0.58327 144.194 168.442)" fill="white" stroke="black" stroke-width="0.848876" stroke-linecap="round" stroke-linejoin="round"/>
<path d="M145.743 169.32C145.088 168.433 147.979 167.084 148.755 166.906C149.53 166.728 148.038 165.672 147.257 165.283L158.655 165.167C157.709 165.574 156.24 166.72 157.582 166.816C158.923 166.913 160.99 168.37 160.652 169.168L145.743 169.32Z" fill="black" stroke="black" stroke-width="0.848876" stroke-linecap="round" stroke-linejoin="round"/>
<path d="M195.911 154.871C185.473 157.775 177.878 174.529 170.506 180.561C170.506 180.561 177.703 183.241 180.161 185.699C177.259 195.81 175.962 205.345 175.806 210.495C182.731 208.037 195.241 209.378 199.932 211.612C203.685 213.399 212.516 212.058 216.463 211.165C217.864 205.804 215.407 192.624 210.878 184.358C213.558 182.795 220.26 181.678 224.728 180.561C221.869 170.017 211.325 157.254 206.41 152.19L195.911 154.871Z" fill="#FFCA00"/>
<path d="M210.878 184.358C213.559 182.795 220.26 181.678 224.728 180.561C221.869 170.017 211.325 157.254 206.41 152.19L195.911 154.871C185.473 157.775 177.878 174.529 170.506 180.561C170.506 180.561 177.703 183.241 180.161 185.699M210.878 184.358C215.407 192.624 217.864 205.803 216.463 211.165C212.516 212.058 203.685 213.399 199.932 211.612C195.241 209.378 182.731 208.037 175.806 210.495C176.104 200.666 180.558 174.856 192.398 159.562M210.878 184.358L206.41 186.592C207.527 181.454 205.578 168.051 204.237 160.456" stroke="black" stroke-width="1.60781" stroke-linecap="round" stroke-linejoin="round"/>
<path d="M224.721 180.561C220.154 183.467 209.963 188.808 206.627 186.816C212.286 184.533 224.007 180.063 224.721 180.561Z" fill="black" stroke="black" stroke-width="0.848876" stroke-linecap="round" stroke-linejoin="round"/>
<path d="M215.493 227.131C216.634 223.636 213.976 201.025 209.428 185.135C213.999 182.571 218.69 182.007 220.652 182.007C223.46 196.356 221.207 212.988 221.542 227.131C222.623 230.646 223.052 237.096 221.542 238.524C220.598 239.418 220.374 238.524 220.374 237.854C220.096 238.74 220.171 239.477 219.379 239.477C218.587 239.477 218.319 238.067 218.298 237.606C218.298 238.958 217.801 239.477 216.946 239.477C215.46 239.418 216.405 235.714 215.493 232.408C214.986 233.38 213.56 235.019 211.911 233.798C211.439 233.448 215.101 229.91 215.493 227.131Z" fill="#D98F6F"/>
<path d="M218.298 237.606C218.298 238.958 217.801 239.477 216.946 239.477C215.46 239.418 216.405 235.714 215.493 232.408C214.986 233.38 213.56 235.019 211.911 233.798C211.439 233.448 215.101 229.91 215.493 227.131C216.634 223.636 213.976 201.025 209.428 185.135C213.999 182.571 218.69 182.007 220.652 182.007C223.46 196.356 221.207 212.988 221.542 227.131C222.623 230.646 223.052 237.096 221.542 238.524C220.598 239.418 220.374 238.524 220.374 237.854M218.298 237.606C218.319 238.067 218.587 239.477 219.379 239.477C220.171 239.477 220.096 238.74 220.374 237.854M218.298 237.606C218.298 237.606 218.587 236.29 218.298 232.408M220.374 237.854C220.374 237.854 221.044 234.28 220.374 232.408" stroke="black" stroke-width="0.848876" stroke-linecap="round" stroke-linejoin="round"/>
<path d="M208.414 185.699L214.222 211.612C214.222 209.663 211.094 193.524 209.531 185.699H208.414Z" fill="black" stroke="black" stroke-width="0.848876" stroke-linecap="round" stroke-linejoin="round"/>
<path d="M183.079 141.082V123.881C183.079 123.881 184.866 114.941 195.812 114.717C206.758 114.494 207.875 123.429 207.875 123.429C207.875 127.708 206.521 130.111 204.843 131.413C206.691 130.302 209.489 129.423 210.109 132.37C210.824 135.766 207.131 137.061 205.195 137.285C203.765 144.969 205.195 150.614 206.088 152.475C204.301 156.049 198.046 155.454 195.142 154.709V149.124C183.168 149.482 183.079 145.103 183.079 141.082Z" fill="#FFCAA4" stroke="black" stroke-width="0.848876" stroke-linejoin="round"/>
<path d="M195.365 149.124C196.93 149.053 199.502 148.588 200.195 147.299C200.224 147.236 200.253 147.174 200.28 147.114C200.256 147.177 200.228 147.239 200.195 147.299C199.11 149.665 196.758 154.137 195.365 154.485V149.124Z" fill="black" stroke="black" stroke-width="0.848876" stroke-linecap="round" stroke-linejoin="round"/>
<path d="M203.647 132.365V124.993C202.291 120.079 198.478 125.217 193.132 125.217C188.65 125.217 184.644 120.749 182.872 125.217C179.952 122.76 178.819 117.622 180.846 115.834C182.872 114.047 184.867 115.611 185.09 115.834C185.016 114.718 185.537 112.26 188.218 111.367C190.898 110.473 191.866 112.409 192.015 113.377C192.388 112.558 194.919 110.25 197.377 110.697C199.834 111.143 199.834 113.228 200.057 114.047C200.648 113.601 201.398 111.59 202.961 112.037C204.525 112.484 204.381 114.941 204.525 115.388C204.818 115.09 206.165 113.869 207.429 114.047C209.009 114.271 209.886 117.175 209.886 118.738C210.423 124.1 208.929 128.716 208.115 130.355C206.507 129.997 204.467 131.546 203.647 132.365Z" fill="black" stroke="black" stroke-width="0.848876" stroke-linecap="round" stroke-linejoin="round"/>
<path d="M195.813 122.313L196.707 120.972" stroke="white" stroke-width="0.670165" stroke-linecap="round" stroke-linejoin="round"/>
<path d="M206.536 123.161L207.743 122.095" stroke="white" stroke-width="0.670165" stroke-linecap="round" stroke-linejoin="round"/>
<path d="M193.466 120.588L192.799 119.122" stroke="white" stroke-width="0.670165" stroke-linecap="round" stroke-linejoin="round"/>
<path d="M204.328 119.88L204.058 118.292" stroke="white" stroke-width="0.670165" stroke-linecap="round" stroke-linejoin="round"/>
<path d="M188.666 120.641L189.379 119.196" stroke="white" stroke-width="0.670165" stroke-linecap="round" stroke-linejoin="round"/>
<path d="M199.234 117.136L200.293 115.922" stroke="white" stroke-width="0.670165" stroke-linecap="round" stroke-linejoin="round"/>
<path d="M184.652 120.175L183.908 118.747" stroke="white" stroke-width="0.670165" stroke-linecap="round" stroke-linejoin="round"/>
<path d="M195.366 115.164L195.119 114.087" stroke="white" stroke-width="0.670165" stroke-linecap="round" stroke-linejoin="round"/>
<path d="M188.742 115.842L188.388 114.271" stroke="white" stroke-width="0.670165" stroke-linecap="round" stroke-linejoin="round"/>
<path d="M186.662 133.949C186.777 133.463 187.059 132.921 187.814 132.991C188.518 133.056 188.888 133.657 188.823 134.361" stroke="black" stroke-width="0.670165" stroke-linecap="round" stroke-linejoin="round"/>
<path d="M194.305 134.261C194.398 133.771 194.655 133.217 195.413 133.252C196.118 133.285 196.515 133.869 196.483 134.575" stroke="black" stroke-width="0.670165" stroke-linecap="round" stroke-linejoin="round"/>
<path d="M193.163 136.121C192.804 134.941 191.555 134.275 190.375 134.635C189.195 134.995 188.53 136.243 188.889 137.423C189.102 138.122 189.627 138.641 190.265 138.872" stroke="black" stroke-width="0.670165" stroke-linecap="round" stroke-linejoin="round"/>
<path d="M194.562 129.662C194.562 128.735 197.02 128.511 197.69 130.298" stroke="black" stroke-width="0.670165" stroke-linecap="round" stroke-linejoin="round"/>
<path d="M188.754 129.662C188.754 128.735 186.073 128.288 185.626 130.298" stroke="black" stroke-width="0.670165" stroke-linecap="round" stroke-linejoin="round"/>
<path d="M193.925 145.071C196.702 144.302 197.845 140.536 198.069 138.749C195.785 140.781 190.359 142.781 186.466 140.869C186.939 144.447 191.148 145.84 193.925 145.071Z" fill="black" stroke="black" stroke-width="0.670165" stroke-linecap="round" stroke-linejoin="round"/>
<path d="M192.629 143.82C191.202 142.904 189.831 143.646 189.323 144.132C193.086 146.011 194.976 143.956 195.451 142.694C194.371 141.866 193.12 143.099 192.629 143.82Z" fill="white"/>
<circle cx="2.90405" cy="2.90405" r="2.90405" transform="matrix(-1 0 0 1 198.584 130.745)" fill="white" stroke="black" stroke-width="0.670165" stroke-linecap="round" stroke-linejoin="round"/>
<path d="M184.594 133.649C184.594 135.253 185.894 136.553 187.498 136.553C187.982 136.553 188.438 136.435 188.839 136.226C188.839 136.226 188.839 135.756 189.285 135.213C189.704 134.703 190.262 134.542 190.262 134.542C190.353 134.261 190.402 133.961 190.402 133.649C190.402 132.045 189.102 130.745 187.498 130.745C185.894 130.745 184.594 132.045 184.594 133.649Z" fill="white" stroke="black" stroke-width="0.670165" stroke-linecap="round" stroke-linejoin="round"/>
<path d="M204.393 131.415C203.052 132.16 200.104 133.649 199.031 133.649" stroke="black" stroke-width="0.670165" stroke-linecap="round" stroke-linejoin="round"/>
<circle cx="195.234" cy="134.542" r="0.670165" fill="black"/>
<circle cx="188.085" cy="134.542" r="0.670165" fill="black"/>
<path d="M193.223 133.872H197.244" stroke="black" stroke-width="0.670165" stroke-linecap="round" stroke-linejoin="round"/>
<path d="M185.181 133.872H189.202" stroke="black" stroke-width="0.670165" stroke-linecap="round" stroke-linejoin="round"/>
</g>
<circle cx="599.977" cy="61.3374" r="7.85542" fill="#293044"/>
<circle cx="601.109" cy="60.215" r="8.27625" fill="#F6F7FA" stroke="#293044" stroke-width="0.841652"/>
<path fill-rule="evenodd" clip-rule="evenodd" d="M601.098 68.0705C605.436 68.0705 608.953 64.5535 608.953 60.215C608.953 55.8766 605.436 52.3596 601.098 52.3596C596.759 52.3596 593.242 55.8766 593.242 60.215C593.242 64.5535 596.759 68.0705 601.098 68.0705ZM597.821 59.1034L600.148 61.43L604.504 57.0741L605.939 58.5088L600.148 64.2995L596.387 60.5382L597.821 59.1034Z" fill="#82ABF7"/>
<ellipse cx="18.9512" cy="19.2671" rx="18.9512" ry="19.2671" transform="matrix(1 0 0 -1 576.805 80.2665)" fill="black"/>
<circle cx="19.196" cy="19.196" r="19.196" transform="matrix(1 0 0 -1 579.836 77.385)" fill="white"/>
<rect x="598.777" y="48.4348" width="6.84107" height="2.50796" transform="rotate(79.9408 598.777 48.4348)" fill="black"/>
<rect x="614.531" y="60.2865" width="12.8997" height="2.50796" transform="rotate(-179.517 614.531 60.2865)" fill="black"/>
<path d="M582.845 60.4964C582.894 61.1873 582.374 61.7868 581.683 61.8355L580.009 61.9534L579.833 59.4516L581.506 59.3337C582.197 59.285 582.797 59.8056 582.845 60.4964Z" fill="#DADDFD"/>
<path d="M615.862 58.1894C615.848 57.497 616.397 56.9239 617.09 56.9095L618.798 56.8738L618.85 59.3812L617.142 59.4169C616.45 59.4314 615.877 58.8818 615.862 58.1894Z" fill="#DADDFD"/>
<path d="M599.859 77.6798L599.694 75.9561C599.627 75.2668 600.132 74.6542 600.822 74.5878C601.511 74.5215 602.124 75.0266 602.19 75.716L602.356 77.4396L599.859 77.6798Z" fill="#DADDFD"/>
<path d="M598.953 38.994L599.004 40.7817C599.024 41.474 598.479 42.0512 597.787 42.071C597.094 42.0908 596.517 41.5456 596.497 40.8534L596.446 39.0657L598.953 38.994Z" fill="#DADDFD"/>
<circle cx="19.196" cy="19.196" r="19.8784" transform="matrix(1 0 0 -1 579.836 77.385)" stroke="black" stroke-width="1.36483"/>
<path d="M622.376 72.291L618.532 71.4809C618.475 71.4688 618.422 71.4441 618.376 71.4085C618.33 71.3729 618.293 71.3274 618.267 71.2754C618.241 71.2233 618.227 71.1662 618.226 71.1081C618.226 71.05 618.238 70.9925 618.263 70.9399L622.567 61.845C622.602 61.765 622.609 61.6755 622.587 61.591C622.564 61.5066 622.514 61.4323 622.444 61.3802C622.374 61.3281 622.288 61.3014 622.2 61.3044C622.113 61.3074 622.029 61.34 621.963 61.3967L609.6 72.3641C609.549 72.4138 609.512 72.4767 609.495 72.5458C609.477 72.6149 609.479 72.6876 609.5 72.7556C609.522 72.8237 609.561 72.8846 609.615 72.9314C609.669 72.9783 609.735 73.0094 609.805 73.0211L613.65 73.8312C613.706 73.8433 613.76 73.8681 613.806 73.9037C613.851 73.9393 613.889 73.9848 613.915 74.0368C613.94 74.0888 613.954 74.146 613.955 74.2041C613.956 74.2621 613.943 74.3196 613.918 74.3722L609.585 83.4723C609.55 83.5522 609.543 83.6418 609.565 83.7262C609.588 83.8106 609.638 83.885 609.708 83.937C609.779 83.9891 609.864 84.0158 609.952 84.0128C610.039 84.0098 610.123 83.9773 610.189 83.9205L622.555 72.9424C622.604 72.8943 622.64 72.8339 622.658 72.7673C622.676 72.7008 622.676 72.6306 622.658 72.5641C622.64 72.4976 622.604 72.4372 622.554 72.3892C622.505 72.3411 622.443 72.3072 622.376 72.291Z" fill="#FFCA00" stroke="black" stroke-width="0.789634"/>
<path d="M548.234 73.8411L557.573 72.2847" stroke="black" stroke-width="1.26341" stroke-linecap="round"/>
<path d="M557.57 66.5799L567.947 64.5046" stroke="black" stroke-width="1.26341" stroke-linecap="round"/>
<path d="M560.684 76.9554L576.248 73.8425" stroke="black" stroke-width="1.26341" stroke-linecap="round"/>
<path d="M562.238 71.2479L564.832 70.7291" stroke="black" stroke-width="1.26341" stroke-linecap="round"/>
<circle cx="365.795" cy="178.194" r="9.79487" fill="black"/>
<circle cx="367.205" cy="176.795" r="10.3196" fill="#F6F7FA" stroke="black" stroke-width="1.04945"/>
<path fill-rule="evenodd" clip-rule="evenodd" d="M367.193 186.59C372.603 186.59 376.988 182.204 376.988 176.795C376.988 171.385 372.603 167 367.193 167C361.784 167 357.398 171.385 357.398 176.795C357.398 182.204 361.784 186.59 367.193 186.59ZM363.109 175.409L366.01 178.31L371.442 172.878L373.231 174.667L366.01 181.888L361.32 177.198L363.109 175.409Z" fill="#82ABF7"/>
<path d="M931.032 113.312L931.031 113.313C920.691 124.463 919.391 140.766 926.801 153.183L927.266 165.967L927.288 166.578L927.9 166.556L940.718 166.106C953.767 172.598 969.981 170.068 980.324 158.916C992.933 145.354 992.123 124.143 978.514 111.554C964.906 98.9659 943.641 99.7503 931.032 113.312Z" fill="#E9EBFF" stroke="black" stroke-width="1.22618"/>
<path d="M982.728 103.362L986.424 108.833C982.801 111.12 981.759 115.778 984.096 119.238C986.434 122.697 991.266 123.648 994.89 121.36L998.587 126.832C998.934 127.345 998.79 128.03 998.266 128.361L969.488 146.526L967.683 143.855L965.803 145.041L967.608 147.713L953.925 156.35C953.401 156.681 952.694 156.533 952.347 156.019L948.65 150.548L940.185 138.021L936.488 132.549C936.141 132.036 936.284 131.351 936.808 131.02L950.492 122.383L952.297 125.054L954.177 123.867L952.372 121.196L981.15 103.031C981.674 102.7 982.38 102.848 982.728 103.362Z" fill="#293044"/>
<circle cx="972.893" cy="122.735" r="7.85618" transform="rotate(-33.1478 972.893 122.735)" fill="#F6F7FA"/>
<path d="M982.996 101.687L986.658 107.106C983.102 109.35 982.099 113.951 984.418 117.383C986.737 120.814 991.499 121.776 995.054 119.531L998.716 124.951C999.063 125.464 998.92 126.149 998.396 126.48L970.173 144.294L968.382 141.645L966.538 142.809L968.328 145.459L954.918 153.924C954.394 154.255 953.687 154.106 953.34 153.593L949.678 148.174L941.283 135.749L937.621 130.329C937.274 129.816 937.417 129.131 937.941 128.8L951.352 120.336L953.142 122.985L954.986 121.82L953.196 119.171L981.419 101.356C981.943 101.026 982.649 101.174 982.996 101.687Z" fill="#F6F7FA" stroke="#293044" stroke-width="0.925"/>
<path d="M969.546 117.164C968.255 117.885 967.22 118.97 966.572 120.281C965.924 121.592 965.692 123.07 965.905 124.528C966.118 125.987 966.767 127.36 967.77 128.475C968.772 129.589 970.083 130.395 971.537 130.79C972.991 131.185 974.522 131.151 975.938 130.694C977.353 130.236 978.589 129.375 979.488 128.218C980.388 127.062 980.911 125.663 980.992 124.198C981.072 122.733 980.707 121.268 979.942 119.988C978.913 118.274 977.242 117.014 975.293 116.484C973.344 115.955 971.277 116.199 969.546 117.164ZM976.994 125.089C977.108 125.28 977.141 125.505 977.085 125.716C977.03 125.927 976.891 126.106 976.699 126.213L976.118 126.538L976.36 126.942C976.464 127.11 976.507 127.306 976.481 127.499C976.455 127.691 976.362 127.867 976.218 127.998C976.125 128.078 976.015 128.137 975.895 128.17C975.776 128.202 975.649 128.209 975.526 128.188C975.402 128.167 975.284 128.119 975.181 128.049C975.077 127.978 974.99 127.886 974.926 127.779L974.668 127.348L974.088 127.672C973.981 127.732 973.86 127.767 973.736 127.776C973.612 127.784 973.486 127.765 973.369 127.721C973.252 127.676 973.146 127.607 973.058 127.518C972.971 127.429 972.904 127.322 972.863 127.206C972.801 127.02 972.807 126.82 972.879 126.64C972.95 126.46 973.083 126.311 973.256 126.219L975.113 125.181L974.426 124.03L972.54 125.084C972.348 125.191 972.118 125.218 971.902 125.16C971.685 125.101 971.499 124.961 971.385 124.77L969.837 122.181C969.723 121.991 969.69 121.765 969.746 121.554C969.801 121.343 969.94 121.165 970.132 121.057L970.712 120.733L970.471 120.329C970.366 120.161 970.323 119.964 970.349 119.772C970.375 119.579 970.468 119.403 970.613 119.273C970.706 119.192 970.816 119.134 970.936 119.101C971.055 119.068 971.181 119.062 971.305 119.083C971.429 119.104 971.547 119.151 971.65 119.222C971.754 119.292 971.841 119.384 971.905 119.491L972.163 119.922L972.743 119.598C972.85 119.538 972.971 119.503 973.095 119.494C973.22 119.485 973.345 119.504 973.463 119.549C973.58 119.593 973.686 119.663 973.774 119.752C973.862 119.841 973.928 119.948 973.969 120.064C974.03 120.25 974.024 120.45 973.953 120.63C973.881 120.81 973.748 120.959 973.575 121.052L971.717 122.09L972.405 123.24L974.291 122.187C974.483 122.079 974.713 122.052 974.929 122.111C975.146 122.17 975.332 122.31 975.446 122.501L976.994 125.089Z" fill="#BCBFE3"/>
<path d="M966.512 140.623L954.77 123.527" stroke="#BCBFE3" stroke-width="2.08125" stroke-dasharray="4.62 2.31"/>
<circle cx="941.34" cy="146.984" r="8.63333" transform="rotate(-1.2291 941.34 146.984)" fill="#293044"/>
<circle cx="942.547" cy="145.724" r="9.09583" transform="rotate(-1.2291 942.547 145.724)" fill="#F6F7FA" stroke="#293044" stroke-width="0.925"/>
<path fill-rule="evenodd" clip-rule="evenodd" d="M942.732 154.356C947.499 154.253 951.281 150.306 951.178 145.539C951.076 140.772 947.129 136.991 942.362 137.093C937.595 137.195 933.813 141.142 933.916 145.909C934.018 150.676 937.965 154.458 942.732 154.356ZM938.917 144.58L941.529 147.082L946.212 142.193L947.822 143.735L941.596 150.235L937.375 146.19L938.917 144.58Z" fill="#515BB2"/>
<path d="M946.77 85.5941L953.749 93.5216" stroke="#515BB2" stroke-width="2.35356" stroke-linecap="round"/>
<path d="M974.125 88.8813L970.76 95.5315" stroke="#515BB2" stroke-width="2.35356" stroke-linecap="round"/>
<path d="M962.074 77.0706L962.345 93.9128" stroke="#515BB2" stroke-width="2.35356" stroke-linecap="round"/>
</g>
<defs>
<clipPath id="clip0_1979_23093">
<rect width="1144" height="264" fill="white"/>
</clipPath>
</defs>
</svg>
