<svg width="40" height="44" viewBox="0 0 40 44" fill="none" xmlns="http://www.w3.org/2000/svg">
<path d="M27.9276 39.7298C28.8572 40.7731 29.4969 41.4121 30.7552 41.4121C31.2199 41.4102 31.679 41.311 32.103 41.121C32.527 40.931 32.9064 40.6543 33.2168 40.3089C33.4435 40.0688 33.6158 39.7826 33.7217 39.4699C33.8276 39.1573 33.8648 38.8254 33.8305 38.4971C33.5455 36.2162 31.5131 25.1256 30.2289 18.1973C29.1677 20.1309 27.606 21.7443 25.7069 22.8686C23.8079 23.993 21.6412 24.587 19.4337 24.5886C19.4051 24.5902 19.3764 24.5902 19.3478 24.5886C18.9381 24.5611 18.394 24.6274 18.1235 25.0933C17.8677 25.5301 17.9341 26.1658 18.2855 26.7206L27.9276 39.7298Z" fill="#BCBFE3"/>
<path d="M2.5918 24.3291V34.9408C2.5918 35.284 2.7283 35.6132 2.97126 35.8559C3.21422 36.0986 3.54375 36.2349 3.88735 36.2349H22.1174L16.1854 28.226L16.1465 28.1694C15.2235 26.7733 15.1231 25.0958 15.8842 23.7872C16.5887 22.5772 17.9263 21.9091 19.4729 21.9997C20.7538 21.9984 22.0216 21.7424 23.2024 21.2467C24.3833 20.7509 25.4535 20.0253 26.3507 19.1121C27.2578 18.1992 27.9729 17.1142 28.4538 15.921C28.9347 14.7278 29.1716 13.4505 29.1507 12.1644C29.0811 6.88435 24.6502 2.58789 19.2721 2.58789H3.88735C3.54375 2.58789 3.21422 2.72423 2.97126 2.96693C2.7283 3.20962 2.5918 3.53879 2.5918 3.88201V14.4938H2.76508C5.4323 14.4938 7.67847 16.6194 7.77078 19.2335C7.79708 19.8943 7.68862 20.5535 7.45198 21.1711C7.21535 21.7887 6.85549 22.3519 6.39425 22.8263C5.93641 23.3035 5.38622 23.6829 4.7771 23.9412C4.16798 24.1995 3.51265 24.3315 2.85091 24.3291H2.5918Z" fill="#F6F7FA"/>
</svg>
