<svg width="192" height="36" viewBox="0 0 192 36" fill="none" xmlns="http://www.w3.org/2000/svg">
<path d="M148.776 15.0939C148.357 15.9617 147.939 16.8295 147.523 17.6973C146.775 19.2529 146.024 20.8085 145.288 22.3701C145.235 22.5157 145.134 22.6385 145.001 22.718C144.868 22.7975 144.712 22.8288 144.559 22.8067C143.898 22.7809 143.236 22.7729 142.576 22.8067C142.163 22.8305 141.993 22.6201 141.838 22.2987C140.769 20.0592 139.695 17.8203 138.616 15.5821C138.54 15.4049 138.413 15.2544 138.251 15.1495C138.204 15.3141 138.166 15.481 138.136 15.6495C137.894 17.6417 137.656 19.6345 137.42 21.628C137.317 22.4951 137.2 23.3603 137.119 24.2274C137.079 24.652 136.921 24.8226 136.469 24.7988C135.529 24.7611 134.587 24.7631 133.647 24.7988C133.183 24.8147 133.03 24.6758 133.094 24.2135C133.264 22.9912 133.405 21.7649 133.558 20.5387C133.802 18.5644 134.042 16.5881 134.289 14.6118C134.519 12.7664 134.757 10.9231 134.989 9.07776C135.039 8.68091 135.079 8.28407 135.112 7.89913C135.142 7.56577 135.287 7.40505 135.65 7.41497C136.443 7.43481 137.236 7.43085 138.029 7.41497C138.167 7.40091 138.305 7.43544 138.42 7.5126C138.536 7.58976 138.62 7.70471 138.66 7.83761C140.155 11.06 141.66 14.2778 143.177 17.4909C143.291 17.6983 143.42 17.8973 143.563 18.0862C143.722 17.8941 143.863 17.6883 143.986 17.4711C145.465 14.2791 146.935 11.0818 148.395 7.87928C148.446 7.72491 148.549 7.59322 148.687 7.50726C148.825 7.42129 148.988 7.38652 149.149 7.40902C149.942 7.44077 150.735 7.42886 151.528 7.40902C151.593 7.39769 151.66 7.40105 151.723 7.41882C151.786 7.4366 151.845 7.46836 151.894 7.51176C151.944 7.55516 151.983 7.60909 152.009 7.6696C152.035 7.73011 152.047 7.79566 152.044 7.86142C152.253 9.62739 152.464 11.392 152.678 13.1554C152.912 15.0814 153.147 17.0087 153.382 18.9374C153.603 20.7325 153.828 22.5289 154.056 24.3266C154.1 24.6718 153.985 24.7949 153.63 24.7889C152.607 24.771 151.584 24.7691 150.561 24.7889C150.196 24.7889 150.061 24.654 150.025 24.3147C149.873 22.9079 149.706 21.503 149.543 20.0962C149.373 18.608 149.2 17.1205 149.026 15.6337C149.006 15.459 148.957 15.2864 148.921 15.1118L148.776 15.0939Z" fill="#F6F7FA"/>
<path d="M81.4238 16.0873C81.4238 13.4027 81.4337 10.716 81.4238 8.03135C81.4238 7.56307 81.5468 7.40632 82.0306 7.41227C84.2117 7.43807 86.3929 7.38449 88.574 7.43807C91.7109 7.51545 94.0249 8.95402 95.3593 11.8034C96.21 13.6229 96.4102 15.5734 96.1525 17.5576C95.9225 19.3792 95.3078 21.038 94.0507 22.417C93.4002 23.1359 92.6095 23.7139 91.7273 24.1152C90.845 24.5166 89.89 24.7328 88.921 24.7505C86.5634 24.8418 84.1998 24.7783 81.8402 24.7961C81.4437 24.7961 81.4298 24.5858 81.4318 24.2921C81.4291 21.5565 81.4265 18.8216 81.4238 16.0873ZM87.1741 10.7081L87.1642 10.7914C86.718 10.7914 86.2719 10.7914 85.8277 10.7914C85.4926 10.7914 85.3499 10.9244 85.3519 11.2597C85.3519 14.4742 85.3519 17.6873 85.3519 20.8991C85.3519 21.2662 85.5085 21.3991 85.8575 21.3952C86.7161 21.3832 87.5766 21.3952 88.4352 21.3793C89.8232 21.3376 90.8325 20.657 91.471 19.4764C92.5873 17.4148 92.5853 15.2758 91.6693 13.1487C91.243 12.1566 90.543 11.3232 89.4603 11.0196C88.7207 10.8113 87.9315 10.8033 87.1642 10.7081H87.1741Z" fill="#F6F7FA"/>
<path d="M190.135 10.0733C189.223 10.8373 188.374 11.5675 187.494 12.256C187.401 12.3294 187.065 12.2223 186.931 12.1012C186.084 11.2979 184.98 10.8206 183.816 10.7539C181.995 10.6587 180.591 11.4226 179.535 12.8612C177.552 15.5677 178.555 19.7385 181.581 21.1414C183.407 21.9887 185.198 21.7367 186.8 20.5461C187.196 20.2544 187.438 19.7326 187.674 19.2782C187.872 18.8952 187.658 18.7047 187.236 18.7087C185.981 18.7087 184.726 18.6928 183.469 18.7206C182.991 18.7325 182.83 18.5837 182.854 18.1055C182.892 17.417 182.876 16.7165 182.854 16.032C182.854 15.6967 182.961 15.5637 183.31 15.5657C186.05 15.5657 188.79 15.5657 191.531 15.5657C191.818 15.5657 192.005 15.6292 192.001 15.9744C191.965 18.4051 191.451 20.681 189.804 22.57C188.517 24.0423 186.847 24.7983 184.924 24.9967C182.42 25.2567 180.068 24.7983 178.065 23.2109C175.337 21.0521 174.165 18.2008 174.694 14.7561C175.248 11.1468 177.312 8.6566 180.788 7.55535C184.057 6.52156 187.077 7.17041 189.649 9.53958C189.82 9.68244 189.945 9.85507 190.135 10.0733Z" fill="#BCBFE3"/>
<path d="M47.1016 24.756V7.4694C47.2514 7.44644 47.4023 7.43121 47.5536 7.42377C49.9152 7.42377 52.2768 7.40392 54.6364 7.43766C57.4302 7.47734 59.4627 9.31672 59.9901 12.0629C60.4997 14.7714 58.727 17.5989 56.421 18.2934C56.0244 18.4105 56.1037 18.6248 56.2921 18.8887C57.4289 20.4866 58.5611 22.0866 59.6887 23.6885C59.9128 24.008 60.1309 24.3314 60.4104 24.7402C60.1606 24.762 60.0139 24.7878 59.8513 24.7878C58.6953 24.7878 57.5393 24.7759 56.3853 24.7878C56.2316 24.7985 56.0782 24.7643 55.9437 24.6892C55.8092 24.6142 55.6994 24.5016 55.6278 24.3651C54.4844 22.5978 53.3303 20.8345 52.1658 19.0752C52.0488 18.8886 51.8708 18.7484 51.6621 18.6783C51.1367 18.5632 51.0177 18.6783 51.0177 19.222C51.0177 20.9027 51.0038 22.5833 51.0177 24.262C51.0177 24.6767 50.8888 24.8037 50.4803 24.7917C49.5246 24.766 48.5669 24.7917 47.6092 24.7917C47.4505 24.7878 47.2899 24.7679 47.1016 24.756ZM52.711 15.5651V15.5452C53.1393 15.5452 53.5696 15.5651 53.9979 15.5452C54.548 15.5234 55.0709 15.2998 55.4669 14.917C55.8629 14.5343 56.1044 14.0191 56.1453 13.4697C56.2723 12.3427 55.5366 11.1382 54.446 10.9617C53.4308 10.7989 52.3819 10.8327 51.3468 10.8208C51.2378 10.8208 51.0335 11.1005 51.0296 11.2533C51.0038 12.553 51.0296 13.8547 51.0117 15.1543C51.0117 15.448 51.1327 15.575 51.4242 15.571C51.8525 15.5591 52.2827 15.5651 52.711 15.5651Z" fill="#F6F7FA"/>
<path d="M65.0533 16.0892C65.0533 13.4046 65.0632 10.7199 65.0433 8.03324C65.0433 7.56893 65.1603 7.40821 65.6481 7.41218C68.9674 7.4307 72.2861 7.4307 75.604 7.41218C76.0799 7.41218 76.2445 7.55504 76.2247 8.03126C76.191 8.77138 76.1969 9.51348 76.2247 10.2536C76.2366 10.6663 76.0799 10.7993 75.6754 10.7953C73.6787 10.7814 71.68 10.7953 69.6833 10.7953C68.9793 10.7953 68.9754 10.7953 68.9734 11.5215C68.9734 12.3152 68.9932 13.1089 68.9734 13.9026C68.9575 14.353 69.1241 14.5157 69.5682 14.5118C71.2358 14.4979 72.9034 14.5118 74.571 14.5118C75.3165 14.5118 75.3165 14.5118 75.3165 15.2777C75.3165 16.0019 75.2987 16.7281 75.3165 17.4603C75.3304 17.875 75.1738 18.002 74.7693 17.9981C73.0541 17.9822 71.3369 17.9981 69.6138 17.9981C68.9972 17.9981 68.9654 18.0338 68.9615 18.637C68.9615 19.3136 68.9615 19.9882 68.9615 20.6629C68.9615 21.4089 68.9714 21.4189 69.6971 21.4189H75.7408C76.4507 21.4189 76.4507 21.4189 76.4507 22.1352C76.4507 22.8515 76.4249 23.5241 76.4507 24.2107C76.4745 24.6829 76.3258 24.8317 75.842 24.8278C72.8201 24.8079 69.8002 24.8278 66.7783 24.8278C66.3818 24.8278 65.9852 24.804 65.5886 24.8278C65.1584 24.8615 65.0176 24.7186 65.0216 24.2762C65.0612 21.526 65.0533 18.8076 65.0533 16.0892Z" fill="#F6F7FA"/>
<path d="M101.164 16.1249C101.164 13.4224 101.176 10.7218 101.164 8.01931C101.164 7.53515 101.315 7.41015 101.785 7.41213C105.103 7.43065 108.421 7.43065 111.739 7.41213C112.179 7.41213 112.367 7.52325 112.345 7.99351C112.314 8.71776 112.308 9.44398 112.345 10.1762C112.375 10.702 112.159 10.8111 111.681 10.8072C109.716 10.7853 107.751 10.8072 105.786 10.8072C105.104 10.8072 105.094 10.8191 105.092 11.4977C105.092 12.2914 105.092 13.0851 105.092 13.8787C105.092 14.474 105.132 14.5157 105.748 14.5177C107.448 14.5177 109.149 14.5316 110.848 14.5177C111.3 14.5177 111.463 14.6486 111.443 15.1129C111.409 15.8689 111.411 16.6289 111.443 17.3849C111.463 17.8532 111.318 18.0178 110.832 18.0119C109.149 17.9861 107.462 18 105.78 18.0119C105.116 18.0119 105.096 18.0377 105.094 18.7163C105.094 19.4247 105.116 20.135 105.094 20.8414C105.074 21.3057 105.265 21.4367 105.703 21.4367C107.767 21.4228 109.831 21.4367 111.895 21.4367C112.587 21.4367 112.589 21.4367 112.591 22.1173C112.591 22.8415 112.573 23.5677 112.591 24.2999C112.605 24.6968 112.5 24.8535 112.072 24.8515C108.603 24.8383 105.136 24.8383 101.67 24.8515C101.273 24.8515 101.168 24.7126 101.17 24.3337C101.17 21.5617 101.164 18.8433 101.164 16.1249Z" fill="#F6F7FA"/>
<path d="M117.537 16.111C117.537 13.4105 117.537 10.7079 117.537 8.00543C117.537 7.55897 117.656 7.41016 118.118 7.41016C121.453 7.42868 124.788 7.42868 128.124 7.41016C128.58 7.41016 128.734 7.55302 128.718 8.00543C128.689 8.74554 128.691 9.48765 128.718 10.2278C128.736 10.6663 128.572 10.7992 128.143 10.7953C126.161 10.7774 124.178 10.7953 122.195 10.7953C121.463 10.7953 121.463 10.7953 121.461 11.5473C121.461 12.341 121.479 13.1347 121.461 13.9284C121.447 14.3569 121.612 14.5236 122.036 14.5117C123.753 14.4998 125.47 14.5117 127.192 14.4978C127.65 14.4978 127.846 14.607 127.822 15.103C127.784 15.8967 127.796 16.6904 127.822 17.4742C127.834 17.871 127.683 17.9881 127.303 17.9861C125.586 17.9722 123.868 17.9861 122.147 17.9861C121.503 17.9861 121.473 18.0198 121.471 18.6528C121.471 19.3274 121.471 20.0041 121.471 20.6787C121.471 21.391 121.489 21.4089 122.185 21.4089H128.227C128.96 21.4089 128.96 21.4089 128.96 22.151C128.96 22.8931 128.95 23.6332 128.96 24.3753C128.96 24.6928 128.853 24.8119 128.53 24.8119C125.014 24.8039 121.498 24.8039 117.981 24.8119C117.563 24.8119 117.545 24.5976 117.545 24.2841C117.544 21.5551 117.541 18.8307 117.537 16.111Z" fill="#F6F7FA"/>
<path d="M168.258 12.4204C167.796 12.4204 167.334 12.4204 166.87 12.4204C166.533 12.4204 166.348 12.3688 166.275 11.962C166.108 10.9997 165.309 10.4937 164.159 10.5354C163.146 10.5711 162.394 11.1802 162.259 12.0751C162.158 12.7359 162.369 13.2657 163.053 13.5613C163.937 13.9582 164.871 14.236 165.791 14.5435C167.157 14.9999 168.5 15.4979 169.539 16.5575C170.578 17.6171 170.927 18.9564 170.728 20.4208C170.409 22.9805 168.529 24.3476 166.402 24.8198C164.603 25.2167 162.823 25.1949 161.127 24.3972C159.432 23.5995 158.365 22.2622 158.153 20.3335C158.107 19.9109 158.24 19.7382 158.69 19.7382C159.63 19.764 160.572 19.7481 161.512 19.7382C161.778 19.7382 162.008 19.766 162.081 20.0835C162.254 20.8315 162.769 21.2641 163.457 21.5101C164.206 21.793 165.036 21.7767 165.773 21.4645C166.079 21.3537 166.344 21.1538 166.535 20.8907C166.726 20.6275 166.833 20.3132 166.844 19.9882C166.869 19.6708 166.792 19.3536 166.624 19.0835C166.455 18.8134 166.204 18.6046 165.908 18.4882C165.182 18.178 164.441 17.9045 163.687 17.6687C162.484 17.2718 161.256 16.9524 160.199 16.1984C157.277 14.1169 157.707 9.53134 161.109 7.86459C163.215 6.83676 165.377 6.79707 167.5 7.81498C169.19 8.62455 170.026 10.0552 170.236 11.8827C170.28 12.2676 170.137 12.4244 169.743 12.4045C169.249 12.4025 168.753 12.4204 168.258 12.4204Z" fill="#BCBFE3"/>
<path d="M22.9341 32.5062C23.6974 33.3598 24.2227 33.8826 25.256 33.8826C25.6376 33.881 26.0147 33.7999 26.3628 33.6444C26.711 33.489 27.0226 33.2626 27.2774 32.98C27.4637 32.7835 27.6051 32.5494 27.6921 32.2936C27.7791 32.0378 27.8096 31.7663 27.7815 31.4976C27.5474 29.6315 25.8784 20.5573 24.8238 14.8887C23.9524 16.4708 22.6699 17.7908 21.1104 18.7107C19.5509 19.6306 17.7717 20.1166 15.9588 20.1179C15.9354 20.1193 15.9118 20.1193 15.8884 20.1179C15.5519 20.0954 15.1051 20.1497 14.883 20.5309C14.6728 20.8882 14.7274 21.4084 15.016 21.8623L22.9341 32.5062Z" fill="#BCBFE3"/>
<path d="M2.12695 19.9054V28.5878C2.12695 28.8686 2.23905 29.1379 2.43857 29.3365C2.63809 29.535 2.90869 29.6466 3.19086 29.6466H18.1613L13.29 23.0938L13.2581 23.0475C12.5 21.9053 12.4176 20.5328 13.0426 19.462C13.6211 18.472 14.7196 17.9254 15.9896 17.9995C17.0415 17.9985 18.0826 17.7891 19.0523 17.3835C20.022 16.9778 20.9008 16.3842 21.6376 15.637C22.3826 14.8901 22.9698 14.0024 23.3647 13.0261C23.7596 12.0498 23.9542 11.0048 23.937 9.95248C23.8798 5.63248 20.2413 2.11719 15.8247 2.11719H3.19086C2.90869 2.11719 2.63809 2.22874 2.43857 2.42731C2.23905 2.62588 2.12695 2.89519 2.12695 3.17601V11.8584H2.26925C4.45956 11.8584 6.30411 13.5975 6.37991 15.7363C6.40151 16.2769 6.31244 16.8163 6.11812 17.3216C5.92379 17.827 5.62828 18.2877 5.24951 18.6759C4.87354 19.0664 4.42172 19.3767 3.92152 19.5881C3.42131 19.7994 2.88316 19.9074 2.33973 19.9054H2.12695Z" fill="#F6F7FA"/>
</svg>
