<svg width="133" height="40" viewBox="0 0 133 40" fill="none" xmlns="http://www.w3.org/2000/svg">
<path d="M93.1855 7.12971C92.8015 7.90106 92.4186 8.67241 92.037 9.44376C91.3519 10.8265 90.6631 12.2093 89.9889 13.5974C89.9403 13.7268 89.8473 13.836 89.7255 13.9066C89.6037 13.9773 89.4606 14.0051 89.3202 13.9854C88.715 13.9625 88.108 13.9555 87.5029 13.9854C87.1249 14.0066 86.9686 13.8197 86.8269 13.5339C85.8467 11.5432 84.8624 9.55311 83.8738 7.56359C83.804 7.40613 83.6876 7.27232 83.5394 7.17909C83.4963 7.32537 83.4611 7.47372 83.434 7.62356C83.2123 9.39437 82.9936 11.1658 82.7779 12.9378C82.6834 13.7085 82.5762 14.4775 82.5017 15.2483C82.4653 15.6257 82.32 15.7774 81.9056 15.7563C81.0442 15.7228 80.181 15.7245 79.3196 15.7563C78.8944 15.7704 78.7544 15.6469 78.8126 15.236C78.9689 14.1495 79.0979 13.0595 79.2379 11.9695C79.4614 10.2145 79.6813 8.45782 79.9084 6.70111C80.1192 5.06081 80.3373 3.42228 80.5499 1.78198C80.5954 1.42923 80.6317 1.07648 80.6626 0.734308C80.6899 0.437996 80.8225 0.295131 81.1551 0.30395C81.882 0.321587 82.6089 0.31806 83.3358 0.30395C83.4622 0.29145 83.589 0.322141 83.6945 0.390728C83.8 0.459314 83.8776 0.561493 83.9137 0.679632C85.284 3.54398 86.6639 6.40421 88.0535 9.26033C88.1584 9.44472 88.2768 9.62155 88.4079 9.78946C88.5534 9.61876 88.683 9.43577 88.795 9.24269C90.1507 6.40539 91.4979 3.56338 92.8366 0.716671C92.8829 0.579449 92.9775 0.462396 93.1037 0.385983C93.23 0.30957 93.3798 0.278659 93.5272 0.298659C94.2541 0.326879 94.981 0.316296 95.7079 0.298659C95.7673 0.288592 95.8283 0.291571 95.8863 0.307375C95.9444 0.323178 95.998 0.351405 96.0433 0.389981C96.0887 0.428557 96.1245 0.476501 96.1482 0.530288C96.1719 0.584076 96.183 0.642339 96.1804 0.700796C96.3719 2.27054 96.5657 3.83912 96.762 5.40651C96.9764 7.11854 97.1915 8.83174 97.4071 10.5461C97.6094 12.1417 97.8154 13.7385 98.025 15.3365C98.0649 15.6434 97.9596 15.7527 97.6343 15.7474C96.6965 15.7316 95.7588 15.7298 94.8211 15.7474C94.4867 15.7474 94.3632 15.6275 94.3304 15.3259C94.1905 14.0754 94.0378 12.8267 93.8888 11.5761C93.7325 10.2533 93.5744 8.93109 93.4145 7.60945C93.3964 7.45424 93.3509 7.30079 93.3182 7.14558L93.1855 7.12971Z" fill="#222757"/>
<path d="M31.4564 8.01331C31.4564 5.62694 31.4655 3.23881 31.4564 0.852439C31.4564 0.436191 31.5691 0.296855 32.0125 0.302146C34.0115 0.325075 36.0106 0.277453 38.0096 0.325075C40.8845 0.393861 43.0053 1.67259 44.2284 4.20535C45.008 5.82272 45.1915 7.5565 44.9553 9.32026C44.7445 10.9394 44.1811 12.4139 43.029 13.6397C42.4328 14.2787 41.7081 14.7925 40.8996 15.1492C40.091 15.506 39.2157 15.6981 38.3276 15.7139C36.1669 15.795 34.0006 15.7386 31.8381 15.7545C31.4746 15.7545 31.4619 15.5675 31.4637 15.3065C31.4613 12.8748 31.4588 10.4438 31.4564 8.01331ZM36.7266 3.23175L36.7175 3.30583C36.3086 3.30583 35.8997 3.30583 35.4926 3.30583C35.1855 3.30583 35.0547 3.424 35.0565 3.72208C35.0565 6.57937 35.0565 9.43549 35.0565 12.2904C35.0565 12.6167 35.2001 12.7349 35.5199 12.7314C36.3068 12.7208 37.0955 12.7314 37.8824 12.7173C39.1545 12.6802 40.0795 12.0753 40.6647 11.0258C41.6878 9.19326 41.686 7.29193 40.8464 5.40118C40.4557 4.5193 39.8142 3.77852 38.8219 3.50866C38.1441 3.32347 37.4208 3.31641 36.7175 3.23175H36.7266Z" fill="#222757"/>
<path d="M131.09 2.66739C130.254 3.34644 129.476 3.9955 128.669 4.60753C128.584 4.67279 128.277 4.57754 128.153 4.46995C127.377 3.75591 126.366 3.33163 125.298 3.27236C123.63 3.1877 122.343 3.86675 121.375 5.14547C119.557 7.55124 120.477 11.2587 123.25 12.5056C124.924 13.2588 126.565 13.0348 128.033 11.9765C128.397 11.7172 128.618 11.2534 128.835 10.8495C129.016 10.5091 128.82 10.3398 128.433 10.3433C127.283 10.3433 126.132 10.3292 124.98 10.3539C124.542 10.3644 124.395 10.2322 124.417 9.80709C124.451 9.19507 124.437 8.57246 124.417 7.96396C124.417 7.66589 124.515 7.54772 124.835 7.54948C127.346 7.54948 129.858 7.54948 132.369 7.54948C132.633 7.54948 132.804 7.60592 132.8 7.91282C132.767 10.0734 132.296 12.0965 130.786 13.7756C129.607 15.0843 128.077 15.7563 126.314 15.9326C124.019 16.1637 121.863 15.7563 120.028 14.3453C117.527 12.4263 116.453 9.89176 116.939 6.82987C117.446 3.62158 119.337 1.40806 122.523 0.429176C125.52 -0.489743 128.288 0.0870069 130.645 2.19294C130.801 2.31993 130.915 2.47338 131.09 2.66739Z" fill="#868AC3"/>
<path d="M0 15.7192V0.353336C0.137306 0.332925 0.275586 0.319386 0.414325 0.312771C2.57872 0.312771 4.74313 0.295133 6.9057 0.325117C9.46627 0.360392 11.329 1.9954 11.8124 4.43644C12.2794 6.84398 10.6548 9.35734 8.54126 9.97465C8.17781 10.0787 8.25049 10.2692 8.42314 10.5038C9.46505 11.9242 10.5027 13.3464 11.5362 14.7703C11.7415 15.0543 11.9414 15.3418 12.1976 15.7051C11.9687 15.7245 11.8342 15.7474 11.6852 15.7474C10.6257 15.7474 9.56621 15.7369 8.50854 15.7474C8.36774 15.757 8.22712 15.7266 8.10385 15.6598C7.98057 15.5931 7.87999 15.493 7.81435 15.3718C6.76638 13.8008 5.7087 12.2334 4.64134 10.6696C4.53414 10.5037 4.37103 10.3791 4.17977 10.3168C3.69819 10.2145 3.58915 10.3168 3.58915 10.8001C3.58915 12.294 3.57643 13.7879 3.58915 15.28C3.58915 15.6487 3.47101 15.7616 3.09665 15.751C2.22071 15.728 1.34297 15.751 0.465215 15.751C0.319832 15.7474 0.172643 15.7298 0 15.7192ZM5.1411 7.54948V7.53185C5.53363 7.53185 5.92798 7.54948 6.32052 7.53185C6.82471 7.51242 7.30393 7.31366 7.66687 6.97344C8.02981 6.63323 8.25113 6.17532 8.28866 5.68695C8.40497 4.68513 7.73074 3.61453 6.73123 3.45756C5.80078 3.31293 4.83943 3.34291 3.8908 3.33233C3.79085 3.33233 3.60368 3.58102 3.60004 3.71683C3.57642 4.87209 3.60005 6.02912 3.58369 7.18438C3.58369 7.44542 3.69454 7.5583 3.96168 7.55477C4.35421 7.54419 4.74856 7.54948 5.1411 7.54948Z" fill="#222757"/>
<path d="M16.4524 8.01511C16.4524 5.62874 16.4614 3.24238 16.4433 0.854244C16.4433 0.441524 16.5505 0.29866 16.9975 0.302188C20.0397 0.318649 23.0812 0.318649 26.1222 0.302188C26.5583 0.302188 26.7092 0.429177 26.691 0.85248C26.6601 1.51036 26.6655 2.17001 26.691 2.82789C26.7019 3.19476 26.5583 3.31293 26.1876 3.3094C24.3576 3.29705 22.5258 3.3094 20.6957 3.3094C20.0506 3.3094 20.047 3.3094 20.0451 3.95494C20.0451 4.66044 20.0633 5.36594 20.0451 6.07145C20.0306 6.47182 20.1833 6.61645 20.5903 6.61292C22.1187 6.60058 23.647 6.61292 25.1754 6.61292C25.8587 6.61292 25.8587 6.61292 25.8587 7.29373C25.8587 7.93751 25.8423 8.58304 25.8587 9.23387C25.8714 9.6025 25.7278 9.71538 25.3571 9.71185C23.7851 9.69774 22.2113 9.71185 20.6321 9.71185C20.0669 9.71185 20.0379 9.7436 20.0342 10.2798C20.0342 10.8812 20.0342 11.4809 20.0342 12.0806C20.0342 12.7438 20.0433 12.7526 20.7084 12.7526H26.2475C26.8981 12.7526 26.8981 12.7526 26.8981 13.3893C26.8981 14.026 26.8745 14.6239 26.8981 15.2342C26.9199 15.654 26.7836 15.7862 26.3402 15.7827C23.5707 15.7651 20.8029 15.7827 18.0334 15.7827C17.6699 15.7827 17.3065 15.7616 16.943 15.7827C16.5487 15.8127 16.4197 15.6857 16.4233 15.2924C16.4596 12.8478 16.4524 10.4315 16.4524 8.01511Z" fill="#222757"/>
<path d="M49.548 8.04682C49.548 5.64458 49.5589 3.2441 49.548 0.841855C49.548 0.411497 49.6861 0.300381 50.1168 0.302145C53.1577 0.318606 56.1986 0.318606 59.2396 0.302145C59.643 0.302145 59.8156 0.400914 59.7957 0.818925C59.7666 1.4627 59.7611 2.10823 59.7957 2.75906C59.8229 3.22646 59.6248 3.32347 59.1868 3.31994C57.3859 3.30054 55.585 3.31994 53.784 3.31994C53.1589 3.31994 53.1498 3.33052 53.148 3.93373C53.148 4.63923 53.148 5.34474 53.148 6.05024C53.148 6.57937 53.1843 6.61641 53.7495 6.61817C55.3069 6.61817 56.8662 6.63052 58.4236 6.61817C58.8379 6.61817 58.987 6.73458 58.9688 7.1473C58.9379 7.81929 58.9397 8.49481 58.9688 9.16681C58.987 9.58305 58.8543 9.72945 58.409 9.72416C56.8662 9.70123 55.3196 9.71357 53.7786 9.72416C53.1698 9.72416 53.1516 9.74708 53.1498 10.3503C53.1498 10.98 53.1698 11.6114 53.1498 12.2393C53.1316 12.652 53.3061 12.7684 53.7077 12.7684C55.5995 12.7561 57.4913 12.7684 59.3831 12.7684C60.0174 12.7684 60.0192 12.7684 60.021 13.3734C60.021 14.0171 60.0046 14.6627 60.021 15.3135C60.0337 15.6663 59.9374 15.8056 59.5448 15.8038C56.3658 15.7921 53.188 15.7921 50.0113 15.8038C49.6479 15.8038 49.5516 15.6804 49.5534 15.3435C49.5534 12.8795 49.548 10.4632 49.548 8.04682Z" fill="#222757"/>
<path d="M64.5538 8.03463C64.5538 5.63415 64.5538 3.23191 64.5538 0.829665C64.5538 0.432819 64.6629 0.300537 65.0863 0.300537C68.143 0.316999 71.1996 0.316999 74.2563 0.300537C74.6743 0.300537 74.8161 0.427528 74.8015 0.829665C74.7743 1.48755 74.7761 2.14719 74.8015 2.80508C74.8179 3.19487 74.6671 3.31304 74.2745 3.30951C72.4572 3.29364 70.6399 3.30951 68.8226 3.30951C68.1521 3.30951 68.1521 3.30951 68.1503 3.97798C68.1503 4.68348 68.1666 5.38899 68.1503 6.09449C68.1375 6.47546 68.2884 6.62362 68.6773 6.61304C70.251 6.60245 71.8248 6.61304 73.4022 6.60069C73.822 6.60069 74.0019 6.6977 73.9801 7.13864C73.9456 7.84414 73.9565 8.54965 73.9801 9.24633C73.991 9.59908 73.8529 9.70315 73.504 9.70138C71.9302 9.68904 70.3564 9.70138 68.779 9.70138C68.1884 9.70138 68.1611 9.73137 68.1593 10.294C68.1593 10.8937 68.1593 11.4951 68.1593 12.0948C68.1593 12.728 68.1757 12.7439 68.8136 12.7439H74.3508C75.0232 12.7439 75.0232 12.7439 75.0232 13.4035C75.0232 14.0632 75.0141 14.721 75.0232 15.3807C75.0232 15.6629 74.9251 15.7687 74.6289 15.7687C71.4062 15.7617 68.1836 15.7617 64.9609 15.7687C64.5775 15.7687 64.5611 15.5782 64.5611 15.2996C64.5599 12.8738 64.5575 10.4522 64.5538 8.03463Z" fill="#222757"/>
<path d="M111.039 4.75388C110.616 4.75388 110.192 4.75388 109.767 4.75388C109.458 4.75388 109.289 4.70802 109.222 4.34645C109.069 3.49103 108.337 3.04127 107.283 3.07831C106.354 3.11006 105.665 3.65153 105.542 4.44699C105.449 5.03432 105.642 5.50524 106.269 5.76804C107.079 6.1208 107.935 6.36772 108.778 6.6411C110.031 7.04677 111.261 7.48947 112.213 8.43132C113.165 9.37317 113.485 10.5637 113.304 11.8654C113.011 14.1406 111.288 15.3558 109.338 15.7756C107.69 16.1284 106.058 16.109 104.504 15.3999C102.95 14.6909 101.973 13.5021 101.778 11.7878C101.736 11.4121 101.858 11.2586 102.271 11.2586C103.132 11.2816 103.995 11.2674 104.857 11.2586C105.1 11.2586 105.311 11.2833 105.378 11.5655C105.536 12.2305 106.009 12.615 106.64 12.8337C107.326 13.0851 108.086 13.0706 108.762 12.7931C109.042 12.6946 109.285 12.5169 109.46 12.283C109.635 12.0491 109.734 11.7697 109.743 11.4809C109.767 11.1987 109.696 10.9167 109.542 10.6766C109.387 10.4365 109.157 10.251 108.886 10.1475C108.22 9.87179 107.541 9.62867 106.85 9.41903C105.747 9.06628 104.622 8.78231 103.654 8.11208C100.975 6.2619 101.369 2.18584 104.488 0.704286C106.418 -0.209342 108.399 -0.244618 110.345 0.660192C111.893 1.37981 112.66 2.65148 112.853 4.2759C112.893 4.61807 112.762 4.75741 112.4 4.73977C111.948 4.73801 111.493 4.75388 111.039 4.75388Z" fill="#868AC3"/>
<path d="M11.8934 39.7307H7.78682L4.24124 34.3001H3.52315V39.7307H0V24.2693H6.3282C9.91866 24.2693 11.5344 26.8275 11.5344 29.3857C11.5344 31.5624 9.91866 33.6494 7.92146 34.0982L11.8934 39.7307ZM5.85695 27.3436H3.52315V31.5175H5.7672C7.31558 31.5175 7.98878 30.5077 7.98878 29.4755C7.98878 28.4432 7.29313 27.3436 5.85695 27.3436Z" fill="#868AC3"/>
<path d="M19.7162 33.6943V36.6564H26.3136V39.7307H16.193V24.2693H26.1117V27.3436H19.7162V30.5302H25.3263V33.6943H19.7162Z" fill="#868AC3"/>
<path d="M42.6974 33.5596L45.5473 24.2693H49.3847L44.1336 39.7307H41.3959L39.3313 31.8766L37.3342 39.7307H34.574L29.3678 24.2693H33.1602L36.0102 33.5147L37.9176 26.4684H40.8124L42.6974 33.5596Z" fill="#868AC3"/>
<path d="M65.5021 39.7307H61.7546L60.5877 36.1403H55.1571L54.0126 39.7307H50.2426L55.965 24.2693H59.8023L65.5021 39.7307ZM57.8499 27.6353L56.122 33.0884H59.6003L57.8499 27.6353Z" fill="#868AC3"/>
<path d="M80.7635 39.7307H76.6569L73.1113 34.3001H72.3932V39.7307H68.8701V24.2693H75.1983C78.7887 24.2693 80.4045 26.8275 80.4045 29.3857C80.4045 31.5624 78.7888 33.6494 76.7916 34.0982L80.7635 39.7307ZM74.727 27.3436H72.3932V31.5175H74.6373C76.1857 31.5175 76.8589 30.5077 76.8589 29.4755C76.8589 28.4432 76.1632 27.3436 74.727 27.3436Z" fill="#868AC3"/>
<path d="M85.0631 24.2693H91.1669C95.6325 24.2693 98.2132 27.6353 98.2132 32.0337C98.2132 36.4095 95.6325 39.7307 91.1669 39.7307H85.0631V24.2693ZM88.5863 36.6564H91.1669C93.4783 36.6564 94.6676 34.4348 94.6676 32.0337C94.6676 29.6101 93.4783 27.3436 91.1669 27.3436H88.5863V36.6564Z" fill="#868AC3"/>
<path d="M107.504 40C104.205 40 101.917 38.0701 101.917 35.2202H105.44C105.44 36.2076 106.427 36.9705 107.639 36.9705C108.783 36.9705 109.658 36.3871 109.658 35.3773C109.658 34.7714 109.322 34.2104 107.953 33.7616L106.113 33.2006C102.702 32.2805 102.051 30.1935 102.051 28.7349C102.051 25.9523 104.43 24 107.504 24C110.466 24 112.733 25.7728 112.733 28.7798H109.21C109.21 27.8597 108.649 27.0743 107.437 27.0743C106.337 27.0743 105.619 27.8149 105.619 28.6676C105.619 28.9818 105.709 29.6774 107.145 30.0813L108.761 30.5975C110.96 31.2707 113.204 32.3927 113.204 35.1978C113.204 38.5189 110.332 40 107.504 40Z" fill="#868AC3"/>
</svg>
