<svg width="38" height="44" viewBox="0 0 38 44" fill="none" xmlns="http://www.w3.org/2000/svg">
<g clip-path="url(#clip0_1644_21347)">
<path d="M34.2 1.34825e-06H3.8C2.79218 1.34825e-06 1.82563 0.409031 1.113 1.13711C0.400358 1.8652 0 2.85269 0 3.88235V15.7882C0 16.1315 0.133456 16.4606 0.371002 16.7033C0.608548 16.946 0.930726 17.0824 1.26667 17.0824H2.70275C3.96942 17.0824 5.02234 18.0885 5.06509 19.326C5.07753 19.6389 5.02782 19.9512 4.91897 20.2439C4.81013 20.5367 4.64439 20.8039 4.43175 21.0294C4.21961 21.2556 3.96465 21.4353 3.68239 21.5577C3.40013 21.6801 3.09646 21.7425 2.78984 21.7412H1.26984C0.933896 21.7412 0.611713 21.8775 0.374167 22.1202C0.136621 22.3629 0.00316976 22.6921 0.00316976 23.0353V34.9412C0.00316976 35.9708 0.403523 36.9583 1.11616 37.6864C1.8288 38.4145 2.79535 38.8235 3.80317 38.8235H23.4998L25.3048 41.3163C25.327 41.3471 25.3523 41.3778 25.3777 41.4069L25.4014 41.4344C26.3514 42.5182 27.6355 44 30.0723 44C30.8851 43.9956 31.6881 43.8175 32.4295 43.4771C33.171 43.1366 33.8345 42.6414 34.3773 42.0232C35.2239 41.0752 35.6705 39.8243 35.6203 38.5421C36.3237 38.2532 36.9265 37.756 37.3512 37.1143C37.7758 36.4726 38.0029 35.7158 38.0032 34.9412V3.88235C38.0032 3.37224 37.9048 2.86713 37.7136 2.39589C37.5224 1.92465 37.2423 1.49652 36.8891 1.13597C36.5359 0.775416 36.1166 0.489508 35.6552 0.294592C35.1938 0.0996758 34.6993 -0.000423744 34.2 1.34825e-06Z" fill="#303778"/>
<path d="M27.3045 39.7293C28.2133 40.7726 28.8387 41.4116 30.069 41.4116C30.5233 41.4097 30.9722 41.3105 31.3867 41.1205C31.8012 40.9305 32.1722 40.6538 32.4756 40.3084C32.6974 40.0683 32.8658 39.7821 32.9693 39.4695C33.0729 39.1568 33.1092 38.8249 33.0757 38.4966C32.797 36.2157 30.81 25.1252 29.5544 18.1968C28.5169 20.1304 26.99 21.7438 25.1332 22.8682C23.2765 23.9925 21.1582 24.5865 18.9999 24.5881C18.9719 24.5897 18.9439 24.5897 18.916 24.5881C18.5154 24.5606 17.9834 24.6269 17.719 25.0928C17.4688 25.5296 17.5337 26.1653 17.8773 26.7202L27.3045 39.7293Z" fill="#868AC3"/>
<path d="M2.53345 24.3294V34.9412C2.53345 35.2844 2.6669 35.6136 2.90445 35.8563C3.142 36.099 3.46417 36.2353 3.80011 36.2353H21.6237L15.8239 28.2263L15.786 28.1697C14.8835 26.7737 14.7853 25.0962 15.5295 23.7875C16.2182 22.5775 17.526 21.9094 19.0381 22C20.2904 21.9987 21.53 21.7428 22.6845 21.247C23.839 20.7513 24.8853 20.0257 25.7625 19.1125C26.6495 18.1996 27.3486 17.1146 27.8188 15.9214C28.2889 14.7281 28.5206 13.4508 28.5001 12.1647C28.432 6.88472 24.1 2.58826 18.8418 2.58826H3.80011C3.46417 2.58826 3.142 2.7246 2.90445 2.96729C2.6669 3.20999 2.53345 3.53915 2.53345 3.88237V14.4941H2.70287C5.31062 14.4941 7.5067 16.6197 7.59695 19.2338C7.62266 19.8946 7.51662 20.5539 7.28526 21.1715C7.0539 21.7891 6.70206 22.3522 6.25112 22.8266C5.80348 23.3039 5.26556 23.6832 4.67002 23.9416C4.07449 24.1999 3.43377 24.3319 2.78678 24.3294H2.53345Z" fill="#DFE1F2"/>
</g>
<defs>
<clipPath id="clip0_1644_21347">
<rect width="38" height="44" fill="white"/>
</clipPath>
</defs>
</svg>
