<svg width="108" height="112" viewBox="0 0 108 112" fill="none" xmlns="http://www.w3.org/2000/svg">
<g clip-path="url(#clip0_1600_65938)">
<circle cx="54" cy="57.9961" r="54" fill="white"/>
<mask id="mask0_1600_65938" style="mask-type:alpha" maskUnits="userSpaceOnUse" x="-2" y="-2" width="111" height="114">
<path fill-rule="evenodd" clip-rule="evenodd" d="M108.722 -1.40039H-1.07812V63.0396H0.232059C2.77352 90.5001 25.876 112 54 112C82.124 112 105.226 90.5001 107.768 63.0396H108.722V-1.40039Z" fill="#D9D9D9"/>
</mask>
<g mask="url(#mask0_1600_65938)">
<path d="M13.556 142.131C11.343 130.488 15.4172 116.146 19.1396 113.411C19.1396 113.411 24.3327 110.015 32.01 109.55C39.6874 109.084 45.6612 110.48 45.6612 110.48C51.2447 127.673 65.6687 154.178 65.6687 162.919C65.6687 166.438 72.0252 210.053 77.6087 212.379L64.0403 218.748C64.0403 218.748 53.1059 177.017 51.0121 169.968C48.9182 162.919 37.5186 143.464 37.5186 143.464C37.5186 143.464 32.4003 170.532 27.98 178.427C23.5597 186.322 -3.19452 214.519 -3.19452 214.519L-13.6636 205.496C-1.1007 188.296 13.3422 175.008 14.5616 168.409C16.3544 158.707 14.9248 149.332 13.556 142.131Z" fill="#BABECB" stroke="black" stroke-width="0.884056" stroke-linecap="round" stroke-linejoin="round"/>
<path d="M58.5599 56.9722C48.3234 58.1354 43.8393 56.7395 32.9688 53.7151C32.9688 53.7151 30.875 54.4131 26.4547 53.9478C22.0344 53.4825 20.7024 51.3887 20.7024 51.3887C18.1783 53.4049 11.5353 65.1148 11.5353 77.4451C11.5353 89.7753 9.99987 115.413 6.64977 115.599C3.29966 115.785 21.9296 118.158 27.4492 115.599C32.9688 113.04 45.3629 111.877 52.575 114.436C52.3764 107.882 50.4036 92.1815 45.7743 79.2264L47.6255 77.4451L44.8772 76.8096C44.0792 74.74 43.6817 73.1582 42.7399 71.1636C45.7743 72.3268 55.0702 71.1636 59.2578 69.7677C56.2334 62.323 58.5599 56.9722 58.5599 56.9722Z" fill="#868AC3"/>
<path d="M47.6255 77.4451L44.8772 76.8096M47.6255 77.4451C46.7818 77.3004 45.8582 77.0858 44.8772 76.8096M47.6255 77.4451L45.7743 79.2264M21.1038 61.1598C23.6063 67.416 36.3901 74.42 44.8772 76.8096M18.7774 75.1186C20.7024 80.2368 35.9932 91.8691 36.2259 89.7753C36.4585 87.6815 45.7743 79.2264 45.7743 79.2264M42.7399 71.1636C40.7544 66.9585 39.3666 61.5912 36.6912 58.1354C38.9247 60.3688 41.3458 68.2167 42.7399 71.1636ZM42.7399 71.1636C45.7743 72.3268 55.0702 71.1636 59.2578 69.7677C56.2334 62.323 58.5599 56.9722 58.5599 56.9722C48.3234 58.1354 43.8393 56.7395 32.9688 53.7151C32.9688 53.7151 30.875 54.4131 26.4547 53.9478C22.0344 53.4825 20.7024 51.3887 20.7024 51.3887C18.1783 53.4049 11.5353 65.1148 11.5353 77.4451C11.5353 89.7753 9.99987 115.413 6.64977 115.599C3.29966 115.785 21.9296 118.158 27.4492 115.599C32.9688 113.04 45.3629 111.877 52.575 114.436C52.3764 107.882 50.4036 92.1815 45.7743 79.2264M42.7399 71.1636C43.6817 73.1582 44.0792 74.74 44.8772 76.8096" stroke="black" stroke-width="0.884056" stroke-linecap="round" stroke-linejoin="round"/>
<ellipse cx="59.4896" cy="63.2546" rx="1.39588" ry="6.74674" fill="black"/>
<path d="M41.543 85.5884C40.2402 87.2634 37.2778 89.3882 35.9595 90.2413C35.0289 89.8691 39.0176 86.519 40.4135 84.4252C41.8094 84.4252 42.8458 83.9133 41.543 85.5884Z" fill="black" stroke="black" stroke-width="0.884056" stroke-linecap="round" stroke-linejoin="round"/>
<path d="M35.9692 91.1723C33.7358 90.9862 25.1124 83.1072 21.3125 78.6094C25.0348 82.3317 32.3244 87.605 35.5039 89.7764L40.1568 86.2867L48.2995 88.8458L40.3895 87.6826C39.2263 88.9234 38.2026 91.3584 35.9692 91.1723Z" fill="black" stroke="black" stroke-width="0.884056" stroke-linecap="round" stroke-linejoin="round"/>
<path d="M73.1186 54.6829C71.3198 57.345 63.0605 57.2441 58.6361 56.8838C56.5889 61.473 58.0407 66.2135 58.9275 68.2225C61.477 69.3598 75.0112 69.2833 78.7274 63.8082C80.8179 60.7284 89.1379 40.0907 92.0486 30.52C94.6241 29.8857 94.9606 25.7051 95.0814 23.721C95.1193 23.0993 94.4473 22.4876 93.7584 22.1194C93.3745 21.9141 98.4451 15.0392 96.4154 13.879C94.3856 12.7189 91.2548 22.0215 90.1953 21.5414C89.1358 21.0614 93.0161 12.3627 89.5908 12.6179C88.0348 12.7339 87.7608 20.7176 85.724 26.425C87.0674 28.5527 75.3672 51.3553 73.1186 54.6829Z" fill="#D98F6F" stroke="black" stroke-width="0.884056" stroke-linecap="round" stroke-linejoin="round"/>
<path d="M89.8793 24.2989C89.8081 25.3146 92.1407 25.8182 93.8069 25.9348C95.473 26.0515 95.8606 25.4694 95.913 24.7214C95.9654 23.9735 95.6628 23.343 93.9966 23.2263C92.3305 23.1097 89.9505 23.2832 89.8793 24.2989Z" fill="#D98F6F" stroke="black" stroke-width="0.884056" stroke-linecap="round" stroke-linejoin="round"/>
<path d="M89.3507 26.6977C89.2884 27.5861 91.3286 28.0265 92.7859 28.1286C94.2432 28.2306 94.5822 27.7215 94.628 27.0673C94.6738 26.4131 94.4092 25.8617 92.9519 25.7596C91.4946 25.6576 89.4129 25.8094 89.3507 26.6977Z" fill="#D98F6F" stroke="black" stroke-width="0.884056" stroke-linecap="round" stroke-linejoin="round"/>
<path d="M90.3006 26.3058C89.4761 27.1575 87.5042 25.7983 86.3043 24.6365C85.1044 23.4747 85.3481 22.7256 85.9553 22.0985C86.5625 21.4713 87.3033 21.2035 88.5032 22.3653C89.7031 23.5272 91.1252 25.4542 90.3006 26.3058Z" fill="#D98F6F" stroke="black" stroke-width="0.884056" stroke-linecap="round" stroke-linejoin="round"/>
<path d="M45.4362 39.766V21.8522C45.4362 20.6792 43.575 12.5409 32.1753 12.3082C20.7757 12.0756 19.6124 21.3814 19.6124 21.3814C19.6124 25.8375 21.0231 28.3398 22.7699 29.6961C20.8457 28.5387 17.9322 27.6231 17.286 30.6927C16.5415 34.229 20.3879 35.5783 22.4042 35.811C23.8931 43.814 22.4042 49.6922 21.4736 51.6309C23.3348 55.3533 29.8489 54.7329 32.8733 53.9574V48.1412C45.3431 48.5135 45.4362 43.9536 45.4362 39.766Z" fill="#D98F6F" stroke="black" stroke-width="0.884056" stroke-linejoin="round"/>
<path d="M32.9448 48.3643C31.3148 48.2902 28.637 47.8056 27.9146 46.4639C27.8843 46.3978 27.855 46.3333 27.8266 46.2705C27.8515 46.3369 27.8809 46.4013 27.9146 46.4639C29.0445 48.9275 31.4948 53.5853 32.9448 53.9478V48.3643Z" fill="black" stroke="black" stroke-width="0.884056" stroke-linecap="round" stroke-linejoin="round"/>
<path d="M25.3888 25.563C33.8417 26.6487 45.937 26.0815 49.2871 14.17C50.2177 12.3089 49.985 6.72538 46.728 5.56222C44.7296 4.84854 42.773 10.4477 38.3528 11.1456C40.4466 9.33888 39.9813 5.05029 37.1895 4.86417C33.6998 4.63153 29.2796 12.5295 21.6665 12.5295C20.5033 12.0642 17.2462 10.9009 15.6177 12.5295C13.9928 14.1544 18.5672 18.3287 17.2009 31.2943C17.1973 31.3231 17.1942 31.3519 17.1917 31.3808C17.1948 31.3519 17.1978 31.3231 17.2009 31.2943C17.4576 29.2365 20.4019 27.4643 23.7058 30.2176C24.6364 29.0543 24.9236 27.8895 25.3888 25.563Z" fill="black" stroke="black" stroke-width="0.884056" stroke-linecap="round" stroke-linejoin="round"/>
<path d="M29.0469 16.2637C31.1407 15.3331 34.3977 13.7045 36.2589 10.2148M36.2589 18.1248C39.2833 18.1248 43.9362 16.2637 46.728 10.9128" stroke="white" stroke-width="0.884056" stroke-linecap="round" stroke-linejoin="round"/>
<path d="M35.147 34.7411C35.5215 33.512 36.8215 32.8193 38.0505 33.1937C39.2796 33.5682 39.9724 34.8682 39.5979 36.0973C39.3761 36.8254 38.8295 37.3653 38.1652 37.6066" stroke="black" stroke-width="0.697939" stroke-linecap="round" stroke-linejoin="round"/>
<circle cx="0.697939" cy="0.697939" r="0.697939" transform="matrix(-1 0 0 1 34.1831 32.6379)" fill="black"/>
<circle cx="0.697939" cy="0.697939" r="0.697939" transform="matrix(-1 0 0 1 41.7868 32.312)" fill="black"/>
<path d="M33.8768 28.5897C33.4115 27.6591 31.0851 27.6591 30.8524 29.7529" stroke="black" stroke-width="0.697939" stroke-linecap="round" stroke-linejoin="round"/>
<path d="M39.9257 29.1477C40.1583 28.3568 42.4848 27.8915 42.4848 29.8404" stroke="black" stroke-width="0.697939" stroke-linecap="round" stroke-linejoin="round"/>
<path d="M35.0884 43.5028C32.1963 42.7013 31.0077 38.7787 30.7749 36.9175C33.1528 39.0338 37.8728 40.6534 41.9278 38.663C41.4342 42.389 38.5298 44.4565 35.0884 43.5028Z" fill="black" stroke="black" stroke-width="0.697939" stroke-linecap="round" stroke-linejoin="round"/>
<path d="M35.9723 42.1998C37.4583 41.2461 38.8869 42.0193 39.4155 42.5251C35.4957 44.4812 33.5277 42.3408 33.0337 41.0261C34.1589 40.1641 35.4616 41.4494 35.9723 42.1998Z" fill="white"/>
<path d="M32.0154 64.4176C35.4936 64.6065 33.1556 57.533 32.8657 52.8114L21.779 51.3894C21.9964 58.2357 27.6677 64.1815 32.0154 64.4176Z" fill="#D98F6F" stroke="black" stroke-width="0.884056" stroke-linecap="round" stroke-linejoin="round"/>
<path d="M22.2443 52.0873V50.9241L30.1542 51.8547L32.946 54.1811L22.2443 52.0873Z" fill="#D98F6F"/>
<path d="M32.946 55.1116C32.946 55.1116 29.9386 52.4391 29.689 51.1566C29.4394 49.8741 32.946 52.8032 32.946 52.8032V55.1116Z" fill="black"/>
<path d="M37.95 50.1749C44.6354 49.8426 45.9742 44.4104 44.868 36.7381C44.5923 39.0308 42.9462 39.945 41.8436 41.6236C41.5589 42.0571 41.7137 43.5835 41.3783 43.9501C40.6804 45.8113 38.9588 46.305 37.0337 46.3764C35.2201 46.4437 34.1663 46.1746 33.2357 44.8807C32.3051 43.5868 32.7028 42.322 31.8398 41.8563C26.9766 39.2317 22.8511 36.3923 21.8458 35.5698C21.8458 38.3616 22.7666 50.9295 37.95 50.1749Z" fill="black" stroke="black" stroke-width="0.884056" stroke-linecap="round" stroke-linejoin="round"/>
<path d="M35.0968 37.4358L37.4232 37.6684C37.4232 37.6684 34.1662 39.297 33.3336 40.2275C32.5009 41.1581 32.5377 43.2519 32.5377 43.2519C32.5377 43.2519 32.305 40.4602 33.0029 39.297C33.7009 38.1337 35.0968 37.4358 35.0968 37.4358Z" fill="black" stroke="black" stroke-width="0.884056" stroke-linecap="round" stroke-linejoin="round"/>
<path d="M39.9451 37.4358L37.6186 37.6684C37.6186 37.6684 40.313 39.0643 41.1457 39.9949C41.9783 40.9255 41.611 43.2519 41.611 43.2519C41.611 43.2519 42.7369 40.4602 42.0389 39.297C41.341 38.1337 39.9451 37.4358 39.9451 37.4358Z" fill="black" stroke="black" stroke-width="0.884056" stroke-linecap="round" stroke-linejoin="round"/>
<path d="M36.7255 47.9045L37.1908 48.3698" stroke="white" stroke-width="0.884056" stroke-linecap="round" stroke-linejoin="round"/>
<path d="M33.248 47.8086L33.2234 48.4662" stroke="white" stroke-width="0.884056" stroke-linecap="round" stroke-linejoin="round"/>
<path d="M31.4832 47.9045L31.4585 48.5621" stroke="white" stroke-width="0.884056" stroke-linecap="round" stroke-linejoin="round"/>
<path d="M39.0519 46.9739L38.5866 47.4392" stroke="white" stroke-width="0.884056" stroke-linecap="round" stroke-linejoin="round"/>
<path d="M28.9357 46.5833L29.3527 47.0922" stroke="white" stroke-width="0.884056" stroke-linecap="round" stroke-linejoin="round"/>
<path d="M40.8049 46.9021L40.5559 47.5112" stroke="white" stroke-width="0.884056" stroke-linecap="round" stroke-linejoin="round"/>
<path d="M24.6181 36.6499L24.8664 37.2593" stroke="black" stroke-width="0.884056" stroke-linecap="round" stroke-linejoin="round"/>
<path d="M28.457 38.6465L28.0021 39.122" stroke="black" stroke-width="0.884056" stroke-linecap="round" stroke-linejoin="round"/>
<path d="M31.0106 40.0588L31.2787 40.6598" stroke="black" stroke-width="0.884056" stroke-linecap="round" stroke-linejoin="round"/>
<path d="M36.0153 45.1184L36.2131 45.746" stroke="black" stroke-width="0.884056" stroke-linecap="round" stroke-linejoin="round"/>
<path d="M29.7469 39.7297L29.6622 40.3823" stroke="black" stroke-width="0.884056" stroke-linecap="round" stroke-linejoin="round"/>
<path d="M34.7975 45.1128L34.639 45.7514" stroke="black" stroke-width="0.884056" stroke-linecap="round" stroke-linejoin="round"/>
<path d="M26.2952 37.8435L26.2537 38.5002" stroke="black" stroke-width="0.884056" stroke-linecap="round" stroke-linejoin="round"/>
<path d="M27.809 37.7212L27.5291 38.3167" stroke="black" stroke-width="0.884056" stroke-linecap="round" stroke-linejoin="round"/>
<path d="M42.8929 38.5986L43.2241 39.1672" stroke="black" stroke-width="0.884056" stroke-linecap="round" stroke-linejoin="round"/>
<path d="M40.4583 42.9304L41.0317 43.2531" stroke="black" stroke-width="0.884056" stroke-linecap="round" stroke-linejoin="round"/>
<path d="M38.4258 45.0242L38.3441 45.6771" stroke="black" stroke-width="0.884056" stroke-linecap="round" stroke-linejoin="round"/>
<path d="M39.539 44.3416L39.8098 44.9413" stroke="black" stroke-width="0.884056" stroke-linecap="round" stroke-linejoin="round"/>
<path d="M43.2396 37.728L43.7609 38.1296" stroke="black" stroke-width="0.884056" stroke-linecap="round" stroke-linejoin="round"/>
<path d="M80.7523 33.8256L80.7523 33.8256L65.5167 68.3686L65.6545 68.4306L65.5167 68.3686C65.1503 69.1997 65.1179 70.1412 65.4278 70.9867C65.7377 71.8323 66.365 72.5126 67.1726 72.8768L80.5025 78.8861C80.9026 79.0664 81.3347 79.1635 81.774 79.1718C82.2133 79.1801 82.6509 79.0995 83.0621 78.9349C83.4732 78.7703 83.8497 78.5249 84.1703 78.2129C84.4909 77.9009 84.7494 77.5284 84.9311 77.1165L100.166 42.5746C100.348 42.163 100.449 41.7201 100.465 41.2709C100.48 40.8218 100.409 40.3751 100.256 39.9564C100.102 39.5376 99.8691 39.1551 99.5696 38.8307C99.2702 38.5063 98.9102 38.2466 98.5104 38.0664C98.5104 38.0664 98.5103 38.0664 98.5103 38.0664L85.1805 32.0571L85.1805 32.0571C84.3723 31.6929 83.4517 31.6759 82.6214 32.0081C81.7914 32.3402 81.1195 32.9943 80.7523 33.8256Z" fill="black" stroke="black" stroke-width="0.302176"/>
<path d="M95.3124 37.9933L95.3124 37.9933L97.8967 39.1593C97.8967 39.1594 97.8968 39.1594 97.8969 39.1594L97.8971 39.1595L95.3124 37.9933ZM95.3124 37.9933L95.3089 37.9918C95.0987 37.9033 94.8623 37.9049 94.6519 37.9947L94.7113 38.1342L94.6519 37.9947C94.442 38.0843 94.2749 38.2543 94.1859 38.4669L93.9749 38.9507L93.9748 38.9507L93.9738 38.9531C93.9447 39.0234 93.9024 39.0872 93.8496 39.1409C93.7968 39.1946 93.7346 39.2371 93.6667 39.2661C93.5988 39.2951 93.5265 39.31 93.454 39.3103L93.4554 39.4618L93.454 39.3103C93.3821 39.3106 93.3112 39.2965 93.2454 39.2688L88.2113 36.9993C88.081 36.9363 87.9801 36.8222 87.9317 36.6806C87.883 36.5382 87.8914 36.3798 87.9563 36.2404L87.9563 36.2404L87.9578 36.237L88.169 35.7527C88.2658 35.5438 88.279 35.3047 88.2047 35.0874C88.1301 34.8692 87.9731 34.6905 87.7673 34.5918L87.7673 34.5917L87.7634 34.59L86.8528 34.1847L86.8525 34.1845L84.5909 33.1661C84.5909 33.1661 84.5909 33.1661 84.5909 33.1661C84.5909 33.1661 84.5908 33.1661 84.5908 33.1661C84.3051 33.0372 83.9965 32.9679 83.6829 32.9618C83.3692 32.9558 83.0568 33.0132 82.7634 33.1306C82.4699 33.248 82.2013 33.423 81.9725 33.6454C81.7438 33.8678 81.5594 34.1335 81.4297 34.4271L81.4297 34.4272L66.5578 68.1441L66.5577 68.1444C66.4287 68.4385 66.3571 68.7548 66.3468 69.0755C66.3366 69.3962 66.388 69.7151 66.4984 70.0139C66.6088 70.3127 66.776 70.5856 66.9907 70.8168C67.2054 71.0481 67.4632 71.2331 67.7495 71.361L81.0533 77.3586C81.339 77.4875 81.6475 77.5568 81.9611 77.5628C82.2747 77.5688 82.5871 77.5113 82.8805 77.3939C83.1738 77.2765 83.4424 77.1014 83.671 76.8789C83.8996 76.6564 84.0839 76.3908 84.2134 76.0971L99.0821 42.3844C99.0822 42.3844 99.0822 42.3843 99.0822 42.3843M95.3124 37.9933L99.0822 42.3843M99.0822 42.3843L99.0823 42.3841L98.9445 42.322L99.0822 42.3843Z" fill="black" stroke="black" stroke-width="0.302176"/>
<path d="M99.9273 42.149C100.112 41.7313 100.213 41.2809 100.224 40.8236C100.236 40.3662 100.158 39.9108 99.9955 39.4833C99.8327 39.0558 99.588 38.6646 99.2754 38.332C98.9629 37.9995 98.5885 37.7322 98.1737 37.5454C98.1737 37.5454 98.1737 37.5454 98.1737 37.5454L84.5041 31.3845L84.504 31.3845C83.6659 31.007 82.7142 30.9805 81.8582 31.3105C81.0023 31.6404 80.3122 32.2999 79.9395 33.1436L79.9394 33.1437L64.7007 67.6841L64.7007 67.6841C64.3288 68.5276 64.3043 69.4863 64.633 70.3496C64.9617 71.2129 65.6168 71.91 66.4543 72.2876L80.1239 78.4485C80.5391 78.6355 80.9864 78.7382 81.4405 78.7509C81.8946 78.7635 82.3465 78.6858 82.7704 78.5223C83.1942 78.3588 83.5818 78.1127 83.911 77.798C84.2402 77.4833 84.5046 77.1062 84.689 76.6883L99.9273 42.149ZM99.9273 42.149L99.7465 42.0675M99.9273 42.149L99.9273 42.1489L99.7465 42.0675M99.7465 42.0675L84.5082 76.6068C84.3342 77.0011 84.0849 77.3567 83.7744 77.6535C83.4639 77.9503 83.0984 78.1824 82.6987 78.3366C82.299 78.4908 81.873 78.564 81.445 78.5521C81.017 78.5401 80.5953 78.4433 80.2041 78.2671L66.5344 72.1062C65.7451 71.7504 65.1276 71.0932 64.8177 70.2793C64.5077 69.4653 64.5307 68.5612 64.8816 67.7655L98.0936 37.7268C98.4845 37.9029 98.8374 38.1548 99.132 38.4683C99.4267 38.7817 99.6573 39.1505 99.8108 39.5536C99.9643 39.9566 100.038 40.3861 100.027 40.8175C100.016 41.2488 99.9203 41.6736 99.7465 42.0675Z" fill="#0D4FCA" stroke="black" stroke-width="0.39665"/>
<path d="M97.543 38.6365L94.8925 37.441C94.7161 37.3666 94.5178 37.3657 94.341 37.4385C94.1642 37.5114 94.0235 37.652 93.9495 37.8295L93.738 38.3144C93.7015 38.4024 93.6482 38.4822 93.581 38.5494C93.5139 38.6166 93.4342 38.6697 93.3467 38.7058C93.2591 38.7419 93.1653 38.7602 93.0707 38.7597C92.976 38.7592 92.8824 38.7399 92.795 38.7029L87.6291 36.3746C87.4563 36.2918 87.323 36.1434 87.2584 35.9619C87.1938 35.7804 87.2032 35.5806 87.2844 35.4063L87.4964 34.9204C87.5777 34.7461 87.587 34.5463 87.5224 34.3648C87.4578 34.1833 87.3245 34.0349 87.1517 33.9521L86.2177 33.5364L83.8977 32.4919C83.6238 32.3684 83.3286 32.3005 83.0288 32.2921C82.7291 32.2836 82.4308 32.3348 82.1509 32.4427C81.8709 32.5505 81.6149 32.713 81.3975 32.9207C81.18 33.1285 81.0053 33.3775 80.8834 33.6535L66.0085 67.368C65.8872 67.6444 65.8212 67.9423 65.8142 68.2447C65.8072 68.5471 65.8593 68.848 65.9676 69.1303C66.0759 69.4126 66.2383 69.6706 66.4454 69.8898C66.6525 70.1089 66.9004 70.2849 67.1747 70.4075L80.8181 76.5565C81.0919 76.68 81.3872 76.7478 81.6868 76.7563C81.9865 76.7647 82.2848 76.7135 82.5646 76.6055C82.8444 76.4976 83.1004 76.3351 83.3177 76.1273C83.5351 75.9195 83.7096 75.6705 83.8314 75.3944L98.7033 41.6839C98.8261 41.4074 98.8935 41.1091 98.9016 40.8061C98.9097 40.5031 98.8584 40.2014 98.7506 39.9182C98.6428 39.635 98.4806 39.3761 98.2734 39.1561C98.0661 38.9362 97.8179 38.7596 97.543 38.6365Z" fill="#DDEAFF"/>
<path fill-rule="evenodd" clip-rule="evenodd" d="M80.3634 37.1547L96.7381 44.426L88.7947 62.1181C88.7816 62.1104 88.7682 62.1031 88.7544 62.0963C88.4413 61.9417 88.0626 62.073 87.9085 62.3896C87.8757 62.4569 87.8558 62.5271 87.8476 62.5975L87.7914 62.7225L87.8481 62.7484C87.8731 62.9549 87.9976 63.1447 88.1963 63.2429C88.2222 63.2557 88.2485 63.2665 88.2751 63.2754L83.0012 75.0221L66.7455 67.6595L71.9894 55.9129C71.9983 55.9179 72.0074 55.9227 72.0166 55.9272C72.3297 56.0819 72.7084 55.9506 72.8625 55.634C73.0165 55.3173 72.8877 54.9353 72.5746 54.7807C72.5525 54.7698 72.5302 54.7603 72.5076 54.7522L80.3634 37.1547ZM74.3343 56.5758L73.4371 56.166L73.6449 55.7047L74.542 56.1145L74.3343 56.5758ZM76.1286 57.3954L75.2314 56.9856L75.4392 56.5243L76.3363 56.934L76.1286 57.3954ZM77.9228 58.2149L77.0257 57.8051L77.2334 57.3438L78.1306 57.7536L77.9228 58.2149ZM79.7171 59.0345L78.82 58.6247L79.0277 58.1634L79.9249 58.5732L79.7171 59.0345ZM81.5114 59.854L80.6142 59.4443L80.822 58.9829L81.7191 59.3927L81.5114 59.854ZM83.3057 60.6736L82.4085 60.2638L82.6163 59.8025L83.5134 60.2123L83.3057 60.6736ZM85.0999 61.4932L84.2028 61.0834L84.4105 60.6221L85.3077 61.0318L85.0999 61.4932ZM86.8942 62.3127L85.9971 61.9029L86.2048 61.4416L87.102 61.8514L86.8942 62.3127Z" fill="white"/>
<path d="M96.7381 44.426L96.7842 44.4467L96.805 44.4003L96.7586 44.3797L96.7381 44.426ZM80.3634 37.1547L80.384 37.1085L80.3378 37.088L80.3172 37.1341L80.3634 37.1547ZM88.7947 62.1181L88.7691 62.1617L88.8178 62.1903L88.8409 62.1388L88.7947 62.1181ZM88.7544 62.0963L88.7319 62.1417L88.732 62.1417L88.7544 62.0963ZM87.9085 62.3896L87.863 62.3674L87.9085 62.3896ZM87.8476 62.5975L87.8938 62.6183L87.897 62.6111L87.8979 62.6033L87.8476 62.5975ZM87.7914 62.7225L87.7452 62.7017L87.7246 62.7476L87.7703 62.7685L87.7914 62.7225ZM87.8481 62.7484L87.8983 62.7423L87.8949 62.7142L87.8691 62.7024L87.8481 62.7484ZM88.1963 63.2429L88.2188 63.1975L88.1963 63.2429ZM88.2751 63.2754L88.3213 63.2961L88.3442 63.2452L88.2912 63.2274L88.2751 63.2754ZM83.0012 75.0221L82.9803 75.0682L83.0265 75.0891L83.0473 75.0428L83.0012 75.0221ZM66.7455 67.6595L66.6993 67.6389L66.6788 67.6848L66.7246 67.7056L66.7455 67.6595ZM71.9894 55.9129L72.0139 55.8687L71.9657 55.8419L71.9432 55.8923L71.9894 55.9129ZM72.0166 55.9272L72.039 55.8819L72.039 55.8819L72.0166 55.9272ZM72.5746 54.7807L72.5522 54.826L72.5522 54.826L72.5746 54.7807ZM72.5076 54.7522L72.4614 54.7316L72.4391 54.7814L72.4905 54.7998L72.5076 54.7522ZM73.4371 56.166L73.391 56.1452L73.3703 56.1911L73.4161 56.212L73.4371 56.166ZM74.3343 56.5758L74.3133 56.6218L74.3595 56.643L74.3804 56.5966L74.3343 56.5758ZM73.6449 55.7047L73.6659 55.6587L73.6196 55.6375L73.5988 55.6839L73.6449 55.7047ZM74.542 56.1145L74.5882 56.1353L74.6088 56.0894L74.563 56.0685L74.542 56.1145ZM75.2314 56.9856L75.1853 56.9648L75.1646 57.0107L75.2104 57.0316L75.2314 56.9856ZM76.1286 57.3954L76.1075 57.4414L76.1538 57.4625L76.1747 57.4161L76.1286 57.3954ZM75.4392 56.5243L75.4602 56.4782L75.4139 56.4571L75.393 56.5035L75.4392 56.5243ZM76.3363 56.934L76.3824 56.9548L76.4031 56.9089L76.3573 56.888L76.3363 56.934ZM77.0257 57.8051L76.9796 57.7844L76.9589 57.8303L77.0047 57.8512L77.0257 57.8051ZM77.9228 58.2149L77.9018 58.2609L77.9481 58.2821L77.969 58.2357L77.9228 58.2149ZM77.2334 57.3438L77.2545 57.2978L77.2082 57.2767L77.1873 57.323L77.2334 57.3438ZM78.1306 57.7536L78.1767 57.7744L78.1974 57.7285L78.1516 57.7076L78.1306 57.7536ZM78.82 58.6247L78.7738 58.6039L78.7532 58.6498L78.799 58.6707L78.82 58.6247ZM79.7171 59.0345L79.6961 59.0805L79.7424 59.1016L79.7632 59.0553L79.7171 59.0345ZM79.0277 58.1634L79.0487 58.1174L79.0025 58.0962L78.9816 58.1426L79.0277 58.1634ZM79.9249 58.5732L79.971 58.5939L79.9917 58.548L79.9459 58.5271L79.9249 58.5732ZM80.6142 59.4443L80.5681 59.4235L80.5475 59.4694L80.5932 59.4903L80.6142 59.4443ZM81.5114 59.854L81.4904 59.9001L81.5366 59.9212L81.5575 59.8748L81.5114 59.854ZM80.822 58.9829L80.843 58.9369L80.7967 58.9158L80.7759 58.9622L80.822 58.9829ZM81.7191 59.3927L81.7653 59.4135L81.7859 59.3676L81.7402 59.3467L81.7191 59.3927ZM82.4085 60.2638L82.3624 60.243L82.3417 60.2889L82.3875 60.3098L82.4085 60.2638ZM83.3057 60.6736L83.2846 60.7196L83.3309 60.7408L83.3518 60.6944L83.3057 60.6736ZM82.6163 59.8025L82.6373 59.7565L82.591 59.7353L82.5701 59.7817L82.6163 59.8025ZM83.5134 60.2123L83.5595 60.233L83.5802 60.1872L83.5344 60.1663L83.5134 60.2123ZM84.2028 61.0834L84.1567 61.0626L84.136 61.1085L84.1818 61.1294L84.2028 61.0834ZM85.0999 61.4932L85.0789 61.5392L85.1252 61.5603L85.1461 61.5139L85.0999 61.4932ZM84.4105 60.6221L84.4316 60.576L84.3853 60.5549L84.3644 60.6013L84.4105 60.6221ZM85.3077 61.0318L85.3538 61.0526L85.3745 61.0067L85.3287 60.9858L85.3077 61.0318ZM85.9971 61.9029L85.9509 61.8822L85.9303 61.928L85.9761 61.949L85.9971 61.9029ZM86.8942 62.3127L86.8732 62.3587L86.9195 62.3799L86.9403 62.3335L86.8942 62.3127ZM86.2048 61.4416L86.2258 61.3956L86.1796 61.3745L86.1587 61.4208L86.2048 61.4416ZM87.102 61.8514L87.1481 61.8722L87.1688 61.8263L87.123 61.8054L87.102 61.8514ZM96.7586 44.3797L80.384 37.1085L80.3429 37.201L96.7175 44.4722L96.7586 44.3797ZM88.8409 62.1388L96.7842 44.4467L96.6919 44.4052L88.7486 62.0974L88.8409 62.1388ZM88.732 62.1417C88.7447 62.148 88.7571 62.1547 88.7691 62.1617L88.8204 62.0745C88.8062 62.0662 88.7917 62.0583 88.7768 62.051L88.732 62.1417ZM87.954 62.4117C88.096 62.12 88.4444 61.9996 88.7319 62.1417L88.7768 62.051C88.4382 61.8837 88.0292 62.026 87.863 62.3674L87.954 62.4117ZM87.8979 62.6033C87.9054 62.5385 87.9238 62.4738 87.954 62.4117L87.863 62.3674C87.8277 62.4399 87.8062 62.5157 87.7974 62.5917L87.8979 62.6033ZM87.8375 62.7433L87.8938 62.6183L87.8015 62.5767L87.7452 62.7017L87.8375 62.7433ZM87.8691 62.7024L87.8124 62.6765L87.7703 62.7685L87.8271 62.7944L87.8691 62.7024ZM88.2188 63.1975C88.0361 63.1073 87.9214 62.9328 87.8983 62.7423L87.7979 62.7545C87.8248 62.9771 87.9591 63.1821 88.1739 63.2882L88.2188 63.1975ZM88.2912 63.2274C88.2668 63.2192 88.2426 63.2093 88.2188 63.1975L88.1739 63.2882C88.2019 63.302 88.2303 63.3137 88.259 63.3234L88.2912 63.2274ZM83.0473 75.0428L88.3213 63.2961L88.229 63.2547L82.955 75.0014L83.0473 75.0428ZM66.7246 67.7056L82.9803 75.0682L83.022 74.976L66.7664 67.6134L66.7246 67.7056ZM71.9432 55.8923L66.6993 67.6389L66.7917 67.6801L72.0356 55.9336L71.9432 55.8923ZM72.039 55.8819C72.0305 55.8777 72.0221 55.8733 72.0139 55.8687L71.9648 55.9572C71.9744 55.9625 71.9842 55.9677 71.9942 55.9726L72.039 55.8819ZM72.817 55.6118C72.675 55.9036 72.3266 56.0239 72.039 55.8819L71.9942 55.9726C72.3328 56.1398 72.7418 55.9976 72.9079 55.6561L72.817 55.6118ZM72.5522 54.826C72.84 54.9682 72.959 55.3199 72.817 55.6118L72.9079 55.6561C73.074 55.3148 72.9354 54.9024 72.597 54.7353L72.5522 54.826ZM72.4905 54.7998C72.5113 54.8073 72.5319 54.816 72.5522 54.826L72.597 54.7353C72.5732 54.7235 72.549 54.7133 72.5246 54.7046L72.4905 54.7998ZM80.3172 37.1341L72.4614 54.7316L72.5538 54.7728L80.4096 37.1754L80.3172 37.1341ZM73.4161 56.212L74.3133 56.6218L74.3553 56.5298L73.4582 56.12L73.4161 56.212ZM73.5988 55.6839L73.391 56.1452L73.4833 56.1868L73.691 55.7255L73.5988 55.6839ZM74.563 56.0685L73.6659 55.6587L73.6239 55.7507L74.521 56.1605L74.563 56.0685ZM74.3804 56.5966L74.5882 56.1353L74.4959 56.0937L74.2882 56.555L74.3804 56.5966ZM75.2104 57.0316L76.1075 57.4414L76.1496 57.3493L75.2524 56.9396L75.2104 57.0316ZM75.393 56.5035L75.1853 56.9648L75.2776 57.0064L75.4853 56.545L75.393 56.5035ZM76.3573 56.888L75.4602 56.4782L75.4181 56.5703L76.3153 56.9801L76.3573 56.888ZM76.1747 57.4161L76.3824 56.9548L76.2902 56.9133L76.0824 57.3746L76.1747 57.4161ZM77.0047 57.8512L77.9018 58.2609L77.9439 58.1689L77.0467 57.7591L77.0047 57.8512ZM77.1873 57.323L76.9796 57.7844L77.0718 57.8259L77.2796 57.3646L77.1873 57.323ZM78.1516 57.7076L77.2545 57.2978L77.2124 57.3898L78.1096 57.7996L78.1516 57.7076ZM77.969 58.2357L78.1767 57.7744L78.0844 57.7328L77.8767 58.1941L77.969 58.2357ZM78.799 58.6707L79.6961 59.0805L79.7381 58.9885L78.841 58.5787L78.799 58.6707ZM78.9816 58.1426L78.7738 58.6039L78.8661 58.6455L79.0739 58.1842L78.9816 58.1426ZM79.9459 58.5271L79.0487 58.1174L79.0067 58.2094L79.9038 58.6192L79.9459 58.5271ZM79.7632 59.0553L79.971 58.5939L79.8787 58.5524L79.671 59.0137L79.7632 59.0553ZM80.5932 59.4903L81.4904 59.9001L81.5324 59.808L80.6353 59.3982L80.5932 59.4903ZM80.7759 58.9622L80.5681 59.4235L80.6604 59.465L80.8681 59.0037L80.7759 58.9622ZM81.7402 59.3467L80.843 58.9369L80.801 59.029L81.6981 59.4387L81.7402 59.3467ZM81.5575 59.8748L81.7653 59.4135L81.673 59.3719L81.4653 59.8333L81.5575 59.8748ZM82.3875 60.3098L83.2846 60.7196L83.3267 60.6276L82.4295 60.2178L82.3875 60.3098ZM82.5701 59.7817L82.3624 60.243L82.4547 60.2846L82.6624 59.8233L82.5701 59.7817ZM83.5344 60.1663L82.6373 59.7565L82.5952 59.8485L83.4924 60.2583L83.5344 60.1663ZM83.3518 60.6944L83.5595 60.233L83.4673 60.1915L83.2595 60.6528L83.3518 60.6944ZM84.1818 61.1294L85.0789 61.5392L85.121 61.4471L84.2238 61.0374L84.1818 61.1294ZM84.3644 60.6013L84.1567 61.0626L84.2489 61.1042L84.4567 60.6428L84.3644 60.6013ZM85.3287 60.9858L84.4316 60.576L84.3895 60.6681L85.2867 61.0779L85.3287 60.9858ZM85.1461 61.5139L85.3538 61.0526L85.2616 61.0111L85.0538 61.4724L85.1461 61.5139ZM85.9761 61.949L86.8732 62.3587L86.9152 62.2667L86.0181 61.8569L85.9761 61.949ZM86.1587 61.4208L85.9509 61.8822L86.0432 61.9237L86.251 61.4624L86.1587 61.4208ZM87.123 61.8054L86.2258 61.3956L86.1838 61.4876L87.0809 61.8974L87.123 61.8054ZM86.9403 62.3335L87.1481 61.8722L87.0558 61.8306L86.8481 62.2919L86.9403 62.3335Z" fill="white"/>
<path d="M85.246 57.5621L83.3359 56.7131L83.9017 55.4205L85.8118 56.2695L86.6605 54.3305L87.9339 54.8965L87.0852 56.8354C86.9351 57.1783 86.6571 57.4474 86.3122 57.5837C85.9672 57.72 85.5837 57.7122 85.246 57.5621Z" fill="#568DF4"/>
<path d="M77.5345 52.5894L78.3832 50.6505L79.6566 51.2165L78.8079 53.1554L80.718 54.0044L80.1522 55.297L78.2421 54.4481C77.9044 54.298 77.6401 54.0178 77.5074 53.6692C77.3747 53.3207 77.3845 52.9323 77.5345 52.5894Z" fill="#568DF4"/>
<path d="M81.0624 47.9827L79.7891 47.4167L80.6377 45.4778C80.7878 45.135 81.0659 44.8658 81.4108 44.7295C81.7557 44.5933 82.1392 44.601 82.4769 44.7511L84.387 45.6001L83.8212 46.8927L81.9111 46.0438L81.0624 47.9827Z" fill="#568DF4"/>
<path d="M88.915 49.1568L87.0049 48.3079L87.5707 47.0152L89.4808 47.8642C89.8185 48.0143 90.0828 48.2944 90.2155 48.643C90.3482 48.9916 90.3385 49.38 90.1884 49.7228L89.3397 51.6618L88.0663 51.0958L88.915 49.1568Z" fill="#568DF4"/>
<path d="M84.2109 52.0818L82.9375 51.5159L83.5033 50.2232L84.7767 50.7892L84.2109 52.0818Z" fill="#568DF4"/>
<path d="M84.9296 53.9471L83.6562 53.3811L84.222 52.0885L85.4954 52.6544L84.9296 53.9471Z" fill="#568DF4"/>
<path d="M82.375 52.8118L81.1016 52.2458L81.6674 50.9532L82.9407 51.5192L82.375 52.8118Z" fill="#568DF4"/>
<path d="M86.0625 51.3655L84.7891 50.7996L85.3549 49.5069L86.6282 50.0729L86.0625 51.3655Z" fill="#568DF4"/>
<path d="M83.5078 50.2278L82.2344 49.6619L82.8002 48.3692L84.0736 48.9352L83.5078 50.2278Z" fill="#568DF4"/>
<path d="M73.6633 59.797L74.0469 59.0317L76.9 60.5868L76.6443 61.0969L73.6633 59.797Z" fill="#BCBFE3"/>
<path d="M72.9946 61.1363L73.3782 60.371L78.1162 62.4257L77.9364 63.099L72.9946 61.1363Z" fill="#BCBFE3"/>
<path d="M71.8722 63.9999L71.6172 64.8491L73.4797 65.4029L73.6497 64.8368L71.8722 63.9999Z" fill="#BCBFE3"/>
<path d="M71.0201 65.9639L71.4378 65.2459L74.8084 66.8885L74.5637 67.5125L71.0201 65.9639Z" fill="#BCBFE3"/>
<path d="M82.4382 41.7957L82.7469 41.1861L91.404 45.2159L91.3918 45.8177L82.4382 41.7957Z" fill="#BCBFE3"/>
<path d="M81.0234 62.7698L81.3984 62L82.855 62.7683L82.6049 63.2815L81.0234 62.7698Z" fill="#BCBFE3"/>
<path d="M80.0234 64.1868L80.3984 63.417L85.0533 65.3484L84.8781 66.022L80.0234 64.1868Z" fill="#BCBFE3"/>
<path d="M79.0216 67.597L79.3125 67L82.7475 68.812L82.5536 69.21L79.0216 67.597Z" fill="#BCBFE3"/>
<path d="M78.0234 69.1868L78.3984 68.417L83.0639 70.354L82.889 71.0278L78.0234 69.1868Z" fill="#BCBFE3"/>
<path fill-rule="evenodd" clip-rule="evenodd" d="M91.9422 39.7895C92.0647 39.8452 92.1189 39.9897 92.0632 40.1122L90.833 42.8183C90.7773 42.9408 90.6328 42.9949 90.5103 42.9393L87.4606 41.5528C87.5 41.4174 87.4351 41.2701 87.3029 41.21C87.1708 41.15 87.0171 41.1979 86.941 41.3166L86.2294 40.9931C86.1069 40.9374 86.0527 40.7929 86.1084 40.6704L87.3386 37.9644C87.3943 37.8418 87.5388 37.7877 87.6613 37.8434L88.373 38.1669C88.3656 38.1785 88.359 38.1907 88.3531 38.2035C88.2872 38.3485 88.3513 38.5194 88.4963 38.5853C88.6412 38.6512 88.8122 38.5871 88.8781 38.4421C88.8839 38.4293 88.8887 38.4163 88.8926 38.4031L91.9422 39.7895Z" fill="#868AC3"/>
<path d="M90.0645 39.9827C89.9019 39.9119 89.7231 39.8927 89.5509 39.9275C89.3787 39.9622 89.2208 40.0494 89.097 40.178C88.9733 40.3066 88.8894 40.4709 88.8558 40.65C88.8223 40.8291 88.8406 41.015 88.9086 41.1842C88.9765 41.3534 89.091 41.4984 89.2375 41.6007C89.384 41.703 89.556 41.7581 89.7318 41.759C89.9075 41.7599 90.079 41.7066 90.2247 41.6058C90.3704 41.5051 90.4837 41.3613 90.5503 41.1928C90.6392 40.9668 90.638 40.7124 90.5469 40.4856C90.4559 40.2588 90.2824 40.0779 90.0645 39.9827ZM89.8492 41.287C89.8393 41.3121 89.8201 41.332 89.796 41.3423C89.7718 41.3526 89.7447 41.3525 89.7204 41.3419L89.6473 41.3101L89.6263 41.3633C89.6178 41.3858 89.6022 41.4044 89.5819 41.4162C89.5617 41.4279 89.5381 41.4321 89.5152 41.4279C89.5008 41.4249 89.4872 41.4186 89.4754 41.4095C89.4635 41.4005 89.4538 41.3888 89.4468 41.3753C89.4398 41.3619 89.4358 41.347 89.435 41.3318C89.4342 41.3166 89.4366 41.3014 89.4422 41.2874L89.4646 41.2305L89.3915 41.1987C89.378 41.1928 89.3659 41.1839 89.356 41.1725C89.3462 41.1612 89.3389 41.1477 89.3346 41.1331C89.3304 41.1185 89.3293 41.1031 89.3314 41.0881C89.3336 41.0731 89.3389 41.0588 89.347 41.0462C89.3603 41.0265 89.3798 41.0122 89.4022 41.0058C89.4245 40.9994 89.4484 41.0012 89.4698 41.0109L89.7038 41.1128L89.7637 40.9613L89.5261 40.8579C89.5019 40.8473 89.4826 40.8273 89.4725 40.802C89.4623 40.7768 89.4622 40.7486 89.4721 40.7234L89.6068 40.3826C89.6167 40.3575 89.6358 40.3376 89.66 40.3273C89.6841 40.317 89.7113 40.3172 89.7355 40.3277L89.8086 40.3595L89.8296 40.3063C89.838 40.2838 89.8537 40.2651 89.874 40.2533C89.8942 40.2416 89.9178 40.2375 89.9408 40.2418C89.9552 40.2447 89.9688 40.251 89.9806 40.2601C89.9924 40.2692 90.0022 40.2809 90.0092 40.2943C90.0162 40.3078 90.0202 40.3226 90.021 40.3378C90.0218 40.3531 90.0193 40.3682 90.0138 40.3823L89.9913 40.4391L90.0644 40.4709C90.078 40.4768 90.0901 40.4857 90.1 40.4971C90.1099 40.5084 90.1172 40.5219 90.1215 40.5365C90.1258 40.5511 90.1269 40.5665 90.1247 40.5815C90.1226 40.5966 90.1172 40.6109 90.1091 40.6235C90.0957 40.6432 90.0762 40.6574 90.0538 40.6638C90.0315 40.6702 90.0076 40.6684 89.9862 40.6587L89.7521 40.5568L89.6923 40.7083L89.9298 40.8117C89.9541 40.8223 89.9734 40.8424 89.9835 40.8676C89.9936 40.8928 89.9937 40.9211 89.9838 40.9462L89.8492 41.287Z" fill="#F6F7FA"/>
<path d="M87.35 41.0687L88.3359 38.7859" stroke="#F6F7FA" stroke-width="0.249529" stroke-dasharray="0.55 0.28"/>
<path d="M55.6517 80.5402C55.6517 80.5402 48.0997 78.3758 47.2469 77.919C46.3941 77.4623 42.5162 82.796 39.0265 85.8204C39.0265 85.8204 50.5752 89.2293 54.2938 89.3956C58.0124 89.5618 75.1367 86.5876 85.1674 79.8215C86.0798 79.3095 91.8945 76.3319 90.99 74.5558C92.5573 73.5443 91.3513 71.629 90.9195 71.9458C91.8372 71.2722 90.9728 70.001 89.9761 70.4658C83.9885 73.2576 82.2987 72.9907 80.7856 72.9907C80.7856 68.6047 75.9922 68.7937 77.1805 70.0006C79.6288 72.4872 77.6787 74.7413 77.6787 74.7413C77.6787 74.7413 75.8633 76.7201 68.5797 78.843C61.2962 80.9659 55.6517 80.5402 55.6517 80.5402Z" fill="#D98F6F"/>
<path d="M90.9195 71.9458C91.8372 71.2722 90.9728 70.001 89.9761 70.4658C83.9885 73.2576 82.2987 72.9907 80.7856 72.9907C80.7856 68.6047 75.9922 68.7937 77.1805 70.0006C79.6288 72.4872 77.6787 74.7413 77.6787 74.7413C77.6787 74.7413 75.8633 76.7201 68.5797 78.843C61.2962 80.9659 55.6517 80.5402 55.6517 80.5402C55.6517 80.5402 48.0997 78.3758 47.2469 77.919C46.3941 77.4623 42.5162 82.796 39.0265 85.8204C39.0265 85.8204 50.5752 89.2293 54.2938 89.3956C58.0124 89.5618 75.1367 86.5876 85.1674 79.8215C86.0798 79.3095 91.8945 76.3319 90.99 74.5558M90.9195 71.9458C91.3513 71.629 92.5573 73.5443 90.99 74.5558M90.9195 71.9458C89.505 72.9842 86.025 75.0082 83.4213 74.7972M90.99 74.5558C89.4227 75.5674 85.8282 77.52 83.9885 77.2379" stroke="black" stroke-width="0.884056" stroke-linecap="round" stroke-linejoin="round"/>
</g>
</g>
<defs>
<clipPath id="clip0_1600_65938">
<rect width="108" height="112" fill="white"/>
</clipPath>
</defs>
</svg>
