<svg width="108" height="112" viewBox="0 0 108 112" fill="none" xmlns="http://www.w3.org/2000/svg">
<g clip-path="url(#clip0_1752_33810)">
<circle cx="54" cy="57.9961" r="54" fill="white"/>
<mask id="mask0_1752_33810" style="mask-type:alpha" maskUnits="userSpaceOnUse" x="-2" y="-2" width="111" height="114">
<path fill-rule="evenodd" clip-rule="evenodd" d="M108.722 -1.40039H-1.07812V63.0396H0.232059C2.77352 90.5001 25.876 112 54 112C82.124 112 105.226 90.5001 107.768 63.0396H108.722V-1.40039Z" fill="#D9D9D9"/>
</mask>
<g mask="url(#mask0_1752_33810)">
<path d="M13.5599 142.131C11.3468 130.488 15.4211 116.146 19.1434 113.411C19.1434 113.411 24.3366 110.015 32.0139 109.55C39.6912 109.084 45.665 110.48 45.665 110.48C51.2485 127.674 65.6725 154.178 65.6725 162.919C65.6725 166.438 72.029 210.053 77.6125 212.379L64.0442 218.748C64.0442 218.748 53.1097 177.018 51.0159 169.968C48.9221 162.919 37.5224 143.464 37.5224 143.464C37.5224 143.464 32.4041 170.532 27.9838 178.427C23.5636 186.322 -3.19067 214.519 -3.19067 214.519L-13.6598 205.496C-1.09686 188.296 13.346 175.008 14.5654 168.409C16.3583 158.707 14.9286 149.332 13.5599 142.131Z" fill="#BABECB" stroke="black" stroke-width="0.884056" stroke-linecap="round" stroke-linejoin="round"/>
<path d="M58.5599 56.9722C48.3234 58.1354 43.8393 56.7395 32.9688 53.7151C32.9688 53.7151 30.875 54.4131 26.4547 53.9478C22.0344 53.4825 20.7024 51.3887 20.7024 51.3887C18.1783 53.4049 11.5353 65.1148 11.5353 77.4451C11.5353 89.7753 9.99987 115.413 6.64977 115.599C3.29966 115.785 21.9296 118.158 27.4492 115.599C32.9688 113.04 45.3629 111.877 52.575 114.436C52.3764 107.882 50.4036 92.1815 45.7743 79.2264L47.6255 77.4451L44.8772 76.8096C44.0792 74.74 43.6817 73.1582 42.7399 71.1636C45.7743 72.3268 55.0702 71.1636 59.2578 69.7677C56.2334 62.323 58.5599 56.9722 58.5599 56.9722Z" fill="#868AC3"/>
<path d="M47.6255 77.4451L44.8772 76.8096M47.6255 77.4451C46.7818 77.3004 45.8582 77.0858 44.8772 76.8096M47.6255 77.4451L45.7743 79.2264M21.1038 61.1598C23.6063 67.416 36.3901 74.42 44.8772 76.8096M18.7774 75.1186C20.7024 80.2368 35.9932 91.8691 36.2259 89.7753C36.4585 87.6815 45.7743 79.2264 45.7743 79.2264M42.7399 71.1636C40.7544 66.9585 39.3666 61.5912 36.6912 58.1354C38.9247 60.3688 41.3458 68.2167 42.7399 71.1636ZM42.7399 71.1636C45.7743 72.3268 55.0702 71.1636 59.2578 69.7677C56.2334 62.323 58.5599 56.9722 58.5599 56.9722C48.3234 58.1354 43.8393 56.7395 32.9688 53.7151C32.9688 53.7151 30.875 54.4131 26.4547 53.9478C22.0344 53.4825 20.7024 51.3887 20.7024 51.3887C18.1783 53.4049 11.5353 65.1148 11.5353 77.4451C11.5353 89.7753 9.99987 115.413 6.64977 115.599C3.29966 115.785 21.9296 118.158 27.4492 115.599C32.9688 113.04 45.3629 111.877 52.575 114.436C52.3764 107.882 50.4036 92.1815 45.7743 79.2264M42.7399 71.1636C43.6817 73.1582 44.0792 74.74 44.8772 76.8096" stroke="black" stroke-width="0.884056" stroke-linecap="round" stroke-linejoin="round"/>
<ellipse cx="59.4896" cy="63.2546" rx="1.39588" ry="6.74674" fill="black"/>
<path d="M41.543 85.5884C40.2402 87.2634 37.2778 89.3882 35.9595 90.2413C35.0289 89.8691 39.0176 86.519 40.4135 84.4252C41.8094 84.4252 42.8458 83.9133 41.543 85.5884Z" fill="black" stroke="black" stroke-width="0.884056" stroke-linecap="round" stroke-linejoin="round"/>
<path d="M35.9692 91.1723C33.7358 90.9862 25.1124 83.1072 21.3125 78.6094C25.0348 82.3317 32.3244 87.605 35.5039 89.7764L40.1568 86.2867L48.2995 88.8458L40.3895 87.6826C39.2263 88.9234 38.2026 91.3584 35.9692 91.1723Z" fill="black" stroke="black" stroke-width="0.884056" stroke-linecap="round" stroke-linejoin="round"/>
<path d="M73.1186 54.6829C71.3197 57.345 63.0604 57.2441 58.6361 56.8838C56.5889 61.473 58.0406 66.2135 58.9275 68.2225C61.4769 69.3598 75.0111 69.2833 78.7273 63.8082C80.8178 60.7284 89.1378 40.0907 92.0486 30.52C94.6241 29.8857 94.9605 25.7051 95.0814 23.721C95.1193 23.0993 94.4472 22.4876 93.7583 22.1194C93.3744 21.9141 98.445 15.0392 96.4153 13.879C94.3856 12.7189 91.2547 22.0215 90.1952 21.5414C89.1357 21.0614 93.0161 12.3627 89.5908 12.6179C88.0347 12.7339 87.7607 20.7176 85.724 26.425C87.0674 28.5527 75.3671 51.3553 73.1186 54.6829Z" fill="#D98F6F" stroke="black" stroke-width="0.884056" stroke-linecap="round" stroke-linejoin="round"/>
<path d="M89.8792 24.2989C89.8081 25.3146 92.1406 25.8182 93.8068 25.9348C95.473 26.0515 95.8605 25.4694 95.9129 24.7214C95.9653 23.9735 95.6627 23.343 93.9966 23.2263C92.3304 23.1097 89.9504 23.2832 89.8792 24.2989Z" fill="#D98F6F" stroke="black" stroke-width="0.884056" stroke-linecap="round" stroke-linejoin="round"/>
<path d="M89.3506 26.6977C89.2884 27.5861 91.3285 28.0265 92.7858 28.1286C94.2431 28.2306 94.5821 27.7215 94.6279 27.0673C94.6738 26.4131 94.4091 25.8617 92.9518 25.7596C91.4945 25.6576 89.4129 25.8094 89.3506 26.6977Z" fill="#D98F6F" stroke="black" stroke-width="0.884056" stroke-linecap="round" stroke-linejoin="round"/>
<path d="M90.3006 26.3058C89.476 27.1575 87.5042 25.7983 86.3043 24.6365C85.1043 23.4747 85.348 22.7256 85.9553 22.0985C86.5625 21.4713 87.3032 21.2035 88.5031 22.3653C89.7031 23.5272 91.1252 25.4542 90.3006 26.3058Z" fill="#D98F6F" stroke="black" stroke-width="0.884056" stroke-linecap="round" stroke-linejoin="round"/>
<path d="M45.4399 39.7659V21.8521C45.4399 20.6792 43.5788 12.5408 32.1791 12.3082C20.7794 12.0755 19.6162 21.3814 19.6162 21.3814C19.6162 25.8374 21.0269 28.3397 22.7737 29.696C20.8494 28.5386 17.936 27.6231 17.2897 30.6927C16.5453 34.2289 20.3917 35.5783 22.408 35.8109C23.8969 43.8139 22.408 49.6921 21.4774 51.6309C23.3385 55.3532 29.8526 54.7328 32.877 53.9573V48.1412C45.3469 48.5134 45.4399 43.9535 45.4399 39.7659Z" fill="#D98F6F" stroke="black" stroke-width="0.884056" stroke-linejoin="round"/>
<path d="M32.9487 48.3643C31.3187 48.2902 28.6409 47.8055 27.9185 46.4638C27.8882 46.3977 27.8589 46.3332 27.8305 46.2704C27.8554 46.3368 27.8848 46.4012 27.9185 46.4638C29.0484 48.9274 31.4987 53.5853 32.9487 53.9478V48.3643Z" fill="black" stroke="black" stroke-width="0.884056" stroke-linecap="round" stroke-linejoin="round"/>
<path d="M25.3926 25.5631C33.8454 26.6488 45.9407 26.0816 49.2909 14.1701C50.2214 12.3089 49.9888 6.72545 46.7317 5.56228C44.7333 4.8486 42.7767 10.4477 38.3565 11.1457C40.4503 9.33894 39.985 5.05035 37.1932 4.86423C33.7035 4.63159 29.2833 12.5296 21.6702 12.5295C20.507 12.0643 17.25 10.901 15.6214 12.5295C13.9965 14.1545 18.5709 18.3288 17.2046 31.2943C17.201 31.3231 17.1979 31.352 17.1954 31.3809C17.1985 31.352 17.2016 31.3231 17.2046 31.2943C17.4614 29.2366 20.4056 27.4644 23.7095 30.2176C24.6401 29.0544 24.9273 27.8896 25.3926 25.5631Z" fill="black" stroke="black" stroke-width="0.884056" stroke-linecap="round" stroke-linejoin="round"/>
<path d="M29.0505 16.2637C31.1444 15.3331 34.4014 13.7046 36.2626 10.2149M36.2626 18.1249C39.287 18.1249 43.9399 16.2637 46.7317 10.9129" stroke="white" stroke-width="0.884056" stroke-linecap="round" stroke-linejoin="round"/>
<path d="M35.1508 34.7412C35.5253 33.5122 36.8253 32.8194 38.0543 33.1939C39.2834 33.5684 39.9762 34.8683 39.6017 36.0974C39.3799 36.8255 38.8333 37.3654 38.169 37.6067" stroke="black" stroke-width="0.697939" stroke-linecap="round" stroke-linejoin="round"/>
<circle cx="0.697939" cy="0.697939" r="0.697939" transform="matrix(-1 0 0 1 34.1868 32.6378)" fill="black"/>
<circle cx="0.697939" cy="0.697939" r="0.697939" transform="matrix(-1 0 0 1 41.7905 32.312)" fill="black"/>
<path d="M33.8806 28.5898C33.4153 27.6592 31.0889 27.6592 30.8562 29.753" stroke="black" stroke-width="0.697939" stroke-linecap="round" stroke-linejoin="round"/>
<path d="M39.9294 29.1479C40.1621 28.3569 42.4886 27.8916 42.4886 29.8405" stroke="black" stroke-width="0.697939" stroke-linecap="round" stroke-linejoin="round"/>
<path d="M35.0921 43.5027C32.2001 42.7013 31.0114 38.7786 30.7786 36.9175C33.1565 39.0337 37.8765 40.6534 41.9315 38.6629C41.4379 42.3889 38.5335 44.4564 35.0921 43.5027Z" fill="black" stroke="black" stroke-width="0.697939" stroke-linecap="round" stroke-linejoin="round"/>
<path d="M35.976 42.1998C37.462 41.2461 38.8906 42.0193 39.4192 42.5251C35.4995 44.4812 33.5314 42.3408 33.0374 41.0261C34.1626 40.1641 35.4653 41.4494 35.976 42.1998Z" fill="white"/>
<path d="M32.0191 64.4177C35.4973 64.6065 33.1593 57.533 32.8694 52.8115L21.7827 51.3895C22.0001 58.2357 27.6714 64.1816 32.0191 64.4177Z" fill="#D98F6F" stroke="black" stroke-width="0.884056" stroke-linecap="round" stroke-linejoin="round"/>
<path d="M22.248 52.0874V50.9241L30.158 51.8547L32.9498 54.1812L22.248 52.0874Z" fill="#D98F6F"/>
<path d="M32.9497 55.1117C32.9497 55.1117 29.9422 52.4392 29.6927 51.1567C29.4431 49.8743 32.9497 52.8033 32.9497 52.8033V55.1117Z" fill="black"/>
<path d="M37.9538 50.1747C44.6392 49.8425 45.978 44.4103 44.8718 36.7379C44.5961 39.0307 42.9499 39.9449 41.8474 41.6235C41.5627 42.057 41.7175 43.5833 41.3821 43.95C40.6842 45.8111 38.9625 46.3049 37.0374 46.3763C35.2239 46.4436 34.1701 46.1745 33.2395 44.8806C32.3089 43.5866 32.7066 42.3219 31.8436 41.8561C26.9804 39.2316 22.8548 36.3921 21.8496 35.5697C21.8496 38.3615 22.7704 50.9294 37.9538 50.1747Z" fill="black" stroke="black" stroke-width="0.884056" stroke-linecap="round" stroke-linejoin="round"/>
<path d="M35.1007 37.4359L37.4271 37.6685C37.4271 37.6685 34.1701 39.297 33.3375 40.2276C32.5048 41.1582 32.5417 43.252 32.5417 43.252C32.5417 43.252 32.3089 40.4603 33.0069 39.297C33.7048 38.1338 35.1007 37.4359 35.1007 37.4359Z" fill="black" stroke="black" stroke-width="0.884056" stroke-linecap="round" stroke-linejoin="round"/>
<path d="M39.9488 37.4359L37.6223 37.6685C37.6223 37.6685 40.3167 39.0644 41.1493 39.995C41.982 40.9255 41.6146 43.252 41.6146 43.252C41.6146 43.252 42.7405 40.4603 42.0426 39.297C41.3446 38.1338 39.9488 37.4359 39.9488 37.4359Z" fill="black" stroke="black" stroke-width="0.884056" stroke-linecap="round" stroke-linejoin="round"/>
<path d="M36.7292 47.9046L37.1945 48.3699" stroke="white" stroke-width="0.884056" stroke-linecap="round" stroke-linejoin="round"/>
<path d="M33.252 47.8088L33.2273 48.4663" stroke="white" stroke-width="0.884056" stroke-linecap="round" stroke-linejoin="round"/>
<path d="M31.4871 47.9046L31.4624 48.5622" stroke="white" stroke-width="0.884056" stroke-linecap="round" stroke-linejoin="round"/>
<path d="M39.0557 46.9741L38.5904 47.4394" stroke="white" stroke-width="0.884056" stroke-linecap="round" stroke-linejoin="round"/>
<path d="M28.9395 46.5833L29.3565 47.0922" stroke="white" stroke-width="0.884056" stroke-linecap="round" stroke-linejoin="round"/>
<path d="M40.8088 46.9022L40.5598 47.5113" stroke="white" stroke-width="0.884056" stroke-linecap="round" stroke-linejoin="round"/>
<path d="M24.6218 36.6501L24.8701 37.2595" stroke="black" stroke-width="0.884056" stroke-linecap="round" stroke-linejoin="round"/>
<path d="M28.4607 38.6467L28.0058 39.1222" stroke="black" stroke-width="0.884056" stroke-linecap="round" stroke-linejoin="round"/>
<path d="M31.0144 40.059L31.2824 40.6599" stroke="black" stroke-width="0.884056" stroke-linecap="round" stroke-linejoin="round"/>
<path d="M36.019 45.1185L36.2169 45.7461" stroke="black" stroke-width="0.884056" stroke-linecap="round" stroke-linejoin="round"/>
<path d="M29.7507 39.7297L29.666 40.3823" stroke="black" stroke-width="0.884056" stroke-linecap="round" stroke-linejoin="round"/>
<path d="M34.8013 45.1129L34.6428 45.7515" stroke="black" stroke-width="0.884056" stroke-linecap="round" stroke-linejoin="round"/>
<path d="M26.2991 37.8436L26.2576 38.5003" stroke="black" stroke-width="0.884056" stroke-linecap="round" stroke-linejoin="round"/>
<path d="M27.8127 37.7214L27.5328 38.3169" stroke="black" stroke-width="0.884056" stroke-linecap="round" stroke-linejoin="round"/>
<path d="M42.8967 38.5988L43.2279 39.1673" stroke="black" stroke-width="0.884056" stroke-linecap="round" stroke-linejoin="round"/>
<path d="M40.4622 42.9304L41.0356 43.2531" stroke="black" stroke-width="0.884056" stroke-linecap="round" stroke-linejoin="round"/>
<path d="M38.4297 45.0243L38.348 45.6772" stroke="black" stroke-width="0.884056" stroke-linecap="round" stroke-linejoin="round"/>
<path d="M39.5427 44.3418L39.8135 44.9415" stroke="black" stroke-width="0.884056" stroke-linecap="round" stroke-linejoin="round"/>
<path d="M43.2434 37.7281L43.7647 38.1297" stroke="black" stroke-width="0.884056" stroke-linecap="round" stroke-linejoin="round"/>
<path d="M80.7523 33.8256L80.7523 33.8256L65.5167 68.3686L65.6545 68.4306L65.5167 68.3686C65.1503 69.1997 65.1179 70.1412 65.4278 70.9867C65.7377 71.8323 66.365 72.5126 67.1726 72.8768L80.5025 78.8861C80.9026 79.0664 81.3347 79.1635 81.774 79.1718C82.2133 79.1801 82.6509 79.0995 83.0621 78.9349C83.4732 78.7703 83.8497 78.5249 84.1703 78.2129C84.4909 77.9009 84.7494 77.5284 84.9311 77.1165L100.166 42.5746C100.348 42.163 100.449 41.7201 100.465 41.2709C100.48 40.8218 100.409 40.3751 100.256 39.9564C100.102 39.5376 99.8691 39.1551 99.5696 38.8307C99.2702 38.5063 98.9102 38.2466 98.5104 38.0664C98.5104 38.0664 98.5103 38.0664 98.5103 38.0664L85.1805 32.0571L85.1805 32.0571C84.3723 31.6929 83.4517 31.6759 82.6214 32.0081C81.7914 32.3402 81.1195 32.9943 80.7523 33.8256Z" fill="black" stroke="black" stroke-width="0.302176"/>
<path d="M95.3125 37.9934L95.3125 37.9934L97.8967 39.1594C97.8968 39.1594 97.8969 39.1595 97.8969 39.1595L97.8971 39.1596L95.3125 37.9934ZM95.3125 37.9934L95.309 37.9919C95.0987 37.9034 94.8623 37.9049 94.6519 37.9948L94.7114 38.1343L94.6519 37.9948C94.4421 38.0844 94.275 38.2544 94.1859 38.467L93.9749 38.9507L93.9749 38.9507L93.9739 38.9532C93.9447 39.0234 93.9025 39.0872 93.8497 39.1409C93.7969 39.1947 93.7347 39.2371 93.6667 39.2661C93.5988 39.2951 93.5266 39.3101 93.4541 39.3104L93.4555 39.4619L93.4541 39.3104C93.3822 39.3107 93.3113 39.2965 93.2454 39.2689L88.2113 36.9994C88.081 36.9364 87.9802 36.8223 87.9317 36.6806C87.883 36.5383 87.8914 36.3798 87.9563 36.2405L87.9564 36.2405L87.9578 36.2371L88.1691 35.7527C88.2658 35.5438 88.2791 35.3048 88.2047 35.0874C88.1301 34.8693 87.9732 34.6906 87.7674 34.5919L87.7674 34.5918L87.7635 34.59L86.8529 34.1847L86.8526 34.1846L84.591 33.1662C84.591 33.1662 84.5909 33.1661 84.5909 33.1661C84.5909 33.1661 84.5909 33.1661 84.5909 33.1661C84.3051 33.0373 83.9966 32.9679 83.683 32.9619C83.3693 32.9559 83.0569 33.0133 82.7634 33.1307C82.47 33.248 82.2013 33.423 81.9726 33.6455C81.7439 33.8679 81.5595 34.1335 81.4298 34.4272L81.4298 34.4272L66.5579 68.1442L66.5578 68.1445C66.4288 68.4385 66.3571 68.7549 66.3469 69.0756C66.3367 69.3963 66.3881 69.7151 66.4985 70.0139C66.6089 70.3127 66.7761 70.5856 66.9908 70.8169C67.2054 71.0482 67.4633 71.2331 67.7496 71.3611L81.0533 77.3587C81.3391 77.4875 81.6476 77.5569 81.9612 77.5629C82.2748 77.5689 82.5872 77.5114 82.8806 77.3939C83.1739 77.2765 83.4425 77.1015 83.6711 76.879C83.8997 76.6565 84.084 76.3908 84.2135 76.0972L99.0822 42.3845C99.0822 42.3844 99.0822 42.3844 99.0823 42.3843M95.3125 37.9934L99.0823 42.3843M99.0823 42.3843L99.0823 42.3841L98.9446 42.3221L99.0823 42.3843Z" fill="black" stroke="black" stroke-width="0.302176"/>
<path d="M99.9273 42.149C100.112 41.7313 100.213 41.2809 100.224 40.8236C100.236 40.3662 100.158 39.9108 99.9955 39.4833C99.8327 39.0558 99.588 38.6646 99.2754 38.332C98.9629 37.9995 98.5885 37.7322 98.1737 37.5454C98.1737 37.5454 98.1737 37.5454 98.1737 37.5454L84.5041 31.3845L84.504 31.3845C83.6659 31.007 82.7142 30.9805 81.8582 31.3105C81.0023 31.6404 80.3122 32.2999 79.9395 33.1436L79.9394 33.1437L64.7007 67.6841L64.7007 67.6841C64.3288 68.5276 64.3043 69.4863 64.633 70.3496C64.9617 71.2129 65.6168 71.91 66.4543 72.2876L80.1239 78.4485C80.5391 78.6355 80.9864 78.7382 81.4405 78.7509C81.8946 78.7635 82.3465 78.6858 82.7704 78.5223C83.1942 78.3588 83.5818 78.1127 83.911 77.798C84.2402 77.4833 84.5046 77.1062 84.689 76.6883L99.9273 42.149ZM99.9273 42.149L99.7465 42.0675M99.9273 42.149L99.9273 42.1489L99.7465 42.0675M99.7465 42.0675L84.5082 76.6068C84.3342 77.0011 84.0849 77.3567 83.7744 77.6535C83.4639 77.9503 83.0984 78.1824 82.6987 78.3366C82.299 78.4908 81.873 78.564 81.445 78.5521C81.017 78.5401 80.5953 78.4433 80.2041 78.2671L66.5344 72.1062C65.7451 71.7504 65.1276 71.0932 64.8177 70.2793C64.5077 69.4653 64.5307 68.5612 64.8816 67.7655L98.0936 37.7268C98.4845 37.9029 98.8374 38.1548 99.132 38.4683C99.4267 38.7817 99.6573 39.1505 99.8108 39.5536C99.9643 39.9566 100.038 40.3861 100.027 40.8175C100.016 41.2488 99.9203 41.6736 99.7465 42.0675Z" fill="#0D4FCA" stroke="black" stroke-width="0.39665"/>
<path d="M97.543 38.6365L94.8925 37.441C94.7161 37.3666 94.5178 37.3657 94.341 37.4385C94.1642 37.5114 94.0235 37.652 93.9495 37.8295L93.738 38.3144C93.7015 38.4024 93.6482 38.4822 93.581 38.5494C93.5139 38.6166 93.4342 38.6697 93.3467 38.7058C93.2591 38.7419 93.1653 38.7602 93.0707 38.7597C92.976 38.7592 92.8824 38.7399 92.795 38.7029L87.6291 36.3746C87.4563 36.2918 87.323 36.1434 87.2584 35.9619C87.1938 35.7804 87.2032 35.5806 87.2844 35.4063L87.4964 34.9204C87.5777 34.7461 87.587 34.5463 87.5224 34.3648C87.4578 34.1833 87.3245 34.0349 87.1517 33.9521L86.2177 33.5364L83.8977 32.4919C83.6238 32.3684 83.3286 32.3005 83.0288 32.2921C82.7291 32.2836 82.4308 32.3348 82.1509 32.4427C81.8709 32.5505 81.6149 32.713 81.3975 32.9207C81.18 33.1285 81.0053 33.3775 80.8834 33.6535L66.0085 67.368C65.8872 67.6444 65.8212 67.9423 65.8142 68.2447C65.8072 68.5471 65.8593 68.848 65.9676 69.1303C66.0759 69.4126 66.2383 69.6706 66.4454 69.8898C66.6525 70.1089 66.9004 70.2849 67.1747 70.4075L80.8181 76.5565C81.0919 76.68 81.3872 76.7478 81.6868 76.7563C81.9865 76.7647 82.2848 76.7135 82.5646 76.6055C82.8444 76.4976 83.1004 76.3351 83.3177 76.1273C83.5351 75.9195 83.7096 75.6705 83.8314 75.3944L98.7033 41.6839C98.8261 41.4074 98.8935 41.1091 98.9016 40.8061C98.9097 40.5031 98.8584 40.2014 98.7506 39.9182C98.6428 39.635 98.4806 39.3761 98.2734 39.1561C98.0661 38.9362 97.8179 38.7596 97.543 38.6365Z" fill="#DDEAFF"/>
<path fill-rule="evenodd" clip-rule="evenodd" d="M80.3633 37.1549L96.7379 44.4261L88.7946 62.1182C88.7815 62.1105 88.7681 62.1033 88.7542 62.0964C88.4412 61.9418 88.0625 62.0731 87.9084 62.3897C87.8756 62.457 87.8557 62.5272 87.8475 62.5976L87.7912 62.7226L87.848 62.7485C87.873 62.955 87.9975 63.1448 88.1962 63.243C88.2221 63.2558 88.2484 63.2666 88.275 63.2755L83.001 75.0222L66.7454 67.6596L71.9893 55.9131C71.9982 55.918 72.0072 55.9228 72.0165 55.9273C72.3295 56.082 72.7082 55.9507 72.8623 55.6341C73.0164 55.3175 72.8875 54.9354 72.5745 54.7808C72.5524 54.7699 72.53 54.7604 72.5074 54.7523L80.3633 37.1549ZM74.3342 56.5759L73.437 56.1661L73.6448 55.7048L74.5419 56.1146L74.3342 56.5759ZM76.1284 57.3955L75.2313 56.9857L75.439 56.5244L76.3362 56.9342L76.1284 57.3955ZM77.9227 58.215L77.0256 57.8053L77.2333 57.3439L78.1305 57.7537L77.9227 58.215ZM79.717 59.0346L78.8199 58.6248L79.0276 58.1635L79.9247 58.5733L79.717 59.0346ZM81.5113 59.8542L80.6141 59.4444L80.8219 58.9831L81.719 59.3928L81.5113 59.8542ZM83.3055 60.6737L82.4084 60.2639L82.6161 59.8026L83.5133 60.2124L83.3055 60.6737ZM85.0998 61.4933L84.2027 61.0835L84.4104 60.6222L85.3076 61.032L85.0998 61.4933ZM86.8941 62.3128L85.997 61.9031L86.2047 61.4417L87.1018 61.8515L86.8941 62.3128Z" fill="white"/>
<path d="M96.7379 44.4261L96.7841 44.4468L96.8049 44.4005L96.7585 44.3798L96.7379 44.4261ZM80.3633 37.1549L80.3838 37.1086L80.3377 37.0881L80.3171 37.1342L80.3633 37.1549ZM88.7946 62.1182L88.769 62.1619L88.8177 62.1904L88.8408 62.1389L88.7946 62.1182ZM88.7542 62.0964L88.7318 62.1418L88.7318 62.1418L88.7542 62.0964ZM87.9084 62.3897L87.8629 62.3676L87.9084 62.3897ZM87.8475 62.5976L87.8937 62.6184L87.8969 62.6112L87.8978 62.6034L87.8475 62.5976ZM87.7912 62.7226L87.7451 62.7018L87.7244 62.7477L87.7702 62.7686L87.7912 62.7226ZM87.848 62.7485L87.8982 62.7424L87.8948 62.7143L87.869 62.7025L87.848 62.7485ZM88.1962 63.243L88.2186 63.1976L88.1962 63.243ZM88.275 63.2755L88.3212 63.2963L88.344 63.2453L88.2911 63.2276L88.275 63.2755ZM83.001 75.0222L82.9802 75.0683L83.0264 75.0893L83.0472 75.043L83.001 75.0222ZM66.7454 67.6596L66.6992 67.639L66.6786 67.6849L66.7245 67.7057L66.7454 67.6596ZM71.9893 55.9131L72.0138 55.8688L71.9656 55.842L71.9431 55.8924L71.9893 55.9131ZM72.0165 55.9273L72.0389 55.882L72.0389 55.882L72.0165 55.9273ZM72.5745 54.7808L72.5521 54.8261L72.5521 54.8261L72.5745 54.7808ZM72.5074 54.7523L72.4612 54.7317L72.439 54.7816L72.4904 54.8L72.5074 54.7523ZM73.437 56.1661L73.3909 56.1454L73.3702 56.1913L73.416 56.2122L73.437 56.1661ZM74.3342 56.5759L74.3131 56.6219L74.3594 56.6431L74.3803 56.5967L74.3342 56.5759ZM73.6448 55.7048L73.6658 55.6588L73.6195 55.6377L73.5986 55.684L73.6448 55.7048ZM74.5419 56.1146L74.588 56.1354L74.6087 56.0895L74.5629 56.0686L74.5419 56.1146ZM75.2313 56.9857L75.1852 56.9649L75.1645 57.0108L75.2103 57.0317L75.2313 56.9857ZM76.1284 57.3955L76.1074 57.4415L76.1537 57.4626L76.1746 57.4163L76.1284 57.3955ZM75.439 56.5244L75.4601 56.4784L75.4138 56.4572L75.3929 56.5036L75.439 56.5244ZM76.3362 56.9342L76.3823 56.9549L76.403 56.909L76.3572 56.8881L76.3362 56.9342ZM77.0256 57.8053L76.9794 57.7845L76.9588 57.8304L77.0046 57.8513L77.0256 57.8053ZM77.9227 58.215L77.9017 58.2611L77.948 58.2822L77.9688 58.2358L77.9227 58.215ZM77.2333 57.3439L77.2543 57.2979L77.2081 57.2768L77.1872 57.3232L77.2333 57.3439ZM78.1305 57.7537L78.1766 57.7745L78.1973 57.7286L78.1515 57.7077L78.1305 57.7537ZM78.8199 58.6248L78.7737 58.604L78.7531 58.6499L78.7988 58.6708L78.8199 58.6248ZM79.717 59.0346L79.696 59.0806L79.7422 59.1018L79.7631 59.0554L79.717 59.0346ZM79.0276 58.1635L79.0486 58.1175L79.0023 58.0963L78.9815 58.1427L79.0276 58.1635ZM79.9247 58.5733L79.9709 58.5941L79.9915 58.5482L79.9458 58.5273L79.9247 58.5733ZM80.6141 59.4444L80.568 59.4236L80.5473 59.4695L80.5931 59.4904L80.6141 59.4444ZM81.5113 59.8542L81.4902 59.9002L81.5365 59.9213L81.5574 59.8749L81.5113 59.8542ZM80.8219 58.9831L80.8429 58.937L80.7966 58.9159L80.7757 58.9623L80.8219 58.9831ZM81.719 59.3928L81.7651 59.4136L81.7858 59.3677L81.74 59.3468L81.719 59.3928ZM82.4084 60.2639L82.3623 60.2432L82.3416 60.2891L82.3874 60.31L82.4084 60.2639ZM83.3055 60.6737L83.2845 60.7197L83.3308 60.7409L83.3517 60.6945L83.3055 60.6737ZM82.6161 59.8026L82.6372 59.7566L82.5909 59.7355L82.57 59.7818L82.6161 59.8026ZM83.5133 60.2124L83.5594 60.2332L83.5801 60.1873L83.5343 60.1664L83.5133 60.2124ZM84.2027 61.0835L84.1565 61.0627L84.1359 61.1086L84.1817 61.1295L84.2027 61.0835ZM85.0998 61.4933L85.0788 61.5393L85.1251 61.5604L85.146 61.5141L85.0998 61.4933ZM84.4104 60.6222L84.4314 60.5762L84.3852 60.555L84.3643 60.6014L84.4104 60.6222ZM85.3076 61.032L85.3537 61.0527L85.3744 61.0068L85.3286 60.9859L85.3076 61.032ZM85.997 61.9031L85.9508 61.8823L85.9302 61.9282L85.9759 61.9491L85.997 61.9031ZM86.8941 62.3128L86.8731 62.3589L86.9193 62.38L86.9402 62.3336L86.8941 62.3128ZM86.2047 61.4417L86.2257 61.3957L86.1795 61.3746L86.1586 61.421L86.2047 61.4417ZM87.1018 61.8515L87.148 61.8723L87.1686 61.8264L87.1229 61.8055L87.1018 61.8515ZM96.7585 44.3798L80.3838 37.1086L80.3428 37.2011L96.7174 44.4723L96.7585 44.3798ZM88.8408 62.1389L96.7841 44.4468L96.6918 44.4054L88.7485 62.0975L88.8408 62.1389ZM88.7318 62.1418C88.7446 62.1481 88.7569 62.1548 88.769 62.1619L88.8202 62.0746C88.8061 62.0663 88.7916 62.0584 88.7766 62.0511L88.7318 62.1418ZM87.9539 62.4118C88.0959 62.1201 88.4443 61.9998 88.7318 62.1418L88.7766 62.0511C88.4381 61.8838 88.0291 62.0261 87.8629 62.3676L87.9539 62.4118ZM87.8978 62.6034C87.9053 62.5386 87.9237 62.4739 87.9539 62.4118L87.8629 62.3676C87.8276 62.4401 87.806 62.5158 87.7973 62.5918L87.8978 62.6034ZM87.8374 62.7434L87.8937 62.6184L87.8014 62.5768L87.7451 62.7018L87.8374 62.7434ZM87.869 62.7025L87.8123 62.6766L87.7702 62.7686L87.8269 62.7946L87.869 62.7025ZM88.2186 63.1976C88.036 63.1074 87.9213 62.9329 87.8982 62.7424L87.7977 62.7546C87.8247 62.9772 87.959 63.1822 88.1738 63.2884L88.2186 63.1976ZM88.2911 63.2276C88.2667 63.2194 88.2425 63.2094 88.2186 63.1976L88.1738 63.2884C88.2017 63.3021 88.2302 63.3138 88.2589 63.3235L88.2911 63.2276ZM83.0472 75.043L88.3212 63.2963L88.2289 63.2548L82.9549 75.0015L83.0472 75.043ZM66.7245 67.7057L82.9802 75.0683L83.0219 74.9762L66.7662 67.6135L66.7245 67.7057ZM71.9431 55.8924L66.6992 67.639L66.7916 67.6802L72.0355 55.9337L71.9431 55.8924ZM72.0389 55.882C72.0304 55.8778 72.022 55.8734 72.0138 55.8688L71.9647 55.9573C71.9743 55.9626 71.9841 55.9678 71.9941 55.9727L72.0389 55.882ZM72.8168 55.6119C72.6749 55.9037 72.3264 56.024 72.0389 55.882L71.9941 55.9727C72.3326 56.14 72.7416 55.9977 72.9078 55.6562L72.8168 55.6119ZM72.5521 54.8261C72.8398 54.9683 72.9589 55.32 72.8168 55.6119L72.9078 55.6562C73.0739 55.3149 72.9353 54.9026 72.5969 54.7354L72.5521 54.8261ZM72.4904 54.8C72.5112 54.8074 72.5318 54.8161 72.5521 54.8261L72.5969 54.7354C72.5731 54.7237 72.5489 54.7134 72.5245 54.7047L72.4904 54.8ZM80.3171 37.1342L72.4612 54.7317L72.5536 54.7729L80.4095 37.1755L80.3171 37.1342ZM73.416 56.2122L74.3131 56.6219L74.3552 56.5299L73.458 56.1201L73.416 56.2122ZM73.5986 55.684L73.3909 56.1454L73.4832 56.1869L73.6909 55.7256L73.5986 55.684ZM74.5629 56.0686L73.6658 55.6588L73.6237 55.7508L74.5209 56.1606L74.5629 56.0686ZM74.3803 56.5967L74.588 56.1354L74.4958 56.0938L74.288 56.5552L74.3803 56.5967ZM75.2103 57.0317L76.1074 57.4415L76.1495 57.3495L75.2523 56.9397L75.2103 57.0317ZM75.3929 56.5036L75.1852 56.9649L75.2774 57.0065L75.4852 56.5452L75.3929 56.5036ZM76.3572 56.8881L75.4601 56.4784L75.418 56.5704L76.3152 56.9802L76.3572 56.8881ZM76.1746 57.4163L76.3823 56.9549L76.29 56.9134L76.0823 57.3747L76.1746 57.4163ZM77.0046 57.8513L77.9017 58.2611L77.9437 58.169L77.0466 57.7592L77.0046 57.8513ZM77.1872 57.3232L76.9794 57.7845L77.0717 57.826L77.2795 57.3647L77.1872 57.3232ZM78.1515 57.7077L77.2543 57.2979L77.2123 57.39L78.1094 57.7997L78.1515 57.7077ZM77.9688 58.2358L78.1766 57.7745L78.0843 57.7329L77.8766 58.1943L77.9688 58.2358ZM78.7988 58.6708L79.696 59.0806L79.738 58.9886L78.8409 58.5788L78.7988 58.6708ZM78.9815 58.1427L78.7737 58.604L78.866 58.6456L79.0737 58.1843L78.9815 58.1427ZM79.9458 58.5273L79.0486 58.1175L79.0066 58.2095L79.9037 58.6193L79.9458 58.5273ZM79.7631 59.0554L79.9709 58.5941L79.8786 58.5525L79.6709 59.0138L79.7631 59.0554ZM80.5931 59.4904L81.4902 59.9002L81.5323 59.8081L80.6351 59.3984L80.5931 59.4904ZM80.7757 58.9623L80.568 59.4236L80.6603 59.4652L80.868 59.0038L80.7757 58.9623ZM81.74 59.3468L80.8429 58.937L80.8009 59.0291L81.698 59.4389L81.74 59.3468ZM81.5574 59.8749L81.7651 59.4136L81.6729 59.3721L81.4651 59.8334L81.5574 59.8749ZM82.3874 60.31L83.2845 60.7197L83.3266 60.6277L82.4294 60.2179L82.3874 60.31ZM82.57 59.7818L82.3623 60.2432L82.4545 60.2847L82.6623 59.8234L82.57 59.7818ZM83.5343 60.1664L82.6372 59.7566L82.5951 59.8486L83.4923 60.2584L83.5343 60.1664ZM83.3517 60.6945L83.5594 60.2332L83.4672 60.1916L83.2594 60.6529L83.3517 60.6945ZM84.1817 61.1295L85.0788 61.5393L85.1208 61.4473L84.2237 61.0375L84.1817 61.1295ZM84.3643 60.6014L84.1565 61.0627L84.2488 61.1043L84.4566 60.643L84.3643 60.6014ZM85.3286 60.9859L84.4314 60.5762L84.3894 60.6682L85.2865 61.078L85.3286 60.9859ZM85.146 61.5141L85.3537 61.0527L85.2614 61.0112L85.0537 61.4725L85.146 61.5141ZM85.9759 61.9491L86.8731 62.3589L86.9151 62.2668L86.018 61.857L85.9759 61.9491ZM86.1586 61.421L85.9508 61.8823L86.0431 61.9238L86.2508 61.4625L86.1586 61.421ZM87.1229 61.8055L86.2257 61.3957L86.1837 61.4878L87.0808 61.8975L87.1229 61.8055ZM86.9402 62.3336L87.148 61.8723L87.0557 61.8307L86.848 62.2921L86.9402 62.3336Z" fill="white"/>
<path d="M85.2458 57.5623L83.3357 56.7134L83.9015 55.4207L85.8116 56.2697L86.6603 54.3307L87.9336 54.8967L87.085 56.8357C86.9349 57.1785 86.6568 57.4477 86.3119 57.5839C85.967 57.7202 85.5835 57.7125 85.2458 57.5623Z" fill="#568DF4"/>
<path d="M77.5343 52.5897L78.383 50.6507L79.6564 51.2167L78.8077 53.1557L80.7178 54.0046L80.152 55.2973L78.2419 54.4483C77.9042 54.2982 77.6399 54.018 77.5072 53.6695C77.3745 53.3209 77.3842 52.9325 77.5343 52.5897Z" fill="#568DF4"/>
<path d="M81.0622 47.983L79.7888 47.417L80.6375 45.478C80.7876 45.1352 81.0656 44.866 81.4105 44.7298C81.7555 44.5935 82.139 44.6013 82.4767 44.7514L84.3868 45.6003L83.821 46.893L81.9109 46.044L81.0622 47.983Z" fill="#568DF4"/>
<path d="M88.9148 49.1571L87.0047 48.3081L87.5705 47.0155L89.4806 47.8644C89.8183 48.0145 90.0826 48.2947 90.2153 48.6432C90.348 48.9918 90.3382 49.3802 90.1882 49.7231L89.3395 51.662L88.0661 51.096L88.9148 49.1571Z" fill="#568DF4"/>
<path d="M84.2106 52.0821L82.9373 51.5161L83.503 50.2235L84.7764 50.7895L84.2106 52.0821Z" fill="#568DF4"/>
<path d="M84.9294 53.9473L83.656 53.3813L84.2218 52.0887L85.4952 52.6547L84.9294 53.9473Z" fill="#568DF4"/>
<path d="M82.3747 52.8121L81.1013 52.2461L81.6671 50.9535L82.9405 51.5194L82.3747 52.8121Z" fill="#568DF4"/>
<path d="M86.0622 51.3658L84.7888 50.7998L85.3546 49.5072L86.628 50.0731L86.0622 51.3658Z" fill="#568DF4"/>
<path d="M83.5075 50.2281L82.2341 49.6621L82.7999 48.3695L84.0733 48.9354L83.5075 50.2281Z" fill="#568DF4"/>
<path d="M73.6633 59.797L74.0469 59.0317L76.9 60.5868L76.6443 61.0969L73.6633 59.797Z" fill="#BCBFE3"/>
<path d="M72.9946 61.1363L73.3782 60.371L78.1162 62.4257L77.9364 63.099L72.9946 61.1363Z" fill="#BCBFE3"/>
<path d="M71.8722 63.9999L71.6172 64.8491L73.4797 65.4029L73.6497 64.8368L71.8722 63.9999Z" fill="#BCBFE3"/>
<path d="M71.0201 65.9639L71.4378 65.2459L74.8084 66.8885L74.5637 67.5125L71.0201 65.9639Z" fill="#BCBFE3"/>
<path d="M82.4382 41.7957L82.7469 41.1861L91.404 45.2159L91.3918 45.8177L82.4382 41.7957Z" fill="#BCBFE3"/>
<path d="M81.0234 62.7698L81.3984 62L82.855 62.7683L82.6049 63.2815L81.0234 62.7698Z" fill="#BCBFE3"/>
<path d="M80.0234 64.1868L80.3984 63.417L85.0533 65.3484L84.8781 66.022L80.0234 64.1868Z" fill="#BCBFE3"/>
<path d="M79.0216 67.597L79.3125 67L82.7475 68.812L82.5536 69.21L79.0216 67.597Z" fill="#BCBFE3"/>
<path d="M78.0234 69.1868L78.3984 68.417L83.0639 70.354L82.889 71.0278L78.0234 69.1868Z" fill="#BCBFE3"/>
<path fill-rule="evenodd" clip-rule="evenodd" d="M91.9422 39.7898C92.0647 39.8455 92.1189 39.9899 92.0632 40.1125L90.833 42.8185C90.7773 42.941 90.6328 42.9952 90.5103 42.9395L87.4606 41.553C87.5 41.4177 87.4351 41.2704 87.3029 41.2103C87.1708 41.1502 87.0171 41.1981 86.941 41.3168L86.2294 40.9933C86.1069 40.9376 86.0527 40.7932 86.1084 40.6706L87.3386 37.9646C87.3943 37.8421 87.5388 37.7879 87.6613 37.8436L88.373 38.1672C88.3656 38.1787 88.359 38.1909 88.3531 38.2037C88.2872 38.3487 88.3513 38.5196 88.4963 38.5855C88.6412 38.6514 88.8122 38.5874 88.8781 38.4424C88.8839 38.4296 88.8887 38.4165 88.8926 38.4034L91.9422 39.7898Z" fill="#868AC3"/>
<path d="M90.0645 39.983C89.9019 39.9122 89.7231 39.8929 89.5509 39.9277C89.3787 39.9625 89.2208 40.0497 89.097 40.1783C88.9733 40.3069 88.8894 40.4711 88.8558 40.6502C88.8223 40.8293 88.8406 41.0152 88.9086 41.1844C88.9765 41.3537 89.091 41.4986 89.2375 41.6009C89.384 41.7032 89.556 41.7583 89.7318 41.7593C89.9075 41.7602 90.079 41.7069 90.2247 41.6061C90.3704 41.5053 90.4837 41.3615 90.5503 41.193C90.6392 40.967 90.638 40.7127 90.5469 40.4859C90.4559 40.259 90.2824 40.0782 90.0645 39.983ZM89.8492 41.2873C89.8393 41.3124 89.8201 41.3323 89.796 41.3426C89.7718 41.3528 89.7447 41.3527 89.7204 41.3422L89.6473 41.3103L89.6263 41.3635C89.6178 41.386 89.6022 41.4047 89.5819 41.4164C89.5617 41.4282 89.5381 41.4323 89.5152 41.4281C89.5008 41.4251 89.4872 41.4189 89.4754 41.4098C89.4635 41.4007 89.4538 41.389 89.4468 41.3756C89.4398 41.3621 89.4358 41.3472 89.435 41.332C89.4342 41.3168 89.4366 41.3016 89.4422 41.2876L89.4646 41.2308L89.3915 41.199C89.378 41.1931 89.3659 41.1841 89.356 41.1727C89.3462 41.1614 89.3389 41.1479 89.3346 41.1333C89.3304 41.1188 89.3293 41.1034 89.3314 41.0884C89.3336 41.0733 89.3389 41.059 89.347 41.0465C89.3603 41.0267 89.3798 41.0125 89.4022 41.006C89.4245 40.9996 89.4484 41.0014 89.4698 41.0111L89.7038 41.113L89.7637 40.9615L89.5261 40.8581C89.5019 40.8476 89.4826 40.8275 89.4725 40.8023C89.4623 40.7771 89.4622 40.7488 89.4721 40.7237L89.6068 40.3829C89.6167 40.3577 89.6358 40.3379 89.66 40.3276C89.6841 40.3173 89.7113 40.3174 89.7355 40.3279L89.8086 40.3598L89.8296 40.3066C89.838 40.2841 89.8537 40.2653 89.874 40.2536C89.8942 40.2418 89.9178 40.2377 89.9408 40.242C89.9552 40.245 89.9688 40.2512 89.9806 40.2603C89.9924 40.2694 90.0022 40.2811 90.0092 40.2945C90.0162 40.308 90.0202 40.3229 90.021 40.3381C90.0218 40.3533 90.0193 40.3685 90.0138 40.3825L89.9913 40.4393L90.0644 40.4711C90.078 40.477 90.0901 40.486 90.1 40.4973C90.1099 40.5087 90.1172 40.5221 90.1215 40.5367C90.1258 40.5513 90.1269 40.5667 90.1247 40.5818C90.1226 40.5968 90.1172 40.6112 90.1091 40.6237C90.0957 40.6434 90.0762 40.6577 90.0538 40.6641C90.0315 40.6705 90.0076 40.6687 89.9862 40.659L89.7521 40.5571L89.6923 40.7086L89.9298 40.812C89.9541 40.8225 89.9734 40.8426 89.9835 40.8678C89.9936 40.893 89.9937 40.9213 89.9838 40.9464L89.8492 41.2873Z" fill="#F6F7FA"/>
<path d="M87.35 41.0689L88.3359 38.7861" stroke="#F6F7FA" stroke-width="0.249529" stroke-dasharray="0.55 0.28"/>
<path d="M55.6517 80.5402C55.6517 80.5402 48.0997 78.3758 47.2469 77.919C46.3941 77.4623 42.5162 82.796 39.0265 85.8204C39.0265 85.8204 50.5752 89.2293 54.2938 89.3956C58.0124 89.5618 75.1367 86.5876 85.1674 79.8215C86.0798 79.3095 91.8945 76.3319 90.99 74.5558C92.5573 73.5443 91.3513 71.629 90.9195 71.9458C91.8372 71.2722 90.9728 70.001 89.9761 70.4658C83.9885 73.2576 82.2987 72.9907 80.7856 72.9907C80.7856 68.6047 75.9922 68.7937 77.1805 70.0006C79.6288 72.4872 77.6787 74.7413 77.6787 74.7413C77.6787 74.7413 75.8633 76.7201 68.5797 78.843C61.2962 80.9659 55.6517 80.5402 55.6517 80.5402Z" fill="#D98F6F"/>
<path d="M90.9195 71.9458C91.8372 71.2722 90.9728 70.001 89.9761 70.4658C83.9885 73.2576 82.2987 72.9907 80.7856 72.9907C80.7856 68.6047 75.9922 68.7937 77.1805 70.0006C79.6288 72.4872 77.6787 74.7413 77.6787 74.7413C77.6787 74.7413 75.8633 76.7201 68.5797 78.843C61.2962 80.9659 55.6517 80.5402 55.6517 80.5402C55.6517 80.5402 48.0997 78.3758 47.2469 77.919C46.3941 77.4623 42.5162 82.796 39.0265 85.8204C39.0265 85.8204 50.5752 89.2293 54.2938 89.3956C58.0124 89.5618 75.1367 86.5876 85.1674 79.8215C86.0798 79.3095 91.8945 76.3319 90.99 74.5558M90.9195 71.9458C91.3513 71.629 92.5573 73.5443 90.99 74.5558M90.9195 71.9458C89.505 72.9842 86.025 75.0082 83.4213 74.7972M90.99 74.5558C89.4227 75.5674 85.8282 77.52 83.9885 77.2379" stroke="black" stroke-width="0.884056" stroke-linecap="round" stroke-linejoin="round"/>
</g>
</g>
<defs>
<clipPath id="clip0_1752_33810">
<rect width="108" height="112" fill="white"/>
</clipPath>
</defs>
</svg>
