<svg width="72" height="72" viewBox="0 0 72 72" fill="none" xmlns="http://www.w3.org/2000/svg">
<g clip-path="url(#clip0_1979_29212)">
<circle cx="36" cy="36" r="36" fill="#F6F7FA"/>
<rect x="26.7266" y="15.0449" width="23.0488" height="43.9024" rx="1.3802" fill="#293044"/>
<rect x="24.6797" y="13.0002" width="23.0488" height="43.9024" rx="2.19512" fill="#DADDFD" stroke="#293044" stroke-width="0.878049"/>
<path d="M25.2344 51.9626H47.7344" stroke="#293044" stroke-width="0.878049"/>
<path d="M40.146 15.1954H32.2747C31.9837 15.1954 31.7045 15.0797 31.4987 14.8739C30.8072 14.1825 31.2969 13.0002 32.2747 13.0002H40.146C41.1238 13.0002 41.6135 14.1825 40.9221 14.8739C40.7162 15.0797 40.4371 15.1954 40.146 15.1954Z" fill="#F6F7FA" stroke="#293044" stroke-width="0.878049"/>
<path fill-rule="evenodd" clip-rule="evenodd" d="M20.6913 38.0906C20.0851 38.0906 19.5937 38.582 19.5937 39.1881V46.8711C19.5937 46.8944 19.5851 46.9169 19.5696 46.9342C19.5188 46.9912 19.4738 47.0536 19.4356 47.1205L17.9942 49.6429C17.7894 50.0014 18.1476 50.4187 18.533 50.2705L24.2715 48.0634C24.3775 48.0226 24.4832 47.9686 24.5968 47.9686H41.5449C42.1511 47.9686 42.6425 47.4772 42.6425 46.8711V39.1881C42.6425 38.582 42.1511 38.0906 41.5449 38.0906H20.6913Z" fill="#293044"/>
<path fill-rule="evenodd" clip-rule="evenodd" d="M20.1052 35.9989C19.499 35.9989 19.0076 36.4903 19.0076 37.0965V45.9013C19.0076 46.1026 19.0617 46.2911 19.1563 46.4533L17.4943 48.4848C17.2091 48.8335 17.5713 49.3343 17.9917 49.1726L23.3338 47.1179C23.4009 47.0921 23.4593 47.0509 23.5052 46.9989H40.91C41.5162 46.9989 42.0076 46.5075 42.0076 45.9013V37.0965C42.0076 36.4903 41.5162 35.9989 40.91 35.9989H20.1052Z" fill="#F6F7FA"/>
<path d="M19.1563 46.4533L19.4961 46.7312L19.689 46.4954L19.5355 46.2322L19.1563 46.4533ZM17.4943 48.4848L17.1545 48.2069H17.1545L17.4943 48.4848ZM17.9917 49.1726L18.1493 49.5823H18.1493L17.9917 49.1726ZM23.3338 47.1179L23.1762 46.7082L23.1762 46.7082L23.3338 47.1179ZM23.5052 46.9989V46.5599H23.3073L23.1762 46.7082L23.5052 46.9989ZM19.4466 37.0965C19.4466 36.7328 19.7415 36.4379 20.1052 36.4379V35.5599C19.2565 35.5599 18.5686 36.2478 18.5686 37.0965H19.4466ZM19.4466 45.9013V37.0965H18.5686V45.9013H19.4466ZM19.5355 46.2322C19.4791 46.1353 19.4466 46.0228 19.4466 45.9013H18.5686C18.5686 46.1823 18.6444 46.4469 18.777 46.6743L19.5355 46.2322ZM17.8341 48.7628L19.4961 46.7312L18.8164 46.1753L17.1545 48.2069L17.8341 48.7628ZM17.8341 48.7628H17.8341L17.1545 48.2069C16.584 48.9042 17.3084 49.9058 18.1493 49.5823L17.8341 48.7628ZM23.1762 46.7082L17.8341 48.7628L18.1493 49.5823L23.4914 47.5277L23.1762 46.7082ZM23.1762 46.7082L23.1762 46.7082L23.4914 47.5277C23.6255 47.4761 23.7424 47.3935 23.8342 47.2896L23.1762 46.7082ZM40.91 46.5599H23.5052V47.4379H40.91V46.5599ZM41.5686 45.9013C41.5686 46.265 41.2737 46.5599 40.91 46.5599V47.4379C41.7587 47.4379 42.4466 46.75 42.4466 45.9013H41.5686ZM41.5686 37.0965V45.9013H42.4466V37.0965H41.5686ZM40.91 36.4379C41.2737 36.4379 41.5686 36.7328 41.5686 37.0965H42.4466C42.4466 36.2478 41.7587 35.5599 40.91 35.5599V36.4379ZM20.1052 36.4379H40.91V35.5599H20.1052V36.4379Z" fill="#293044"/>
<circle cx="23.7508" cy="41.7042" r="1.26642" fill="#515BB2"/>
<circle cx="30.243" cy="41.7042" r="1.26642" fill="#515BB2"/>
<circle cx="36.7274" cy="41.7042" r="1.26642" fill="#515BB2"/>
<circle cx="45.4667" cy="18.5326" r="7.46667" fill="#293044"/>
<circle cx="46.5292" cy="17.465" r="7.86667" fill="#F6F7FA" stroke="#293044" stroke-width="0.8"/>
<path fill-rule="evenodd" clip-rule="evenodd" d="M46.537 24.9319C50.6607 24.9319 54.0036 21.5889 54.0036 17.4652C54.0036 13.3415 50.6607 9.99854 46.537 9.99854C42.4133 9.99854 39.0703 13.3415 39.0703 17.4652C39.0703 21.5889 42.4133 24.9319 46.537 24.9319ZM43.4184 16.408L45.6299 18.6195L49.7702 14.4791L51.134 15.8428L45.6299 21.347L42.0547 17.7718L43.4184 16.408Z" fill="#515BB2"/>
</g>
<defs>
<clipPath id="clip0_1979_29212">
<rect width="72" height="72" fill="white"/>
</clipPath>
</defs>
</svg>
