<svg width="72" height="72" viewBox="0 0 72 72" fill="none" xmlns="http://www.w3.org/2000/svg">
<g clip-path="url(#clip0_1979_29243)">
<circle cx="36" cy="36" r="36" fill="#F6F7FA"/>
<path d="M50.22 37.9998C50.7348 37.9998 52.4153 41.1025 53.8233 42.5C55.5742 43.8234 54.8528 47.5002 54.8528 47.5002C54.1789 50.1051 54.1598 57.9034 53.8649 60.5585C54.3058 60.7529 54.6132 61.1835 54.6132 61.6847V63.7624C54.6132 64.446 54.0431 64.9998 53.3393 64.9998H44.4132C43.7094 64.9998 43.1393 64.446 43.1393 63.7624V61.6847C43.1393 61.1764 43.4546 60.7403 43.9057 60.5497V59.5692C41.323 56.9454 40.3858 53.1504 40.3858 53.1504L37.5527 50.5737L34.2589 47.5773C32.2046 45.4684 33.2828 43.893 33.2828 43.893C35.2311 42.0991 39.7525 46.255 39.7525 46.255C39.7525 46.255 45.2831 48.7049 46.6168 47.0002L50.22 37.9998Z" fill="#293044"/>
<rect x="25.5" y="11.4236" width="24.8845" height="47.3991" rx="1.49013" fill="#293044"/>
<rect x="23.2891" y="9.21661" width="24.8845" height="47.3991" rx="2.36995" fill="#F6F7FA" stroke="#293044" stroke-width="0.93"/>
<path d="M23.8906 51.282H48.1827" stroke="#293044" stroke-width="0.93"/>
<path d="M39.9839 11.5866H31.4858C31.1715 11.5866 30.8701 11.4617 30.6479 11.2395C29.9014 10.493 30.4301 9.21661 31.4858 9.21661H39.9839C41.0396 9.21661 41.5683 10.493 40.8218 11.2395C40.5996 11.4617 40.2982 11.5866 39.9839 11.5866Z" stroke="#293044" stroke-width="0.93"/>
<rect opacity="0.5" x="25.7969" y="14.6141" width="19.4336" height="23.7522" rx="2.15929" fill="#DADDFD"/>
<rect opacity="0.5" x="25.7969" y="41.6063" width="19.4336" height="6.47788" rx="2.15929" fill="#DADDFD"/>
<path d="M50.0617 38.1923C50.7701 39.2194 51.6824 40.6643 52.5 41.4998C54.0671 42.7192 53.5953 45.9364 53.5115 46.4346C53.5039 46.4797 53.4949 46.5194 53.4843 46.5638C52.9365 48.8489 52.8431 54.8277 52.6487 58.1479C52.5992 58.9919 53.2673 59.8383 53.2673 60.6837V62.7613C53.2673 63.4449 52.7135 63.9986 52.0299 63.9986H43.3596C42.676 63.9986 42.1222 63.4449 42.1222 62.7613V60.6837C42.1222 60.3934 42.222 60.1268 42.3893 59.9159C42.6188 59.6265 42.8666 59.3098 42.8666 58.9405C42.8666 58.7016 42.773 58.473 42.6143 58.2945C40.9201 56.3898 40.0107 53.9864 39.644 52.8311C39.5037 52.3891 39.2671 51.9808 38.9286 51.6639L36.6957 49.5731L33.4963 46.5769C31.9622 44.9557 32.2265 43.6498 32.4307 43.1326C32.4962 42.9668 32.6096 42.8242 32.7575 42.7246C34.4245 41.6028 37.5685 44.1424 38.5394 44.9909C38.7361 45.1628 38.9533 45.3102 39.1944 45.4108C40.3454 45.8908 43.9246 47.2525 45.2649 46.2339C45.4407 46.1004 45.5406 45.8954 45.6206 45.6897L48.4124 38.5108C48.7667 37.5998 49.5068 37.3877 50.0617 38.1923Z" fill="#F6F7FA" stroke="#293044" stroke-width="0.93"/>
<path d="M52.7871 59.4197H43.0703" stroke="#293044" stroke-width="1.00407" stroke-linecap="round" stroke-linejoin="round"/>
<path d="M41.054 18.9354H38.0312V20.9505H41.054V23.9732H43.0691V20.9505C43.0691 20.4161 42.8568 19.9035 42.4789 19.5256C42.101 19.1477 41.5884 18.9354 41.054 18.9354Z" fill="#515BB2"/>
<path d="M27.9531 20.9505V23.9732H29.9683V20.9505H32.991V18.9354H29.9683C29.4338 18.9354 28.9213 19.1477 28.5433 19.5256C28.1654 19.9035 27.9531 20.4161 27.9531 20.9505Z" fill="#515BB2"/>
<path d="M29.9683 29.0143H27.9531V32.037C27.9531 32.5715 28.1654 33.084 28.5433 33.4619C28.9213 33.8399 29.4338 34.0522 29.9683 34.0522H32.991V32.037H29.9683V29.0143Z" fill="#515BB2"/>
<path d="M41.054 32.0372H38.0312V34.0523H41.054C41.5884 34.0523 42.101 33.84 42.4789 33.4621C42.8568 33.0842 43.0691 32.5716 43.0691 32.0372V29.0145H41.054V32.0372Z" fill="#515BB2"/>
<path d="M36.5073 25.4871H34.4922V27.5023H36.5073V25.4871Z" fill="#515BB2"/>
<path d="M38.5464 23.4734H36.5312V25.4886H38.5464V23.4734Z" fill="#515BB2"/>
<path d="M34.4995 23.4734H32.4844V25.4886H34.4995V23.4734Z" fill="#515BB2"/>
<path d="M38.5464 27.4988H36.5312V29.514H38.5464V27.4988Z" fill="#515BB2"/>
<path d="M34.4995 27.4988H32.4844V29.514H34.4995V27.4988Z" fill="#515BB2"/>
</g>
<defs>
<clipPath id="clip0_1979_29243">
<rect width="72" height="72" fill="white"/>
</clipPath>
</defs>
</svg>
