<svg width="72" height="72" viewBox="0 0 72 72" fill="none" xmlns="http://www.w3.org/2000/svg">
<g clip-path="url(#clip0_1979_29186)">
<circle cx="36" cy="36" r="36" fill="#F6F7FA"/>
<path d="M62 27.2609C62 26.5663 61.437 26 60.7425 26H14.2575C13.563 26 13 26.563 13 27.2575V52.7425C13 53.437 13.563 54 14.2575 54H60.7425C61.437 54 62 53.4357 62 52.7412C62 41.1693 62 37.5574 62 27.2609Z" fill="#293044"/>
<path d="M10 25.2575C10 24.563 10.563 24 11.2575 24H58.7425C59.437 24 60 24.563 60 25.2575V50.7425C60 51.437 59.437 52 58.7425 52H11.2575C10.563 52 10 51.437 10 50.7425L10 25.2575Z" fill="#F6F7FA"/>
<rect x="12" y="27" width="12" height="12" rx="6" fill="#515BB2"/>
<path d="M26 24V52" stroke="#293044" stroke-width="0.8"/>
<path fill-rule="evenodd" clip-rule="evenodd" d="M10 25.2575C10 24.563 10.563 24 11.2575 24H58.7425C59.437 24 60 24.563 60 25.2575V50.7425C60 51.437 59.437 52 58.7425 52H11.2575C10.563 52 10 51.437 10 50.7425L10 25.2575Z" stroke="#293044" stroke-width="0.8"/>
<path d="M16.5 31.1667C16.5 31.9937 17.173 32.6667 18 32.6667C18.827 32.6667 19.5 31.9937 19.5 31.1667C19.5 30.3397 18.827 29.6667 18 29.6667C17.173 29.6667 16.5 30.3397 16.5 31.1667ZM20.6667 36H21V35.6667C21 34.3804 19.953 33.3334 18.6667 33.3334H17.3333C16.0467 33.3334 15 34.3804 15 35.6667V36H20.6667Z" fill="white"/>
<rect x="30" y="29" width="26" height="4" rx="1" fill="#DADDFD"/>
<rect x="30" y="36" width="22" height="4" rx="1" fill="#DADDFD"/>
<rect x="30" y="43" width="10" height="4" rx="1" fill="#DADDFD"/>
</g>
<defs>
<clipPath id="clip0_1979_29186">
<rect width="72" height="72" fill="white"/>
</clipPath>
</defs>
</svg>
