<svg width="72" height="72" viewBox="0 0 72 72" fill="none" xmlns="http://www.w3.org/2000/svg">
<g clip-path="url(#clip0_1979_18729)">
<circle cx="36" cy="36" r="36" fill="#F6F7FA"/>
<rect x="20.7266" y="15.0449" width="23.0488" height="43.9024" rx="1.3802" fill="#293044"/>
<rect x="18.6797" y="13.0002" width="23.0488" height="43.9024" rx="2.19512" fill="#DADDFD" stroke="#293044" stroke-width="0.878049"/>
<rect x="22" y="43" width="16" height="6" rx="2.15929" fill="#F6F7FA"/>
<path d="M19.2344 51.9626H41.7344" stroke="#293044" stroke-width="0.878049"/>
<path d="M34.146 15.1954H26.2747C25.9837 15.1954 25.7045 15.0797 25.4987 14.8739C24.8072 14.1825 25.2969 13.0002 26.2747 13.0002H34.146C35.1238 13.0002 35.6135 14.1825 34.9221 14.8739C34.7162 15.0797 34.4371 15.1954 34.146 15.1954Z" fill="#F6F7FA" stroke="#293044" stroke-width="0.878049"/>
<path fill-rule="evenodd" clip-rule="evenodd" d="M41 21C39.3431 21 38 22.3431 38 24V42C38 42.1099 38.0059 42.2185 38.0174 42.3253C38.0753 42.8625 37.9161 43.4459 37.4528 43.7238C37.2915 43.8206 37.1578 43.9572 37.0645 44.1205L35.6231 46.6429C35.4183 47.0014 35.7765 47.4187 36.1619 47.2705L41.9004 45.0634C41.9786 45.0333 42.0581 45 42.1419 45H58C59.6568 45 61 43.6569 61 42V24C61 22.3431 59.6568 21 58 21H41Z" fill="#293044"/>
<path fill-rule="evenodd" clip-rule="evenodd" d="M39.617 20C37.9601 20 36.617 21.3431 36.617 23V41C36.617 41.71 36.8636 42.3624 37.2759 42.8762C37.2168 42.9237 37.1628 42.9773 37.1147 43.0361L35.1115 45.4848C34.8263 45.8335 35.1885 46.3343 35.6089 46.1726L40.951 44.1179C41.0176 44.0923 41.0756 44.0515 41.1214 44H56.617C58.2738 44 59.617 42.6569 59.617 41V23C59.617 21.3431 58.2738 20 56.617 20H39.617Z" fill="#F6F7FA"/>
<path d="M37.2759 42.8762L37.5512 43.2181L37.8926 42.9432L37.6183 42.6014L37.2759 42.8762ZM37.1147 43.0361L36.7749 42.7581L36.7749 42.7581L37.1147 43.0361ZM35.1115 45.4848L34.7717 45.2069H34.7717L35.1115 45.4848ZM35.6089 46.1726L35.7665 46.5823H35.7665L35.6089 46.1726ZM40.951 44.1179L40.7934 43.7082L40.7934 43.7082L40.951 44.1179ZM41.1214 44V43.561H40.9244L40.7934 43.7082L41.1214 44ZM37.056 23C37.056 21.5856 38.2026 20.439 39.617 20.439V19.561C37.7176 19.561 36.1779 21.1007 36.1779 23H37.056ZM37.056 41V23H36.1779V41H37.056ZM37.6183 42.6014C37.2663 42.1627 37.056 41.6065 37.056 41H36.1779C36.1779 41.8135 36.4609 42.562 36.9335 43.1509L37.6183 42.6014ZM37.4545 43.314C37.4834 43.2788 37.5158 43.2467 37.5512 43.2181L37.0005 42.5342C36.9179 42.6008 36.8422 42.6758 36.7749 42.7581L37.4545 43.314ZM35.4513 45.7628L37.4545 43.314L36.7749 42.7581L34.7717 45.2069L35.4513 45.7628ZM35.4513 45.7628H35.4513L34.7717 45.2069C34.2012 45.9042 34.9256 46.9058 35.7665 46.5823L35.4513 45.7628ZM40.7934 43.7082L35.4513 45.7628L35.7665 46.5823L41.1086 44.5277L40.7934 43.7082ZM40.7934 43.7082L40.7934 43.7082L41.1086 44.5277C41.2418 44.4765 41.3579 44.3947 41.4494 44.2918L40.7934 43.7082ZM56.617 43.561H41.1214V44.439H56.617V43.561ZM59.1779 41C59.1779 42.4144 58.0314 43.561 56.617 43.561V44.439C58.5163 44.439 60.056 42.8993 60.056 41H59.1779ZM59.1779 23V41H60.056V23H59.1779ZM56.617 20.439C58.0314 20.439 59.1779 21.5856 59.1779 23H60.056C60.056 21.1007 58.5163 19.561 56.617 19.561V20.439ZM39.617 20.439H56.617V19.561H39.617V20.439Z" fill="#293044"/>
<g clip-path="url(#clip1_1979_18729)">
<path d="M53.7 25H43.3C42.9552 25 42.6246 25.1395 42.3808 25.3877C42.137 25.6359 42 25.9725 42 26.3236V30.3824C42 30.4994 42.0457 30.6116 42.1269 30.6943C42.2082 30.7771 42.3184 30.8236 42.4333 30.8236H42.9246C43.358 30.8236 43.7182 31.1666 43.7328 31.5884C43.737 31.6951 43.72 31.8016 43.6828 31.9014C43.6456 32.0012 43.5889 32.0923 43.5161 32.1691C43.4436 32.2463 43.3563 32.3075 43.2598 32.3492C43.1632 32.391 43.0593 32.4122 42.9544 32.4118H42.4344C42.3195 32.4118 42.2093 32.4583 42.128 32.541C42.0467 32.6237 42.0011 32.736 42.0011 32.853V36.9118C42.0011 37.2628 42.138 37.5995 42.3818 37.8477C42.6256 38.0959 42.9563 38.2353 43.3011 38.2353H50.0394L50.6569 39.0851C50.6645 39.0956 50.6732 39.1061 50.6818 39.116L50.69 39.1254C51.015 39.4949 51.4543 40 52.2879 40C52.566 39.9985 52.8407 39.9378 53.0943 39.8218C53.348 39.7057 53.575 39.5369 53.7607 39.3261C54.0503 39.0029 54.2031 38.5765 54.1859 38.1394C54.4265 38.0409 54.6328 37.8714 54.778 37.6526C54.9233 37.4339 55.001 37.1759 55.0011 36.9118V26.3236C55.0011 26.1497 54.9674 25.9775 54.902 25.8168C54.8366 25.6562 54.7408 25.5102 54.6199 25.3873C54.4991 25.2644 54.3557 25.1669 54.1978 25.1005C54.04 25.034 53.8708 24.9999 53.7 25Z" fill="#303778"/>
<path d="M51.3408 38.5441C51.6517 38.8998 51.8657 39.1176 52.2865 39.1176C52.442 39.117 52.5955 39.0831 52.7373 39.0184C52.8791 38.9536 53.0061 38.8593 53.1099 38.7415C53.1857 38.6597 53.2433 38.5621 53.2788 38.4555C53.3142 38.3489 53.3266 38.2358 53.3152 38.1239C53.2198 37.3463 52.54 33.5654 52.1105 31.2035C51.7556 31.8627 51.2332 32.4127 50.598 32.796C49.9628 33.1793 49.2381 33.3818 48.4997 33.3823C48.4902 33.3829 48.4806 33.3829 48.471 33.3823C48.334 33.3729 48.152 33.3956 48.0615 33.5544C47.976 33.7033 47.9982 33.92 48.1157 34.1092L51.3408 38.5441Z" fill="#868AC3"/>
<path d="M42.8662 33.2941V36.9118C42.8662 37.0288 42.9119 37.141 42.9931 37.2237C43.0744 37.3065 43.1846 37.3529 43.2995 37.3529H49.3971L47.413 34.6226L47.4 34.6033C47.0912 34.1274 47.0576 33.5555 47.3122 33.1094C47.5478 32.6969 47.9953 32.4691 48.5125 32.5C48.941 32.4996 49.365 32.4123 49.76 32.2433C50.1549 32.0743 50.5129 31.8269 50.813 31.5156C51.1164 31.2044 51.3556 30.8345 51.5165 30.4277C51.6773 30.0209 51.7566 29.5855 51.7495 29.1471C51.7263 27.3471 50.2443 25.8824 48.4454 25.8824H43.2995C43.1846 25.8824 43.0744 25.9288 42.9931 26.0116C42.9119 26.0943 42.8662 26.2065 42.8662 26.3235V29.9412H42.9242C43.8163 29.9412 44.5676 30.6658 44.5985 31.557C44.6073 31.7823 44.571 32.007 44.4918 32.2175C44.4127 32.4281 44.2923 32.6201 44.138 32.7818C43.9849 32.9445 43.8009 33.0738 43.5971 33.1619C43.3934 33.25 43.1742 33.2949 42.9529 33.2941H42.8662Z" fill="#DFE1F2"/>
</g>
</g>
<defs>
<clipPath id="clip0_1979_18729">
<rect width="72" height="72" fill="white"/>
</clipPath>
<clipPath id="clip1_1979_18729">
<rect width="13" height="15" fill="white" transform="translate(42 25)"/>
</clipPath>
</defs>
</svg>
