<svg width="46" height="57" viewBox="0 0 46 57" fill="none" xmlns="http://www.w3.org/2000/svg">
<path d="M35.22 29.6328C35.7348 29.6328 37.4153 32.7355 38.8233 34.133C40.5742 35.4564 39.8528 39.1332 39.8528 39.1332C39.1789 41.7381 39.1598 49.5364 38.8649 52.1915C39.3058 52.3859 39.6132 52.8165 39.6132 53.3177V55.3954C39.6132 56.079 39.0431 56.6328 38.3393 56.6328H29.4132C28.7094 56.6328 28.1393 56.079 28.1393 55.3954V53.3177C28.1393 52.8094 28.4546 52.3733 28.9057 52.1827V51.2022C26.323 48.5784 25.3858 44.7834 25.3858 44.7834L22.5527 42.2067L19.2589 39.2103C17.2046 37.1014 18.2828 35.526 18.2828 35.526C20.2311 33.7321 24.7525 37.888 24.7525 37.888C24.7525 37.888 30.2831 40.3379 31.6168 38.6332L35.22 29.6328Z" fill="#293044"/>
<rect x="10.5" y="3.05664" width="24.8845" height="47.3991" rx="1.49013" fill="#293044"/>
<rect x="8.28906" y="0.849609" width="24.8845" height="47.3991" rx="2.36995" fill="#F6F7FA" stroke="#293044" stroke-width="0.93"/>
<path d="M8.89062 42.915H33.1827" stroke="#293044" stroke-width="0.93"/>
<path d="M24.9839 3.21956H16.4858C16.1715 3.21956 15.8701 3.09472 15.6479 2.87249C14.9014 2.126 15.4301 0.849609 16.4858 0.849609H24.9839C26.0396 0.849609 26.5683 2.126 25.8218 2.87249C25.5996 3.09472 25.2982 3.21956 24.9839 3.21956Z" stroke="#293044" stroke-width="0.93"/>
<rect opacity="0.5" x="10.7969" y="6.24707" width="19.4336" height="23.7522" rx="2.15929" fill="#DFE1F2"/>
<rect opacity="0.5" x="10.7969" y="33.2393" width="19.4336" height="6.47788" rx="2.15929" fill="#DFE1F2"/>
<path d="M35.0617 29.8253C35.7701 30.8523 36.6824 32.2973 37.5 33.1328C39.0671 34.3522 38.5953 37.5694 38.5115 38.0676C38.5039 38.1127 38.4949 38.1524 38.4843 38.1968C37.9365 40.4819 37.8431 46.4607 37.6487 49.7809C37.5992 50.6249 38.2673 51.4713 38.2673 52.3167V54.3943C38.2673 55.0779 37.7135 55.6316 37.0299 55.6316H28.3596C27.676 55.6316 27.1222 55.0779 27.1222 54.3943V52.3167C27.1222 52.0264 27.222 51.7598 27.3893 51.5489C27.6188 51.2595 27.8666 50.9428 27.8666 50.5735C27.8666 50.3346 27.773 50.106 27.6143 49.9275C25.9201 48.0228 25.0107 45.6194 24.644 44.4641C24.5037 44.0221 24.2671 43.6138 23.9286 43.2969L21.6957 41.2061L18.4963 38.2099C16.9622 36.5887 17.2265 35.2828 17.4307 34.7656C17.4962 34.5998 17.6096 34.4572 17.7575 34.3576C19.4245 33.2358 22.5685 35.7754 23.5394 36.6239C23.7361 36.7958 23.9533 36.9432 24.1944 37.0438C25.3454 37.5238 28.9246 38.8855 30.2649 37.8669C30.4407 37.7334 30.5406 37.5284 30.6206 37.3227L33.4124 30.1438C33.7667 29.2328 34.5068 29.0207 35.0617 29.8253Z" fill="#F6F7FA" stroke="#293044" stroke-width="0.93"/>
<path d="M37.7871 51.0527H28.0703" stroke="#293044" stroke-width="1.00407" stroke-linecap="round" stroke-linejoin="round"/>
<path d="M26.054 10.5684H23.0312V12.5835H26.054V15.6062H28.0691V12.5835C28.0691 12.0491 27.8568 11.5365 27.4789 11.1586C27.101 10.7807 26.5884 10.5684 26.054 10.5684Z" fill="#568DF4"/>
<path d="M12.9531 12.5835V15.6062H14.9683V12.5835H17.991V10.5684H14.9683C14.4338 10.5684 13.9213 10.7807 13.5433 11.1586C13.1654 11.5365 12.9531 12.0491 12.9531 12.5835Z" fill="#568DF4"/>
<path d="M14.9683 20.6472H12.9531V23.6699C12.9531 24.2044 13.1654 24.717 13.5433 25.0949C13.9213 25.4728 14.4338 25.6851 14.9683 25.6851H17.991V23.6699H14.9683V20.6472Z" fill="#568DF4"/>
<path d="M26.054 23.6702H23.0312V25.6853H26.054C26.5884 25.6853 27.101 25.473 27.4789 25.0951C27.8568 24.7172 28.0691 24.2046 28.0691 23.6702V20.6475H26.054V23.6702Z" fill="#568DF4"/>
<path d="M21.5073 17.1201H19.4922V19.1353H21.5073V17.1201Z" fill="#568DF4"/>
<path d="M23.5464 15.1064H21.5312V17.1216H23.5464V15.1064Z" fill="#568DF4"/>
<path d="M19.4995 15.1064H17.4844V17.1216H19.4995V15.1064Z" fill="#568DF4"/>
<path d="M23.5464 19.1318H21.5312V21.147H23.5464V19.1318Z" fill="#568DF4"/>
<path d="M19.4995 19.1318H17.4844V21.147H19.4995V19.1318Z" fill="#568DF4"/>
</svg>
