<svg width="72" height="72" viewBox="0 0 72 72" fill="none" xmlns="http://www.w3.org/2000/svg">
<g clip-path="url(#clip0_1979_18753)">
<circle cx="36" cy="36" r="36" fill="#F6F7FA"/>
<path d="M52 27C53.1046 27 54 27.8954 54 29V53C54 54.1046 53.1046 55 52 55V27Z" fill="#293044"/>
<path d="M24 53H54V54C54 55.1046 53.1046 56 52 56H25C24.4477 56 24 55.5523 24 55V53Z" fill="#293044"/>
<rect x="22" y="27" width="30" height="27" fill="#F6F7FA"/>
<rect x="27.0312" y="23.8789" width="25.4889" height="2.63679" fill="#DADDFD"/>
<rect x="33.1836" y="43.2153" width="7.91036" height="11.4261" fill="#DADDFD"/>
<path fill-rule="evenodd" clip-rule="evenodd" d="M20 23.5759V32.9691C20 34.0183 20.357 34.9869 20.9443 35.762V35.7631V54.4241C20.9443 54.742 21.1977 55 21.5202 55H51.879C52.2015 55 52.4548 54.742 52.4548 54.4241V35.7631V35.762C53.0537 34.9869 53.3993 34.0183 53.3993 32.9691V23.5759C53.3993 23.2568 53.1459 23 52.8235 23H20.5759C20.2649 23 20 23.2568 20 23.5759ZM44.7616 35.2C43.9784 36.6154 42.4697 37.5736 40.7306 37.5736C38.9915 37.5736 37.4828 36.6154 36.6997 35.2C35.9165 36.6154 34.4078 37.5736 32.6687 37.5736C30.9296 37.5736 29.4209 36.6154 28.6378 35.2C27.8546 36.6154 26.3459 37.5736 24.6068 37.5736C23.6739 37.5736 22.8216 37.3007 22.096 36.8308C22.096 40.7109 22.096 53.8483 22.096 53.8483H32.0929V43.3091C32.0929 42.9912 32.3577 42.7332 32.6687 42.7332H40.7306C41.0531 42.7332 41.3065 42.9912 41.3065 43.3091V53.8483H51.3031V36.8308C50.5891 37.3007 49.7254 37.5736 48.7925 37.5736C47.0534 37.5736 45.5447 36.6154 44.7616 35.2ZM33.2446 53.8483H40.1548V43.8849H33.2446V53.8483ZM52.2476 27.4133H21.1517V32.9691C21.1517 34.8763 22.695 36.4219 24.6068 36.4219C26.5186 36.4219 28.0619 34.8763 28.0619 32.9691V32.93L28.0734 32.8943V32.8551L28.085 32.8148L28.0965 32.7779L28.108 32.7445L28.1194 32.7123L28.1425 32.6823L28.154 32.6524L28.177 32.6213L28.2001 32.5914L28.2347 32.5614L28.2576 32.5349L28.2922 32.5107L28.3268 32.4889L28.3498 32.4704L28.3844 32.452L28.4189 32.4359L28.465 32.4209L28.4996 32.4106L28.5341 32.4036L28.5686 32.3979L28.6032 32.3944L28.6378 32.3933L28.6839 32.3944L28.7183 32.3979L28.7529 32.4048L28.799 32.4152L28.8335 32.4267L28.868 32.4393L28.9026 32.4543L28.9257 32.4704L28.9603 32.4889L28.9947 32.5119L29.0178 32.5361L29.0523 32.5637L29.0754 32.5925L29.0985 32.6225L29.1214 32.6536L29.1329 32.6835L29.156 32.7169L29.1675 32.7526L29.1905 32.7906L29.2021 32.8286V32.8632L29.2136 32.8989V32.9357V32.9691C29.2136 34.8763 30.7569 36.4219 32.6687 36.4219C34.5805 36.4219 36.1238 34.8763 36.1238 32.9691V32.93L36.1353 32.8943V32.8551L36.1469 32.8148L36.1584 32.7779L36.1699 32.7445L36.1813 32.7123L36.2044 32.6823L36.2159 32.6524L36.2389 32.6213L36.262 32.5914L36.2966 32.5614L36.3195 32.5349L36.3541 32.5107L36.3887 32.4889L36.4117 32.4704L36.4463 32.452L36.4808 32.4359L36.5269 32.4209L36.5615 32.4106L36.596 32.4036L36.6305 32.3979L36.6651 32.3944L36.6997 32.3933L36.7458 32.3944L36.7802 32.3979L36.8148 32.4048L36.8609 32.4152L36.8954 32.4267L36.9299 32.4393L36.9645 32.4543L36.9876 32.4704L37.0222 32.4889L37.0566 32.5119L37.0797 32.5361L37.1143 32.5637L37.1373 32.5925L37.1604 32.6225L37.1833 32.6536L37.1948 32.6835L37.2179 32.7169L37.2294 32.7526L37.2524 32.7906L37.264 32.8286V32.8632L37.2755 32.8989V32.9357V32.9691C37.2755 34.8763 38.8188 36.4219 40.7306 36.4219C42.6424 36.4219 44.1857 34.8763 44.1857 32.9691V32.93L44.1972 32.8943V32.8551L44.2088 32.8148L44.2203 32.7779L44.2318 32.7445L44.2432 32.7123L44.2663 32.6823L44.2778 32.6524L44.3008 32.6213L44.3239 32.5914L44.3585 32.5614L44.3814 32.5349L44.416 32.5107L44.4506 32.4889L44.4736 32.4704L44.5082 32.452L44.5427 32.4359L44.5888 32.4209L44.6234 32.4106L44.6579 32.4036L44.6924 32.3979L44.727 32.3944L44.7616 32.3933L44.8077 32.3944L44.8421 32.3979L44.8767 32.4048L44.9228 32.4152L44.9573 32.4267L44.9918 32.4393L45.0264 32.4543L45.0495 32.4704L45.0841 32.4889L45.1185 32.5119L45.1416 32.5361L45.1762 32.5637L45.1992 32.5925L45.2223 32.6225L45.2452 32.6536L45.2567 32.6835L45.2798 32.7169L45.2913 32.7526L45.3144 32.7906L45.3259 32.8286V32.8632L45.3374 32.8989V32.9357V32.9691C45.3374 34.8763 46.8807 36.4219 48.7925 36.4219C50.7043 36.4219 52.2476 34.8763 52.2476 32.9691V27.4133ZM52.2476 26.2616V24.1517H21.1517V26.2616H52.2476Z" fill="#293044"/>
<path fill-rule="evenodd" clip-rule="evenodd" d="M19.0719 12.701C17.9103 12.701 16.9688 13.6426 16.9688 14.8042V27.4229C16.9688 28.5844 17.9103 29.526 19.0719 29.526H30.9895C31.1095 29.526 31.2271 29.5159 31.3415 29.4966C31.5314 29.4646 31.7272 29.456 31.912 29.51L33.9431 30.1037C34.243 30.1914 34.4676 29.828 34.255 29.5989L33.3616 28.6362C33.1088 28.3638 33.0542 27.9709 33.0852 27.6005C33.0901 27.542 33.0926 27.4827 33.0926 27.4229V14.8042C33.0926 13.6426 32.151 12.701 30.9895 12.701H19.0719Z" fill="#293044"/>
<path fill-rule="evenodd" clip-rule="evenodd" d="M18.1031 12C16.9416 12 16 12.9416 16 14.1031V26.7218C16 27.8833 16.9416 28.8249 18.1031 28.8249H30.0208C30.6394 28.8249 31.1956 28.5578 31.5804 28.1327L33.071 29.106L34.2508 29.7724C34.5309 29.9306 34.8353 29.6073 34.6606 29.3372L32.1239 25.4156V14.1031C32.1239 12.9416 31.1823 12 30.0208 12H18.1031Z" fill="#F6F7FA"/>
<path d="M31.5804 28.1327L31.7487 27.875L31.5286 27.7313L31.3522 27.9262L31.5804 28.1327ZM33.071 29.106L32.9027 29.3637L32.911 29.3691L32.9196 29.374L33.071 29.106ZM34.2508 29.7724L34.0995 30.0404H34.0995L34.2508 29.7724ZM34.6606 29.3372L34.919 29.1701L34.6606 29.3372ZM32.1239 25.4156H31.8161V25.5065L31.8655 25.5828L32.1239 25.4156ZM16.3078 14.1031C16.3078 13.1116 17.1116 12.3078 18.1031 12.3078V11.6922C16.7716 11.6922 15.6922 12.7716 15.6922 14.1031H16.3078ZM16.3078 26.7218V14.1031H15.6922V26.7218H16.3078ZM18.1031 28.5171C17.1116 28.5171 16.3078 27.7133 16.3078 26.7218H15.6922C15.6922 28.0533 16.7716 29.1327 18.1031 29.1327V28.5171ZM30.0208 28.5171H18.1031V29.1327H30.0208V28.5171ZM31.3522 27.9262C31.0233 28.2896 30.5488 28.5171 30.0208 28.5171V29.1327C30.7299 29.1327 31.3679 28.8261 31.8086 28.3393L31.3522 27.9262ZM33.2393 28.8483L31.7487 27.875L31.4121 28.3904L32.9027 29.3637L33.2393 28.8483ZM34.4022 29.5044L33.2223 28.838L32.9196 29.374L34.0995 30.0404L34.4022 29.5044ZM34.4022 29.5044V29.5044L34.0995 30.0404C34.6596 30.3567 35.2684 29.7102 34.919 29.1701L34.4022 29.5044ZM31.8655 25.5828L34.4022 29.5044L34.919 29.1701L32.3823 25.2485L31.8655 25.5828ZM31.8161 14.1031V25.4156H32.4317V14.1031H31.8161ZM30.0208 12.3078C31.0123 12.3078 31.8161 13.1116 31.8161 14.1031H32.4317C32.4317 12.7716 31.3523 11.6922 30.0208 11.6922V12.3078ZM18.1031 12.3078H30.0208V11.6922H18.1031V12.3078Z" fill="#293044"/>
<g clip-path="url(#clip1_1979_18753)">
<path d="M27.9756 15.5052H20.6848C20.4431 15.5052 20.2113 15.603 20.0404 15.777C19.8695 15.951 19.7734 16.187 19.7734 16.4331V19.2785C19.7734 19.3605 19.8054 19.4391 19.8624 19.4971C19.9194 19.5552 19.9967 19.5877 20.0772 19.5877H20.4216C20.7254 19.5877 20.9779 19.8282 20.9882 20.124C20.9912 20.1987 20.9793 20.2734 20.9531 20.3433C20.927 20.4133 20.8873 20.4771 20.8363 20.531C20.7854 20.5851 20.7243 20.6281 20.6566 20.6573C20.5889 20.6865 20.5161 20.7015 20.4425 20.7011H20.078C19.9974 20.7011 19.9201 20.7337 19.8632 20.7917C19.8062 20.8497 19.7742 20.9284 19.7742 21.0104V23.8558C19.7742 24.1019 19.8702 24.3379 20.0411 24.5119C20.212 24.6859 20.4438 24.7837 20.6855 24.7837H25.4094L25.8423 25.3794C25.8476 25.3868 25.8537 25.3941 25.8597 25.4011L25.8654 25.4076C26.0933 25.6667 26.4012 26.0208 26.9856 26.0208C27.1806 26.0197 27.3732 25.9772 27.551 25.8958C27.7288 25.8144 27.8879 25.6961 28.0181 25.5484C28.2212 25.3218 28.3283 25.0229 28.3162 24.7164C28.4849 24.6474 28.6295 24.5285 28.7313 24.3752C28.8332 24.2218 28.8876 24.0409 28.8877 23.8558V16.4331C28.8877 16.3112 28.8641 16.1904 28.8182 16.0778C28.7724 15.9652 28.7052 15.8629 28.6205 15.7767C28.5358 15.6905 28.4352 15.6222 28.3246 15.5756C28.2139 15.529 28.0953 15.5051 27.9756 15.5052Z" fill="#303778"/>
<path d="M26.3215 25C26.5395 25.2494 26.6895 25.4021 26.9845 25.4021C27.0935 25.4016 27.2011 25.3779 27.3005 25.3325C27.4 25.2871 27.4889 25.221 27.5617 25.1384C27.6149 25.0811 27.6553 25.0127 27.6801 24.9379C27.7049 24.8632 27.7136 24.7839 27.7056 24.7054C27.6388 24.1603 27.1622 21.5098 26.8611 19.854C26.6123 20.3161 26.2461 20.7017 25.8008 20.9704C25.3555 21.2391 24.8475 21.3811 24.3298 21.3814C24.3231 21.3818 24.3164 21.3818 24.3097 21.3814C24.2136 21.3749 24.086 21.3907 24.0226 21.5021C23.9626 21.6064 23.9782 21.7584 24.0606 21.891L26.3215 25Z" fill="#868AC3"/>
<path d="M20.3809 21.3196V23.8558C20.3809 23.9378 20.4129 24.0165 20.4698 24.0745C20.5268 24.1325 20.6041 24.165 20.6846 24.165H24.9593L23.5683 22.251L23.5592 22.2374C23.3427 21.9038 23.3192 21.5029 23.4977 21.1901C23.6629 20.901 23.9765 20.7413 24.3392 20.7629C24.6395 20.7626 24.9368 20.7015 25.2137 20.583C25.4905 20.4645 25.7415 20.2911 25.9519 20.0729C26.1646 19.8547 26.3323 19.5954 26.445 19.3102C26.5578 19.025 26.6133 18.7198 26.6084 18.4124C26.5921 17.1505 25.5531 16.1237 24.2921 16.1237H20.6846C20.6041 16.1237 20.5268 16.1563 20.4698 16.2143C20.4129 16.2723 20.3809 16.351 20.3809 16.433V18.9691H20.4215C21.0469 18.9691 21.5736 19.4771 21.5952 20.1019C21.6014 20.2598 21.576 20.4173 21.5205 20.5649C21.465 20.7125 21.3806 20.8471 21.2725 20.9605C21.1651 21.0746 21.0361 21.1652 20.8933 21.227C20.7504 21.2887 20.5968 21.3202 20.4416 21.3196H20.3809Z" fill="#DFE1F2"/>
</g>
</g>
<defs>
<clipPath id="clip0_1979_18753">
<rect width="72" height="72" fill="white"/>
</clipPath>
<clipPath id="clip1_1979_18753">
<rect width="9.1135" height="10.5156" fill="white" transform="translate(19.7734 15.5052)"/>
</clipPath>
</defs>
</svg>
