<svg width="50" height="49" viewBox="0 0 50 49" fill="none" xmlns="http://www.w3.org/2000/svg">
<rect x="1.19327" y="6.09792" width="31.7422" height="41.9018" rx="2.61564" transform="rotate(-3.35541 1.19327 6.09792)" fill="#293044"/>
<rect x="1.19327" y="6.09792" width="31.7422" height="41.9018" rx="2.61564" transform="rotate(-3.35541 1.19327 6.09792)" stroke="#293044" stroke-width="0.661461"/>
<path d="M17.518 40.9019L41.3579 39.5042C42.0158 39.4656 42.618 39.7111 43.003 40.1075C43.3819 40.4977 43.5539 41.0337 43.3731 41.6259C42.7453 43.6817 41.2587 45.774 38.1391 45.9569L20.0488 47.0176C20.049 47.0175 20.0444 47.0178 20.034 47.0157C20.0233 47.0135 20.0078 47.0091 19.9869 47.0004C19.9443 46.9826 19.8885 46.9508 19.8198 46.8996C19.6816 46.7966 19.5184 46.6358 19.3378 46.4227C18.978 45.998 18.5832 45.4062 18.2176 44.7714C17.8529 44.138 17.5241 43.4735 17.2938 42.9086C17.1785 42.6258 17.0901 42.3732 17.0338 42.1651C16.975 41.9475 16.9606 41.8108 16.967 41.7454C16.984 41.5713 17.0627 41.3449 17.1849 41.1642C17.313 40.9747 17.4372 40.9067 17.518 40.9019Z" fill="#293044" stroke="#293044" stroke-width="0.661461"/>
<rect x="3.05554" y="3.16496" width="36.2931" height="43.3956" rx="3.28297" transform="rotate(-3.35541 3.05554 3.16496)" fill="#F6F7FC"/>
<rect x="3.05554" y="3.16496" width="36.2931" height="43.3956" rx="3.28297" transform="rotate(-3.35541 3.05554 3.16496)" stroke="#293044" stroke-width="0.8"/>
<path d="M42.0338 44.2587L12.4447 45.9935C12.7664 45.8243 13.0873 45.6375 13.4007 45.4323C14.8257 44.4993 16.1443 43.1554 16.6461 41.3244C16.8859 40.4493 17.5043 39.794 18.2237 39.7518L48.3175 37.9874C48.5833 37.9719 48.7248 38.1698 48.7023 38.3364C48.5476 39.4828 48.0685 40.8961 47.044 42.0512C46.0302 43.1942 44.4547 44.1168 42.0338 44.2587Z" fill="#F6F7FC" stroke="#293044" stroke-width="0.982124"/>
<rect x="9.92188" y="14.1172" width="8.28667" height="2.76222" transform="rotate(-3.35541 9.92188 14.1172)" fill="#DFE1F2"/>
<rect x="9.54688" y="7.68359" width="8.28667" height="2.76222" transform="rotate(-3.35541 9.54688 7.68359)" fill="#DFE1F2"/>
<rect x="14.9844" y="25.3359" width="21.1771" height="2.76222" transform="rotate(-3.35541 14.9844 25.3359)" fill="#DFE1F2"/>
<rect x="15.3594" y="31.7695" width="21.1771" height="2.76222" transform="rotate(-3.35541 15.3594 31.7695)" fill="#BCBFE3"/>
<circle cx="40.0969" cy="12.5823" r="7.76593" transform="rotate(-3.35541 40.0969 12.5823)" fill="#F6F7FC" stroke="#293044" stroke-width="0.8"/>
<path fill-rule="evenodd" clip-rule="evenodd" d="M39.6658 5.22903C43.7269 4.99093 47.2121 8.09009 47.4502 12.1512C47.6883 16.2123 44.5892 19.6975 40.5281 19.9356C36.4669 20.1737 32.9817 17.0746 32.7436 13.0135C32.5055 8.95234 35.6047 5.46714 39.6658 5.22903ZM39.292 13.5355L37.9862 12.472C37.6182 12.1723 37.0769 12.2276 36.7772 12.5956C36.4775 12.9636 36.5328 13.5049 36.9008 13.8047L39.5358 15.9508C39.9788 16.3116 40.6239 16.2752 41.0234 15.8667L43.4114 13.4254C43.7433 13.0861 43.7373 12.542 43.398 12.2101C43.0587 11.8783 42.5146 11.8843 42.1828 12.2235L41.0072 13.4254L40.7881 9.68897C40.7603 9.21517 40.3537 8.8536 39.8799 8.88137C39.4061 8.90915 39.0446 9.31576 39.0723 9.78955L39.292 13.5355Z" fill="#568DF4"/>
<path d="M10.7031 26.2332L14.9031 22.0332" stroke="#293044" stroke-width="1.2" stroke-linecap="round"/>
<path d="M21.423 24.5566L16 22.1336" stroke="#293044" stroke-width="1.2" stroke-linecap="round"/>
<circle cx="10.1" cy="26.5336" r="1.90156" fill="#293044" stroke="#293044" stroke-width="0.396877"/>
<circle cx="14.8969" cy="21.7328" r="1.90156" fill="#293044" stroke="#293044" stroke-width="0.396877"/>
</svg>
