<svg width="464" height="429" viewBox="0 0 464 429" fill="none" xmlns="http://www.w3.org/2000/svg">
<rect x="2.04513" y="21.1689" width="410.522" height="410.522" rx="205.261" fill="#F6F7FA"/>
<rect x="2.04513" y="21.1689" width="410.522" height="410.522" rx="205.261" stroke="white" stroke-width="3.90973"/>
<path d="M188.417 169.37H251.579C258.416 169.37 266 178.1 266 188.87C266 199.639 258.416 208.37 251.579 208.37L182.421 208.37C175.584 208.37 168 217.1 168 227.87C168 238.639 175.584 247.37 182.421 247.37" stroke="#DFE1F2" stroke-width="3.78125"/>
<mask id="mask0_1600_67731" style="mask-type:alpha" maskUnits="userSpaceOnUse" x="4" y="23" width="407" height="407">
<circle cx="207.306" cy="226.431" r="203.306" fill="#D9D9D9"/>
</mask>
<g mask="url(#mask0_1600_67731)">
<path d="M-13.5 60.0378H684.022" stroke="#EDEDED" stroke-width="0.565121" stroke-linejoin="round"/>
<path d="M-13.5 103.224H684.022" stroke="#EDEDED" stroke-width="0.565121" stroke-linejoin="round"/>
<path d="M-13.5 146.423H684.022" stroke="#EDEDED" stroke-width="0.565121" stroke-linejoin="round"/>
<path d="M-13.5 189.609H684.022" stroke="#EDEDED" stroke-width="0.565121" stroke-linejoin="round"/>
<path d="M-13.5 232.802H684.022" stroke="#EDEDED" stroke-width="0.565121" stroke-linejoin="round"/>
<path d="M-13.5 275.994H684.022" stroke="#EDEDED" stroke-width="0.565121" stroke-linejoin="round"/>
<path d="M-13.5 319.181H684.022" stroke="#EDEDED" stroke-width="0.565121" stroke-linejoin="round"/>
<path d="M-13.5 362.371H684.022" stroke="#EDEDED" stroke-width="0.565121" stroke-linejoin="round"/>
<path d="M-13.5 405.555H684.022" stroke="#EDEDED" stroke-width="0.565121" stroke-linejoin="round"/>
<path d="M378.438 13.5984L378.437 711.12" stroke="#EDEDED" stroke-width="0.565121" stroke-linejoin="round"/>
<path d="M335.258 13.5984L335.258 711.12" stroke="#EDEDED" stroke-width="0.565121" stroke-linejoin="round"/>
<path d="M292.078 13.5984L292.078 711.12" stroke="#EDEDED" stroke-width="0.565121" stroke-linejoin="round"/>
<path d="M248.883 13.5984L248.883 711.12" stroke="#EDEDED" stroke-width="0.565121" stroke-linejoin="round"/>
<path d="M205.672 13.5984L205.672 711.12" stroke="#EDEDED" stroke-width="0.565121" stroke-linejoin="round"/>
<path d="M162.492 13.5984L162.492 711.12" stroke="#EDEDED" stroke-width="0.565121" stroke-linejoin="round"/>
<path d="M119.297 13.5984L119.297 711.12" stroke="#EDEDED" stroke-width="0.565121" stroke-linejoin="round"/>
<path d="M76.1094 13.5984L76.1093 711.12" stroke="#EDEDED" stroke-width="0.565121" stroke-linejoin="round"/>
<path d="M32.9141 13.5984L32.914 711.12" stroke="#EDEDED" stroke-width="0.565121" stroke-linejoin="round"/>
<path d="M363.015 468.847C375.385 427.414 357.861 403.245 347.554 396.34L274.112 388.941C244.011 403.91 142.044 410.992 123.362 450.144C101.728 495.482 100.814 572.583 66.6694 624.549L100.814 630.244L95.6598 638.074L178.121 645.904C181.098 562.318 188.987 504.017 210.977 497.127C254.141 483.601 347.554 504.957 363.015 468.847Z" fill="black" stroke="black" stroke-width="2.45571" stroke-linecap="round" stroke-linejoin="round"/>
<path d="M319.852 418.536C322.429 430.374 332.221 451.83 350.775 442.952" stroke="black" stroke-width="2.45571" stroke-linecap="round" stroke-linejoin="round"/>
<path d="M100.813 630.243L93.7212 628.836C93.7212 628.836 118.892 577.566 124.65 522.041C132.364 479.422 142.953 469.463 153.572 464.413C153.617 464.391 153.64 464.38 153.64 464.38C153.617 464.391 153.595 464.402 153.572 464.413C152.168 465.098 129.643 476.995 124.65 536.99C119.496 598.922 100.813 630.243 100.813 630.243Z" fill="black"/>
<path d="M294.727 430.212C269.136 438.791 181.986 447.296 153.64 464.38M153.64 464.38C153.64 464.38 129.804 475.059 124.65 536.99C119.496 598.922 100.813 630.243 100.813 630.243L93.7212 628.836C93.7212 628.836 118.892 577.566 124.65 522.041C132.381 479.33 142.998 469.42 153.64 464.38Z" stroke="black" stroke-width="2.45571" stroke-linecap="round" stroke-linejoin="round"/>
<path d="M347.323 224.709L316.95 232.464C304.486 237.168 264.247 259.615 251.212 302.276C243.971 325.975 258.788 353.677 258.788 393.378C278.822 386.269 302.265 395.316 327.29 400.486C339.066 402.919 364.987 397.901 376.404 395.316C363.996 388.595 360.248 344.479 360.248 317.767C368.003 313.244 387.39 310.013 400.315 306.781C392.043 276.279 361.54 239.357 347.323 224.709Z" fill="#BCBFE3"/>
<path d="M360.248 317.767C368.003 313.244 387.39 310.013 400.315 306.781C392.043 276.279 361.54 239.357 347.323 224.709L316.95 232.464C304.486 237.168 264.247 259.615 251.212 302.276C243.971 325.975 258.788 353.677 258.788 393.378C278.822 386.269 302.265 395.316 327.29 400.486C339.066 402.919 364.987 397.901 376.404 395.316C363.996 388.595 360.248 344.479 360.248 317.767ZM360.248 317.767L347.323 324.23C347.323 306.781 347.323 279.012 344.738 260.252" stroke="black" stroke-width="2.29243" stroke-linecap="round" stroke-linejoin="round"/>
<path d="M300.327 256.393C278.355 282.243 259.65 372.482 258.143 393.377" stroke="black" stroke-width="2.45571" stroke-linecap="round" stroke-linejoin="round"/>
<path d="M400.961 307.54C387.419 315.946 366.064 334.555 347.969 325.553C364.75 318.948 398.841 306.098 400.961 307.54Z" fill="black" stroke="black" stroke-width="2.45571" stroke-linecap="round" stroke-linejoin="round"/>
<path d="M224.07 315.814L209.852 251.224L80.1369 195.001L105.34 315.814L238.287 378.533L343.624 362.99L314.076 350.148C314.076 350.148 313.897 355.235 309.373 353.942C307.83 353.501 306.287 351.972 304.923 350.148C304.923 350.148 303.557 353.942 297.095 352.65C292.163 351.663 292.124 348.795 292.382 347.492C292.537 347.123 292.571 346.834 292.571 346.834C292.571 346.834 292.462 347.087 292.382 347.492C291.969 348.48 290.698 350.042 286.934 348.16C284.078 346.732 286.327 344.571 288.226 342.343C289.765 340.537 290.811 338.466 290.811 338.466L243.635 315.814H224.07Z" fill="white"/>
<path d="M224.07 315.814L209.852 251.224L80.1369 195.001L105.34 315.814L238.287 378.533L343.624 362.99L314.076 350.148C314.076 350.148 313.897 355.235 309.373 353.942C307.83 353.501 306.287 351.972 304.923 350.148C304.923 350.148 303.557 353.942 297.095 352.65C290.632 351.357 292.571 346.834 292.571 346.834C292.571 346.834 292.103 350.744 286.934 348.16C284.078 346.732 286.327 344.571 288.226 342.343M224.07 315.814H243.635L290.811 338.466M224.07 315.814L233.763 366.867M290.811 338.466C290.811 338.466 289.765 340.537 288.226 342.343M290.811 338.466L288.226 342.343" stroke="black" stroke-width="2.45571" stroke-linecap="round" stroke-linejoin="round"/>
<path d="M155.343 275.781C158.574 279.012 163.098 287.025 155.343 293.229" stroke="black" stroke-width="2.45571" stroke-linecap="round" stroke-linejoin="round"/>
<path d="M145.003 273.842C142.077 276.953 137.981 284.67 145.003 290.644" stroke="black" stroke-width="2.45571" stroke-linecap="round" stroke-linejoin="round"/>
<path d="M231.644 320.494C236.745 316.953 237.628 300.892 245.012 297.797C273.719 291.81 270.386 326.639 274.466 330.392L275.123 330.711C274.883 330.684 274.666 330.575 274.466 330.392L254.124 320.494C253.121 325.204 251.317 326.349 250.31 326.73C247.56 327.771 245.47 325.098 245.043 324.133C245.448 325.325 241.875 327.157 239.713 326.285C237.506 325.394 237.628 324.081 237.628 322.299C233.654 325.863 229.825 321.756 231.644 320.494Z" fill="#FFCAA4"/>
<path d="M237.628 322.299C233.654 325.863 229.825 321.756 231.644 320.494C236.745 316.953 237.628 300.892 245.012 297.797C275.123 291.517 269.984 330.141 275.123 330.711L254.124 320.494M237.628 322.299C237.628 324.081 237.506 325.394 239.713 326.285C241.921 327.176 245.601 325.245 245.012 324.057M237.628 322.299C237.628 322.299 242.363 319.18 242.363 312.052M245.012 324.057C245.356 324.948 247.484 327.799 250.31 326.73C251.757 326.183 254.848 324.057 254.848 312.052C255.414 311.316 269.953 326.73 261.551 309.385M245.012 324.057C245.012 324.057 249.108 320.494 248.225 312.052" stroke="black" stroke-width="2.45571" stroke-linecap="round" stroke-linejoin="round"/>
<path d="M286.109 325.541C284.287 320.987 296.916 312.858 304.024 311.97C323.06 309.59 355.957 329.296 363.478 330.123C366.171 330.419 366.026 327.712 361.54 319.706C372.397 314.536 390.621 307.843 396.437 307.413C401.607 314.522 422.465 370.131 406.955 378.532C383.69 388.226 322.944 326.819 318.42 332.65C318.42 350.064 313.897 353.148 311.779 353.942C307.754 355.452 304.695 351.573 304.07 350.174C304.662 351.903 299.433 354.561 296.27 353.296C293.038 352.003 293.217 350.098 293.217 347.513C287.401 352.683 281.797 346.726 284.459 344.895C291.924 339.758 293.038 326.172 296.27 322.31C293.026 326.187 288.694 332.004 286.109 325.541Z" fill="#FFCAA4"/>
<path d="M293.217 347.513C287.401 352.683 281.797 346.726 284.459 344.895C291.924 339.758 293.038 326.172 296.27 322.31C293.026 326.187 288.694 332.004 286.109 325.541C284.287 320.987 296.916 312.858 304.024 311.97C323.06 309.59 355.957 329.296 363.478 330.123M293.217 347.513C293.217 350.098 293.038 352.003 296.27 353.296C299.501 354.588 304.886 351.788 304.024 350.064M293.217 347.513C293.217 347.513 300.147 342.989 300.147 332.65M304.024 350.064C304.529 351.357 307.643 355.493 311.779 353.942C313.897 353.148 318.42 350.064 318.42 332.65C322.944 326.819 383.69 388.226 406.955 378.532C422.465 370.131 401.607 314.522 396.437 307.413C390.621 307.843 372.397 314.536 361.54 319.706C366.026 327.712 366.171 330.419 363.478 330.123M304.024 350.064C304.024 350.064 310.019 344.895 308.727 332.65M396.437 344.895L363.478 330.123" stroke="black" stroke-width="2.45571" stroke-linecap="round" stroke-linejoin="round"/>
<path d="M279.176 191.1V141.34C279.176 138.081 284.346 115.475 316.012 114.829C347.678 114.182 350.909 140.032 350.909 140.032C350.909 152.41 346.99 159.361 342.138 163.128C347.483 159.913 355.576 157.37 357.371 165.897C359.439 175.719 348.755 179.468 343.154 180.114C339.018 202.345 343.154 218.673 345.739 224.058C340.569 234.398 322.474 232.675 314.073 230.521V214.365C279.435 215.399 279.176 202.732 279.176 191.1Z" fill="#FFCAA4" stroke="black" stroke-width="2.45571" stroke-linejoin="round"/>
<path d="M314.803 214.663C319.331 214.457 326.769 213.11 328.776 209.383C328.86 209.199 328.941 209.02 329.02 208.845C328.951 209.03 328.869 209.209 328.776 209.383C325.637 216.228 318.831 229.169 314.803 230.177V214.663Z" fill="black" stroke="black" stroke-width="2.45571" stroke-linecap="round" stroke-linejoin="round"/>
<path d="M343.415 227.909C347.164 246.65 382.405 246.219 391.883 238.895C378.312 216.276 379.993 102.337 322.09 108.024C309.38 104.793 284.608 110.293 276.206 146.482C276.903 148.304 282.669 151.322 282.669 151.322C282.669 151.322 293.009 156.089 295.594 156.089C296.447 156.254 301.833 132.435 302.702 132.581C302.056 150.676 302.101 156.089 302.702 157.138C303.304 158.188 311.147 157.603 316.273 157.794L322.09 138.397C322.588 146.207 321.859 151.519 324.028 157.794C324.028 157.794 338.607 158.057 340.184 157.794L340.184 164.577C345.139 161.777 355.694 157.535 358.279 166.841C360.864 176.147 349.878 180.087 343.415 180.733C339.538 211.106 341.476 218.215 343.415 227.909Z" fill="black" stroke="black" stroke-width="2.45571" stroke-linecap="round" stroke-linejoin="round"/>
<path d="M306.641 178.225C305.604 174.81 302.004 172.884 298.601 173.925C295.197 174.966 293.279 178.578 294.316 181.994C294.93 184.017 296.444 185.517 298.283 186.188" stroke="black" stroke-width="1.93872" stroke-linecap="round" stroke-linejoin="round"/>
<path d="M307.322 164.122C309.523 161.431 315.597 160.439 318.329 165.424" stroke="black" stroke-width="1.93872" stroke-linecap="round" stroke-linejoin="round"/>
<path d="M293.774 163.013C292.395 161.508 288.102 160.748 285.702 162.962" stroke="black" stroke-width="1.93872" stroke-linecap="round" stroke-linejoin="round"/>
<path d="M321.551 176.905C322.195 182.077 319.746 192.147 312.531 196.285C305.316 200.423 297.714 198.886 293.849 196.947" stroke="black" stroke-width="1.93872" stroke-linecap="round" stroke-linejoin="round"/>
<path d="M315.081 172.315C314.747 173.722 313.935 175.289 311.758 175.087C309.729 174.9 308.661 173.159 308.848 171.123" stroke="black" stroke-width="1.93872" stroke-linecap="round" stroke-linejoin="round"/>
<path d="M293.037 171.411C292.767 172.831 292.027 174.434 289.843 174.332C287.808 174.237 286.662 172.546 286.757 170.504" stroke="black" stroke-width="1.93872" stroke-linecap="round" stroke-linejoin="round"/>
</g>
<path d="M66 22.2363L78.5 27.2363" stroke="#568DF4" stroke-width="3" stroke-linecap="round"/>
<path d="M99 10.2363V19.7363" stroke="#568DF4" stroke-width="3" stroke-linecap="round"/>
<path d="M78.5 3.73633L88.5 22.7363" stroke="#568DF4" stroke-width="3" stroke-linecap="round"/>
</svg>
