<svg width="415" height="433" viewBox="0 0 415 433" fill="none" xmlns="http://www.w3.org/2000/svg">
<rect x="2.04513" y="20.1689" width="410.522" height="410.522" rx="205.261" fill="#F6F7FA"/>
<rect x="2.04513" y="20.1689" width="410.522" height="410.522" rx="205.261" stroke="white" stroke-width="3.90973"/>
<path d="M188.417 168.37H251.579C258.416 168.37 266 177.1 266 187.87C266 198.639 258.416 207.37 251.579 207.37L182.421 207.37C175.584 207.37 168 216.1 168 226.87C168 237.639 175.584 246.37 182.421 246.37" stroke="#DFE1F2" stroke-width="3.78125"/>
<mask id="mask0_1752_33915" style="mask-type:alpha" maskUnits="userSpaceOnUse" x="4" y="22" width="407" height="407">
<circle cx="207.306" cy="225.431" r="203.306" fill="#D9D9D9"/>
</mask>
<g mask="url(#mask0_1752_33915)">
<path d="M-13.5 59.0378H684.022" stroke="#EDEDED" stroke-width="0.565121" stroke-linejoin="round"/>
<path d="M-13.5 102.224H684.022" stroke="#EDEDED" stroke-width="0.565121" stroke-linejoin="round"/>
<path d="M-13.5 145.423H684.022" stroke="#EDEDED" stroke-width="0.565121" stroke-linejoin="round"/>
<path d="M-13.5 188.609H684.022" stroke="#EDEDED" stroke-width="0.565121" stroke-linejoin="round"/>
<path d="M-13.5 231.802H684.022" stroke="#EDEDED" stroke-width="0.565121" stroke-linejoin="round"/>
<path d="M-13.5 274.994H684.022" stroke="#EDEDED" stroke-width="0.565121" stroke-linejoin="round"/>
<path d="M-13.5 318.181H684.022" stroke="#EDEDED" stroke-width="0.565121" stroke-linejoin="round"/>
<path d="M-13.5 361.371H684.022" stroke="#EDEDED" stroke-width="0.565121" stroke-linejoin="round"/>
<path d="M-13.5 404.555H684.022" stroke="#EDEDED" stroke-width="0.565121" stroke-linejoin="round"/>
<path d="M378.438 12.5984L378.437 710.12" stroke="#EDEDED" stroke-width="0.565121" stroke-linejoin="round"/>
<path d="M335.258 12.5984L335.258 710.12" stroke="#EDEDED" stroke-width="0.565121" stroke-linejoin="round"/>
<path d="M292.078 12.5984L292.078 710.12" stroke="#EDEDED" stroke-width="0.565121" stroke-linejoin="round"/>
<path d="M248.883 12.5984L248.883 710.12" stroke="#EDEDED" stroke-width="0.565121" stroke-linejoin="round"/>
<path d="M205.672 12.5984L205.672 710.12" stroke="#EDEDED" stroke-width="0.565121" stroke-linejoin="round"/>
<path d="M162.492 12.5984L162.492 710.12" stroke="#EDEDED" stroke-width="0.565121" stroke-linejoin="round"/>
<path d="M119.297 12.5984L119.297 710.12" stroke="#EDEDED" stroke-width="0.565121" stroke-linejoin="round"/>
<path d="M76.1094 12.5984L76.1093 710.12" stroke="#EDEDED" stroke-width="0.565121" stroke-linejoin="round"/>
<path d="M32.9141 12.5984L32.914 710.12" stroke="#EDEDED" stroke-width="0.565121" stroke-linejoin="round"/>
<path d="M363.015 467.847C375.384 426.414 357.861 402.245 347.553 395.339L274.111 387.941C244.011 402.91 142.044 409.992 123.361 449.144C101.727 494.481 100.813 571.583 66.6692 623.549L100.813 629.243L95.6596 637.074L178.121 644.904C181.097 561.318 188.986 503.017 210.977 496.126C254.14 482.601 347.553 503.957 363.015 467.847Z" fill="black" stroke="black" stroke-width="2.45571" stroke-linecap="round" stroke-linejoin="round"/>
<path d="M319.852 417.535C322.429 429.373 332.221 450.829 350.775 441.951" stroke="black" stroke-width="2.45571" stroke-linecap="round" stroke-linejoin="round"/>
<path d="M100.813 629.243L93.7212 627.836C93.7212 627.836 118.892 576.566 124.65 521.041C132.364 478.421 142.953 468.462 153.572 463.413C153.617 463.39 153.64 463.38 153.64 463.38C153.617 463.391 153.595 463.402 153.572 463.413C152.168 464.098 129.643 475.995 124.65 535.99C119.496 597.921 100.813 629.243 100.813 629.243Z" fill="black"/>
<path d="M294.727 429.212C269.136 437.791 181.986 446.295 153.64 463.38M153.64 463.38C153.64 463.38 129.804 474.058 124.65 535.99C119.496 597.921 100.813 629.243 100.813 629.243L93.7212 627.836C93.7212 627.836 118.892 576.566 124.65 521.041C132.381 478.33 142.998 468.42 153.64 463.38Z" stroke="black" stroke-width="2.45571" stroke-linecap="round" stroke-linejoin="round"/>
<path d="M347.323 223.708L316.95 231.463C304.486 236.167 264.248 258.614 251.212 301.275C243.971 324.974 258.788 352.676 258.788 392.376C278.822 385.268 302.266 394.315 327.29 399.485C339.066 401.918 364.987 396.9 376.404 394.315C363.996 387.594 360.248 343.478 360.248 316.766C368.003 312.243 387.39 309.012 400.315 305.78C392.043 275.278 361.541 238.356 347.323 223.708Z" fill="#BCBFE3"/>
<path d="M360.248 316.766C368.003 312.243 387.39 309.012 400.315 305.78C392.043 275.278 361.541 238.356 347.323 223.708L316.95 231.463C304.486 236.167 264.248 258.614 251.212 301.275C243.971 324.974 258.788 352.676 258.788 392.376C278.822 385.268 302.266 394.315 327.29 399.485C339.066 401.918 364.987 396.9 376.404 394.315C363.996 387.594 360.248 343.478 360.248 316.766ZM360.248 316.766L347.323 323.229C347.323 305.78 347.323 278.011 344.738 259.251" stroke="black" stroke-width="2.29243" stroke-linecap="round" stroke-linejoin="round"/>
<path d="M300.327 255.393C278.354 281.242 259.65 371.482 258.142 392.377" stroke="black" stroke-width="2.45571" stroke-linecap="round" stroke-linejoin="round"/>
<path d="M400.961 306.538C387.419 314.944 366.064 333.554 347.97 324.551C364.75 317.947 398.842 305.097 400.961 306.538Z" fill="black" stroke="black" stroke-width="2.45571" stroke-linecap="round" stroke-linejoin="round"/>
<path d="M224.07 314.813L209.853 250.223L80.1371 194L105.34 314.813L238.287 377.532L343.624 361.989L314.076 349.147C314.076 349.147 313.897 354.234 309.374 352.942C307.83 352.501 306.287 350.971 304.923 349.147C304.923 349.147 303.557 352.942 297.095 351.649C292.163 350.663 292.124 347.795 292.382 346.491C292.537 346.122 292.571 345.833 292.571 345.833C292.571 345.833 292.463 346.087 292.382 346.491C291.969 347.48 290.698 349.041 286.934 347.159C284.079 345.731 286.328 343.57 288.226 341.343C289.766 339.537 290.811 337.465 290.811 337.465L243.636 314.813H224.07Z" fill="white"/>
<path d="M224.07 314.813L209.853 250.223L80.1371 194L105.34 314.813L238.287 377.532L343.624 361.989L314.076 349.147C314.076 349.147 313.897 354.234 309.374 352.942C307.83 352.501 306.287 350.971 304.923 349.147C304.923 349.147 303.557 352.942 297.095 351.649C290.633 350.357 292.571 345.833 292.571 345.833C292.571 345.833 292.104 349.744 286.934 347.159C284.079 345.731 286.328 343.57 288.226 341.343M224.07 314.813H243.636L290.811 337.465M224.07 314.813L233.764 365.866M290.811 337.465C290.811 337.465 289.766 339.537 288.226 341.343M290.811 337.465L288.226 341.343" stroke="black" stroke-width="2.45571" stroke-linecap="round" stroke-linejoin="round"/>
<path d="M155.343 274.78C158.575 278.011 163.098 286.025 155.343 292.228" stroke="black" stroke-width="2.45571" stroke-linecap="round" stroke-linejoin="round"/>
<path d="M145.003 272.841C142.077 275.953 137.981 283.669 145.003 289.644" stroke="black" stroke-width="2.45571" stroke-linecap="round" stroke-linejoin="round"/>
<path d="M231.644 319.493C236.745 315.952 237.628 299.891 245.012 296.796C273.72 290.809 270.387 325.638 274.467 329.391L275.123 329.71C274.884 329.684 274.666 329.575 274.467 329.391L254.125 319.493C253.121 324.203 251.318 325.349 250.311 325.73C247.56 326.77 245.471 324.097 245.044 323.132C245.448 324.324 241.875 326.157 239.714 325.284C237.506 324.393 237.628 323.08 237.628 321.298C233.654 324.862 229.825 320.756 231.644 319.493Z" fill="#FFCAA4"/>
<path d="M237.628 321.298C233.654 324.862 229.825 320.756 231.644 319.493C236.745 315.952 237.628 299.891 245.012 296.796C275.123 290.517 269.984 329.14 275.123 329.71L254.125 319.493M237.628 321.298C237.628 323.08 237.506 324.393 239.714 325.284C241.922 326.175 245.601 324.245 245.012 323.057M237.628 321.298C237.628 321.298 242.363 318.179 242.363 311.052M245.012 323.057C245.357 323.948 247.485 326.799 250.311 325.73C251.757 325.182 254.848 323.057 254.848 311.052C255.415 310.315 269.953 325.73 261.552 308.385M245.012 323.057C245.012 323.057 249.108 319.493 248.225 311.052" stroke="black" stroke-width="2.45571" stroke-linecap="round" stroke-linejoin="round"/>
<path d="M286.109 324.54C284.288 319.986 296.917 311.857 304.025 310.969C323.061 308.59 355.958 328.295 363.479 329.122C366.172 329.418 366.026 326.711 361.541 318.705C372.397 313.535 390.621 306.843 396.437 306.412C401.607 313.521 422.466 369.13 406.956 377.532C383.691 387.225 322.945 325.818 318.421 331.649C318.421 349.064 313.897 352.147 311.78 352.941C307.754 354.451 304.696 350.573 304.071 349.173C304.663 350.902 299.434 353.561 296.27 352.295C293.039 351.003 293.218 349.097 293.218 346.512C287.402 351.682 281.797 345.725 284.459 343.894C291.925 338.757 293.039 325.172 296.27 321.309C293.027 325.186 288.694 331.003 286.109 324.54Z" fill="#FFCAA4"/>
<path d="M293.218 346.512C287.402 351.682 281.797 345.725 284.459 343.894C291.925 338.757 293.039 325.172 296.27 321.309C293.027 325.186 288.694 331.003 286.109 324.54C284.288 319.986 296.917 311.857 304.025 310.969C323.061 308.59 355.958 328.295 363.479 329.122M293.218 346.512C293.218 349.097 293.039 351.003 296.27 352.295C299.501 353.588 304.887 350.787 304.025 349.064M293.218 346.512C293.218 346.512 300.148 341.988 300.148 331.649M304.025 349.064C304.529 350.356 307.644 354.492 311.78 352.941C313.897 352.147 318.421 349.064 318.421 331.649C322.945 325.818 383.691 387.225 406.956 377.532C422.466 369.13 401.607 313.521 396.437 306.412C390.621 306.843 372.397 313.535 361.541 318.705C366.026 326.711 366.172 329.418 363.479 329.122M304.025 349.064C304.025 349.064 310.02 343.894 308.727 331.649M396.437 343.894L363.479 329.122" stroke="black" stroke-width="2.45571" stroke-linecap="round" stroke-linejoin="round"/>
<path d="M279.177 190.099V140.339C279.177 137.081 284.346 114.474 316.012 113.828C347.678 113.182 350.909 139.031 350.909 139.031C350.909 151.409 346.99 158.36 342.138 162.127C347.483 158.912 355.576 156.369 357.372 164.896C359.439 174.719 348.755 178.467 343.154 179.113C339.018 201.344 343.154 217.672 345.739 223.058C340.569 233.397 322.475 231.674 314.073 229.52V213.364C279.435 214.398 279.177 201.732 279.177 190.099Z" fill="#FFCAA4" stroke="black" stroke-width="2.45571" stroke-linejoin="round"/>
<path d="M314.803 213.663C319.331 213.457 326.769 212.11 328.776 208.382C328.86 208.199 328.941 208.02 329.02 207.845C328.951 208.029 328.869 208.209 328.776 208.382C325.637 215.227 318.831 228.169 314.803 229.176V213.663Z" fill="black" stroke="black" stroke-width="2.45571" stroke-linecap="round" stroke-linejoin="round"/>
<path d="M343.416 226.909C347.165 245.65 382.406 245.219 391.884 237.895C378.313 215.276 379.994 101.337 322.091 107.024C309.381 103.793 284.609 109.293 276.207 145.482C276.904 147.304 282.67 150.322 282.67 150.322C282.67 150.322 293.01 155.089 295.595 155.089C296.448 155.254 301.834 131.435 302.703 131.581C302.057 149.676 302.102 155.089 302.703 156.138C303.305 157.188 311.148 156.603 316.274 156.794L322.091 137.397C322.589 145.207 321.86 150.519 324.029 156.794C324.029 156.794 338.608 157.057 340.185 156.794L340.185 163.577C345.14 160.777 355.695 156.535 358.28 165.841C360.865 175.147 349.879 179.087 343.416 179.733C339.539 210.106 341.477 217.215 343.416 226.909Z" fill="black" stroke="black" stroke-width="2.45571" stroke-linecap="round" stroke-linejoin="round"/>
<path d="M306.641 177.226C305.604 173.81 302.004 171.885 298.601 172.926C295.197 173.967 293.279 177.579 294.316 180.994C294.93 183.018 296.444 184.518 298.283 185.189" stroke="black" stroke-width="1.93872" stroke-linecap="round" stroke-linejoin="round"/>
<path d="M307.321 163.123C309.523 160.432 315.596 159.44 318.329 164.425" stroke="black" stroke-width="1.93872" stroke-linecap="round" stroke-linejoin="round"/>
<path d="M293.774 162.012C292.395 160.508 288.101 159.748 285.702 161.962" stroke="black" stroke-width="1.93872" stroke-linecap="round" stroke-linejoin="round"/>
<path d="M321.55 175.906C322.195 181.078 319.746 191.148 312.531 195.286C305.315 199.423 297.714 197.887 293.848 195.947" stroke="black" stroke-width="1.93872" stroke-linecap="round" stroke-linejoin="round"/>
<path d="M315.081 171.315C314.747 172.721 313.935 174.289 311.758 174.087C309.729 173.9 308.661 172.158 308.848 170.123" stroke="black" stroke-width="1.93872" stroke-linecap="round" stroke-linejoin="round"/>
<path d="M293.037 170.411C292.767 171.831 292.027 173.434 289.842 173.332C287.807 173.237 286.662 171.547 286.756 169.504" stroke="black" stroke-width="1.93872" stroke-linecap="round" stroke-linejoin="round"/>
</g>
<path d="M66 21.2363L78.5 26.2363" stroke="#568DF4" stroke-width="3" stroke-linecap="round"/>
<path d="M99 9.23633V18.7363" stroke="#568DF4" stroke-width="3" stroke-linecap="round"/>
<path d="M78.5 2.73633L88.5 21.7363" stroke="#568DF4" stroke-width="3" stroke-linecap="round"/>
<path d="M64.8698 131.134L64.8703 131.136C77.3595 165.569 110.862 186.306 145.626 184.077L173.688 197.247L174.728 197.735L175.218 196.694L188.455 168.575C216.766 147.805 229.23 110.284 216.74 75.8455C201.596 33.9284 155.309 12.3112 113.383 27.5767C71.4589 42.8421 49.7268 89.2168 64.8698 131.134Z" fill="#ACC7FA" stroke="black" stroke-width="2.30307"/>
<path d="M164.69 59.0173C164.929 57.9087 164.955 56.7633 164.765 55.6463C164.575 54.5293 164.172 53.4623 163.581 52.5063C162.989 51.5503 162.219 50.7239 161.315 50.075C160.411 49.4261 159.39 48.9675 158.311 48.7257C158.311 48.7257 158.311 48.7257 158.311 48.7257L122.342 40.6567L122.342 40.6567C120.161 40.168 117.879 40.5935 115.997 41.8356C114.116 43.0774 112.789 45.0337 112.305 47.2731L112.305 47.2732L92.2272 140.313L92.2272 140.313C91.7446 142.551 92.1427 144.893 93.3373 146.823C94.5323 148.754 96.4268 150.115 98.606 150.604L134.575 158.673C135.655 158.915 136.772 158.935 137.86 158.733C138.949 158.53 139.989 158.109 140.921 157.494C141.853 156.878 142.658 156.081 143.291 155.148C143.924 154.215 144.373 153.163 144.613 152.054L164.69 59.0173ZM164.69 59.0173L164.318 58.9341M164.69 59.0173L164.69 59.0172L164.318 58.9341M164.318 58.9341L144.241 151.971C144.012 153.033 143.582 154.039 142.976 154.932C142.37 155.825 141.6 156.587 140.71 157.175C139.82 157.762 138.827 158.164 137.789 158.358C136.75 158.551 135.685 158.532 134.656 158.301L98.6866 150.232C96.6096 149.766 94.8016 148.468 93.6601 146.624C92.5185 144.779 92.1369 142.539 92.5989 140.396M164.318 58.9341C164.547 57.8729 164.572 56.7767 164.39 55.708C164.208 54.6394 163.823 53.6193 163.258 52.7059C162.693 51.7925 161.958 51.0038 161.095 50.3848C160.232 49.7657 159.259 49.3285 158.23 49.098L92.5989 140.396M92.5989 140.396L112.677 47.3564L92.5989 140.396Z" fill="black" stroke="black" stroke-width="0.761821"/>
<path d="M150.377 50.1698L150.377 50.1699L157.351 51.7366C157.351 51.7366 157.351 51.7366 157.351 51.7367C158.125 51.9081 158.857 52.2354 159.505 52.6994C160.153 53.1634 160.705 53.7549 161.128 54.4394C161.552 55.1238 161.839 55.8877 161.974 56.6871C162.109 57.4861 162.09 58.3052 161.917 59.0975C161.917 59.0978 161.916 59.0982 161.916 59.0985M150.377 50.1698L135.241 154.25C135.961 154.411 136.707 154.425 137.434 154.29C138.161 154.155 138.856 153.873 139.479 153.462C140.103 153.05 140.642 152.517 141.066 151.891C141.49 151.266 141.791 150.562 141.951 149.818L161.545 59.0144L161.916 59.0985M150.377 50.1698L150.368 50.1679C149.804 50.056 149.221 50.1801 148.747 50.5088C148.274 50.8366 147.948 51.3412 147.836 51.9114L147.56 53.2133L147.56 53.2133L147.559 53.2199C147.523 53.4081 147.451 53.5871 147.348 53.7466C147.245 53.9061 147.113 54.0426 146.96 54.1487C146.807 54.2548 146.636 54.3284 146.457 54.3659C146.279 54.4032 146.097 54.4043 145.921 54.3695L132.336 51.3221C131.983 51.2327 131.676 51.0022 131.484 50.677C131.292 50.3501 131.232 49.9546 131.321 49.5775L131.321 49.5775L131.323 49.5684L131.599 48.265C131.732 47.7 131.643 47.1031 131.349 46.604C131.054 46.1032 130.576 45.7417 130.017 45.6024L130.017 45.6022L130.007 45.5999L127.552 45.0615L127.551 45.0614L121.449 43.6951L121.369 44.0674L121.449 43.6951C120.678 43.5221 119.881 43.5075 119.103 43.6519C118.326 43.7963 117.583 44.0969 116.918 44.5357C116.253 44.9746 115.679 45.5432 115.227 46.2087C114.775 46.8741 114.455 47.6237 114.284 48.4147L114.284 48.4149L94.6845 139.23L94.6843 139.231C94.5152 140.022 94.4988 140.84 94.6364 141.637C94.7741 142.434 95.063 143.196 95.4874 143.877C95.9118 144.559 96.4634 145.148 97.1109 145.61C97.7585 146.072 98.4892 146.398 99.2611 146.569M150.377 50.1698L99.2611 146.569M161.916 59.0985L142.323 149.901C142.152 150.692 141.832 151.442 141.381 152.108C140.929 152.773 140.355 153.342 139.69 153.781C139.025 154.22 138.283 154.52 137.506 154.665C136.728 154.809 135.931 154.795 135.16 154.622L99.2611 146.569M161.916 59.0985L99.2611 146.569" fill="black" stroke="black" stroke-width="0.761821"/>
<path d="M163.896 58.0899C164.14 56.9649 164.16 55.8015 163.957 54.6661L163.465 54.7514L163.957 54.6661C163.753 53.5307 163.33 52.4456 162.711 51.4726C162.092 50.4996 161.289 49.6578 160.348 48.9954L160.063 49.4046L160.348 48.9954C159.407 48.333 158.347 47.8631 157.228 47.6124C157.228 47.6124 157.228 47.6124 157.228 47.6124L120.343 39.3419L120.342 39.3419C118.081 38.8354 115.717 39.2532 113.771 40.5028C111.825 41.7524 110.456 43.7314 109.964 46.0042L109.964 46.0045L89.8773 139.039L89.8773 139.039C89.3873 141.311 89.8138 143.691 91.064 145.656C92.3143 147.621 94.2859 149.01 96.5458 149.517L133.431 157.787C134.551 158.038 135.708 158.065 136.836 157.865C137.964 157.666 139.04 157.245 140.004 156.625C140.968 156.006 141.8 155.202 142.453 154.257C143.106 153.313 143.567 152.248 143.81 151.122L163.896 58.0899ZM163.896 58.0899L163.409 57.9806L163.896 58.0898L163.896 58.0899Z" fill="#0D4FCA" stroke="black"/>
<path d="M156.21 50.6293L149.058 49.0233C148.585 48.9292 148.094 49.0278 147.695 49.2974C147.295 49.567 147.019 49.9857 146.927 50.4617L146.651 51.7664C146.605 52.0023 146.514 52.2266 146.382 52.4266C146.251 52.6265 146.081 52.7982 145.883 52.9317C145.685 53.0653 145.463 53.1582 145.229 53.205C144.995 53.2519 144.754 53.2518 144.519 53.2048L130.58 50.0791C130.111 49.9626 129.707 49.6639 129.455 49.2485C129.203 48.8331 129.125 48.3349 129.237 47.8632L129.514 46.5555C129.626 46.0838 129.547 45.5857 129.296 45.1703C129.044 44.7549 128.639 44.4562 128.171 44.3396L125.653 43.7873L119.394 42.3865C118.654 42.2207 117.891 42.203 117.146 42.3344C116.402 42.4657 115.691 42.7436 115.055 43.1522C114.418 43.5607 113.869 44.0919 113.437 44.7154C113.006 45.3389 112.701 46.0425 112.54 46.7861L92.9319 137.597C92.7729 138.341 92.7612 139.11 92.8975 139.86C93.0337 140.611 93.3153 141.327 93.7262 141.969C94.137 142.611 94.669 143.166 95.2918 143.602C95.9146 144.038 96.616 144.347 97.3559 144.51L134.17 152.765C134.909 152.93 135.673 152.948 136.417 152.817C137.161 152.685 137.872 152.407 138.508 151.999C139.144 151.59 139.694 151.059 140.125 150.435C140.556 149.812 140.861 149.108 141.021 148.364L160.623 57.5652C160.786 56.8201 160.801 56.0493 160.667 55.2969C160.534 54.5445 160.254 53.8254 159.843 53.181C159.433 52.5365 158.901 51.9793 158.278 51.5414C157.654 51.1035 156.952 50.7935 156.21 50.6293Z" fill="#DDEAFF"/>
<path fill-rule="evenodd" clip-rule="evenodd" d="M113.049 55.6942L157.178 65.3328L146.549 113.057C146.514 113.045 146.477 113.034 146.441 113.024C145.589 112.801 144.72 113.318 144.501 114.178C144.456 114.354 144.441 114.531 144.454 114.703L144.374 115.06L144.534 115.097C144.702 115.593 145.105 115.998 145.645 116.139C145.715 116.157 145.784 116.171 145.854 116.179L138.797 147.865L94.915 137.94L101.897 106.275C101.917 106.281 101.937 106.287 101.957 106.292C102.809 106.515 103.678 105.998 103.897 105.138C104.117 104.278 103.605 103.4 102.753 103.177C102.698 103.163 102.642 103.151 102.587 103.143L113.049 55.6942ZM108.021 106.717L105.598 106.16L105.876 104.916L108.3 105.472L108.021 106.717ZM112.868 107.829L110.445 107.273L110.723 106.028L113.147 106.584L112.868 107.829ZM117.715 108.942L115.292 108.385L115.57 107.141L117.994 107.697L117.715 108.942ZM122.562 110.054L120.139 109.498L120.418 108.253L122.841 108.809L122.562 110.054ZM127.409 111.167L124.986 110.61L125.265 109.366L127.688 109.922L127.409 111.167ZM132.257 112.279L129.833 111.723L130.112 110.478L132.535 111.034L132.257 112.279ZM137.104 113.391L134.68 112.835L134.959 111.591L137.382 112.147L137.104 113.391ZM141.951 114.504L139.527 113.948L139.806 112.703L142.229 113.259L141.951 114.504Z" fill="white"/>
<path d="M157.178 65.3328L157.303 65.3605L157.331 65.2355L157.205 65.2081L157.178 65.3328ZM113.049 55.6942L113.076 55.5696L112.952 55.5424L112.925 55.6667L113.049 55.6942ZM146.549 113.057L146.508 113.178L146.643 113.223L146.674 113.085L146.549 113.057ZM146.441 113.024L146.473 112.901L146.473 112.901L146.441 113.024ZM144.501 114.178L144.624 114.21L144.624 114.21L144.501 114.178ZM144.454 114.703L144.579 114.73L144.583 114.712L144.582 114.693L144.454 114.703ZM144.374 115.06L144.25 115.032L144.222 115.156L144.346 115.185L144.374 115.06ZM144.534 115.097L144.655 115.056L144.633 114.989L144.563 114.973L144.534 115.097ZM145.645 116.139L145.613 116.262L145.613 116.262L145.645 116.139ZM145.854 116.179L145.978 116.207L146.009 116.07L145.869 116.052L145.854 116.179ZM138.797 147.865L138.769 147.989L138.893 148.017L138.921 147.893L138.797 147.865ZM94.915 137.94L94.7904 137.913L94.7631 138.037L94.8868 138.065L94.915 137.94ZM101.897 106.275L101.934 106.153L101.802 106.113L101.772 106.247L101.897 106.275ZM101.957 106.292L101.99 106.168L101.99 106.168L101.957 106.292ZM103.897 105.138L104.021 105.17L103.897 105.138ZM102.753 103.177L102.721 103.3L102.753 103.177ZM102.587 103.143L102.463 103.115L102.433 103.249L102.568 103.269L102.587 103.143ZM105.598 106.16L105.473 106.133L105.445 106.256L105.569 106.285L105.598 106.16ZM108.021 106.717L107.993 106.841L108.118 106.87L108.146 106.745L108.021 106.717ZM105.876 104.916L105.905 104.791L105.78 104.763L105.752 104.888L105.876 104.916ZM108.3 105.472L108.424 105.5L108.452 105.376L108.328 105.348L108.3 105.472ZM110.445 107.273L110.32 107.245L110.292 107.369L110.416 107.397L110.445 107.273ZM112.868 107.829L112.84 107.953L112.965 107.982L112.993 107.857L112.868 107.829ZM110.723 106.028L110.752 105.904L110.627 105.875L110.599 106L110.723 106.028ZM113.147 106.584L113.271 106.612L113.299 106.488L113.175 106.46L113.147 106.584ZM115.292 108.385L115.167 108.357L115.14 108.481L115.263 108.51L115.292 108.385ZM117.715 108.942L117.687 109.066L117.812 109.095L117.84 108.969L117.715 108.942ZM115.57 107.141L115.599 107.016L115.474 106.988L115.446 107.113L115.57 107.141ZM117.994 107.697L118.118 107.725L118.146 107.601L118.023 107.573L117.994 107.697ZM120.139 109.498L120.014 109.47L119.987 109.594L120.11 109.622L120.139 109.498ZM122.562 110.054L122.534 110.178L122.659 110.207L122.687 110.082L122.562 110.054ZM120.418 108.253L120.446 108.129L120.321 108.1L120.293 108.225L120.418 108.253ZM122.841 108.809L122.966 108.837L122.993 108.713L122.87 108.685L122.841 108.809ZM124.986 110.61L124.861 110.582L124.834 110.706L124.957 110.735L124.986 110.61ZM127.409 111.167L127.381 111.291L127.506 111.32L127.534 111.194L127.409 111.167ZM125.265 109.366L125.293 109.241L125.168 109.213L125.14 109.338L125.265 109.366ZM127.688 109.922L127.813 109.95L127.84 109.826L127.717 109.797L127.688 109.922ZM129.833 111.723L129.709 111.695L129.681 111.819L129.805 111.847L129.833 111.723ZM132.257 112.279L132.228 112.403L132.353 112.432L132.381 112.307L132.257 112.279ZM130.112 110.478L130.14 110.354L130.015 110.325L129.987 110.45L130.112 110.478ZM132.535 111.034L132.66 111.062L132.687 110.938L132.564 110.91L132.535 111.034ZM134.68 112.835L134.556 112.807L134.528 112.931L134.652 112.96L134.68 112.835ZM137.104 113.391L137.075 113.516L137.2 113.544L137.228 113.419L137.104 113.391ZM134.959 111.591L134.987 111.466L134.862 111.438L134.834 111.563L134.959 111.591ZM137.382 112.147L137.507 112.175L137.535 112.051L137.411 112.022L137.382 112.147ZM139.527 113.948L139.403 113.92L139.375 114.044L139.499 114.072L139.527 113.948ZM141.951 114.504L141.922 114.628L142.047 114.657L142.075 114.532L141.951 114.504ZM139.806 112.703L139.834 112.579L139.709 112.55L139.681 112.675L139.806 112.703ZM142.229 113.259L142.354 113.287L142.382 113.163L142.258 113.135L142.229 113.259ZM157.205 65.2081L113.076 55.5696L113.022 55.8188L157.151 65.4574L157.205 65.2081ZM146.674 113.085L157.303 65.3605L157.054 65.305L146.425 113.029L146.674 113.085ZM146.408 113.148C146.442 113.157 146.476 113.167 146.508 113.178L146.59 112.936C146.552 112.923 146.513 112.911 146.473 112.901L146.408 113.148ZM144.624 114.21C144.827 113.417 145.626 112.943 146.408 113.148L146.473 112.901C145.552 112.66 144.614 113.219 144.377 114.147L144.624 114.21ZM144.582 114.693C144.57 114.535 144.583 114.372 144.624 114.21L144.377 114.147C144.329 114.336 144.313 114.527 144.327 114.712L144.582 114.693ZM144.499 115.088L144.579 114.73L144.33 114.675L144.25 115.032L144.499 115.088ZM144.563 114.973L144.403 114.936L144.346 115.185L144.506 115.221L144.563 114.973ZM145.677 116.016C145.181 115.886 144.809 115.514 144.655 115.056L144.414 115.138C144.594 115.673 145.029 116.11 145.613 116.262L145.677 116.016ZM145.869 116.052C145.805 116.045 145.741 116.032 145.677 116.016L145.613 116.262C145.688 116.282 145.763 116.296 145.838 116.306L145.869 116.052ZM138.921 147.893L145.978 116.207L145.729 116.151L138.672 147.837L138.921 147.893ZM94.8868 138.065L138.769 147.989L138.825 147.74L94.9431 137.816L94.8868 138.065ZM101.772 106.247L94.7904 137.913L95.0395 137.968L102.021 106.302L101.772 106.247ZM101.99 106.168C101.971 106.164 101.952 106.158 101.934 106.153L101.86 106.397C101.881 106.403 101.903 106.409 101.925 106.415L101.99 106.168ZM103.774 105.106C103.571 105.899 102.772 106.373 101.99 106.168L101.925 106.415C102.846 106.656 103.784 106.097 104.021 105.17L103.774 105.106ZM102.721 103.3C103.504 103.505 103.976 104.313 103.774 105.106L104.021 105.17C104.258 104.242 103.706 103.295 102.785 103.054L102.721 103.3ZM102.568 103.269C102.619 103.277 102.67 103.287 102.721 103.3L102.785 103.054C102.726 103.038 102.666 103.026 102.606 103.017L102.568 103.269ZM112.925 55.6667L102.463 103.115L102.712 103.17L113.174 55.7217L112.925 55.6667ZM105.569 106.285L107.993 106.841L108.05 106.592L105.626 106.036L105.569 106.285ZM105.752 104.888L105.473 106.133L105.722 106.188L106.001 104.944L105.752 104.888ZM108.328 105.348L105.905 104.791L105.848 105.04L108.271 105.596L108.328 105.348ZM108.146 106.745L108.424 105.5L108.175 105.444L107.897 106.689L108.146 106.745ZM110.416 107.397L112.84 107.953L112.897 107.705L110.473 107.149L110.416 107.397ZM110.599 106L110.32 107.245L110.569 107.301L110.848 106.056L110.599 106ZM113.175 106.46L110.752 105.904L110.695 106.152L113.118 106.709L113.175 106.46ZM112.993 107.857L113.271 106.612L113.022 106.557L112.744 107.801L112.993 107.857ZM115.263 108.51L117.687 109.066L117.744 108.817L115.32 108.261L115.263 108.51ZM115.446 107.113L115.167 108.357L115.416 108.413L115.695 107.169L115.446 107.113ZM118.023 107.573L115.599 107.016L115.542 107.265L117.965 107.821L118.023 107.573ZM117.84 108.969L118.118 107.725L117.87 107.669L117.591 108.914L117.84 108.969ZM120.11 109.622L122.534 110.178L122.591 109.93L120.167 109.374L120.11 109.622ZM120.293 108.225L120.014 109.47L120.263 109.526L120.542 108.281L120.293 108.225ZM122.87 108.685L120.446 108.129L120.389 108.377L122.813 108.934L122.87 108.685ZM122.687 110.082L122.966 108.837L122.717 108.781L122.438 110.026L122.687 110.082ZM124.957 110.735L127.381 111.291L127.438 111.042L125.014 110.486L124.957 110.735ZM125.14 109.338L124.861 110.582L125.11 110.638L125.389 109.393L125.14 109.338ZM127.717 109.797L125.293 109.241L125.236 109.49L127.66 110.046L127.717 109.797ZM127.534 111.194L127.813 109.95L127.564 109.894L127.285 111.139L127.534 111.194ZM129.805 111.847L132.228 112.403L132.285 112.155L129.862 111.598L129.805 111.847ZM129.987 110.45L129.709 111.695L129.958 111.751L130.236 110.506L129.987 110.45ZM132.564 110.91L130.14 110.354L130.083 110.602L132.507 111.159L132.564 110.91ZM132.381 112.307L132.66 111.062L132.411 111.006L132.132 112.251L132.381 112.307ZM134.652 112.96L137.075 113.516L137.132 113.267L134.709 112.711L134.652 112.96ZM134.834 111.563L134.556 112.807L134.805 112.863L135.083 111.618L134.834 111.563ZM137.411 112.022L134.987 111.466L134.93 111.715L137.354 112.271L137.411 112.022ZM137.228 113.419L137.507 112.175L137.258 112.119L136.979 113.364L137.228 113.419ZM139.499 114.072L141.922 114.628L141.979 114.38L139.556 113.823L139.499 114.072ZM139.681 112.675L139.403 113.92L139.652 113.976L139.93 112.731L139.681 112.675ZM142.258 113.135L139.834 112.579L139.777 112.827L142.201 113.384L142.258 113.135ZM142.075 114.532L142.354 113.287L142.105 113.231L141.826 114.476L142.075 114.532Z" fill="white"/>
<path d="M135.476 103.606L130.328 102.48L131.069 99.0006L136.217 100.127L137.328 94.9077L140.76 95.6585L139.649 100.878C139.452 101.801 138.902 102.606 138.12 103.118C137.337 103.63 136.386 103.805 135.476 103.606Z" fill="#568DF4"/>
<path d="M113.897 95.2442L115.008 90.0251L118.44 90.7759L117.329 95.9951L122.477 97.1214L121.736 100.601L116.588 99.4745C115.678 99.2754 114.883 98.7178 114.378 97.9245C113.874 97.1312 113.7 96.1671 113.897 95.2442Z" fill="#568DF4"/>
<path d="M120.291 82.0732L116.859 81.3223L117.97 76.1032C118.167 75.1803 118.717 74.3744 119.499 73.8627C120.282 73.351 121.233 73.1754 122.143 73.3745L127.291 74.5008L126.55 77.9803L121.402 76.854L120.291 82.0732Z" fill="#568DF4"/>
<path d="M140.282 80.9838L135.134 79.8575L135.875 76.3781L141.023 77.5044C141.933 77.7035 142.728 78.2611 143.233 79.0544C143.738 79.8477 143.911 80.8119 143.714 81.7347L142.603 86.9538L139.171 86.203L140.282 80.9838Z" fill="#568DF4"/>
<path d="M130.135 90.5981L126.703 89.8472L127.444 86.3678L130.876 87.1186L130.135 90.5981Z" fill="#568DF4"/>
<path d="M132.87 94.8393L129.438 94.0884L130.178 90.609L133.61 91.3598L132.87 94.8393Z" fill="#568DF4"/>
<path d="M125.979 93.3305L122.547 92.5797L123.287 89.1002L126.719 89.851L125.979 93.3305Z" fill="#568DF4"/>
<path d="M134.354 87.8852L130.922 87.1343L131.662 83.6549L135.094 84.4057L134.354 87.8852Z" fill="#568DF4"/>
<path d="M127.463 86.3764L124.031 85.6255L124.772 82.1461L128.204 82.8969L127.463 86.3764Z" fill="#568DF4"/>
<path d="M106.137 116.979L106.57 115.363L112.647 117.217L112.359 118.295L106.137 116.979Z" fill="#BCBFE3"/>
<path d="M105.371 119.807L105.804 118.191L115.688 120.259L115.609 121.62L105.371 119.807Z" fill="#BCBFE3"/>
<path d="M102.349 128.463L102.195 130.19L105.981 130.517L106.083 129.366L102.349 128.463Z" fill="#BCBFE3"/>
<path d="M101.484 132.56L102.001 131.02L109.104 132.838L108.881 134.13L101.484 132.56Z" fill="#BCBFE3"/>
<path d="M120.529 66.1009L120.981 64.4389L144.406 69.9928L144.682 71.4851L120.529 66.1009Z" fill="#BCBFE3"/>
<path d="M124.874 121.844L125.289 120.222L128.381 121.12L128.105 122.201L124.874 121.844Z" fill="#BCBFE3"/>
<path d="M124.141 124.681L124.556 123.059L134.232 124.924L134.162 126.283L124.141 124.681Z" fill="#BCBFE3"/>
<path d="M121.03 133.755L121.445 132.132L130.848 134.862L130.571 135.944L121.03 133.755Z" fill="#BCBFE3"/>
<path d="M120.313 136.594L120.728 134.972L136.566 138.626L136.665 140.034L120.313 136.594Z" fill="#BCBFE3"/>
<path fill-rule="evenodd" clip-rule="evenodd" d="M142.971 56.3217C143.302 56.397 143.509 56.7263 143.434 57.0571L141.771 64.3643C141.695 64.6952 141.366 64.9023 141.035 64.827L132.8 62.9523C132.828 62.598 132.593 62.2672 132.236 62.186C131.88 62.1048 131.525 62.3011 131.397 62.6329L129.475 62.1955C129.144 62.1202 128.937 61.7909 129.013 61.4601L130.676 54.1529C130.751 53.822 131.081 53.6149 131.411 53.6902L133.333 54.1277C133.321 54.1599 133.311 54.1935 133.303 54.2281C133.214 54.6196 133.459 55.0091 133.85 55.0982C134.242 55.1874 134.631 54.9423 134.72 54.5508C134.728 54.5161 134.733 54.4815 134.736 54.4471L142.971 56.3217Z" fill="#868AC3"/>
<path d="M138.455 57.7501C138.017 57.6578 137.566 57.7011 137.158 57.8744C136.751 58.0477 136.405 58.3433 136.165 58.7237C135.925 59.1041 135.801 59.5523 135.809 60.0116C135.817 60.471 135.957 60.9208 136.21 61.3041C136.464 61.6875 136.82 61.9873 137.234 62.1655C137.648 62.3438 138.101 62.3925 138.535 62.3055C138.97 62.2185 139.366 61.9997 139.675 61.6768C139.983 61.3539 140.19 60.9414 140.269 60.4914C140.374 59.8881 140.241 59.2607 139.901 58.7468C139.561 58.2329 139.041 57.8745 138.455 57.7501ZM138.585 61.0802C138.574 61.1473 138.537 61.2061 138.482 61.2438C138.428 61.2815 138.361 61.295 138.295 61.2812L138.099 61.2398L138.074 61.3818C138.064 61.4416 138.035 61.4957 137.991 61.535C137.947 61.5743 137.891 61.5964 137.832 61.5977C137.795 61.5977 137.758 61.5892 137.725 61.5727C137.691 61.5563 137.661 61.5324 137.637 61.5027C137.612 61.473 137.595 61.4384 137.585 61.4012C137.576 61.364 137.574 61.3253 137.581 61.2878L137.607 61.1361L137.41 61.0947C137.374 61.087 137.34 61.071 137.309 61.048C137.279 61.0249 137.254 60.9954 137.237 60.9615C137.219 60.9277 137.208 60.8903 137.206 60.8521C137.203 60.8139 137.209 60.7758 137.223 60.7407C137.246 60.6852 137.287 60.6401 137.339 60.6128C137.391 60.5856 137.45 60.5779 137.508 60.5911L138.138 60.7238L138.209 60.3194L137.57 60.1847C137.504 60.1709 137.447 60.1311 137.409 60.074C137.371 60.0169 137.356 59.9471 137.368 59.8801L137.527 58.97C137.539 58.903 137.576 58.8442 137.631 58.8065C137.685 58.7688 137.752 58.7553 137.817 58.7691L138.014 58.8105L138.039 58.6684C138.048 58.6086 138.078 58.5544 138.122 58.5151C138.166 58.4757 138.222 58.4537 138.281 58.4526C138.318 58.4526 138.354 58.4611 138.388 58.4776C138.422 58.494 138.452 58.5179 138.476 58.5476C138.5 58.5772 138.518 58.6119 138.528 58.6491C138.537 58.6862 138.539 58.725 138.532 58.7625L138.506 58.9141L138.702 58.9556C138.739 58.9633 138.773 58.9792 138.804 59.0022C138.834 59.0252 138.859 59.0547 138.877 59.0886C138.895 59.1225 138.905 59.1599 138.908 59.1982C138.91 59.2364 138.904 59.2745 138.89 59.3097C138.867 59.3651 138.826 59.4102 138.774 59.4374C138.722 59.4646 138.662 59.4723 138.605 59.4592L137.975 59.3264L137.904 59.7309L138.543 59.8656C138.608 59.8794 138.666 59.9192 138.704 59.9763C138.742 60.0334 138.756 60.1032 138.745 60.1702L138.585 61.0802Z" fill="#F6F7FA"/>
<path d="M132.287 61.8128L133.562 55.6749" stroke="#F6F7FA" stroke-width="0.62909" stroke-dasharray="1.4 0.7"/>
<path d="M192.755 95.7111L195.225 102.521C190.865 103.992 188.595 108.667 190.154 112.965C191.712 117.262 196.51 119.554 200.869 118.084L203.339 124.894C203.568 125.525 203.238 126.209 202.603 126.424L167.989 138.098L166.785 134.78L164.524 135.543L165.728 138.861L149.274 144.411C148.638 144.625 147.938 144.288 147.709 143.658L145.239 136.847L139.595 121.285L137.125 114.474C136.896 113.844 137.226 113.159 137.861 112.945L154.315 107.395L155.519 110.713L157.78 109.951L156.577 106.633L191.19 94.9579C191.826 94.7436 192.526 95.0808 192.755 95.7111Z" fill="black"/>
<path d="M193.451 93.9971L195.897 100.742C191.581 102.198 189.336 106.833 190.882 111.096C192.428 115.358 197.18 117.633 201.495 116.178L203.942 122.924C204.171 123.554 203.841 124.239 203.206 124.453L168.948 136.008L167.754 132.716L165.516 133.471L166.709 136.763L150.431 142.253C149.795 142.468 149.095 142.13 148.866 141.5L146.42 134.754L140.822 119.319L138.375 112.574C138.146 111.943 138.476 111.259 139.111 111.044L155.39 105.554L156.583 108.844L158.822 108.089L157.629 104.799L191.886 93.2438C192.522 93.0296 193.222 93.3668 193.451 93.9971Z" fill="#F6F7FA" stroke="black" stroke-width="1.00057"/>
<path d="M175.338 106.958C173.795 107.387 172.428 108.27 171.407 109.496C170.387 110.721 169.76 112.234 169.606 113.843C169.452 115.452 169.778 117.085 170.542 118.535C171.306 119.985 172.474 121.187 173.899 121.99C175.323 122.792 176.94 123.159 178.545 123.043C180.15 122.927 181.671 122.335 182.915 121.34C184.16 120.345 185.072 118.993 185.536 117.455C186 115.916 185.996 114.26 185.524 112.696C184.888 110.601 183.459 108.82 181.55 107.745C179.64 106.669 177.406 106.386 175.338 106.958ZM181.106 117.353C181.177 117.586 181.153 117.835 181.04 118.045C180.927 118.255 180.735 118.409 180.505 118.473L179.812 118.665L179.961 119.159C180.027 119.365 180.02 119.586 179.943 119.784C179.866 119.982 179.723 120.145 179.538 120.246C179.42 120.307 179.289 120.341 179.155 120.344C179.02 120.348 178.886 120.321 178.762 120.267C178.637 120.212 178.526 120.13 178.435 120.028C178.345 119.925 178.277 119.805 178.238 119.674L178.079 119.147L177.386 119.34C177.257 119.376 177.122 119.382 176.989 119.358C176.856 119.334 176.729 119.281 176.618 119.203C176.506 119.125 176.413 119.023 176.344 118.905C176.275 118.787 176.233 118.656 176.22 118.522C176.203 118.307 176.261 118.096 176.383 117.923C176.504 117.751 176.683 117.627 176.888 117.574L179.108 116.957L178.684 115.551L176.431 116.177C176.201 116.241 175.952 116.21 175.74 116.09C175.528 115.971 175.369 115.773 175.299 115.54L174.344 112.377C174.274 112.144 174.297 111.895 174.41 111.685C174.523 111.475 174.715 111.322 174.945 111.258L175.638 111.065L175.489 110.571C175.423 110.365 175.429 110.144 175.506 109.946C175.583 109.748 175.727 109.585 175.913 109.484C176.031 109.423 176.161 109.389 176.296 109.386C176.43 109.382 176.564 109.409 176.688 109.464C176.813 109.518 176.924 109.6 177.015 109.702C177.106 109.805 177.173 109.926 177.212 110.056L177.372 110.583L178.065 110.39C178.193 110.354 178.329 110.348 178.462 110.372C178.595 110.395 178.722 110.448 178.834 110.526C178.945 110.605 179.039 110.706 179.108 110.824C179.177 110.942 179.219 111.073 179.232 111.208C179.248 111.423 179.19 111.634 179.068 111.807C178.946 111.979 178.767 112.103 178.562 112.156L176.342 112.774L176.767 114.179L179.02 113.553C179.249 113.489 179.498 113.52 179.71 113.64C179.922 113.759 180.081 113.957 180.151 114.19L181.106 117.353Z" fill="#BCBFE3"/>
<path d="M166.066 129.742L158.164 108.746" stroke="#BCBFE3" stroke-width="2.25129" stroke-dasharray="5 2.5"/>
</svg>
