<svg width="72" height="72" viewBox="0 0 72 72" fill="none" xmlns="http://www.w3.org/2000/svg">
<g clip-path="url(#clip0_1979_18690)">
<circle cx="36" cy="36" r="36" fill="#F6F7FA"/>
<path d="M57 15.0262C57 14.4609 56.5417 14 55.9764 14H16.0236C15.4583 14 15 14.4583 15 15.0236V28.9764C15 29.5417 15.4583 30 16.0236 30H55.9764C56.5417 30 57 29.538 57 28.9727C57 22.7158 57 20.5876 57 15.0262Z" fill="#293044"/>
<path d="M15 14.0236C15 13.4583 15.4583 13 16.0236 13H54.6741C55.2394 13 55.6977 13.4583 55.6977 14.0236V27.4416C55.6977 28.0069 55.2394 28.4651 54.6741 28.4651H16.0236C15.4583 28.4651 15 28.0069 15 27.4416L15 14.0236Z" fill="#F6F7FA"/>
<rect x="32" y="18" width="20" height="5" rx="0.813954" fill="#DADDFD"/>
<rect x="16.6289" y="15.4419" width="9.76744" height="9.76744" rx="4.88372" fill="#515BB2"/>
<path d="M28.0234 13V28.4651" stroke="#293044" stroke-width="0.8"/>
<path fill-rule="evenodd" clip-rule="evenodd" d="M15 14.0236C15 13.4583 15.4583 13 16.0236 13H54.6741C55.2394 13 55.6977 13.4583 55.6977 14.0236V27.4416C55.6977 28.0069 55.2394 28.4651 54.6741 28.4651H16.0236C15.4583 28.4651 15 28.0069 15 27.4416L15 14.0236Z" stroke="#293044" stroke-width="0.651163"/>
<g clip-path="url(#clip1_1979_18690)">
<path d="M20.2883 18.8335C20.2883 19.5066 20.8361 20.0544 21.5092 20.0544C22.1824 20.0544 22.7302 19.5066 22.7302 18.8335C22.7302 18.1603 22.1824 17.6125 21.5092 17.6125C20.8361 17.6125 20.2883 18.1603 20.2883 18.8335ZM23.6798 22.7676H23.9511V22.4963C23.9511 21.4493 23.0989 20.597 22.0519 20.597H20.9666C19.9193 20.597 19.0674 21.4493 19.0674 22.4963V22.7676H23.6798Z" fill="white"/>
</g>
<path d="M57 35.0253C57 34.46 56.5417 34 55.9764 34H16.0236C15.4583 34 15 34.4583 15 35.0236V47.9764C15 48.5417 15.4583 49 16.0236 49H55.9764C56.5417 49 57 48.5385 57 47.9732C57 42.1802 57 40.1733 57 35.0253Z" fill="#293044"/>
<path d="M15 33.7445C15 33.1792 15.4583 32.7209 16.0236 32.7209H54.6741C55.2394 32.7209 55.6977 33.1792 55.6977 33.7445V47.1625C55.6977 47.7278 55.2394 48.1861 54.6741 48.1861H16.0236C15.4583 48.1861 15 47.7278 15 47.1625L15 33.7445Z" fill="#F6F7FA"/>
<path d="M28.0234 32.7209V48.1861" stroke="#293044" stroke-width="0.8"/>
<path fill-rule="evenodd" clip-rule="evenodd" d="M15 33.7445C15 33.1792 15.4583 32.7209 16.0236 32.7209H54.6741C55.2394 32.7209 55.6977 33.1792 55.6977 33.7445V47.1625C55.6977 47.7278 55.2394 48.1861 54.6741 48.1861H16.0236C15.4583 48.1861 15 47.7278 15 47.1625L15 33.7445Z" stroke="#293044" stroke-width="0.651163"/>
<rect x="32" y="38" width="20" height="5" rx="0.813954" fill="#DADDFD"/>
<ellipse cx="38" cy="54" rx="7" ry="8" fill="#293044"/>
<circle cx="36.5292" cy="53.4667" r="7.86667" fill="#F6F7FA" stroke="#293044" stroke-width="0.8"/>
<path fill-rule="evenodd" clip-rule="evenodd" d="M36.537 60.9336C40.6607 60.9336 44.0036 57.5906 44.0036 53.4669C44.0036 49.3432 40.6607 46.0002 36.537 46.0002C32.4133 46.0002 29.0703 49.3432 29.0703 53.4669C29.0703 57.5906 32.4133 60.9336 36.537 60.9336ZM33.4184 52.4097L35.6299 54.6212L39.7702 50.4808L41.134 51.8445L35.6299 57.3487L32.0547 53.7735L33.4184 52.4097Z" fill="#515BB2"/>
</g>
<defs>
<clipPath id="clip0_1979_18690">
<rect width="72" height="72" fill="white"/>
</clipPath>
<clipPath id="clip1_1979_18690">
<rect width="6.51163" height="6.51163" fill="white" transform="translate(18.2539 17.0698)"/>
</clipPath>
</defs>
</svg>
