<svg width="53" height="49" viewBox="0 0 53 49" fill="none" xmlns="http://www.w3.org/2000/svg">
<rect x="2.4" y="3.03281" width="31.2" height="31.2" rx="0.947001" fill="#F6F7FC" stroke="#293044" stroke-width="0.8" stroke-dasharray="1.35 1.35"/>
<rect x="19.3368" y="31.9696" width="33.3265" height="13.3265" rx="2.35725" fill="#293044"/>
<rect x="19.3368" y="31.9696" width="33.3265" height="13.3265" rx="2.35725" stroke="#293044" stroke-width="0.6735"/>
<rect x="17.4" y="30.0328" width="34.2" height="13.2" rx="2.294" fill="#F6F7FC"/>
<rect x="17.4" y="30.0328" width="34.2" height="13.2" rx="2.294" stroke="#293044" stroke-width="0.8"/>
<rect x="21" y="35.6328" width="27" height="2" fill="#DFE1F2"/>
<path d="M53 14.8938C53 14.1993 52.437 13.6338 51.7425 13.6338H4.25751C3.56301 13.6338 3 14.1968 3 14.8913V26.3763C3 27.0708 3.56301 27.6338 4.25752 27.6338H51.7425C52.437 27.6338 53 27.0691 53 26.3746C53 21.3097 53 19.389 53 14.8938Z" fill="#293044"/>
<path d="M1 12.8913C1 12.1968 1.56301 11.6338 2.25752 11.6338H50.7425C51.437 11.6338 52 12.1968 52 12.8913V24.3763C52 25.0708 51.437 25.6338 50.7425 25.6338H2.25751C1.56301 25.6338 1 25.0708 1 24.3763L1 12.8913Z" fill="#F6F7FA"/>
<path d="M1 11.6338H16V25.6338H1L1 11.6338Z" fill="#568DF4"/>
<path d="M16 11.6348V25.6348" stroke="#293044" stroke-width="0.628758"/>
<path fill-rule="evenodd" clip-rule="evenodd" d="M1 12.8923C1 12.1978 1.56301 11.6348 2.25752 11.6348H50.7425C51.437 11.6348 52 12.1978 52 12.8923V24.3773C52 25.0718 51.437 25.6348 50.7425 25.6348H2.25751C1.56301 25.6348 1 25.0718 1 24.3773L1 12.8923Z" stroke="#293044" stroke-width="0.8"/>
<rect x="4" y="17.6328" width="9" height="2" fill="white"/>
<rect x="19" y="17.6328" width="30" height="2" fill="#DFE1F2"/>
<g clip-path="url(#clip0_1600_73130)">
<path fill-rule="evenodd" clip-rule="evenodd" d="M44.4423 10.8661C44.4032 10.8167 44.4244 10.7434 44.4838 10.7225L47.3169 9.72768C47.392 9.70131 47.4003 9.5984 47.3303 9.56041L39.2346 5.1625C39.1637 5.12402 39.0812 5.189 39.1021 5.26688L41.4626 14.0937C41.4829 14.1698 41.5835 14.1866 41.6274 14.1211L43.2927 11.6413C43.3274 11.5896 43.4023 11.5867 43.4409 11.6355L45.5192 14.264C45.5504 14.3034 45.6075 14.3104 45.6473 14.2797L46.5016 13.6203C46.542 13.589 46.5492 13.5308 46.5175 13.4907L44.4423 10.8661Z" fill="#293044"/>
<path fill-rule="evenodd" clip-rule="evenodd" d="M48.9848 9.69229C49.0547 9.73028 49.0465 9.83319 48.9714 9.85956L45.602 11.0427C45.5426 11.0636 45.5214 11.1369 45.5605 11.1863L47.474 13.6063C47.5057 13.6464 47.4986 13.7047 47.4581 13.7359L45.5354 15.2202C45.4956 15.2509 45.4385 15.2439 45.4073 15.2045L43.4907 12.7805C43.4521 12.7317 43.3772 12.7347 43.3425 12.7863L41.3625 15.7347C41.3186 15.8001 41.218 15.7834 41.1977 15.7072L38.0474 3.92703C38.0265 3.84915 38.109 3.78417 38.1799 3.82266L48.9848 9.69229ZM43.2976 11.6415C43.3323 11.5899 43.4072 11.587 43.4458 11.6358L45.5242 14.2642C45.5554 14.3036 45.6125 14.3106 45.6523 14.2799L46.5065 13.6205C46.5469 13.5892 46.5541 13.531 46.5224 13.4909L44.4471 10.8663C44.408 10.8169 44.4293 10.7436 44.4887 10.7227L47.3218 9.72788C47.3969 9.70151 47.4051 9.5986 47.3352 9.56061L39.2394 5.1627C39.1686 5.12421 39.0861 5.18919 39.1069 5.26707L41.4674 14.0939C41.4878 14.17 41.5884 14.1868 41.6323 14.1213L43.2976 11.6415Z" fill="#F6F7FA"/>
</g>
<defs>
<clipPath id="clip0_1600_73130">
<rect width="11.1744" height="12.1818" fill="white" transform="translate(38 3.7207)"/>
</clipPath>
</defs>
</svg>
