<svg width="46" height="57" viewBox="0 0 46 57" fill="none" xmlns="http://www.w3.org/2000/svg">
<path d="M35.22 29.9998C35.7348 29.9998 37.4153 33.1024 38.8233 34.5C40.5742 35.8234 39.8528 39.5002 39.8528 39.5002C39.1789 42.105 39.1598 49.9034 38.8649 52.5584C39.3058 52.7529 39.6132 53.1834 39.6132 53.6846V55.7623C39.6132 56.446 39.0431 56.9998 38.3393 56.9998H29.4132C28.7094 56.9998 28.1393 56.446 28.1393 55.7623V53.6846C28.1393 53.1763 28.4546 52.7403 28.9057 52.5496V51.5691C26.323 48.9453 25.3858 45.1503 25.3858 45.1503L22.5527 42.5736L19.2589 39.5773C17.2046 37.4684 18.2828 35.893 18.2828 35.893C20.2311 34.099 24.7525 38.255 24.7525 38.255C24.7525 38.255 30.2831 40.7048 31.6168 39.0001L35.22 29.9998Z" fill="#293044"/>
<rect x="10.5" y="3.42358" width="24.8845" height="47.3991" rx="1.49013" fill="#293044"/>
<rect x="8.28906" y="1.21655" width="24.8845" height="47.3991" rx="2.36995" fill="#F6F7FA" stroke="#293044" stroke-width="0.93"/>
<path d="M8.89062 43.282H33.1827" stroke="#293044" stroke-width="0.93"/>
<path d="M24.9839 3.58651H16.4858C16.1715 3.58651 15.8701 3.46166 15.6479 3.23944C14.9014 2.49294 15.4301 1.21655 16.4858 1.21655H24.9839C26.0396 1.21655 26.5683 2.49294 25.8218 3.23944C25.5996 3.46166 25.2982 3.58651 24.9839 3.58651Z" stroke="#293044" stroke-width="0.93"/>
<rect opacity="0.5" x="10.7969" y="6.61401" width="19.4336" height="23.7522" rx="2.15929" fill="#DFE1F2"/>
<rect opacity="0.5" x="10.7969" y="33.6062" width="19.4336" height="6.47788" rx="2.15929" fill="#DFE1F2"/>
<path d="M35.0617 30.1923C35.7701 31.2193 36.6824 32.6642 37.5 33.4998C39.0671 34.7191 38.5953 37.9363 38.5115 38.4345C38.5039 38.4796 38.4949 38.5193 38.4843 38.5638C37.9365 40.8489 37.8431 46.8276 37.6487 50.1479C37.5992 50.9918 38.2673 51.8382 38.2673 52.6836V54.7612C38.2673 55.4448 37.7135 55.9986 37.0299 55.9986H28.3596C27.676 55.9986 27.1222 55.4448 27.1222 54.7612V52.6836C27.1222 52.3934 27.222 52.1267 27.3893 51.9158C27.6188 51.6264 27.8666 51.3098 27.8666 50.9404C27.8666 50.7015 27.773 50.473 27.6143 50.2945C25.9201 48.3898 25.0107 45.9863 24.644 44.831C24.5037 44.389 24.2671 43.9807 23.9286 43.6638L21.6957 41.5731L18.4963 38.5769C16.9622 36.9557 17.2265 35.6497 17.4307 35.1325C17.4962 34.9667 17.6096 34.8241 17.7575 34.7246C19.4245 33.6027 22.5685 36.1424 23.5394 36.9908C23.7361 37.1627 23.9533 37.3102 24.1944 37.4107C25.3454 37.8907 28.9246 39.2524 30.2649 38.2338C30.4407 38.1003 30.5406 37.8954 30.6206 37.6897L33.4124 30.5107C33.7667 29.5998 34.5068 29.3877 35.0617 30.1923Z" fill="#F6F7FA" stroke="#293044" stroke-width="0.93"/>
<path d="M37.7871 51.4197H28.0703" stroke="#293044" stroke-width="1.00407" stroke-linecap="round" stroke-linejoin="round"/>
<path d="M26.054 10.9353H23.0312V12.9505H26.054V15.9732H28.0691V12.9505C28.0691 12.416 27.8568 11.9034 27.4789 11.5255C27.101 11.1476 26.5884 10.9353 26.054 10.9353Z" fill="#568DF4"/>
<path d="M12.9531 12.9505V15.9732H14.9683V12.9505H17.991V10.9353H14.9683C14.4338 10.9353 13.9213 11.1476 13.5433 11.5255C13.1654 11.9034 12.9531 12.416 12.9531 12.9505Z" fill="#568DF4"/>
<path d="M14.9683 21.0142H12.9531V24.0369C12.9531 24.5713 13.1654 25.0839 13.5433 25.4618C13.9213 25.8397 14.4338 26.052 14.9683 26.052H17.991V24.0369H14.9683V21.0142Z" fill="#568DF4"/>
<path d="M26.054 24.0371H23.0312V26.0523H26.054C26.5884 26.0523 27.101 25.84 27.4789 25.4621C27.8568 25.0841 28.0691 24.5716 28.0691 24.0371V21.0144H26.054V24.0371Z" fill="#568DF4"/>
<path d="M21.5073 17.4871H19.4922V19.5022H21.5073V17.4871Z" fill="#568DF4"/>
<path d="M23.5464 15.4734H21.5312V17.4885H23.5464V15.4734Z" fill="#568DF4"/>
<path d="M19.4995 15.4734H17.4844V17.4885H19.4995V15.4734Z" fill="#568DF4"/>
<path d="M23.5464 19.4988H21.5312V21.5139H23.5464V19.4988Z" fill="#568DF4"/>
<path d="M19.4995 19.4988H17.4844V21.5139H19.4995V19.4988Z" fill="#568DF4"/>
</svg>
