<svg width="72" height="72" viewBox="0 0 72 72" fill="none" xmlns="http://www.w3.org/2000/svg">
<g clip-path="url(#clip0_2079_20927)">
<circle cx="36" cy="36" r="36" fill="#F6F7FA"/>
<path d="M43 17L48 12M39 16V9" stroke="#568DF4" stroke-linecap="round" stroke-linejoin="round"/>
<path d="M50.3014 50.1685C51.106 50.1685 51.7583 49.5162 51.7583 48.7116V47.5456C51.7583 46.741 51.106 46.0887 50.3014 46.0887H29.3545C28.5823 46.0887 28.0129 45.3671 28.1925 44.6161V44.6161C28.3162 44.0988 28.7669 43.7255 29.2982 43.7005L49.1462 42.7643C49.6863 42.7388 50.1679 42.4163 50.3971 41.9266L58.0768 25.52C58.5166 24.5803 57.8611 23.495 56.8246 23.4471L24.7926 21.9658C24.1498 21.9361 23.6026 21.4882 23.4466 20.8639L22.5065 17.1035C22.3443 16.455 21.7616 16 21.0931 16H14.4569C13.6523 16 13 16.6523 13 17.4569V18.6229C13 19.4276 13.6523 20.0798 14.4569 20.0798H17.8905C18.5542 20.0798 19.1341 20.5285 19.3007 21.171L24.5859 41.5499C24.6467 41.7842 24.6481 42.0299 24.5901 42.2649L23.0845 48.3624C22.8578 49.2809 23.5529 50.1685 24.4989 50.1685H50.3014Z" fill="#293044"/>
<path d="M26.5201 59.8391C28.6325 59.8391 30.345 58.1267 30.345 56.0143C30.345 53.9019 28.6325 52.1895 26.5201 52.1895C24.4077 52.1895 22.6953 53.9019 22.6953 56.0143C22.6953 58.1267 24.4077 59.8391 26.5201 59.8391Z" fill="#293044"/>
<path d="M49.4655 59.8391C51.5779 59.8391 53.2903 58.1267 53.2903 56.0143C53.2903 53.9019 51.5779 52.1895 49.4655 52.1895C47.3531 52.1895 45.6406 53.9019 45.6406 56.0143C45.6406 58.1267 47.3531 59.8391 49.4655 59.8391Z" fill="#293044"/>
<path d="M49.5998 49.1685C50.2396 49.1685 50.7583 48.6498 50.7583 48.01V46.2472C50.7583 45.6074 50.2396 45.0887 49.5998 45.0887H28.3086C27.5598 45.0887 27.0077 44.389 27.1818 43.6607L27.1988 43.5896C27.3188 43.088 27.7559 42.7261 28.271 42.7018L48.3261 41.7558C48.7556 41.7355 49.1385 41.4791 49.3208 41.0897L57.2658 24.1161C57.6156 23.3688 57.0943 22.5058 56.2701 22.4677L23.5708 20.9556C23.0597 20.9319 22.6245 20.5757 22.5004 20.0793L21.45 15.8776C21.3211 15.3618 20.8577 15 20.326 15H13.1585C12.5187 15 12 15.5187 12 16.1585V17.9213C12 18.5611 12.5187 19.0798 13.1585 19.0798H17.1213C17.6492 19.0798 18.1103 19.4366 18.2428 19.9475L23.6049 40.623C23.6532 40.8093 23.6543 41.0047 23.6082 41.1916L21.9932 47.7323C21.8129 48.4626 22.3656 49.1685 23.118 49.1685H49.5998Z" fill="#F6F7FA" stroke="#293044" stroke-width="0.926829"/>
<path d="M25.5201 58.8391C27.6325 58.8391 29.345 57.1267 29.345 55.0143C29.345 52.9019 27.6325 51.1895 25.5201 51.1895C23.4077 51.1895 21.6953 52.9019 21.6953 55.0143C21.6953 57.1267 23.4077 58.8391 25.5201 58.8391Z" fill="#568DF4" stroke="#293044" stroke-width="0.926829"/>
<path d="M48.4655 58.8391C50.5779 58.8391 52.2903 57.1267 52.2903 55.0143C52.2903 52.9019 50.5779 51.1895 48.4655 51.1895C46.3531 51.1895 44.6406 52.9019 44.6406 55.0143C44.6406 57.1267 46.3531 58.8391 48.4655 58.8391Z" fill="#568DF4" stroke="#293044" stroke-width="0.926829"/>
<path d="M25.5 21.5L29 38.5" stroke="#293044" stroke-width="0.926829" stroke-linecap="round" stroke-linejoin="round"/>
<path d="M34.5 22V38M43 22L41.5 38" stroke="#293044" stroke-width="0.926829" stroke-linecap="round" stroke-linejoin="round"/>
<path d="M51.5 22.5L46.5 38.5" stroke="#293044" stroke-width="0.926829" stroke-linecap="round" stroke-linejoin="round"/>
</g>
<defs>
<clipPath id="clip0_2079_20927">
<rect width="72" height="72" fill="white"/>
</clipPath>
</defs>
</svg>
