<svg width="48" height="46" viewBox="0 0 48 46" fill="none" xmlns="http://www.w3.org/2000/svg">
<path d="M39.3014 36.1685C40.106 36.1685 40.7583 35.5162 40.7583 34.7116V33.5456C40.7583 32.741 40.106 32.0887 39.3014 32.0887H18.3545C17.5823 32.0887 17.0129 31.3671 17.1925 30.6161C17.3162 30.0988 17.7669 29.7255 18.2982 29.7005L38.1462 28.7643C38.6863 28.7388 39.1679 28.4163 39.3971 27.9266L47.0768 11.52C47.5166 10.5803 46.8611 9.495 45.8246 9.44707L13.7926 7.96583C13.1498 7.9361 12.6026 7.48815 12.4466 6.86385L11.5065 3.10353C11.3443 2.45498 10.7616 2 10.0931 2H3.45688C2.65227 2 2 2.65227 2 3.45688V4.62294C2 5.42755 2.65227 6.07982 3.45688 6.07982H6.8905C7.55425 6.07982 8.13409 6.52847 8.30072 7.17096L13.5859 27.5499C13.6467 27.7842 13.6481 28.0299 13.5901 28.2649L12.0845 34.3624C11.8578 35.2809 12.5529 36.1685 13.4989 36.1685H39.3014Z" fill="#293044"/>
<path d="M15.5201 45.8391C17.6325 45.8391 19.345 44.1267 19.345 42.0143C19.345 39.9019 17.6325 38.1895 15.5201 38.1895C13.4077 38.1895 11.6953 39.9019 11.6953 42.0143C11.6953 44.1267 13.4077 45.8391 15.5201 45.8391Z" fill="#293044"/>
<path d="M38.4655 45.8391C40.5779 45.8391 42.2903 44.1267 42.2903 42.0143C42.2903 39.9019 40.5779 38.1895 38.4655 38.1895C36.3531 38.1895 34.6406 39.9019 34.6406 42.0143C34.6406 44.1267 36.3531 45.8391 38.4655 45.8391Z" fill="#293044"/>
<path d="M38.5998 35.1685C39.2396 35.1685 39.7583 34.6498 39.7583 34.01V32.2472C39.7583 31.6074 39.2396 31.0887 38.5998 31.0887H17.3086C16.5598 31.0887 16.0077 30.389 16.1818 29.6607L16.1988 29.5896C16.3188 29.088 16.7559 28.7261 17.271 28.7018L37.3261 27.7558C37.7556 27.7355 38.1385 27.4791 38.3208 27.0897L46.2658 10.1161C46.6156 9.36883 46.0943 8.50579 45.2701 8.46767L12.5708 6.95557C12.0597 6.93193 11.6245 6.57571 11.5004 6.07926L10.45 1.87755C10.3211 1.36181 9.85766 1 9.32604 1H2.15854C1.5187 1 1 1.51869 1 2.15854V3.92128C1 4.56113 1.51869 5.07982 2.15854 5.07982H6.12133C6.64916 5.07982 7.11027 5.43659 7.24277 5.94752L12.6049 26.623C12.6532 26.8093 12.6543 27.0047 12.6082 27.1916L10.9932 33.7323C10.8129 34.4626 11.3656 35.1685 12.118 35.1685H38.5998Z" fill="#F6F7FA" stroke="#293044" stroke-width="0.926829"/>
<path d="M14.5201 44.8391C16.6325 44.8391 18.345 43.1267 18.345 41.0143C18.345 38.9019 16.6325 37.1895 14.5201 37.1895C12.4077 37.1895 10.6953 38.9019 10.6953 41.0143C10.6953 43.1267 12.4077 44.8391 14.5201 44.8391Z" fill="#568DF4" stroke="#293044" stroke-width="0.926829"/>
<path d="M37.4655 44.8391C39.5779 44.8391 41.2903 43.1267 41.2903 41.0143C41.2903 38.9019 39.5779 37.1895 37.4655 37.1895C35.3531 37.1895 33.6406 38.9019 33.6406 41.0143C33.6406 43.1267 35.3531 44.8391 37.4655 44.8391Z" fill="#568DF4" stroke="#293044" stroke-width="0.926829"/>
</svg>
