<svg width="43" height="50" viewBox="0 0 43 50" fill="none" xmlns="http://www.w3.org/2000/svg">
<rect x="10.7271" y="6.04492" width="23.0488" height="43.9024" rx="1.3802" fill="#293044"/>
<rect x="8.67688" y="4.00024" width="23.0488" height="43.9024" rx="2.19512" fill="#F6F7FA" stroke="#293044" stroke-width="0.878049"/>
<path d="M9.23193 42.9626H31.7319" stroke="#293044" stroke-width="0.878049"/>
<path d="M24.1493 6.19537H16.278C15.987 6.19537 15.7078 6.07973 15.5019 5.8739C14.8105 5.18247 15.3002 4.00024 16.278 4.00024H24.1493C25.1271 4.00024 25.6168 5.18247 24.9254 5.8739C24.7195 6.07973 24.4404 6.19537 24.1493 6.19537Z" stroke="#293044" stroke-width="0.878049"/>
<path fill-rule="evenodd" clip-rule="evenodd" d="M4.69387 29.0906C4.08771 29.0906 3.59631 29.582 3.59631 30.1881V37.8711C3.59631 37.8978 3.58661 37.9237 3.56904 37.9438C3.52167 37.9982 3.47959 38.0573 3.44353 38.1204L2.00212 40.6428C1.79729 41.0013 2.15556 41.4186 2.5409 41.2704L8.27945 39.0633C8.38538 39.0225 8.49103 38.9686 8.60453 38.9686H25.5475C26.1537 38.9686 26.6451 38.4772 26.6451 37.8711V30.1881C26.6451 29.582 26.1537 29.0906 25.5475 29.0906H4.69387Z" fill="#293044"/>
<path fill-rule="evenodd" clip-rule="evenodd" d="M4.10131 26.9988C3.49515 26.9988 3.00375 27.4902 3.00375 28.0963V36.9012C3.00375 37.1029 3.05815 37.2919 3.15308 37.4543L1.49212 39.4847C1.20689 39.8334 1.56908 40.3341 1.98953 40.1724L7.33163 38.1178C7.39869 38.092 7.45704 38.0507 7.50295 37.9988H24.9062C25.5124 37.9988 26.0037 37.5074 26.0037 36.9012V28.0963C26.0037 27.4902 25.5124 26.9988 24.9062 26.9988H4.10131Z" fill="#F6F7FA"/>
<path d="M3.15308 37.4543L3.49289 37.7323L3.68606 37.4961L3.5321 37.2327L3.15308 37.4543ZM1.49212 39.4847L1.15231 39.2067H1.15231L1.49212 39.4847ZM1.98953 40.1724L1.83193 39.7627H1.83193L1.98953 40.1724ZM7.33163 38.1178L7.48923 38.5275L7.48923 38.5275L7.33163 38.1178ZM7.50295 37.9988V37.5598H7.30506L7.174 37.708L7.50295 37.9988ZM3.44278 28.0963C3.44278 27.7326 3.73761 27.4378 4.10131 27.4378V26.5598C3.25268 26.5598 2.56473 27.2477 2.56473 28.0963H3.44278ZM3.44278 36.9012V28.0963H2.56473V36.9012H3.44278ZM3.5321 37.2327C3.4754 37.1357 3.44278 37.023 3.44278 36.9012H2.56473C2.56473 37.1829 2.6409 37.448 2.77405 37.6758L3.5321 37.2327ZM1.83193 39.7627L3.49289 37.7323L2.81327 37.1763L1.15231 39.2067L1.83193 39.7627ZM1.83193 39.7627H1.83193L1.15231 39.2067C0.581853 39.904 1.30623 40.9056 2.14713 40.5822L1.83193 39.7627ZM7.17403 37.708L1.83193 39.7627L2.14713 40.5822L7.48923 38.5275L7.17403 37.708ZM7.174 37.708L7.17402 37.708L7.48923 38.5275C7.6233 38.476 7.7401 38.3934 7.83191 38.2895L7.174 37.708ZM24.9062 37.5598H7.50295V38.4378H24.9062V37.5598ZM25.5647 36.9012C25.5647 37.2649 25.2699 37.5598 24.9062 37.5598V38.4378C25.7548 38.4378 26.4428 37.7499 26.4428 36.9012H25.5647ZM25.5647 28.0963V36.9012H26.4428V28.0963H25.5647ZM24.9062 27.4378C25.2699 27.4378 25.5647 27.7326 25.5647 28.0963H26.4428C26.4428 27.2477 25.7548 26.5598 24.9062 26.5598V27.4378ZM4.10131 27.4378H24.9062V26.5598H4.10131V27.4378Z" fill="#293044"/>
<circle cx="7.75336" cy="32.7042" r="1.26642" fill="#568DF4"/>
<circle cx="14.2443" cy="32.7042" r="1.26642" fill="#568DF4"/>
<circle cx="20.7278" cy="32.7042" r="1.26642" fill="#568DF4"/>
<circle cx="29.4712" cy="9.53259" r="7.46667" fill="#293044"/>
<circle cx="30.537" cy="8.46496" r="7.86667" fill="#F6F7FA" stroke="#293044" stroke-width="0.8"/>
<path fill-rule="evenodd" clip-rule="evenodd" d="M30.5382 15.9319C34.6619 15.9319 38.0049 12.5889 38.0049 8.4652C38.0049 4.34148 34.6619 0.998535 30.5382 0.998535C26.4145 0.998535 23.0715 4.34148 23.0715 8.4652C23.0715 12.5889 26.4145 15.9319 30.5382 15.9319ZM27.418 7.40797L29.6295 9.61945L33.7698 5.47911L35.1336 6.84282L29.6295 12.3469L26.0543 8.77176L27.418 7.40797Z" fill="#568DF4"/>
</svg>
