<svg width="60" height="60" viewBox="0 0 60 60" fill="none" xmlns="http://www.w3.org/2000/svg">
<rect width="60" height="60" rx="30" fill="#E9EBFF"/>
<mask id="mask0_1979_29413" style="mask-type:alpha" maskUnits="userSpaceOnUse" x="0" y="0" width="60" height="60">
<circle cx="30" cy="30" r="30" fill="white"/>
</mask>
<g mask="url(#mask0_1979_29413)">
<path d="M16.9758 8.06182L18 -0.5C17.6332 -1.15714 14.5734 1.5777 13.4261 2.33997C13.4261 2.33997 11.0239 8.64436 12.5529 10.0321C14.0818 11.4198 23.1546 17.5435 29.8335 18.206C30.4044 18.3105 30.8819 17.9852 31.3339 17.5794C31.8356 17.5698 32.0927 17.1222 32.0484 16.7991C32.5902 16.5149 32.6233 15.9388 32.6311 15.5439C32.6485 14.6619 31.3392 14.0357 30.3812 13.7377C31.2545 11.228 29.1047 9.71767 29.1848 10.6538C29.3498 12.5825 28.4347 13.3851 28.4347 13.3851C28.4347 13.3851 26.9588 13.5873 23.0971 11.9147C19.2353 10.2422 16.9758 8.06182 16.9758 8.06182Z" fill="#BF7657" stroke="black" stroke-width="0.490398" stroke-linecap="round" stroke-linejoin="round"/>
<path d="M37.6455 8.04707L37.6455 8.04709L37.6429 8.04685C35.6592 7.85894 32.6423 7.78794 30.0203 8.17959C28.7084 8.37555 27.5087 8.68547 26.5892 9.146C25.6775 9.60264 25.0708 10.1916 24.8705 10.9367L27.416 16.2246C27.9867 15.3609 29.2693 14.8551 31.2127 14.9205C33.1935 14.9872 35.9182 15.6462 39.442 17.1961C39.5942 17.244 39.7573 17.3274 39.898 17.3993C39.9365 17.419 39.9733 17.4379 40.0078 17.4549C40.0964 17.4986 40.1741 17.5334 40.2431 17.5556C40.3131 17.5781 40.3598 17.5826 40.3896 17.579C40.4122 17.5763 40.4289 17.569 40.4482 17.547C40.4722 17.5196 40.5057 17.462 40.5331 17.3466C40.5882 17.1147 40.604 16.7172 40.5452 16.0663C40.3743 15.3468 40.1675 14.8833 39.9557 14.5684C39.7448 14.2548 39.5225 14.0792 39.3046 13.9433C39.2241 13.8931 39.1471 13.85 39.0676 13.8054C39.035 13.7872 39.0019 13.7686 38.9681 13.7493C38.8558 13.6853 38.7395 13.6149 38.6306 13.5267C38.4042 13.3432 38.2257 13.0956 38.1216 12.6903C37.898 12.1522 38.0796 11.724 38.2833 11.3974C38.3335 11.3167 38.3865 11.2401 38.4348 11.1702L38.438 11.1655C38.4862 11.096 38.5291 11.034 38.5662 10.9744C38.6416 10.8534 38.6725 10.7731 38.6752 10.7129C38.6562 10.6234 38.6365 10.526 38.6156 10.423C38.5285 9.99364 38.4216 9.46673 38.2725 9.00508C38.1795 8.71723 38.0748 8.47061 37.9576 8.29634C37.8376 8.11796 37.7316 8.05418 37.6455 8.04707Z" fill="#F0F0F1" stroke="black" stroke-width="0.422588"/>
<path d="M37.0335 8.88801L37.0335 8.88802L37.0311 8.88773C34.9321 8.63984 31.7193 8.47766 28.8845 8.79089C27.4663 8.94759 26.1548 9.22205 25.1276 9.65716C24.1069 10.0895 23.4005 10.6657 23.1179 11.4089L25.7818 18.7963C27.0431 16.9158 30.8603 14.7873 38.0739 18.0913C38.2311 18.1434 38.3966 18.2314 38.5402 18.3076C38.5793 18.3284 38.6168 18.3484 38.652 18.3664C38.8441 18.4651 38.9712 18.5109 39.0584 18.5038C39.0909 18.5012 39.1173 18.491 39.145 18.465C39.1765 18.4355 39.2178 18.3772 39.2573 18.2644C39.3377 18.0355 39.3914 17.6394 39.3885 16.9852C39.2721 16.26 39.094 15.7924 38.898 15.4739C38.7038 15.1583 38.4849 14.9776 38.2652 14.8354C38.1845 14.7831 38.1068 14.7379 38.0266 14.6913C37.9932 14.6719 37.9594 14.6522 37.9247 14.6316C37.8112 14.5643 37.6937 14.4904 37.5855 14.3987C37.3596 14.2071 37.1897 13.951 37.115 13.5387C36.9238 12.9856 37.1614 12.5611 37.404 12.2463C37.4646 12.1676 37.5277 12.093 37.5857 12.0246L37.59 12.0194C37.6474 11.9516 37.6989 11.8908 37.7442 11.8321C37.8366 11.7122 37.8771 11.6321 37.8858 11.5734C37.8739 11.4836 37.8619 11.3861 37.8491 11.2831C37.7956 10.8509 37.7302 10.3218 37.6138 9.85671C37.5412 9.56692 37.4528 9.31953 37.3453 9.14424C37.2371 8.96769 37.1318 8.89847 37.0335 8.88801Z" fill="#F0F0F1" stroke="black" stroke-width="0.422588"/>
<path d="M25.3543 18.0883C25.5873 18.5578 25.788 18.8968 25.9648 19.135C26.1446 19.3773 26.2895 19.5012 26.4047 19.5584C26.51 19.6107 26.5996 19.6121 26.6955 19.581C26.794 19.5492 26.9024 19.4819 27.0335 19.3792L24.258 11.4384C24.0019 11.6197 23.8009 11.7317 23.6191 11.7737C23.4593 11.8105 23.3272 11.7909 23.2062 11.7465L25.3543 18.0883Z" fill="#C9CCCF" stroke="black" stroke-width="0.422588"/>
<line y1="-0.12074" x2="6.43256" y2="-0.12074" transform="matrix(0.210785 0.977535 -0.977529 0.210787 33.5273 9.93506)" stroke="black" stroke-width="0.241479" stroke-dasharray="0.62 0.62"/>
<g opacity="0.5" clip-path="url(#clip0_1979_29413)">
<path d="M27.4612 13.4308C27.4707 13.4572 27.4854 13.4814 27.5044 13.502C27.5234 13.5227 27.5462 13.5394 27.5717 13.5511L27.9991 13.7497L28.041 14.2176C28.0461 14.2741 28.0733 14.3262 28.1168 14.3625C28.1603 14.3988 28.2164 14.4164 28.2729 14.4114L28.7408 14.3695L29.0121 14.7549C29.0338 14.7854 29.0631 14.8097 29.0971 14.8255C29.1311 14.8413 29.1686 14.8479 29.2059 14.8448C29.2429 14.8415 29.2788 14.8284 29.3099 14.8065L29.6949 14.5355L30.1224 14.734C30.1738 14.7578 30.2325 14.7603 30.2857 14.7408C30.3389 14.7214 30.3822 14.6817 30.4061 14.6303L30.6044 14.2029L31.0724 14.161C31.1288 14.156 31.1809 14.1287 31.2172 14.0852C31.2536 14.0418 31.2711 13.9856 31.2661 13.9292L31.2242 13.4613L31.6096 13.19C31.6326 13.1738 31.6521 13.1533 31.6671 13.1296C31.6822 13.1059 31.6924 13.0794 31.6972 13.0518C31.702 13.0241 31.7013 12.9958 31.6951 12.9684C31.6889 12.941 31.6774 12.9151 31.6613 12.8921L31.3902 12.5069L31.5888 12.0799C31.6126 12.0285 31.6151 11.9698 31.5957 11.9166C31.5762 11.8634 31.5364 11.8201 31.4851 11.7962L31.0576 11.5976L31.0157 11.1295C31.0107 11.0731 30.9834 11.021 30.9399 10.9846C30.8965 10.9483 30.8403 10.9307 30.7839 10.9358L30.316 10.9776L30.0449 10.5924C30.0122 10.5462 29.9626 10.5147 29.9069 10.5048C29.8792 10.4999 29.8509 10.5006 29.8235 10.5067C29.7961 10.5128 29.7702 10.5243 29.7473 10.5406L29.3616 10.8117L28.9344 10.6131C28.883 10.5892 28.8242 10.5868 28.771 10.6062C28.7178 10.6256 28.6745 10.6654 28.6506 10.7168L28.4521 11.1442L27.9842 11.1861C27.9277 11.1912 27.8756 11.2184 27.8393 11.2619C27.803 11.3054 27.7854 11.3615 27.7904 11.4179L27.8323 11.8859L27.4469 12.1572C27.4006 12.1899 27.3692 12.2397 27.3595 12.2955C27.3499 12.3514 27.3627 12.4088 27.3953 12.4552L27.6666 12.8402L27.468 13.2672C27.4443 13.3187 27.4418 13.3775 27.4612 13.4308ZM29.5473 12.8864C28.8068 12.9526 28.6604 12.5627 28.639 12.3242C28.6145 12.0503 28.8088 11.7549 29.2219 11.6468L29.2014 11.4184L29.627 11.3803L29.6481 11.6163C30.0249 11.6705 30.1941 11.9649 30.2137 12.1832L30.0009 12.2023L29.7884 12.2252C29.7782 12.1446 29.7233 12.0126 29.4711 12.0352C29.1947 12.0599 29.0554 12.1829 29.0646 12.2861C29.0717 12.3657 29.0836 12.4989 29.5092 12.4608C30.2497 12.3945 30.3962 12.7844 30.4175 13.023C30.442 13.2968 30.2478 13.5922 29.8347 13.7004L29.8553 13.9313L29.4297 13.9694L29.4092 13.7395C28.9045 13.706 28.7327 13.3705 28.7152 13.1753L29.1408 13.1372C29.1458 13.1675 29.1937 13.347 29.5854 13.3119C29.8791 13.2857 29.9998 13.1494 29.9919 13.0611C29.9857 12.9919 29.9729 12.8483 29.5473 12.8864Z" fill="#ABADB2"/>
</g>
<path d="M29.7309 14.2347C29.5896 14.7815 30.8113 15.2915 31.7084 15.5233C32.6055 15.755 32.8756 15.4766 32.9796 15.0739C33.0836 14.6712 32.9822 14.2967 32.0851 14.065C31.188 13.8333 29.8722 13.6878 29.7309 14.2347Z" fill="#BF7657" stroke="black" stroke-width="0.490398" stroke-linecap="round" stroke-linejoin="round"/>
<path d="M29.4262 15.5902C29.285 16.137 30.5066 16.647 31.4037 16.8787C32.3008 17.1105 32.5709 16.832 32.6749 16.4293C32.779 16.0266 32.6775 15.6522 31.7804 15.4205C30.8833 15.1887 29.5675 15.0433 29.4262 15.5902Z" fill="#BF7657" stroke="black" stroke-width="0.490398" stroke-linecap="round" stroke-linejoin="round"/>
<path d="M28.9106 16.8013C28.7693 17.3482 29.991 17.8582 30.8881 18.0899C31.7852 18.3217 32.0553 18.0432 32.1593 17.6405C32.2633 17.2378 32.1619 16.8634 31.2647 16.6317C30.3676 16.3999 29.0518 16.2545 28.9106 16.8013Z" fill="#BF7657" stroke="black" stroke-width="0.490398" stroke-linecap="round" stroke-linejoin="round"/>
<path d="M47.2428 56.6611C47.2428 56.6611 52.224 57.2751 52.8396 57.2196C53.4551 57.1641 54.4028 61.2691 55.6991 63.9192C55.6991 63.9192 48.0569 63.0384 45.8288 62.2072C43.6008 61.376 34.2749 55.349 30.0673 48.8646C29.6587 48.3356 26.9836 45.1321 27.9592 44.3138C27.2904 43.3274 28.4779 42.5026 28.6527 42.7967C28.2814 42.1713 29.1072 41.6399 29.5772 42.1622C32.4003 45.2996 33.4606 45.5649 34.3503 45.9429C35.4461 43.3639 38.2174 44.6726 37.2171 45.0853C35.1563 45.9358 35.7398 47.7484 35.7398 47.7484C35.7398 47.7484 36.3129 49.3654 40.0652 52.4333C43.8175 55.5012 47.2428 56.6611 47.2428 56.6611Z" fill="#F5B896"/>
<path d="M28.6527 42.7967C28.2814 42.1713 29.1072 41.6399 29.5772 42.1622C32.4003 45.2996 33.4606 45.5649 34.3503 45.9429C35.4461 43.3639 38.2174 44.6726 37.2171 45.0853C35.1563 45.9358 35.7398 47.7484 35.7398 47.7484C35.7398 47.7484 36.3129 49.3654 40.0652 52.4333C43.8175 55.5012 47.2428 56.6611 47.2428 56.6611C47.2428 56.6611 52.224 57.2751 52.8396 57.2196C53.4551 57.1641 54.4028 61.2691 55.6991 63.9192C55.6991 63.9192 48.0569 63.0384 45.8288 62.2072C43.6008 61.376 34.2749 55.349 30.0673 48.8646C29.6587 48.3356 26.9836 45.1321 27.9592 44.3138M28.6527 42.7967C28.4779 42.5026 27.2904 43.3274 27.9592 44.3138M28.6527 42.7967C29.225 43.7606 30.7655 45.8202 32.3492 46.3466M27.9592 44.3138C28.628 45.3001 30.2538 47.3462 31.406 47.64" stroke="black" stroke-width="0.564793" stroke-linecap="round" stroke-linejoin="round"/>
<path fill-rule="evenodd" clip-rule="evenodd" d="M32.4886 44.7776C31.7009 43.579 28.202 46.1286 25.0526 49.1013C24.6201 48.7049 24.245 48.3581 23.9782 48.109C23.7499 47.8959 23.3986 47.8767 23.1612 48.0796C20.6112 50.2592 17.4394 54.4702 15.4735 57.0802C14.8295 57.9352 14.3149 58.6184 13.994 59.0021C12.6923 60.5582 13.9797 61.3165 15.3587 62.1287C15.7744 62.3735 16.1983 62.6233 16.5622 62.9012C17.447 63.5771 18.3257 64.2682 19.1944 64.9517L19.1945 64.9517L19.1945 64.9518C20.7596 66.183 22.2927 67.389 23.7722 68.4347C24.2723 68.7881 24.7252 69.1462 25.1367 69.4716C26.6185 70.6434 27.5636 71.3908 28.2423 69.9651C28.4474 69.5342 29.1106 68.4893 29.9854 67.1111C31.9096 64.0795 34.8572 59.4356 36.2032 56.1681C36.3618 55.7831 36.0816 55.3538 35.6733 55.2723C35.1535 55.1685 34.5081 55.0001 33.8173 54.7864C33.835 54.7341 33.8524 54.6858 33.8687 54.6405C33.9881 54.3096 34.0496 54.1394 33.7391 53.7263C33.5028 53.4118 33.3664 53.2559 33.2223 53.0912C33.0618 52.9077 32.8918 52.7135 32.5638 52.2773C32.428 53.0783 32.2469 53.6972 32.0646 54.1776C30.7936 53.6858 29.5886 53.1001 28.9085 52.5312C28.4072 52.1119 27.7394 51.5259 27.0459 50.9062C28.0279 50.0254 28.7099 49.2957 29.2994 48.665C30.5286 47.3498 31.3559 46.4647 33.6631 45.5364C33.7815 45.5866 33.6213 45.4932 33.3844 45.3551C33.0447 45.1571 32.5475 44.8673 32.4886 44.7776Z" fill="#FFF7EE"/>
<path d="M25.0526 49.1013L25.2869 49.3495L25.0561 49.5673L24.8221 49.3529L25.0526 49.1013ZM32.4886 44.7776L32.7738 44.5902L32.7738 44.5902L32.4886 44.7776ZM23.9782 48.109L23.7453 48.3584L23.9782 48.109ZM23.1612 48.0796L22.9395 47.8202L22.9395 47.8202L23.1612 48.0796ZM15.4735 57.0802L15.7461 57.2855L15.4735 57.0802ZM13.994 59.0021L13.7322 58.7831L13.994 59.0021ZM15.3587 62.1287L15.1855 62.4228L15.3587 62.1287ZM16.5622 62.9012L16.3551 63.1724L16.5622 62.9012ZM19.1944 64.9517L19.4054 64.6834L19.4088 64.6862L19.1944 64.9517ZM19.1945 64.9517L19.4089 64.6862L19.4134 64.69L19.1945 64.9517ZM19.1945 64.9518L18.9834 65.2201L18.9756 65.2135L19.1945 64.9518ZM23.7722 68.4347L23.5753 68.7134L23.7722 68.4347ZM25.1367 69.4716L24.925 69.7393L24.925 69.7393L25.1367 69.4716ZM28.2423 69.9651L28.5504 70.1118L28.2423 69.9651ZM29.9854 67.1111L29.6973 66.9282L29.9854 67.1111ZM36.2032 56.1681L35.8876 56.0381L36.2032 56.1681ZM35.6733 55.2723L35.7401 54.9376L35.6733 55.2723ZM33.8173 54.7864L33.7164 55.1124L33.3817 55.0089L33.494 54.677L33.8173 54.7864ZM33.8687 54.6405L33.5477 54.5247L33.5477 54.5247L33.8687 54.6405ZM33.7391 53.7263L34.0119 53.5213L34.0119 53.5213L33.7391 53.7263ZM33.2223 53.0912L33.4791 52.8665L33.4791 52.8665L33.2223 53.0912ZM32.5638 52.2773L32.2274 52.2202L32.36 51.4383L32.8366 52.0722L32.5638 52.2773ZM32.0646 54.1776L32.3837 54.2987L32.2618 54.6198L31.9415 54.4959L32.0646 54.1776ZM28.9085 52.5312L28.6895 52.7929L28.9085 52.5312ZM27.0459 50.9062L26.8185 51.1607L26.5342 50.9067L26.818 50.6522L27.0459 50.9062ZM29.2994 48.665L29.5487 48.898L29.2994 48.665ZM33.6631 45.5364L33.5357 45.2198L33.6666 45.1671L33.7964 45.2222L33.6631 45.5364ZM33.3844 45.3551L33.5562 45.0603L33.3844 45.3551ZM24.8184 48.8531C26.3999 47.3603 28.0805 45.9626 29.4746 45.0863C30.1678 44.6505 30.8151 44.3276 31.3578 44.1976C31.89 44.0701 32.4549 44.1049 32.7738 44.5902L32.2034 44.965C32.1284 44.8509 31.9606 44.755 31.5168 44.8613C31.0835 44.9651 30.5115 45.2406 29.8378 45.6641C28.4982 46.5061 26.8547 47.8695 25.2869 49.3495L24.8184 48.8531ZM24.2111 47.8596C24.4769 48.1078 24.8512 48.4538 25.2832 48.8497L24.8221 49.3529C24.389 48.956 24.013 48.6085 23.7453 48.3584L24.2111 47.8596ZM22.9395 47.8202C23.3179 47.4967 23.8648 47.5362 24.2111 47.8596L23.7453 48.3584C23.6351 48.2556 23.4793 48.2566 23.3829 48.339L22.9395 47.8202ZM15.2009 56.8749C17.1579 54.2768 20.3546 50.0297 22.9395 47.8202L23.3829 48.339C20.8679 50.4887 17.7209 54.6637 15.7461 57.2855L15.2009 56.8749ZM13.7322 58.7831C14.046 58.4079 14.5538 57.7339 15.2009 56.8749L15.7461 57.2855C15.1051 58.1365 14.5837 58.8289 14.2557 59.221L13.7322 58.7831ZM15.1855 62.4228C14.8438 62.2215 14.4913 62.0141 14.1827 61.7943C13.8754 61.5754 13.5882 61.3282 13.3893 61.0368C13.1844 60.7366 13.072 60.3872 13.126 59.9873C13.1784 59.5981 13.3831 59.2004 13.7322 58.7831L14.2557 59.221C13.954 59.5817 13.8315 59.8624 13.8023 60.0785C13.7747 60.2838 13.8263 60.4665 13.9529 60.6519C14.0855 60.8461 14.2974 61.0381 14.5787 61.2384C14.8586 61.4378 15.1842 61.6299 15.5319 61.8347L15.1855 62.4228ZM16.3551 63.1724C16.0104 62.9092 15.605 62.6698 15.1855 62.4228L15.5319 61.8347C15.9437 62.0773 16.3862 62.3374 16.7694 62.63L16.3551 63.1724ZM18.9834 65.2199C18.1143 64.5362 17.2376 63.8465 16.3551 63.1724L16.7694 62.63C17.6564 63.3076 18.537 64.0003 19.4054 64.6834L18.9834 65.2199ZM18.98 65.2172L18.9799 65.2171L19.4088 64.6862L19.4089 64.6863L18.98 65.2172ZM18.9756 65.2135L18.9755 65.2135L19.4134 64.69L19.4135 64.69L18.9756 65.2135ZM23.5753 68.7134C22.0872 67.6617 20.5471 66.45 18.9835 65.22L19.4055 64.6836C20.9722 65.916 22.4981 67.1163 23.9692 68.156L23.5753 68.7134ZM24.925 69.7393C24.5128 69.4133 24.0668 69.0607 23.5753 68.7134L23.9692 68.156C24.4778 68.5155 24.9376 68.8791 25.3483 69.2039L24.925 69.7393ZM28.5504 70.1118C28.3657 70.4998 28.1387 70.7936 27.8415 70.9544C27.5321 71.1218 27.2043 71.1148 26.8907 71.0187C26.5865 70.9255 26.2735 70.7426 25.9576 70.5243C25.6391 70.3042 25.2929 70.0303 24.925 69.7393L25.3483 69.2039C25.7213 69.4989 26.0489 69.7578 26.3457 69.9628C26.645 70.1697 26.8885 70.3042 27.0906 70.3661C27.2834 70.4252 27.4118 70.4109 27.5167 70.3541C27.6339 70.2907 27.7795 70.1433 27.9341 69.8185L28.5504 70.1118ZM30.2735 67.2939C29.3898 68.6863 28.7439 69.7053 28.5504 70.1118L27.9341 69.8185C28.1509 69.3631 28.8315 68.2922 29.6973 66.9282L30.2735 67.2939ZM36.5187 56.298C35.1587 59.5996 32.1913 64.2724 30.2735 67.2939L29.6973 66.9282C31.6279 63.8866 34.5557 59.2715 35.8876 56.0381L36.5187 56.298ZM35.7401 54.9376C36.318 55.053 36.7743 55.6774 36.5187 56.298L35.8876 56.0381C35.9492 55.8887 35.8452 55.6546 35.6065 55.6069L35.7401 54.9376ZM33.9181 54.4604C34.6011 54.6717 35.2348 54.8368 35.7401 54.9376L35.6065 55.6069C35.0722 55.5003 34.415 55.3285 33.7164 55.1124L33.9181 54.4604ZM34.1897 54.7564C34.1733 54.802 34.157 54.8472 34.1405 54.8958L33.494 54.677C33.513 54.621 33.5315 54.5697 33.5477 54.5247L34.1897 54.7564ZM34.0119 53.5213C34.1838 53.7499 34.2911 53.9603 34.3057 54.1928C34.3195 54.4123 34.2435 54.6074 34.1897 54.7564L33.5477 54.5247C33.6134 54.3428 33.6278 54.2873 33.6246 54.2356C33.6221 54.197 33.605 54.1158 33.4663 53.9313L34.0119 53.5213ZM33.4791 52.8665C33.6259 53.0342 33.7685 53.1973 34.0119 53.5213L33.4663 53.9313C33.2372 53.6264 33.1069 53.4775 32.9655 53.3159L33.4791 52.8665ZM32.8366 52.0722C33.158 52.4996 33.3222 52.6871 33.4791 52.8665L32.9655 53.3159C32.8014 53.1283 32.6257 52.9273 32.2911 52.4823L32.8366 52.0722ZM31.7456 54.0566C31.9197 53.5976 32.0951 53.0001 32.2274 52.2202L32.9003 52.3343C32.7608 53.1564 32.5741 53.7969 32.3837 54.2987L31.7456 54.0566ZM29.1274 52.2694C29.7616 52.7999 30.9211 53.3692 32.1878 53.8594L31.9415 54.4959C30.666 54.0023 29.4156 53.4003 28.6895 52.7929L29.1274 52.2694ZM27.2732 50.6518C27.9661 51.2708 28.6305 51.8538 29.1274 52.2694L28.6895 52.7929C28.1839 52.37 27.5128 51.781 26.8185 51.1607L27.2732 50.6518ZM29.5487 48.898C28.9584 49.5297 28.2677 50.2687 27.2737 51.1603L26.818 50.6522C27.7881 49.7821 28.4614 49.0618 29.0501 48.432L29.5487 48.898ZM33.7905 45.853C32.6601 46.3078 31.9052 46.7466 31.2857 47.2256C30.6622 47.7078 30.1662 48.2374 29.5487 48.898L29.0501 48.432C29.6618 47.7775 30.1941 47.2069 30.8683 46.6857C31.5465 46.1612 32.3588 45.6933 33.5357 45.2198L33.7905 45.853ZM33.5562 45.0603C33.6719 45.1277 33.7773 45.1891 33.838 45.2271C33.8533 45.2366 33.8702 45.2475 33.8853 45.2581C33.8924 45.2631 33.904 45.2714 33.9165 45.2817C33.9226 45.2868 33.933 45.2957 33.9447 45.3076C33.9523 45.3153 33.9799 45.3434 34.0033 45.3869C34.0152 45.409 34.1073 45.5872 33.9714 45.7604C33.9133 45.8345 33.8412 45.8648 33.7997 45.8771C33.7578 45.8896 33.7227 45.8912 33.704 45.8914C33.6442 45.8918 33.596 45.8753 33.595 45.875C33.57 45.8673 33.5453 45.8571 33.5298 45.8505L33.7964 45.2222C33.8105 45.2282 33.8067 45.226 33.7947 45.2223C33.7907 45.2211 33.7821 45.2186 33.7705 45.2161C33.7624 45.2144 33.7352 45.2086 33.6993 45.2089C33.6813 45.209 33.6467 45.2106 33.6052 45.2229C33.5642 45.2351 33.4924 45.2652 33.4344 45.3391C33.299 45.5118 33.391 45.6893 33.4023 45.7104C33.4253 45.753 33.4519 45.7798 33.4581 45.7861C33.4683 45.7966 33.4769 45.8038 33.4808 45.8071C33.4853 45.8108 33.4888 45.8134 33.4904 45.8147C33.4922 45.816 33.4934 45.8168 33.4936 45.817C33.4938 45.8172 33.4926 45.8163 33.4892 45.8141C33.4859 45.8119 33.4816 45.8092 33.476 45.8057C33.4269 45.7749 33.3337 45.7206 33.2125 45.6499L33.5562 45.0603ZM32.7738 44.5902C32.7526 44.558 32.7345 44.546 32.7509 44.5599C32.7606 44.5681 32.7776 44.5813 32.8036 44.5999C32.8553 44.6367 32.9267 44.6832 33.0116 44.7361C33.1807 44.8414 33.3854 44.9607 33.5562 45.0603L33.2125 45.6499C33.0437 45.5516 32.83 45.427 32.6508 45.3155C32.5616 45.2599 32.4764 45.2047 32.4077 45.1558C32.3735 45.1315 32.3393 45.1058 32.3092 45.0802C32.2858 45.0603 32.2393 45.0196 32.2034 44.965L32.7738 44.5902Z" fill="black"/>
<path d="M32.1288 53.0889C30.1473 51.3073 29.5791 50.8595 28.1105 50.098" stroke="black" stroke-width="0.762794" stroke-linecap="round" stroke-linejoin="round"/>
<path d="M33.8594 56.5154C32.2419 59.5938 28.7417 65.65 27.6047 66.6513" stroke="black" stroke-width="0.762794" stroke-linecap="round" stroke-linejoin="round"/>
<g clip-path="url(#clip1_1979_29413)">
<path d="M20.838 55.4219C20.838 55.4219 20.7178 55.4512 20.7027 55.611C20.7027 55.611 20.7575 55.5706 20.8689 55.6676L21.0027 55.7841C21.129 55.894 21.3288 55.8558 21.3777 55.6795C21.3777 55.6795 21.4588 55.7664 21.5371 55.7366C21.6153 55.7067 21.6031 55.657 21.5586 55.6182L21.3338 55.4225C21.299 55.4625 21.218 55.4017 21.2577 55.3562L21.1313 55.2462C21.1313 55.2462 21.0366 55.1638 20.9652 55.2421C20.9652 55.2421 20.9979 55.2477 21.0208 55.2644L21.0023 55.2857C21.0023 55.2857 20.9722 55.2677 20.9544 55.2637C20.9368 55.2597 20.9037 55.262 20.8808 55.3221C20.8579 55.3821 20.8507 55.4036 20.8507 55.4036C20.8507 55.4036 20.898 55.4038 20.9416 55.4418L20.9927 55.4863C21.0837 55.5655 20.9902 55.6392 20.8992 55.5599C20.8082 55.4807 20.8381 55.422 20.8381 55.422L20.838 55.4219Z" fill="#DB0000"/>
<path d="M21.3896 55.743C21.3896 55.743 21.4186 55.7716 21.4578 55.7715C21.4578 55.7715 21.5227 56.104 20.9488 56.1594C20.3748 56.2148 20.4282 56.6205 20.4282 56.6205C20.4282 56.6205 20.3291 56.6256 20.2715 56.7535C20.2715 56.7535 20.2083 56.575 20.217 56.3729C20.2295 56.0808 20.375 55.7439 20.9358 55.8623C20.9358 55.8623 21.2941 55.9538 21.3895 55.743L21.3896 55.743Z" fill="#DB0000"/>
<path d="M21.2419 55.2925C21.2419 55.2925 21.3446 55.2557 21.4381 55.3371C21.5118 55.4012 21.5615 55.378 21.5615 55.378C21.5615 55.378 21.647 55.3447 21.8092 55.486C21.9579 55.6154 22.015 55.7522 22.0385 55.889C22.0385 55.889 21.9379 55.5631 21.5564 55.5663L21.2419 55.2925Z" fill="#DB0000"/>
<path d="M21.7566 56.538C21.9456 56.3085 21.9813 55.9173 21.5967 55.6065C22.2292 55.615 22.2615 56.8533 21.4264 56.7622C21.4264 56.7622 21.6215 56.7139 21.7566 56.5381L21.7566 56.538Z" fill="#DB0000"/>
<path d="M21.6287 55.6799C22.0951 56.062 21.783 56.7481 21.276 56.7378L20.8573 56.6237C20.8573 56.6237 20.9267 56.4665 21.1953 56.4455C21.4638 56.4247 21.8373 56.273 21.5988 55.752C21.5988 55.752 21.6386 55.7213 21.6288 55.6801L21.6287 55.6799Z" fill="#DB0000"/>
<path d="M21.5 55.7821C21.5 55.7821 21.5407 55.7804 21.5632 55.7696C21.7784 56.205 21.5171 56.3978 21.1405 56.4226C20.9057 56.4424 20.8244 56.6133 20.8244 56.6133C20.8244 56.6133 20.5915 56.5759 20.4682 56.6123C20.4682 56.6123 20.4116 56.2357 20.9836 56.1903C21.5449 56.1456 21.5 55.7821 21.5 55.7821L21.5 55.7821Z" fill="#DB0000"/>
</g>
<g clip-path="url(#clip2_1979_29413)">
<path d="M24.2156 57.8602C24.2156 57.8602 24.1022 57.9096 24.1148 58.0697C24.1148 58.0697 24.1618 58.0205 24.2882 58.0969L24.44 58.1887C24.5833 58.2754 24.7735 58.2034 24.7915 58.0214C24.7915 58.0214 24.8863 58.0931 24.9583 58.0503C25.0302 58.0075 25.0097 57.9605 24.9592 57.9299L24.7042 57.7757C24.6767 57.8211 24.5866 57.7751 24.6178 57.7235L24.4745 57.6368C24.4745 57.6368 24.367 57.5718 24.3101 57.6612C24.3101 57.6612 24.3433 57.6611 24.3687 57.6736L24.3541 57.6978C24.3541 57.6978 24.3214 57.6852 24.3032 57.6844C24.2851 57.6834 24.253 57.6914 24.2407 57.7545C24.2285 57.8176 24.225 57.8399 24.225 57.8399C24.225 57.8399 24.2716 57.832 24.3211 57.862L24.3791 57.8971C24.4823 57.9595 24.4028 58.0481 24.2996 57.9857C24.1963 57.9232 24.2158 57.8602 24.2158 57.8602L24.2156 57.8602Z" fill="#DB0000"/>
<path d="M24.8156 58.0817C24.8156 58.0817 24.8491 58.1048 24.8877 58.098C24.8877 58.098 25.0086 58.4144 24.4527 58.5674C23.8967 58.7204 24.0189 59.111 24.0189 59.111C24.0189 59.111 23.9221 59.133 23.8874 59.2689C23.8874 59.2689 23.7944 59.1039 23.7683 58.9033C23.7306 58.6134 23.8162 58.2565 24.3889 58.277C24.3889 58.277 24.7577 58.3057 24.8155 58.0816L24.8156 58.0817Z" fill="#DB0000"/>
<path d="M24.5937 57.6625C24.5937 57.6625 24.6886 57.6086 24.7947 57.6728C24.8783 57.7233 24.9233 57.692 24.9233 57.692C24.9233 57.692 25.0018 57.6445 25.1858 57.7558C25.3545 57.8579 25.4342 57.9828 25.4808 58.1136C25.4808 58.1136 25.3258 57.8098 24.9505 57.8783L24.5937 57.6625Z" fill="#DB0000"/>
<path d="M25.315 58.8014C25.4618 58.5429 25.4299 58.1514 24.9977 57.9111C25.6223 57.8111 25.8665 59.0255 25.0281 59.0789C25.0281 59.0789 25.212 58.9979 25.315 58.8015L25.315 58.8014Z" fill="#DB0000"/>
<path d="M25.0428 57.9784C25.5678 58.2747 25.378 59.0042 24.8767 59.081L24.4446 59.0404C24.4446 59.0404 24.4861 58.8736 24.7471 58.8069C25.0081 58.7403 25.3501 58.5269 25.0257 58.0544C25.0257 58.0544 25.0596 58.0174 25.0429 57.9785L25.0428 57.9784Z" fill="#DB0000"/>
<path d="M24.9316 58.1006C24.9316 58.1006 24.9714 58.0921 24.9917 58.0775C25.2784 58.4696 25.054 58.7043 24.6873 58.7934C24.4593 58.8531 24.4085 59.0354 24.4085 59.0354C24.4085 59.0354 24.1726 59.0385 24.0575 59.0956C24.0575 59.0956 23.9371 58.7342 24.4929 58.5914C25.0382 58.4511 24.9316 58.1007 24.9316 58.1007L24.9316 58.1006Z" fill="#DB0000"/>
</g>
<g clip-path="url(#clip3_1979_29413)">
<path d="M24.2312 53.1783C24.2312 53.1783 24.1179 53.2277 24.1304 53.3878C24.1304 53.3878 24.1774 53.3385 24.3038 53.415L24.4556 53.5068C24.5989 53.5935 24.7892 53.5215 24.8072 53.3395C24.8072 53.3395 24.9019 53.4112 24.974 53.3684C25.0459 53.3256 25.0254 53.2786 24.9748 53.248L24.7198 53.0938C24.6924 53.1391 24.6022 53.0932 24.6334 53.0416L24.4901 52.9549C24.4901 52.9549 24.3826 52.8899 24.3257 52.9792C24.3257 52.9792 24.3589 52.9792 24.3843 52.9917L24.3697 53.0159C24.3697 53.0159 24.337 53.0033 24.3188 53.0024C24.3007 53.0015 24.2686 53.0094 24.2563 53.0726C24.2441 53.1356 24.2407 53.158 24.2407 53.158C24.2407 53.158 24.2872 53.1501 24.3368 53.1801L24.3947 53.2151C24.4979 53.2775 24.4184 53.3662 24.3152 53.3037C24.2119 53.2413 24.2314 53.1783 24.2314 53.1783L24.2312 53.1783Z" fill="#DB0000"/>
<path d="M24.8351 53.4002C24.8351 53.4002 24.8686 53.4234 24.9072 53.4166C24.9072 53.4166 25.0282 53.7329 24.4723 53.886C23.9163 54.039 24.0384 54.4296 24.0384 54.4296C24.0384 54.4296 23.9417 54.4516 23.9069 54.5875C23.9069 54.5875 23.814 54.4224 23.7879 54.2218C23.7501 53.9319 23.8357 53.5751 24.4085 53.5955C24.4085 53.5955 24.7772 53.6243 24.835 53.4002L24.8351 53.4002Z" fill="#DB0000"/>
<path d="M24.6093 52.9807C24.6093 52.9807 24.7043 52.9269 24.8103 52.991C24.8939 53.0416 24.9389 53.0102 24.9389 53.0102C24.9389 53.0102 25.0174 52.9627 25.2015 53.0741C25.3702 53.1761 25.4498 53.3011 25.4964 53.4318C25.4964 53.4318 25.3414 53.128 24.9661 53.1966L24.6093 52.9807Z" fill="#DB0000"/>
<path d="M25.3267 54.1195C25.4735 53.8609 25.4416 53.4694 25.0094 53.2292C25.634 53.1292 25.8782 54.3436 25.0399 54.397C25.0399 54.397 25.2238 54.3159 25.3267 54.1196L25.3267 54.1195Z" fill="#DB0000"/>
<path d="M25.0584 53.2959C25.5834 53.5923 25.3936 54.3218 24.8924 54.3986L24.4603 54.358C24.4603 54.358 24.5017 54.1912 24.7627 54.1245C25.0237 54.0579 25.3657 53.8445 25.0414 53.372C25.0414 53.372 25.0753 53.335 25.0585 53.2961L25.0584 53.2959Z" fill="#DB0000"/>
<path d="M24.9473 53.4188C24.9473 53.4188 24.987 53.4102 25.0074 53.3957C25.294 53.7877 25.0696 54.0225 24.7029 54.1115C24.475 54.1712 24.4242 54.3536 24.4242 54.3536C24.4242 54.3536 24.1883 54.3567 24.0731 54.4137C24.0731 54.4137 23.9528 54.0524 24.5085 53.9095C25.0539 53.7692 24.9472 53.4189 24.9472 53.4189L24.9473 53.4188Z" fill="#DB0000"/>
</g>
<g clip-path="url(#clip4_1979_29413)">
<path d="M19.5906 60.1282C19.5906 60.1282 19.4772 60.1776 19.4898 60.3377C19.4898 60.3377 19.5368 60.2885 19.6632 60.365L19.815 60.4567C19.9583 60.5434 20.1485 60.4715 20.1665 60.2894C20.1665 60.2894 20.2613 60.3611 20.3333 60.3183C20.4052 60.2755 20.3847 60.2285 20.3342 60.198L20.0792 60.0437C20.0517 60.0891 19.9616 60.0432 19.9928 59.9915L19.8495 59.9048C19.8495 59.9048 19.742 59.8398 19.6851 59.9292C19.6851 59.9292 19.7183 59.9291 19.7437 59.9417L19.7291 59.9658C19.7291 59.9658 19.6964 59.9533 19.6782 59.9524C19.6601 59.9515 19.628 59.9594 19.6157 60.0225C19.6035 60.0856 19.6 60.108 19.6 60.108C19.6 60.108 19.6466 60.1001 19.6961 60.13L19.7541 60.1651C19.8573 60.2275 19.7778 60.3161 19.6746 60.2537C19.5713 60.1912 19.5908 60.1282 19.5908 60.1282L19.5906 60.1282Z" fill="#DB0000"/>
<path d="M20.1945 60.3502C20.1945 60.3502 20.228 60.3733 20.2666 60.3665C20.2666 60.3665 20.3875 60.6829 19.8316 60.8359C19.2756 60.989 19.3978 61.3795 19.3978 61.3795C19.3978 61.3795 19.3011 61.4015 19.2663 61.5374C19.2663 61.5374 19.1733 61.3724 19.1472 61.1718C19.1095 60.8819 19.1951 60.525 19.7678 60.5455C19.7678 60.5455 20.1366 60.5742 20.1944 60.3501L20.1945 60.3502Z" fill="#DB0000"/>
<path d="M19.9687 59.9305C19.9687 59.9305 20.0636 59.8766 20.1697 59.9407C20.2533 59.9913 20.2983 59.9599 20.2983 59.9599C20.2983 59.9599 20.3768 59.9125 20.5608 60.0238C20.7295 60.1258 20.8092 60.2508 20.8558 60.3815C20.8558 60.3815 20.7008 60.0777 20.3255 60.1463L19.9687 59.9305Z" fill="#DB0000"/>
<path d="M20.69 61.0699C20.8368 60.8114 20.8049 60.4199 20.3727 60.1796C20.9973 60.0796 21.2415 61.294 20.4031 61.3475C20.4031 61.3475 20.587 61.2664 20.69 61.07L20.69 61.0699Z" fill="#DB0000"/>
</g>
<g clip-path="url(#clip5_1979_29413)">
<path d="M28.3317 55.8511C28.3317 55.8511 28.223 55.9101 28.2492 56.0685C28.2492 56.0685 28.2919 56.0154 28.4244 56.0808L28.5835 56.1592C28.7337 56.2332 28.9171 56.1452 28.9194 55.9622C28.9194 55.9622 29.0199 56.0256 29.0881 55.9767C29.156 55.9279 29.1315 55.8829 29.0785 55.8567L28.8112 55.725C28.7878 55.7725 28.694 55.7345 28.7207 55.6804L28.5704 55.6063C28.5704 55.6063 28.4578 55.5508 28.4088 55.6447C28.4088 55.6447 28.4418 55.6418 28.4682 55.6521L28.4558 55.6775C28.4558 55.6775 28.4221 55.6677 28.4039 55.6684C28.3858 55.6691 28.3544 55.6797 28.3477 55.7437C28.3409 55.8076 28.3394 55.8301 28.3394 55.8301C28.3394 55.8301 28.3851 55.8183 28.437 55.8439L28.4978 55.8738C28.606 55.9271 28.5344 56.0223 28.4262 55.9689C28.3179 55.9156 28.3319 55.8511 28.3319 55.8511L28.3317 55.8511Z" fill="#DB0000"/>
<path d="M28.9486 56.0192C28.9486 56.0192 28.984 56.0394 29.0218 56.0293C29.0218 56.0293 29.1695 56.3342 28.6289 56.5344C28.0881 56.7346 28.2433 57.1132 28.2433 57.1132C28.2433 57.1132 28.1488 57.1435 28.1259 57.2819C28.1259 57.2819 28.0191 57.1254 27.9758 56.9278C27.9133 56.6422 27.968 56.2793 28.5403 56.2505C28.5403 56.2505 28.9102 56.2474 28.9485 56.0192L28.9486 56.0192Z" fill="#DB0000"/>
<path d="M28.6928 55.6219C28.6928 55.6219 28.7828 55.56 28.8939 55.6148C28.9816 55.658 29.0237 55.6229 29.0237 55.6229C29.0237 55.6229 29.0978 55.5689 29.2908 55.664C29.4676 55.7511 29.5578 55.8688 29.6154 55.9951C29.6154 55.9951 29.4349 55.7057 29.0669 55.8062L28.6928 55.6219Z" fill="#DB0000"/>
<path d="M29.5075 56.6954C29.6315 56.4252 29.5661 56.0379 29.1148 55.8356C29.7285 55.6823 30.0761 56.8712 29.2455 56.9965C29.2455 56.9965 29.4217 56.9 29.5074 56.6955L29.5075 56.6954Z" fill="#DB0000"/>
<path d="M29.1639 55.8976C29.7124 56.1477 29.586 56.8908 29.0932 57.0104L28.6592 57.0071C28.6592 57.0071 28.6862 56.8373 28.9405 56.7484C29.1948 56.6597 29.5172 56.4177 29.1535 55.9748C29.1535 55.9748 29.1841 55.935 29.164 55.8977L29.1639 55.8976Z" fill="#DB0000"/>
<path d="M29.0626 56.0291C29.0626 56.0291 29.1015 56.0171 29.1204 56.0009C29.4397 56.3668 29.2363 56.62 28.8787 56.7402C28.6567 56.8193 28.6217 57.0053 28.6217 57.0053C28.6217 57.0053 28.387 57.0287 28.2771 57.0954C28.2771 57.0954 28.1262 56.7458 28.6676 56.5557C29.1989 56.3691 29.0625 56.0291 29.0625 56.0291L29.0626 56.0291Z" fill="#DB0000"/>
</g>
<g clip-path="url(#clip6_1979_29413)">
<path d="M27.8749 60.2436C27.8749 60.2436 27.7727 60.3132 27.8146 60.4682C27.8146 60.4682 27.8517 60.4111 27.9901 60.4629L28.1562 60.525C28.3131 60.5837 28.4867 60.4778 28.4708 60.2956C28.4708 60.2956 28.5771 60.3485 28.64 60.2931C28.7028 60.2377 28.6739 60.1954 28.6186 60.1747L28.3395 60.0703C28.3209 60.1199 28.2238 60.0915 28.2449 60.0349L28.088 59.9762C28.088 59.9762 27.9704 59.9322 27.931 60.0306C27.931 60.0306 27.9636 60.0244 27.9909 60.032L27.981 60.0585C27.981 60.0585 27.9466 60.0522 27.9285 60.0546C27.9106 60.0571 27.8804 60.0708 27.8801 60.1351C27.8797 60.1994 27.8805 60.222 27.8805 60.222C27.8805 60.222 27.9248 60.2056 27.979 60.2259L28.0424 60.2496C28.1554 60.2919 28.0937 60.3937 27.9807 60.3514C27.8676 60.3092 27.8751 60.2436 27.8751 60.2436L27.8749 60.2436Z" fill="#DB0000"/>
<path d="M28.2058 59.9798C28.2058 59.9798 28.2891 59.9093 28.4052 59.9527C28.4967 59.9869 28.5351 59.9478 28.5351 59.9478C28.5351 59.9478 28.6035 59.8866 28.805 59.962C28.9896 60.0311 29.0911 60.1392 29.161 60.259C29.161 60.259 28.9525 59.9891 28.5964 60.1259L28.2058 59.9798Z" fill="#DB0000"/>
<path d="M29.1242 60.9659C29.2206 60.6846 29.1168 60.3058 28.6476 60.1496C29.243 59.9358 29.7075 61.0841 28.8936 61.2917C28.8936 61.2917 29.0593 61.178 29.1241 60.9659L29.1242 60.9659Z" fill="#DB0000"/>
</g>
<path d="M39.681 26.577C39.5422 26.8558 39.4038 27.1346 39.2659 27.4134C39.0183 27.9132 38.7693 28.413 38.5256 28.9147C38.508 28.9615 38.4744 29.001 38.4304 29.0265C38.3864 29.052 38.3347 29.0621 38.2839 29.055C38.0652 29.0467 37.8458 29.0441 37.627 29.055C37.4904 29.0626 37.4339 28.9951 37.3827 28.8918C37.0284 28.1722 36.6726 27.4529 36.3153 26.7338C36.2901 26.6769 36.248 26.6285 36.1944 26.5949C36.1789 26.6477 36.1662 26.7013 36.1564 26.7555C36.0762 27.3956 35.9972 28.0358 35.9192 28.6763C35.8851 28.9549 35.8463 29.2328 35.8194 29.5114C35.8063 29.6479 35.7537 29.7027 35.6039 29.695C35.2926 29.6829 34.9806 29.6836 34.6692 29.695C34.5155 29.7001 34.465 29.6555 34.486 29.507C34.5425 29.1143 34.5891 28.7203 34.6397 28.3263C34.7205 27.692 34.8 27.057 34.8821 26.4221C34.9583 25.8292 35.0371 25.237 35.1139 24.6441C35.1304 24.5166 35.1435 24.3891 35.1547 24.2654C35.1645 24.1583 35.2125 24.1067 35.3327 24.1099C35.5954 24.1162 35.8581 24.115 36.1209 24.1099C36.1666 24.1053 36.2124 24.1164 36.2505 24.1412C36.2887 24.166 36.3167 24.2029 36.3298 24.2456C36.825 25.281 37.3238 26.3148 37.8261 27.3471C37.864 27.4138 37.9068 27.4777 37.9542 27.5384C38.0068 27.4767 38.0536 27.4105 38.0941 27.3407C38.5841 26.3152 39.071 25.288 39.5549 24.259C39.5717 24.2094 39.6058 24.1671 39.6515 24.1395C39.6971 24.1119 39.7512 24.1007 39.8045 24.1079C40.0672 24.1181 40.33 24.1143 40.5927 24.1079C40.6142 24.1043 40.6362 24.1054 40.6572 24.1111C40.6782 24.1168 40.6976 24.127 40.714 24.141C40.7303 24.1549 40.7433 24.1722 40.7519 24.1917C40.7604 24.2111 40.7644 24.2322 40.7635 24.2533C40.8327 24.8207 40.9028 25.3876 40.9737 25.9542C41.0512 26.573 41.1289 27.1922 41.2069 27.8118C41.28 28.3886 41.3545 28.9657 41.4302 29.5433C41.4447 29.6542 41.4066 29.6938 41.289 29.6918C40.9501 29.6861 40.6111 29.6855 40.2722 29.6918C40.1513 29.6918 40.1067 29.6485 40.0948 29.5395C40.0443 29.0875 39.9891 28.6361 39.9352 28.1841C39.8787 27.706 39.8216 27.2281 39.7638 26.7504C39.7572 26.6943 39.7408 26.6388 39.729 26.5827L39.681 26.577Z" fill="#222757"/>
<path d="M17.3701 26.8964C17.3701 26.0338 17.3734 25.1707 17.3701 24.3081C17.3701 24.1577 17.4108 24.1073 17.5711 24.1092C18.2937 24.1175 19.0162 24.1003 19.7387 24.1175C20.7779 24.1424 21.5444 24.6045 21.9865 25.52C22.2683 26.1046 22.3346 26.7313 22.2492 27.3688C22.173 27.954 21.9694 28.4869 21.553 28.93C21.3375 29.161 21.0756 29.3467 20.7833 29.4756C20.491 29.6046 20.1747 29.674 19.8537 29.6797C19.0727 29.709 18.2897 29.6886 17.5081 29.6944C17.3767 29.6944 17.3721 29.6268 17.3727 29.5325C17.3719 28.6535 17.371 27.7749 17.3701 26.8964ZM19.275 25.1681L19.2717 25.1949C19.1239 25.1949 18.9761 25.1949 18.829 25.1949C18.718 25.1949 18.6707 25.2376 18.6713 25.3453C18.6713 26.3781 18.6713 27.4104 18.6713 28.4423C18.6713 28.5603 18.7232 28.603 18.8388 28.6017C19.1233 28.5979 19.4083 28.6017 19.6928 28.5966C20.1526 28.5832 20.4869 28.3645 20.6984 27.9852C21.0682 27.3229 21.0676 26.6356 20.7641 25.9522C20.6229 25.6335 20.391 25.3657 20.0323 25.2682C19.7873 25.2013 19.5259 25.1987 19.2717 25.1681H19.275Z" fill="#222757"/>
<path d="M53.3816 24.9642C53.0795 25.2096 52.7983 25.4442 52.5067 25.6654C52.4758 25.689 52.3648 25.6546 52.3201 25.6157C52.0397 25.3576 51.6741 25.2042 51.2882 25.1828C50.6852 25.1522 50.2202 25.3977 49.8701 25.8599C49.2132 26.7294 49.5456 28.0694 50.5479 28.5202C51.1529 28.7924 51.746 28.7114 52.2768 28.3289C52.4082 28.2352 52.4883 28.0675 52.5664 27.9215C52.6321 27.7985 52.5612 27.7373 52.4213 27.7386C52.0055 27.7386 51.5897 27.7335 51.1733 27.7424C51.015 27.7462 50.9618 27.6984 50.9696 27.5448C50.9821 27.3236 50.9769 27.0985 50.9696 26.8786C50.9696 26.7708 51.0051 26.7281 51.1207 26.7288C52.0285 26.7288 52.9363 26.7288 53.844 26.7288C53.9393 26.7288 54.001 26.7492 53.9997 26.8601C53.9879 27.641 53.8178 28.3723 53.2719 28.9792C52.8456 29.4522 52.2926 29.6951 51.6554 29.7588C50.8258 29.8423 50.0468 29.6951 49.3833 29.1851C48.4795 28.4915 48.0913 27.5754 48.2667 26.4687C48.45 25.3091 49.1337 24.509 50.2852 24.1552C51.3684 23.823 52.3687 24.0315 53.2207 24.7927C53.2772 24.8386 53.3186 24.894 53.3816 24.9642Z" fill="#868AC3"/>
<path d="M6 29.6816V24.1277C6.04963 24.1203 6.09961 24.1154 6.14976 24.113C6.93207 24.113 7.71438 24.1067 8.49604 24.1175C9.42154 24.1303 10.0948 24.7212 10.2695 25.6035C10.4383 26.4737 9.85112 27.3822 9.0872 27.6053C8.95583 27.6429 8.98211 27.7118 9.04451 27.7965C9.4211 28.31 9.79616 28.824 10.1697 29.3387C10.2439 29.4413 10.3162 29.5452 10.4088 29.6765C10.326 29.6836 10.2774 29.6918 10.2236 29.6918C9.84061 29.6918 9.45766 29.688 9.07538 29.6918C9.02449 29.6953 8.97366 29.6843 8.9291 29.6602C8.88454 29.6361 8.84819 29.5999 8.82446 29.5561C8.44568 28.9883 8.06339 28.4217 7.67759 27.8565C7.63884 27.7965 7.57989 27.7515 7.51076 27.729C7.33669 27.692 7.29728 27.729 7.29728 27.9036C7.29728 28.4436 7.29268 28.9836 7.29728 29.5229C7.29728 29.6561 7.25458 29.6969 7.11927 29.6931C6.80267 29.6848 6.48541 29.6931 6.16815 29.6931C6.1156 29.6918 6.0624 29.6855 6 29.6816ZM7.85823 26.7287V26.7224C8.00011 26.7224 8.14264 26.7287 8.28452 26.7224C8.46676 26.7153 8.63997 26.6435 8.77116 26.5205C8.90234 26.3976 8.98234 26.232 8.9959 26.0555C9.03794 25.6934 8.79424 25.3065 8.43297 25.2497C8.09667 25.1974 7.74919 25.2083 7.40631 25.2045C7.37019 25.2045 7.30253 25.2943 7.30122 25.3434C7.29268 25.761 7.30122 26.1792 7.29531 26.5968C7.29531 26.6911 7.33538 26.7319 7.43193 26.7306C7.57381 26.7268 7.71635 26.7287 7.85823 26.7287Z" fill="#222757"/>
<path d="M11.9461 26.897C11.9461 26.0344 11.9494 25.1719 11.9428 24.3087C11.9428 24.1595 11.9815 24.1079 12.1431 24.1092C13.2427 24.1151 14.3421 24.1151 15.4412 24.1092C15.5988 24.1092 15.6534 24.1551 15.6468 24.3081C15.6356 24.5459 15.6376 24.7843 15.6468 25.0221C15.6507 25.1547 15.5988 25.1974 15.4648 25.1961C14.8034 25.1917 14.1413 25.1961 13.4798 25.1961C13.2467 25.1961 13.2453 25.1961 13.2447 25.4295C13.2447 25.6845 13.2512 25.9395 13.2447 26.1945C13.2394 26.3392 13.2946 26.3914 13.4417 26.3902C13.9941 26.3857 14.5466 26.3902 15.099 26.3902C15.3459 26.3902 15.3459 26.3902 15.3459 26.6362C15.3459 26.8689 15.34 27.1023 15.3459 27.3375C15.3505 27.4707 15.2987 27.5115 15.1647 27.5103C14.5965 27.5052 14.0276 27.5103 13.4568 27.5103C13.2526 27.5103 13.242 27.5217 13.2407 27.7155C13.2407 27.9329 13.2407 28.1497 13.2407 28.3664C13.2407 28.6061 13.244 28.6093 13.4844 28.6093H15.4865C15.7217 28.6093 15.7217 28.6093 15.7217 28.8395C15.7217 29.0696 15.7131 29.2857 15.7217 29.5063C15.7295 29.658 15.6803 29.7058 15.52 29.7046C14.519 29.6982 13.5186 29.7046 12.5175 29.7046C12.3862 29.7046 12.2548 29.6969 12.1234 29.7046C11.9809 29.7154 11.9343 29.6695 11.9356 29.5273C11.9487 28.6437 11.9461 27.7704 11.9461 26.897Z" fill="#222757"/>
<path d="M23.9092 26.9084C23.9092 26.0402 23.9131 25.1725 23.9092 24.3042C23.9092 24.1487 23.9591 24.1085 24.1148 24.1092C25.2139 24.1151 26.313 24.1151 27.4122 24.1092C27.558 24.1092 27.6204 24.1449 27.6132 24.296C27.6027 24.5286 27.6007 24.762 27.6132 24.9972C27.623 25.1661 27.5514 25.2012 27.3931 25.1999C26.7422 25.1929 26.0912 25.1999 25.4403 25.1999C25.2143 25.1999 25.211 25.2038 25.2104 25.4218C25.2104 25.6768 25.2104 25.9318 25.2104 26.1868C25.2104 26.378 25.2235 26.3914 25.4278 26.3921C25.9907 26.3921 26.5543 26.3965 27.1172 26.3921C27.267 26.3921 27.3209 26.4341 27.3143 26.5833C27.3031 26.8262 27.3038 27.0704 27.3143 27.3133C27.3209 27.4637 27.2729 27.5166 27.112 27.5147C26.5543 27.5064 25.9953 27.5109 25.4383 27.5147C25.2183 27.5147 25.2117 27.523 25.211 27.741C25.211 27.9686 25.2183 28.1968 25.211 28.4238C25.2045 28.573 25.2675 28.615 25.4127 28.615C26.0965 28.6106 26.7803 28.615 27.4641 28.615C27.6933 28.615 27.694 28.615 27.6946 28.8337C27.6946 29.0664 27.6887 29.2997 27.6946 29.535C27.6992 29.6625 27.6644 29.7128 27.5225 29.7122C26.3735 29.7079 25.2248 29.7079 24.0767 29.7122C23.9453 29.7122 23.9105 29.6676 23.9111 29.5458C23.9111 28.6552 23.9092 27.7818 23.9092 26.9084Z" fill="#222757"/>
<path d="M29.333 26.9041C29.333 26.0364 29.333 25.1682 29.333 24.2999C29.333 24.1564 29.3724 24.1086 29.5255 24.1086C30.6303 24.1146 31.7351 24.1146 32.8399 24.1086C32.991 24.1086 33.0422 24.1545 33.037 24.2999C33.0271 24.5377 33.0278 24.7761 33.037 25.0139C33.0429 25.1548 32.9884 25.1975 32.8465 25.1962C32.1897 25.1905 31.5328 25.1962 30.876 25.1962C30.6336 25.1962 30.6336 25.1962 30.6329 25.4378C30.6329 25.6928 30.6388 25.9478 30.6329 26.2028C30.6283 26.3405 30.6828 26.3941 30.8234 26.3903C31.3922 26.3864 31.9611 26.3903 32.5312 26.3858C32.683 26.3858 32.748 26.4209 32.7401 26.5802C32.7276 26.8352 32.7316 27.0902 32.7401 27.342C32.744 27.4695 32.6941 27.5072 32.568 27.5065C31.9992 27.5021 31.4303 27.5065 30.8602 27.5065C30.6467 27.5065 30.6368 27.5174 30.6362 27.7207C30.6362 27.9375 30.6362 28.1549 30.6362 28.3716C30.6362 28.6005 30.6421 28.6062 30.8727 28.6062H32.8741C33.1171 28.6062 33.1171 28.6062 33.1171 28.8446C33.1171 29.0831 33.1138 29.3209 33.1171 29.5593C33.1171 29.6613 33.0817 29.6995 32.9746 29.6995C31.8098 29.697 30.645 29.697 29.4801 29.6995C29.3415 29.6995 29.3356 29.6307 29.3356 29.53C29.3352 28.6532 29.3343 27.7779 29.333 26.9041Z" fill="#222757"/>
<path d="M46.1343 25.7183C45.9813 25.7183 45.8282 25.7183 45.6745 25.7183C45.5628 25.7183 45.5018 25.7017 45.4774 25.571C45.4223 25.2618 45.1576 25.0993 44.7766 25.1126C44.4409 25.1241 44.192 25.3198 44.1473 25.6073C44.1138 25.8196 44.1834 25.9898 44.4101 26.0848C44.703 26.2123 45.0124 26.3016 45.3172 26.4004C45.7698 26.547 46.2144 26.707 46.5586 27.0475C46.9028 27.3879 47.0184 27.8182 46.9527 28.2887C46.847 29.1111 46.2243 29.5503 45.5195 29.702C44.9237 29.8295 44.3339 29.8225 43.7723 29.5662C43.2107 29.31 42.8573 28.8803 42.787 28.2606C42.7719 28.1248 42.8159 28.0694 42.965 28.0694C43.2763 28.0777 43.5883 28.0726 43.8997 28.0694C43.9877 28.0694 44.0639 28.0783 44.0882 28.1803C44.1454 28.4206 44.3161 28.5596 44.5441 28.6387C44.7923 28.7296 45.067 28.7243 45.3113 28.624C45.4125 28.5884 45.5003 28.5242 45.5635 28.4396C45.6268 28.3551 45.6624 28.2541 45.666 28.1497C45.6744 28.0477 45.6488 27.9458 45.593 27.859C45.5372 27.7722 45.4541 27.7052 45.3559 27.6678C45.1154 27.5681 44.8699 27.4802 44.6203 27.4045C44.2216 27.277 43.815 27.1743 43.4649 26.9321C42.4967 26.2633 42.6392 24.7901 43.7664 24.2546C44.4639 23.9243 45.1799 23.9116 45.8834 24.2386C46.443 24.4987 46.7202 24.9584 46.7898 25.5455C46.8043 25.6692 46.757 25.7195 46.6263 25.7132C46.4627 25.7125 46.2985 25.7183 46.1343 25.7183Z" fill="#868AC3"/>
<path d="M13.8398 38.3605H12.3555L11.074 36.3976H10.8144V38.3605H9.54102V32.772H11.8283C13.1261 32.772 13.7101 33.6967 13.7101 34.6213C13.7101 35.4081 13.1261 36.1624 12.4042 36.3246L13.8398 38.3605ZM11.658 33.8832H10.8144V35.3919H11.6255C12.1852 35.3919 12.4285 35.0269 12.4285 34.6538C12.4285 34.2807 12.1771 33.8832 11.658 33.8832Z" fill="#868AC3"/>
<path d="M16.6673 36.1786V37.2493H19.052V38.3605H15.3939V32.772H18.979V33.8832H16.6673V35.035H18.6951V36.1786H16.6673Z" fill="#868AC3"/>
<path d="M24.9738 36.13L26.0039 32.772H27.3909L25.4929 38.3605H24.5034L23.7572 35.5217L23.0353 38.3605H22.0376L20.1559 32.772H21.5266L22.5567 36.1138L23.2462 33.5669H24.2925L24.9738 36.13Z" fill="#868AC3"/>
<path d="M33.2165 38.3605H31.8619L31.4402 37.0627H29.4773L29.0637 38.3605H27.701L29.7693 32.772H31.1563L33.2165 38.3605ZM30.4506 33.9887L29.8261 35.9596H31.0833L30.4506 33.9887Z" fill="#868AC3"/>
<path d="M38.7326 38.3605H37.2483L35.9668 36.3976H35.7072V38.3605H34.4338V32.772H36.7211C38.0189 32.772 38.6029 33.6967 38.6029 34.6213C38.6029 35.4081 38.0189 36.1624 37.297 36.3246L38.7326 38.3605ZM36.5508 33.8832H35.7072V35.3919H36.5183C37.078 35.3919 37.3213 35.0269 37.3213 34.6538C37.3213 34.2807 37.0699 33.8832 36.5508 33.8832Z" fill="#868AC3"/>
<path d="M40.2867 32.772H42.4929C44.107 32.772 45.0398 33.9887 45.0398 35.5784C45.0398 37.1601 44.107 38.3605 42.4929 38.3605H40.2867V32.772ZM41.5601 37.2493H42.4929C43.3283 37.2493 43.7582 36.4463 43.7582 35.5784C43.7582 34.7024 43.3283 33.8832 42.4929 33.8832H41.5601V37.2493Z" fill="#868AC3"/>
<path d="M48.398 38.4578C47.2056 38.4578 46.3783 37.7603 46.3783 36.7302H47.6518C47.6518 37.0871 48.0086 37.3628 48.4466 37.3628C48.8603 37.3628 49.1766 37.152 49.1766 36.787C49.1766 36.568 49.055 36.3652 48.5602 36.203L47.8951 36.0002C46.6622 35.6677 46.427 34.9133 46.427 34.3861C46.427 33.3804 47.2868 32.6747 48.398 32.6747C49.4686 32.6747 50.2878 33.3155 50.2878 34.4023H49.0144C49.0144 34.0698 48.8116 33.7859 48.3736 33.7859C47.9762 33.7859 47.7166 34.0536 47.7166 34.3618C47.7166 34.4753 47.7491 34.7268 48.2682 34.8728L48.8522 35.0593C49.6471 35.3027 50.4582 35.7082 50.4582 36.7221C50.4582 37.9225 49.4199 38.4578 48.398 38.4578Z" fill="#868AC3"/>
</g>
<defs>
<clipPath id="clip0_1979_29413">
<rect width="5.12738" height="5.12738" fill="white" transform="matrix(0.996022 -0.0891418 0.0891486 0.996016 26.7461 10.3486)"/>
</clipPath>
<clipPath id="clip1_1979_29413">
<rect width="2.40882" height="2.40882" fill="white" transform="translate(21.0547 54.4958) rotate(41.039)"/>
</clipPath>
<clipPath id="clip2_1979_29413">
<rect width="2.40882" height="2.40882" fill="white" transform="translate(24.2734 56.9107) rotate(31.165)"/>
</clipPath>
<clipPath id="clip3_1979_29413">
<rect width="2.40882" height="2.40882" fill="white" transform="translate(24.2891 52.229) rotate(31.165)"/>
</clipPath>
<clipPath id="clip4_1979_29413">
<rect width="2.40882" height="2.40882" fill="white" transform="translate(19.6484 59.1782) rotate(31.165)"/>
</clipPath>
<clipPath id="clip5_1979_29413">
<rect width="2.40882" height="2.40882" fill="white" transform="translate(28.3047 54.8988) rotate(26.2357)"/>
</clipPath>
<clipPath id="clip6_1979_29413">
<rect width="2.40882" height="2.40882" fill="white" transform="translate(27.7539 59.3) rotate(20.5069)"/>
</clipPath>
</defs>
</svg>
