<svg width="39" height="9" viewBox="0 0 39 9" fill="none" xmlns="http://www.w3.org/2000/svg">
<path d="M15.2109 6.3085C14.9114 6.3085 14.6269 6.04315 14.6525 5.64059C14.678 5.23039 15.0907 4.16316 16.3138 4.28816L15.94 6.01557C15.701 6.20538 15.4381 6.3085 15.2109 6.3085ZM17.2986 3.70377C16.9095 3.62709 16.6903 3.59863 16.2817 3.59863C14.4877 3.59863 13.806 4.6533 13.7464 5.62065C13.6936 6.45537 14.1472 7.04818 14.8213 7.04818C15.165 7.04818 15.4827 6.93092 15.8207 6.67487L15.7578 6.98204H16.2821C16.6445 6.96333 16.6997 6.8011 16.7536 6.53038L17.3241 3.7094C17.3156 3.70781 17.3067 3.70579 17.2986 3.70377Z" fill="#002E6D"/>
<path d="M19.3319 3.60352H19.1343L18.7963 3.60554C18.4335 3.62337 18.3807 3.78121 18.3264 4.05272C18.3056 4.15373 18.283 4.26695 18.2578 4.39036L17.7148 6.98411L18.1365 6.9849L18.2687 6.98411C18.6315 6.96505 18.6871 6.80677 18.7403 6.53447C18.7873 6.29995 18.845 6.00578 18.9156 5.65513L19.3319 3.60352Z" fill="#002E6D"/>
<path d="M19.4958 2.83592C19.4958 3.12156 19.264 3.35293 18.9779 3.35293C18.6923 3.35293 18.4609 3.12165 18.4609 2.83592C18.4609 2.54983 18.6922 2.31812 18.9779 2.31812C19.264 2.3182 19.4958 2.54983 19.4958 2.83592Z" fill="#002E6D"/>
<path d="M31.2551 3.60352H31.0579L30.7195 3.60554C30.358 3.62337 30.3044 3.78121 30.25 4.05272C30.2293 4.15417 30.2066 4.26783 30.1818 4.39159L29.6377 6.98411H30.1924C30.5547 6.96505 30.6091 6.80677 30.6643 6.53447C30.7098 6.30443 30.7665 6.01588 30.8359 5.67182L31.2551 3.60352Z" fill="#002E6D"/>
<path d="M31.4191 2.83592C31.4191 3.12156 31.1879 3.35293 30.9013 3.35293C30.616 3.35293 30.3848 3.12165 30.3848 2.83592C30.3848 2.54983 30.616 2.31812 30.9013 2.31812C31.1878 2.3182 31.4191 2.54983 31.4191 2.83592Z" fill="#002E6D"/>
<path d="M22.0675 3.60352C21.822 3.60352 21.5558 3.71507 21.2149 4.10226L21.2015 4.08724L21.3087 3.6072L20.9735 3.61089L20.8392 3.61335C20.4772 3.63197 20.3502 3.78868 20.2962 4.06097C20.2488 4.2955 20.1838 4.58887 20.11 4.94031L19.6738 6.9842H20.2172C20.5796 6.96514 20.6335 6.8065 20.6891 6.53456C20.7131 6.41484 20.7366 6.30328 20.7582 6.20025L21.0195 4.97316C21.0982 4.70087 21.4001 4.37824 21.6338 4.33283C21.8761 4.28575 22.0668 4.30235 22.3906 4.65862C22.3906 4.65862 22.4219 4.69516 22.458 4.614C22.4966 4.52554 22.669 3.98341 22.669 3.98341C22.4578 3.71507 22.2684 3.60352 22.0675 3.60352Z" fill="#002E6D"/>
<path d="M28.9261 3.60352C28.681 3.60352 28.4152 3.71507 28.0743 4.10226L28.0605 4.08724L28.1668 3.6072L27.8324 3.61089L27.6981 3.61335C27.3369 3.63197 27.2091 3.78868 27.1552 4.06097C27.1081 4.2955 27.0424 4.58887 26.969 4.94031L26.5332 6.9842H27.0766C27.4385 6.96514 27.4929 6.8065 27.5485 6.53456C27.5721 6.41484 27.878 4.97307 27.878 4.97307C27.9567 4.70078 28.2595 4.37815 28.4932 4.33274C28.7355 4.28566 28.9254 4.30226 29.2504 4.65853C29.2504 4.65853 29.2808 4.69507 29.3165 4.61391C29.3559 4.52502 29.5283 3.98332 29.5283 3.98332C29.3164 3.71507 29.1277 3.60352 28.9261 3.60352Z" fill="#002E6D"/>
<path d="M36.467 5.17189C36.5068 4.97997 36.5689 4.29132 37.3727 4.26664C37.9651 4.24837 38.2918 4.33524 37.9927 4.69722C37.6831 5.07132 36.9174 5.22468 36.5968 5.3091C36.5968 5.3091 36.4272 5.36259 36.467 5.17189ZM36.5055 5.95303C36.7989 5.90112 37.8832 5.76313 38.3754 5.42311C38.8644 5.08265 39.122 4.68949 38.9423 4.23291C38.7617 3.77642 38.2135 3.5289 37.2933 3.59302C36.3721 3.6567 35.9173 4.01789 35.7269 4.5486C35.5366 5.07975 35.2627 6.25976 35.6134 6.63228C35.9842 7.02553 36.3722 6.98082 37.0624 6.98082C37.2454 6.98082 37.9068 6.98003 37.9068 6.98003C38.2635 6.98003 38.4051 6.55068 38.4051 6.29507L36.8526 6.29665C36.8526 6.29665 36.2407 6.32467 36.2407 6.11325C36.2405 6.07117 36.2543 5.99809 36.5055 5.95303Z" fill="#002E6D"/>
<path d="M12.2667 2.64721C12.2715 2.62411 12.2805 2.58186 12.2805 2.58186C12.2805 2.58186 12.412 2.2219 12.7407 2.20486C12.9935 2.20407 13.3615 2.2053 13.8184 2.21215C14.4401 2.2219 14.561 1.7958 14.6653 1.51218H12.8623C12.7499 1.5077 12.6184 1.50972 12.433 1.51218H12.4314C12.2034 1.51218 11.9895 1.51868 11.8098 1.61767C11.6649 1.6976 11.5862 1.82057 11.5136 1.95734C11.46 2.058 11.4036 2.2515 11.344 2.53803L11.1301 3.55861L10.6703 5.76034L10.4033 7.03451C10.8116 6.97118 11.378 6.91233 11.5505 6.08174C11.6194 5.75103 11.6612 5.55094 11.6856 5.42964L11.8377 4.70287C11.8896 4.47563 11.9667 4.34335 12.2962 4.32587H12.3307V4.32508C12.5028 4.32666 12.7284 4.32877 13.0205 4.33325C13.6421 4.34256 13.7639 3.91646 13.8678 3.63248H12.0605L12.2667 2.64721Z" fill="#002E6D"/>
<path d="M26.3026 2.97827C26.0425 3.34956 25.5945 3.52848 25.174 3.64574C25.019 3.68958 24.8628 3.72647 24.7074 3.76951C24.6705 3.78005 24.6258 3.78251 24.5921 3.76099C24.5625 3.74149 24.5788 3.71918 24.5844 3.68957C24.5941 3.64214 24.6051 3.59418 24.6149 3.54675C24.6644 3.30898 24.7143 3.07199 24.7637 2.83501C24.8071 2.62604 24.8677 2.39881 25.0762 2.29981C25.2519 2.21707 25.4621 2.20934 25.6536 2.2154C25.8533 2.22067 26.0918 2.20846 26.2599 2.32897C26.4832 2.48893 26.4434 2.77703 26.3026 2.97827ZM27.2606 2.14478C27.1353 1.80432 26.8994 1.59211 26.5411 1.52719C26.094 1.44682 25.6167 1.48415 25.1647 1.48661C24.8799 1.48863 24.5702 1.4773 24.3174 1.63515C24.1296 1.75197 24.0273 1.97192 23.9669 2.17807C23.8622 2.53557 23.7993 2.91054 23.7206 3.27366L22.9395 7.03486C23.2649 6.98532 23.5964 6.92287 23.8236 6.66199C23.9852 6.47578 24.0533 6.24204 24.1028 6.00541C24.1426 5.81427 24.186 5.62235 24.2221 5.42963C24.2716 5.16709 24.3198 4.90498 24.3847 4.63839C24.4213 4.48336 24.6509 4.47484 24.7844 4.4578C24.9698 4.43347 25.1557 4.41687 25.3399 4.38314C25.9048 4.28125 26.489 4.04268 26.8839 3.61298C27.2366 3.22983 27.4488 2.65406 27.2606 2.14478Z" fill="#002E6D"/>
<path d="M33.7015 3.5727C32.7804 3.56743 32.1888 3.98782 32.0159 4.53681C31.8463 5.07525 31.5517 6.20212 31.9027 6.62005C32.2497 7.0356 32.7812 6.98484 33.4715 6.98484C33.6536 6.98484 34.3147 6.98404 34.3147 6.98404C34.6722 6.98404 34.8126 6.53889 34.8126 6.28407L33.2617 6.28451C33.2617 6.28451 32.6562 6.35548 32.6562 5.74159C32.6562 5.53868 32.7143 5.35809 32.7472 5.16054C32.7784 4.97309 32.9643 4.31572 33.7077 4.2747C33.8489 4.2747 33.9974 4.27268 34.1548 4.27268C34.2729 4.27268 34.7303 4.27224 34.7303 4.27224C34.8155 4.27224 34.8748 4.27224 34.8748 4.27224C35.2318 4.27224 35.3731 3.82752 35.3731 3.57227C35.3729 3.57227 33.7133 3.5727 33.7015 3.5727Z" fill="#002E6D"/>
<path d="M5.11827 8.40386C4.93486 8.37708 4.77535 8.3458 4.64877 8.31541C4.59238 8.30241 4.53476 8.28783 4.48074 8.27325C4.45966 8.26473 4.44016 8.26069 4.42145 8.25665C3.06858 7.84478 2.52399 6.79706 2.74472 5.07369V5.07C2.75447 4.95106 2.77274 4.82572 2.80112 4.69019L3.78472 0.200644C3.92104 -0.437231 1.42549 0.635264 1.16374 0.806108C1.0384 0.888851 0.930004 0.941201 0.866322 1.23985L0.157035 4.44433C-0.292604 6.55884 0.218697 7.81272 1.75093 8.26473H1.75049C2.78241 8.61248 4.44165 8.5293 5.14207 8.47334C5.24326 8.46474 5.2242 8.41766 5.11827 8.40386ZM5.76106 3.50201L5.65311 3.98819L6.51822 4.41956C6.31452 4.06242 6.02317 3.7455 5.76106 3.50201ZM7.32536 6.07222C7.66739 5.87784 7.91659 5.54353 8.08374 5.08906L8.08699 5.07975C8.12151 4.96082 8.15595 4.83872 8.18441 4.71206L8.19011 4.69019L8.24001 4.46251C8.14628 4.58101 8.0465 4.70846 7.93969 4.8468C7.60002 5.28502 7.41785 5.69118 7.32536 6.07222ZM5.70019 4.958L5.67823 4.83916L6.79982 5.39789C6.47193 4.82458 5.91925 4.35386 5.62228 4.12662L5.49772 4.69028C5.4697 4.82581 5.45143 4.95115 5.44379 5.07008C5.38942 5.85895 5.76721 6.26959 6.51787 6.26959C6.68467 6.26959 6.83803 6.24974 6.98007 6.21241C6.49591 5.48345 5.70019 4.958 5.70019 4.958ZM6.97963 5.4571C7.08064 4.96363 7.53107 4.51284 8.12274 3.97967C8.22138 3.89078 8.31388 3.80839 8.40154 3.73171L8.63686 2.66211C8.37352 2.96243 8.0696 3.33732 7.65852 3.86812C7.20888 4.44793 7.03435 4.97338 6.97963 5.4571ZM7.37727 2.88891C6.92763 3.4696 6.75318 3.99469 6.69793 4.47876C6.79895 3.98573 7.24938 3.53407 7.84105 3.0009C8.20461 2.67344 8.48744 2.43242 8.73014 2.24049L8.99874 1.02069L8.9001 1.11196C8.48296 1.51329 8.09147 1.96697 7.37727 2.88891ZM6.55924 0.806019C6.44118 0.882262 6.3385 0.935492 6.27394 1.18583L5.8207 3.23297L6.41114 3.52713C6.50083 3.02312 6.95732 2.5654 7.55988 2.02169C7.98027 1.64311 8.29236 1.38056 8.56052 1.17441C8.73418 1.03932 8.90581 0.970276 9.01702 0.937864L9.18013 0.200556C9.31531 -0.437319 6.82011 0.635176 6.55924 0.806019Z" fill="#E1251B"/>
</svg>
