<svg width="49" height="13" viewBox="0 0 49 13" fill="none" xmlns="http://www.w3.org/2000/svg">
<g clip-path="url(#clip0_1598_21135)">
<path d="M0 0V12.4904H12.4904V0H0ZM10.7061 11.259H1.60599V1.50114H10.7061V11.259Z" fill="#92C754"/>
<path d="M12.4963 0H3.67969V9.99227H12.4963V0Z" fill="#E16D26"/>
<path fill-rule="evenodd" clip-rule="evenodd" d="M5.45881 4.59587C5.28263 4.72388 4.72881 4.71779 4.51393 4.78789C4.29904 4.858 4.23504 4.88909 4.16158 5.01162C4.08812 5.13415 4.03966 5.38987 4.07349 5.52307C4.09424 5.59067 4.13114 5.6522 4.18101 5.70234C4.23088 5.75247 4.29221 5.7897 4.3597 5.8108C4.48162 5.84281 4.6645 5.74679 4.79983 5.71479C4.93516 5.68279 5.0897 5.6456 5.17413 5.61908C5.25856 5.59257 5.28416 5.56026 5.3061 5.55507C5.32805 5.54989 5.3061 5.58708 5.3061 5.58708C5.3061 5.65627 5.29513 5.84281 5.3061 5.97082C5.31708 6.09884 5.31342 6.22655 5.37225 6.35426C5.43107 6.48197 5.57402 6.62066 5.65845 6.738C5.74288 6.85535 5.83097 6.97788 5.87852 7.05774C5.90796 7.10761 5.93023 7.16137 5.94466 7.21746C5.89681 7.3089 5.78677 7.59571 5.65845 7.76091C5.53013 7.92612 5.33567 8.08614 5.17413 8.20867C5.01258 8.3312 4.81111 8.40587 4.6898 8.4964C4.56849 8.58692 4.46973 8.6296 4.44779 8.75213C4.42584 8.87466 4.48436 9.1252 4.55782 9.23158C4.63128 9.33795 4.78154 9.3535 4.88792 9.3916C4.99429 9.4297 5.08238 9.49279 5.19607 9.4556C5.30976 9.41842 5.43473 9.31174 5.57037 9.16787C5.706 9.02401 5.88431 8.74786 6.00897 8.59241C6.13364 8.43696 6.233 8.36838 6.31743 8.24067C6.40186 8.11296 6.51555 7.82492 6.51555 7.82492C6.58774 7.88226 6.65411 7.94658 6.71367 8.01695C6.81639 8.13887 7.04011 8.44367 7.13186 8.56041C7.2236 8.67714 7.23092 8.67745 7.26384 8.72012C7.29675 8.76279 7.30407 8.79998 7.32998 8.81613C7.35589 8.83229 7.37021 8.82131 7.41807 8.81613C7.46592 8.81095 7.5793 8.78931 7.61588 8.78413C7.65246 8.77895 7.60491 8.74664 7.63813 8.78413C7.67135 8.82162 7.72622 8.93866 7.814 9.00785C7.92089 9.08968 8.03986 9.15436 8.16665 9.19957C8.31609 9.25084 8.47129 9.28339 8.62873 9.2965C8.77534 9.30717 8.88537 9.32698 9.04692 9.26449C9.20846 9.20201 9.45047 9.1313 9.59708 8.91276C9.74369 8.69421 9.86134 8.30559 9.92749 7.95385C9.99363 7.60211 9.97869 7.12784 9.99332 6.80293C10.008 6.47801 10.0265 6.2488 10.0153 6.00344C10.004 5.75807 9.92749 5.33288 9.92749 5.33288L10.1695 5.39688C10.3015 5.42736 10.606 5.46607 10.7197 5.52459C10.8334 5.58312 10.8151 5.70565 10.8519 5.74832C10.8888 5.79099 10.8446 5.80166 10.94 5.78032C11.1066 5.74419 11.269 5.69066 11.4244 5.62061C11.6591 5.50625 11.8869 5.37811 12.1065 5.23686C12.2571 5.13567 12.3156 5.07715 12.3266 5.01314C12.3375 4.94913 12.3415 4.91713 12.1726 4.85312C12.0038 4.78911 11.6075 4.6934 11.314 4.6294C11.0205 4.56539 10.6355 4.49102 10.4115 4.46968C10.2641 4.458 10.1158 4.46827 9.97138 4.50016C9.9604 4.45749 9.91255 4.29747 9.90524 4.24443C9.89792 4.1914 9.85403 4.28162 9.92749 4.18042C10.0009 4.07923 10.217 3.8235 10.3457 3.63697C10.4743 3.45043 10.6133 3.26389 10.6977 3.0615C10.7821 2.85912 10.8556 2.65124 10.8519 2.42142C10.8483 2.1916 10.8263 1.87796 10.6758 1.68594C10.5252 1.49391 10.1576 1.34517 9.94943 1.2705C9.74125 1.19582 9.65591 1.22264 9.42121 1.23849C9.18652 1.25434 8.75339 1.3025 8.54064 1.36651C8.32789 1.43052 8.26175 1.50489 8.1444 1.62224C8.02706 1.73958 7.89843 1.94776 7.83625 2.07029C7.77407 2.19282 7.75548 2.26201 7.77011 2.35802C7.79414 2.46627 7.8475 2.56582 7.92434 2.64576C7.9853 2.70428 8.03803 2.7631 8.1444 2.70976C8.25078 2.65642 8.41872 2.42721 8.56259 2.32602C8.70646 2.22483 8.82319 2.14497 9.00272 2.1023C9.18225 2.05962 9.47973 2.05962 9.64128 2.07182C9.80282 2.08401 9.89792 2.08248 9.97138 2.16783C10.0448 2.25317 10.0741 2.45556 10.0814 2.58327C10.0887 2.71098 10.0375 2.839 10.0153 2.93501C9.99302 3.03102 9.99698 3.07888 9.94943 3.15873C9.90188 3.23859 9.72937 3.41446 9.72937 3.41446C9.69888 3.37209 9.62299 3.2389 9.55319 3.15873C9.48065 3.07571 9.39941 3.00071 9.31087 2.93501C9.25969 2.89709 9.19859 2.87486 9.135 2.871C9.06155 2.86033 8.96249 2.83382 8.87074 2.871C8.779 2.90819 8.6138 2.98286 8.58454 3.09503C8.55527 3.2072 8.6397 3.4358 8.69457 3.54248C8.74943 3.64916 8.83782 3.67049 8.91463 3.7342C8.99144 3.7979 9.09081 3.85155 9.15695 3.92622C9.22473 4.0004 9.27705 4.08733 9.31087 4.18195C9.3441 4.27766 9.35507 4.50168 9.35507 4.50168C9.24504 4.48553 8.94054 4.41024 8.69457 4.40567C8.4486 4.4011 7.88014 4.46968 7.88014 4.46968C7.66678 4.48553 7.50219 4.52302 7.41807 4.50016C7.33394 4.4773 7.4141 4.42 7.37387 4.34014C7.33364 4.26028 7.27115 4.07923 7.17575 4.0204C7.08035 3.96158 6.88588 3.95122 6.80145 3.9884C6.71702 4.02559 6.70239 4.14293 6.66948 4.24443C6.63656 4.34593 6.62193 4.37214 6.60333 4.59587C6.58474 4.81959 6.57285 5.33135 6.55944 5.58708C6.54603 5.84281 6.55579 5.97082 6.51555 6.13054C6.47532 6.29025 6.31743 6.54629 6.31743 6.54629L6.07359 6.13054C6.00379 6.01319 5.93064 5.92815 5.89742 5.84281C5.86741 5.77223 5.85975 5.69415 5.87547 5.61908C5.8901 5.54989 5.93064 5.46455 5.9855 5.42706C6.04037 5.38957 6.12876 5.40054 6.20557 5.39658C6.28238 5.39262 6.44789 5.39658 6.44789 5.39658C6.51403 5.39658 6.57621 5.47095 6.60181 5.39658C6.62741 5.32221 6.59084 5.10336 6.60181 4.94883C6.61278 4.79429 6.66795 4.54923 6.66795 4.46938C6.66795 4.38952 6.67161 4.45871 6.60181 4.46938C6.53201 4.48004 6.24977 4.53338 6.24977 4.53338C6.16168 4.54923 6.08091 4.68243 6.07359 4.56386C6.06628 4.4453 6.14705 4.07923 6.20557 3.82869C6.26409 3.57814 6.37443 3.30656 6.42594 3.0615C6.47745 2.81644 6.4869 2.61375 6.51403 2.35802C6.54115 2.1023 6.58169 1.72404 6.58169 1.52683C6.58547 1.4062 6.563 1.28619 6.51586 1.17509C6.48538 1.09005 6.46069 1.03123 6.40552 1.01538C6.36655 1.00401 6.32514 1.00399 6.28616 1.01533C6.24718 1.02666 6.21224 1.04889 6.18545 1.07939C6.11169 1.15833 6.03854 1.21929 5.96508 1.49361C5.89163 1.76793 5.81116 2.31962 5.74502 2.74055C5.67888 3.16148 5.61304 3.70494 5.56884 4.02071C5.52465 4.33648 5.63498 4.46816 5.45881 4.59587Z" fill="white"/>
<path fill-rule="evenodd" clip-rule="evenodd" d="M7.24148 5.13981C7.15339 5.18248 7.25246 5.26173 7.24148 5.42754C7.23051 5.59335 7.21588 5.93381 7.17534 6.13102C7.1348 6.32822 7.05068 6.4663 6.99917 6.61047C6.94765 6.75464 6.86719 6.99421 6.86719 6.99421C6.92967 7.05273 7.14608 7.2286 7.24148 7.34595C7.33688 7.4633 7.37712 7.58583 7.4396 7.69769C7.50209 7.80955 7.57524 7.9266 7.61547 8.01743C7.64557 8.08938 7.66775 8.1644 7.68161 8.24115C7.6999 8.31552 7.70722 8.45939 7.72581 8.46487C7.7444 8.47036 7.7697 8.30516 7.79165 8.27316C7.81359 8.24115 7.74776 8.24115 7.85779 8.27316C7.96782 8.30516 8.30524 8.43836 8.45215 8.46487C8.59906 8.49139 8.61705 8.49688 8.73836 8.43287C8.85967 8.36886 9.07577 8.24633 9.17849 8.08113C9.28121 7.91593 9.31778 7.70836 9.35466 7.44105C9.39154 7.17374 9.39124 6.79091 9.39855 6.48184C9.40587 6.17278 9.40953 5.78903 9.39855 5.58665C9.38758 5.38426 9.35466 5.33092 9.33272 5.26691C9.31077 5.2029 9.32174 5.21357 9.26658 5.2029C9.21141 5.19223 9.00231 5.2029 9.00231 5.2029L8.27597 5.1709C8.07054 5.16572 7.93856 5.17638 7.7697 5.1709C7.60084 5.16541 7.32957 5.09744 7.24148 5.13981Z" fill="#E16D26"/>
<path d="M14.9453 0.768555H18.1869V4.43957H21.7293V0.768555H24.9851V11.2589H21.7293V7.01544H18.1869V11.2589H14.9453V0.768555Z" fill="#E16D26"/>
<path d="M33.5802 9.5273H29.8994L29.388 11.2589H26.0781L30.021 0.768555H33.5567L37.4987 11.2589H34.1044L33.5802 9.5273ZM32.9078 7.25897L31.7495 3.48768L30.6038 7.25897H32.9078Z" fill="#E16D26"/>
<path d="M38.1328 6.02108C38.1328 4.30851 38.6103 2.97511 39.5654 2.02088C40.5204 1.06665 41.849 0.589641 43.5512 0.589844C45.2971 0.589844 46.6424 1.05853 47.5871 1.99589C48.5318 2.93325 49.004 4.24633 49.0038 5.93513C49.0038 7.16144 48.7976 8.16728 48.3851 8.95265C47.9828 9.72668 47.3602 10.3641 46.5959 10.7845C45.816 11.221 44.844 11.4392 43.6799 11.4392C42.497 11.4392 41.5179 11.2508 40.7425 10.8741C39.9671 10.4974 39.3381 9.90048 38.8555 9.08341C38.3737 8.26797 38.1328 7.24719 38.1328 6.02108ZM41.3747 6.03541C41.3747 7.09469 41.5714 7.85557 41.9648 8.31806C42.3582 8.78054 42.8937 9.01198 43.5714 9.01239C44.2677 9.01239 44.8068 8.78572 45.1886 8.33238C45.5704 7.87904 45.7613 7.06563 45.761 5.89215C45.761 4.9048 45.5619 4.18344 45.1636 3.72807C44.7654 3.2727 44.2251 3.04481 43.5427 3.0444C42.8892 3.0444 42.3645 3.27585 41.9684 3.73874C41.5724 4.20163 41.3744 4.96718 41.3744 6.03541H41.3747Z" fill="#E16D26"/>
</g>
<defs>
<clipPath id="clip0_1598_21135">
<rect width="49" height="12.4904" fill="white"/>
</clipPath>
</defs>
</svg>
