<svg width="37" height="10" viewBox="0 0 37 10" fill="none" xmlns="http://www.w3.org/2000/svg">
<g clip-path="url(#clip0_2295_24408)">
<path d="M0.421875 0.527344V9.72167H9.61621V0.527344H0.421875ZM8.30276 8.81523H1.60406V1.63235H8.30276V8.81523Z" fill="#92C754"/>
<path d="M9.61894 0.527344H3.12891V7.88276H9.61894V0.527344Z" fill="#E16D26"/>
<path fill-rule="evenodd" clip-rule="evenodd" d="M4.4419 3.91048C4.31222 4.00471 3.90454 4.00023 3.74636 4.05183C3.58819 4.10344 3.54107 4.12632 3.487 4.21652C3.43292 4.30671 3.39725 4.49496 3.42215 4.593C3.43742 4.64277 3.46459 4.68806 3.5013 4.72496C3.53801 4.76187 3.58315 4.78927 3.63283 4.80481C3.72258 4.82837 3.8572 4.75769 3.95682 4.73413C4.05644 4.71057 4.17019 4.6832 4.23234 4.66368C4.29449 4.64416 4.31334 4.62038 4.32949 4.61656C4.34565 4.61275 4.32949 4.64012 4.32949 4.64012C4.32949 4.69105 4.32142 4.82837 4.32949 4.9226C4.33757 5.01683 4.33488 5.11084 4.37818 5.20485C4.42148 5.29886 4.52671 5.40095 4.58886 5.48733C4.65101 5.57371 4.71585 5.66391 4.75085 5.72269C4.77253 5.7594 4.78892 5.79898 4.79954 5.84026C4.76432 5.90757 4.68332 6.1187 4.58886 6.24031C4.4944 6.36191 4.35126 6.47971 4.23234 6.5699C4.11343 6.6601 3.96512 6.71507 3.87582 6.7817C3.78653 6.84834 3.71383 6.87975 3.69768 6.96995C3.68152 7.06014 3.7246 7.24457 3.77867 7.32288C3.83275 7.40118 3.94336 7.41262 4.02166 7.44067C4.09997 7.46872 4.16481 7.51516 4.2485 7.48779C4.33219 7.46041 4.42418 7.38189 4.52402 7.27598C4.62386 7.17008 4.75512 6.96681 4.84688 6.85238C4.93865 6.73795 5.01179 6.68747 5.07394 6.59346C5.13609 6.49945 5.21978 6.28742 5.21978 6.28742C5.27292 6.32963 5.32177 6.37698 5.36562 6.42877C5.44123 6.51852 5.60592 6.74289 5.67345 6.82882C5.74099 6.91475 5.74637 6.91498 5.7706 6.94639C5.79483 6.9778 5.80022 7.00517 5.81929 7.01707C5.83836 7.02896 5.84891 7.02088 5.88413 7.01707C5.91936 7.01325 6.00282 6.99732 6.02975 6.99351C6.05667 6.98969 6.02167 6.96591 6.04612 6.99351C6.07058 7.0211 6.11097 7.10726 6.17558 7.15819C6.25426 7.21842 6.34184 7.26604 6.43518 7.29932C6.54518 7.33705 6.65943 7.36102 6.77532 7.37067C6.88324 7.37852 6.96423 7.39311 7.08315 7.34711C7.20206 7.30111 7.38021 7.24906 7.48813 7.08819C7.59605 6.92732 7.68266 6.64125 7.73134 6.38233C7.78003 6.12341 7.76904 5.7743 7.77981 5.53512C7.79058 5.29595 7.80426 5.12722 7.79596 4.94661C7.78766 4.76599 7.73134 4.453 7.73134 4.453L7.90949 4.50012C8.00664 4.52255 8.23078 4.55105 8.31447 4.59413C8.39816 4.63721 8.3847 4.7274 8.41185 4.75881C8.439 4.79022 8.40646 4.79808 8.47669 4.78237C8.59932 4.75577 8.71882 4.71637 8.83321 4.6648C9.00601 4.58062 9.17368 4.4863 9.33534 4.38232C9.44618 4.30783 9.48926 4.26476 9.49734 4.21764C9.50541 4.17052 9.50833 4.14696 9.38403 4.09985C9.25973 4.05273 8.96805 3.98228 8.75199 3.93516C8.53592 3.88804 8.25255 3.8333 8.08764 3.81759C7.97913 3.80899 7.86994 3.81655 7.76365 3.84003C7.75558 3.80862 7.72035 3.69083 7.71497 3.65179C7.70958 3.61275 7.67727 3.67916 7.73134 3.60467C7.78542 3.53018 7.94449 3.34194 8.03918 3.20462C8.13386 3.06731 8.23617 2.93 8.29832 2.78102C8.36047 2.63204 8.41454 2.47902 8.41185 2.30985C8.40916 2.14067 8.393 1.9098 8.28216 1.76845C8.17133 1.6271 7.90074 1.51761 7.7475 1.46264C7.59426 1.40767 7.53143 1.42741 7.35867 1.43908C7.18591 1.45075 6.86708 1.4862 6.71047 1.53331C6.55387 1.58043 6.50518 1.63518 6.4188 1.72156C6.33242 1.80794 6.23773 1.96118 6.19196 2.05138C6.14619 2.14157 6.13251 2.1925 6.14328 2.26318C6.16096 2.34286 6.20024 2.41614 6.2568 2.47498C6.30168 2.51806 6.34049 2.56136 6.4188 2.5221C6.4971 2.48283 6.62073 2.31411 6.72663 2.23962C6.83253 2.16513 6.91846 2.10635 7.05061 2.07494C7.18277 2.04352 7.40175 2.04352 7.52066 2.0525C7.63958 2.06147 7.70958 2.06035 7.76365 2.12317C7.81772 2.186 7.83926 2.33498 7.84465 2.42899C7.85003 2.523 7.81234 2.61723 7.79596 2.68791C7.77958 2.75858 7.7825 2.79381 7.7475 2.85259C7.7125 2.91138 7.58551 3.04083 7.58551 3.04083C7.56307 3.00965 7.5072 2.9116 7.45582 2.85259C7.40242 2.79148 7.34262 2.73627 7.27745 2.68791C7.23977 2.65999 7.1948 2.64363 7.14799 2.64079C7.09392 2.63294 7.021 2.61342 6.95346 2.64079C6.88593 2.66816 6.76432 2.72313 6.74278 2.8057C6.72124 2.88827 6.78339 3.05654 6.82378 3.13507C6.86417 3.2136 6.92923 3.2293 6.98577 3.2762C7.04231 3.32309 7.11546 3.36258 7.16414 3.41755C7.21403 3.47215 7.25255 3.53614 7.27745 3.60579C7.30191 3.67624 7.30998 3.84115 7.30998 3.84115C7.22899 3.82926 7.00484 3.77384 6.82378 3.77048C6.64272 3.76711 6.22427 3.81759 6.22427 3.81759C6.06721 3.82926 5.94606 3.85686 5.88413 3.84003C5.82221 3.8232 5.88121 3.78102 5.8516 3.72224C5.82198 3.66345 5.77599 3.53018 5.70576 3.48688C5.63553 3.44357 5.49239 3.43595 5.43024 3.46332C5.36809 3.49069 5.35732 3.57707 5.33309 3.65179C5.30885 3.7265 5.29809 3.7458 5.2844 3.91048C5.27071 4.07517 5.26196 4.45188 5.25209 4.64012C5.24222 4.82837 5.2494 4.9226 5.21978 5.04017C5.19016 5.15774 5.07394 5.3462 5.07394 5.3462L4.89445 5.04017C4.84307 4.95379 4.78922 4.89119 4.76477 4.82837C4.74268 4.77641 4.73704 4.71894 4.74861 4.66368C4.75938 4.61275 4.78922 4.54993 4.82961 4.52233C4.86999 4.49473 4.93506 4.50281 4.9916 4.49989C5.04814 4.49698 5.16997 4.49989 5.16997 4.49989C5.21866 4.49989 5.26443 4.55464 5.28328 4.49989C5.30212 4.44515 5.2752 4.28405 5.28328 4.1703C5.29135 4.05654 5.33196 3.87615 5.33196 3.81737C5.33196 3.75858 5.33466 3.80952 5.28328 3.81737C5.2319 3.82522 5.02413 3.86449 5.02413 3.86449C4.95929 3.87615 4.89983 3.9742 4.89445 3.88692C4.88906 3.79964 4.94852 3.53018 4.9916 3.34575C5.03468 3.16132 5.1159 2.96141 5.15382 2.78102C5.19174 2.60063 5.19869 2.45142 5.21866 2.26318C5.23863 2.07494 5.26847 1.7965 5.26847 1.65133C5.27125 1.56253 5.25471 1.47419 5.22001 1.39241C5.19757 1.32981 5.1794 1.28651 5.13878 1.27484C5.1101 1.26647 5.07962 1.26646 5.05092 1.2748C5.02223 1.28315 4.99651 1.29951 4.97679 1.32196C4.9225 1.38007 4.86865 1.42494 4.81457 1.62687C4.7605 1.8288 4.70127 2.23491 4.65258 2.54476C4.60389 2.85461 4.55543 3.25466 4.5229 3.4871C4.49036 3.71954 4.57159 3.81647 4.4419 3.91048Z" fill="white"/>
<path fill-rule="evenodd" clip-rule="evenodd" d="M5.75209 4.31096C5.68724 4.34237 5.76016 4.40071 5.75209 4.52277C5.74401 4.64482 5.73324 4.89544 5.7034 5.0406C5.67356 5.18577 5.61163 5.28741 5.57371 5.39353C5.5358 5.49966 5.47656 5.67601 5.47656 5.67601C5.52256 5.71909 5.68186 5.84855 5.75209 5.93493C5.82231 6.02131 5.85193 6.11151 5.89792 6.19385C5.94392 6.27619 5.99777 6.36235 6.02738 6.42921C6.04954 6.48218 6.06586 6.5374 6.07607 6.5939C6.08953 6.64864 6.09492 6.75454 6.1086 6.75858C6.12229 6.76262 6.14091 6.64101 6.15707 6.61745C6.17322 6.5939 6.12476 6.5939 6.20575 6.61745C6.28675 6.64101 6.53513 6.73906 6.64327 6.75858C6.75142 6.7781 6.76465 6.78214 6.85395 6.73502C6.94325 6.68791 7.10232 6.59771 7.17794 6.4761C7.25355 6.3545 7.28047 6.2017 7.30762 6.00493C7.33477 5.80816 7.33454 5.52636 7.33993 5.29885C7.34531 5.07134 7.34801 4.78886 7.33993 4.63988C7.33185 4.49091 7.30762 4.45164 7.29147 4.40452C7.27531 4.35741 7.28339 4.36526 7.24278 4.35741C7.20217 4.34955 7.04825 4.35741 7.04825 4.35741L6.51359 4.33385C6.36236 4.33003 6.26521 4.33789 6.14091 4.33385C6.01661 4.32981 5.81693 4.27978 5.75209 4.31096Z" fill="#E16D26"/>
<path d="M11.4219 1.09277H13.808V3.79505H16.4156V1.09277H18.8123V8.81481H16.4156V5.69117H13.808V8.81481H11.4219V1.09277Z" fill="#E16D26"/>
<path d="M25.1434 7.54116H22.434L22.0575 8.81579H19.6211L22.5235 1.09375H25.1262L28.0279 8.81579H25.5293L25.1434 7.54116ZM24.6485 5.87142L23.7959 3.09533L22.9525 5.87142H24.6485Z" fill="#E16D26"/>
<path d="M28.4922 4.95991C28.4922 3.69926 28.8437 2.71773 29.5467 2.01532C30.2497 1.3129 31.2277 0.961765 32.4808 0.961914C33.7659 0.961914 34.7562 1.30692 35.4516 1.99692C36.147 2.68692 36.4946 3.65349 36.4945 4.89664C36.4945 5.79934 36.3426 6.53975 36.039 7.11787C35.7429 7.68764 35.2846 8.15688 34.722 8.46631C34.1479 8.78761 33.4324 8.94825 32.5754 8.94825C31.7047 8.94825 30.984 8.80959 30.4132 8.53228C29.8424 8.25496 29.3794 7.81557 29.0242 7.21412C28.6695 6.61387 28.4922 5.86246 28.4922 4.95991ZM30.8786 4.97045C30.8786 5.7502 31.0233 6.3103 31.3129 6.65074C31.6025 6.99118 31.9967 7.16155 32.4956 7.16184C33.0082 7.16184 33.405 6.99499 33.6861 6.66128C33.9671 6.32757 34.1076 5.72881 34.1074 4.865C34.1074 4.1382 33.9608 3.6072 33.6677 3.272C33.3745 2.93679 32.9768 2.76904 32.4745 2.76874C31.9934 2.76874 31.6071 2.93911 31.3156 3.27985C31.0241 3.62059 30.8783 4.18412 30.8783 4.97045H30.8786Z" fill="#E16D26"/>
</g>
<defs>
<clipPath id="clip0_2295_24408">
<rect width="36.0694" height="9.19433" fill="white" transform="translate(0.417969 0.527344)"/>
</clipPath>
</defs>
</svg>
