<svg width="57" height="11" viewBox="0 0 57 11" fill="none" xmlns="http://www.w3.org/2000/svg">
<path d="M14.0396 5.98986L14.1619 6.05942L14.2781 5.98986L14.5058 6.05942C14.5941 6.10116 14.7118 6.15062 14.8605 6.20936C15.0123 6.26501 15.2028 6.30984 15.4258 6.35157C15.6566 6.38867 15.9385 6.40722 16.2716 6.40722C16.5163 6.40722 16.775 6.38867 17.0522 6.35157C17.3341 6.30984 17.5943 6.2341 17.8375 6.12125C18.0776 6.00996 18.279 5.85847 18.4385 5.66525C18.6027 5.46894 18.6863 5.22007 18.6863 4.91555C18.6863 4.65123 18.6321 4.43327 18.5284 4.27251C18.4277 4.10866 18.2898 3.97727 18.121 3.88453C17.9537 3.78251 17.7647 3.71449 17.5448 3.67121C17.3341 3.62638 17.1157 3.59238 16.8942 3.57537C16.6665 3.55682 16.4497 3.54137 16.2297 3.53209C16.0175 3.51818 15.827 3.49345 15.6566 3.45944C15.4924 3.42389 15.3546 3.37442 15.2477 3.30177C15.1501 3.23221 15.1006 3.1271 15.1006 2.98489C15.1006 2.88441 15.1346 2.80249 15.2043 2.73757C15.2802 2.66955 15.3747 2.61081 15.4878 2.57062C15.6009 2.53043 15.7232 2.49952 15.858 2.48251C15.9989 2.45933 16.1368 2.44696 16.2638 2.44696C16.4357 2.44696 16.6061 2.46396 16.7781 2.49952C16.9484 2.53043 17.108 2.57062 17.2567 2.62472C17.4023 2.67574 17.5293 2.73757 17.6331 2.80713C17.7461 2.87359 17.8267 2.94006 17.8747 3.00962L17.9429 3.21212L18.0296 3.24922L18.6414 2.14863L18.5376 2.07752L18.3595 2.13008C18.2836 2.13008 18.1829 2.10535 18.0652 2.06052C17.9537 2.01415 17.8143 1.96314 17.6439 1.91212C17.4797 1.85648 17.2815 1.80701 17.0522 1.76064C16.8214 1.71272 16.5519 1.68799 16.239 1.68799C15.8735 1.68799 15.556 1.73282 15.2849 1.82247C15.0123 1.9044 14.7877 2.01415 14.6127 2.14863C14.4361 2.28156 14.3044 2.44078 14.2161 2.61545C14.1325 2.79012 14.0907 2.96943 14.0907 3.15338C14.0907 3.42389 14.1449 3.64339 14.2409 3.81497C14.3493 3.97727 14.4856 4.10866 14.6498 4.20759C14.8187 4.30343 15.0123 4.37299 15.2229 4.41163C15.4382 4.45182 15.6613 4.48583 15.8859 4.50129C16.1089 4.51829 16.3273 4.53375 16.5395 4.54612C16.7564 4.55075 16.9484 4.5693 17.1126 4.59713C17.2846 4.62804 17.4178 4.67596 17.5216 4.73934C17.6253 4.80271 17.6795 4.90319 17.6795 5.03767C17.6795 5.1737 17.6222 5.28345 17.5107 5.36383C17.3992 5.4473 17.2675 5.51068 17.1126 5.56014C16.9608 5.60651 16.8059 5.63588 16.6433 5.65443C16.4853 5.6668 16.3568 5.67453 16.2561 5.67453C16.1213 5.67453 15.9664 5.66062 15.7976 5.6297C15.6288 5.5926 15.4599 5.54932 15.3035 5.49676C15.1501 5.44421 15.0123 5.38547 14.8884 5.32209C14.7706 5.24944 14.6932 5.18297 14.6498 5.10878L14.6127 4.96811L14.5244 4.92328L14.0396 5.98986Z" fill="#174682"/>
<path d="M19.8636 4.75634H22.2335V6.08724L22.1839 6.1939L22.0972 6.22018V6.37939H23.2124V6.22018L23.1117 6.1939L23.0807 6.08724V2.79012L23.1117 2.69428L23.2124 2.65718V2.49951H22.0972V2.65718L22.1839 2.69428L22.2335 2.79012V4.03292H19.8636V2.79012L19.8961 2.69428L19.9937 2.65718V2.49951H18.8816V2.65718L18.9714 2.69428L19.0148 2.79012V6.08724L18.9714 6.1939L18.8816 6.22018V6.37939H19.9937V6.22018L19.8961 6.1939L19.8636 6.08724" fill="#174682"/>
<path d="M27.2505 3.31408V2.33716H27.0925C27.0925 2.44227 27.0011 2.49637 26.8183 2.49637H23.6802V2.65095L23.7685 2.68959L23.8134 2.78389V6.08101L23.7685 6.18767L23.6802 6.21395V6.37316H26.9236L27.0987 6.38244L27.1715 6.47055H27.3295V5.54463H27.1715L27.0987 5.67757L26.9236 5.72239H24.6622V4.679H25.9525C26.0686 4.679 26.1585 4.69137 26.2251 4.70837L26.2932 4.82276H26.4729V3.88757H26.3103L26.2421 4.01123C26.1972 4.02359 26.1244 4.02823 26.0222 4.02823H24.6622V3.15023H26.8183C27.0011 3.15023 27.0925 3.20124 27.0925 3.31408H27.2505Z" fill="#174682"/>
<path d="M27.605 6.37939H28.6939V6.22018C28.5715 6.22018 28.5065 6.1769 28.5065 6.08724V3.52281L30.7013 5.84919L30.8841 6.05169L30.9724 6.1769L30.9135 6.22018V6.37939H32.0582V6.22018C31.9544 6.22018 31.9017 6.1769 31.9017 6.08724V2.79012C31.9017 2.7051 31.9544 2.65718 32.0582 2.65718V2.49951H30.9817V2.65718C31.0994 2.65718 31.1598 2.7051 31.1598 2.79012V5.18142L29.0408 2.94006C28.9092 2.81021 28.8441 2.73292 28.8441 2.7051L28.9061 2.65718V2.49951H27.605V2.65718C27.715 2.65718 27.7676 2.7051 27.7676 2.79012V6.08724C27.7676 6.1769 27.715 6.22018 27.605 6.22018V6.37939Z" fill="#174682"/>
<path d="M36.4836 2.83339L36.3767 2.78083L36.2884 2.84421L36.1815 2.85348L35.9972 2.79165C35.9136 2.75301 35.8051 2.70663 35.6704 2.65872C35.5418 2.61234 35.3854 2.56751 35.2103 2.52733C35.0307 2.48559 34.8308 2.4624 34.6001 2.4624C34.2206 2.4624 33.8705 2.51032 33.5576 2.60616C33.2525 2.69427 32.9907 2.82257 32.7723 3.00342C32.5617 3.17346 32.3975 3.38059 32.2798 3.631C32.1667 3.86905 32.1094 4.14265 32.1094 4.4549C32.1094 4.76714 32.1667 5.04693 32.2798 5.29271C32.3975 5.53539 32.5617 5.74098 32.7723 5.91101C32.9907 6.08105 33.2525 6.20935 33.5576 6.299C33.8705 6.38247 34.2206 6.42576 34.6001 6.42576C34.8835 6.42576 35.1406 6.40721 35.3683 6.37011C35.5991 6.32992 35.7974 6.28045 35.9724 6.22171C36.1474 6.15988 36.2899 6.10269 36.4046 6.04395C36.5223 5.97903 36.6044 5.92802 36.6586 5.89401V5.78735L36.544 5.72707L36.5269 5.61114V4.77487L36.5533 4.64194L36.6586 4.56156V4.40389H34.9284L34.7565 4.37761L34.6713 4.26168H34.5118V5.17214H34.6713L34.7565 5.02993L34.9284 4.9851H35.8392V5.54158C35.6471 5.64205 35.4411 5.70852 35.2103 5.74253C34.9873 5.77962 34.7488 5.79972 34.4963 5.79972C34.3243 5.79972 34.1462 5.77344 33.965 5.72707C33.7822 5.6776 33.6134 5.6065 33.4616 5.50757C33.3175 5.39782 33.1952 5.26488 33.1007 5.10103C33.0062 4.92945 32.9566 4.72232 32.9566 4.47345C32.9566 4.22922 33.0016 4.02054 33.0914 3.84896C33.1781 3.67892 33.299 3.54135 33.4446 3.43315C33.5886 3.32185 33.7621 3.24456 33.9557 3.19664C34.1509 3.14409 34.3584 3.11626 34.5737 3.11626C34.7348 3.11626 34.8897 3.13636 35.0446 3.17036C35.201 3.19819 35.3451 3.24147 35.4675 3.29248C35.5898 3.34658 35.6905 3.40687 35.7664 3.4687L35.881 3.63719L35.864 3.73148L35.9724 3.7964L36.4836 2.83339Z" fill="#174682"/>
<path d="M36.8445 6.00842L36.9668 6.07798L37.0846 6.00842L37.3138 6.07798C37.399 6.11817 37.5214 6.16763 37.667 6.22792C37.8203 6.28202 38.0062 6.32994 38.2323 6.37013C38.4616 6.40723 38.745 6.42423 39.0796 6.42423C39.3212 6.42423 39.5799 6.40723 39.8587 6.37013C40.1406 6.32994 40.4039 6.25111 40.644 6.1429C40.8856 6.02851 41.087 5.87548 41.245 5.68226C41.4076 5.48904 41.4897 5.24326 41.4897 4.93256C41.4897 4.66978 41.4371 4.45183 41.3317 4.28798C41.2342 4.12413 41.0963 3.99583 40.9244 3.90154C40.7633 3.80106 40.5681 3.7315 40.3513 3.68977C40.1406 3.64185 39.9222 3.60939 39.6961 3.59084C39.4746 3.57538 39.2515 3.55837 39.0362 3.54755C38.824 3.53828 38.6335 3.51355 38.4616 3.478C38.2958 3.4409 38.1595 3.38989 38.0542 3.32033C37.9551 3.24922 37.904 3.14411 37.904 3.00344C37.904 2.89988 37.9411 2.82104 38.0093 2.75612C38.0852 2.68656 38.1812 2.63091 38.2958 2.58609C38.4043 2.54744 38.5282 2.51807 38.6645 2.49798C38.8023 2.47634 38.9417 2.46242 39.0703 2.46242C39.2407 2.46242 39.4126 2.48252 39.5845 2.51807C39.7549 2.54744 39.9114 2.58609 40.0585 2.63864C40.2057 2.69429 40.3327 2.75612 40.4396 2.82259C40.5511 2.88906 40.6316 2.95862 40.6781 3.02818L40.7478 3.23067L40.8376 3.26622L41.4479 2.16409L41.341 2.09453L41.166 2.14709C41.087 2.14709 40.9925 2.1239 40.8764 2.07753C40.7633 2.03115 40.6177 1.98014 40.4473 1.9245C40.2831 1.87349 40.0864 1.82402 39.8587 1.77765C39.6279 1.72973 39.3584 1.70654 39.0455 1.70654C38.6784 1.70654 38.3609 1.74828 38.0914 1.83793C37.8203 1.91986 37.5957 2.03115 37.4191 2.16409C37.2426 2.30012 37.1109 2.4547 37.0226 2.63091C36.9405 2.80559 36.8971 2.98799 36.8971 3.17039C36.8971 3.4409 36.9498 3.6604 37.0489 3.83198C37.1558 3.99583 37.2906 4.12722 37.4548 4.22924C37.6267 4.32198 37.8203 4.39 38.0294 4.43019C38.2463 4.47038 38.4693 4.49975 38.6955 4.5183C38.9154 4.5353 39.1338 4.55076 39.3445 4.56158C39.5644 4.56931 39.7549 4.58631 39.9176 4.61723C40.0895 4.6435 40.2274 4.69142 40.3249 4.75635C40.4303 4.82127 40.4829 4.9202 40.4829 5.05623C40.4829 5.19225 40.4287 5.29891 40.3203 5.38238C40.2041 5.46276 40.0725 5.53078 39.9176 5.57715C39.7642 5.62352 39.6109 5.65444 39.4513 5.67453C39.2933 5.68535 39.1632 5.68999 39.061 5.68999C38.9278 5.68999 38.7714 5.67608 38.6041 5.64826C38.4337 5.61116 38.2664 5.56633 38.1084 5.51377C37.9551 5.46122 37.8203 5.40402 37.6933 5.33756C37.5771 5.26954 37.4935 5.19998 37.4548 5.12424L37.4191 4.98357L37.3324 4.94184L36.8445 6.00842Z" fill="#174682"/>
<path d="M41.5376 6.37939H42.8774V6.22018C42.7163 6.22018 42.6327 6.1769 42.6327 6.08724V2.79012C42.6327 2.7051 42.7163 2.65718 42.8774 2.65718V2.49951H41.5376V2.65718L41.7312 2.69428L41.7823 2.79012V6.08724L41.7312 6.1939L41.5376 6.22018V6.37939Z" fill="#174682"/>
<path fill-rule="evenodd" clip-rule="evenodd" d="M45.2969 3.11472C45.4843 3.11472 45.664 3.15027 45.8437 3.21519C46.028 3.27239 46.1875 3.36049 46.3285 3.47797C46.4695 3.58772 46.581 3.72839 46.6631 3.89224C46.7545 4.05609 46.7978 4.24622 46.7978 4.4549C46.7978 4.66822 46.7545 4.85371 46.6631 5.02065C46.581 5.18605 46.4695 5.32671 46.3285 5.44419C46.1875 5.55394 46.028 5.64205 45.8437 5.70852C45.664 5.76726 45.4843 5.79972 45.2969 5.79972C45.1079 5.79972 44.9236 5.76726 44.7393 5.70852C44.5627 5.64205 44.4032 5.55394 44.2607 5.44419C44.1213 5.32671 44.0067 5.18605 43.9168 5.02065C43.8347 4.85371 43.7929 4.66822 43.7929 4.4549C43.7929 4.24622 43.8347 4.05609 43.9168 3.89224C44.0067 3.72839 44.1213 3.58772 44.2607 3.47797C44.4032 3.36049 44.5627 3.27239 44.7393 3.21519C44.9236 3.15027 45.1079 3.11472 45.2969 3.11472ZM45.2969 2.4624C44.9701 2.4624 44.6665 2.50414 44.3784 2.58606C44.0949 2.66954 43.8502 2.7932 43.6334 2.95859C43.4243 3.12245 43.257 3.33267 43.1331 3.58309C43.0091 3.83195 42.9487 4.12101 42.9487 4.4549C42.9487 4.79188 43.0091 5.08712 43.1331 5.33753C43.257 5.58486 43.4243 5.7889 43.6334 5.95584C43.8502 6.1166 44.0949 6.24026 44.3784 6.3191C44.6665 6.38711 44.9701 6.42421 45.2969 6.42421C45.6222 6.42421 45.9258 6.38711 46.2046 6.3191C46.4942 6.24026 46.7436 6.1166 46.9543 5.95584C47.168 5.7889 47.3369 5.58486 47.4623 5.33753C47.5831 5.08712 47.6435 4.79188 47.6435 4.4549C47.6435 4.12101 47.5831 3.83195 47.4623 3.58309C47.3369 3.33267 47.168 3.12245 46.9543 2.95859C46.7436 2.7932 46.4942 2.66954 46.2046 2.58606C45.9258 2.50414 45.6222 2.4624 45.2969 2.4624Z" fill="#174682"/>
<path d="M47.783 6.37939H48.8672V6.22018C48.7464 6.22018 48.6829 6.1769 48.6829 6.08724V3.52281L50.8715 5.84919L51.0605 6.05169L51.1488 6.1769L51.0853 6.22018V6.37939H52.233V6.22018C52.1293 6.22018 52.0735 6.1769 52.0735 6.08724V2.79012C52.0735 2.7051 52.1293 2.65718 52.233 2.65718V2.49951H51.155V2.65718C51.2743 2.65718 51.3316 2.7051 51.3316 2.79012V5.18142L49.2126 2.94006C49.0841 2.81021 49.0159 2.73292 49.0159 2.7051L49.0794 2.65718V2.49951H47.783V2.65718C47.8883 2.65718 47.941 2.7051 47.941 2.79012V6.08724C47.941 6.1769 47.8883 6.22018 47.783 6.22018V6.37939Z" fill="#174682"/>
<path d="M56.6118 2.83339L56.5065 2.78083L56.4213 2.84421L56.3129 2.85348L56.127 2.79165C56.0449 2.75301 55.9349 2.70663 55.8002 2.65872C55.6716 2.61234 55.5198 2.56751 55.3401 2.52733C55.1651 2.48559 54.9606 2.4624 54.7299 2.4624C54.3488 2.4624 54.0019 2.51032 53.689 2.60616C53.3838 2.69427 53.1205 2.82257 52.9052 3.00342C52.693 3.17346 52.5257 3.38059 52.4096 3.631C52.2965 3.86905 52.2407 4.14265 52.2407 4.4549C52.2407 4.76714 52.2965 5.04693 52.4096 5.29271C52.5257 5.53539 52.693 5.74098 52.9052 5.91101C53.1205 6.08105 53.3838 6.20935 53.689 6.299C54.0019 6.38247 54.3488 6.42576 54.7299 6.42576C55.0133 6.42576 55.2689 6.40721 55.5012 6.37011C55.7289 6.32992 55.9287 6.28045 56.1022 6.22171C56.2772 6.15988 56.4213 6.10269 56.5297 6.04395C56.6521 5.97903 56.7373 5.92802 56.7884 5.89401V5.78735L56.6769 5.72707L56.6598 5.61114V4.77487L56.6815 4.64194L56.7884 4.56156V4.40389H55.0582L54.8909 4.37761L54.8058 4.26168H54.64V5.17214H54.8058L54.8909 5.02993L55.0582 4.9851H55.969V5.54158C55.7785 5.64205 55.5725 5.70852 55.3401 5.74253C55.1155 5.77962 54.877 5.79972 54.623 5.79972C54.4541 5.79972 54.2776 5.77344 54.0963 5.72707C53.9089 5.6776 53.7447 5.6065 53.5898 5.50757C53.4442 5.39782 53.325 5.26488 53.2305 5.10103C53.1345 4.92945 53.0895 4.72232 53.0895 4.47345C53.0895 4.22922 53.1329 4.02054 53.2227 3.84896C53.3079 3.67892 53.4272 3.54135 53.5728 3.43315C53.7215 3.32185 53.8965 3.24456 54.0855 3.19664C54.2807 3.14409 54.4882 3.11626 54.7051 3.11626C54.8615 3.11626 55.0211 3.13636 55.1744 3.17036C55.3339 3.19819 55.4764 3.24147 55.5973 3.29248C55.7196 3.34658 55.8219 3.40687 55.8978 3.4687L56.0108 3.63719L55.9953 3.73148L56.1022 3.7964L56.6118 2.83339Z" fill="#174682"/>
<path d="M0 5.12903C0 2.29563 2.29862 0.00170898 5.13781 0.00170898C7.97235 0.00170898 10.2725 2.29563 10.2725 5.12903C10.2725 7.95778 7.97235 10.2517 5.13781 10.2517C2.29862 10.2517 0 7.95778 0 5.12903ZM8.85215 7.17717H1.42037C2.14372 8.48025 3.53621 9.36134 5.13781 9.36134C6.73321 9.36134 8.12725 8.48025 8.85215 7.17717ZM1.12762 6.52486H9.14335C9.29669 6.08586 9.37878 5.61749 9.37878 5.12903C9.37878 2.78873 7.47979 0.893618 5.13781 0.893618C2.79118 0.893618 0.892185 2.78873 0.892185 5.12903C0.892185 5.61749 0.974278 6.08586 1.12762 6.52486Z" fill="#174682"/>
<path d="M7.48456 2.39922H2.87029V3.21539H7.48456V2.39922ZM2.87029 4.71942H7.48456V3.91253H2.87029V4.71942ZM6.61096 9.42938V5.38565L2.16553 5.39183V1.73608H8.21411V5.38565H7.31418V9.42938" fill="#174682"/>
<path d="M2.87788 3.2092H7.47821V2.40695H2.87788V3.2092ZM2.86085 3.22466V2.39149H7.48441H7.4937V3.22466H2.86085ZM2.87788 4.71169H7.47821V3.92335H2.87788V4.71169ZM2.87014 4.7256H2.86085V3.90325H7.4937V4.7256H2.87014ZM7.30783 9.42165V5.37637H8.20466V1.74226H2.17622L2.17312 5.38719L6.61701 5.37637V9.42165H7.30783ZM6.61081 9.43865H6.60152V5.39028L2.15918 5.40419L2.16073 1.72681H8.22015V5.39028H7.32487V9.43865" fill="#174682"/>
<path d="M3.3613 5.33146L4.04438 5.32373V7.40897C4.03508 8.23905 3.63856 8.97484 3.03292 9.44475L2.35449 9.07995C2.88887 8.7878 3.27766 8.24523 3.35355 7.60992L3.3613 5.33146Z" fill="#174682"/>
<path d="M0.783691 6.53878L1.43114 7.18336H1.98256L4.6808 4.503L4.08137 3.90942L1.70531 6.26208L1.38623 5.93129" fill="#84BD54"/>
</svg>
