<svg width="1195" height="41" viewBox="0 0 1195 41" fill="none" xmlns="http://www.w3.org/2000/svg">
<g clip-path="url(#clip0)">
<g clip-path="url(#clip1)">
<rect x="-201" y="-394" width="1440" height="900" fill="white"/>
<rect x="-201" y="-391" width="1440" height="900" fill="#F3F5F6"/>
<g filter="url(#filter0_dd)">
<rect y="-241" width="1199" height="717" rx="8" fill="white"/>
</g>
<g clip-path="url(#clip2)">
<line x1="15" y1="40.5" x2="179" y2="40.5" stroke="#DDE1E6"/>
</g>
<path d="M34.18 25.12C33.34 25.12 32.708 24.848 32.284 24.304C31.868 23.76 31.644 23.072 31.612 22.24L31.6 21.88L31.612 21.52C31.644 20.696 31.872 20.012 32.296 19.468C32.72 18.916 33.348 18.64 34.18 18.64C35.012 18.64 35.66 18.936 36.124 19.528V16.756C36.124 16.676 36.148 16.612 36.196 16.564C36.252 16.508 36.32 16.48 36.4 16.48H36.94C37.02 16.48 37.084 16.508 37.132 16.564C37.188 16.612 37.216 16.676 37.216 16.756V24.724C37.216 24.804 37.188 24.872 37.132 24.928C37.084 24.976 37.02 25 36.94 25H36.424C36.344 25 36.28 24.976 36.232 24.928C36.184 24.872 36.16 24.804 36.16 24.724V24.208C35.704 24.816 35.044 25.12 34.18 25.12ZM34.408 24.184C34.968 24.184 35.388 24 35.668 23.632C35.948 23.256 36.1 22.812 36.124 22.3C36.132 22.212 36.136 22.06 36.136 21.844C36.136 21.62 36.132 21.464 36.124 21.376C36.108 20.888 35.952 20.468 35.656 20.116C35.368 19.756 34.952 19.576 34.408 19.576C33.832 19.576 33.412 19.756 33.148 20.116C32.884 20.476 32.74 20.948 32.716 21.532L32.704 21.88C32.704 23.416 33.272 24.184 34.408 24.184ZM43.537 27.28C43.457 27.28 43.389 27.256 43.333 27.208C43.285 27.16 43.261 27.092 43.261 27.004V24.208C42.805 24.816 42.157 25.12 41.317 25.12C40.477 25.12 39.845 24.852 39.421 24.316C38.997 23.78 38.773 23.104 38.749 22.288L38.737 21.88L38.749 21.472C38.781 20.648 39.005 19.972 39.421 19.444C39.845 18.908 40.477 18.64 41.317 18.64C42.181 18.64 42.837 18.948 43.285 19.564V19.036C43.285 18.956 43.309 18.892 43.357 18.844C43.413 18.788 43.481 18.76 43.561 18.76H44.077C44.157 18.76 44.221 18.788 44.269 18.844C44.325 18.892 44.353 18.956 44.353 19.036V27.004C44.353 27.084 44.325 27.148 44.269 27.196C44.221 27.252 44.157 27.28 44.077 27.28H43.537ZM41.545 24.184C42.089 24.184 42.505 24.008 42.793 23.656C43.089 23.296 43.245 22.872 43.261 22.384C43.269 22.296 43.273 22.14 43.273 21.916C43.273 21.692 43.269 21.536 43.261 21.448C43.237 20.936 43.085 20.496 42.805 20.128C42.525 19.76 42.105 19.576 41.545 19.576C40.969 19.576 40.549 19.756 40.285 20.116C40.021 20.476 39.877 20.948 39.853 21.532L39.841 21.88C39.841 23.416 40.409 24.184 41.545 24.184ZM48.802 25.12C48.178 25.12 47.638 25.02 47.182 24.82C46.726 24.612 46.378 24.344 46.138 24.016C45.906 23.688 45.782 23.348 45.766 22.996C45.766 22.924 45.79 22.868 45.838 22.828C45.886 22.78 45.946 22.756 46.018 22.756H46.558C46.646 22.756 46.718 22.776 46.774 22.816C46.83 22.848 46.874 22.916 46.906 23.02C47.01 23.428 47.234 23.716 47.578 23.884C47.93 24.052 48.342 24.136 48.814 24.136C49.39 24.136 49.846 24 50.182 23.728C50.526 23.448 50.698 23.052 50.698 22.54C50.698 21.564 50.102 21.076 48.91 21.076H47.782C47.702 21.076 47.634 21.052 47.578 21.004C47.53 20.948 47.506 20.88 47.506 20.8V20.488C47.506 20.368 47.55 20.264 47.638 20.176L49.978 17.584H46.426C46.346 17.584 46.278 17.56 46.222 17.512C46.174 17.464 46.15 17.4 46.15 17.32V16.888C46.15 16.8 46.174 16.732 46.222 16.684C46.278 16.628 46.346 16.6 46.426 16.6H51.178C51.266 16.6 51.334 16.628 51.382 16.684C51.438 16.732 51.466 16.8 51.466 16.888V17.284C51.466 17.372 51.426 17.464 51.346 17.56L49.006 20.188H49.198C50.014 20.212 50.658 20.424 51.13 20.824C51.61 21.224 51.85 21.808 51.85 22.576C51.85 23.104 51.718 23.56 51.454 23.944C51.198 24.32 50.838 24.612 50.374 24.82C49.91 25.02 49.386 25.12 48.802 25.12ZM53.5979 25C53.5179 25 53.4499 24.976 53.3939 24.928C53.3459 24.872 53.3219 24.804 53.3219 24.724V19.048C53.3219 18.968 53.3459 18.9 53.3939 18.844C53.4499 18.788 53.5179 18.76 53.5979 18.76H54.1019C54.1899 18.76 54.2579 18.788 54.3059 18.844C54.3619 18.892 54.3899 18.96 54.3899 19.048V19.576C54.7179 19.032 55.2739 18.76 56.0579 18.76H56.5259C56.6139 18.76 56.6819 18.784 56.7299 18.832C56.7779 18.88 56.8019 18.948 56.8019 19.036V19.48C56.8019 19.56 56.7779 19.628 56.7299 19.684C56.6819 19.732 56.6139 19.756 56.5259 19.756H55.8419C55.4019 19.756 55.0539 19.884 54.7979 20.14C54.5499 20.396 54.4259 20.744 54.4259 21.184V24.724C54.4259 24.804 54.3979 24.872 54.3419 24.928C54.2859 24.976 54.2179 25 54.1379 25H53.5979ZM57.7976 25C57.7176 25 57.6496 24.976 57.5936 24.928C57.5456 24.872 57.5216 24.804 57.5216 24.724V24.364C57.5216 24.18 57.6216 24.004 57.8216 23.836L60.4376 21.232C61.0296 20.728 61.4376 20.316 61.6616 19.996C61.8856 19.676 61.9976 19.336 61.9976 18.976C61.9976 18.504 61.8656 18.136 61.6016 17.872C61.3376 17.6 60.9536 17.464 60.4496 17.464C59.9696 17.464 59.5896 17.604 59.3096 17.884C59.0296 18.164 58.8576 18.54 58.7936 19.012C58.7776 19.1 58.7376 19.168 58.6736 19.216C58.6096 19.264 58.5456 19.288 58.4816 19.288H57.9056C57.8336 19.288 57.7736 19.264 57.7256 19.216C57.6776 19.168 57.6536 19.112 57.6536 19.048C57.6696 18.624 57.7816 18.216 57.9896 17.824C58.2056 17.424 58.5216 17.1 58.9376 16.852C59.3536 16.596 59.8576 16.468 60.4496 16.468C61.3456 16.468 62.0176 16.704 62.4656 17.176C62.9216 17.64 63.1496 18.232 63.1496 18.952C63.1496 19.456 63.0256 19.912 62.7776 20.32C62.5376 20.72 62.1576 21.144 61.6376 21.592L59.2736 23.992H63.0536C63.1416 23.992 63.2096 24.016 63.2576 24.064C63.3056 24.112 63.3296 24.18 63.3296 24.268V24.724C63.3296 24.804 63.3016 24.872 63.2456 24.928C63.1976 24.976 63.1336 25 63.0536 25H57.7976ZM67.3734 27.64C66.7094 27.64 66.1774 27.528 65.7774 27.304C65.3774 27.08 65.0934 26.824 64.9254 26.536C64.7654 26.248 64.6854 26 64.6854 25.792C64.6854 25.72 64.7134 25.656 64.7694 25.6C64.8254 25.552 64.8894 25.528 64.9614 25.528H65.4894C65.5614 25.528 65.6214 25.544 65.6694 25.576C65.7174 25.616 65.7574 25.684 65.7894 25.78C66.0134 26.42 66.5214 26.74 67.3134 26.74C67.9134 26.74 68.3574 26.612 68.6454 26.356C68.9334 26.1 69.0774 25.648 69.0774 25V24.172C68.6134 24.764 67.9654 25.06 67.1334 25.06C66.2854 25.06 65.6494 24.788 65.2254 24.244C64.8094 23.7 64.5894 23.012 64.5654 22.18L64.5534 21.844L64.5654 21.52C64.5894 20.696 64.8094 20.012 65.2254 19.468C65.6494 18.916 66.2854 18.64 67.1334 18.64C67.9734 18.64 68.6294 18.948 69.1014 19.564V19.048C69.1014 18.968 69.1254 18.9 69.1734 18.844C69.2294 18.788 69.2974 18.76 69.3774 18.76H69.8934C69.9734 18.76 70.0374 18.788 70.0854 18.844C70.1414 18.9 70.1694 18.968 70.1694 19.048V24.868C70.1694 26.716 69.2374 27.64 67.3734 27.64ZM67.3494 24.124C67.9094 24.124 68.3294 23.944 68.6094 23.584C68.8974 23.216 69.0534 22.776 69.0774 22.264C69.0854 22.192 69.0894 22.052 69.0894 21.844C69.0894 21.644 69.0854 21.508 69.0774 21.436C69.0534 20.924 68.8974 20.488 68.6094 20.128C68.3294 19.76 67.9094 19.576 67.3494 19.576C66.7734 19.576 66.3534 19.76 66.0894 20.128C65.8334 20.488 65.6934 20.956 65.6694 21.532L65.6574 21.844L65.6694 22.168C65.6934 22.744 65.8334 23.216 66.0894 23.584C66.3534 23.944 66.7734 24.124 67.3494 24.124ZM74.1501 25C73.9421 25 73.7941 24.9 73.7061 24.7L71.4741 19.132C71.4661 19.108 71.4621 19.068 71.4621 19.012C71.4621 18.94 71.4861 18.88 71.5341 18.832C71.5821 18.784 71.6381 18.76 71.7021 18.76H72.2541C72.3821 18.76 72.4781 18.824 72.5421 18.952L74.3901 23.74L76.2381 18.952C76.2541 18.904 76.2861 18.86 76.3341 18.82C76.3901 18.78 76.4541 18.76 76.5261 18.76H77.0781C77.1421 18.76 77.1981 18.784 77.2461 18.832C77.2941 18.88 77.3181 18.94 77.3181 19.012L77.2941 19.132L75.0741 24.7C74.9861 24.9 74.8381 25 74.6301 25H74.1501ZM78.8752 25C78.7952 25 78.7272 24.976 78.6712 24.928C78.6232 24.872 78.5992 24.804 78.5992 24.724V19.048C78.5992 18.968 78.6232 18.9 78.6712 18.844C78.7272 18.788 78.7952 18.76 78.8752 18.76H79.3792C79.4672 18.76 79.5352 18.788 79.5832 18.844C79.6392 18.892 79.6672 18.96 79.6672 19.048V19.576C79.9952 19.032 80.5512 18.76 81.3352 18.76H81.8032C81.8912 18.76 81.9592 18.784 82.0072 18.832C82.0552 18.88 82.0792 18.948 82.0792 19.036V19.48C82.0792 19.56 82.0552 19.628 82.0072 19.684C81.9592 19.732 81.8912 19.756 81.8032 19.756H81.1192C80.6792 19.756 80.3312 19.884 80.0752 20.14C79.8272 20.396 79.7032 20.744 79.7032 21.184V24.724C79.7032 24.804 79.6752 24.872 79.6192 24.928C79.5632 24.976 79.4952 25 79.4152 25H78.8752ZM84.7669 25C84.6549 25 84.5709 24.976 84.5149 24.928C84.4589 24.88 84.4149 24.804 84.3829 24.7L82.6789 19.132L82.6549 19.012C82.6549 18.94 82.6789 18.88 82.7269 18.832C82.7749 18.784 82.8349 18.76 82.9069 18.76H83.3989C83.4789 18.76 83.5429 18.784 83.5909 18.832C83.6469 18.872 83.6789 18.912 83.6869 18.952L85.0429 23.536L86.4829 19.012C86.4989 18.948 86.5349 18.892 86.5909 18.844C86.6469 18.788 86.7229 18.76 86.8189 18.76H87.2029C87.2989 18.76 87.3749 18.788 87.4309 18.844C87.4869 18.892 87.5229 18.948 87.5389 19.012L88.9789 23.536L90.3349 18.952C90.3429 18.912 90.3709 18.872 90.4189 18.832C90.4749 18.784 90.5429 18.76 90.6229 18.76H91.1149C91.1869 18.76 91.2469 18.784 91.2949 18.832C91.3429 18.88 91.3669 18.94 91.3669 19.012L91.3429 19.132L89.6389 24.7C89.6069 24.804 89.5629 24.88 89.5069 24.928C89.4509 24.976 89.3669 25 89.2549 25H88.8229C88.6149 25 88.4789 24.9 88.4149 24.7L87.0109 20.356L85.6069 24.7C85.5429 24.9 85.4069 25 85.1989 25H84.7669ZM92.9966 25C92.9166 25 92.8486 24.976 92.7926 24.928C92.7446 24.872 92.7206 24.804 92.7206 24.724V16.756C92.7206 16.668 92.7446 16.6 92.7926 16.552C92.8486 16.504 92.9166 16.48 92.9966 16.48H93.5486C93.6366 16.48 93.7046 16.504 93.7526 16.552C93.8006 16.6 93.8246 16.668 93.8246 16.756V19.552C94.0566 19.256 94.3286 19.032 94.6406 18.88C94.9606 18.72 95.3526 18.64 95.8166 18.64C96.5846 18.64 97.1806 18.888 97.6046 19.384C98.0366 19.872 98.2526 20.52 98.2526 21.328V24.724C98.2526 24.804 98.2246 24.872 98.1686 24.928C98.1206 24.976 98.0566 25 97.9766 25H97.4126C97.3326 25 97.2646 24.976 97.2086 24.928C97.1606 24.872 97.1366 24.804 97.1366 24.724V21.4C97.1366 20.824 96.9966 20.376 96.7166 20.056C96.4366 19.736 96.0326 19.576 95.5046 19.576C94.9926 19.576 94.5846 19.74 94.2806 20.068C93.9766 20.388 93.8246 20.832 93.8246 21.4V24.724C93.8246 24.804 93.7966 24.872 93.7406 24.928C93.6926 24.976 93.6286 25 93.5486 25H92.9966ZM102.782 25.12C102.142 25.12 101.586 24.992 101.114 24.736C100.65 24.472 100.294 24.12 100.046 23.68C99.8057 23.24 99.6857 22.76 99.6857 22.24C99.6857 21.552 99.9617 20.816 100.514 20.032L102.806 16.84C102.814 16.832 102.834 16.804 102.866 16.756C102.906 16.708 102.954 16.672 103.01 16.648C103.066 16.616 103.13 16.6 103.202 16.6H103.79C103.862 16.6 103.918 16.628 103.958 16.684C104.006 16.732 104.03 16.792 104.03 16.864C104.03 16.904 104.01 16.956 103.97 17.02L102.218 19.468C102.426 19.42 102.658 19.396 102.914 19.396C103.498 19.396 104.01 19.528 104.45 19.792C104.898 20.048 105.242 20.392 105.482 20.824C105.73 21.248 105.854 21.716 105.854 22.228C105.854 22.74 105.73 23.22 105.482 23.668C105.242 24.108 104.89 24.46 104.426 24.724C103.962 24.988 103.414 25.12 102.782 25.12ZM102.77 24.124C103.122 24.124 103.446 24.052 103.742 23.908C104.038 23.764 104.274 23.552 104.45 23.272C104.626 22.984 104.714 22.64 104.714 22.24C104.714 21.848 104.622 21.512 104.438 21.232C104.262 20.944 104.026 20.728 103.73 20.584C103.434 20.432 103.114 20.356 102.77 20.356C102.426 20.356 102.106 20.432 101.81 20.584C101.514 20.728 101.278 20.944 101.102 21.232C100.926 21.512 100.838 21.848 100.838 22.24C100.838 22.64 100.926 22.984 101.102 23.272C101.278 23.552 101.514 23.764 101.81 23.908C102.106 24.052 102.426 24.124 102.77 24.124ZM108.849 25C108.737 25 108.653 24.976 108.597 24.928C108.541 24.88 108.497 24.804 108.465 24.7L106.761 19.132L106.737 19.012C106.737 18.94 106.761 18.88 106.809 18.832C106.857 18.784 106.917 18.76 106.989 18.76H107.481C107.561 18.76 107.625 18.784 107.673 18.832C107.729 18.872 107.761 18.912 107.769 18.952L109.125 23.536L110.565 19.012C110.581 18.948 110.617 18.892 110.673 18.844C110.729 18.788 110.805 18.76 110.901 18.76H111.285C111.381 18.76 111.457 18.788 111.513 18.844C111.569 18.892 111.605 18.948 111.621 19.012L113.061 23.536L114.417 18.952C114.425 18.912 114.453 18.872 114.501 18.832C114.557 18.784 114.625 18.76 114.705 18.76H115.197C115.269 18.76 115.329 18.784 115.377 18.832C115.425 18.88 115.449 18.94 115.449 19.012L115.425 19.132L113.721 24.7C113.689 24.804 113.645 24.88 113.589 24.928C113.533 24.976 113.449 25 113.337 25H112.905C112.697 25 112.561 24.9 112.497 24.7L111.093 20.356L109.689 24.7C109.625 24.9 109.489 25 109.281 25H108.849ZM116.755 25C116.675 25 116.607 24.976 116.551 24.928C116.503 24.872 116.479 24.804 116.479 24.724V24.364C116.479 24.18 116.579 24.004 116.779 23.836L119.395 21.232C119.987 20.728 120.395 20.316 120.619 19.996C120.843 19.676 120.955 19.336 120.955 18.976C120.955 18.504 120.823 18.136 120.559 17.872C120.295 17.6 119.911 17.464 119.407 17.464C118.927 17.464 118.547 17.604 118.267 17.884C117.987 18.164 117.815 18.54 117.751 19.012C117.735 19.1 117.695 19.168 117.631 19.216C117.567 19.264 117.503 19.288 117.439 19.288H116.863C116.791 19.288 116.731 19.264 116.683 19.216C116.635 19.168 116.611 19.112 116.611 19.048C116.627 18.624 116.739 18.216 116.947 17.824C117.163 17.424 117.479 17.1 117.895 16.852C118.311 16.596 118.815 16.468 119.407 16.468C120.303 16.468 120.975 16.704 121.423 17.176C121.879 17.64 122.107 18.232 122.107 18.952C122.107 19.456 121.983 19.912 121.735 20.32C121.495 20.72 121.115 21.144 120.595 21.592L118.231 23.992H122.011C122.099 23.992 122.167 24.016 122.215 24.064C122.263 24.112 122.287 24.18 122.287 24.268V24.724C122.287 24.804 122.259 24.872 122.203 24.928C122.155 24.976 122.091 25 122.011 25H116.755ZM126.27 25.12C125.454 25.12 124.802 24.868 124.314 24.364C123.826 23.852 123.558 23.156 123.51 22.276L123.498 21.868L123.51 21.472C123.558 20.608 123.826 19.92 124.314 19.408C124.802 18.896 125.454 18.64 126.27 18.64C127.15 18.64 127.83 18.92 128.31 19.48C128.798 20.04 129.042 20.8 129.042 21.76V21.976C129.042 22.056 129.014 22.124 128.958 22.18C128.91 22.228 128.846 22.252 128.766 22.252H124.602V22.36C124.626 22.88 124.786 23.324 125.082 23.692C125.378 24.06 125.77 24.244 126.258 24.244C126.634 24.244 126.938 24.172 127.17 24.028C127.41 23.876 127.59 23.72 127.71 23.56C127.782 23.464 127.838 23.408 127.878 23.392C127.918 23.368 127.986 23.356 128.082 23.356H128.61C128.682 23.356 128.742 23.376 128.79 23.416C128.846 23.456 128.874 23.508 128.874 23.572C128.874 23.748 128.766 23.96 128.55 24.208C128.334 24.456 128.026 24.672 127.626 24.856C127.234 25.032 126.782 25.12 126.27 25.12ZM127.95 21.436V21.4C127.95 20.84 127.798 20.384 127.494 20.032C127.19 19.68 126.782 19.504 126.27 19.504C125.75 19.504 125.342 19.68 125.046 20.032C124.75 20.384 124.602 20.84 124.602 21.4V21.436H127.95Z" fill="#464E55"/>
<g clip-path="url(#clip3)">
<line x1="15" y1="0.5" x2="179" y2="0.5" stroke="#DDE1E6"/>
</g>
<g clip-path="url(#clip4)">
<line x1="178" y1="40.5" x2="284" y2="40.5" stroke="#DDE1E6"/>
<path d="M194 16C194 14.3431 195.343 13 197 13H254C255.657 13 257 14.3431 257 16V25C257 26.6569 255.657 28 254 28H197C195.343 28 194 26.6569 194 25V16Z" fill="#BAEECF"/>
<path d="M202.133 23C202.08 23 202.035 22.9813 201.997 22.944C201.96 22.9067 201.941 22.8613 201.941 22.808V17.6C201.941 17.5413 201.957 17.4933 201.989 17.456C202.027 17.4187 202.075 17.4 202.133 17.4H204.205C204.861 17.4 205.373 17.552 205.741 17.856C206.115 18.16 206.301 18.592 206.301 19.152C206.301 19.5413 206.208 19.8693 206.021 20.136C205.835 20.3973 205.573 20.5867 205.237 20.704L206.397 22.744C206.413 22.776 206.421 22.8053 206.421 22.832C206.421 22.88 206.403 22.92 206.365 22.952C206.333 22.984 206.296 23 206.253 23H205.517C205.432 23 205.365 22.9813 205.317 22.944C205.269 22.9013 205.227 22.848 205.189 22.784L204.165 20.888H203.069V22.808C203.069 22.8613 203.051 22.9067 203.013 22.944C202.976 22.9813 202.928 23 202.869 23H202.133ZM204.181 19.976C204.501 19.976 204.741 19.9067 204.901 19.768C205.061 19.624 205.141 19.416 205.141 19.144C205.141 18.872 205.061 18.664 204.901 18.52C204.741 18.3707 204.501 18.296 204.181 18.296H203.069V19.976H204.181ZM207.804 23C207.751 23 207.705 22.9813 207.668 22.944C207.631 22.9067 207.612 22.8613 207.612 22.808V17.6C207.612 17.5413 207.628 17.4933 207.66 17.456C207.697 17.4187 207.745 17.4 207.804 17.4H211.332C211.391 17.4 211.439 17.4187 211.476 17.456C211.513 17.4933 211.532 17.5413 211.532 17.6V18.136C211.532 18.1947 211.513 18.2427 211.476 18.28C211.439 18.312 211.391 18.328 211.332 18.328H208.708V19.728H211.156C211.215 19.728 211.263 19.7467 211.3 19.784C211.337 19.8213 211.356 19.8693 211.356 19.928V20.432C211.356 20.4907 211.337 20.5387 211.3 20.576C211.263 20.608 211.215 20.624 211.156 20.624H208.708V22.072H211.396C211.455 22.072 211.503 22.0907 211.54 22.128C211.577 22.16 211.596 22.2053 211.596 22.264V22.808C211.596 22.8667 211.577 22.9147 211.54 22.952C211.503 22.984 211.455 23 211.396 23H207.804ZM213.068 23C213.015 23 212.97 22.9813 212.932 22.944C212.895 22.9067 212.876 22.8613 212.876 22.808V17.6C212.876 17.5413 212.892 17.4933 212.924 17.456C212.962 17.4187 213.01 17.4 213.068 17.4H215.02C216.594 17.4 217.396 18.1253 217.428 19.576C217.439 19.8853 217.444 20.0933 217.444 20.2C217.444 20.3013 217.439 20.5067 217.428 20.816C217.407 21.5627 217.204 22.1147 216.82 22.472C216.442 22.824 215.855 23 215.06 23H213.068ZM215.02 22.072C215.463 22.072 215.783 21.9733 215.98 21.776C216.178 21.5787 216.282 21.2507 216.292 20.792C216.303 20.472 216.308 20.272 216.308 20.192C216.308 20.1067 216.303 19.9093 216.292 19.6C216.282 19.1627 216.172 18.8427 215.964 18.64C215.756 18.432 215.428 18.328 214.98 18.328H214.004V22.072H215.02ZM218.973 23C218.92 23 218.875 22.9813 218.837 22.944C218.8 22.9067 218.781 22.8613 218.781 22.808V17.6C218.781 17.5413 218.797 17.4933 218.829 17.456C218.867 17.4187 218.915 17.4 218.973 17.4H222.501C222.56 17.4 222.608 17.4187 222.645 17.456C222.683 17.4933 222.701 17.5413 222.701 17.6V18.136C222.701 18.1947 222.683 18.2427 222.645 18.28C222.608 18.312 222.56 18.328 222.501 18.328H219.877V19.728H222.325C222.384 19.728 222.432 19.7467 222.469 19.784C222.507 19.8213 222.525 19.8693 222.525 19.928V20.432C222.525 20.4907 222.507 20.5387 222.469 20.576C222.432 20.608 222.384 20.624 222.325 20.624H219.877V22.072H222.565C222.624 22.072 222.672 22.0907 222.709 22.128C222.747 22.16 222.765 22.2053 222.765 22.264V22.808C222.765 22.8667 222.747 22.9147 222.709 22.952C222.672 22.984 222.624 23 222.565 23H218.973ZM224.238 23C224.185 23 224.139 22.9813 224.102 22.944C224.065 22.9067 224.046 22.8613 224.046 22.808V17.6C224.046 17.5413 224.062 17.4933 224.094 17.456C224.131 17.4187 224.179 17.4 224.238 17.4H227.766C227.825 17.4 227.873 17.4187 227.91 17.456C227.947 17.4933 227.966 17.5413 227.966 17.6V18.136C227.966 18.1947 227.947 18.2427 227.91 18.28C227.873 18.312 227.825 18.328 227.766 18.328H225.142V19.728H227.59C227.649 19.728 227.697 19.7467 227.734 19.784C227.771 19.8213 227.79 19.8693 227.79 19.928V20.432C227.79 20.4907 227.771 20.5387 227.734 20.576C227.697 20.608 227.649 20.624 227.59 20.624H225.142V22.072H227.83C227.889 22.072 227.937 22.0907 227.974 22.128C228.011 22.16 228.03 22.2053 228.03 22.264V22.808C228.03 22.8667 228.011 22.9147 227.974 22.952C227.937 22.984 227.889 23 227.83 23H224.238ZM229.502 23C229.449 23 229.404 22.9813 229.366 22.944C229.329 22.9067 229.31 22.8613 229.31 22.808V17.6C229.31 17.5413 229.326 17.4933 229.358 17.456C229.396 17.4187 229.444 17.4 229.502 17.4H230.15C230.252 17.4 230.332 17.4507 230.39 17.552L231.934 20.416L233.478 17.552C233.537 17.4507 233.617 17.4 233.718 17.4H234.358C234.417 17.4 234.465 17.4187 234.502 17.456C234.54 17.4933 234.558 17.5413 234.558 17.6V22.808C234.558 22.8667 234.54 22.9147 234.502 22.952C234.465 22.984 234.417 23 234.358 23H233.67C233.617 23 233.572 22.9813 233.534 22.944C233.497 22.9067 233.478 22.8613 233.478 22.808V19.368L232.366 21.48C232.308 21.5973 232.22 21.656 232.102 21.656H231.766C231.654 21.656 231.564 21.5973 231.494 21.48L230.382 19.368V22.808C230.382 22.8613 230.364 22.9067 230.326 22.944C230.294 22.9813 230.249 23 230.19 23H229.502ZM236.274 23C236.221 23 236.176 22.9813 236.138 22.944C236.101 22.9067 236.082 22.8613 236.082 22.808V17.592C236.082 17.5333 236.101 17.488 236.138 17.456C236.176 17.4187 236.221 17.4 236.274 17.4H237.042C237.101 17.4 237.146 17.4187 237.178 17.456C237.216 17.488 237.234 17.5333 237.234 17.592V22.808C237.234 22.8613 237.216 22.9067 237.178 22.944C237.146 22.9813 237.101 23 237.042 23H236.274ZM238.953 23C238.9 23 238.854 22.9813 238.817 22.944C238.78 22.9067 238.761 22.8613 238.761 22.808V17.6C238.761 17.5413 238.777 17.4933 238.809 17.456C238.846 17.4187 238.894 17.4 238.953 17.4H239.577C239.678 17.4 239.756 17.4453 239.809 17.536L242.097 21.088V17.6C242.097 17.5413 242.113 17.4933 242.145 17.456C242.182 17.4187 242.23 17.4 242.289 17.4H242.977C243.036 17.4 243.084 17.4187 243.121 17.456C243.158 17.4933 243.177 17.5413 243.177 17.6V22.8C243.177 22.8587 243.158 22.9067 243.121 22.944C243.084 22.9813 243.038 23 242.985 23H242.353C242.246 23 242.166 22.9547 242.113 22.864L239.833 19.392V22.808C239.833 22.8613 239.814 22.9067 239.777 22.944C239.745 22.9813 239.7 23 239.641 23H238.953ZM246.881 23.08C246.145 23.08 245.572 22.8907 245.161 22.512C244.756 22.1333 244.54 21.6053 244.513 20.928C244.508 20.7733 244.505 20.5253 244.505 20.184C244.505 19.8427 244.508 19.5947 244.513 19.44C244.534 18.7787 244.753 18.2613 245.169 17.888C245.585 17.5093 246.156 17.32 246.881 17.32C247.372 17.32 247.793 17.4053 248.145 17.576C248.502 17.7413 248.772 17.9493 248.953 18.2C249.134 18.4453 249.23 18.688 249.241 18.928C249.241 18.976 249.225 19.016 249.193 19.048C249.161 19.08 249.118 19.096 249.065 19.096H248.225C248.172 19.096 248.132 19.0853 248.105 19.064C248.078 19.0427 248.054 19.008 248.033 18.96C247.958 18.7627 247.828 18.5947 247.641 18.456C247.454 18.3173 247.201 18.248 246.881 18.248C246.508 18.248 246.214 18.3493 246.001 18.552C245.793 18.7493 245.684 19.0587 245.673 19.48C245.668 19.6347 245.665 19.8693 245.665 20.184C245.665 20.4933 245.668 20.728 245.673 20.888C245.684 21.32 245.796 21.64 246.009 21.848C246.222 22.0507 246.516 22.152 246.889 22.152C247.268 22.152 247.572 22.0507 247.801 21.848C248.03 21.6453 248.145 21.3413 248.145 20.936V20.688H247.169C247.116 20.688 247.07 20.6693 247.033 20.632C246.996 20.5947 246.977 20.5493 246.977 20.496V20.056C246.977 20.0027 246.996 19.9573 247.033 19.92C247.07 19.8827 247.116 19.864 247.169 19.864H249.089C249.148 19.864 249.196 19.8827 249.233 19.92C249.27 19.9573 249.289 20.0027 249.289 20.056V20.904C249.289 21.3467 249.19 21.7333 248.993 22.064C248.796 22.3893 248.516 22.64 248.153 22.816C247.79 22.992 247.366 23.08 246.881 23.08Z" fill="#0D642F"/>
</g>
<g clip-path="url(#clip5)">
<line x1="178" y1="0.5" x2="284" y2="0.5" stroke="#DDE1E6"/>
</g>
<line x1="285" y1="40.5" x2="385" y2="40.5" stroke="#DDE1E6"/>
<path d="M304.804 25.12C304.196 25.12 303.652 25.02 303.172 24.82C302.7 24.612 302.332 24.316 302.068 23.932C301.804 23.548 301.672 23.1 301.672 22.588C301.672 22.116 301.788 21.704 302.02 21.352C302.26 20.992 302.58 20.716 302.98 20.524C302.66 20.34 302.412 20.1 302.236 19.804C302.06 19.5 301.972 19.144 301.972 18.736C301.972 18.04 302.232 17.492 302.752 17.092C303.272 16.684 303.956 16.48 304.804 16.48C305.652 16.48 306.332 16.68 306.844 17.08C307.364 17.48 307.624 18.032 307.624 18.736C307.624 19.136 307.536 19.488 307.36 19.792C307.184 20.088 306.94 20.332 306.628 20.524C307.028 20.716 307.344 20.992 307.576 21.352C307.816 21.704 307.936 22.12 307.936 22.6C307.936 23.112 307.804 23.56 307.54 23.944C307.276 24.32 306.904 24.612 306.424 24.82C305.952 25.02 305.412 25.12 304.804 25.12ZM304.804 20.104C305.292 20.088 305.704 19.96 306.04 19.72C306.376 19.48 306.544 19.16 306.544 18.76C306.544 18.352 306.376 18.028 306.04 17.788C305.712 17.54 305.3 17.416 304.804 17.416C304.3 17.416 303.884 17.54 303.556 17.788C303.228 18.028 303.064 18.352 303.064 18.76C303.064 19.168 303.228 19.496 303.556 19.744C303.884 19.984 304.3 20.104 304.804 20.104ZM304.804 24.184C305.372 24.184 305.844 24.04 306.22 23.752C306.604 23.464 306.796 23.08 306.796 22.6C306.796 22.12 306.604 21.736 306.22 21.448C305.844 21.16 305.372 21.016 304.804 21.016C304.228 21.016 303.748 21.16 303.364 21.448C302.988 21.736 302.8 22.12 302.8 22.6C302.8 23.08 302.988 23.464 303.364 23.752C303.748 24.04 304.228 24.184 304.804 24.184ZM309.469 25C309.389 25 309.321 24.976 309.265 24.928C309.217 24.872 309.193 24.804 309.193 24.724V24.364C309.193 24.18 309.293 24.004 309.493 23.836L312.109 21.232C312.701 20.728 313.109 20.316 313.333 19.996C313.557 19.676 313.669 19.336 313.669 18.976C313.669 18.504 313.537 18.136 313.273 17.872C313.009 17.6 312.625 17.464 312.121 17.464C311.641 17.464 311.261 17.604 310.981 17.884C310.701 18.164 310.529 18.54 310.465 19.012C310.449 19.1 310.409 19.168 310.345 19.216C310.281 19.264 310.217 19.288 310.153 19.288H309.577C309.505 19.288 309.445 19.264 309.397 19.216C309.349 19.168 309.325 19.112 309.325 19.048C309.341 18.624 309.453 18.216 309.661 17.824C309.877 17.424 310.193 17.1 310.609 16.852C311.025 16.596 311.529 16.468 312.121 16.468C313.017 16.468 313.689 16.704 314.137 17.176C314.593 17.64 314.821 18.232 314.821 18.952C314.821 19.456 314.697 19.912 314.449 20.32C314.209 20.72 313.829 21.144 313.309 21.592L310.945 23.992H314.725C314.813 23.992 314.881 24.016 314.929 24.064C314.977 24.112 315.001 24.18 315.001 24.268V24.724C315.001 24.804 314.973 24.872 314.917 24.928C314.869 24.976 314.805 25 314.725 25H309.469ZM317.941 25C317.869 25 317.809 24.976 317.761 24.928C317.721 24.872 317.701 24.808 317.701 24.736C317.701 24.68 317.717 24.628 317.749 24.58L319.597 22.012C319.405 22.06 319.181 22.084 318.925 22.084C318.349 22.076 317.845 21.944 317.413 21.688C316.981 21.424 316.649 21.084 316.417 20.668C316.193 20.244 316.081 19.792 316.081 19.312C316.081 18.832 316.193 18.376 316.417 17.944C316.649 17.512 316.989 17.16 317.437 16.888C317.893 16.616 318.441 16.48 319.081 16.48C319.721 16.48 320.269 16.612 320.725 16.876C321.181 17.14 321.525 17.488 321.757 17.92C321.989 18.344 322.105 18.8 322.105 19.288C322.105 19.728 322.025 20.116 321.865 20.452C321.713 20.788 321.509 21.136 321.253 21.496L318.925 24.76C318.869 24.832 318.813 24.892 318.757 24.94C318.709 24.98 318.637 25 318.541 25H317.941ZM319.081 21.136C319.425 21.136 319.741 21.06 320.029 20.908C320.317 20.756 320.545 20.544 320.713 20.272C320.881 19.992 320.965 19.672 320.965 19.312C320.965 18.944 320.881 18.62 320.713 18.34C320.545 18.06 320.317 17.844 320.029 17.692C319.741 17.54 319.425 17.464 319.081 17.464C318.745 17.464 318.433 17.54 318.145 17.692C317.865 17.844 317.641 18.06 317.473 18.34C317.305 18.62 317.221 18.944 317.221 19.312C317.221 19.672 317.305 19.992 317.473 20.272C317.641 20.544 317.865 20.756 318.145 20.908C318.425 21.06 318.737 21.136 319.081 21.136ZM326.068 25.12C325.444 25.12 324.904 25.02 324.448 24.82C323.992 24.612 323.644 24.344 323.404 24.016C323.172 23.688 323.048 23.348 323.032 22.996C323.032 22.924 323.056 22.868 323.104 22.828C323.152 22.78 323.212 22.756 323.284 22.756H323.824C323.912 22.756 323.984 22.776 324.04 22.816C324.096 22.848 324.14 22.916 324.172 23.02C324.276 23.428 324.5 23.716 324.844 23.884C325.196 24.052 325.608 24.136 326.08 24.136C326.656 24.136 327.112 24 327.448 23.728C327.792 23.448 327.964 23.052 327.964 22.54C327.964 21.564 327.368 21.076 326.176 21.076H325.048C324.968 21.076 324.9 21.052 324.844 21.004C324.796 20.948 324.772 20.88 324.772 20.8V20.488C324.772 20.368 324.816 20.264 324.904 20.176L327.244 17.584H323.692C323.612 17.584 323.544 17.56 323.488 17.512C323.44 17.464 323.416 17.4 323.416 17.32V16.888C323.416 16.8 323.44 16.732 323.488 16.684C323.544 16.628 323.612 16.6 323.692 16.6H328.444C328.532 16.6 328.6 16.628 328.648 16.684C328.704 16.732 328.732 16.8 328.732 16.888V17.284C328.732 17.372 328.692 17.464 328.612 17.56L326.272 20.188H326.464C327.28 20.212 327.924 20.424 328.396 20.824C328.876 21.224 329.116 21.808 329.116 22.576C329.116 23.104 328.984 23.56 328.72 23.944C328.464 24.32 328.104 24.612 327.64 24.82C327.176 25.02 326.652 25.12 326.068 25.12ZM333.48 25.12C332.448 25.12 331.692 24.82 331.212 24.22C330.74 23.612 330.488 22.82 330.456 21.844L330.444 20.812L330.456 19.744C330.48 18.776 330.732 17.992 331.212 17.392C331.7 16.784 332.456 16.48 333.48 16.48C334.512 16.48 335.268 16.784 335.747 17.392C336.236 17.992 336.492 18.776 336.516 19.744C336.524 19.968 336.528 20.324 336.528 20.812C336.528 21.284 336.524 21.628 336.516 21.844C336.484 22.82 336.227 23.612 335.747 24.22C335.276 24.82 334.52 25.12 333.48 25.12ZM333.48 24.124C334.096 24.124 334.56 23.92 334.872 23.512C335.184 23.104 335.348 22.528 335.364 21.784C335.372 21.552 335.376 21.22 335.376 20.788C335.376 20.348 335.372 20.02 335.364 19.804C335.348 19.068 335.18 18.496 334.86 18.088C334.548 17.672 334.088 17.464 333.48 17.464C332.872 17.464 332.412 17.672 332.1 18.088C331.788 18.496 331.624 19.068 331.608 19.804L331.596 20.788L331.608 21.784C331.624 22.528 331.788 23.104 332.1 23.512C332.412 23.92 332.872 24.124 333.48 24.124ZM342.105 25C342.025 25 341.957 24.976 341.901 24.928C341.853 24.872 341.829 24.804 341.829 24.724V22.972H337.929C337.849 22.972 337.781 22.948 337.725 22.9C337.677 22.844 337.653 22.776 337.653 22.696V22.252C337.653 22.14 337.697 22.02 337.785 21.892L341.397 16.804C341.437 16.74 341.497 16.692 341.577 16.66C341.657 16.62 341.745 16.6 341.841 16.6H342.657C342.745 16.6 342.813 16.624 342.861 16.672C342.909 16.72 342.933 16.788 342.933 16.876V21.964H344.025C344.105 21.964 344.169 21.992 344.217 22.048C344.273 22.096 344.301 22.16 344.301 22.24V22.696C344.301 22.776 344.273 22.844 344.217 22.9C344.169 22.948 344.105 22.972 344.025 22.972H342.933V24.724C342.933 24.804 342.905 24.872 342.849 24.928C342.801 24.976 342.737 25 342.657 25H342.105ZM338.901 21.988H341.841V17.812L338.901 21.988ZM349.523 25C349.443 25 349.375 24.976 349.319 24.928C349.271 24.872 349.247 24.804 349.247 24.724V22.972H345.347C345.267 22.972 345.199 22.948 345.143 22.9C345.095 22.844 345.071 22.776 345.071 22.696V22.252C345.071 22.14 345.115 22.02 345.203 21.892L348.815 16.804C348.855 16.74 348.915 16.692 348.995 16.66C349.075 16.62 349.163 16.6 349.259 16.6H350.075C350.163 16.6 350.231 16.624 350.279 16.672C350.327 16.72 350.351 16.788 350.351 16.876V21.964H351.443C351.523 21.964 351.587 21.992 351.635 22.048C351.691 22.096 351.719 22.16 351.719 22.24V22.696C351.719 22.776 351.691 22.844 351.635 22.9C351.587 22.948 351.523 22.972 351.443 22.972H350.351V24.724C350.351 24.804 350.323 24.872 350.267 24.928C350.219 24.976 350.155 25 350.075 25H349.523ZM346.319 21.988H349.259V17.812L346.319 21.988ZM356.941 25C356.861 25 356.793 24.976 356.737 24.928C356.689 24.872 356.665 24.804 356.665 24.724V22.972H352.765C352.685 22.972 352.617 22.948 352.561 22.9C352.513 22.844 352.489 22.776 352.489 22.696V22.252C352.489 22.14 352.533 22.02 352.621 21.892L356.233 16.804C356.273 16.74 356.333 16.692 356.413 16.66C356.493 16.62 356.581 16.6 356.677 16.6H357.493C357.581 16.6 357.649 16.624 357.697 16.672C357.745 16.72 357.769 16.788 357.769 16.876V21.964H358.861C358.941 21.964 359.005 21.992 359.053 22.048C359.109 22.096 359.137 22.16 359.137 22.24V22.696C359.137 22.776 359.109 22.844 359.053 22.9C359.005 22.948 358.941 22.972 358.861 22.972H357.769V24.724C357.769 24.804 357.741 24.872 357.685 24.928C357.637 24.976 357.573 25 357.493 25H356.941ZM353.737 21.988H356.677V17.812L353.737 21.988Z" fill="#464E55"/>
<line x1="285" y1="0.5" x2="385" y2="0.5" stroke="#DDE1E6"/>
<g clip-path="url(#clip6)">
<line x1="385" y1="40.5" x2="482" y2="40.5" stroke="#DDE1E6"/>
</g>
<path d="M404.48 26.2C404.4 26.2 404.332 26.176 404.276 26.128C404.228 26.08 404.204 26.012 404.204 25.924V25.084C403.644 25.036 403.16 24.908 402.752 24.7C402.352 24.484 402.044 24.22 401.828 23.908C401.62 23.588 401.508 23.248 401.492 22.888C401.492 22.824 401.516 22.768 401.564 22.72C401.612 22.672 401.672 22.648 401.744 22.648H402.32C402.472 22.648 402.576 22.728 402.632 22.888C402.704 23.224 402.908 23.516 403.244 23.764C403.588 24.004 404.076 24.124 404.708 24.124C405.388 24.124 405.896 24.004 406.232 23.764C406.568 23.524 406.736 23.192 406.736 22.768C406.736 22.496 406.652 22.272 406.484 22.096C406.324 21.92 406.08 21.768 405.752 21.64C405.432 21.504 404.948 21.34 404.3 21.148C403.684 20.972 403.192 20.784 402.824 20.584C402.456 20.384 402.18 20.14 401.996 19.852C401.812 19.556 401.72 19.184 401.72 18.736C401.72 18.136 401.94 17.632 402.38 17.224C402.82 16.816 403.428 16.576 404.204 16.504V15.676C404.204 15.588 404.228 15.52 404.276 15.472C404.332 15.424 404.4 15.4 404.48 15.4H404.912C404.992 15.4 405.056 15.428 405.104 15.484C405.152 15.532 405.176 15.596 405.176 15.676V16.516C405.688 16.58 406.128 16.724 406.496 16.948C406.864 17.172 407.14 17.436 407.324 17.74C407.516 18.036 407.62 18.336 407.636 18.64C407.636 18.712 407.612 18.772 407.564 18.82C407.516 18.868 407.456 18.892 407.384 18.892H406.784C406.72 18.892 406.656 18.872 406.592 18.832C406.536 18.792 406.5 18.732 406.484 18.652C406.436 18.308 406.244 18.024 405.908 17.8C405.572 17.576 405.152 17.464 404.648 17.464C404.104 17.464 403.672 17.572 403.352 17.788C403.032 17.996 402.872 18.308 402.872 18.724C402.872 19.004 402.944 19.232 403.088 19.408C403.24 19.584 403.468 19.74 403.772 19.876C404.084 20.012 404.532 20.168 405.116 20.344C405.796 20.536 406.332 20.728 406.724 20.92C407.116 21.112 407.408 21.352 407.6 21.64C407.792 21.92 407.888 22.284 407.888 22.732C407.888 23.412 407.644 23.96 407.156 24.376C406.676 24.792 406.016 25.032 405.176 25.096V25.924C405.176 26.004 405.152 26.068 405.104 26.116C405.056 26.172 404.992 26.2 404.912 26.2H404.48ZM411.695 25C411.615 25 411.551 24.976 411.503 24.928C411.455 24.872 411.431 24.804 411.431 24.724V17.956L409.415 19.504C409.359 19.552 409.299 19.576 409.235 19.576C409.163 19.576 409.095 19.536 409.031 19.456L408.743 19.084C408.703 19.028 408.683 18.972 408.683 18.916C408.683 18.828 408.723 18.756 408.803 18.7L411.407 16.684C411.495 16.628 411.599 16.6 411.719 16.6H412.283C412.363 16.6 412.427 16.628 412.475 16.684C412.531 16.732 412.559 16.796 412.559 16.876V24.724C412.559 24.804 412.531 24.872 412.475 24.928C412.427 24.976 412.363 25 412.283 25H411.695ZM417.272 25.12C416.24 25.12 415.484 24.82 415.004 24.22C414.532 23.612 414.28 22.82 414.248 21.844L414.236 20.812L414.248 19.744C414.272 18.776 414.524 17.992 415.004 17.392C415.492 16.784 416.248 16.48 417.272 16.48C418.304 16.48 419.06 16.784 419.54 17.392C420.028 17.992 420.284 18.776 420.308 19.744C420.316 19.968 420.32 20.324 420.32 20.812C420.32 21.284 420.316 21.628 420.308 21.844C420.276 22.82 420.02 23.612 419.54 24.22C419.068 24.82 418.312 25.12 417.272 25.12ZM417.272 24.124C417.888 24.124 418.352 23.92 418.664 23.512C418.976 23.104 419.14 22.528 419.156 21.784C419.164 21.552 419.168 21.22 419.168 20.788C419.168 20.348 419.164 20.02 419.156 19.804C419.14 19.068 418.972 18.496 418.652 18.088C418.34 17.672 417.88 17.464 417.272 17.464C416.664 17.464 416.204 17.672 415.892 18.088C415.58 18.496 415.416 19.068 415.4 19.804L415.388 20.788L415.4 21.784C415.416 22.528 415.58 23.104 415.892 23.512C416.204 23.92 416.664 24.124 417.272 24.124Z" fill="#464E55"/>
<g clip-path="url(#clip7)">
<line x1="385" y1="0.5" x2="482" y2="0.5" stroke="#DDE1E6"/>
</g>
<line x1="470" y1="40.5" x2="586" y2="40.5" stroke="#DDE1E6"/>
<path d="M489.48 26.2C489.4 26.2 489.332 26.176 489.276 26.128C489.228 26.08 489.204 26.012 489.204 25.924V25.084C488.644 25.036 488.16 24.908 487.752 24.7C487.352 24.484 487.044 24.22 486.828 23.908C486.62 23.588 486.508 23.248 486.492 22.888C486.492 22.824 486.516 22.768 486.564 22.72C486.612 22.672 486.672 22.648 486.744 22.648H487.32C487.472 22.648 487.576 22.728 487.632 22.888C487.704 23.224 487.908 23.516 488.244 23.764C488.588 24.004 489.076 24.124 489.708 24.124C490.388 24.124 490.896 24.004 491.232 23.764C491.568 23.524 491.736 23.192 491.736 22.768C491.736 22.496 491.652 22.272 491.484 22.096C491.324 21.92 491.08 21.768 490.752 21.64C490.432 21.504 489.948 21.34 489.3 21.148C488.684 20.972 488.192 20.784 487.824 20.584C487.456 20.384 487.18 20.14 486.996 19.852C486.812 19.556 486.72 19.184 486.72 18.736C486.72 18.136 486.94 17.632 487.38 17.224C487.82 16.816 488.428 16.576 489.204 16.504V15.676C489.204 15.588 489.228 15.52 489.276 15.472C489.332 15.424 489.4 15.4 489.48 15.4H489.912C489.992 15.4 490.056 15.428 490.104 15.484C490.152 15.532 490.176 15.596 490.176 15.676V16.516C490.688 16.58 491.128 16.724 491.496 16.948C491.864 17.172 492.14 17.436 492.324 17.74C492.516 18.036 492.62 18.336 492.636 18.64C492.636 18.712 492.612 18.772 492.564 18.82C492.516 18.868 492.456 18.892 492.384 18.892H491.784C491.72 18.892 491.656 18.872 491.592 18.832C491.536 18.792 491.5 18.732 491.484 18.652C491.436 18.308 491.244 18.024 490.908 17.8C490.572 17.576 490.152 17.464 489.648 17.464C489.104 17.464 488.672 17.572 488.352 17.788C488.032 17.996 487.872 18.308 487.872 18.724C487.872 19.004 487.944 19.232 488.088 19.408C488.24 19.584 488.468 19.74 488.772 19.876C489.084 20.012 489.532 20.168 490.116 20.344C490.796 20.536 491.332 20.728 491.724 20.92C492.116 21.112 492.408 21.352 492.6 21.64C492.792 21.92 492.888 22.284 492.888 22.732C492.888 23.412 492.644 23.96 492.156 24.376C491.676 24.792 491.016 25.032 490.176 25.096V25.924C490.176 26.004 490.152 26.068 490.104 26.116C490.056 26.172 489.992 26.2 489.912 26.2H489.48ZM496.875 25.12C496.275 25.12 495.755 25.012 495.315 24.796C494.875 24.58 494.539 24.3 494.307 23.956C494.075 23.604 493.951 23.228 493.935 22.828V22.804C493.935 22.74 493.959 22.688 494.007 22.648C494.055 22.608 494.111 22.588 494.175 22.588H494.763C494.931 22.588 495.039 22.676 495.087 22.852C495.207 23.284 495.427 23.608 495.747 23.824C496.075 24.032 496.451 24.136 496.875 24.136C497.419 24.136 497.871 23.972 498.231 23.644C498.591 23.308 498.771 22.848 498.771 22.264C498.771 21.728 498.591 21.304 498.231 20.992C497.871 20.672 497.419 20.512 496.875 20.512C496.587 20.512 496.355 20.548 496.179 20.62C496.003 20.692 495.823 20.796 495.639 20.932C495.535 21.012 495.447 21.072 495.375 21.112C495.311 21.144 495.239 21.16 495.159 21.16H494.583C494.511 21.16 494.447 21.136 494.391 21.088C494.335 21.032 494.311 20.968 494.319 20.896L494.691 16.9C494.715 16.7 494.815 16.6 494.991 16.6H499.143C499.231 16.6 499.299 16.624 499.347 16.672C499.395 16.72 499.419 16.788 499.419 16.876V17.32C499.419 17.4 499.391 17.464 499.335 17.512C499.287 17.56 499.223 17.584 499.143 17.584H495.687L495.471 19.996C495.855 19.724 496.371 19.588 497.019 19.588C497.555 19.588 498.043 19.696 498.483 19.912C498.923 20.12 499.271 20.428 499.527 20.836C499.791 21.244 499.923 21.728 499.923 22.288C499.923 22.88 499.791 23.392 499.527 23.824C499.271 24.248 498.911 24.572 498.447 24.796C497.991 25.012 497.467 25.12 496.875 25.12Z" fill="#464E55"/>
<line x1="470" y1="0.5" x2="586" y2="0.5" stroke="#DDE1E6"/>
<line x1="573" y1="40.5" x2="773" y2="40.5" stroke="#DDE1E6"/>
<path d="M592.792 25.12C591.76 25.12 591.004 24.82 590.524 24.22C590.052 23.612 589.8 22.82 589.768 21.844L589.756 20.812L589.768 19.744C589.792 18.776 590.044 17.992 590.524 17.392C591.012 16.784 591.768 16.48 592.792 16.48C593.824 16.48 594.58 16.784 595.06 17.392C595.548 17.992 595.804 18.776 595.828 19.744C595.836 19.968 595.84 20.324 595.84 20.812C595.84 21.284 595.836 21.628 595.828 21.844C595.796 22.82 595.54 23.612 595.06 24.22C594.588 24.82 593.832 25.12 592.792 25.12ZM592.792 24.124C593.408 24.124 593.872 23.92 594.184 23.512C594.496 23.104 594.66 22.528 594.676 21.784C594.684 21.552 594.688 21.22 594.688 20.788C594.688 20.348 594.684 20.02 594.676 19.804C594.66 19.068 594.492 18.496 594.172 18.088C593.86 17.672 593.4 17.464 592.792 17.464C592.184 17.464 591.724 17.672 591.412 18.088C591.1 18.496 590.936 19.068 590.92 19.804L590.908 20.788L590.92 21.784C590.936 22.528 591.1 23.104 591.412 23.512C591.724 23.92 592.184 24.124 592.792 24.124ZM600.398 25.12C599.79 25.12 599.246 25.02 598.766 24.82C598.294 24.612 597.926 24.316 597.662 23.932C597.398 23.548 597.266 23.1 597.266 22.588C597.266 22.116 597.382 21.704 597.614 21.352C597.854 20.992 598.174 20.716 598.574 20.524C598.254 20.34 598.006 20.1 597.83 19.804C597.654 19.5 597.566 19.144 597.566 18.736C597.566 18.04 597.826 17.492 598.346 17.092C598.866 16.684 599.55 16.48 600.398 16.48C601.246 16.48 601.926 16.68 602.438 17.08C602.958 17.48 603.218 18.032 603.218 18.736C603.218 19.136 603.13 19.488 602.954 19.792C602.778 20.088 602.534 20.332 602.222 20.524C602.622 20.716 602.938 20.992 603.17 21.352C603.41 21.704 603.53 22.12 603.53 22.6C603.53 23.112 603.398 23.56 603.134 23.944C602.87 24.32 602.498 24.612 602.018 24.82C601.546 25.02 601.006 25.12 600.398 25.12ZM600.398 20.104C600.886 20.088 601.298 19.96 601.634 19.72C601.97 19.48 602.138 19.16 602.138 18.76C602.138 18.352 601.97 18.028 601.634 17.788C601.306 17.54 600.894 17.416 600.398 17.416C599.894 17.416 599.478 17.54 599.15 17.788C598.822 18.028 598.658 18.352 598.658 18.76C598.658 19.168 598.822 19.496 599.15 19.744C599.478 19.984 599.894 20.104 600.398 20.104ZM600.398 24.184C600.966 24.184 601.438 24.04 601.814 23.752C602.198 23.464 602.39 23.08 602.39 22.6C602.39 22.12 602.198 21.736 601.814 21.448C601.438 21.16 600.966 21.016 600.398 21.016C599.822 21.016 599.342 21.16 598.958 21.448C598.582 21.736 598.394 22.12 598.394 22.6C598.394 23.08 598.582 23.464 598.958 23.752C599.342 24.04 599.822 24.184 600.398 24.184ZM608.484 25C608.404 25 608.336 24.976 608.28 24.928C608.232 24.872 608.208 24.804 608.208 24.724V16.888C608.208 16.8 608.232 16.732 608.28 16.684C608.328 16.628 608.396 16.6 608.484 16.6H609.048C609.192 16.6 609.292 16.66 609.348 16.78L611.904 21.688L614.484 16.78C614.548 16.66 614.644 16.6 614.772 16.6H615.336C615.424 16.6 615.492 16.628 615.54 16.684C615.588 16.732 615.612 16.8 615.612 16.888V24.724C615.612 24.804 615.584 24.872 615.528 24.928C615.48 24.976 615.416 25 615.336 25H614.784C614.704 25 614.64 24.976 614.592 24.928C614.544 24.872 614.52 24.804 614.52 24.724V18.76L612.468 22.732C612.388 22.9 612.26 22.984 612.084 22.984H611.724C611.556 22.984 611.428 22.9 611.34 22.732L609.3 18.76V24.724C609.3 24.804 609.272 24.872 609.216 24.928C609.168 24.976 609.104 25 609.024 25H608.484ZM619.296 25.12C618.904 25.12 618.54 25.04 618.204 24.88C617.876 24.72 617.612 24.504 617.412 24.232C617.22 23.952 617.124 23.644 617.124 23.308C617.124 22.78 617.34 22.348 617.772 22.012C618.204 21.676 618.792 21.452 619.536 21.34L621.336 21.088V20.74C621.336 19.916 620.86 19.504 619.908 19.504C619.54 19.504 619.244 19.58 619.02 19.732C618.796 19.876 618.632 20.048 618.528 20.248C618.496 20.328 618.46 20.384 618.42 20.416C618.388 20.44 618.34 20.452 618.276 20.452H617.808C617.736 20.452 617.672 20.428 617.616 20.38C617.568 20.324 617.544 20.26 617.544 20.188C617.544 20.004 617.628 19.792 617.796 19.552C617.972 19.304 618.24 19.092 618.6 18.916C618.96 18.732 619.4 18.64 619.92 18.64C620.816 18.64 621.456 18.848 621.84 19.264C622.232 19.68 622.428 20.2 622.428 20.824V24.724C622.428 24.804 622.4 24.872 622.344 24.928C622.296 24.976 622.232 25 622.152 25H621.624C621.544 25 621.48 24.976 621.432 24.928C621.384 24.872 621.36 24.804 621.36 24.724V24.196C621.184 24.46 620.928 24.68 620.592 24.856C620.256 25.032 619.824 25.12 619.296 25.12ZM619.536 24.244C620.064 24.244 620.496 24.072 620.832 23.728C621.168 23.384 621.336 22.884 621.336 22.228V21.892L619.932 22.096C619.356 22.176 618.92 22.312 618.624 22.504C618.328 22.696 618.18 22.936 618.18 23.224C618.18 23.552 618.312 23.804 618.576 23.98C618.848 24.156 619.168 24.244 619.536 24.244ZM624.442 25C624.362 25 624.294 24.976 624.238 24.928C624.19 24.872 624.166 24.804 624.166 24.724V19.048C624.166 18.968 624.19 18.9 624.238 18.844C624.294 18.788 624.362 18.76 624.442 18.76H624.946C625.034 18.76 625.102 18.788 625.15 18.844C625.206 18.892 625.234 18.96 625.234 19.048V19.576C625.562 19.032 626.118 18.76 626.902 18.76H627.37C627.458 18.76 627.526 18.784 627.574 18.832C627.622 18.88 627.646 18.948 627.646 19.036V19.48C627.646 19.56 627.622 19.628 627.574 19.684C627.526 19.732 627.458 19.756 627.37 19.756H626.686C626.246 19.756 625.898 19.884 625.642 20.14C625.394 20.396 625.27 20.744 625.27 21.184V24.724C625.27 24.804 625.242 24.872 625.186 24.928C625.13 24.976 625.062 25 624.982 25H624.442ZM631.313 25C631.233 25 631.165 24.976 631.109 24.928C631.061 24.872 631.037 24.804 631.037 24.724V24.364C631.037 24.18 631.137 24.004 631.337 23.836L633.953 21.232C634.545 20.728 634.953 20.316 635.177 19.996C635.401 19.676 635.513 19.336 635.513 18.976C635.513 18.504 635.381 18.136 635.117 17.872C634.853 17.6 634.469 17.464 633.965 17.464C633.485 17.464 633.105 17.604 632.825 17.884C632.545 18.164 632.373 18.54 632.309 19.012C632.293 19.1 632.253 19.168 632.189 19.216C632.125 19.264 632.061 19.288 631.997 19.288H631.421C631.349 19.288 631.289 19.264 631.241 19.216C631.193 19.168 631.169 19.112 631.169 19.048C631.185 18.624 631.297 18.216 631.505 17.824C631.721 17.424 632.037 17.1 632.453 16.852C632.869 16.596 633.373 16.468 633.965 16.468C634.861 16.468 635.533 16.704 635.981 17.176C636.437 17.64 636.665 18.232 636.665 18.952C636.665 19.456 636.541 19.912 636.293 20.32C636.053 20.72 635.673 21.144 635.153 21.592L632.789 23.992H636.569C636.657 23.992 636.725 24.016 636.773 24.064C636.821 24.112 636.845 24.18 636.845 24.268V24.724C636.845 24.804 636.817 24.872 636.761 24.928C636.713 24.976 636.649 25 636.569 25H631.313ZM641.249 25.12C640.217 25.12 639.461 24.82 638.981 24.22C638.509 23.612 638.257 22.82 638.225 21.844L638.213 20.812L638.225 19.744C638.249 18.776 638.501 17.992 638.981 17.392C639.469 16.784 640.225 16.48 641.249 16.48C642.281 16.48 643.037 16.784 643.517 17.392C644.005 17.992 644.261 18.776 644.285 19.744C644.293 19.968 644.297 20.324 644.297 20.812C644.297 21.284 644.293 21.628 644.285 21.844C644.253 22.82 643.997 23.612 643.517 24.22C643.045 24.82 642.289 25.12 641.249 25.12ZM641.249 24.124C641.865 24.124 642.329 23.92 642.641 23.512C642.953 23.104 643.117 22.528 643.133 21.784C643.141 21.552 643.145 21.22 643.145 20.788C643.145 20.348 643.141 20.02 643.133 19.804C643.117 19.068 642.949 18.496 642.629 18.088C642.317 17.672 641.857 17.464 641.249 17.464C640.641 17.464 640.181 17.672 639.869 18.088C639.557 18.496 639.393 19.068 639.377 19.804L639.365 20.788L639.377 21.784C639.393 22.528 639.557 23.104 639.869 23.512C640.181 23.92 640.641 24.124 641.249 24.124ZM645.915 25C645.835 25 645.767 24.976 645.711 24.928C645.663 24.872 645.639 24.804 645.639 24.724V24.364C645.639 24.18 645.739 24.004 645.939 23.836L648.555 21.232C649.147 20.728 649.555 20.316 649.779 19.996C650.003 19.676 650.115 19.336 650.115 18.976C650.115 18.504 649.983 18.136 649.719 17.872C649.455 17.6 649.071 17.464 648.567 17.464C648.087 17.464 647.707 17.604 647.427 17.884C647.147 18.164 646.975 18.54 646.911 19.012C646.895 19.1 646.855 19.168 646.791 19.216C646.727 19.264 646.663 19.288 646.599 19.288H646.023C645.951 19.288 645.891 19.264 645.843 19.216C645.795 19.168 645.771 19.112 645.771 19.048C645.787 18.624 645.899 18.216 646.107 17.824C646.323 17.424 646.639 17.1 647.055 16.852C647.471 16.596 647.975 16.468 648.567 16.468C649.463 16.468 650.135 16.704 650.583 17.176C651.039 17.64 651.267 18.232 651.267 18.952C651.267 19.456 651.143 19.912 650.895 20.32C650.655 20.72 650.275 21.144 649.755 21.592L647.391 23.992H651.171C651.259 23.992 651.327 24.016 651.375 24.064C651.423 24.112 651.447 24.18 651.447 24.268V24.724C651.447 24.804 651.419 24.872 651.363 24.928C651.315 24.976 651.251 25 651.171 25H645.915ZM655.851 25.12C654.819 25.12 654.063 24.82 653.583 24.22C653.111 23.612 652.859 22.82 652.827 21.844L652.815 20.812L652.827 19.744C652.851 18.776 653.103 17.992 653.583 17.392C654.071 16.784 654.827 16.48 655.851 16.48C656.883 16.48 657.639 16.784 658.119 17.392C658.607 17.992 658.863 18.776 658.887 19.744C658.895 19.968 658.899 20.324 658.899 20.812C658.899 21.284 658.895 21.628 658.887 21.844C658.855 22.82 658.599 23.612 658.119 24.22C657.647 24.82 656.891 25.12 655.851 25.12ZM655.851 24.124C656.467 24.124 656.931 23.92 657.243 23.512C657.555 23.104 657.719 22.528 657.735 21.784C657.743 21.552 657.747 21.22 657.747 20.788C657.747 20.348 657.743 20.02 657.735 19.804C657.719 19.068 657.551 18.496 657.231 18.088C656.919 17.672 656.459 17.464 655.851 17.464C655.243 17.464 654.783 17.672 654.471 18.088C654.159 18.496 653.995 19.068 653.979 19.804L653.967 20.788L653.979 21.784C653.995 22.528 654.159 23.104 654.471 23.512C654.783 23.92 655.243 24.124 655.851 24.124ZM666.409 25.12C665.801 25.12 665.257 25.02 664.777 24.82C664.305 24.612 663.937 24.316 663.673 23.932C663.409 23.548 663.277 23.1 663.277 22.588C663.277 22.116 663.393 21.704 663.625 21.352C663.865 20.992 664.185 20.716 664.585 20.524C664.265 20.34 664.017 20.1 663.841 19.804C663.665 19.5 663.577 19.144 663.577 18.736C663.577 18.04 663.837 17.492 664.357 17.092C664.877 16.684 665.561 16.48 666.409 16.48C667.257 16.48 667.937 16.68 668.449 17.08C668.969 17.48 669.229 18.032 669.229 18.736C669.229 19.136 669.141 19.488 668.965 19.792C668.789 20.088 668.545 20.332 668.233 20.524C668.633 20.716 668.949 20.992 669.181 21.352C669.421 21.704 669.541 22.12 669.541 22.6C669.541 23.112 669.409 23.56 669.145 23.944C668.881 24.32 668.509 24.612 668.029 24.82C667.557 25.02 667.017 25.12 666.409 25.12ZM666.409 20.104C666.897 20.088 667.309 19.96 667.645 19.72C667.981 19.48 668.149 19.16 668.149 18.76C668.149 18.352 667.981 18.028 667.645 17.788C667.317 17.54 666.905 17.416 666.409 17.416C665.905 17.416 665.489 17.54 665.161 17.788C664.833 18.028 664.669 18.352 664.669 18.76C664.669 19.168 664.833 19.496 665.161 19.744C665.489 19.984 665.905 20.104 666.409 20.104ZM666.409 24.184C666.977 24.184 667.449 24.04 667.825 23.752C668.209 23.464 668.401 23.08 668.401 22.6C668.401 22.12 668.209 21.736 667.825 21.448C667.449 21.16 666.977 21.016 666.409 21.016C665.833 21.016 665.353 21.16 664.969 21.448C664.593 21.736 664.405 22.12 664.405 22.6C664.405 23.08 664.593 23.464 664.969 23.752C665.353 24.04 665.833 24.184 666.409 24.184ZM671.315 20.8C671.235 20.8 671.171 20.776 671.123 20.728C671.075 20.672 671.051 20.604 671.051 20.524V19.72C671.051 19.632 671.075 19.564 671.123 19.516C671.171 19.46 671.235 19.432 671.315 19.432H672.143C672.231 19.432 672.299 19.46 672.347 19.516C672.403 19.564 672.431 19.632 672.431 19.72V20.524C672.431 20.604 672.403 20.672 672.347 20.728C672.291 20.776 672.223 20.8 672.143 20.8H671.315ZM671.315 25C671.235 25 671.171 24.976 671.123 24.928C671.075 24.872 671.051 24.804 671.051 24.724V23.92C671.051 23.832 671.075 23.764 671.123 23.716C671.171 23.66 671.235 23.632 671.315 23.632H672.143C672.231 23.632 672.299 23.66 672.347 23.716C672.403 23.764 672.431 23.832 672.431 23.92V24.724C672.431 24.804 672.403 24.872 672.347 24.928C672.291 24.976 672.223 25 672.143 25H671.315ZM674.134 25C674.054 25 673.986 24.976 673.93 24.928C673.882 24.872 673.858 24.804 673.858 24.724V24.364C673.858 24.18 673.958 24.004 674.158 23.836L676.774 21.232C677.366 20.728 677.774 20.316 677.998 19.996C678.222 19.676 678.334 19.336 678.334 18.976C678.334 18.504 678.202 18.136 677.938 17.872C677.674 17.6 677.29 17.464 676.786 17.464C676.306 17.464 675.926 17.604 675.646 17.884C675.366 18.164 675.194 18.54 675.13 19.012C675.114 19.1 675.074 19.168 675.01 19.216C674.946 19.264 674.882 19.288 674.818 19.288H674.242C674.17 19.288 674.11 19.264 674.062 19.216C674.014 19.168 673.99 19.112 673.99 19.048C674.006 18.624 674.118 18.216 674.326 17.824C674.542 17.424 674.858 17.1 675.274 16.852C675.69 16.596 676.194 16.468 676.786 16.468C677.682 16.468 678.354 16.704 678.802 17.176C679.258 17.64 679.486 18.232 679.486 18.952C679.486 19.456 679.362 19.912 679.114 20.32C678.874 20.72 678.494 21.144 677.974 21.592L675.61 23.992H679.39C679.478 23.992 679.546 24.016 679.594 24.064C679.642 24.112 679.666 24.18 679.666 24.268V24.724C679.666 24.804 679.638 24.872 679.582 24.928C679.534 24.976 679.47 25 679.39 25H674.134ZM683.829 25.12C683.205 25.12 682.665 25.02 682.209 24.82C681.753 24.612 681.405 24.344 681.165 24.016C680.933 23.688 680.809 23.348 680.793 22.996C680.793 22.924 680.817 22.868 680.865 22.828C680.913 22.78 680.973 22.756 681.045 22.756H681.585C681.673 22.756 681.745 22.776 681.801 22.816C681.857 22.848 681.901 22.916 681.933 23.02C682.037 23.428 682.261 23.716 682.605 23.884C682.957 24.052 683.369 24.136 683.841 24.136C684.417 24.136 684.873 24 685.209 23.728C685.553 23.448 685.725 23.052 685.725 22.54C685.725 21.564 685.129 21.076 683.937 21.076H682.809C682.729 21.076 682.661 21.052 682.605 21.004C682.557 20.948 682.533 20.88 682.533 20.8V20.488C682.533 20.368 682.577 20.264 682.665 20.176L685.005 17.584H681.453C681.373 17.584 681.305 17.56 681.249 17.512C681.201 17.464 681.177 17.4 681.177 17.32V16.888C681.177 16.8 681.201 16.732 681.249 16.684C681.305 16.628 681.373 16.6 681.453 16.6H686.205C686.293 16.6 686.361 16.628 686.409 16.684C686.465 16.732 686.493 16.8 686.493 16.888V17.284C686.493 17.372 686.453 17.464 686.373 17.56L684.033 20.188H684.225C685.041 20.212 685.685 20.424 686.157 20.824C686.637 21.224 686.877 21.808 686.877 22.576C686.877 23.104 686.745 23.56 686.481 23.944C686.225 24.32 685.865 24.612 685.401 24.82C684.937 25.02 684.413 25.12 683.829 25.12ZM693.03 25.12C692.638 25.12 692.274 25.04 691.938 24.88C691.61 24.72 691.346 24.504 691.146 24.232C690.954 23.952 690.858 23.644 690.858 23.308C690.858 22.78 691.074 22.348 691.506 22.012C691.938 21.676 692.526 21.452 693.27 21.34L695.07 21.088V20.74C695.07 19.916 694.594 19.504 693.642 19.504C693.274 19.504 692.978 19.58 692.754 19.732C692.53 19.876 692.366 20.048 692.262 20.248C692.23 20.328 692.194 20.384 692.154 20.416C692.122 20.44 692.074 20.452 692.01 20.452H691.542C691.47 20.452 691.406 20.428 691.35 20.38C691.302 20.324 691.278 20.26 691.278 20.188C691.278 20.004 691.362 19.792 691.53 19.552C691.706 19.304 691.974 19.092 692.334 18.916C692.694 18.732 693.134 18.64 693.654 18.64C694.55 18.64 695.19 18.848 695.574 19.264C695.966 19.68 696.162 20.2 696.162 20.824V24.724C696.162 24.804 696.134 24.872 696.078 24.928C696.03 24.976 695.966 25 695.886 25H695.358C695.278 25 695.214 24.976 695.166 24.928C695.118 24.872 695.094 24.804 695.094 24.724V24.196C694.918 24.46 694.662 24.68 694.326 24.856C693.99 25.032 693.558 25.12 693.03 25.12ZM693.27 24.244C693.798 24.244 694.23 24.072 694.566 23.728C694.902 23.384 695.07 22.884 695.07 22.228V21.892L693.666 22.096C693.09 22.176 692.654 22.312 692.358 22.504C692.062 22.696 691.914 22.936 691.914 23.224C691.914 23.552 692.046 23.804 692.31 23.98C692.582 24.156 692.902 24.244 693.27 24.244ZM698.176 25C698.096 25 698.028 24.976 697.972 24.928C697.924 24.872 697.9 24.804 697.9 24.724V19.036C697.9 18.956 697.924 18.892 697.972 18.844C698.028 18.788 698.096 18.76 698.176 18.76H698.68C698.76 18.76 698.824 18.788 698.872 18.844C698.92 18.892 698.944 18.956 698.944 19.036V19.444C699.376 18.908 699.96 18.64 700.696 18.64C701.576 18.64 702.2 19.008 702.568 19.744C702.76 19.408 703.032 19.14 703.384 18.94C703.744 18.74 704.144 18.64 704.584 18.64C705.24 18.64 705.776 18.864 706.192 19.312C706.608 19.76 706.816 20.408 706.816 21.256V24.724C706.816 24.804 706.788 24.872 706.732 24.928C706.684 24.976 706.62 25 706.54 25H706.024C705.944 25 705.876 24.976 705.82 24.928C705.772 24.872 705.748 24.804 705.748 24.724V21.364C705.748 20.724 705.616 20.268 705.352 19.996C705.088 19.716 704.74 19.576 704.308 19.576C703.924 19.576 703.592 19.72 703.312 20.008C703.04 20.288 702.904 20.74 702.904 21.364V24.724C702.904 24.804 702.876 24.872 702.82 24.928C702.772 24.976 702.708 25 702.628 25H702.1C702.02 25 701.952 24.976 701.896 24.928C701.848 24.872 701.824 24.804 701.824 24.724V21.364C701.824 20.732 701.684 20.276 701.404 19.996C701.132 19.716 700.792 19.576 700.384 19.576C700 19.576 699.668 19.716 699.388 19.996C699.116 20.276 698.98 20.728 698.98 21.352V24.724C698.98 24.804 698.952 24.872 698.896 24.928C698.848 24.976 698.784 25 698.704 25H698.176Z" fill="#464E55"/>
<line x1="573" y1="0.5" x2="773" y2="0.5" stroke="#DDE1E6"/>
<line x1="773" y1="40.5" x2="974" y2="40.5" stroke="#DDE1E6"/>
<path d="M789.864 25C789.784 25 789.716 24.976 789.66 24.928C789.612 24.872 789.588 24.804 789.588 24.724V24.364C789.588 24.18 789.688 24.004 789.888 23.836L792.504 21.232C793.096 20.728 793.504 20.316 793.728 19.996C793.952 19.676 794.064 19.336 794.064 18.976C794.064 18.504 793.932 18.136 793.668 17.872C793.404 17.6 793.02 17.464 792.516 17.464C792.036 17.464 791.656 17.604 791.376 17.884C791.096 18.164 790.924 18.54 790.86 19.012C790.844 19.1 790.804 19.168 790.74 19.216C790.676 19.264 790.612 19.288 790.548 19.288H789.972C789.9 19.288 789.84 19.264 789.792 19.216C789.744 19.168 789.72 19.112 789.72 19.048C789.736 18.624 789.848 18.216 790.056 17.824C790.272 17.424 790.588 17.1 791.004 16.852C791.42 16.596 791.924 16.468 792.516 16.468C793.412 16.468 794.084 16.704 794.532 17.176C794.988 17.64 795.216 18.232 795.216 18.952C795.216 19.456 795.092 19.912 794.844 20.32C794.604 20.72 794.224 21.144 793.704 21.592L791.34 23.992H795.12C795.208 23.992 795.276 24.016 795.324 24.064C795.372 24.112 795.396 24.18 795.396 24.268V24.724C795.396 24.804 795.368 24.872 795.312 24.928C795.264 24.976 795.2 25 795.12 25H789.864ZM799.812 25.12C799.204 25.12 798.66 25.02 798.18 24.82C797.708 24.612 797.34 24.316 797.076 23.932C796.812 23.548 796.68 23.1 796.68 22.588C796.68 22.116 796.796 21.704 797.028 21.352C797.268 20.992 797.588 20.716 797.988 20.524C797.668 20.34 797.42 20.1 797.244 19.804C797.068 19.5 796.98 19.144 796.98 18.736C796.98 18.04 797.24 17.492 797.76 17.092C798.28 16.684 798.964 16.48 799.812 16.48C800.66 16.48 801.34 16.68 801.852 17.08C802.372 17.48 802.632 18.032 802.632 18.736C802.632 19.136 802.544 19.488 802.368 19.792C802.192 20.088 801.948 20.332 801.636 20.524C802.036 20.716 802.352 20.992 802.584 21.352C802.824 21.704 802.944 22.12 802.944 22.6C802.944 23.112 802.812 23.56 802.548 23.944C802.284 24.32 801.912 24.612 801.432 24.82C800.96 25.02 800.42 25.12 799.812 25.12ZM799.812 20.104C800.3 20.088 800.712 19.96 801.048 19.72C801.384 19.48 801.552 19.16 801.552 18.76C801.552 18.352 801.384 18.028 801.048 17.788C800.72 17.54 800.308 17.416 799.812 17.416C799.308 17.416 798.892 17.54 798.564 17.788C798.236 18.028 798.072 18.352 798.072 18.76C798.072 19.168 798.236 19.496 798.564 19.744C798.892 19.984 799.308 20.104 799.812 20.104ZM799.812 24.184C800.38 24.184 800.852 24.04 801.228 23.752C801.612 23.464 801.804 23.08 801.804 22.6C801.804 22.12 801.612 21.736 801.228 21.448C800.852 21.16 800.38 21.016 799.812 21.016C799.236 21.016 798.756 21.16 798.372 21.448C797.996 21.736 797.808 22.12 797.808 22.6C797.808 23.08 797.996 23.464 798.372 23.752C798.756 24.04 799.236 24.184 799.812 24.184ZM806.718 25C806.654 25 806.598 24.976 806.55 24.928C806.502 24.88 806.478 24.824 806.478 24.76L806.502 24.628L809.478 16.864C809.542 16.688 809.67 16.6 809.862 16.6H810.63C810.822 16.6 810.95 16.688 811.014 16.864L813.99 24.628L814.014 24.76C814.014 24.824 813.986 24.88 813.93 24.928C813.882 24.976 813.826 25 813.762 25H813.198C813.118 25 813.05 24.98 812.994 24.94C812.946 24.892 812.914 24.844 812.898 24.796L812.226 23.068H808.254L807.594 24.796C807.53 24.932 807.43 25 807.294 25H806.718ZM808.602 22.072H811.89L810.246 17.764L808.602 22.072ZM815.442 27.28C815.362 27.28 815.294 27.256 815.238 27.208C815.19 27.16 815.166 27.092 815.166 27.004V19.036C815.166 18.948 815.19 18.88 815.238 18.832C815.294 18.784 815.362 18.76 815.442 18.76H815.946C816.034 18.76 816.102 18.784 816.15 18.832C816.198 18.88 816.222 18.948 816.222 19.036V19.564C816.686 18.948 817.346 18.64 818.202 18.64C819.042 18.64 819.67 18.908 820.086 19.444C820.51 19.972 820.734 20.648 820.758 21.472C820.766 21.56 820.77 21.696 820.77 21.88C820.77 22.064 820.766 22.2 820.758 22.288C820.734 23.104 820.51 23.78 820.086 24.316C819.67 24.852 819.042 25.12 818.202 25.12C817.346 25.12 816.698 24.816 816.258 24.208V27.004C816.258 27.084 816.23 27.148 816.174 27.196C816.126 27.252 816.062 27.28 815.982 27.28H815.442ZM817.974 24.184C818.55 24.184 818.97 24.004 819.234 23.644C819.498 23.284 819.642 22.812 819.666 22.228C819.674 22.148 819.678 22.032 819.678 21.88C819.678 20.344 819.11 19.576 817.974 19.576C817.414 19.576 816.99 19.764 816.702 20.14C816.422 20.508 816.274 20.944 816.258 21.448C816.25 21.536 816.246 21.692 816.246 21.916C816.246 22.14 816.25 22.296 816.258 22.384C816.274 22.872 816.426 23.296 816.714 23.656C817.01 24.008 817.43 24.184 817.974 24.184ZM822.555 25C822.475 25 822.407 24.976 822.351 24.928C822.303 24.872 822.279 24.804 822.279 24.724V19.048C822.279 18.968 822.303 18.9 822.351 18.844C822.407 18.788 822.475 18.76 822.555 18.76H823.059C823.147 18.76 823.215 18.788 823.263 18.844C823.319 18.892 823.347 18.96 823.347 19.048V19.576C823.675 19.032 824.231 18.76 825.015 18.76H825.483C825.571 18.76 825.639 18.784 825.687 18.832C825.735 18.88 825.759 18.948 825.759 19.036V19.48C825.759 19.56 825.735 19.628 825.687 19.684C825.639 19.732 825.571 19.756 825.483 19.756H824.799C824.359 19.756 824.011 19.884 823.755 20.14C823.507 20.396 823.383 20.744 823.383 21.184V24.724C823.383 24.804 823.355 24.872 823.299 24.928C823.243 24.976 823.175 25 823.095 25H822.555ZM829.427 25C829.347 25 829.279 24.976 829.223 24.928C829.175 24.872 829.151 24.804 829.151 24.724V24.364C829.151 24.18 829.251 24.004 829.451 23.836L832.067 21.232C832.659 20.728 833.067 20.316 833.291 19.996C833.515 19.676 833.627 19.336 833.627 18.976C833.627 18.504 833.495 18.136 833.231 17.872C832.967 17.6 832.583 17.464 832.079 17.464C831.599 17.464 831.219 17.604 830.939 17.884C830.659 18.164 830.487 18.54 830.423 19.012C830.407 19.1 830.367 19.168 830.303 19.216C830.239 19.264 830.175 19.288 830.111 19.288H829.535C829.463 19.288 829.403 19.264 829.354 19.216C829.307 19.168 829.283 19.112 829.283 19.048C829.299 18.624 829.411 18.216 829.619 17.824C829.835 17.424 830.151 17.1 830.567 16.852C830.983 16.596 831.487 16.468 832.079 16.468C832.975 16.468 833.647 16.704 834.095 17.176C834.551 17.64 834.779 18.232 834.779 18.952C834.779 19.456 834.655 19.912 834.407 20.32C834.167 20.72 833.787 21.144 833.267 21.592L830.903 23.992H834.683C834.771 23.992 834.839 24.016 834.887 24.064C834.935 24.112 834.959 24.18 834.959 24.268V24.724C834.959 24.804 834.931 24.872 834.875 24.928C834.827 24.976 834.763 25 834.683 25H829.427ZM839.362 25.12C838.33 25.12 837.574 24.82 837.094 24.22C836.622 23.612 836.37 22.82 836.338 21.844L836.326 20.812L836.338 19.744C836.362 18.776 836.614 17.992 837.094 17.392C837.582 16.784 838.338 16.48 839.362 16.48C840.394 16.48 841.15 16.784 841.63 17.392C842.118 17.992 842.374 18.776 842.398 19.744C842.406 19.968 842.41 20.324 842.41 20.812C842.41 21.284 842.406 21.628 842.398 21.844C842.366 22.82 842.11 23.612 841.63 24.22C841.158 24.82 840.402 25.12 839.362 25.12ZM839.362 24.124C839.978 24.124 840.442 23.92 840.754 23.512C841.066 23.104 841.23 22.528 841.246 21.784C841.254 21.552 841.258 21.22 841.258 20.788C841.258 20.348 841.254 20.02 841.246 19.804C841.23 19.068 841.062 18.496 840.742 18.088C840.43 17.672 839.97 17.464 839.362 17.464C838.754 17.464 838.294 17.672 837.982 18.088C837.67 18.496 837.506 19.068 837.49 19.804L837.478 20.788L837.49 21.784C837.506 22.528 837.67 23.104 837.982 23.512C838.294 23.92 838.754 24.124 839.362 24.124ZM844.028 25C843.948 25 843.88 24.976 843.824 24.928C843.776 24.872 843.752 24.804 843.752 24.724V24.364C843.752 24.18 843.852 24.004 844.052 23.836L846.668 21.232C847.26 20.728 847.668 20.316 847.892 19.996C848.116 19.676 848.228 19.336 848.228 18.976C848.228 18.504 848.096 18.136 847.832 17.872C847.568 17.6 847.184 17.464 846.68 17.464C846.2 17.464 845.82 17.604 845.54 17.884C845.26 18.164 845.088 18.54 845.024 19.012C845.008 19.1 844.968 19.168 844.904 19.216C844.84 19.264 844.776 19.288 844.712 19.288H844.136C844.064 19.288 844.004 19.264 843.956 19.216C843.908 19.168 843.884 19.112 843.884 19.048C843.9 18.624 844.012 18.216 844.22 17.824C844.436 17.424 844.752 17.1 845.168 16.852C845.584 16.596 846.088 16.468 846.68 16.468C847.576 16.468 848.248 16.704 848.696 17.176C849.152 17.64 849.38 18.232 849.38 18.952C849.38 19.456 849.256 19.912 849.008 20.32C848.768 20.72 848.388 21.144 847.868 21.592L845.504 23.992H849.284C849.372 23.992 849.44 24.016 849.488 24.064C849.536 24.112 849.56 24.18 849.56 24.268V24.724C849.56 24.804 849.532 24.872 849.476 24.928C849.428 24.976 849.364 25 849.284 25H844.028ZM853.964 25.12C852.932 25.12 852.176 24.82 851.696 24.22C851.224 23.612 850.972 22.82 850.94 21.844L850.928 20.812L850.94 19.744C850.964 18.776 851.216 17.992 851.696 17.392C852.184 16.784 852.94 16.48 853.964 16.48C854.996 16.48 855.752 16.784 856.232 17.392C856.72 17.992 856.976 18.776 857 19.744C857.008 19.968 857.012 20.324 857.012 20.812C857.012 21.284 857.008 21.628 857 21.844C856.968 22.82 856.712 23.612 856.232 24.22C855.76 24.82 855.004 25.12 853.964 25.12ZM853.964 24.124C854.58 24.124 855.044 23.92 855.356 23.512C855.668 23.104 855.832 22.528 855.848 21.784C855.856 21.552 855.86 21.22 855.86 20.788C855.86 20.348 855.856 20.02 855.848 19.804C855.832 19.068 855.664 18.496 855.344 18.088C855.032 17.672 854.572 17.464 853.964 17.464C853.356 17.464 852.896 17.672 852.584 18.088C852.272 18.496 852.108 19.068 852.092 19.804L852.08 20.788L852.092 21.784C852.108 22.528 852.272 23.104 852.584 23.512C852.896 23.92 853.356 24.124 853.964 24.124ZM864.523 25.12C863.915 25.12 863.371 25.02 862.891 24.82C862.419 24.612 862.051 24.316 861.787 23.932C861.523 23.548 861.391 23.1 861.391 22.588C861.391 22.116 861.507 21.704 861.739 21.352C861.979 20.992 862.299 20.716 862.699 20.524C862.379 20.34 862.131 20.1 861.955 19.804C861.779 19.5 861.691 19.144 861.691 18.736C861.691 18.04 861.951 17.492 862.471 17.092C862.991 16.684 863.675 16.48 864.523 16.48C865.371 16.48 866.051 16.68 866.563 17.08C867.083 17.48 867.343 18.032 867.343 18.736C867.343 19.136 867.255 19.488 867.079 19.792C866.903 20.088 866.659 20.332 866.347 20.524C866.747 20.716 867.063 20.992 867.295 21.352C867.535 21.704 867.655 22.12 867.655 22.6C867.655 23.112 867.523 23.56 867.259 23.944C866.995 24.32 866.623 24.612 866.143 24.82C865.671 25.02 865.131 25.12 864.523 25.12ZM864.523 20.104C865.011 20.088 865.423 19.96 865.759 19.72C866.095 19.48 866.263 19.16 866.263 18.76C866.263 18.352 866.095 18.028 865.759 17.788C865.431 17.54 865.019 17.416 864.523 17.416C864.019 17.416 863.603 17.54 863.275 17.788C862.947 18.028 862.783 18.352 862.783 18.76C862.783 19.168 862.947 19.496 863.275 19.744C863.603 19.984 864.019 20.104 864.523 20.104ZM864.523 24.184C865.091 24.184 865.563 24.04 865.939 23.752C866.323 23.464 866.515 23.08 866.515 22.6C866.515 22.12 866.323 21.736 865.939 21.448C865.563 21.16 865.091 21.016 864.523 21.016C863.947 21.016 863.467 21.16 863.083 21.448C862.707 21.736 862.519 22.12 862.519 22.6C862.519 23.08 862.707 23.464 863.083 23.752C863.467 24.04 863.947 24.184 864.523 24.184ZM869.428 20.8C869.348 20.8 869.284 20.776 869.236 20.728C869.188 20.672 869.164 20.604 869.164 20.524V19.72C869.164 19.632 869.188 19.564 869.236 19.516C869.284 19.46 869.348 19.432 869.428 19.432H870.256C870.344 19.432 870.412 19.46 870.46 19.516C870.516 19.564 870.544 19.632 870.544 19.72V20.524C870.544 20.604 870.516 20.672 870.46 20.728C870.404 20.776 870.336 20.8 870.256 20.8H869.428ZM869.428 25C869.348 25 869.284 24.976 869.236 24.928C869.188 24.872 869.164 24.804 869.164 24.724V23.92C869.164 23.832 869.188 23.764 869.236 23.716C869.284 23.66 869.348 23.632 869.428 23.632H870.256C870.344 23.632 870.412 23.66 870.46 23.716C870.516 23.764 870.544 23.832 870.544 23.92V24.724C870.544 24.804 870.516 24.872 870.46 24.928C870.404 24.976 870.336 25 870.256 25H869.428ZM872.247 25C872.167 25 872.099 24.976 872.043 24.928C871.995 24.872 871.971 24.804 871.971 24.724V24.364C871.971 24.18 872.071 24.004 872.271 23.836L874.887 21.232C875.479 20.728 875.887 20.316 876.111 19.996C876.335 19.676 876.447 19.336 876.447 18.976C876.447 18.504 876.315 18.136 876.051 17.872C875.787 17.6 875.403 17.464 874.899 17.464C874.419 17.464 874.039 17.604 873.759 17.884C873.479 18.164 873.307 18.54 873.243 19.012C873.227 19.1 873.187 19.168 873.123 19.216C873.059 19.264 872.995 19.288 872.931 19.288H872.355C872.283 19.288 872.223 19.264 872.175 19.216C872.127 19.168 872.103 19.112 872.103 19.048C872.119 18.624 872.231 18.216 872.439 17.824C872.655 17.424 872.971 17.1 873.387 16.852C873.803 16.596 874.307 16.468 874.899 16.468C875.795 16.468 876.467 16.704 876.915 17.176C877.371 17.64 877.599 18.232 877.599 18.952C877.599 19.456 877.475 19.912 877.227 20.32C876.987 20.72 876.607 21.144 876.087 21.592L873.723 23.992H877.503C877.591 23.992 877.659 24.016 877.707 24.064C877.755 24.112 877.779 24.18 877.779 24.268V24.724C877.779 24.804 877.751 24.872 877.695 24.928C877.647 24.976 877.583 25 877.503 25H872.247ZM881.943 25.12C881.319 25.12 880.779 25.02 880.323 24.82C879.867 24.612 879.519 24.344 879.279 24.016C879.047 23.688 878.923 23.348 878.907 22.996C878.907 22.924 878.931 22.868 878.979 22.828C879.027 22.78 879.087 22.756 879.159 22.756H879.699C879.787 22.756 879.859 22.776 879.915 22.816C879.971 22.848 880.015 22.916 880.047 23.02C880.151 23.428 880.375 23.716 880.719 23.884C881.071 24.052 881.483 24.136 881.955 24.136C882.531 24.136 882.987 24 883.323 23.728C883.667 23.448 883.839 23.052 883.839 22.54C883.839 21.564 883.243 21.076 882.051 21.076H880.923C880.843 21.076 880.775 21.052 880.719 21.004C880.671 20.948 880.647 20.88 880.647 20.8V20.488C880.647 20.368 880.691 20.264 880.779 20.176L883.119 17.584H879.567C879.487 17.584 879.419 17.56 879.363 17.512C879.315 17.464 879.291 17.4 879.291 17.32V16.888C879.291 16.8 879.315 16.732 879.363 16.684C879.419 16.628 879.487 16.6 879.567 16.6H884.319C884.407 16.6 884.475 16.628 884.523 16.684C884.579 16.732 884.607 16.8 884.607 16.888V17.284C884.607 17.372 884.567 17.464 884.487 17.56L882.147 20.188H882.339C883.155 20.212 883.799 20.424 884.271 20.824C884.751 21.224 884.991 21.808 884.991 22.576C884.991 23.104 884.859 23.56 884.595 23.944C884.339 24.32 883.979 24.612 883.515 24.82C883.051 25.02 882.527 25.12 881.943 25.12ZM891.144 25.12C890.752 25.12 890.388 25.04 890.052 24.88C889.724 24.72 889.46 24.504 889.26 24.232C889.068 23.952 888.972 23.644 888.972 23.308C888.972 22.78 889.188 22.348 889.62 22.012C890.052 21.676 890.64 21.452 891.384 21.34L893.184 21.088V20.74C893.184 19.916 892.708 19.504 891.756 19.504C891.388 19.504 891.092 19.58 890.868 19.732C890.644 19.876 890.48 20.048 890.376 20.248C890.344 20.328 890.308 20.384 890.268 20.416C890.236 20.44 890.188 20.452 890.124 20.452H889.656C889.584 20.452 889.52 20.428 889.464 20.38C889.416 20.324 889.392 20.26 889.392 20.188C889.392 20.004 889.476 19.792 889.644 19.552C889.82 19.304 890.088 19.092 890.448 18.916C890.808 18.732 891.248 18.64 891.768 18.64C892.664 18.64 893.304 18.848 893.688 19.264C894.08 19.68 894.276 20.2 894.276 20.824V24.724C894.276 24.804 894.248 24.872 894.192 24.928C894.144 24.976 894.08 25 894 25H893.472C893.392 25 893.328 24.976 893.28 24.928C893.232 24.872 893.208 24.804 893.208 24.724V24.196C893.032 24.46 892.776 24.68 892.44 24.856C892.104 25.032 891.672 25.12 891.144 25.12ZM891.384 24.244C891.912 24.244 892.344 24.072 892.68 23.728C893.016 23.384 893.184 22.884 893.184 22.228V21.892L891.78 22.096C891.204 22.176 890.768 22.312 890.472 22.504C890.176 22.696 890.028 22.936 890.028 23.224C890.028 23.552 890.16 23.804 890.424 23.98C890.696 24.156 891.016 24.244 891.384 24.244ZM896.289 25C896.209 25 896.141 24.976 896.085 24.928C896.037 24.872 896.013 24.804 896.013 24.724V19.036C896.013 18.956 896.037 18.892 896.085 18.844C896.141 18.788 896.209 18.76 896.289 18.76H896.793C896.873 18.76 896.937 18.788 896.985 18.844C897.033 18.892 897.057 18.956 897.057 19.036V19.444C897.489 18.908 898.073 18.64 898.809 18.64C899.689 18.64 900.313 19.008 900.681 19.744C900.873 19.408 901.145 19.14 901.497 18.94C901.857 18.74 902.257 18.64 902.697 18.64C903.353 18.64 903.889 18.864 904.305 19.312C904.721 19.76 904.929 20.408 904.929 21.256V24.724C904.929 24.804 904.901 24.872 904.845 24.928C904.797 24.976 904.733 25 904.653 25H904.137C904.057 25 903.989 24.976 903.933 24.928C903.885 24.872 903.861 24.804 903.861 24.724V21.364C903.861 20.724 903.729 20.268 903.465 19.996C903.201 19.716 902.853 19.576 902.421 19.576C902.037 19.576 901.705 19.72 901.425 20.008C901.153 20.288 901.017 20.74 901.017 21.364V24.724C901.017 24.804 900.989 24.872 900.933 24.928C900.885 24.976 900.821 25 900.741 25H900.213C900.133 25 900.065 24.976 900.009 24.928C899.961 24.872 899.937 24.804 899.937 24.724V21.364C899.937 20.732 899.797 20.276 899.517 19.996C899.245 19.716 898.905 19.576 898.497 19.576C898.113 19.576 897.781 19.716 897.501 19.996C897.229 20.276 897.093 20.728 897.093 21.352V24.724C897.093 24.804 897.065 24.872 897.009 24.928C896.961 24.976 896.897 25 896.817 25H896.289Z" fill="#464E55"/>
<line x1="773" y1="0.5" x2="974" y2="0.5" stroke="#DDE1E6"/>
<line x1="974" y1="40.5" x2="1177" y2="40.5" stroke="#DDE1E6"/>
<g clip-path="url(#clip8)">
<rect x="990.5" y="11" width="61" height="20" rx="5" fill="#198DF5"/>
<path d="M1007 19.625C1006.25 19.625 1005.62 20.2479 1005.62 21C1005.62 21.7526 1006.25 22.375 1007 22.375C1007.75 22.375 1008.38 21.7526 1008.38 21C1008.38 20.2479 1007.75 19.625 1007 19.625Z" fill="white"/>
<path d="M1007 17.7915C1003.5 17.7915 1002.45 20.8243 1002.44 20.855L1002.39 20.9998L1002.44 21.1447C1002.45 21.1754 1003.5 24.2082 1007 24.2082C1010.5 24.2082 1011.55 21.1754 1011.56 21.1447L1011.61 20.9998L1011.56 20.855C1011.55 20.8243 1010.5 17.7915 1007 17.7915ZM1007 23.2915C1004.55 23.2915 1003.6 21.5288 1003.37 20.9998C1003.6 20.4691 1004.55 18.7082 1007 18.7082C1009.45 18.7082 1010.4 20.4709 1010.63 20.9998C1010.4 21.5306 1009.45 23.2915 1007 23.2915Z" fill="white"/>
<path d="M1017.72 24C1017.52 24 1017.39 23.9067 1017.33 23.72L1015.19 17.3C1015.19 17.28 1015.18 17.25 1015.18 17.21C1015.18 17.15 1015.2 17.1 1015.24 17.06C1015.28 17.02 1015.33 17 1015.39 17H1016.28C1016.37 17 1016.44 17.0233 1016.49 17.07C1016.55 17.1167 1016.58 17.1667 1016.6 17.22L1018.27 22.34L1019.95 17.22C1019.97 17.1667 1020 17.1167 1020.05 17.07C1020.11 17.0233 1020.18 17 1020.26 17H1021.16C1021.22 17 1021.26 17.02 1021.3 17.06C1021.35 17.1 1021.37 17.15 1021.37 17.21L1021.35 17.3L1019.22 23.72C1019.16 23.9067 1019.03 24 1018.83 24H1017.72ZM1023.02 24C1022.96 24 1022.9 23.9767 1022.85 23.93C1022.81 23.8833 1022.78 23.8267 1022.78 23.76V17.24C1022.78 17.1667 1022.81 17.11 1022.85 17.07C1022.9 17.0233 1022.96 17 1023.02 17H1023.98C1024.06 17 1024.11 17.0233 1024.15 17.07C1024.2 17.11 1024.22 17.1667 1024.22 17.24V23.76C1024.22 23.8267 1024.2 23.8833 1024.15 23.93C1024.11 23.9767 1024.06 24 1023.98 24H1023.02ZM1026.37 24C1026.3 24 1026.25 23.9767 1026.2 23.93C1026.15 23.8833 1026.13 23.8267 1026.13 23.76V17.25C1026.13 17.1767 1026.15 17.1167 1026.19 17.07C1026.24 17.0233 1026.3 17 1026.37 17H1030.78C1030.85 17 1030.91 17.0233 1030.96 17.07C1031.01 17.1167 1031.03 17.1767 1031.03 17.25V17.92C1031.03 17.9933 1031.01 18.0533 1030.96 18.1C1030.91 18.14 1030.85 18.16 1030.78 18.16H1027.5V19.91H1030.56C1030.63 19.91 1030.69 19.9333 1030.74 19.98C1030.79 20.0267 1030.81 20.0867 1030.81 20.16V20.79C1030.81 20.8633 1030.79 20.9233 1030.74 20.97C1030.69 21.01 1030.63 21.03 1030.56 21.03H1027.5V22.84H1030.86C1030.93 22.84 1030.99 22.8633 1031.04 22.91C1031.09 22.95 1031.11 23.0067 1031.11 23.08V23.76C1031.11 23.8333 1031.09 23.8933 1031.04 23.94C1030.99 23.98 1030.93 24 1030.86 24H1026.37ZM1033.86 24C1033.67 24 1033.55 23.9 1033.5 23.7L1032.32 17.29L1032.31 17.21C1032.31 17.15 1032.33 17.1 1032.37 17.06C1032.41 17.02 1032.46 17 1032.52 17H1033.42C1033.51 17 1033.57 17.0167 1033.61 17.05C1033.65 17.0767 1033.68 17.1267 1033.69 17.2L1034.52 21.7L1035.41 18.8C1035.48 18.6333 1035.59 18.55 1035.74 18.55H1036.29C1036.38 18.55 1036.45 18.5767 1036.5 18.63C1036.55 18.6767 1036.59 18.7333 1036.61 18.8L1037.51 21.7L1038.33 17.2C1038.35 17.0667 1038.44 17 1038.61 17H1039.51C1039.56 17 1039.61 17.02 1039.65 17.06C1039.69 17.1 1039.71 17.15 1039.71 17.21C1039.71 17.2433 1039.71 17.27 1039.7 17.29L1038.52 23.7C1038.51 23.7933 1038.47 23.8667 1038.4 23.92C1038.34 23.9733 1038.26 24 1038.16 24H1037.48C1037.39 24 1037.31 23.9767 1037.25 23.93C1037.19 23.8767 1037.15 23.8167 1037.13 23.75L1036.01 20.43L1034.89 23.75C1034.84 23.9167 1034.72 24 1034.54 24H1033.86Z" fill="white"/>
</g>
<g clip-path="url(#clip9)">
<rect x="1058.5" y="11" width="88" height="20" rx="5" fill="#198DF5"/>
<path d="M1079.32 20.5854L1071.53 16.9187C1071.37 16.844 1071.18 16.8674 1071.04 16.9796C1070.91 17.0919 1070.85 17.273 1070.89 17.4444L1071.78 21.0001L1070.89 24.5559C1070.85 24.7273 1070.91 24.9088 1071.04 25.0211C1071.13 25.0899 1071.23 25.1251 1071.33 25.1251C1071.4 25.1251 1071.47 25.1109 1071.53 25.0816L1079.32 21.4149C1079.48 21.3393 1079.58 21.178 1079.58 21.0001C1079.58 20.8223 1079.48 20.661 1079.32 20.5854ZM1072.01 23.8404L1072.4 22.3018L1075 21.0001L1072.4 19.6985L1072.01 18.1599L1078.05 21.0001L1072.01 23.8404Z" fill="white"/>
<path d="M1085.99 24.1C1085.39 24.1 1084.88 24.01 1084.45 23.83C1084.03 23.65 1083.7 23.4133 1083.48 23.12C1083.26 22.8267 1083.15 22.5067 1083.13 22.16C1083.13 22.1067 1083.15 22.06 1083.19 22.02C1083.23 21.9733 1083.28 21.95 1083.34 21.95H1084.25C1084.33 21.95 1084.39 21.9667 1084.43 22C1084.48 22.0333 1084.52 22.08 1084.56 22.14C1084.63 22.3667 1084.78 22.5567 1085.01 22.71C1085.25 22.8633 1085.58 22.94 1085.99 22.94C1086.46 22.94 1086.81 22.8633 1087.04 22.71C1087.28 22.55 1087.4 22.3333 1087.4 22.06C1087.4 21.88 1087.34 21.73 1087.22 21.61C1087.1 21.49 1086.92 21.3867 1086.67 21.3C1086.43 21.2067 1086.07 21.0967 1085.59 20.97C1084.81 20.7833 1084.23 20.5367 1083.86 20.23C1083.5 19.9233 1083.31 19.4833 1083.31 18.91C1083.31 18.5233 1083.42 18.18 1083.63 17.88C1083.85 17.5733 1084.15 17.3333 1084.54 17.16C1084.94 16.9867 1085.41 16.9 1085.93 16.9C1086.49 16.9 1086.96 16.9967 1087.36 17.19C1087.77 17.3833 1088.08 17.6267 1088.28 17.92C1088.5 18.2067 1088.61 18.4933 1088.62 18.78C1088.62 18.8333 1088.61 18.8833 1088.57 18.93C1088.52 18.97 1088.47 18.99 1088.41 18.99H1087.46C1087.32 18.99 1087.22 18.93 1087.16 18.81C1087.13 18.5967 1087 18.42 1086.77 18.28C1086.55 18.1333 1086.27 18.06 1085.93 18.06C1085.57 18.06 1085.28 18.13 1085.06 18.27C1084.86 18.41 1084.75 18.6133 1084.75 18.88C1084.75 19.06 1084.81 19.21 1084.91 19.33C1085.02 19.45 1085.19 19.5567 1085.41 19.65C1085.64 19.7367 1085.97 19.8367 1086.4 19.95C1087 20.0833 1087.47 20.2333 1087.81 20.4C1088.17 20.5667 1088.43 20.7767 1088.59 21.03C1088.76 21.2833 1088.85 21.6067 1088.85 22C1088.85 22.4333 1088.73 22.81 1088.49 23.13C1088.25 23.4433 1087.92 23.6833 1087.48 23.85C1087.06 24.0167 1086.56 24.1 1085.99 24.1ZM1090.57 24C1090.5 24 1090.45 23.9767 1090.4 23.93C1090.35 23.8833 1090.33 23.8267 1090.33 23.76V17.25C1090.33 17.1767 1090.35 17.1167 1090.39 17.07C1090.44 17.0233 1090.5 17 1090.57 17H1094.98C1095.05 17 1095.11 17.0233 1095.16 17.07C1095.21 17.1167 1095.23 17.1767 1095.23 17.25V17.92C1095.23 17.9933 1095.21 18.0533 1095.16 18.1C1095.11 18.14 1095.05 18.16 1094.98 18.16H1091.7V19.91H1094.76C1094.83 19.91 1094.89 19.9333 1094.94 19.98C1094.99 20.0267 1095.01 20.0867 1095.01 20.16V20.79C1095.01 20.8633 1094.99 20.9233 1094.94 20.97C1094.89 21.01 1094.83 21.03 1094.76 21.03H1091.7V22.84H1095.06C1095.13 22.84 1095.19 22.8633 1095.24 22.91C1095.29 22.95 1095.31 23.0067 1095.31 23.08V23.76C1095.31 23.8333 1095.29 23.8933 1095.24 23.94C1095.19 23.98 1095.13 24 1095.06 24H1090.57ZM1097.15 24C1097.08 24 1097.03 23.9767 1096.98 23.93C1096.93 23.8833 1096.91 23.8267 1096.91 23.76V17.25C1096.91 17.1767 1096.93 17.1167 1096.97 17.07C1097.02 17.0233 1097.08 17 1097.15 17H1097.93C1098.06 17 1098.15 17.0567 1098.22 17.17L1101.08 21.61V17.25C1101.08 17.1767 1101.1 17.1167 1101.14 17.07C1101.19 17.0233 1101.25 17 1101.32 17H1102.18C1102.25 17 1102.31 17.0233 1102.36 17.07C1102.41 17.1167 1102.43 17.1767 1102.43 17.25V23.75C1102.43 23.8233 1102.41 23.8833 1102.36 23.93C1102.31 23.9767 1102.26 24 1102.19 24H1101.4C1101.27 24 1101.17 23.9433 1101.1 23.83L1098.25 19.49V23.76C1098.25 23.8267 1098.23 23.8833 1098.18 23.93C1098.14 23.9767 1098.08 24 1098.01 24H1097.15ZM1104.57 24C1104.5 24 1104.45 23.9767 1104.4 23.93C1104.35 23.8833 1104.33 23.8267 1104.33 23.76V17.25C1104.33 17.1767 1104.35 17.1167 1104.39 17.07C1104.44 17.0233 1104.5 17 1104.57 17H1107.01C1108.98 17 1109.98 17.9067 1110.02 19.72C1110.03 20.1067 1110.04 20.3667 1110.04 20.5C1110.04 20.6267 1110.03 20.8833 1110.02 21.27C1109.99 22.2033 1109.74 22.8933 1109.26 23.34C1108.79 23.78 1108.05 24 1107.06 24H1104.57ZM1107.01 22.84C1107.56 22.84 1107.96 22.7167 1108.21 22.47C1108.46 22.2233 1108.59 21.8133 1108.6 21.24C1108.61 20.84 1108.62 20.59 1108.62 20.49C1108.62 20.3833 1108.61 20.1367 1108.6 19.75C1108.59 19.2033 1108.45 18.8033 1108.19 18.55C1107.93 18.29 1107.52 18.16 1106.96 18.16H1105.74V22.84H1107.01ZM1116.78 24.1C1116.18 24.1 1115.66 24.01 1115.24 23.83C1114.81 23.65 1114.49 23.4133 1114.27 23.12C1114.05 22.8267 1113.93 22.5067 1113.92 22.16C1113.92 22.1067 1113.94 22.06 1113.98 22.02C1114.02 21.9733 1114.07 21.95 1114.13 21.95H1115.04C1115.11 21.95 1115.17 21.9667 1115.22 22C1115.26 22.0333 1115.31 22.08 1115.35 22.14C1115.41 22.3667 1115.56 22.5567 1115.8 22.71C1116.04 22.8633 1116.36 22.94 1116.78 22.94C1117.24 22.94 1117.59 22.8633 1117.83 22.71C1118.07 22.55 1118.19 22.3333 1118.19 22.06C1118.19 21.88 1118.13 21.73 1118.01 21.61C1117.89 21.49 1117.7 21.3867 1117.46 21.3C1117.22 21.2067 1116.86 21.0967 1116.38 20.97C1115.59 20.7833 1115.01 20.5367 1114.65 20.23C1114.28 19.9233 1114.1 19.4833 1114.1 18.91C1114.1 18.5233 1114.2 18.18 1114.42 17.88C1114.63 17.5733 1114.93 17.3333 1115.33 17.16C1115.73 16.9867 1116.19 16.9 1116.72 16.9C1117.27 16.9 1117.75 16.9967 1118.15 17.19C1118.55 17.3833 1118.86 17.6267 1119.07 17.92C1119.28 18.2067 1119.39 18.4933 1119.41 18.78C1119.41 18.8333 1119.39 18.8833 1119.35 18.93C1119.31 18.97 1119.26 18.99 1119.2 18.99H1118.25C1118.1 18.99 1118 18.93 1117.95 18.81C1117.91 18.5967 1117.78 18.42 1117.56 18.28C1117.33 18.1333 1117.05 18.06 1116.72 18.06C1116.35 18.06 1116.06 18.13 1115.85 18.27C1115.64 18.41 1115.54 18.6133 1115.54 18.88C1115.54 19.06 1115.59 19.21 1115.7 19.33C1115.8 19.45 1115.97 19.5567 1116.2 19.65C1116.42 19.7367 1116.75 19.8367 1117.19 19.95C1117.78 20.0833 1118.25 20.2333 1118.6 20.4C1118.95 20.5667 1119.21 20.7767 1119.38 21.03C1119.54 21.2833 1119.63 21.6067 1119.63 22C1119.63 22.4333 1119.51 22.81 1119.27 23.13C1119.03 23.4433 1118.7 23.6833 1118.27 23.85C1117.84 24.0167 1117.34 24.1 1116.78 24.1ZM1121.35 24C1121.29 24 1121.23 23.9767 1121.18 23.93C1121.14 23.8833 1121.11 23.8267 1121.11 23.76V17.25C1121.11 17.1767 1121.13 17.1167 1121.17 17.07C1121.22 17.0233 1121.28 17 1121.35 17H1122.16C1122.29 17 1122.39 17.0633 1122.46 17.19L1124.39 20.77L1126.32 17.19C1126.4 17.0633 1126.5 17 1126.62 17H1127.42C1127.5 17 1127.56 17.0233 1127.6 17.07C1127.65 17.1167 1127.67 17.1767 1127.67 17.25V23.76C1127.67 23.8333 1127.65 23.8933 1127.6 23.94C1127.56 23.98 1127.5 24 1127.42 24H1126.56C1126.5 24 1126.44 23.9767 1126.39 23.93C1126.35 23.8833 1126.32 23.8267 1126.32 23.76V19.46L1124.93 22.1C1124.86 22.2467 1124.75 22.32 1124.6 22.32H1124.18C1124.04 22.32 1123.93 22.2467 1123.84 22.1L1122.45 19.46V23.76C1122.45 23.8267 1122.43 23.8833 1122.38 23.93C1122.34 23.9767 1122.29 24 1122.21 24H1121.35ZM1132.02 24.1C1131.42 24.1 1130.91 24.01 1130.48 23.83C1130.05 23.65 1129.73 23.4133 1129.51 23.12C1129.29 22.8267 1129.17 22.5067 1129.16 22.16C1129.16 22.1067 1129.18 22.06 1129.22 22.02C1129.26 21.9733 1129.31 21.95 1129.37 21.95H1130.28C1130.35 21.95 1130.41 21.9667 1130.46 22C1130.51 22.0333 1130.55 22.08 1130.59 22.14C1130.66 22.3667 1130.81 22.5567 1131.04 22.71C1131.28 22.8633 1131.61 22.94 1132.02 22.94C1132.49 22.94 1132.84 22.8633 1133.07 22.71C1133.31 22.55 1133.43 22.3333 1133.43 22.06C1133.43 21.88 1133.37 21.73 1133.25 21.61C1133.13 21.49 1132.95 21.3867 1132.7 21.3C1132.46 21.2067 1132.1 21.0967 1131.62 20.97C1130.83 20.7833 1130.26 20.5367 1129.89 20.23C1129.52 19.9233 1129.34 19.4833 1129.34 18.91C1129.34 18.5233 1129.45 18.18 1129.66 17.88C1129.87 17.5733 1130.18 17.3333 1130.57 17.16C1130.97 16.9867 1131.43 16.9 1131.96 16.9C1132.51 16.9 1132.99 16.9967 1133.39 17.19C1133.8 17.3833 1134.1 17.6267 1134.31 17.92C1134.52 18.2067 1134.64 18.4933 1134.65 18.78C1134.65 18.8333 1134.63 18.8833 1134.59 18.93C1134.55 18.97 1134.5 18.99 1134.44 18.99H1133.49C1133.34 18.99 1133.24 18.93 1133.19 18.81C1133.16 18.5967 1133.03 18.42 1132.8 18.28C1132.57 18.1333 1132.29 18.06 1131.96 18.06C1131.59 18.06 1131.3 18.13 1131.09 18.27C1130.88 18.41 1130.78 18.6133 1130.78 18.88C1130.78 19.06 1130.83 19.21 1130.94 19.33C1131.05 19.45 1131.21 19.5567 1131.44 19.65C1131.67 19.7367 1132 19.8367 1132.43 19.95C1133.02 20.0833 1133.49 20.2333 1133.84 20.4C1134.19 20.5667 1134.45 20.7767 1134.62 21.03C1134.79 21.2833 1134.87 21.6067 1134.87 22C1134.87 22.4333 1134.75 22.81 1134.51 23.13C1134.28 23.4433 1133.94 23.6833 1133.51 23.85C1133.08 24.0167 1132.59 24.1 1132.02 24.1Z" fill="white"/>
</g>
<line x1="974" y1="0.5" x2="1177" y2="0.5" stroke="#DDE1E6"/>
<g clip-path="url(#clip10)">
<line y1="40.6665" x2="19" y2="40.6665" stroke="#DDE1E6"/>
</g>
<g clip-path="url(#clip11)">
<line y1="0.666504" x2="19" y2="0.666504" stroke="#DDE1E6"/>
</g>
<g clip-path="url(#clip12)">
<line x1="1176" y1="40.6665" x2="1199" y2="40.6665" stroke="#DDE1E6"/>
</g>
<g clip-path="url(#clip13)">
<line x1="1176" y1="0.666504" x2="1199" y2="0.666504" stroke="#DDE1E6"/>
</g>
</g>
</g>
<defs>
<filter id="filter0_dd" x="-6" y="-243" width="1211" height="729" filterUnits="userSpaceOnUse" color-interpolation-filters="sRGB">
<feFlood flood-opacity="0" result="BackgroundImageFix"/>
<feColorMatrix in="SourceAlpha" type="matrix" values="0 0 0 0 0 0 0 0 0 0 0 0 0 0 0 0 0 0 127 0"/>
<feOffset dy="4"/>
<feGaussianBlur stdDeviation="3"/>
<feColorMatrix type="matrix" values="0 0 0 0 0 0 0 0 0 0 0 0 0 0 0 0 0 0 0.1 0"/>
<feBlend mode="normal" in2="BackgroundImageFix" result="effect1_dropShadow"/>
<feColorMatrix in="SourceAlpha" type="matrix" values="0 0 0 0 0 0 0 0 0 0 0 0 0 0 0 0 0 0 127 0"/>
<feOffset dy="2"/>
<feGaussianBlur stdDeviation="2"/>
<feColorMatrix type="matrix" values="0 0 0 0 0 0 0 0 0 0 0 0 0 0 0 0 0 0 0.06 0"/>
<feBlend mode="normal" in2="effect1_dropShadow" result="effect2_dropShadow"/>
<feBlend mode="normal" in="SourceGraphic" in2="effect2_dropShadow" result="shape"/>
</filter>
<clipPath id="clip0">
<rect width="1195" height="41" fill="white"/>
</clipPath>
<clipPath id="clip1">
<rect x="-201" y="-394" width="1440" height="900" fill="white"/>
</clipPath>
<clipPath id="clip2">
<path d="M15 40H178.636V41H15V40Z" fill="white"/>
</clipPath>
<clipPath id="clip3">
<path d="M15 0H178.636V1H15V0Z" fill="white"/>
</clipPath>
<clipPath id="clip4">
<path d="M178 1H284.385V41H178V1Z" fill="white"/>
</clipPath>
<clipPath id="clip5">
<path d="M178 -39H284.385V1H178V-39Z" fill="white"/>
</clipPath>
<clipPath id="clip6">
<path d="M385 40H481.614V41H385V40Z" fill="white"/>
</clipPath>
<clipPath id="clip7">
<path d="M385 0H481.614V1H385V0Z" fill="white"/>
</clipPath>
<clipPath id="clip8">
<rect x="990.5" y="11" width="61" height="20" rx="5" fill="white"/>
</clipPath>
<clipPath id="clip9">
<rect x="1058.5" y="11" width="88" height="20" rx="5" fill="white"/>
</clipPath>
<clipPath id="clip10">
<path d="M0 40.1665H19V40.9998H0V40.1665Z" fill="white"/>
</clipPath>
<clipPath id="clip11">
<path d="M0 0.166504H19V0.999836H0V0.166504Z" fill="white"/>
</clipPath>
<clipPath id="clip12">
<path d="M1176 40.1665H1199V40.9998H1176V40.1665Z" fill="white"/>
</clipPath>
<clipPath id="clip13">
<path d="M1176 0.166504H1199V0.999836H1176V0.166504Z" fill="white"/>
</clipPath>
</defs>
</svg>
