<svg width="179" height="116" viewBox="0 0 179 116" fill="none" xmlns="http://www.w3.org/2000/svg">
<path d="M162.971 0H15.4868C6.94804 0 0 6.94715 0 15.4868V100.19C0 108.729 6.94804 115.677 15.4868 115.677H162.971C171.51 115.677 178.457 108.73 178.457 100.19V15.4868C178.457 6.94715 171.511 0 162.971 0ZM165.179 100.19C165.179 101.407 164.189 102.399 162.971 102.399H15.4868C14.2688 102.399 13.2782 101.408 13.2782 100.19V15.4868C13.2782 14.2696 14.2688 13.2782 15.4868 13.2782H162.971C164.189 13.2782 165.179 14.2687 165.179 15.4868V100.19Z" fill="black"/>
<path d="M133.779 23.9014C130.111 23.9014 127.14 26.8739 127.14 30.5405V85.6131C127.14 89.2797 130.111 92.2522 133.779 92.2522C137.446 92.2522 140.418 89.2797 140.418 85.6131V30.5405C140.418 26.873 137.445 23.9014 133.779 23.9014Z" fill="black"/>
<path d="M109.078 23.9014C105.41 23.9014 102.438 26.8739 102.438 30.5405V85.6131C102.438 89.2797 105.41 92.2522 109.078 92.2522C112.745 92.2522 115.717 89.2797 115.717 85.6131V30.5405C115.717 26.873 112.745 23.9014 109.078 23.9014Z" fill="black"/>
<path d="M84.3766 23.9014C80.7092 23.9014 77.7375 26.8739 77.7375 30.5405V85.6131C77.7375 89.2797 80.7092 92.2522 84.3766 92.2522C88.0441 92.2522 91.0157 89.2797 91.0157 85.6131V30.5405C91.0157 26.873 88.0441 23.9014 84.3766 23.9014Z" fill="black"/>
<path d="M35.8513 23.9004C32.1838 23.9004 29.2122 26.8729 29.2122 30.5395V85.6121C29.2122 89.2787 32.1838 92.2512 35.8513 92.2512C39.5187 92.2512 42.4904 89.2787 42.4904 85.6121V30.5395C42.4904 26.8721 39.5178 23.9004 35.8513 23.9004Z" fill="black"/>
</svg>
