<svg width="477" height="330" viewBox="0 0 477 330" fill="none" xmlns="http://www.w3.org/2000/svg">
<path d="M119.317 37.0805C87.3979 82.1678 -72.845 225.627 39.3035 264.459C80.4965 278.697 126.866 268.557 168.49 285.169C214.859 303.721 252.17 332.629 304.362 328.961C348.143 325.941 364.534 290.13 369.063 251.083C373.808 210.526 388.042 201.466 413.922 171.695C435.274 147.102 450.155 114.096 424.059 88.424C396.022 60.8107 349.653 73.9701 313.852 72.0286C289.265 70.7342 263.6 67.0668 242.896 54.986C231.466 48.2984 219.172 39.0221 206.232 34.7075C179.058 25.8626 143.688 26.9413 119.317 37.0805Z" fill="#FCFDFF"/>
<mask id="mask0" mask-type="alpha" maskUnits="userSpaceOnUse" x="38" y="0" width="439" height="301">
<path d="M157.566 8.36431C125.647 53.4516 -34.596 196.911 77.5525 235.742C118.746 249.98 165.115 239.841 206.739 256.452C253.108 275.005 290.419 303.913 342.611 300.245C386.392 297.225 402.783 261.414 407.312 222.367C412.057 181.81 426.291 172.75 452.172 142.979C473.523 118.386 488.404 85.3795 462.308 59.7077C434.271 32.0945 387.902 45.2539 352.101 43.3124C327.514 42.018 301.85 38.3506 281.145 26.2698C269.715 19.5822 257.421 10.3059 244.481 5.99129C217.307 -2.85358 181.937 -1.77494 157.566 8.36431Z" fill="#FBE1D2"/>
</mask>
<g mask="url(#mask0)">
<path d="M116.108 11.9731C114.439 11.9731 113.187 10.7197 113.187 9.04849C113.187 7.37727 114.439 6.12381 116.108 6.12381C117.778 6.12381 119.03 7.37727 119.03 9.04849C119.03 10.7197 117.778 11.9731 116.108 11.9731Z" fill="#EA837D"/>
<path d="M136.142 11.9731C134.473 11.9731 133.221 10.7197 133.221 9.04849C133.221 7.37727 134.473 6.12381 136.142 6.12381C137.812 6.12381 139.064 7.37727 139.064 9.04849C139.064 10.7197 137.603 11.9731 136.142 11.9731Z" fill="#EA837D"/>
<path d="M155.968 11.9731C154.298 11.9731 153.046 10.7197 153.046 9.04849C153.046 7.37727 154.298 6.12381 155.968 6.12381C157.637 6.12381 158.889 7.37727 158.889 9.04849C158.889 10.7197 157.637 11.9731 155.968 11.9731Z" fill="#EA837D"/>
<path d="M176.002 11.9731C174.332 11.9731 173.08 10.7197 173.08 9.04849C173.08 7.37727 174.332 6.12381 176.002 6.12381C177.671 6.12381 178.923 7.37727 178.923 9.04849C178.923 10.7197 177.463 11.9731 176.002 11.9731Z" fill="#EA837D"/>
<path d="M195.827 11.9731C194.158 11.9731 192.906 10.7197 192.906 9.04849C192.906 7.37727 194.158 6.12381 195.827 6.12381C197.497 6.12381 198.749 7.37727 198.749 9.04849C198.749 10.7197 197.497 11.9731 195.827 11.9731Z" fill="#EA837D"/>
<path d="M116.108 32.0277C114.439 32.0277 113.187 30.7742 113.187 29.103C113.187 27.4318 114.439 26.1784 116.108 26.1784C117.778 26.1784 119.03 27.4318 119.03 29.103C119.03 30.7742 117.778 32.0277 116.108 32.0277Z" fill="#EA837D"/>
<path d="M136.142 32.0277C134.473 32.0277 133.221 30.7742 133.221 29.103C133.221 27.4318 134.473 26.1784 136.142 26.1784C137.812 26.1784 139.064 27.4318 139.064 29.103C139.064 30.7742 137.603 32.0277 136.142 32.0277Z" fill="#EA837D"/>
<path d="M155.968 32.0277C154.298 32.0277 153.046 30.7742 153.046 29.103C153.046 27.4318 154.298 26.1784 155.968 26.1784C157.637 26.1784 158.889 27.4318 158.889 29.103C158.889 30.7742 157.637 32.0277 155.968 32.0277Z" fill="#EA837D"/>
<path d="M176.002 32.0277C174.332 32.0277 173.08 30.7742 173.08 29.103C173.08 27.4318 174.332 26.1784 176.002 26.1784C177.671 26.1784 178.923 27.4318 178.923 29.103C178.923 30.7742 177.463 32.0277 176.002 32.0277Z" fill="#EA837D"/>
<path d="M195.827 32.0277C194.158 32.0277 192.906 30.7742 192.906 29.103C192.906 27.4318 194.158 26.1784 195.827 26.1784C197.497 26.1784 198.749 27.4318 198.749 29.103C198.749 30.7742 197.497 32.0277 195.827 32.0277Z" fill="#EA837D"/>
<path d="M116.108 52.0822C114.439 52.0822 113.187 50.8288 113.187 49.1576C113.187 47.4864 114.439 46.2329 116.108 46.2329C117.778 46.2329 119.03 47.4864 119.03 49.1576C119.03 50.6199 117.778 52.0822 116.108 52.0822Z" fill="#EA837D"/>
<path d="M136.142 52.0822C134.473 52.0822 133.221 50.8288 133.221 49.1576C133.221 47.4864 134.473 46.2329 136.142 46.2329C137.812 46.2329 139.064 47.4864 139.064 49.1576C139.064 50.6199 137.603 52.0822 136.142 52.0822Z" fill="#EA837D"/>
<path d="M155.968 52.0822C154.298 52.0822 153.046 50.8288 153.046 49.1576C153.046 47.4864 154.298 46.2329 155.968 46.2329C157.637 46.2329 158.889 47.4864 158.889 49.1576C158.889 50.6199 157.637 52.0822 155.968 52.0822Z" fill="#EA837D"/>
<path d="M176.002 52.0822C174.332 52.0822 173.08 50.8288 173.08 49.1576C173.08 47.4864 174.332 46.2329 176.002 46.2329C177.671 46.2329 178.923 47.4864 178.923 49.1576C178.923 50.6199 177.463 52.0822 176.002 52.0822Z" fill="#EA837D"/>
<path d="M195.827 52.0822C194.158 52.0822 192.906 50.8288 192.906 49.1576C192.906 47.4864 194.158 46.2329 195.827 46.2329C197.497 46.2329 198.749 47.4864 198.749 49.1576C198.749 50.6199 197.497 52.0822 195.827 52.0822Z" fill="#EA837D"/>
<path d="M116.108 71.9278C114.439 71.9278 113.187 70.6745 113.187 69.0032C113.187 67.332 114.439 66.0786 116.108 66.0786C117.778 66.0786 119.03 67.332 119.03 69.0032C119.03 70.6745 117.778 71.9278 116.108 71.9278Z" fill="#EA837D"/>
<path d="M136.142 71.9278C134.473 71.9278 133.221 70.6745 133.221 69.0032C133.221 67.332 134.473 66.0786 136.142 66.0786C137.812 66.0786 139.064 67.332 139.064 69.0032C139.064 70.6745 137.603 71.9278 136.142 71.9278Z" fill="#EA837D"/>
<path d="M155.968 71.9278C154.298 71.9278 153.046 70.6745 153.046 69.0032C153.046 67.332 154.298 66.0786 155.968 66.0786C157.637 66.0786 158.889 67.332 158.889 69.0032C158.889 70.6745 157.637 71.9278 155.968 71.9278Z" fill="#EA837D"/>
<path d="M176.002 71.9278C174.332 71.9278 173.08 70.6745 173.08 69.0032C173.08 67.332 174.332 66.0786 176.002 66.0786C177.671 66.0786 178.923 67.332 178.923 69.0032C178.923 70.6745 177.463 71.9278 176.002 71.9278Z" fill="#EA837D"/>
<path d="M195.827 71.9278C194.158 71.9278 192.906 70.6745 192.906 69.0032C192.906 67.332 194.158 66.0786 195.827 66.0786C197.497 66.0786 198.749 67.332 198.749 69.0032C198.749 70.6745 197.497 71.9278 195.827 71.9278Z" fill="#EA837D"/>
<path d="M116.108 91.9828C114.439 91.9828 113.187 90.7294 113.187 89.0582C113.187 87.3869 114.439 86.1335 116.108 86.1335C117.778 86.1335 119.03 87.3869 119.03 89.0582C119.03 90.7294 117.778 91.9828 116.108 91.9828Z" fill="#EA837D"/>
<path d="M136.142 91.9828C134.473 91.9828 133.221 90.7294 133.221 89.0582C133.221 87.3869 134.473 86.1335 136.142 86.1335C137.812 86.1335 139.064 87.3869 139.064 89.0582C139.064 90.7294 137.603 91.9828 136.142 91.9828Z" fill="#EA837D"/>
<path d="M155.968 91.9828C154.298 91.9828 153.046 90.7294 153.046 89.0582C153.046 87.3869 154.298 86.1335 155.968 86.1335C157.637 86.1335 158.889 87.3869 158.889 89.0582C158.889 90.7294 157.637 91.9828 155.968 91.9828Z" fill="#EA837D"/>
<path d="M176.002 91.9828C174.332 91.9828 173.08 90.7294 173.08 89.0582C173.08 87.3869 174.332 86.1335 176.002 86.1335C177.671 86.1335 178.923 87.3869 178.923 89.0582C178.923 90.7294 177.463 91.9828 176.002 91.9828Z" fill="#EA837D"/>
<path d="M195.827 91.9828C194.158 91.9828 192.906 90.7294 192.906 89.0582C192.906 87.3869 194.158 86.1335 195.827 86.1335C197.497 86.1335 198.749 87.3869 198.749 89.0582C198.749 90.7294 197.497 91.9828 195.827 91.9828Z" fill="#EA837D"/>
<path d="M116.108 112.037C114.439 112.037 113.187 110.784 113.187 109.113C113.187 107.441 114.439 106.188 116.108 106.188C117.778 106.188 119.03 107.441 119.03 109.113C119.03 110.575 117.778 112.037 116.108 112.037Z" fill="#EA837D"/>
<path d="M136.142 112.037C134.473 112.037 133.221 110.784 133.221 109.113C133.221 107.441 134.473 106.188 136.142 106.188C137.812 106.188 139.064 107.441 139.064 109.113C139.064 110.575 137.603 112.037 136.142 112.037Z" fill="#EA837D"/>
<path d="M155.968 112.037C154.298 112.037 153.046 110.784 153.046 109.113C153.046 107.441 154.298 106.188 155.968 106.188C157.637 106.188 158.889 107.441 158.889 109.113C158.889 110.575 157.637 112.037 155.968 112.037Z" fill="#EA837D"/>
<path d="M176.002 112.037C174.332 112.037 173.08 110.784 173.08 109.113C173.08 107.441 174.332 106.188 176.002 106.188C177.671 106.188 178.923 107.441 178.923 109.113C178.923 110.575 177.463 112.037 176.002 112.037Z" fill="#EA837D"/>
<path d="M195.827 112.037C194.158 112.037 192.906 110.784 192.906 109.113C192.906 107.441 194.158 106.188 195.827 106.188C197.497 106.188 198.749 107.441 198.749 109.113C198.749 110.575 197.497 112.037 195.827 112.037Z" fill="#EA837D"/>
<path d="M36.3897 11.9747C34.7202 11.9747 33.468 10.7213 33.468 9.05013C33.468 7.37891 34.7202 6.12544 36.3897 6.12544C38.0592 6.12544 39.3113 7.37891 39.3113 9.05013C39.3113 10.7213 37.8505 11.9747 36.3897 11.9747Z" fill="#EA837D"/>
<path d="M56.215 11.9731C54.5455 11.9731 53.2933 10.7197 53.2933 9.04849C53.2933 7.37727 54.5455 6.12381 56.215 6.12381C57.8845 6.12381 59.1366 7.37727 59.1366 9.04849C59.1366 10.7197 57.8845 11.9731 56.215 11.9731Z" fill="#EA837D"/>
<path d="M76.249 11.9731C74.5795 11.9731 73.3274 10.7197 73.3274 9.04849C73.3274 7.37727 74.5795 6.12381 76.249 6.12381C77.9185 6.12381 79.1707 7.37727 79.1707 9.04849C79.1707 10.7197 77.9185 11.9731 76.249 11.9731Z" fill="#EA837D"/>
<path d="M96.0743 11.9731C94.4048 11.9731 93.1527 10.7197 93.1527 9.04849C93.1527 7.37727 94.4048 6.12381 96.0743 6.12381C97.7438 6.12381 98.996 7.37727 98.996 9.04849C98.996 10.7197 97.7438 11.9731 96.0743 11.9731Z" fill="#EA837D"/>
<path d="M36.3897 32.0277C34.7202 32.0277 33.468 30.7742 33.468 29.103C33.468 27.4318 34.7202 26.1784 36.3897 26.1784C38.0592 26.1784 39.3113 27.4318 39.3113 29.103C39.3113 30.7742 37.8505 32.0277 36.3897 32.0277Z" fill="#EA837D"/>
<path d="M56.215 32.0277C54.5455 32.0277 53.2933 30.7742 53.2933 29.103C53.2933 27.4318 54.5455 26.1784 56.215 26.1784C57.8845 26.1784 59.1366 27.4318 59.1366 29.103C59.1366 30.7742 57.8845 32.0277 56.215 32.0277Z" fill="#EA837D"/>
<path d="M76.249 32.0277C74.5795 32.0277 73.3274 30.7742 73.3274 29.103C73.3274 27.4318 74.5795 26.1784 76.249 26.1784C77.9185 26.1784 79.1707 27.4318 79.1707 29.103C79.1707 30.7742 77.9185 32.0277 76.249 32.0277Z" fill="#EA837D"/>
<path d="M96.0743 32.0277C94.4048 32.0277 93.1527 30.7742 93.1527 29.103C93.1527 27.4318 94.4048 26.1784 96.0743 26.1784C97.7438 26.1784 98.996 27.4318 98.996 29.103C98.996 30.7742 97.7438 32.0277 96.0743 32.0277Z" fill="#EA837D"/>
<path d="M36.3897 52.0822C34.7202 52.0822 33.468 50.8288 33.468 49.1576C33.468 47.4864 34.7202 46.2329 36.3897 46.2329C38.0592 46.2329 39.3113 47.4864 39.3113 49.1576C39.3113 50.6199 37.8505 52.0822 36.3897 52.0822Z" fill="#EA837D"/>
<path d="M56.215 52.0822C54.5455 52.0822 53.2933 50.8288 53.2933 49.1576C53.2933 47.4864 54.5455 46.2329 56.215 46.2329C57.8845 46.2329 59.1366 47.4864 59.1366 49.1576C59.1366 50.6199 57.8845 52.0822 56.215 52.0822Z" fill="#EA837D"/>
<path d="M76.249 52.0822C74.5795 52.0822 73.3274 50.8288 73.3274 49.1576C73.3274 47.4864 74.5795 46.2329 76.249 46.2329C77.9185 46.2329 79.1707 47.4864 79.1707 49.1576C79.1707 50.6199 77.9185 52.0822 76.249 52.0822Z" fill="#EA837D"/>
<path d="M96.0743 52.0822C94.4048 52.0822 93.1527 50.8288 93.1527 49.1576C93.1527 47.4864 94.4048 46.2329 96.0743 46.2329C97.7438 46.2329 98.996 47.4864 98.996 49.1576C98.996 50.6199 97.7438 52.0822 96.0743 52.0822Z" fill="#EA837D"/>
<path d="M36.3897 71.9278C34.7202 71.9278 33.468 70.6745 33.468 69.0032C33.468 67.332 34.7202 66.0786 36.3897 66.0786C38.0592 66.0786 39.3113 67.332 39.3113 69.0032C39.3113 70.6745 37.8505 71.9278 36.3897 71.9278Z" fill="#EA837D"/>
<path d="M56.215 71.9278C54.5455 71.9278 53.2933 70.6745 53.2933 69.0032C53.2933 67.332 54.5455 66.0786 56.215 66.0786C57.8845 66.0786 59.1366 67.332 59.1366 69.0032C59.1366 70.6745 57.8845 71.9278 56.215 71.9278Z" fill="#EA837D"/>
<path d="M76.249 71.9278C74.5795 71.9278 73.3274 70.6745 73.3274 69.0032C73.3274 67.332 74.5795 66.0786 76.249 66.0786C77.9185 66.0786 79.1707 67.332 79.1707 69.0032C79.1707 70.6745 77.9185 71.9278 76.249 71.9278Z" fill="#EA837D"/>
<path d="M96.0743 71.9278C94.4048 71.9278 93.1527 70.6745 93.1527 69.0032C93.1527 67.332 94.4048 66.0786 96.0743 66.0786C97.7438 66.0786 98.996 67.332 98.996 69.0032C98.996 70.6745 97.7438 71.9278 96.0743 71.9278Z" fill="#EA837D"/>
<path d="M36.3897 91.9828C34.7202 91.9828 33.468 90.7294 33.468 89.0582C33.468 87.3869 34.7202 86.1335 36.3897 86.1335C38.0592 86.1335 39.3113 87.3869 39.3113 89.0582C39.3113 90.7294 37.8505 91.9828 36.3897 91.9828Z" fill="#EA837D"/>
<path d="M56.215 91.9828C54.5455 91.9828 53.2933 90.7294 53.2933 89.0582C53.2933 87.3869 54.5455 86.1335 56.215 86.1335C57.8845 86.1335 59.1366 87.3869 59.1366 89.0582C59.1366 90.7294 57.8845 91.9828 56.215 91.9828Z" fill="#EA837D"/>
<path d="M76.249 91.9828C74.5795 91.9828 73.3274 90.7294 73.3274 89.0582C73.3274 87.3869 74.5795 86.1335 76.249 86.1335C77.9185 86.1335 79.1707 87.3869 79.1707 89.0582C79.1707 90.7294 77.9185 91.9828 76.249 91.9828Z" fill="#EA837D"/>
<path d="M96.0743 91.9828C94.4048 91.9828 93.1527 90.7294 93.1527 89.0582C93.1527 87.3869 94.4048 86.1335 96.0743 86.1335C97.7438 86.1335 98.996 87.3869 98.996 89.0582C98.996 90.7294 97.7438 91.9828 96.0743 91.9828Z" fill="#EA837D"/>
<path d="M36.3897 112.037C34.7202 112.037 33.468 110.784 33.468 109.113C33.468 107.441 34.7202 106.188 36.3897 106.188C38.0592 106.188 39.3113 107.441 39.3113 109.113C39.3113 110.575 37.8505 112.037 36.3897 112.037Z" fill="#EA837D"/>
<path d="M56.215 112.037C54.5455 112.037 53.2933 110.784 53.2933 109.113C53.2933 107.441 54.5455 106.188 56.215 106.188C57.8845 106.188 59.1366 107.441 59.1366 109.113C59.1366 110.575 57.8845 112.037 56.215 112.037Z" fill="#EA837D"/>
<path d="M76.249 112.037C74.5795 112.037 73.3274 110.784 73.3274 109.113C73.3274 107.441 74.5795 106.188 76.249 106.188C77.9185 106.188 79.1707 107.441 79.1707 109.113C79.1707 110.575 77.9185 112.037 76.249 112.037Z" fill="#EA837D"/>
<path d="M96.0743 112.037C94.4048 112.037 93.1527 110.784 93.1527 109.113C93.1527 107.441 94.4048 106.188 96.0743 106.188C97.7438 106.188 98.996 107.441 98.996 109.113C98.996 110.575 97.7438 112.037 96.0743 112.037Z" fill="#EA837D"/>
<path d="M296.415 11.9731C294.745 11.9731 293.493 10.7197 293.493 9.04849C293.493 7.37727 294.745 6.12381 296.415 6.12381C298.084 6.12381 299.336 7.37727 299.336 9.04849C299.336 10.7197 297.876 11.9731 296.415 11.9731Z" fill="#EA837D"/>
<path d="M316.24 11.9731C314.571 11.9731 313.318 10.7197 313.318 9.04849C313.318 7.37727 314.571 6.12381 316.24 6.12381C317.91 6.12381 319.162 7.37727 319.162 9.04849C319.162 10.7197 317.91 11.9731 316.24 11.9731Z" fill="#EA837D"/>
<path d="M336.274 11.9731C334.605 11.9731 333.353 10.7197 333.353 9.04849C333.353 7.37727 334.605 6.12381 336.274 6.12381C337.944 6.12381 339.196 7.37727 339.196 9.04849C339.196 10.7197 337.944 11.9731 336.274 11.9731Z" fill="#EA837D"/>
<path d="M356.099 11.9731C354.43 11.9731 353.178 10.7197 353.178 9.04849C353.178 7.37727 354.43 6.12381 356.099 6.12381C357.769 6.12381 359.021 7.37727 359.021 9.04849C359.021 10.7197 357.769 11.9731 356.099 11.9731Z" fill="#EA837D"/>
<path d="M376.134 11.9731C374.464 11.9731 373.212 10.7197 373.212 9.04849C373.212 7.37727 374.464 6.12381 376.134 6.12381C377.803 6.12381 379.055 7.37727 379.055 9.04849C379.055 10.7197 377.803 11.9731 376.134 11.9731Z" fill="#EA837D"/>
<path d="M296.415 32.0277C294.745 32.0277 293.493 30.7742 293.493 29.103C293.493 27.4318 294.745 26.1784 296.415 26.1784C298.084 26.1784 299.336 27.4318 299.336 29.103C299.336 30.7742 297.876 32.0277 296.415 32.0277Z" fill="#EA837D"/>
<path d="M316.24 32.0277C314.571 32.0277 313.318 30.7742 313.318 29.103C313.318 27.4318 314.571 26.1784 316.24 26.1784C317.91 26.1784 319.162 27.4318 319.162 29.103C319.162 30.7742 317.91 32.0277 316.24 32.0277Z" fill="#EA837D"/>
<path d="M336.274 32.0277C334.605 32.0277 333.353 30.7742 333.353 29.103C333.353 27.4318 334.605 26.1784 336.274 26.1784C337.944 26.1784 339.196 27.4318 339.196 29.103C339.196 30.7742 337.944 32.0277 336.274 32.0277Z" fill="#EA837D"/>
<path d="M356.099 32.0277C354.43 32.0277 353.178 30.7742 353.178 29.103C353.178 27.4318 354.43 26.1784 356.099 26.1784C357.769 26.1784 359.021 27.4318 359.021 29.103C359.021 30.7742 357.769 32.0277 356.099 32.0277Z" fill="#EA837D"/>
<path d="M376.134 32.0277C374.464 32.0277 373.212 30.7742 373.212 29.103C373.212 27.4318 374.464 26.1784 376.134 26.1784C377.803 26.1784 379.055 27.4318 379.055 29.103C379.055 30.7742 377.803 32.0277 376.134 32.0277Z" fill="#EA837D"/>
<path d="M296.415 52.0822C294.745 52.0822 293.493 50.8288 293.493 49.1576C293.493 47.4864 294.745 46.2329 296.415 46.2329C298.084 46.2329 299.336 47.4864 299.336 49.1576C299.336 50.6199 297.876 52.0822 296.415 52.0822Z" fill="#EA837D"/>
<path d="M316.24 52.0822C314.571 52.0822 313.318 50.8288 313.318 49.1576C313.318 47.4864 314.571 46.2329 316.24 46.2329C317.91 46.2329 319.162 47.4864 319.162 49.1576C319.162 50.6199 317.91 52.0822 316.24 52.0822Z" fill="#EA837D"/>
<path d="M336.274 52.0822C334.605 52.0822 333.353 50.8288 333.353 49.1576C333.353 47.4864 334.605 46.2329 336.274 46.2329C337.944 46.2329 339.196 47.4864 339.196 49.1576C339.196 50.6199 337.944 52.0822 336.274 52.0822Z" fill="#EA837D"/>
<path d="M356.099 52.0822C354.43 52.0822 353.178 50.8288 353.178 49.1576C353.178 47.4864 354.43 46.2329 356.099 46.2329C357.769 46.2329 359.021 47.4864 359.021 49.1576C359.021 50.6199 357.769 52.0822 356.099 52.0822Z" fill="#EA837D"/>
<path d="M376.134 52.0822C374.464 52.0822 373.212 50.8288 373.212 49.1576C373.212 47.4864 374.464 46.2329 376.134 46.2329C377.803 46.2329 379.055 47.4864 379.055 49.1576C379.055 50.6199 377.803 52.0822 376.134 52.0822Z" fill="#EA837D"/>
<path d="M296.415 71.9278C294.745 71.9278 293.493 70.6745 293.493 69.0032C293.493 67.332 294.745 66.0786 296.415 66.0786C298.084 66.0786 299.336 67.332 299.336 69.0032C299.336 70.6745 297.876 71.9278 296.415 71.9278Z" fill="#EA837D"/>
<path d="M316.24 71.9278C314.571 71.9278 313.318 70.6745 313.318 69.0032C313.318 67.332 314.571 66.0786 316.24 66.0786C317.91 66.0786 319.162 67.332 319.162 69.0032C319.162 70.6745 317.91 71.9278 316.24 71.9278Z" fill="#EA837D"/>
<path d="M336.274 71.9278C334.605 71.9278 333.353 70.6745 333.353 69.0032C333.353 67.332 334.605 66.0786 336.274 66.0786C337.944 66.0786 339.196 67.332 339.196 69.0032C339.196 70.6745 337.944 71.9278 336.274 71.9278Z" fill="#EA837D"/>
<path d="M356.099 71.9278C354.43 71.9278 353.178 70.6745 353.178 69.0032C353.178 67.332 354.43 66.0786 356.099 66.0786C357.769 66.0786 359.021 67.332 359.021 69.0032C359.021 70.6745 357.769 71.9278 356.099 71.9278Z" fill="#EA837D"/>
<path d="M376.134 71.9278C374.464 71.9278 373.212 70.6745 373.212 69.0032C373.212 67.332 374.464 66.0786 376.134 66.0786C377.803 66.0786 379.055 67.332 379.055 69.0032C379.055 70.6745 377.803 71.9278 376.134 71.9278Z" fill="#EA837D"/>
<path d="M296.415 91.9828C294.745 91.9828 293.493 90.7294 293.493 89.0582C293.493 87.3869 294.745 86.1335 296.415 86.1335C298.084 86.1335 299.336 87.3869 299.336 89.0582C299.336 90.7294 297.876 91.9828 296.415 91.9828Z" fill="#EA837D"/>
<path d="M316.24 91.9828C314.571 91.9828 313.318 90.7294 313.318 89.0582C313.318 87.3869 314.571 86.1335 316.24 86.1335C317.91 86.1335 319.162 87.3869 319.162 89.0582C319.162 90.7294 317.91 91.9828 316.24 91.9828Z" fill="#EA837D"/>
<path d="M336.274 91.9828C334.605 91.9828 333.353 90.7294 333.353 89.0582C333.353 87.3869 334.605 86.1335 336.274 86.1335C337.944 86.1335 339.196 87.3869 339.196 89.0582C339.196 90.7294 337.944 91.9828 336.274 91.9828Z" fill="#EA837D"/>
<path d="M356.099 91.9828C354.43 91.9828 353.178 90.7294 353.178 89.0582C353.178 87.3869 354.43 86.1335 356.099 86.1335C357.769 86.1335 359.021 87.3869 359.021 89.0582C359.021 90.7294 357.769 91.9828 356.099 91.9828Z" fill="#EA837D"/>
<path d="M376.134 91.9828C374.464 91.9828 373.212 90.7294 373.212 89.0582C373.212 87.3869 374.464 86.1335 376.134 86.1335C377.803 86.1335 379.055 87.3869 379.055 89.0582C379.055 90.7294 377.803 91.9828 376.134 91.9828Z" fill="#EA837D"/>
<path d="M296.415 112.037C294.745 112.037 293.493 110.784 293.493 109.113C293.493 107.441 294.745 106.188 296.415 106.188C298.084 106.188 299.336 107.441 299.336 109.113C299.336 110.575 297.876 112.037 296.415 112.037Z" fill="#EA837D"/>
<path d="M316.24 112.037C314.571 112.037 313.318 110.784 313.318 109.113C313.318 107.441 314.571 106.188 316.24 106.188C317.91 106.188 319.162 107.441 319.162 109.113C319.162 110.575 317.91 112.037 316.24 112.037Z" fill="#EA837D"/>
<path d="M336.274 112.037C334.605 112.037 333.353 110.784 333.353 109.113C333.353 107.441 334.605 106.188 336.274 106.188C337.944 106.188 339.196 107.441 339.196 109.113C339.196 110.575 337.944 112.037 336.274 112.037Z" fill="#EA837D"/>
<path d="M356.099 112.037C354.43 112.037 353.178 110.784 353.178 109.113C353.178 107.441 354.43 106.188 356.099 106.188C357.769 106.188 359.021 107.441 359.021 109.113C359.021 110.575 357.769 112.037 356.099 112.037Z" fill="#EA837D"/>
<path d="M376.134 112.037C374.464 112.037 373.212 110.784 373.212 109.113C373.212 107.441 374.464 106.188 376.134 106.188C377.803 106.188 379.055 107.441 379.055 109.113C379.055 110.575 377.803 112.037 376.134 112.037Z" fill="#EA837D"/>
<path d="M216.488 11.9747C214.818 11.9747 213.566 10.7213 213.566 9.05013C213.566 7.37891 214.818 6.12544 216.488 6.12544C218.157 6.12544 219.409 7.37891 219.409 9.05013C219.409 10.7213 218.157 11.9747 216.488 11.9747Z" fill="#EA837D"/>
<path d="M236.521 11.9731C234.852 11.9731 233.6 10.7197 233.6 9.04849C233.6 7.37727 234.852 6.12381 236.521 6.12381C238.191 6.12381 239.443 7.37727 239.443 9.04849C239.443 10.7197 238.191 11.9731 236.521 11.9731Z" fill="#EA837D"/>
<path d="M256.555 11.9731C254.886 11.9731 253.634 10.7197 253.634 9.04849C253.634 7.37727 254.886 6.12381 256.555 6.12381C258.225 6.12381 259.477 7.37727 259.477 9.04849C259.477 10.7197 258.016 11.9731 256.555 11.9731Z" fill="#EA837D"/>
<path d="M276.381 11.9731C274.711 11.9731 273.459 10.7197 273.459 9.04849C273.459 7.37727 274.711 6.12381 276.381 6.12381C278.05 6.12381 279.302 7.37727 279.302 9.04849C279.302 10.7197 278.05 11.9731 276.381 11.9731Z" fill="#EA837D"/>
<path d="M216.487 32.0277C214.818 32.0277 213.566 30.7742 213.566 29.103C213.566 27.4318 214.818 26.1784 216.487 26.1784C218.157 26.1784 219.409 27.4318 219.409 29.103C219.409 30.7742 218.157 32.0277 216.487 32.0277Z" fill="#EA837D"/>
<path d="M236.521 32.0277C234.852 32.0277 233.6 30.7742 233.6 29.103C233.6 27.4318 234.852 26.1784 236.521 26.1784C238.191 26.1784 239.443 27.4318 239.443 29.103C239.443 30.7742 238.191 32.0277 236.521 32.0277Z" fill="#EA837D"/>
<path d="M256.555 32.0277C254.886 32.0277 253.634 30.7742 253.634 29.103C253.634 27.4318 254.886 26.1784 256.555 26.1784C258.225 26.1784 259.477 27.4318 259.477 29.103C259.477 30.7742 258.016 32.0277 256.555 32.0277Z" fill="#EA837D"/>
<path d="M276.381 32.0277C274.711 32.0277 273.459 30.7742 273.459 29.103C273.459 27.4318 274.711 26.1784 276.381 26.1784C278.05 26.1784 279.302 27.4318 279.302 29.103C279.302 30.7742 278.05 32.0277 276.381 32.0277Z" fill="#EA837D"/>
<path d="M216.487 52.0822C214.818 52.0822 213.566 50.8288 213.566 49.1576C213.566 47.4864 214.818 46.2329 216.487 46.2329C218.157 46.2329 219.409 47.4864 219.409 49.1576C219.409 50.6199 218.157 52.0822 216.487 52.0822Z" fill="#EA837D"/>
<path d="M236.521 52.0822C234.852 52.0822 233.6 50.8288 233.6 49.1576C233.6 47.4864 234.852 46.2329 236.521 46.2329C238.191 46.2329 239.443 47.4864 239.443 49.1576C239.443 50.6199 238.191 52.0822 236.521 52.0822Z" fill="#EA837D"/>
<path d="M256.555 52.0822C254.886 52.0822 253.634 50.8288 253.634 49.1576C253.634 47.4864 254.886 46.2329 256.555 46.2329C258.225 46.2329 259.477 47.4864 259.477 49.1576C259.477 50.6199 258.016 52.0822 256.555 52.0822Z" fill="#EA837D"/>
<path d="M276.381 52.0822C274.711 52.0822 273.459 50.8288 273.459 49.1576C273.459 47.4864 274.711 46.2329 276.381 46.2329C278.05 46.2329 279.302 47.4864 279.302 49.1576C279.302 50.6199 278.05 52.0822 276.381 52.0822Z" fill="#EA837D"/>
<path d="M216.487 71.9278C214.818 71.9278 213.566 70.6745 213.566 69.0032C213.566 67.332 214.818 66.0786 216.487 66.0786C218.157 66.0786 219.409 67.332 219.409 69.0032C219.409 70.6745 218.157 71.9278 216.487 71.9278Z" fill="#EA837D"/>
<path d="M236.521 71.9278C234.852 71.9278 233.6 70.6745 233.6 69.0032C233.6 67.332 234.852 66.0786 236.521 66.0786C238.191 66.0786 239.443 67.332 239.443 69.0032C239.443 70.6745 238.191 71.9278 236.521 71.9278Z" fill="#EA837D"/>
<path d="M256.555 71.9278C254.886 71.9278 253.634 70.6745 253.634 69.0032C253.634 67.332 254.886 66.0786 256.555 66.0786C258.225 66.0786 259.477 67.332 259.477 69.0032C259.477 70.6745 258.016 71.9278 256.555 71.9278Z" fill="#EA837D"/>
<path d="M276.381 71.9278C274.711 71.9278 273.459 70.6745 273.459 69.0032C273.459 67.332 274.711 66.0786 276.381 66.0786C278.05 66.0786 279.302 67.332 279.302 69.0032C279.302 70.6745 278.05 71.9278 276.381 71.9278Z" fill="#EA837D"/>
<path d="M216.487 91.9828C214.818 91.9828 213.566 90.7294 213.566 89.0582C213.566 87.3869 214.818 86.1335 216.487 86.1335C218.157 86.1335 219.409 87.3869 219.409 89.0582C219.409 90.7294 218.157 91.9828 216.487 91.9828Z" fill="#EA837D"/>
<path d="M236.521 91.9828C234.852 91.9828 233.6 90.7294 233.6 89.0582C233.6 87.3869 234.852 86.1335 236.521 86.1335C238.191 86.1335 239.443 87.3869 239.443 89.0582C239.443 90.7294 238.191 91.9828 236.521 91.9828Z" fill="#EA837D"/>
<path d="M256.555 91.9828C254.886 91.9828 253.634 90.7294 253.634 89.0582C253.634 87.3869 254.886 86.1335 256.555 86.1335C258.225 86.1335 259.477 87.3869 259.477 89.0582C259.477 90.7294 258.016 91.9828 256.555 91.9828Z" fill="#EA837D"/>
<path d="M276.381 91.9828C274.711 91.9828 273.459 90.7294 273.459 89.0582C273.459 87.3869 274.711 86.1335 276.381 86.1335C278.05 86.1335 279.302 87.3869 279.302 89.0582C279.302 90.7294 278.05 91.9828 276.381 91.9828Z" fill="#EA837D"/>
<path d="M216.487 112.037C214.818 112.037 213.566 110.784 213.566 109.113C213.566 107.441 214.818 106.188 216.487 106.188C218.157 106.188 219.409 107.441 219.409 109.113C219.409 110.575 218.157 112.037 216.487 112.037Z" fill="#EA837D"/>
<path d="M236.521 112.037C234.852 112.037 233.6 110.784 233.6 109.113C233.6 107.441 234.852 106.188 236.521 106.188C238.191 106.188 239.443 107.441 239.443 109.113C239.443 110.575 238.191 112.037 236.521 112.037Z" fill="#EA837D"/>
<path d="M256.555 112.037C254.886 112.037 253.634 110.784 253.634 109.113C253.634 107.441 254.886 106.188 256.555 106.188C258.225 106.188 259.477 107.441 259.477 109.113C259.477 110.575 258.016 112.037 256.555 112.037Z" fill="#EA837D"/>
<path d="M276.381 112.037C274.711 112.037 273.459 110.784 273.459 109.113C273.459 107.441 274.711 106.188 276.381 106.188C278.05 106.188 279.302 107.441 279.302 109.113C279.302 110.575 278.05 112.037 276.381 112.037Z" fill="#EA837D"/>
<path d="M116.108 133.137C114.439 133.137 113.187 131.883 113.187 130.212C113.187 128.541 114.439 127.287 116.108 127.287C117.778 127.287 119.03 128.541 119.03 130.212C119.03 131.883 117.778 133.137 116.108 133.137Z" fill="#EA837D"/>
<path d="M136.142 133.137C134.473 133.137 133.221 131.883 133.221 130.212C133.221 128.541 134.473 127.287 136.142 127.287C137.812 127.287 139.064 128.541 139.064 130.212C139.064 131.883 137.603 133.137 136.142 133.137Z" fill="#EA837D"/>
<path d="M155.968 133.137C154.298 133.137 153.046 131.883 153.046 130.212C153.046 128.541 154.298 127.287 155.968 127.287C157.637 127.287 158.889 128.541 158.889 130.212C158.889 131.883 157.637 133.137 155.968 133.137Z" fill="#EA837D"/>
<path d="M176.002 133.137C174.332 133.137 173.08 131.883 173.08 130.212C173.08 128.541 174.332 127.287 176.002 127.287C177.671 127.287 178.923 128.541 178.923 130.212C178.923 131.883 177.463 133.137 176.002 133.137Z" fill="#EA837D"/>
<path d="M195.827 133.137C194.158 133.137 192.906 131.883 192.906 130.212C192.906 128.541 194.158 127.287 195.827 127.287C197.497 127.287 198.749 128.541 198.749 130.212C198.749 131.883 197.497 133.137 195.827 133.137Z" fill="#EA837D"/>
<path d="M116.108 153.191C114.439 153.191 113.187 151.938 113.187 150.266C113.187 148.595 114.439 147.342 116.108 147.342C117.778 147.342 119.03 148.595 119.03 150.266C119.03 151.938 117.778 153.191 116.108 153.191Z" fill="#EA837D"/>
<path d="M136.142 153.191C134.473 153.191 133.221 151.938 133.221 150.266C133.221 148.595 134.473 147.342 136.142 147.342C137.812 147.342 139.064 148.595 139.064 150.266C139.064 151.938 137.603 153.191 136.142 153.191Z" fill="#EA837D"/>
<path d="M155.968 153.191C154.298 153.191 153.046 151.938 153.046 150.266C153.046 148.595 154.298 147.342 155.968 147.342C157.637 147.342 158.889 148.595 158.889 150.266C158.889 151.938 157.637 153.191 155.968 153.191Z" fill="#EA837D"/>
<path d="M176.002 153.191C174.332 153.191 173.08 151.938 173.08 150.266C173.08 148.595 174.332 147.342 176.002 147.342C177.671 147.342 178.923 148.595 178.923 150.266C178.923 151.938 177.463 153.191 176.002 153.191Z" fill="#EA837D"/>
<path d="M195.827 153.191C194.158 153.191 192.906 151.938 192.906 150.266C192.906 148.595 194.158 147.342 195.827 147.342C197.497 147.342 198.749 148.595 198.749 150.266C198.749 151.938 197.497 153.191 195.827 153.191Z" fill="#EA837D"/>
<path d="M116.108 173.246C114.439 173.246 113.187 171.992 113.187 170.321C113.187 168.65 114.439 167.396 116.108 167.396C117.778 167.396 119.03 168.65 119.03 170.321C119.03 171.783 117.778 173.246 116.108 173.246Z" fill="#EA837D"/>
<path d="M136.142 173.246C134.473 173.246 133.221 171.992 133.221 170.321C133.221 168.65 134.473 167.396 136.142 167.396C137.812 167.396 139.064 168.65 139.064 170.321C139.064 171.783 137.603 173.246 136.142 173.246Z" fill="#EA837D"/>
<path d="M155.968 173.246C154.298 173.246 153.046 171.992 153.046 170.321C153.046 168.65 154.298 167.396 155.968 167.396C157.637 167.396 158.889 168.65 158.889 170.321C158.889 171.783 157.637 173.246 155.968 173.246Z" fill="#EA837D"/>
<path d="M176.002 173.246C174.332 173.246 173.08 171.992 173.08 170.321C173.08 168.65 174.332 167.396 176.002 167.396C177.671 167.396 178.923 168.65 178.923 170.321C178.923 171.783 177.463 173.246 176.002 173.246Z" fill="#EA837D"/>
<path d="M195.827 173.246C194.158 173.246 192.906 171.992 192.906 170.321C192.906 168.65 194.158 167.396 195.827 167.396C197.497 167.396 198.749 168.65 198.749 170.321C198.749 171.783 197.497 173.246 195.827 173.246Z" fill="#EA837D"/>
<path d="M116.108 193.091C114.439 193.091 113.187 191.838 113.187 190.167C113.187 188.496 114.439 187.242 116.108 187.242C117.778 187.242 119.03 188.496 119.03 190.167C119.03 191.838 117.778 193.091 116.108 193.091Z" fill="#EA837D"/>
<path d="M136.142 193.091C134.473 193.091 133.221 191.838 133.221 190.167C133.221 188.496 134.473 187.242 136.142 187.242C137.812 187.242 139.064 188.496 139.064 190.167C139.064 191.838 137.603 193.091 136.142 193.091Z" fill="#EA837D"/>
<path d="M155.968 193.091C154.298 193.091 153.046 191.838 153.046 190.167C153.046 188.496 154.298 187.242 155.968 187.242C157.637 187.242 158.889 188.496 158.889 190.167C158.889 191.838 157.637 193.091 155.968 193.091Z" fill="#EA837D"/>
<path d="M176.002 193.091C174.332 193.091 173.08 191.838 173.08 190.167C173.08 188.496 174.332 187.242 176.002 187.242C177.671 187.242 178.923 188.496 178.923 190.167C178.923 191.838 177.463 193.091 176.002 193.091Z" fill="#EA837D"/>
<path d="M195.827 193.091C194.158 193.091 192.906 191.838 192.906 190.167C192.906 188.496 194.158 187.242 195.827 187.242C197.497 187.242 198.749 188.496 198.749 190.167C198.749 191.838 197.497 193.091 195.827 193.091Z" fill="#EA837D"/>
<path d="M116.108 213.146C114.439 213.146 113.187 211.893 113.187 210.222C113.187 208.55 114.439 207.297 116.108 207.297C117.778 207.297 119.03 208.55 119.03 210.222C119.03 211.893 117.778 213.146 116.108 213.146Z" fill="#EA837D"/>
<path d="M136.142 213.146C134.473 213.146 133.221 211.893 133.221 210.222C133.221 208.55 134.473 207.297 136.142 207.297C137.812 207.297 139.064 208.55 139.064 210.222C139.064 211.893 137.603 213.146 136.142 213.146Z" fill="#EA837D"/>
<path d="M155.968 213.146C154.298 213.146 153.046 211.893 153.046 210.222C153.046 208.55 154.298 207.297 155.968 207.297C157.637 207.297 158.889 208.55 158.889 210.222C158.889 211.893 157.637 213.146 155.968 213.146Z" fill="#EA837D"/>
<path d="M176.002 213.146C174.332 213.146 173.08 211.893 173.08 210.222C173.08 208.55 174.332 207.297 176.002 207.297C177.671 207.297 178.923 208.55 178.923 210.222C178.923 211.893 177.463 213.146 176.002 213.146Z" fill="#EA837D"/>
<path d="M195.827 213.146C194.158 213.146 192.906 211.893 192.906 210.222C192.906 208.55 194.158 207.297 195.827 207.297C197.497 207.297 198.749 208.55 198.749 210.222C198.749 211.893 197.497 213.146 195.827 213.146Z" fill="#EA837D"/>
<path d="M116.108 233.201C114.439 233.201 113.187 231.947 113.187 230.276C113.187 228.605 114.439 227.352 116.108 227.352C117.778 227.352 119.03 228.605 119.03 230.276C119.03 231.738 117.778 233.201 116.108 233.201Z" fill="#EA837D"/>
<path d="M136.142 233.201C134.473 233.201 133.221 231.947 133.221 230.276C133.221 228.605 134.473 227.352 136.142 227.352C137.812 227.352 139.064 228.605 139.064 230.276C139.064 231.738 137.603 233.201 136.142 233.201Z" fill="#EA837D"/>
<path d="M155.968 233.201C154.298 233.201 153.046 231.947 153.046 230.276C153.046 228.605 154.298 227.352 155.968 227.352C157.637 227.352 158.889 228.605 158.889 230.276C158.889 231.738 157.637 233.201 155.968 233.201Z" fill="#EA837D"/>
<path d="M176.002 233.201C174.332 233.201 173.08 231.947 173.08 230.276C173.08 228.605 174.332 227.352 176.002 227.352C177.671 227.352 178.923 228.605 178.923 230.276C178.923 231.738 177.463 233.201 176.002 233.201Z" fill="#EA837D"/>
<path d="M195.827 233.201C194.158 233.201 192.906 231.947 192.906 230.276C192.906 228.605 194.158 227.352 195.827 227.352C197.497 227.352 198.749 228.605 198.749 230.276C198.749 231.738 197.497 233.201 195.827 233.201Z" fill="#EA837D"/>
<path d="M36.3897 133.137C34.7202 133.137 33.468 131.883 33.468 130.212C33.468 128.541 34.7202 127.287 36.3897 127.287C38.0592 127.287 39.3113 128.541 39.3113 130.212C39.3113 131.883 37.8505 133.137 36.3897 133.137Z" fill="#EA837D"/>
<path d="M56.215 133.137C54.5455 133.137 53.2933 131.883 53.2933 130.212C53.2933 128.541 54.5455 127.287 56.215 127.287C57.8845 127.287 59.1366 128.541 59.1366 130.212C59.1366 131.883 57.8845 133.137 56.215 133.137Z" fill="#EA837D"/>
<path d="M76.249 133.137C74.5795 133.137 73.3274 131.883 73.3274 130.212C73.3274 128.541 74.5795 127.287 76.249 127.287C77.9185 127.287 79.1707 128.541 79.1707 130.212C79.1707 131.883 77.9185 133.137 76.249 133.137Z" fill="#EA837D"/>
<path d="M96.0743 133.137C94.4048 133.137 93.1527 131.883 93.1527 130.212C93.1527 128.541 94.4048 127.287 96.0743 127.287C97.7438 127.287 98.996 128.541 98.996 130.212C98.996 131.883 97.7438 133.137 96.0743 133.137Z" fill="#EA837D"/>
<path d="M36.3897 153.191C34.7202 153.191 33.468 151.938 33.468 150.266C33.468 148.595 34.7202 147.342 36.3897 147.342C38.0592 147.342 39.3113 148.595 39.3113 150.266C39.3113 151.938 37.8505 153.191 36.3897 153.191Z" fill="#EA837D"/>
<path d="M56.215 153.191C54.5455 153.191 53.2933 151.938 53.2933 150.266C53.2933 148.595 54.5455 147.342 56.215 147.342C57.8845 147.342 59.1366 148.595 59.1366 150.266C59.1366 151.938 57.8845 153.191 56.215 153.191Z" fill="#EA837D"/>
<path d="M76.249 153.191C74.5795 153.191 73.3274 151.938 73.3274 150.266C73.3274 148.595 74.5795 147.342 76.249 147.342C77.9185 147.342 79.1707 148.595 79.1707 150.266C79.1707 151.938 77.9185 153.191 76.249 153.191Z" fill="#EA837D"/>
<path d="M96.0743 153.191C94.4048 153.191 93.1527 151.938 93.1527 150.266C93.1527 148.595 94.4048 147.342 96.0743 147.342C97.7438 147.342 98.996 148.595 98.996 150.266C98.996 151.938 97.7438 153.191 96.0743 153.191Z" fill="#EA837D"/>
<path d="M36.3897 173.246C34.7202 173.246 33.468 171.992 33.468 170.321C33.468 168.65 34.7202 167.396 36.3897 167.396C38.0592 167.396 39.3113 168.65 39.3113 170.321C39.3113 171.783 37.8505 173.246 36.3897 173.246Z" fill="#EA837D"/>
<path d="M56.215 173.246C54.5455 173.246 53.2933 171.992 53.2933 170.321C53.2933 168.65 54.5455 167.396 56.215 167.396C57.8845 167.396 59.1366 168.65 59.1366 170.321C59.1366 171.783 57.8845 173.246 56.215 173.246Z" fill="#EA837D"/>
<path d="M76.249 173.246C74.5795 173.246 73.3274 171.992 73.3274 170.321C73.3274 168.65 74.5795 167.396 76.249 167.396C77.9185 167.396 79.1707 168.65 79.1707 170.321C79.1707 171.783 77.9185 173.246 76.249 173.246Z" fill="#EA837D"/>
<path d="M96.0743 173.246C94.4048 173.246 93.1527 171.992 93.1527 170.321C93.1527 168.65 94.4048 167.396 96.0743 167.396C97.7438 167.396 98.996 168.65 98.996 170.321C98.996 171.783 97.7438 173.246 96.0743 173.246Z" fill="#EA837D"/>
<path d="M36.3897 193.091C34.7202 193.091 33.468 191.838 33.468 190.167C33.468 188.496 34.7202 187.242 36.3897 187.242C38.0592 187.242 39.3113 188.496 39.3113 190.167C39.3113 191.838 37.8505 193.091 36.3897 193.091Z" fill="#EA837D"/>
<path d="M56.215 193.091C54.5455 193.091 53.2933 191.838 53.2933 190.167C53.2933 188.496 54.5455 187.242 56.215 187.242C57.8845 187.242 59.1366 188.496 59.1366 190.167C59.1366 191.838 57.8845 193.091 56.215 193.091Z" fill="#EA837D"/>
<path d="M76.249 193.091C74.5795 193.091 73.3274 191.838 73.3274 190.167C73.3274 188.496 74.5795 187.242 76.249 187.242C77.9185 187.242 79.1707 188.496 79.1707 190.167C79.1707 191.838 77.9185 193.091 76.249 193.091Z" fill="#EA837D"/>
<path d="M96.0743 193.091C94.4048 193.091 93.1527 191.838 93.1527 190.167C93.1527 188.496 94.4048 187.242 96.0743 187.242C97.7438 187.242 98.996 188.496 98.996 190.167C98.996 191.838 97.7438 193.091 96.0743 193.091Z" fill="#EA837D"/>
<path d="M36.3897 213.146C34.7202 213.146 33.468 211.893 33.468 210.222C33.468 208.55 34.7202 207.297 36.3897 207.297C38.0592 207.297 39.3113 208.55 39.3113 210.222C39.3113 211.893 37.8505 213.146 36.3897 213.146Z" fill="#EA837D"/>
<path d="M56.215 213.146C54.5455 213.146 53.2933 211.893 53.2933 210.222C53.2933 208.55 54.5455 207.297 56.215 207.297C57.8845 207.297 59.1366 208.55 59.1366 210.222C59.1366 211.893 57.8845 213.146 56.215 213.146Z" fill="#EA837D"/>
<path d="M76.249 213.146C74.5795 213.146 73.3274 211.893 73.3274 210.222C73.3274 208.55 74.5795 207.297 76.249 207.297C77.9185 207.297 79.1707 208.55 79.1707 210.222C79.1707 211.893 77.9185 213.146 76.249 213.146Z" fill="#EA837D"/>
<path d="M96.0743 213.146C94.4048 213.146 93.1527 211.893 93.1527 210.222C93.1527 208.55 94.4048 207.297 96.0743 207.297C97.7438 207.297 98.996 208.55 98.996 210.222C98.996 211.893 97.7438 213.146 96.0743 213.146Z" fill="#EA837D"/>
<path d="M36.3897 233.201C34.7202 233.201 33.468 231.947 33.468 230.276C33.468 228.605 34.7202 227.352 36.3897 227.352C38.0592 227.352 39.3113 228.605 39.3113 230.276C39.3113 231.738 37.8505 233.201 36.3897 233.201Z" fill="#EA837D"/>
<path d="M56.215 233.201C54.5455 233.201 53.2933 231.947 53.2933 230.276C53.2933 228.605 54.5455 227.352 56.215 227.352C57.8845 227.352 59.1366 228.605 59.1366 230.276C59.1366 231.738 57.8845 233.201 56.215 233.201Z" fill="#EA837D"/>
<path d="M76.249 233.201C74.5795 233.201 73.3274 231.947 73.3274 230.276C73.3274 228.605 74.5795 227.352 76.249 227.352C77.9185 227.352 79.1707 228.605 79.1707 230.276C79.1707 231.738 77.9185 233.201 76.249 233.201Z" fill="#EA837D"/>
<path d="M96.0743 233.201C94.4048 233.201 93.1527 231.947 93.1527 230.276C93.1527 228.605 94.4048 227.352 96.0743 227.352C97.7438 227.352 98.996 228.605 98.996 230.276C98.996 231.738 97.7438 233.201 96.0743 233.201Z" fill="#EA837D"/>
<path d="M296.415 133.137C294.745 133.137 293.493 131.883 293.493 130.212C293.493 128.541 294.745 127.287 296.415 127.287C298.084 127.287 299.336 128.541 299.336 130.212C299.336 131.883 297.876 133.137 296.415 133.137Z" fill="#EA837D"/>
<path d="M316.24 133.137C314.571 133.137 313.318 131.883 313.318 130.212C313.318 128.541 314.571 127.287 316.24 127.287C317.91 127.287 319.162 128.541 319.162 130.212C319.162 131.883 317.91 133.137 316.24 133.137Z" fill="#EA837D"/>
<path d="M336.274 133.137C334.605 133.137 333.353 131.883 333.353 130.212C333.353 128.541 334.605 127.287 336.274 127.287C337.944 127.287 339.196 128.541 339.196 130.212C339.196 131.883 337.944 133.137 336.274 133.137Z" fill="#EA837D"/>
<path d="M356.099 133.137C354.43 133.137 353.178 131.883 353.178 130.212C353.178 128.541 354.43 127.287 356.099 127.287C357.769 127.287 359.021 128.541 359.021 130.212C359.021 131.883 357.769 133.137 356.099 133.137Z" fill="#EA837D"/>
<path d="M376.134 133.137C374.464 133.137 373.212 131.883 373.212 130.212C373.212 128.541 374.464 127.287 376.134 127.287C377.803 127.287 379.055 128.541 379.055 130.212C379.055 131.883 377.803 133.137 376.134 133.137Z" fill="#EA837D"/>
<path d="M296.415 153.191C294.745 153.191 293.493 151.938 293.493 150.266C293.493 148.595 294.745 147.342 296.415 147.342C298.084 147.342 299.336 148.595 299.336 150.266C299.336 151.938 297.876 153.191 296.415 153.191Z" fill="#EA837D"/>
<path d="M316.24 153.191C314.571 153.191 313.318 151.938 313.318 150.266C313.318 148.595 314.571 147.342 316.24 147.342C317.91 147.342 319.162 148.595 319.162 150.266C319.162 151.938 317.91 153.191 316.24 153.191Z" fill="#EA837D"/>
<path d="M336.274 153.191C334.605 153.191 333.353 151.938 333.353 150.266C333.353 148.595 334.605 147.342 336.274 147.342C337.944 147.342 339.196 148.595 339.196 150.266C339.196 151.938 337.944 153.191 336.274 153.191Z" fill="#EA837D"/>
<path d="M356.099 153.191C354.43 153.191 353.178 151.938 353.178 150.266C353.178 148.595 354.43 147.342 356.099 147.342C357.769 147.342 359.021 148.595 359.021 150.266C359.021 151.938 357.769 153.191 356.099 153.191Z" fill="#EA837D"/>
<path d="M376.134 153.191C374.464 153.191 373.212 151.938 373.212 150.266C373.212 148.595 374.464 147.342 376.134 147.342C377.803 147.342 379.055 148.595 379.055 150.266C379.055 151.938 377.803 153.191 376.134 153.191Z" fill="#EA837D"/>
<path d="M296.415 173.246C294.745 173.246 293.493 171.992 293.493 170.321C293.493 168.65 294.745 167.396 296.415 167.396C298.084 167.396 299.336 168.65 299.336 170.321C299.336 171.783 297.876 173.246 296.415 173.246Z" fill="#EA837D"/>
<path d="M316.24 173.246C314.571 173.246 313.318 171.992 313.318 170.321C313.318 168.65 314.571 167.396 316.24 167.396C317.91 167.396 319.162 168.65 319.162 170.321C319.162 171.783 317.91 173.246 316.24 173.246Z" fill="#EA837D"/>
<path d="M336.274 173.246C334.605 173.246 333.353 171.992 333.353 170.321C333.353 168.65 334.605 167.396 336.274 167.396C337.944 167.396 339.196 168.65 339.196 170.321C339.196 171.783 337.944 173.246 336.274 173.246Z" fill="#EA837D"/>
<path d="M356.099 173.246C354.43 173.246 353.178 171.992 353.178 170.321C353.178 168.65 354.43 167.396 356.099 167.396C357.769 167.396 359.021 168.65 359.021 170.321C359.021 171.783 357.769 173.246 356.099 173.246Z" fill="#EA837D"/>
<path d="M376.134 173.246C374.464 173.246 373.212 171.992 373.212 170.321C373.212 168.65 374.464 167.396 376.134 167.396C377.803 167.396 379.055 168.65 379.055 170.321C379.055 171.783 377.803 173.246 376.134 173.246Z" fill="#EA837D"/>
<path d="M296.415 193.091C294.745 193.091 293.493 191.838 293.493 190.167C293.493 188.496 294.745 187.242 296.415 187.242C298.084 187.242 299.336 188.496 299.336 190.167C299.336 191.838 297.876 193.091 296.415 193.091Z" fill="#EA837D"/>
<path d="M316.24 193.091C314.571 193.091 313.318 191.838 313.318 190.167C313.318 188.496 314.571 187.242 316.24 187.242C317.91 187.242 319.162 188.496 319.162 190.167C319.162 191.838 317.91 193.091 316.24 193.091Z" fill="#EA837D"/>
<path d="M336.274 193.091C334.605 193.091 333.353 191.838 333.353 190.167C333.353 188.496 334.605 187.242 336.274 187.242C337.944 187.242 339.196 188.496 339.196 190.167C339.196 191.838 337.944 193.091 336.274 193.091Z" fill="#EA837D"/>
<path d="M356.099 193.091C354.43 193.091 353.178 191.838 353.178 190.167C353.178 188.496 354.43 187.242 356.099 187.242C357.769 187.242 359.021 188.496 359.021 190.167C359.021 191.838 357.769 193.091 356.099 193.091Z" fill="#EA837D"/>
<path d="M376.134 193.091C374.464 193.091 373.212 191.838 373.212 190.167C373.212 188.496 374.464 187.242 376.134 187.242C377.803 187.242 379.055 188.496 379.055 190.167C379.055 191.838 377.803 193.091 376.134 193.091Z" fill="#EA837D"/>
<path d="M296.415 213.146C294.745 213.146 293.493 211.893 293.493 210.222C293.493 208.55 294.745 207.297 296.415 207.297C298.084 207.297 299.336 208.55 299.336 210.222C299.336 211.893 297.876 213.146 296.415 213.146Z" fill="#EA837D"/>
<path d="M316.24 213.146C314.571 213.146 313.318 211.893 313.318 210.222C313.318 208.55 314.571 207.297 316.24 207.297C317.91 207.297 319.162 208.55 319.162 210.222C319.162 211.893 317.91 213.146 316.24 213.146Z" fill="#EA837D"/>
<path d="M336.274 213.146C334.605 213.146 333.353 211.893 333.353 210.222C333.353 208.55 334.605 207.297 336.274 207.297C337.944 207.297 339.196 208.55 339.196 210.222C339.196 211.893 337.944 213.146 336.274 213.146Z" fill="#EA837D"/>
<path d="M356.099 213.146C354.43 213.146 353.178 211.893 353.178 210.222C353.178 208.55 354.43 207.297 356.099 207.297C357.769 207.297 359.021 208.55 359.021 210.222C359.021 211.893 357.769 213.146 356.099 213.146Z" fill="#EA837D"/>
<path d="M376.134 213.146C374.464 213.146 373.212 211.893 373.212 210.222C373.212 208.55 374.464 207.297 376.134 207.297C377.803 207.297 379.055 208.55 379.055 210.222C379.055 211.893 377.803 213.146 376.134 213.146Z" fill="#EA837D"/>
<path d="M296.415 233.201C294.745 233.201 293.493 231.947 293.493 230.276C293.493 228.605 294.745 227.352 296.415 227.352C298.084 227.352 299.336 228.605 299.336 230.276C299.336 231.738 297.876 233.201 296.415 233.201Z" fill="#EA837D"/>
<path d="M316.24 233.201C314.571 233.201 313.318 231.947 313.318 230.276C313.318 228.605 314.571 227.352 316.24 227.352C317.91 227.352 319.162 228.605 319.162 230.276C319.162 231.738 317.91 233.201 316.24 233.201Z" fill="#EA837D"/>
<path d="M336.274 233.201C334.605 233.201 333.353 231.947 333.353 230.276C333.353 228.605 334.605 227.352 336.274 227.352C337.944 227.352 339.196 228.605 339.196 230.276C339.196 231.738 337.944 233.201 336.274 233.201Z" fill="#EA837D"/>
<path d="M356.099 233.201C354.43 233.201 353.178 231.947 353.178 230.276C353.178 228.605 354.43 227.352 356.099 227.352C357.769 227.352 359.021 228.605 359.021 230.276C359.021 231.738 357.769 233.201 356.099 233.201Z" fill="#EA837D"/>
<path d="M376.134 233.201C374.464 233.201 373.212 231.947 373.212 230.276C373.212 228.605 374.464 227.352 376.134 227.352C377.803 227.352 379.055 228.605 379.055 230.276C379.055 231.738 377.803 233.201 376.134 233.201Z" fill="#EA837D"/>
<path d="M216.487 133.137C214.818 133.137 213.566 131.883 213.566 130.212C213.566 128.541 214.818 127.287 216.487 127.287C218.157 127.287 219.409 128.541 219.409 130.212C219.409 131.883 218.157 133.137 216.487 133.137Z" fill="#EA837D"/>
<path d="M236.521 133.137C234.852 133.137 233.6 131.883 233.6 130.212C233.6 128.541 234.852 127.287 236.521 127.287C238.191 127.287 239.443 128.541 239.443 130.212C239.443 131.883 238.191 133.137 236.521 133.137Z" fill="#EA837D"/>
<path d="M256.555 133.137C254.886 133.137 253.634 131.883 253.634 130.212C253.634 128.541 254.886 127.287 256.555 127.287C258.225 127.287 259.477 128.541 259.477 130.212C259.477 131.883 258.016 133.137 256.555 133.137Z" fill="#EA837D"/>
<path d="M276.381 133.137C274.711 133.137 273.459 131.883 273.459 130.212C273.459 128.541 274.711 127.287 276.381 127.287C278.05 127.287 279.302 128.541 279.302 130.212C279.302 131.883 278.05 133.137 276.381 133.137Z" fill="#EA837D"/>
<path d="M216.487 153.191C214.818 153.191 213.566 151.938 213.566 150.266C213.566 148.595 214.818 147.342 216.487 147.342C218.157 147.342 219.409 148.595 219.409 150.266C219.409 151.938 218.157 153.191 216.487 153.191Z" fill="#EA837D"/>
<path d="M236.521 153.191C234.852 153.191 233.6 151.938 233.6 150.266C233.6 148.595 234.852 147.342 236.521 147.342C238.191 147.342 239.443 148.595 239.443 150.266C239.443 151.938 238.191 153.191 236.521 153.191Z" fill="#EA837D"/>
<path d="M256.555 153.191C254.886 153.191 253.634 151.938 253.634 150.266C253.634 148.595 254.886 147.342 256.555 147.342C258.225 147.342 259.477 148.595 259.477 150.266C259.477 151.938 258.016 153.191 256.555 153.191Z" fill="#EA837D"/>
<path d="M276.381 153.191C274.711 153.191 273.459 151.938 273.459 150.266C273.459 148.595 274.711 147.342 276.381 147.342C278.05 147.342 279.302 148.595 279.302 150.266C279.302 151.938 278.05 153.191 276.381 153.191Z" fill="#EA837D"/>
<path d="M216.487 173.246C214.818 173.246 213.566 171.992 213.566 170.321C213.566 168.65 214.818 167.396 216.487 167.396C218.157 167.396 219.409 168.65 219.409 170.321C219.409 171.783 218.157 173.246 216.487 173.246Z" fill="#EA837D"/>
<path d="M236.521 173.246C234.852 173.246 233.6 171.992 233.6 170.321C233.6 168.65 234.852 167.396 236.521 167.396C238.191 167.396 239.443 168.65 239.443 170.321C239.443 171.783 238.191 173.246 236.521 173.246Z" fill="#EA837D"/>
<path d="M256.555 173.246C254.886 173.246 253.634 171.992 253.634 170.321C253.634 168.65 254.886 167.396 256.555 167.396C258.225 167.396 259.477 168.65 259.477 170.321C259.477 171.783 258.016 173.246 256.555 173.246Z" fill="#EA837D"/>
<path d="M276.381 173.246C274.711 173.246 273.459 171.992 273.459 170.321C273.459 168.65 274.711 167.396 276.381 167.396C278.05 167.396 279.302 168.65 279.302 170.321C279.302 171.783 278.05 173.246 276.381 173.246Z" fill="#EA837D"/>
<path d="M216.487 193.091C214.818 193.091 213.566 191.838 213.566 190.167C213.566 188.496 214.818 187.242 216.487 187.242C218.157 187.242 219.409 188.496 219.409 190.167C219.409 191.838 218.157 193.091 216.487 193.091Z" fill="#EA837D"/>
<path d="M236.521 193.091C234.852 193.091 233.6 191.838 233.6 190.167C233.6 188.496 234.852 187.242 236.521 187.242C238.191 187.242 239.443 188.496 239.443 190.167C239.443 191.838 238.191 193.091 236.521 193.091Z" fill="#EA837D"/>
<path d="M256.555 193.091C254.886 193.091 253.634 191.838 253.634 190.167C253.634 188.496 254.886 187.242 256.555 187.242C258.225 187.242 259.477 188.496 259.477 190.167C259.477 191.838 258.016 193.091 256.555 193.091Z" fill="#EA837D"/>
<path d="M276.381 193.091C274.711 193.091 273.459 191.838 273.459 190.167C273.459 188.496 274.711 187.242 276.381 187.242C278.05 187.242 279.302 188.496 279.302 190.167C279.302 191.838 278.05 193.091 276.381 193.091Z" fill="#EA837D"/>
<path d="M216.487 213.146C214.818 213.146 213.566 211.893 213.566 210.222C213.566 208.55 214.818 207.297 216.487 207.297C218.157 207.297 219.409 208.55 219.409 210.222C219.409 211.893 218.157 213.146 216.487 213.146Z" fill="#EA837D"/>
<path d="M236.521 213.146C234.852 213.146 233.6 211.893 233.6 210.222C233.6 208.55 234.852 207.297 236.521 207.297C238.191 207.297 239.443 208.55 239.443 210.222C239.443 211.893 238.191 213.146 236.521 213.146Z" fill="#EA837D"/>
<path d="M256.555 213.146C254.886 213.146 253.634 211.893 253.634 210.222C253.634 208.55 254.886 207.297 256.555 207.297C258.225 207.297 259.477 208.55 259.477 210.222C259.477 211.893 258.016 213.146 256.555 213.146Z" fill="#EA837D"/>
<path d="M276.381 213.146C274.711 213.146 273.459 211.893 273.459 210.222C273.459 208.55 274.711 207.297 276.381 207.297C278.05 207.297 279.302 208.55 279.302 210.222C279.302 211.893 278.05 213.146 276.381 213.146Z" fill="#EA837D"/>
<path d="M216.487 233.201C214.818 233.201 213.566 231.947 213.566 230.276C213.566 228.605 214.818 227.352 216.487 227.352C218.157 227.352 219.409 228.605 219.409 230.276C219.409 231.738 218.157 233.201 216.487 233.201Z" fill="#EA837D"/>
<path d="M236.521 233.201C234.852 233.201 233.6 231.947 233.6 230.276C233.6 228.605 234.852 227.352 236.521 227.352C238.191 227.352 239.443 228.605 239.443 230.276C239.443 231.738 238.191 233.201 236.521 233.201Z" fill="#EA837D"/>
<path d="M256.555 233.201C254.886 233.201 253.634 231.947 253.634 230.276C253.634 228.605 254.886 227.352 256.555 227.352C258.225 227.352 259.477 228.605 259.477 230.276C259.477 231.738 258.016 233.201 256.555 233.201Z" fill="#EA837D"/>
<path d="M276.381 233.201C274.711 233.201 273.459 231.947 273.459 230.276C273.459 228.605 274.711 227.352 276.381 227.352C278.05 227.352 279.302 228.605 279.302 230.276C279.302 231.738 278.05 233.201 276.381 233.201Z" fill="#EA837D"/>
<path d="M116.108 252.211C114.439 252.211 113.187 250.957 113.187 249.286C113.187 247.615 114.439 246.362 116.108 246.362C117.778 246.362 119.03 247.615 119.03 249.286C119.03 250.957 117.778 252.211 116.108 252.211Z" fill="#EA837D"/>
<path d="M136.142 252.211C134.473 252.211 133.221 250.957 133.221 249.286C133.221 247.615 134.473 246.362 136.142 246.362C137.812 246.362 139.064 247.615 139.064 249.286C139.064 250.957 137.603 252.211 136.142 252.211Z" fill="#EA837D"/>
<path d="M155.968 252.211C154.298 252.211 153.046 250.957 153.046 249.286C153.046 247.615 154.298 246.362 155.968 246.362C157.637 246.362 158.889 247.615 158.889 249.286C158.889 250.957 157.637 252.211 155.968 252.211Z" fill="#EA837D"/>
<path d="M176.002 252.211C174.332 252.211 173.08 250.957 173.08 249.286C173.08 247.615 174.332 246.362 176.002 246.362C177.671 246.362 178.923 247.615 178.923 249.286C178.923 250.957 177.463 252.211 176.002 252.211Z" fill="#EA837D"/>
<path d="M195.827 252.211C194.158 252.211 192.906 250.957 192.906 249.286C192.906 247.615 194.158 246.362 195.827 246.362C197.497 246.362 198.749 247.615 198.749 249.286C198.749 250.957 197.497 252.211 195.827 252.211Z" fill="#EA837D"/>
<path d="M116.108 272.265C114.439 272.265 113.187 271.012 113.187 269.341C113.187 267.669 114.439 266.416 116.108 266.416C117.778 266.416 119.03 267.669 119.03 269.341C119.03 271.012 117.778 272.265 116.108 272.265Z" fill="#EA837D"/>
<path d="M136.142 272.265C134.473 272.265 133.221 271.012 133.221 269.341C133.221 267.669 134.473 266.416 136.142 266.416C137.812 266.416 139.064 267.669 139.064 269.341C139.064 271.012 137.603 272.265 136.142 272.265Z" fill="#EA837D"/>
<path d="M155.968 272.265C154.298 272.265 153.046 271.012 153.046 269.341C153.046 267.669 154.298 266.416 155.968 266.416C157.637 266.416 158.889 267.669 158.889 269.341C158.889 271.012 157.637 272.265 155.968 272.265Z" fill="#EA837D"/>
<path d="M176.002 272.265C174.332 272.265 173.08 271.012 173.08 269.341C173.08 267.669 174.332 266.416 176.002 266.416C177.671 266.416 178.923 267.669 178.923 269.341C178.923 271.012 177.463 272.265 176.002 272.265Z" fill="#EA837D"/>
<path d="M195.827 272.265C194.158 272.265 192.906 271.012 192.906 269.341C192.906 267.669 194.158 266.416 195.827 266.416C197.497 266.416 198.749 267.669 198.749 269.341C198.749 271.012 197.497 272.265 195.827 272.265Z" fill="#EA837D"/>
<path d="M116.108 292.32C114.439 292.32 113.187 291.067 113.187 289.395C113.187 287.724 114.439 286.471 116.108 286.471C117.778 286.471 119.03 287.724 119.03 289.395C119.03 290.858 117.778 292.32 116.108 292.32Z" fill="#EA837D"/>
<path d="M136.142 292.32C134.473 292.32 133.221 291.067 133.221 289.395C133.221 287.724 134.473 286.471 136.142 286.471C137.812 286.471 139.064 287.724 139.064 289.395C139.064 290.858 137.603 292.32 136.142 292.32Z" fill="#EA837D"/>
<path d="M155.968 292.32C154.298 292.32 153.046 291.067 153.046 289.395C153.046 287.724 154.298 286.471 155.968 286.471C157.637 286.471 158.889 287.724 158.889 289.395C158.889 290.858 157.637 292.32 155.968 292.32Z" fill="#EA837D"/>
<path d="M176.002 292.32C174.332 292.32 173.08 291.067 173.08 289.395C173.08 287.724 174.332 286.471 176.002 286.471C177.671 286.471 178.923 287.724 178.923 289.395C178.923 290.858 177.463 292.32 176.002 292.32Z" fill="#EA837D"/>
<path d="M195.827 292.32C194.158 292.32 192.906 291.067 192.906 289.395C192.906 287.724 194.158 286.471 195.827 286.471C197.497 286.471 198.749 287.724 198.749 289.395C198.749 290.858 197.497 292.32 195.827 292.32Z" fill="#EA837D"/>
<path d="M36.3897 252.212C34.7202 252.212 33.468 250.958 33.468 249.287C33.468 247.616 34.7202 246.362 36.3897 246.362C38.0592 246.362 39.3113 247.616 39.3113 249.287C39.3113 250.958 37.8505 252.212 36.3897 252.212Z" fill="#EA837D"/>
<path d="M56.215 252.211C54.5455 252.211 53.2933 250.957 53.2933 249.286C53.2933 247.615 54.5455 246.362 56.215 246.362C57.8845 246.362 59.1366 247.615 59.1366 249.286C59.1366 250.957 57.8845 252.211 56.215 252.211Z" fill="#EA837D"/>
<path d="M76.249 252.211C74.5795 252.211 73.3274 250.957 73.3274 249.286C73.3274 247.615 74.5795 246.362 76.249 246.362C77.9185 246.362 79.1707 247.615 79.1707 249.286C79.1707 250.957 77.9185 252.211 76.249 252.211Z" fill="#EA837D"/>
<path d="M96.0743 252.211C94.4048 252.211 93.1527 250.957 93.1527 249.286C93.1527 247.615 94.4048 246.362 96.0743 246.362C97.7438 246.362 98.996 247.615 98.996 249.286C98.996 250.957 97.7438 252.211 96.0743 252.211Z" fill="#EA837D"/>
<path d="M36.3897 272.265C34.7202 272.265 33.468 271.012 33.468 269.341C33.468 267.669 34.7202 266.416 36.3897 266.416C38.0592 266.416 39.3113 267.669 39.3113 269.341C39.3113 271.012 37.8505 272.265 36.3897 272.265Z" fill="#EA837D"/>
<path d="M56.215 272.265C54.5455 272.265 53.2933 271.012 53.2933 269.341C53.2933 267.669 54.5455 266.416 56.215 266.416C57.8845 266.416 59.1366 267.669 59.1366 269.341C59.1366 271.012 57.8845 272.265 56.215 272.265Z" fill="#EA837D"/>
<path d="M76.249 272.265C74.5795 272.265 73.3274 271.012 73.3274 269.341C73.3274 267.669 74.5795 266.416 76.249 266.416C77.9185 266.416 79.1707 267.669 79.1707 269.341C79.1707 271.012 77.9185 272.265 76.249 272.265Z" fill="#EA837D"/>
<path d="M96.0743 272.265C94.4048 272.265 93.1527 271.012 93.1527 269.341C93.1527 267.669 94.4048 266.416 96.0743 266.416C97.7438 266.416 98.996 267.669 98.996 269.341C98.996 271.012 97.7438 272.265 96.0743 272.265Z" fill="#EA837D"/>
<path d="M36.3897 292.32C34.7202 292.32 33.468 291.067 33.468 289.395C33.468 287.724 34.7202 286.471 36.3897 286.471C38.0592 286.471 39.3113 287.724 39.3113 289.395C39.3113 290.858 37.8505 292.32 36.3897 292.32Z" fill="#EA837D"/>
<path d="M56.215 292.32C54.5455 292.32 53.2933 291.067 53.2933 289.395C53.2933 287.724 54.5455 286.471 56.215 286.471C57.8845 286.471 59.1366 287.724 59.1366 289.395C59.1366 290.858 57.8845 292.32 56.215 292.32Z" fill="#EA837D"/>
<path d="M76.249 292.32C74.5795 292.32 73.3274 291.067 73.3274 289.395C73.3274 287.724 74.5795 286.471 76.249 286.471C77.9185 286.471 79.1707 287.724 79.1707 289.395C79.1707 290.858 77.9185 292.32 76.249 292.32Z" fill="#EA837D"/>
<path d="M96.0743 292.32C94.4048 292.32 93.1527 291.067 93.1527 289.395C93.1527 287.724 94.4048 286.471 96.0743 286.471C97.7438 286.471 98.996 287.724 98.996 289.395C98.996 290.858 97.7438 292.32 96.0743 292.32Z" fill="#EA837D"/>
<path d="M296.415 252.211C294.745 252.211 293.493 250.957 293.493 249.286C293.493 247.615 294.745 246.362 296.415 246.362C298.084 246.362 299.336 247.615 299.336 249.286C299.336 250.957 297.876 252.211 296.415 252.211Z" fill="#EA837D"/>
<path d="M316.24 252.211C314.571 252.211 313.318 250.957 313.318 249.286C313.318 247.615 314.571 246.362 316.24 246.362C317.91 246.362 319.162 247.615 319.162 249.286C319.162 250.957 317.91 252.211 316.24 252.211Z" fill="#EA837D"/>
<path d="M336.274 252.211C334.605 252.211 333.353 250.957 333.353 249.286C333.353 247.615 334.605 246.362 336.274 246.362C337.944 246.362 339.196 247.615 339.196 249.286C339.196 250.957 337.944 252.211 336.274 252.211Z" fill="#EA837D"/>
<path d="M356.099 252.211C354.43 252.211 353.178 250.957 353.178 249.286C353.178 247.615 354.43 246.362 356.099 246.362C357.769 246.362 359.021 247.615 359.021 249.286C359.021 250.957 357.769 252.211 356.099 252.211Z" fill="#EA837D"/>
<path d="M376.134 252.211C374.464 252.211 373.212 250.957 373.212 249.286C373.212 247.615 374.464 246.362 376.134 246.362C377.803 246.362 379.055 247.615 379.055 249.286C379.055 250.957 377.803 252.211 376.134 252.211Z" fill="#EA837D"/>
<path d="M296.415 272.265C294.745 272.265 293.493 271.012 293.493 269.341C293.493 267.669 294.745 266.416 296.415 266.416C298.084 266.416 299.336 267.669 299.336 269.341C299.336 271.012 297.876 272.265 296.415 272.265Z" fill="#EA837D"/>
<path d="M316.24 272.265C314.571 272.265 313.318 271.012 313.318 269.341C313.318 267.669 314.571 266.416 316.24 266.416C317.91 266.416 319.162 267.669 319.162 269.341C319.162 271.012 317.91 272.265 316.24 272.265Z" fill="#EA837D"/>
<path d="M336.274 272.265C334.605 272.265 333.353 271.012 333.353 269.341C333.353 267.669 334.605 266.416 336.274 266.416C337.944 266.416 339.196 267.669 339.196 269.341C339.196 271.012 337.944 272.265 336.274 272.265Z" fill="#EA837D"/>
<path d="M356.099 272.265C354.43 272.265 353.178 271.012 353.178 269.341C353.178 267.669 354.43 266.416 356.099 266.416C357.769 266.416 359.021 267.669 359.021 269.341C359.021 271.012 357.769 272.265 356.099 272.265Z" fill="#EA837D"/>
<path d="M376.134 272.265C374.464 272.265 373.212 271.012 373.212 269.341C373.212 267.669 374.464 266.416 376.134 266.416C377.803 266.416 379.055 267.669 379.055 269.341C379.055 271.012 377.803 272.265 376.134 272.265Z" fill="#EA837D"/>
<path d="M296.415 292.32C294.745 292.32 293.493 291.067 293.493 289.395C293.493 287.724 294.745 286.471 296.415 286.471C298.084 286.471 299.336 287.724 299.336 289.395C299.336 290.858 297.876 292.32 296.415 292.32Z" fill="#EA837D"/>
<path d="M316.24 292.32C314.571 292.32 313.318 291.067 313.318 289.395C313.318 287.724 314.571 286.471 316.24 286.471C317.91 286.471 319.162 287.724 319.162 289.395C319.162 290.858 317.91 292.32 316.24 292.32Z" fill="#EA837D"/>
<path d="M336.274 292.32C334.605 292.32 333.353 291.067 333.353 289.395C333.353 287.724 334.605 286.471 336.274 286.471C337.944 286.471 339.196 287.724 339.196 289.395C339.196 290.858 337.944 292.32 336.274 292.32Z" fill="#EA837D"/>
<path d="M356.099 292.32C354.43 292.32 353.178 291.067 353.178 289.395C353.178 287.724 354.43 286.471 356.099 286.471C357.769 286.471 359.021 287.724 359.021 289.395C359.021 290.858 357.769 292.32 356.099 292.32Z" fill="#EA837D"/>
<path d="M376.134 292.32C374.464 292.32 373.212 291.067 373.212 289.395C373.212 287.724 374.464 286.471 376.134 286.471C377.803 286.471 379.055 287.724 379.055 289.395C379.055 290.858 377.803 292.32 376.134 292.32Z" fill="#EA837D"/>
<path d="M216.487 252.212C214.818 252.212 213.566 250.958 213.566 249.287C213.566 247.616 214.818 246.362 216.487 246.362C218.157 246.362 219.409 247.616 219.409 249.287C219.409 250.958 218.157 252.212 216.487 252.212Z" fill="#EA837D"/>
<path d="M236.521 252.211C234.852 252.211 233.6 250.957 233.6 249.286C233.6 247.615 234.852 246.362 236.521 246.362C238.191 246.362 239.443 247.615 239.443 249.286C239.443 250.957 238.191 252.211 236.521 252.211Z" fill="#EA837D"/>
<path d="M256.555 252.211C254.886 252.211 253.634 250.957 253.634 249.286C253.634 247.615 254.886 246.362 256.555 246.362C258.225 246.362 259.477 247.615 259.477 249.286C259.477 250.957 258.016 252.211 256.555 252.211Z" fill="#EA837D"/>
<path d="M276.381 252.211C274.711 252.211 273.459 250.957 273.459 249.286C273.459 247.615 274.711 246.362 276.381 246.362C278.05 246.362 279.302 247.615 279.302 249.286C279.302 250.957 278.05 252.211 276.381 252.211Z" fill="#EA837D"/>
<path d="M216.487 272.265C214.818 272.265 213.566 271.012 213.566 269.341C213.566 267.669 214.818 266.416 216.487 266.416C218.157 266.416 219.409 267.669 219.409 269.341C219.409 271.012 218.157 272.265 216.487 272.265Z" fill="#EA837D"/>
<path d="M236.521 272.265C234.852 272.265 233.6 271.012 233.6 269.341C233.6 267.669 234.852 266.416 236.521 266.416C238.191 266.416 239.443 267.669 239.443 269.341C239.443 271.012 238.191 272.265 236.521 272.265Z" fill="#EA837D"/>
<path d="M256.555 272.265C254.886 272.265 253.634 271.012 253.634 269.341C253.634 267.669 254.886 266.416 256.555 266.416C258.225 266.416 259.477 267.669 259.477 269.341C259.477 271.012 258.016 272.265 256.555 272.265Z" fill="#EA837D"/>
<path d="M276.381 272.265C274.711 272.265 273.459 271.012 273.459 269.341C273.459 267.669 274.711 266.416 276.381 266.416C278.05 266.416 279.302 267.669 279.302 269.341C279.302 271.012 278.05 272.265 276.381 272.265Z" fill="#EA837D"/>
<path d="M216.487 292.32C214.818 292.32 213.566 291.067 213.566 289.395C213.566 287.724 214.818 286.471 216.487 286.471C218.157 286.471 219.409 287.724 219.409 289.395C219.409 290.858 218.157 292.32 216.487 292.32Z" fill="#EA837D"/>
<path d="M236.521 292.32C234.852 292.32 233.6 291.067 233.6 289.395C233.6 287.724 234.852 286.471 236.521 286.471C238.191 286.471 239.443 287.724 239.443 289.395C239.443 290.858 238.191 292.32 236.521 292.32Z" fill="#EA837D"/>
<path d="M256.555 292.32C254.886 292.32 253.634 291.067 253.634 289.395C253.634 287.724 254.886 286.471 256.555 286.471C258.225 286.471 259.477 287.724 259.477 289.395C259.477 290.858 258.016 292.32 256.555 292.32Z" fill="#EA837D"/>
<path d="M276.381 292.32C274.711 292.32 273.459 291.067 273.459 289.395C273.459 287.724 274.711 286.471 276.381 286.471C278.05 286.471 279.302 287.724 279.302 289.395C279.302 290.858 278.05 292.32 276.381 292.32Z" fill="#EA837D"/>
<path d="M475.649 11.9731C473.979 11.9731 472.727 10.7197 472.727 9.04849C472.727 7.37727 473.979 6.12381 475.649 6.12381C477.318 6.12381 478.57 7.37727 478.57 9.04849C478.57 10.7197 477.318 11.9731 475.649 11.9731Z" fill="#EA837D"/>
<path d="M475.649 32.0277C473.979 32.0277 472.727 30.7742 472.727 29.103C472.727 27.4318 473.979 26.1784 475.649 26.1784C477.318 26.1784 478.57 27.4318 478.57 29.103C478.57 30.7742 477.318 32.0277 475.649 32.0277Z" fill="#EA837D"/>
<path d="M475.649 52.0822C473.979 52.0822 472.727 50.8288 472.727 49.1576C472.727 47.4864 473.979 46.2329 475.649 46.2329C477.318 46.2329 478.57 47.4864 478.57 49.1576C478.57 50.6199 477.318 52.0822 475.649 52.0822Z" fill="#EA837D"/>
<path d="M475.649 71.9278C473.979 71.9278 472.727 70.6745 472.727 69.0032C472.727 67.332 473.979 66.0786 475.649 66.0786C477.318 66.0786 478.57 67.332 478.57 69.0032C478.57 70.6745 477.318 71.9278 475.649 71.9278Z" fill="#EA837D"/>
<path d="M475.649 91.9828C473.979 91.9828 472.727 90.7294 472.727 89.0582C472.727 87.3869 473.979 86.1335 475.649 86.1335C477.318 86.1335 478.57 87.3869 478.57 89.0582C478.57 90.7294 477.318 91.9828 475.649 91.9828Z" fill="#EA837D"/>
<path d="M475.649 112.037C473.979 112.037 472.727 110.784 472.727 109.113C472.727 107.441 473.979 106.188 475.649 106.188C477.318 106.188 478.57 107.441 478.57 109.113C478.57 110.575 477.318 112.037 475.649 112.037Z" fill="#EA837D"/>
<path d="M395.93 11.9747C394.26 11.9747 393.008 10.7213 393.008 9.05013C393.008 7.37891 394.26 6.12544 395.93 6.12544C397.599 6.12544 398.852 7.37891 398.852 9.05013C398.852 10.7213 397.391 11.9747 395.93 11.9747Z" fill="#EA837D"/>
<path d="M415.755 11.9731C414.086 11.9731 412.834 10.7197 412.834 9.04849C412.834 7.37727 414.086 6.12381 415.755 6.12381C417.425 6.12381 418.677 7.37727 418.677 9.04849C418.677 10.7197 417.425 11.9731 415.755 11.9731Z" fill="#EA837D"/>
<path d="M435.789 11.9731C434.12 11.9731 432.868 10.7197 432.868 9.04849C432.868 7.37727 434.12 6.12381 435.789 6.12381C437.459 6.12381 438.711 7.37727 438.711 9.04849C438.711 10.7197 437.459 11.9731 435.789 11.9731Z" fill="#EA837D"/>
<path d="M455.615 11.9731C453.945 11.9731 452.693 10.7197 452.693 9.04849C452.693 7.37727 453.945 6.12381 455.615 6.12381C457.284 6.12381 458.536 7.37727 458.536 9.04849C458.536 10.7197 457.284 11.9731 455.615 11.9731Z" fill="#EA837D"/>
<path d="M395.93 32.0277C394.26 32.0277 393.008 30.7742 393.008 29.103C393.008 27.4318 394.26 26.1784 395.93 26.1784C397.599 26.1784 398.852 27.4318 398.852 29.103C398.852 30.7742 397.391 32.0277 395.93 32.0277Z" fill="#EA837D"/>
<path d="M415.755 32.0277C414.086 32.0277 412.834 30.7742 412.834 29.103C412.834 27.4318 414.086 26.1784 415.755 26.1784C417.425 26.1784 418.677 27.4318 418.677 29.103C418.677 30.7742 417.425 32.0277 415.755 32.0277Z" fill="#EA837D"/>
<path d="M435.789 32.0277C434.12 32.0277 432.868 30.7742 432.868 29.103C432.868 27.4318 434.12 26.1784 435.789 26.1784C437.459 26.1784 438.711 27.4318 438.711 29.103C438.711 30.7742 437.459 32.0277 435.789 32.0277Z" fill="#EA837D"/>
<path d="M455.615 32.0277C453.945 32.0277 452.693 30.7742 452.693 29.103C452.693 27.4318 453.945 26.1784 455.615 26.1784C457.284 26.1784 458.536 27.4318 458.536 29.103C458.536 30.7742 457.284 32.0277 455.615 32.0277Z" fill="#EA837D"/>
<path d="M395.93 52.0822C394.26 52.0822 393.008 50.8288 393.008 49.1576C393.008 47.4864 394.26 46.2329 395.93 46.2329C397.599 46.2329 398.852 47.4864 398.852 49.1576C398.852 50.6199 397.391 52.0822 395.93 52.0822Z" fill="#EA837D"/>
<path d="M415.755 52.0822C414.086 52.0822 412.834 50.8288 412.834 49.1576C412.834 47.4864 414.086 46.2329 415.755 46.2329C417.425 46.2329 418.677 47.4864 418.677 49.1576C418.677 50.6199 417.425 52.0822 415.755 52.0822Z" fill="#EA837D"/>
<path d="M435.789 52.0822C434.12 52.0822 432.868 50.8288 432.868 49.1576C432.868 47.4864 434.12 46.2329 435.789 46.2329C437.459 46.2329 438.711 47.4864 438.711 49.1576C438.711 50.6199 437.459 52.0822 435.789 52.0822Z" fill="#EA837D"/>
<path d="M455.615 52.0822C453.945 52.0822 452.693 50.8288 452.693 49.1576C452.693 47.4864 453.945 46.2329 455.615 46.2329C457.284 46.2329 458.536 47.4864 458.536 49.1576C458.536 50.6199 457.284 52.0822 455.615 52.0822Z" fill="#EA837D"/>
<path d="M395.93 71.9278C394.26 71.9278 393.008 70.6745 393.008 69.0032C393.008 67.332 394.26 66.0786 395.93 66.0786C397.599 66.0786 398.852 67.332 398.852 69.0032C398.852 70.6745 397.391 71.9278 395.93 71.9278Z" fill="#EA837D"/>
<path d="M415.755 71.9278C414.086 71.9278 412.834 70.6745 412.834 69.0032C412.834 67.332 414.086 66.0786 415.755 66.0786C417.425 66.0786 418.677 67.332 418.677 69.0032C418.677 70.6745 417.425 71.9278 415.755 71.9278Z" fill="#EA837D"/>
<path d="M435.789 71.9278C434.12 71.9278 432.868 70.6745 432.868 69.0032C432.868 67.332 434.12 66.0786 435.789 66.0786C437.459 66.0786 438.711 67.332 438.711 69.0032C438.711 70.6745 437.459 71.9278 435.789 71.9278Z" fill="#EA837D"/>
<path d="M455.615 71.9278C453.945 71.9278 452.693 70.6745 452.693 69.0032C452.693 67.332 453.945 66.0786 455.615 66.0786C457.284 66.0786 458.536 67.332 458.536 69.0032C458.536 70.6745 457.284 71.9278 455.615 71.9278Z" fill="#EA837D"/>
<path d="M395.93 91.9828C394.26 91.9828 393.008 90.7294 393.008 89.0582C393.008 87.3869 394.26 86.1335 395.93 86.1335C397.599 86.1335 398.852 87.3869 398.852 89.0582C398.852 90.7294 397.391 91.9828 395.93 91.9828Z" fill="#EA837D"/>
<path d="M415.755 91.9828C414.086 91.9828 412.834 90.7294 412.834 89.0582C412.834 87.3869 414.086 86.1335 415.755 86.1335C417.425 86.1335 418.677 87.3869 418.677 89.0582C418.677 90.7294 417.425 91.9828 415.755 91.9828Z" fill="#EA837D"/>
<path d="M435.789 91.9828C434.12 91.9828 432.868 90.7294 432.868 89.0582C432.868 87.3869 434.12 86.1335 435.789 86.1335C437.459 86.1335 438.711 87.3869 438.711 89.0582C438.711 90.7294 437.459 91.9828 435.789 91.9828Z" fill="#EA837D"/>
<path d="M455.615 91.9828C453.945 91.9828 452.693 90.7294 452.693 89.0582C452.693 87.3869 453.945 86.1335 455.615 86.1335C457.284 86.1335 458.536 87.3869 458.536 89.0582C458.536 90.7294 457.284 91.9828 455.615 91.9828Z" fill="#EA837D"/>
<path d="M395.93 112.037C394.26 112.037 393.008 110.784 393.008 109.113C393.008 107.441 394.26 106.188 395.93 106.188C397.599 106.188 398.852 107.441 398.852 109.113C398.852 110.575 397.391 112.037 395.93 112.037Z" fill="#EA837D"/>
<path d="M415.755 112.037C414.086 112.037 412.834 110.784 412.834 109.113C412.834 107.441 414.086 106.188 415.755 106.188C417.425 106.188 418.677 107.441 418.677 109.113C418.677 110.575 417.425 112.037 415.755 112.037Z" fill="#EA837D"/>
<path d="M435.789 112.037C434.12 112.037 432.868 110.784 432.868 109.113C432.868 107.441 434.12 106.188 435.789 106.188C437.459 106.188 438.711 107.441 438.711 109.113C438.711 110.575 437.459 112.037 435.789 112.037Z" fill="#EA837D"/>
<path d="M455.615 112.037C453.945 112.037 452.693 110.784 452.693 109.113C452.693 107.441 453.945 106.188 455.615 106.188C457.284 106.188 458.536 107.441 458.536 109.113C458.536 110.575 457.284 112.037 455.615 112.037Z" fill="#EA837D"/>
<path d="M475.649 133.137C473.979 133.137 472.727 131.883 472.727 130.212C472.727 128.541 473.979 127.287 475.649 127.287C477.318 127.287 478.57 128.541 478.57 130.212C478.57 131.883 477.318 133.137 475.649 133.137Z" fill="#EA837D"/>
<path d="M475.649 153.191C473.979 153.191 472.727 151.938 472.727 150.266C472.727 148.595 473.979 147.342 475.649 147.342C477.318 147.342 478.57 148.595 478.57 150.266C478.57 151.938 477.318 153.191 475.649 153.191Z" fill="#EA837D"/>
<path d="M475.649 173.246C473.979 173.246 472.727 171.992 472.727 170.321C472.727 168.65 473.979 167.396 475.649 167.396C477.318 167.396 478.57 168.65 478.57 170.321C478.57 171.783 477.318 173.246 475.649 173.246Z" fill="#EA837D"/>
<path d="M475.649 193.091C473.979 193.091 472.727 191.838 472.727 190.167C472.727 188.496 473.979 187.242 475.649 187.242C477.318 187.242 478.57 188.496 478.57 190.167C478.57 191.838 477.318 193.091 475.649 193.091Z" fill="#EA837D"/>
<path d="M475.649 213.146C473.979 213.146 472.727 211.893 472.727 210.222C472.727 208.55 473.979 207.297 475.649 207.297C477.318 207.297 478.57 208.55 478.57 210.222C478.57 211.893 477.318 213.146 475.649 213.146Z" fill="#EA837D"/>
<path d="M475.649 233.201C473.979 233.201 472.727 231.947 472.727 230.276C472.727 228.605 473.979 227.352 475.649 227.352C477.318 227.352 478.57 228.605 478.57 230.276C478.57 231.738 477.318 233.201 475.649 233.201Z" fill="#EA837D"/>
<path d="M395.93 133.137C394.26 133.137 393.008 131.883 393.008 130.212C393.008 128.541 394.26 127.287 395.93 127.287C397.599 127.287 398.852 128.541 398.852 130.212C398.852 131.883 397.391 133.137 395.93 133.137Z" fill="#EA837D"/>
<path d="M415.755 133.137C414.086 133.137 412.834 131.883 412.834 130.212C412.834 128.541 414.086 127.287 415.755 127.287C417.425 127.287 418.677 128.541 418.677 130.212C418.677 131.883 417.425 133.137 415.755 133.137Z" fill="#EA837D"/>
<path d="M435.789 133.137C434.12 133.137 432.868 131.883 432.868 130.212C432.868 128.541 434.12 127.287 435.789 127.287C437.459 127.287 438.711 128.541 438.711 130.212C438.711 131.883 437.459 133.137 435.789 133.137Z" fill="#EA837D"/>
<path d="M455.615 133.137C453.945 133.137 452.693 131.883 452.693 130.212C452.693 128.541 453.945 127.287 455.615 127.287C457.284 127.287 458.536 128.541 458.536 130.212C458.536 131.883 457.284 133.137 455.615 133.137Z" fill="#EA837D"/>
<path d="M395.93 153.191C394.26 153.191 393.008 151.938 393.008 150.266C393.008 148.595 394.26 147.342 395.93 147.342C397.599 147.342 398.852 148.595 398.852 150.266C398.852 151.938 397.391 153.191 395.93 153.191Z" fill="#EA837D"/>
<path d="M415.755 153.191C414.086 153.191 412.834 151.938 412.834 150.266C412.834 148.595 414.086 147.342 415.755 147.342C417.425 147.342 418.677 148.595 418.677 150.266C418.677 151.938 417.425 153.191 415.755 153.191Z" fill="#EA837D"/>
<path d="M435.789 153.191C434.12 153.191 432.868 151.938 432.868 150.266C432.868 148.595 434.12 147.342 435.789 147.342C437.459 147.342 438.711 148.595 438.711 150.266C438.711 151.938 437.459 153.191 435.789 153.191Z" fill="#EA837D"/>
<path d="M455.615 153.191C453.945 153.191 452.693 151.938 452.693 150.266C452.693 148.595 453.945 147.342 455.615 147.342C457.284 147.342 458.536 148.595 458.536 150.266C458.536 151.938 457.284 153.191 455.615 153.191Z" fill="#EA837D"/>
<path d="M395.93 173.246C394.26 173.246 393.008 171.992 393.008 170.321C393.008 168.65 394.26 167.396 395.93 167.396C397.599 167.396 398.852 168.65 398.852 170.321C398.852 171.783 397.391 173.246 395.93 173.246Z" fill="#EA837D"/>
<path d="M415.755 173.246C414.086 173.246 412.834 171.992 412.834 170.321C412.834 168.65 414.086 167.396 415.755 167.396C417.425 167.396 418.677 168.65 418.677 170.321C418.677 171.783 417.425 173.246 415.755 173.246Z" fill="#EA837D"/>
<path d="M435.789 173.246C434.12 173.246 432.868 171.992 432.868 170.321C432.868 168.65 434.12 167.396 435.789 167.396C437.459 167.396 438.711 168.65 438.711 170.321C438.711 171.783 437.459 173.246 435.789 173.246Z" fill="#EA837D"/>
<path d="M455.615 173.246C453.945 173.246 452.693 171.992 452.693 170.321C452.693 168.65 453.945 167.396 455.615 167.396C457.284 167.396 458.536 168.65 458.536 170.321C458.536 171.783 457.284 173.246 455.615 173.246Z" fill="#EA837D"/>
<path d="M395.93 193.091C394.26 193.091 393.008 191.838 393.008 190.167C393.008 188.496 394.26 187.242 395.93 187.242C397.599 187.242 398.852 188.496 398.852 190.167C398.852 191.838 397.391 193.091 395.93 193.091Z" fill="#EA837D"/>
<path d="M415.755 193.091C414.086 193.091 412.834 191.838 412.834 190.167C412.834 188.496 414.086 187.242 415.755 187.242C417.425 187.242 418.677 188.496 418.677 190.167C418.677 191.838 417.425 193.091 415.755 193.091Z" fill="#EA837D"/>
<path d="M435.789 193.091C434.12 193.091 432.868 191.838 432.868 190.167C432.868 188.496 434.12 187.242 435.789 187.242C437.459 187.242 438.711 188.496 438.711 190.167C438.711 191.838 437.459 193.091 435.789 193.091Z" fill="#EA837D"/>
<path d="M455.615 193.091C453.945 193.091 452.693 191.838 452.693 190.167C452.693 188.496 453.945 187.242 455.615 187.242C457.284 187.242 458.536 188.496 458.536 190.167C458.536 191.838 457.284 193.091 455.615 193.091Z" fill="#EA837D"/>
<path d="M395.93 213.146C394.26 213.146 393.008 211.893 393.008 210.222C393.008 208.55 394.26 207.297 395.93 207.297C397.599 207.297 398.852 208.55 398.852 210.222C398.852 211.893 397.391 213.146 395.93 213.146Z" fill="#EA837D"/>
<path d="M415.755 213.146C414.086 213.146 412.834 211.893 412.834 210.222C412.834 208.55 414.086 207.297 415.755 207.297C417.425 207.297 418.677 208.55 418.677 210.222C418.677 211.893 417.425 213.146 415.755 213.146Z" fill="#EA837D"/>
<path d="M435.789 213.146C434.12 213.146 432.868 211.893 432.868 210.222C432.868 208.55 434.12 207.297 435.789 207.297C437.459 207.297 438.711 208.55 438.711 210.222C438.711 211.893 437.459 213.146 435.789 213.146Z" fill="#EA837D"/>
<path d="M455.615 213.146C453.945 213.146 452.693 211.893 452.693 210.222C452.693 208.55 453.945 207.297 455.615 207.297C457.284 207.297 458.536 208.55 458.536 210.222C458.536 211.893 457.284 213.146 455.615 213.146Z" fill="#EA837D"/>
<path d="M395.93 233.201C394.26 233.201 393.008 231.947 393.008 230.276C393.008 228.605 394.26 227.352 395.93 227.352C397.599 227.352 398.852 228.605 398.852 230.276C398.852 231.738 397.391 233.201 395.93 233.201Z" fill="#EA837D"/>
<path d="M415.755 233.201C414.086 233.201 412.834 231.947 412.834 230.276C412.834 228.605 414.086 227.352 415.755 227.352C417.425 227.352 418.677 228.605 418.677 230.276C418.677 231.738 417.425 233.201 415.755 233.201Z" fill="#EA837D"/>
<path d="M435.789 233.201C434.12 233.201 432.868 231.947 432.868 230.276C432.868 228.605 434.12 227.352 435.789 227.352C437.459 227.352 438.711 228.605 438.711 230.276C438.711 231.738 437.459 233.201 435.789 233.201Z" fill="#EA837D"/>
<path d="M455.615 233.201C453.945 233.201 452.693 231.947 452.693 230.276C452.693 228.605 453.945 227.352 455.615 227.352C457.284 227.352 458.536 228.605 458.536 230.276C458.536 231.738 457.284 233.201 455.615 233.201Z" fill="#EA837D"/>
<path d="M475.649 252.211C473.979 252.211 472.727 250.957 472.727 249.286C472.727 247.615 473.979 246.362 475.649 246.362C477.318 246.362 478.57 247.615 478.57 249.286C478.57 250.957 477.318 252.211 475.649 252.211Z" fill="#EA837D"/>
<path d="M475.649 272.265C473.979 272.265 472.727 271.012 472.727 269.341C472.727 267.669 473.979 266.416 475.649 266.416C477.318 266.416 478.57 267.669 478.57 269.341C478.57 271.012 477.318 272.265 475.649 272.265Z" fill="#EA837D"/>
<path d="M475.649 292.32C473.979 292.32 472.727 291.067 472.727 289.395C472.727 287.724 473.979 286.471 475.649 286.471C477.318 286.471 478.57 287.724 478.57 289.395C478.57 290.858 477.318 292.32 475.649 292.32Z" fill="#EA837D"/>
<path d="M395.93 252.212C394.26 252.212 393.008 250.958 393.008 249.287C393.008 247.616 394.26 246.362 395.93 246.362C397.599 246.362 398.852 247.616 398.852 249.287C398.852 250.958 397.391 252.212 395.93 252.212Z" fill="#EA837D"/>
<path d="M415.755 252.211C414.086 252.211 412.834 250.957 412.834 249.286C412.834 247.615 414.086 246.362 415.755 246.362C417.425 246.362 418.677 247.615 418.677 249.286C418.677 250.957 417.425 252.211 415.755 252.211Z" fill="#EA837D"/>
<path d="M435.789 252.211C434.12 252.211 432.868 250.957 432.868 249.286C432.868 247.615 434.12 246.362 435.789 246.362C437.459 246.362 438.711 247.615 438.711 249.286C438.711 250.957 437.459 252.211 435.789 252.211Z" fill="#EA837D"/>
<path d="M455.615 252.211C453.945 252.211 452.693 250.957 452.693 249.286C452.693 247.615 453.945 246.362 455.615 246.362C457.284 246.362 458.536 247.615 458.536 249.286C458.536 250.957 457.284 252.211 455.615 252.211Z" fill="#EA837D"/>
<path d="M395.93 272.265C394.26 272.265 393.008 271.012 393.008 269.341C393.008 267.669 394.26 266.416 395.93 266.416C397.599 266.416 398.852 267.669 398.852 269.341C398.852 271.012 397.391 272.265 395.93 272.265Z" fill="#EA837D"/>
<path d="M415.755 272.265C414.086 272.265 412.834 271.012 412.834 269.341C412.834 267.669 414.086 266.416 415.755 266.416C417.425 266.416 418.677 267.669 418.677 269.341C418.677 271.012 417.425 272.265 415.755 272.265Z" fill="#EA837D"/>
<path d="M435.789 272.265C434.12 272.265 432.868 271.012 432.868 269.341C432.868 267.669 434.12 266.416 435.789 266.416C437.459 266.416 438.711 267.669 438.711 269.341C438.711 271.012 437.459 272.265 435.789 272.265Z" fill="#EA837D"/>
<path d="M455.615 272.265C453.945 272.265 452.693 271.012 452.693 269.341C452.693 267.669 453.945 266.416 455.615 266.416C457.284 266.416 458.536 267.669 458.536 269.341C458.536 271.012 457.284 272.265 455.615 272.265Z" fill="#EA837D"/>
<path d="M395.93 292.32C394.26 292.32 393.008 291.067 393.008 289.395C393.008 287.724 394.26 286.471 395.93 286.471C397.599 286.471 398.852 287.724 398.852 289.395C398.852 290.858 397.391 292.32 395.93 292.32Z" fill="#EA837D"/>
<path d="M415.755 292.32C414.086 292.32 412.834 291.067 412.834 289.395C412.834 287.724 414.086 286.471 415.755 286.471C417.425 286.471 418.677 287.724 418.677 289.395C418.677 290.858 417.425 292.32 415.755 292.32Z" fill="#EA837D"/>
<path d="M435.789 292.32C434.12 292.32 432.868 291.067 432.868 289.395C432.868 287.724 434.12 286.471 435.789 286.471C437.459 286.471 438.711 287.724 438.711 289.395C438.711 290.858 437.459 292.32 435.789 292.32Z" fill="#EA837D"/>
<path d="M455.615 292.32C453.945 292.32 452.693 291.067 452.693 289.395C452.693 287.724 453.945 286.471 455.615 286.471C457.284 286.471 458.536 287.724 458.536 289.395C458.536 290.858 457.284 292.32 455.615 292.32Z" fill="#EA837D"/>
</g>
</svg>
