<svg width="398" height="68" viewBox="0 0 398 68" fill="none" xmlns="http://www.w3.org/2000/svg">
<path d="M20.811 41.9984C32.3146 41.9984 41.622 32.7963 41.622 21.4995C41.622 10.1685 32.2797 1.00065 20.811 1.00065H3.03276C1.35951 0.966309 0 2.30543 0 3.95359V10.9239C0.801764 11.6793 1.67325 12.366 2.57959 12.9498C3.48593 13.6365 4.84544 14.3232 5.96094 14.7696C6.7627 15.0099 7.91306 15.319 8.78454 15.422C12.375 15.8684 15.8261 14.7696 18.4406 12.7094C18.4754 12.6751 18.5103 12.6407 18.5451 12.6407C20.1835 11.3016 22.3448 10.6149 24.6107 10.8552C25.4124 10.9582 26.1445 11.1643 26.8765 11.4733C27.1205 11.5763 27.3297 11.6793 27.5388 11.7823C30.2927 13.2931 31.966 16.3147 31.5825 19.5767C31.4082 20.9845 30.8853 22.2549 30.0487 23.3194C30.0836 23.3881 30.1533 23.4567 30.1881 23.5254C31.1642 25.0019 31.6522 26.856 31.4431 28.7789C31.3036 29.912 30.9202 30.9764 30.3624 31.9035C29.8047 29.5686 28.6195 27.4741 26.9462 25.8259C26.6674 25.5513 26.3536 25.2766 26.0747 25.0362C25.1684 25.4826 24.2969 25.9633 23.4952 26.5127C23.1466 26.7187 22.8328 26.9591 22.5191 27.1994C20.4973 28.7102 18.7543 30.5987 17.3948 32.7619C17.1159 33.2083 16.8719 33.6547 16.6279 34.101C16.593 34.1354 16.593 34.1697 16.5582 34.2041C16.3839 34.5131 16.2444 34.7878 16.0353 35.0625C16.0004 35.0968 16.0004 35.1311 15.9656 35.1655C15.7913 35.4402 15.617 35.6805 15.4078 35.9552C15.3729 35.9896 15.3729 36.0239 15.3381 36.0582C15.1638 36.2642 14.9895 36.4703 14.8152 36.6763C14.7803 36.745 14.7106 36.7793 14.6758 36.848C14.5015 37.054 14.2923 37.2257 14.118 37.4317C14.0832 37.466 14.0483 37.5004 14.0134 37.569C13.9786 37.6034 13.9437 37.6377 13.874 37.672C13.6997 37.8437 13.4905 38.0154 13.2814 38.1871C13.2117 38.2558 13.142 38.2901 13.0722 38.3588C12.8979 38.4961 12.7236 38.6335 12.5493 38.7365C12.5145 38.7708 12.4448 38.8052 12.4099 38.8395C11.8173 39.2515 11.1898 39.5949 10.5624 39.9039C9.34229 40.4533 8.01764 40.831 6.62326 41.0027C6.23981 41.037 5.85636 41.0714 5.47291 41.0714C5.36833 41.0714 5.26375 41.0714 5.15917 41.0714C3.38135 41.0714 1.67325 40.6937 0.104578 40.0413V42.0671V62.566V64.4545C0.104578 66.034 1.35951 67.3045 2.89332 67.4418C2.96304 67.4418 3.03276 67.4761 3.13734 67.4761C3.24191 67.4761 3.27677 67.4418 3.38135 67.4418H12.8979C12.8979 67.3388 12.8979 67.2358 12.8979 67.1328C12.8979 65.519 13.386 64.0082 14.2574 62.7377C14.3272 62.669 14.3969 62.566 14.4317 62.463C14.9546 61.7076 15.2684 60.7462 15.2684 59.7504C15.2684 59.4757 15.2335 59.201 15.1986 58.9264C15.0941 58.3426 14.8849 57.7932 14.606 57.3125L14.5712 57.2782C14.5363 57.2095 14.5015 57.1408 14.4317 57.0722C14.0134 56.3511 13.7694 55.527 13.7694 54.6343C13.7694 53.5699 14.118 52.5741 14.7106 51.7844C14.4317 50.9946 14.0134 50.2735 13.4905 49.6212C14.5015 49.6212 15.4427 49.9302 16.2096 50.4796C16.9416 50.0675 17.8131 49.7928 18.7194 49.7928C21.4385 49.7928 23.6346 51.956 23.6346 54.6343C23.6346 54.9433 23.5997 55.2523 23.53 55.5614C23.4952 55.63 23.4952 55.7331 23.4603 55.8361C23.3906 56.1451 23.3557 56.4541 23.3557 56.7631C23.3557 58.3083 24.1226 59.7161 25.273 60.6088C25.3776 60.6775 25.4821 60.7462 25.5867 60.8149C25.5867 60.8149 25.6216 60.8149 25.6216 60.8492C27.5737 62.2913 28.8286 64.5575 28.8286 67.1328C28.8286 67.2358 28.8286 67.3388 28.8286 67.4418H38.4498C38.5195 67.4418 38.5892 67.4761 38.6938 67.4761C38.7984 67.4761 38.8332 67.4418 38.9378 67.4418C40.5065 67.3388 41.7266 66.034 41.7266 64.4545V62.566C41.6568 51.1663 32.3146 41.9984 20.811 41.9984Z" fill="#303778"/>
<path d="M4.06147 12.3162C3.82569 12.2001 4.29726 12.3935 4.06147 12.3162V12.3162Z" fill="#0C1462"/>
<path d="M67.5279 67C67.1013 67 66.7386 66.8507 66.4399 66.552C66.1413 66.2533 65.9919 65.8907 65.9919 65.464V23.8C65.9919 23.3307 66.1199 22.9467 66.3759 22.648C66.6746 22.3493 67.0586 22.2 67.5279 22.2H84.1039C89.3519 22.2 93.4479 23.416 96.3919 25.848C99.3786 28.28 100.872 31.736 100.872 36.216C100.872 39.3307 100.125 41.9547 98.6319 44.088C97.1386 46.1787 95.0479 47.6933 92.3599 48.632L101.64 64.952C101.768 65.208 101.832 65.4427 101.832 65.656C101.832 66.04 101.683 66.36 101.384 66.616C101.128 66.872 100.829 67 100.488 67H94.5999C93.9173 67 93.3839 66.8507 92.9999 66.552C92.6159 66.2107 92.2746 65.784 91.9759 65.272L83.7839 50.104H75.0159V65.464C75.0159 65.8907 74.8666 66.2533 74.5679 66.552C74.2693 66.8507 73.8853 67 73.4159 67H67.5279ZM83.9119 42.808C86.4719 42.808 88.3919 42.2533 89.6719 41.144C90.9519 39.992 91.5919 38.328 91.5919 36.152C91.5919 33.976 90.9519 32.312 89.6719 31.16C88.3919 29.9653 86.4719 29.368 83.9119 29.368H75.0159V42.808H83.9119Z" fill="#303778"/>
<path d="M122.374 67.64C117.595 67.64 113.798 66.2747 110.982 63.544C108.209 60.8133 106.737 56.9307 106.566 51.896L106.502 50.296C106.502 44.9627 107.889 40.76 110.662 37.688C113.478 34.616 117.361 33.08 122.31 33.08C127.387 33.08 131.291 34.616 134.022 37.688C136.795 40.76 138.182 44.856 138.182 49.976V51.32C138.182 51.7467 138.033 52.1093 137.734 52.408C137.435 52.7067 137.051 52.856 136.582 52.856H115.334V53.368C115.419 55.7573 116.059 57.7413 117.254 59.32C118.491 60.856 120.177 61.624 122.31 61.624C124.742 61.624 126.726 60.6427 128.262 58.68C128.646 58.2107 128.945 57.9333 129.158 57.848C129.371 57.72 129.734 57.656 130.246 57.656H135.878C136.262 57.656 136.582 57.7627 136.838 57.976C137.137 58.1893 137.286 58.488 137.286 58.872C137.286 59.896 136.667 61.112 135.43 62.52C134.235 63.8853 132.507 65.08 130.246 66.104C127.985 67.128 125.361 67.64 122.374 67.64ZM129.35 47.416V47.288C129.35 44.7707 128.71 42.7653 127.43 41.272C126.193 39.736 124.486 38.968 122.31 38.968C120.134 38.968 118.427 39.736 117.19 41.272C115.953 42.7653 115.334 44.7707 115.334 47.288V47.416H129.35Z" fill="#303778"/>
<path d="M157.326 67.64C153.017 67.64 149.71 66.2747 147.406 63.544C145.102 60.7707 143.843 57.08 143.63 52.472L143.566 50.36L143.63 48.248C143.801 43.7253 145.038 40.0773 147.342 37.304C149.689 34.488 153.017 33.08 157.326 33.08C161.422 33.08 164.686 34.488 167.118 37.304V23.096C167.118 22.6267 167.267 22.264 167.566 22.008C167.865 21.7093 168.227 21.56 168.654 21.56H174.222C174.691 21.56 175.054 21.7093 175.31 22.008C175.609 22.264 175.758 22.6267 175.758 23.096V65.464C175.758 65.8907 175.609 66.2533 175.31 66.552C175.054 66.8507 174.691 67 174.222 67H169.038C168.611 67 168.249 66.8507 167.95 66.552C167.651 66.2533 167.502 65.8907 167.502 65.464V63.096C165.155 66.1253 161.763 67.64 157.326 67.64ZM159.758 60.728C162.19 60.728 163.982 59.96 165.134 58.424C166.329 56.8453 166.99 54.904 167.118 52.6C167.161 52.088 167.182 51.2773 167.182 50.168C167.182 49.016 167.161 48.184 167.118 47.672C167.033 45.5387 166.371 43.7253 165.134 42.232C163.897 40.7387 162.105 39.992 159.758 39.992C155.193 39.992 152.761 42.808 152.462 48.44L152.398 50.36L152.462 52.28C152.761 57.912 155.193 60.728 159.758 60.728Z" fill="#303778"/>
<path d="M198.686 67.64C193.908 67.64 190.11 66.2747 187.294 63.544C184.521 60.8133 183.049 56.9307 182.878 51.896L182.814 50.296C182.814 44.9627 184.201 40.76 186.974 37.688C189.79 34.616 193.673 33.08 198.622 33.08C203.7 33.08 207.604 34.616 210.334 37.688C213.108 40.76 214.494 44.856 214.494 49.976V51.32C214.494 51.7467 214.345 52.1093 214.046 52.408C213.748 52.7067 213.364 52.856 212.894 52.856H191.646V53.368C191.732 55.7573 192.372 57.7413 193.566 59.32C194.804 60.856 196.489 61.624 198.622 61.624C201.054 61.624 203.038 60.6427 204.574 58.68C204.958 58.2107 205.257 57.9333 205.47 57.848C205.684 57.72 206.046 57.656 206.558 57.656H212.19C212.574 57.656 212.894 57.7627 213.15 57.976C213.449 58.1893 213.598 58.488 213.598 58.872C213.598 59.896 212.98 61.112 211.742 62.52C210.548 63.8853 208.82 65.08 206.558 66.104C204.297 67.128 201.673 67.64 198.686 67.64ZM205.662 47.416V47.288C205.662 44.7707 205.022 42.7653 203.742 41.272C202.505 39.736 200.798 38.968 198.622 38.968C196.446 38.968 194.74 39.736 193.502 41.272C192.265 42.7653 191.646 44.7707 191.646 47.288V47.416H205.662Z" fill="#303778"/>
<path d="M235.686 67.64C230.908 67.64 227.11 66.2747 224.294 63.544C221.521 60.8133 220.049 56.9307 219.878 51.896L219.814 50.296C219.814 44.9627 221.201 40.76 223.974 37.688C226.79 34.616 230.673 33.08 235.622 33.08C240.7 33.08 244.604 34.616 247.334 37.688C250.108 40.76 251.494 44.856 251.494 49.976V51.32C251.494 51.7467 251.345 52.1093 251.046 52.408C250.748 52.7067 250.364 52.856 249.894 52.856H228.646V53.368C228.732 55.7573 229.372 57.7413 230.566 59.32C231.804 60.856 233.489 61.624 235.622 61.624C238.054 61.624 240.038 60.6427 241.574 58.68C241.958 58.2107 242.257 57.9333 242.47 57.848C242.684 57.72 243.046 57.656 243.558 57.656H249.19C249.574 57.656 249.894 57.7627 250.15 57.976C250.449 58.1893 250.598 58.488 250.598 58.872C250.598 59.896 249.98 61.112 248.742 62.52C247.548 63.8853 245.82 65.08 243.558 66.104C241.297 67.128 238.673 67.64 235.686 67.64ZM242.662 47.416V47.288C242.662 44.7707 242.022 42.7653 240.742 41.272C239.505 39.736 237.798 38.968 235.622 38.968C233.446 38.968 231.74 39.736 230.502 41.272C229.265 42.7653 228.646 44.7707 228.646 47.288V47.416H242.662Z" fill="#303778"/>
<path d="M259.822 67C259.396 67 259.033 66.8507 258.734 66.552C258.436 66.2533 258.286 65.8907 258.286 65.464V35.256C258.286 34.7867 258.436 34.424 258.734 34.168C259.033 33.8693 259.396 33.72 259.822 33.72H264.878C265.348 33.72 265.71 33.8693 265.966 34.168C266.265 34.424 266.414 34.7867 266.414 35.256V37.432C268.718 34.5307 271.812 33.08 275.694 33.08C280.43 33.08 283.737 34.9787 285.614 38.776C286.638 37.0693 288.089 35.704 289.966 34.68C291.844 33.6133 293.87 33.08 296.046 33.08C299.545 33.08 302.404 34.2747 304.622 36.664C306.841 39.0533 307.95 42.5307 307.95 47.096V65.464C307.95 65.8907 307.801 66.2533 307.502 66.552C307.246 66.8507 306.884 67 306.414 67H301.102C300.676 67 300.313 66.8507 300.014 66.552C299.716 66.2533 299.566 65.8907 299.566 65.464V47.608C299.566 44.92 298.99 42.9787 297.838 41.784C296.729 40.5893 295.257 39.992 293.422 39.992C291.758 39.992 290.329 40.6107 289.134 41.848C287.982 43.0427 287.406 44.9627 287.406 47.608V65.464C287.406 65.8907 287.257 66.2533 286.958 66.552C286.702 66.8507 286.34 67 285.87 67H280.494C280.068 67 279.705 66.8507 279.406 66.552C279.108 66.2533 278.958 65.8907 278.958 65.464V47.608C278.958 44.9627 278.382 43.0427 277.23 41.848C276.078 40.6107 274.606 39.992 272.814 39.992C271.15 39.992 269.721 40.6107 268.526 41.848C267.374 43.0427 266.798 44.9627 266.798 47.608V65.464C266.798 65.8907 266.649 66.2533 266.35 66.552C266.094 66.8507 265.732 67 265.262 67H259.822Z" fill="#303778"/>
<path d="M332.483 67.64C328.643 67.64 325.358 67.064 322.627 65.912C319.896 64.76 317.827 63.2453 316.419 61.368C315.011 59.4907 314.264 57.4427 314.179 55.224C314.179 54.8827 314.307 54.584 314.563 54.328C314.819 54.0293 315.139 53.88 315.523 53.88H321.347C321.816 53.88 322.2 53.9867 322.499 54.2C322.798 54.4133 323.075 54.712 323.331 55.096C323.758 56.5467 324.718 57.7627 326.211 58.744C327.747 59.7253 329.838 60.216 332.483 60.216C335.47 60.216 337.71 59.7253 339.203 58.744C340.739 57.72 341.507 56.3333 341.507 54.584C341.507 53.432 341.123 52.472 340.355 51.704C339.587 50.936 338.414 50.2747 336.835 49.72C335.299 49.1227 332.995 48.4187 329.923 47.608C324.888 46.4133 321.198 44.8347 318.851 42.872C316.504 40.9093 315.331 38.0933 315.331 34.424C315.331 31.9493 316.014 29.752 317.379 27.832C318.744 25.8693 320.686 24.3333 323.203 23.224C325.763 22.1147 328.728 21.56 332.099 21.56C335.64 21.56 338.691 22.1787 341.251 23.416C343.854 24.6533 345.816 26.2107 347.139 28.088C348.504 29.9227 349.23 31.7573 349.315 33.592C349.315 33.9333 349.187 34.2533 348.931 34.552C348.675 34.808 348.355 34.936 347.971 34.936H341.891C340.952 34.936 340.312 34.552 339.971 33.784C339.758 32.4187 338.926 31.288 337.475 30.392C336.024 29.4533 334.232 28.984 332.099 28.984C329.752 28.984 327.896 29.432 326.531 30.328C325.208 31.224 324.547 32.5253 324.547 34.232C324.547 35.384 324.888 36.344 325.571 37.112C326.254 37.88 327.32 38.5627 328.771 39.16C330.222 39.7147 332.334 40.3547 335.107 41.08C338.904 41.9333 341.912 42.8933 344.131 43.96C346.392 45.0267 348.056 46.3707 349.123 47.992C350.19 49.6133 350.723 51.6827 350.723 54.2C350.723 56.9733 349.955 59.384 348.419 61.432C346.926 63.4373 344.792 64.9733 342.019 66.04C339.288 67.1067 336.11 67.64 332.483 67.64Z" fill="#303778"/>
<path d="M375.464 67.64C369.576 67.64 364.989 66.1253 361.704 63.096C358.461 60.0667 356.733 55.8427 356.52 50.424C356.477 49.1867 356.456 47.2027 356.456 44.472C356.456 41.7413 356.477 39.7573 356.52 38.52C356.691 33.2293 358.44 29.0907 361.768 26.104C365.096 23.0747 369.661 21.56 375.464 21.56C379.389 21.56 382.76 22.2427 385.576 23.608C388.435 24.9307 390.589 26.5947 392.04 28.6C393.491 30.5627 394.259 32.504 394.344 34.424C394.344 34.808 394.216 35.128 393.96 35.384C393.704 35.64 393.363 35.768 392.936 35.768H386.216C385.789 35.768 385.469 35.6827 385.256 35.512C385.043 35.3413 384.851 35.064 384.68 34.68C384.083 33.1013 383.037 31.7573 381.544 30.648C380.051 29.5387 378.024 28.984 375.464 28.984C372.477 28.984 370.131 29.7947 368.424 31.416C366.76 32.9947 365.885 35.4693 365.8 38.84C365.757 40.0773 365.736 41.9547 365.736 44.472C365.736 46.9467 365.757 48.824 365.8 50.104C365.885 53.56 366.781 56.12 368.488 57.784C370.195 59.4053 372.541 60.216 375.528 60.216C378.557 60.216 380.989 59.4053 382.824 57.784C384.659 56.1627 385.576 53.7307 385.576 50.488V48.504H377.768C377.341 48.504 376.979 48.3547 376.68 48.056C376.381 47.7573 376.232 47.3947 376.232 46.968V43.448C376.232 43.0213 376.381 42.6587 376.68 42.36C376.979 42.0613 377.341 41.912 377.768 41.912H393.128C393.597 41.912 393.981 42.0613 394.28 42.36C394.579 42.6587 394.728 43.0213 394.728 43.448V50.232C394.728 53.7733 393.939 56.8667 392.36 59.512C390.781 62.1147 388.541 64.12 385.64 65.528C382.739 66.936 379.347 67.64 375.464 67.64Z" fill="#303778"/>
</svg>
