<svg width="398" height="68" viewBox="0 0 398 68" fill="none" xmlns="http://www.w3.org/2000/svg">
<path d="M20.811 41.9984C32.3146 41.9984 41.622 32.7963 41.622 21.4995C41.622 10.1685 32.2797 1.00065 20.811 1.00065H3.03276C1.35951 0.966309 0 2.30543 0 3.95359V10.9239C0.801764 11.6793 1.67325 12.366 2.57959 12.9498C3.48593 13.6365 4.84544 14.3232 5.96094 14.7696C6.7627 15.0099 7.91306 15.319 8.78454 15.422C12.375 15.8684 15.8261 14.7696 18.4406 12.7094C18.4754 12.6751 18.5103 12.6407 18.5451 12.6407C20.1835 11.3016 22.3448 10.6149 24.6107 10.8552C25.4124 10.9582 26.1445 11.1643 26.8765 11.4733C27.1205 11.5763 27.3297 11.6793 27.5388 11.7823C30.2927 13.2931 31.966 16.3147 31.5825 19.5767C31.4082 20.9845 30.8853 22.2549 30.0487 23.3194C30.0836 23.3881 30.1533 23.4567 30.1881 23.5254C31.1642 25.0019 31.6522 26.856 31.4431 28.7789C31.3036 29.912 30.9202 30.9764 30.3624 31.9035C29.8047 29.5686 28.6195 27.4741 26.9462 25.8259C26.6674 25.5513 26.3536 25.2766 26.0747 25.0362C25.1684 25.4826 24.2969 25.9633 23.4952 26.5127C23.1466 26.7187 22.8328 26.9591 22.5191 27.1994C20.4973 28.7102 18.7543 30.5987 17.3948 32.7619C17.1159 33.2083 16.8719 33.6547 16.6279 34.101C16.593 34.1354 16.593 34.1697 16.5582 34.2041C16.3839 34.5131 16.2444 34.7878 16.0353 35.0625C16.0004 35.0968 16.0004 35.1311 15.9656 35.1655C15.7913 35.4402 15.617 35.6805 15.4078 35.9552C15.3729 35.9896 15.3729 36.0239 15.3381 36.0582C15.1638 36.2642 14.9895 36.4703 14.8152 36.6763C14.7803 36.745 14.7106 36.7793 14.6758 36.848C14.5015 37.054 14.2923 37.2257 14.118 37.4317C14.0832 37.466 14.0483 37.5004 14.0134 37.569C13.9786 37.6034 13.9437 37.6377 13.874 37.672C13.6997 37.8437 13.4905 38.0154 13.2814 38.1871C13.2117 38.2558 13.142 38.2901 13.0722 38.3588C12.8979 38.4961 12.7236 38.6335 12.5493 38.7365C12.5145 38.7708 12.4448 38.8052 12.4099 38.8395C11.8173 39.2515 11.1898 39.5949 10.5624 39.9039C9.34229 40.4533 8.01764 40.831 6.62326 41.0027C6.23981 41.037 5.85636 41.0714 5.47291 41.0714C5.36833 41.0714 5.26375 41.0714 5.15917 41.0714C3.38135 41.0714 1.67325 40.6937 0.104578 40.0413V42.0671V62.566V64.4545C0.104578 66.034 1.35951 67.3045 2.89332 67.4418C2.96304 67.4418 3.03276 67.4761 3.13734 67.4761C3.24191 67.4761 3.27677 67.4418 3.38135 67.4418H12.8979C12.8979 67.3388 12.8979 67.2358 12.8979 67.1328C12.8979 65.519 13.386 64.0082 14.2574 62.7377C14.3272 62.669 14.3969 62.566 14.4317 62.463C14.9546 61.7076 15.2684 60.7462 15.2684 59.7504C15.2684 59.4757 15.2335 59.201 15.1986 58.9264C15.0941 58.3426 14.8849 57.7932 14.606 57.3125L14.5712 57.2782C14.5363 57.2095 14.5015 57.1408 14.4317 57.0722C14.0134 56.3511 13.7694 55.527 13.7694 54.6343C13.7694 53.5699 14.118 52.5741 14.7106 51.7844C14.4317 50.9946 14.0134 50.2735 13.4905 49.6212C14.5015 49.6212 15.4427 49.9302 16.2096 50.4796C16.9416 50.0675 17.8131 49.7928 18.7194 49.7928C21.4385 49.7928 23.6346 51.956 23.6346 54.6343C23.6346 54.9433 23.5997 55.2523 23.53 55.5614C23.4952 55.63 23.4952 55.7331 23.4603 55.8361C23.3906 56.1451 23.3557 56.4541 23.3557 56.7631C23.3557 58.3083 24.1226 59.7161 25.273 60.6088C25.3776 60.6775 25.4821 60.7462 25.5867 60.8149C25.5867 60.8149 25.6216 60.8149 25.6216 60.8492C27.5737 62.2913 28.8286 64.5575 28.8286 67.1328C28.8286 67.2358 28.8286 67.3388 28.8286 67.4418H38.4498C38.5195 67.4418 38.5892 67.4761 38.6938 67.4761C38.7984 67.4761 38.8332 67.4418 38.9378 67.4418C40.5065 67.3388 41.7266 66.034 41.7266 64.4545V62.566C41.6568 51.1663 32.3146 41.9984 20.811 41.9984Z" fill="white"/>
<path d="M4.06147 12.3162C3.82569 12.2001 4.29726 12.3935 4.06147 12.3162V12.3162Z" fill="#0C1462"/>
<path d="M68.5279 67C68.1013 67 67.7386 66.8507 67.4399 66.552C67.1413 66.2533 66.9919 65.8907 66.9919 65.464V23.8C66.9919 23.3307 67.1199 22.9467 67.3759 22.648C67.6746 22.3493 68.0586 22.2 68.5279 22.2H85.1039C90.3519 22.2 94.4479 23.416 97.3919 25.848C100.379 28.28 101.872 31.736 101.872 36.216C101.872 39.3307 101.125 41.9547 99.6319 44.088C98.1386 46.1787 96.0479 47.6933 93.3599 48.632L102.64 64.952C102.768 65.208 102.832 65.4427 102.832 65.656C102.832 66.04 102.683 66.36 102.384 66.616C102.128 66.872 101.829 67 101.488 67H95.5999C94.9173 67 94.3839 66.8507 93.9999 66.552C93.6159 66.2107 93.2746 65.784 92.9759 65.272L84.7839 50.104H76.0159V65.464C76.0159 65.8907 75.8666 66.2533 75.5679 66.552C75.2693 66.8507 74.8853 67 74.4159 67H68.5279ZM84.9119 42.808C87.4719 42.808 89.3919 42.2533 90.6719 41.144C91.9519 39.992 92.5919 38.328 92.5919 36.152C92.5919 33.976 91.9519 32.312 90.6719 31.16C89.3919 29.9653 87.4719 29.368 84.9119 29.368H76.0159V42.808H84.9119Z" fill="white"/>
<path d="M123.374 67.64C118.595 67.64 114.798 66.2747 111.982 63.544C109.209 60.8133 107.737 56.9307 107.566 51.896L107.502 50.296C107.502 44.9627 108.889 40.76 111.662 37.688C114.478 34.616 118.361 33.08 123.31 33.08C128.387 33.08 132.291 34.616 135.022 37.688C137.795 40.76 139.182 44.856 139.182 49.976V51.32C139.182 51.7467 139.033 52.1093 138.734 52.408C138.435 52.7067 138.051 52.856 137.582 52.856H116.334V53.368C116.419 55.7573 117.059 57.7413 118.254 59.32C119.491 60.856 121.177 61.624 123.31 61.624C125.742 61.624 127.726 60.6427 129.262 58.68C129.646 58.2107 129.945 57.9333 130.158 57.848C130.371 57.72 130.734 57.656 131.246 57.656H136.878C137.262 57.656 137.582 57.7627 137.838 57.976C138.137 58.1893 138.286 58.488 138.286 58.872C138.286 59.896 137.667 61.112 136.43 62.52C135.235 63.8853 133.507 65.08 131.246 66.104C128.985 67.128 126.361 67.64 123.374 67.64ZM130.35 47.416V47.288C130.35 44.7707 129.71 42.7653 128.43 41.272C127.193 39.736 125.486 38.968 123.31 38.968C121.134 38.968 119.427 39.736 118.19 41.272C116.953 42.7653 116.334 44.7707 116.334 47.288V47.416H130.35Z" fill="white"/>
<path d="M158.326 67.64C154.017 67.64 150.71 66.2747 148.406 63.544C146.102 60.7707 144.843 57.08 144.63 52.472L144.566 50.36L144.63 48.248C144.801 43.7253 146.038 40.0773 148.342 37.304C150.689 34.488 154.017 33.08 158.326 33.08C162.422 33.08 165.686 34.488 168.118 37.304V23.096C168.118 22.6267 168.267 22.264 168.566 22.008C168.865 21.7093 169.227 21.56 169.654 21.56H175.222C175.691 21.56 176.054 21.7093 176.31 22.008C176.609 22.264 176.758 22.6267 176.758 23.096V65.464C176.758 65.8907 176.609 66.2533 176.31 66.552C176.054 66.8507 175.691 67 175.222 67H170.038C169.611 67 169.249 66.8507 168.95 66.552C168.651 66.2533 168.502 65.8907 168.502 65.464V63.096C166.155 66.1253 162.763 67.64 158.326 67.64ZM160.758 60.728C163.19 60.728 164.982 59.96 166.134 58.424C167.329 56.8453 167.99 54.904 168.118 52.6C168.161 52.088 168.182 51.2773 168.182 50.168C168.182 49.016 168.161 48.184 168.118 47.672C168.033 45.5387 167.371 43.7253 166.134 42.232C164.897 40.7387 163.105 39.992 160.758 39.992C156.193 39.992 153.761 42.808 153.462 48.44L153.398 50.36L153.462 52.28C153.761 57.912 156.193 60.728 160.758 60.728Z" fill="white"/>
<path d="M199.686 67.64C194.908 67.64 191.11 66.2747 188.294 63.544C185.521 60.8133 184.049 56.9307 183.878 51.896L183.814 50.296C183.814 44.9627 185.201 40.76 187.974 37.688C190.79 34.616 194.673 33.08 199.622 33.08C204.7 33.08 208.604 34.616 211.334 37.688C214.108 40.76 215.494 44.856 215.494 49.976V51.32C215.494 51.7467 215.345 52.1093 215.046 52.408C214.748 52.7067 214.364 52.856 213.894 52.856H192.646V53.368C192.732 55.7573 193.372 57.7413 194.566 59.32C195.804 60.856 197.489 61.624 199.622 61.624C202.054 61.624 204.038 60.6427 205.574 58.68C205.958 58.2107 206.257 57.9333 206.47 57.848C206.684 57.72 207.046 57.656 207.558 57.656H213.19C213.574 57.656 213.894 57.7627 214.15 57.976C214.449 58.1893 214.598 58.488 214.598 58.872C214.598 59.896 213.98 61.112 212.742 62.52C211.548 63.8853 209.82 65.08 207.558 66.104C205.297 67.128 202.673 67.64 199.686 67.64ZM206.662 47.416V47.288C206.662 44.7707 206.022 42.7653 204.742 41.272C203.505 39.736 201.798 38.968 199.622 38.968C197.446 38.968 195.74 39.736 194.502 41.272C193.265 42.7653 192.646 44.7707 192.646 47.288V47.416H206.662Z" fill="white"/>
<path d="M236.686 67.64C231.908 67.64 228.11 66.2747 225.294 63.544C222.521 60.8133 221.049 56.9307 220.878 51.896L220.814 50.296C220.814 44.9627 222.201 40.76 224.974 37.688C227.79 34.616 231.673 33.08 236.622 33.08C241.7 33.08 245.604 34.616 248.334 37.688C251.108 40.76 252.494 44.856 252.494 49.976V51.32C252.494 51.7467 252.345 52.1093 252.046 52.408C251.748 52.7067 251.364 52.856 250.894 52.856H229.646V53.368C229.732 55.7573 230.372 57.7413 231.566 59.32C232.804 60.856 234.489 61.624 236.622 61.624C239.054 61.624 241.038 60.6427 242.574 58.68C242.958 58.2107 243.257 57.9333 243.47 57.848C243.684 57.72 244.046 57.656 244.558 57.656H250.19C250.574 57.656 250.894 57.7627 251.15 57.976C251.449 58.1893 251.598 58.488 251.598 58.872C251.598 59.896 250.98 61.112 249.742 62.52C248.548 63.8853 246.82 65.08 244.558 66.104C242.297 67.128 239.673 67.64 236.686 67.64ZM243.662 47.416V47.288C243.662 44.7707 243.022 42.7653 241.742 41.272C240.505 39.736 238.798 38.968 236.622 38.968C234.446 38.968 232.74 39.736 231.502 41.272C230.265 42.7653 229.646 44.7707 229.646 47.288V47.416H243.662Z" fill="white"/>
<path d="M260.822 67C260.396 67 260.033 66.8507 259.734 66.552C259.436 66.2533 259.286 65.8907 259.286 65.464V35.256C259.286 34.7867 259.436 34.424 259.734 34.168C260.033 33.8693 260.396 33.72 260.822 33.72H265.878C266.348 33.72 266.71 33.8693 266.966 34.168C267.265 34.424 267.414 34.7867 267.414 35.256V37.432C269.718 34.5307 272.812 33.08 276.694 33.08C281.43 33.08 284.737 34.9787 286.614 38.776C287.638 37.0693 289.089 35.704 290.966 34.68C292.844 33.6133 294.87 33.08 297.046 33.08C300.545 33.08 303.404 34.2747 305.622 36.664C307.841 39.0533 308.95 42.5307 308.95 47.096V65.464C308.95 65.8907 308.801 66.2533 308.502 66.552C308.246 66.8507 307.884 67 307.414 67H302.102C301.676 67 301.313 66.8507 301.014 66.552C300.716 66.2533 300.566 65.8907 300.566 65.464V47.608C300.566 44.92 299.99 42.9787 298.838 41.784C297.729 40.5893 296.257 39.992 294.422 39.992C292.758 39.992 291.329 40.6107 290.134 41.848C288.982 43.0427 288.406 44.9627 288.406 47.608V65.464C288.406 65.8907 288.257 66.2533 287.958 66.552C287.702 66.8507 287.34 67 286.87 67H281.494C281.068 67 280.705 66.8507 280.406 66.552C280.108 66.2533 279.958 65.8907 279.958 65.464V47.608C279.958 44.9627 279.382 43.0427 278.23 41.848C277.078 40.6107 275.606 39.992 273.814 39.992C272.15 39.992 270.721 40.6107 269.526 41.848C268.374 43.0427 267.798 44.9627 267.798 47.608V65.464C267.798 65.8907 267.649 66.2533 267.35 66.552C267.094 66.8507 266.732 67 266.262 67H260.822Z" fill="white"/>
<path d="M333.483 67.64C329.643 67.64 326.358 67.064 323.627 65.912C320.896 64.76 318.827 63.2453 317.419 61.368C316.011 59.4907 315.264 57.4427 315.179 55.224C315.179 54.8827 315.307 54.584 315.563 54.328C315.819 54.0293 316.139 53.88 316.523 53.88H322.347C322.816 53.88 323.2 53.9867 323.499 54.2C323.798 54.4133 324.075 54.712 324.331 55.096C324.758 56.5467 325.718 57.7627 327.211 58.744C328.747 59.7253 330.838 60.216 333.483 60.216C336.47 60.216 338.71 59.7253 340.203 58.744C341.739 57.72 342.507 56.3333 342.507 54.584C342.507 53.432 342.123 52.472 341.355 51.704C340.587 50.936 339.414 50.2747 337.835 49.72C336.299 49.1227 333.995 48.4187 330.923 47.608C325.888 46.4133 322.198 44.8347 319.851 42.872C317.504 40.9093 316.331 38.0933 316.331 34.424C316.331 31.9493 317.014 29.752 318.379 27.832C319.744 25.8693 321.686 24.3333 324.203 23.224C326.763 22.1147 329.728 21.56 333.099 21.56C336.64 21.56 339.691 22.1787 342.251 23.416C344.854 24.6533 346.816 26.2107 348.139 28.088C349.504 29.9227 350.23 31.7573 350.315 33.592C350.315 33.9333 350.187 34.2533 349.931 34.552C349.675 34.808 349.355 34.936 348.971 34.936H342.891C341.952 34.936 341.312 34.552 340.971 33.784C340.758 32.4187 339.926 31.288 338.475 30.392C337.024 29.4533 335.232 28.984 333.099 28.984C330.752 28.984 328.896 29.432 327.531 30.328C326.208 31.224 325.547 32.5253 325.547 34.232C325.547 35.384 325.888 36.344 326.571 37.112C327.254 37.88 328.32 38.5627 329.771 39.16C331.222 39.7147 333.334 40.3547 336.107 41.08C339.904 41.9333 342.912 42.8933 345.131 43.96C347.392 45.0267 349.056 46.3707 350.123 47.992C351.19 49.6133 351.723 51.6827 351.723 54.2C351.723 56.9733 350.955 59.384 349.419 61.432C347.926 63.4373 345.792 64.9733 343.019 66.04C340.288 67.1067 337.11 67.64 333.483 67.64Z" fill="white"/>
<path d="M376.464 67.64C370.576 67.64 365.989 66.1253 362.704 63.096C359.461 60.0667 357.733 55.8427 357.52 50.424C357.477 49.1867 357.456 47.2027 357.456 44.472C357.456 41.7413 357.477 39.7573 357.52 38.52C357.691 33.2293 359.44 29.0907 362.768 26.104C366.096 23.0747 370.661 21.56 376.464 21.56C380.389 21.56 383.76 22.2427 386.576 23.608C389.435 24.9307 391.589 26.5947 393.04 28.6C394.491 30.5627 395.259 32.504 395.344 34.424C395.344 34.808 395.216 35.128 394.96 35.384C394.704 35.64 394.363 35.768 393.936 35.768H387.216C386.789 35.768 386.469 35.6827 386.256 35.512C386.043 35.3413 385.851 35.064 385.68 34.68C385.083 33.1013 384.037 31.7573 382.544 30.648C381.051 29.5387 379.024 28.984 376.464 28.984C373.477 28.984 371.131 29.7947 369.424 31.416C367.76 32.9947 366.885 35.4693 366.8 38.84C366.757 40.0773 366.736 41.9547 366.736 44.472C366.736 46.9467 366.757 48.824 366.8 50.104C366.885 53.56 367.781 56.12 369.488 57.784C371.195 59.4053 373.541 60.216 376.528 60.216C379.557 60.216 381.989 59.4053 383.824 57.784C385.659 56.1627 386.576 53.7307 386.576 50.488V48.504H378.768C378.341 48.504 377.979 48.3547 377.68 48.056C377.381 47.7573 377.232 47.3947 377.232 46.968V43.448C377.232 43.0213 377.381 42.6587 377.68 42.36C377.979 42.0613 378.341 41.912 378.768 41.912H394.128C394.597 41.912 394.981 42.0613 395.28 42.36C395.579 42.6587 395.728 43.0213 395.728 43.448V50.232C395.728 53.7733 394.939 56.8667 393.36 59.512C391.781 62.1147 389.541 64.12 386.64 65.528C383.739 66.936 380.347 67.64 376.464 67.64Z" fill="white"/>
</svg>
