<svg width="43" height="48" viewBox="0 0 43 48" fill="none" xmlns="http://www.w3.org/2000/svg">
<path d="M30.4658 43.3411C31.4799 44.4793 32.1777 45.1764 33.5504 45.1764C34.0573 45.1743 34.5582 45.0661 35.0207 44.8588C35.4832 44.6515 35.8971 44.3497 36.2357 43.9728C36.4832 43.7109 36.671 43.3987 36.7866 43.0576C36.9022 42.7165 36.9427 42.3545 36.9053 41.9964C36.5944 39.5081 34.3772 27.4093 32.9762 19.8511C31.8186 21.9605 30.1149 23.7206 28.0432 24.9471C25.9715 26.1737 23.6079 26.8217 21.1996 26.8234C21.1685 26.8252 21.1372 26.8252 21.106 26.8234C20.659 26.7934 20.0654 26.8658 19.7704 27.374C19.4913 27.8505 19.5637 28.544 19.9471 29.1493L30.4658 43.3411Z" fill="#BCBFE3"/>
<path d="M2.82812 26.5414V38.1178C2.82812 38.4923 2.97703 38.8514 3.24209 39.1161C3.50714 39.3809 3.86662 39.5296 4.24146 39.5296H24.1288L17.6575 30.7926L17.6151 30.7308C16.6081 29.2078 16.4986 27.3778 17.3289 25.9502C18.0974 24.6302 19.5567 23.9014 21.2439 24.0002C22.6412 23.9988 24.0243 23.7196 25.3124 23.1787C26.6006 22.6379 27.7681 21.8464 28.7469 20.8502C29.7365 19.8543 30.5166 18.6706 31.0412 17.3689C31.5658 16.0672 31.8243 14.6738 31.8015 13.2708C31.7255 7.51078 26.8919 2.82373 21.0248 2.82373H4.24146C3.86662 2.82373 3.50714 2.97247 3.24209 3.23723C2.97703 3.50198 2.82812 3.86107 2.82812 4.2355V15.812H3.01716C5.92686 15.812 8.37723 18.1308 8.47793 20.9825C8.50662 21.7034 8.38829 22.4226 8.13015 23.0963C7.872 23.7701 7.47942 24.3844 6.97626 24.902C6.4768 25.4226 5.87659 25.8364 5.2121 26.1182C4.5476 26.4001 3.8327 26.544 3.11079 26.5414H2.82812Z" fill="#F6F7FA"/>
</svg>
