<svg id="Layer_1" data-name="Layer 1" xmlns="http://www.w3.org/2000/svg" viewBox="0 0 145.4 123.49"><defs><style>.cls-1{fill:#fff;fill-rule:evenodd;}</style></defs><g id="Group-48"><path id="Fill-46" class="cls-1" d="M44.2,111a3.15,3.15,0,0,0-1-4.2,53.82,53.82,0,0,1,0-90,3.28,3.28,0,0,0,1-4.3L38,1.68A3.18,3.18,0,0,0,33.5.58a72.65,72.65,0,0,0,0,122.4,3.18,3.18,0,0,0,4.5-1.1Z"/></g><path id="Fill-49" class="cls-1" d="M107.4,1.68l-6.3,10.8a3.15,3.15,0,0,0,1,4.2,53.82,53.82,0,0,1,0,90,3.18,3.18,0,0,0-1,4.2l6.3,10.8a3.18,3.18,0,0,0,4.5,1.1,72.65,72.65,0,0,0,0-122.4,3.39,3.39,0,0,0-4.5,1.3"/></svg>