<svg width="398" height="68" viewBox="0 0 398 68" fill="none" xmlns="http://www.w3.org/2000/svg">
<path d="M20.811 41.9984C32.3146 41.9984 41.622 32.7963 41.622 21.4995C41.622 10.1685 32.2797 1.00065 20.811 1.00065H3.03276C1.35951 0.966309 0 2.30543 0 3.95359V10.9239C0.801764 11.6793 1.67325 12.366 2.57959 12.9498C3.48593 13.6365 4.84544 14.3232 5.96094 14.7696C6.7627 15.0099 7.91306 15.319 8.78454 15.422C12.375 15.8684 15.8261 14.7696 18.4406 12.7094C18.4754 12.6751 18.5103 12.6407 18.5451 12.6407C20.1835 11.3016 22.3448 10.6149 24.6107 10.8552C25.4124 10.9582 26.1445 11.1643 26.8765 11.4733C27.1205 11.5763 27.3297 11.6793 27.5388 11.7823C30.2927 13.2931 31.966 16.3147 31.5825 19.5767C31.4082 20.9845 30.8853 22.2549 30.0487 23.3194C30.0836 23.3881 30.1533 23.4567 30.1881 23.5254C31.1642 25.0019 31.6522 26.856 31.4431 28.7789C31.3036 29.912 30.9202 30.9764 30.3624 31.9035C29.8047 29.5686 28.6195 27.4741 26.9462 25.8259C26.6674 25.5513 26.3536 25.2766 26.0747 25.0362C25.1684 25.4826 24.2969 25.9633 23.4952 26.5127C23.1466 26.7187 22.8328 26.9591 22.5191 27.1994C20.4973 28.7102 18.7543 30.5987 17.3948 32.7619C17.1159 33.2083 16.8719 33.6547 16.6279 34.101C16.593 34.1354 16.593 34.1697 16.5582 34.2041C16.3839 34.5131 16.2444 34.7878 16.0353 35.0625C16.0004 35.0968 16.0004 35.1311 15.9656 35.1655C15.7913 35.4402 15.617 35.6805 15.4078 35.9552C15.3729 35.9896 15.3729 36.0239 15.3381 36.0582C15.1638 36.2642 14.9895 36.4703 14.8152 36.6763C14.7803 36.745 14.7106 36.7793 14.6758 36.848C14.5015 37.054 14.2923 37.2257 14.118 37.4317C14.0832 37.466 14.0483 37.5004 14.0134 37.569C13.9786 37.6034 13.9437 37.6377 13.874 37.672C13.6997 37.8437 13.4905 38.0154 13.2814 38.1871C13.2117 38.2558 13.142 38.2901 13.0722 38.3588C12.8979 38.4961 12.7236 38.6335 12.5493 38.7365C12.5145 38.7708 12.4448 38.8052 12.4099 38.8395C11.8173 39.2515 11.1898 39.5949 10.5624 39.9039C9.34229 40.4533 8.01764 40.831 6.62326 41.0027C6.23981 41.037 5.85636 41.0714 5.47291 41.0714C5.36833 41.0714 5.26375 41.0714 5.15917 41.0714C3.38135 41.0714 1.67325 40.6937 0.104578 40.0413V42.0671V62.566V64.4545C0.104578 66.034 1.35951 67.3045 2.89332 67.4418C2.96304 67.4418 3.03276 67.4761 3.13734 67.4761C3.24191 67.4761 3.27677 67.4418 3.38135 67.4418H12.8979C12.8979 67.3388 12.8979 67.2358 12.8979 67.1328C12.8979 65.519 13.386 64.0082 14.2574 62.7377C14.3272 62.669 14.3969 62.566 14.4317 62.463C14.9546 61.7076 15.2684 60.7462 15.2684 59.7504C15.2684 59.4757 15.2335 59.201 15.1986 58.9264C15.0941 58.3426 14.8849 57.7932 14.606 57.3125L14.5712 57.2782C14.5363 57.2095 14.5015 57.1408 14.4317 57.0722C14.0134 56.3511 13.7694 55.527 13.7694 54.6343C13.7694 53.5699 14.118 52.5741 14.7106 51.7844C14.4317 50.9946 14.0134 50.2735 13.4905 49.6212C14.5015 49.6212 15.4427 49.9302 16.2096 50.4796C16.9416 50.0675 17.8131 49.7928 18.7194 49.7928C21.4385 49.7928 23.6346 51.956 23.6346 54.6343C23.6346 54.9433 23.5997 55.2523 23.53 55.5614C23.4952 55.63 23.4952 55.7331 23.4603 55.8361C23.3906 56.1451 23.3557 56.4541 23.3557 56.7631C23.3557 58.3083 24.1226 59.7161 25.273 60.6088C25.3776 60.6775 25.4821 60.7462 25.5867 60.8149C25.5867 60.8149 25.6216 60.8149 25.6216 60.8492C27.5737 62.2913 28.8286 64.5575 28.8286 67.1328C28.8286 67.2358 28.8286 67.3388 28.8286 67.4418H38.4498C38.5195 67.4418 38.5892 67.4761 38.6938 67.4761C38.7984 67.4761 38.8332 67.4418 38.9378 67.4418C40.5065 67.3388 41.7266 66.034 41.7266 64.4545V62.566C41.6568 51.1663 32.3146 41.9984 20.811 41.9984Z" fill="#303778"/>
<path d="M4.06147 12.3162C3.82569 12.2001 4.29726 12.3935 4.06147 12.3162V12.3162Z" fill="#0C1462"/>
<path d="M62.374 67.64C57.5953 67.64 53.798 66.2747 50.982 63.544C48.2086 60.8133 46.7366 56.9307 46.566 51.896L46.502 50.296C46.502 44.9627 47.8886 40.76 50.662 37.688C53.478 34.616 57.3606 33.08 62.31 33.08C67.3873 33.08 71.2913 34.616 74.022 37.688C76.7953 40.76 78.182 44.856 78.182 49.976V51.32C78.182 51.7467 78.0326 52.1093 77.734 52.408C77.4353 52.7067 77.0513 52.856 76.582 52.856H55.334V53.368C55.4193 55.7573 56.0593 57.7413 57.254 59.32C58.4913 60.856 60.1766 61.624 62.31 61.624C64.742 61.624 66.726 60.6427 68.262 58.68C68.646 58.2107 68.9446 57.9333 69.158 57.848C69.3713 57.72 69.734 57.656 70.246 57.656H75.878C76.262 57.656 76.582 57.7627 76.838 57.976C77.1366 58.1893 77.286 58.488 77.286 58.872C77.286 59.896 76.6673 61.112 75.43 62.52C74.2353 63.8853 72.5073 65.08 70.246 66.104C67.9846 67.128 65.3606 67.64 62.374 67.64ZM69.35 47.416V47.288C69.35 44.7707 68.71 42.7653 67.43 41.272C66.1926 39.736 64.486 38.968 62.31 38.968C60.134 38.968 58.4273 39.736 57.19 41.272C55.9526 42.7653 55.334 44.7707 55.334 47.288V47.416H69.35Z" fill="#303778"/>
<path d="M97.326 67.64C93.0166 67.64 89.71 66.2747 87.406 63.544C85.102 60.7707 83.8433 57.08 83.63 52.472L83.566 50.36L83.63 48.248C83.8006 43.7253 85.038 40.0773 87.342 37.304C89.6886 34.488 93.0166 33.08 97.326 33.08C101.422 33.08 104.686 34.488 107.118 37.304V23.096C107.118 22.6267 107.267 22.264 107.566 22.008C107.865 21.7093 108.227 21.56 108.654 21.56H114.222C114.691 21.56 115.054 21.7093 115.31 22.008C115.609 22.264 115.758 22.6267 115.758 23.096V65.464C115.758 65.8907 115.609 66.2533 115.31 66.552C115.054 66.8507 114.691 67 114.222 67H109.038C108.611 67 108.249 66.8507 107.95 66.552C107.651 66.2533 107.502 65.8907 107.502 65.464V63.096C105.155 66.1253 101.763 67.64 97.326 67.64ZM99.758 60.728C102.19 60.728 103.982 59.96 105.134 58.424C106.329 56.8453 106.99 54.904 107.118 52.6C107.161 52.088 107.182 51.2773 107.182 50.168C107.182 49.016 107.161 48.184 107.118 47.672C107.033 45.5387 106.371 43.7253 105.134 42.232C103.897 40.7387 102.105 39.992 99.758 39.992C95.1926 39.992 92.7606 42.808 92.462 48.44L92.398 50.36L92.462 52.28C92.7606 57.912 95.1926 60.728 99.758 60.728Z" fill="#303778"/>
<path d="M138.686 67.64C133.908 67.64 130.11 66.2747 127.294 63.544C124.521 60.8133 123.049 56.9307 122.878 51.896L122.814 50.296C122.814 44.9627 124.201 40.76 126.974 37.688C129.79 34.616 133.673 33.08 138.622 33.08C143.7 33.08 147.604 34.616 150.334 37.688C153.108 40.76 154.494 44.856 154.494 49.976V51.32C154.494 51.7467 154.345 52.1093 154.046 52.408C153.748 52.7067 153.364 52.856 152.894 52.856H131.646V53.368C131.732 55.7573 132.372 57.7413 133.566 59.32C134.804 60.856 136.489 61.624 138.622 61.624C141.054 61.624 143.038 60.6427 144.574 58.68C144.958 58.2107 145.257 57.9333 145.47 57.848C145.684 57.72 146.046 57.656 146.558 57.656H152.19C152.574 57.656 152.894 57.7627 153.15 57.976C153.449 58.1893 153.598 58.488 153.598 58.872C153.598 59.896 152.98 61.112 151.742 62.52C150.548 63.8853 148.82 65.08 146.558 66.104C144.297 67.128 141.673 67.64 138.686 67.64ZM145.662 47.416V47.288C145.662 44.7707 145.022 42.7653 143.742 41.272C142.505 39.736 140.798 38.968 138.622 38.968C136.446 38.968 134.74 39.736 133.502 41.272C132.265 42.7653 131.646 44.7707 131.646 47.288V47.416H145.662Z" fill="#303778"/>
<path d="M175.686 67.64C170.908 67.64 167.11 66.2747 164.294 63.544C161.521 60.8133 160.049 56.9307 159.878 51.896L159.814 50.296C159.814 44.9627 161.201 40.76 163.974 37.688C166.79 34.616 170.673 33.08 175.622 33.08C180.7 33.08 184.604 34.616 187.334 37.688C190.108 40.76 191.494 44.856 191.494 49.976V51.32C191.494 51.7467 191.345 52.1093 191.046 52.408C190.748 52.7067 190.364 52.856 189.894 52.856H168.646V53.368C168.732 55.7573 169.372 57.7413 170.566 59.32C171.804 60.856 173.489 61.624 175.622 61.624C178.054 61.624 180.038 60.6427 181.574 58.68C181.958 58.2107 182.257 57.9333 182.47 57.848C182.684 57.72 183.046 57.656 183.558 57.656H189.19C189.574 57.656 189.894 57.7627 190.15 57.976C190.449 58.1893 190.598 58.488 190.598 58.872C190.598 59.896 189.98 61.112 188.742 62.52C187.548 63.8853 185.82 65.08 183.558 66.104C181.297 67.128 178.673 67.64 175.686 67.64ZM182.662 47.416V47.288C182.662 44.7707 182.022 42.7653 180.742 41.272C179.505 39.736 177.798 38.968 175.622 38.968C173.446 38.968 171.74 39.736 170.502 41.272C169.265 42.7653 168.646 44.7707 168.646 47.288V47.416H182.662Z" fill="#303778"/>
<path d="M199.822 67C199.396 67 199.033 66.8507 198.734 66.552C198.436 66.2533 198.286 65.8907 198.286 65.464V35.256C198.286 34.7867 198.436 34.424 198.734 34.168C199.033 33.8693 199.396 33.72 199.822 33.72H204.878C205.348 33.72 205.71 33.8693 205.966 34.168C206.265 34.424 206.414 34.7867 206.414 35.256V37.432C208.718 34.5307 211.812 33.08 215.694 33.08C220.43 33.08 223.737 34.9787 225.614 38.776C226.638 37.0693 228.089 35.704 229.966 34.68C231.844 33.6133 233.87 33.08 236.046 33.08C239.545 33.08 242.404 34.2747 244.622 36.664C246.841 39.0533 247.95 42.5307 247.95 47.096V65.464C247.95 65.8907 247.801 66.2533 247.502 66.552C247.246 66.8507 246.884 67 246.414 67H241.102C240.676 67 240.313 66.8507 240.014 66.552C239.716 66.2533 239.566 65.8907 239.566 65.464V47.608C239.566 44.92 238.99 42.9787 237.838 41.784C236.729 40.5893 235.257 39.992 233.422 39.992C231.758 39.992 230.329 40.6107 229.134 41.848C227.982 43.0427 227.406 44.9627 227.406 47.608V65.464C227.406 65.8907 227.257 66.2533 226.958 66.552C226.702 66.8507 226.34 67 225.87 67H220.494C220.068 67 219.705 66.8507 219.406 66.552C219.108 66.2533 218.958 65.8907 218.958 65.464V47.608C218.958 44.9627 218.382 43.0427 217.23 41.848C216.078 40.6107 214.606 39.992 212.814 39.992C211.15 39.992 209.721 40.6107 208.526 41.848C207.374 43.0427 206.798 44.9627 206.798 47.608V65.464C206.798 65.8907 206.649 66.2533 206.35 66.552C206.094 66.8507 205.732 67 205.262 67H199.822Z" fill="#303778"/>
<path d="M272.483 67.64C268.643 67.64 265.358 67.064 262.627 65.912C259.896 64.76 257.827 63.2453 256.419 61.368C255.011 59.4907 254.264 57.4427 254.179 55.224C254.179 54.8827 254.307 54.584 254.563 54.328C254.819 54.0293 255.139 53.88 255.523 53.88H261.347C261.816 53.88 262.2 53.9867 262.499 54.2C262.798 54.4133 263.075 54.712 263.331 55.096C263.758 56.5467 264.718 57.7627 266.211 58.744C267.747 59.7253 269.838 60.216 272.483 60.216C275.47 60.216 277.71 59.7253 279.203 58.744C280.739 57.72 281.507 56.3333 281.507 54.584C281.507 53.432 281.123 52.472 280.355 51.704C279.587 50.936 278.414 50.2747 276.835 49.72C275.299 49.1227 272.995 48.4187 269.923 47.608C264.888 46.4133 261.198 44.8347 258.851 42.872C256.504 40.9093 255.331 38.0933 255.331 34.424C255.331 31.9493 256.014 29.752 257.379 27.832C258.744 25.8693 260.686 24.3333 263.203 23.224C265.763 22.1147 268.728 21.56 272.099 21.56C275.64 21.56 278.691 22.1787 281.251 23.416C283.854 24.6533 285.816 26.2107 287.139 28.088C288.504 29.9227 289.23 31.7573 289.315 33.592C289.315 33.9333 289.187 34.2533 288.931 34.552C288.675 34.808 288.355 34.936 287.971 34.936H281.891C280.952 34.936 280.312 34.552 279.971 33.784C279.758 32.4187 278.926 31.288 277.475 30.392C276.024 29.4533 274.232 28.984 272.099 28.984C269.752 28.984 267.896 29.432 266.531 30.328C265.208 31.224 264.547 32.5253 264.547 34.232C264.547 35.384 264.888 36.344 265.571 37.112C266.254 37.88 267.32 38.5627 268.771 39.16C270.222 39.7147 272.334 40.3547 275.107 41.08C278.904 41.9333 281.912 42.8933 284.131 43.96C286.392 45.0267 288.056 46.3707 289.123 47.992C290.19 49.6133 290.723 51.6827 290.723 54.2C290.723 56.9733 289.955 59.384 288.419 61.432C286.926 63.4373 284.792 64.9733 282.019 66.04C279.288 67.1067 276.11 67.64 272.483 67.64Z" fill="#303778"/>
<path d="M315.464 67.64C309.576 67.64 304.989 66.1253 301.704 63.096C298.461 60.0667 296.733 55.8427 296.52 50.424C296.477 49.1867 296.456 47.2027 296.456 44.472C296.456 41.7413 296.477 39.7573 296.52 38.52C296.691 33.2293 298.44 29.0907 301.768 26.104C305.096 23.0747 309.661 21.56 315.464 21.56C319.389 21.56 322.76 22.2427 325.576 23.608C328.435 24.9307 330.589 26.5947 332.04 28.6C333.491 30.5627 334.259 32.504 334.344 34.424C334.344 34.808 334.216 35.128 333.96 35.384C333.704 35.64 333.363 35.768 332.936 35.768H326.216C325.789 35.768 325.469 35.6827 325.256 35.512C325.043 35.3413 324.851 35.064 324.68 34.68C324.083 33.1013 323.037 31.7573 321.544 30.648C320.051 29.5387 318.024 28.984 315.464 28.984C312.477 28.984 310.131 29.7947 308.424 31.416C306.76 32.9947 305.885 35.4693 305.8 38.84C305.757 40.0773 305.736 41.9547 305.736 44.472C305.736 46.9467 305.757 48.824 305.8 50.104C305.885 53.56 306.781 56.12 308.488 57.784C310.195 59.4053 312.541 60.216 315.528 60.216C318.557 60.216 320.989 59.4053 322.824 57.784C324.659 56.1627 325.576 53.7307 325.576 50.488V48.504H317.768C317.341 48.504 316.979 48.3547 316.68 48.056C316.381 47.7573 316.232 47.3947 316.232 46.968V43.448C316.232 43.0213 316.381 42.6587 316.68 42.36C316.979 42.0613 317.341 41.912 317.768 41.912H333.128C333.597 41.912 333.981 42.0613 334.28 42.36C334.579 42.6587 334.728 43.0213 334.728 43.448V50.232C334.728 53.7733 333.939 56.8667 332.36 59.512C330.781 62.1147 328.541 64.12 325.64 65.528C322.739 66.936 319.347 67.64 315.464 67.64Z" fill="#303778"/>
</svg>
