<svg width="42" height="67" viewBox="0 0 42 67" fill="none" xmlns="http://www.w3.org/2000/svg">
<path d="M20.811 40.9984C32.3146 40.9984 41.622 31.7963 41.622 20.4995C41.622 9.1685 32.2797 0.000645904 20.811 0.000645904H3.03276C1.35951 -0.0336906 0 1.30543 0 2.95359V9.9239C0.801764 10.6793 1.67325 11.366 2.57959 11.9498C3.48593 12.6365 4.84544 13.3232 5.96094 13.7696C6.7627 14.0099 7.91306 14.319 8.78454 14.422C12.375 14.8684 15.8261 13.7696 18.4406 11.7094C18.4754 11.6751 18.5103 11.6407 18.5451 11.6407C20.1835 10.3016 22.3448 9.61487 24.6107 9.85523C25.4124 9.95824 26.1445 10.1643 26.8765 10.4733C27.1205 10.5763 27.3297 10.6793 27.5388 10.7823C30.2927 12.2931 31.966 15.3147 31.5825 18.5767C31.4082 19.9845 30.8853 21.2549 30.0487 22.3194C30.0836 22.3881 30.1533 22.4567 30.1881 22.5254C31.1642 24.0019 31.6522 25.856 31.4431 27.7789C31.3036 28.912 30.9202 29.9764 30.3624 30.9035C29.8047 28.5686 28.6195 26.4741 26.9462 24.8259C26.6674 24.5513 26.3536 24.2766 26.0747 24.0362C25.1684 24.4826 24.2969 24.9633 23.4952 25.5127C23.1466 25.7187 22.8328 25.9591 22.5191 26.1994C20.4973 27.7102 18.7543 29.5987 17.3948 31.7619C17.1159 32.2083 16.8719 32.6547 16.6279 33.101C16.593 33.1354 16.593 33.1697 16.5582 33.2041C16.3839 33.5131 16.2444 33.7878 16.0353 34.0625C16.0004 34.0968 16.0004 34.1311 15.9656 34.1655C15.7913 34.4402 15.617 34.6805 15.4078 34.9552C15.3729 34.9896 15.3729 35.0239 15.3381 35.0582C15.1638 35.2642 14.9895 35.4703 14.8152 35.6763C14.7803 35.745 14.7106 35.7793 14.6758 35.848C14.5015 36.054 14.2923 36.2257 14.118 36.4317C14.0832 36.466 14.0483 36.5004 14.0134 36.569C13.9786 36.6034 13.9437 36.6377 13.874 36.672C13.6997 36.8437 13.4905 37.0154 13.2814 37.1871C13.2117 37.2558 13.142 37.2901 13.0722 37.3588C12.8979 37.4961 12.7236 37.6335 12.5493 37.7365C12.5145 37.7708 12.4448 37.8052 12.4099 37.8395C11.8173 38.2515 11.1898 38.5949 10.5624 38.9039C9.34229 39.4533 8.01764 39.831 6.62326 40.0027C6.23981 40.037 5.85636 40.0714 5.47291 40.0714C5.36833 40.0714 5.26375 40.0714 5.15917 40.0714C3.38135 40.0714 1.67325 39.6937 0.104578 39.0413V41.0671V61.566V63.4545C0.104578 65.034 1.35951 66.3045 2.89332 66.4418C2.96304 66.4418 3.03276 66.4761 3.13734 66.4761C3.24191 66.4761 3.27677 66.4418 3.38135 66.4418H12.8979C12.8979 66.3388 12.8979 66.2358 12.8979 66.1328C12.8979 64.519 13.386 63.0082 14.2574 61.7377C14.3272 61.669 14.3969 61.566 14.4317 61.463C14.9546 60.7076 15.2684 59.7462 15.2684 58.7504C15.2684 58.4757 15.2335 58.201 15.1986 57.9264C15.0941 57.3426 14.8849 56.7932 14.606 56.3125L14.5712 56.2782C14.5363 56.2095 14.5015 56.1408 14.4317 56.0722C14.0134 55.3511 13.7694 54.527 13.7694 53.6343C13.7694 52.5699 14.118 51.5741 14.7106 50.7844C14.4317 49.9946 14.0134 49.2735 13.4905 48.6212C14.5015 48.6212 15.4427 48.9302 16.2096 49.4796C16.9416 49.0675 17.8131 48.7928 18.7194 48.7928C21.4385 48.7928 23.6346 50.956 23.6346 53.6343C23.6346 53.9433 23.5997 54.2523 23.53 54.5614C23.4952 54.63 23.4952 54.7331 23.4603 54.8361C23.3906 55.1451 23.3557 55.4541 23.3557 55.7631C23.3557 57.3083 24.1226 58.7161 25.273 59.6088C25.3776 59.6775 25.4821 59.7462 25.5867 59.8149C25.5867 59.8149 25.6216 59.8149 25.6216 59.8492C27.5737 61.2913 28.8286 63.5575 28.8286 66.1328C28.8286 66.2358 28.8286 66.3388 28.8286 66.4418H38.4498C38.5195 66.4418 38.5892 66.4761 38.6938 66.4761C38.7984 66.4761 38.8332 66.4418 38.9378 66.4418C40.5065 66.3388 41.7266 65.034 41.7266 63.4545V61.566C41.6568 50.1663 32.3146 40.9984 20.811 40.9984Z" fill="white"/>
<path d="M4.06147 11.3162C3.82569 11.2001 4.29726 11.3935 4.06147 11.3162V11.3162Z" fill="#0C1462"/>
</svg>
