<svg width="334" height="58" viewBox="0 0 334 58" fill="none" xmlns="http://www.w3.org/2000/svg">
<path d="M17.1341 32.7321C26.3183 32.7321 33.7491 25.3853 33.7491 16.3663C33.7491 7.31989 26.2904 0.000515673 17.1341 0.000515673H2.94044C1.60456 -0.0268977 0.519165 1.04222 0.519165 2.35807V7.92298C1.15927 8.52608 1.85504 9.07435 2.57864 9.54037C3.30224 10.0886 4.38764 10.6369 5.27822 10.9933C5.91833 11.1852 6.83675 11.4319 7.53251 11.5141C10.3991 11.8705 13.1543 10.9933 15.2416 9.34848C15.2695 9.32107 15.2973 9.29365 15.3251 9.29365C16.6332 8.22453 18.3587 7.67626 20.1677 7.86816C20.8078 7.9504 21.3922 8.11488 21.9767 8.3616C22.1715 8.44384 22.3385 8.52608 22.5055 8.60832C24.7041 9.81451 26.04 12.2269 25.7338 14.8312C25.5947 15.9551 25.1772 16.9694 24.5093 17.8192C24.5371 17.874 24.5928 17.9289 24.6206 17.9837C25.3999 19.1625 25.7895 20.6428 25.6225 22.1779C25.5112 23.0826 25.205 23.9324 24.7597 24.6726C24.3145 22.8085 23.3682 21.1362 22.0323 19.8204C21.8097 19.6011 21.5592 19.3818 21.3366 19.1899C20.613 19.5463 19.9172 19.93 19.2771 20.3687C18.9988 20.5331 18.7483 20.725 18.4978 20.9169C16.8836 22.1231 15.4921 23.6309 14.4067 25.3579C14.1841 25.7143 13.9892 26.0706 13.7944 26.427C13.7666 26.4544 13.7666 26.4818 13.7388 26.5093C13.5996 26.756 13.4883 26.9753 13.3213 27.1946C13.2935 27.222 13.2935 27.2494 13.2656 27.2768C13.1265 27.4961 12.9873 27.688 12.8204 27.9073C12.7925 27.9348 12.7925 27.9622 12.7647 27.9896C12.6255 28.1541 12.4864 28.3185 12.3472 28.483C12.3194 28.5378 12.2637 28.5653 12.2359 28.6201C12.0968 28.7846 11.9298 28.9216 11.7906 29.0861C11.7628 29.1135 11.735 29.1409 11.7071 29.1958C11.6793 29.2232 11.6515 29.2506 11.5958 29.278C11.4566 29.4151 11.2897 29.5521 11.1227 29.6892C11.067 29.744 11.0114 29.7715 10.9557 29.8263C10.8165 29.9359 10.6774 30.0456 10.5382 30.1278C10.5104 30.1552 10.4547 30.1827 10.4269 30.2101C9.95379 30.539 9.45284 30.8132 8.95188 31.0599C7.97781 31.4985 6.92024 31.8 5.80701 31.9371C5.50087 31.9645 5.19473 31.9919 4.88859 31.9919C4.8051 31.9919 4.72161 31.9919 4.63812 31.9919C3.21875 31.9919 1.85504 31.6904 0.602657 31.1695V32.7869V49.1527V50.6605C0.602657 51.9215 1.60456 52.9358 2.82912 53.0454C2.88478 53.0454 2.94044 53.0728 3.02393 53.0728C3.10742 53.0728 3.13526 53.0454 3.21875 53.0454H10.8165C10.8165 52.9632 10.8165 52.8809 10.8165 52.7987C10.8165 51.5103 11.2062 50.3041 11.9019 49.2898C11.9576 49.235 12.0133 49.1527 12.0411 49.0705C12.4586 48.4674 12.709 47.6998 12.709 46.9048C12.709 46.6855 12.6812 46.4662 12.6534 46.2469C12.5699 45.7809 12.4029 45.3423 12.1802 44.9585L12.1524 44.9311C12.1246 44.8762 12.0968 44.8214 12.0411 44.7666C11.7071 44.1909 11.5123 43.533 11.5123 42.8202C11.5123 41.9704 11.7906 41.1754 12.2637 40.5449C12.0411 39.9144 11.7071 39.3387 11.2897 38.8179C12.0968 38.8179 12.8482 39.0646 13.4605 39.5032C14.0449 39.1742 14.7407 38.9549 15.4643 38.9549C17.6351 38.9549 19.3884 40.682 19.3884 42.8202C19.3884 43.0669 19.3606 43.3137 19.3049 43.5604C19.2771 43.6152 19.2771 43.6975 19.2493 43.7797C19.1936 44.0264 19.1658 44.2731 19.1658 44.5199C19.1658 45.7535 19.778 46.8774 20.6965 47.5902C20.78 47.645 20.8634 47.6998 20.9469 47.7546C20.9469 47.7546 20.9748 47.7546 20.9748 47.782C22.5333 48.9334 23.5352 50.7427 23.5352 52.7987C23.5352 52.8809 23.5352 52.9632 23.5352 53.0454H31.2165C31.2721 53.0454 31.3278 53.0728 31.4113 53.0728C31.4948 53.0728 31.5226 53.0454 31.6061 53.0454C32.8585 52.9632 33.8326 51.9215 33.8326 50.6605V49.1527C33.7769 40.0515 26.3183 32.7321 17.1341 32.7321Z" fill="white"/>
<path d="M3.76174 9.03457C3.57349 8.94193 3.94998 9.09632 3.76174 9.03457V9.03457Z" fill="#0C1462"/>
<path d="M42.5279 53C42.1013 53 41.7386 52.8507 41.4399 52.552C41.1413 52.2533 40.9919 51.8907 40.9919 51.464V9.8C40.9919 9.33066 41.1199 8.94666 41.3759 8.648C41.6746 8.34933 42.0586 8.2 42.5279 8.2H70.7519C71.2213 8.2 71.6053 8.34933 71.9039 8.648C72.2026 8.94666 72.3519 9.33066 72.3519 9.8V14.088C72.3519 14.5573 72.2026 14.9413 71.9039 15.24C71.6053 15.496 71.2213 15.624 70.7519 15.624H49.7599V26.824H69.3439C69.8133 26.824 70.1973 26.9733 70.4959 27.272C70.7946 27.5707 70.9439 27.9547 70.9439 28.424V32.456C70.9439 32.9253 70.7946 33.3093 70.4959 33.608C70.1973 33.864 69.8133 33.992 69.3439 33.992H49.7599V45.576H71.2639C71.7333 45.576 72.1173 45.7253 72.4159 46.024C72.7146 46.28 72.8639 46.6427 72.8639 47.112V51.464C72.8639 51.9333 72.7146 52.3173 72.4159 52.616C72.1173 52.872 71.7333 53 71.2639 53H42.5279Z" fill="white"/>
<path d="M82.4029 53C81.9763 53 81.6136 52.8507 81.3149 52.552C81.0163 52.2533 80.8669 51.8907 80.8669 51.464V9.8C80.8669 9.33066 80.9949 8.94666 81.2509 8.648C81.5496 8.34933 81.9336 8.2 82.4029 8.2H98.0189C110.606 8.2 117.027 14.0027 117.283 25.608C117.368 28.0827 117.411 29.7467 117.411 30.6C117.411 31.4107 117.368 33.0533 117.283 35.528C117.112 41.5013 115.491 45.9173 112.419 48.776C109.39 51.592 104.696 53 98.3389 53H82.4029ZM98.0189 45.576C101.56 45.576 104.12 44.7867 105.699 43.208C107.278 41.6293 108.11 39.0053 108.195 35.336C108.28 32.776 108.323 31.176 108.323 30.536C108.323 29.8533 108.28 28.2747 108.195 25.8C108.11 22.3013 107.235 19.7413 105.571 18.12C103.907 16.456 101.283 15.624 97.6989 15.624H89.8909V45.576H98.0189Z" fill="white"/>
<path d="M127.403 53C126.976 53 126.614 52.8507 126.315 52.552C126.016 52.2533 125.867 51.8907 125.867 51.464V9.8C125.867 9.33066 125.995 8.94666 126.251 8.648C126.55 8.34933 126.934 8.2 127.403 8.2H155.627C156.096 8.2 156.48 8.34933 156.779 8.648C157.078 8.94666 157.227 9.33066 157.227 9.8V14.088C157.227 14.5573 157.078 14.9413 156.779 15.24C156.48 15.496 156.096 15.624 155.627 15.624H134.635V26.824H154.219C154.688 26.824 155.072 26.9733 155.371 27.272C155.67 27.5707 155.819 27.9547 155.819 28.424V32.456C155.819 32.9253 155.67 33.3093 155.371 33.608C155.072 33.864 154.688 33.992 154.219 33.992H134.635V45.576H156.139C156.608 45.576 156.992 45.7253 157.291 46.024C157.59 46.28 157.739 46.6427 157.739 47.112V51.464C157.739 51.9333 157.59 52.3173 157.291 52.616C156.992 52.872 156.608 53 156.139 53H127.403Z" fill="white"/>
<path d="M167.278 53C166.851 53 166.489 52.8507 166.19 52.552C165.891 52.2533 165.742 51.8907 165.742 51.464V9.8C165.742 9.33066 165.87 8.94666 166.126 8.648C166.425 8.34933 166.809 8.2 167.278 8.2H195.502C195.971 8.2 196.355 8.34933 196.654 8.648C196.953 8.94666 197.102 9.33066 197.102 9.8V14.088C197.102 14.5573 196.953 14.9413 196.654 15.24C196.355 15.496 195.971 15.624 195.502 15.624H174.51V26.824H194.094C194.563 26.824 194.947 26.9733 195.246 27.272C195.545 27.5707 195.694 27.9547 195.694 28.424V32.456C195.694 32.9253 195.545 33.3093 195.246 33.608C194.947 33.864 194.563 33.992 194.094 33.992H174.51V45.576H196.014C196.483 45.576 196.867 45.7253 197.166 46.024C197.465 46.28 197.614 46.6427 197.614 47.112V51.464C197.614 51.9333 197.465 52.3173 197.166 52.616C196.867 52.872 196.483 53 196.014 53H167.278Z" fill="white"/>
<path d="M207.153 53C206.726 53 206.364 52.8507 206.065 52.552C205.766 52.2533 205.617 51.8907 205.617 51.464V9.8C205.617 9.33066 205.745 8.94666 206.001 8.648C206.3 8.34933 206.684 8.2 207.153 8.2H212.337C213.148 8.2 213.788 8.60533 214.257 9.416L226.609 32.328L238.961 9.416C239.43 8.60533 240.07 8.2 240.881 8.2H246.001C246.47 8.2 246.854 8.34933 247.153 8.648C247.452 8.94666 247.601 9.33066 247.601 9.8V51.464C247.601 51.9333 247.452 52.3173 247.153 52.616C246.854 52.872 246.47 53 246.001 53H240.497C240.07 53 239.708 52.8507 239.409 52.552C239.11 52.2533 238.961 51.8907 238.961 51.464V23.944L230.065 40.84C229.596 41.7787 228.892 42.248 227.953 42.248H225.265C224.369 42.248 223.644 41.7787 223.089 40.84L214.193 23.944V51.464C214.193 51.8907 214.044 52.2533 213.745 52.552C213.489 52.8507 213.126 53 212.657 53H207.153Z" fill="white"/>
<path d="M272.018 53.64C268.69 53.64 265.789 53.1067 263.314 52.04C260.882 50.9307 259.005 49.5013 257.682 47.752C256.402 46.0027 255.72 44.1253 255.634 42.12C255.634 41.7787 255.762 41.48 256.018 41.224C256.274 40.968 256.594 40.84 256.978 40.84H258.258C259.026 40.84 259.496 41.2667 259.666 42.12C259.965 44.168 261.138 45.96 263.186 47.496C265.234 49.032 268.178 49.8 272.018 49.8C276.072 49.8 279.08 49.0747 281.042 47.624C283.048 46.1307 284.05 44.0613 284.05 41.416C284.05 39.7947 283.56 38.472 282.578 37.448C281.64 36.3813 280.253 35.464 278.418 34.696C276.584 33.8853 273.81 32.8827 270.098 31.688C266.813 30.6213 264.232 29.576 262.354 28.552C260.52 27.528 259.154 26.2693 258.258 24.776C257.362 23.2827 256.914 21.384 256.914 19.08C256.914 16.904 257.49 14.9413 258.642 13.192C259.837 11.4427 261.544 10.0773 263.762 9.096C265.981 8.072 268.626 7.56 271.698 7.56C274.856 7.56 277.565 8.136 279.826 9.288C282.088 10.3973 283.794 11.8267 284.946 13.576C286.098 15.2827 286.717 17.0107 286.802 18.76C286.802 19.1013 286.674 19.4 286.418 19.656C286.205 19.912 285.885 20.04 285.458 20.04H284.178C283.88 20.04 283.581 19.9547 283.282 19.784C282.984 19.5707 282.813 19.2293 282.77 18.76C282.514 16.6267 281.362 14.8773 279.314 13.512C277.309 12.104 274.77 11.4 271.698 11.4C268.413 11.4 265.789 12.04 263.826 13.32C261.906 14.6 260.946 16.52 260.946 19.08C260.946 20.744 261.373 22.1307 262.226 23.24C263.122 24.3067 264.445 25.2453 266.194 26.056C267.944 26.824 270.525 27.7627 273.938 28.872C277.437 29.9813 280.168 31.048 282.13 32.072C284.093 33.096 285.565 34.3333 286.546 35.784C287.57 37.2347 288.082 39.112 288.082 41.416C288.082 45.256 286.653 48.264 283.794 50.44C280.936 52.5733 277.01 53.64 272.018 53.64Z" fill="white"/>
<path d="M312.688 53.64C307.355 53.64 303.216 52.104 300.272 49.032C297.328 45.96 295.771 41.8427 295.6 36.68C295.558 35.4 295.536 33.3733 295.536 30.6C295.536 27.8267 295.558 25.8 295.6 24.52C295.771 19.3573 297.328 15.24 300.272 12.168C303.216 9.096 307.355 7.56 312.688 7.56C316.315 7.56 319.366 8.24266 321.84 9.608C324.315 10.9733 326.15 12.5947 327.344 14.472C328.582 16.3067 329.243 17.9493 329.328 19.4V19.528C329.328 19.8693 329.2 20.1467 328.944 20.36C328.688 20.5733 328.368 20.68 327.984 20.68H326.576C326.192 20.68 325.915 20.5947 325.744 20.424C325.574 20.2533 325.403 19.912 325.232 19.4C324.507 17.1387 323.099 15.24 321.008 13.704C318.96 12.168 316.187 11.4 312.688 11.4C308.72 11.4 305.584 12.488 303.28 14.664C301.019 16.84 299.803 20.232 299.632 24.84C299.59 26.12 299.568 28.04 299.568 30.6C299.568 33.16 299.59 35.08 299.632 36.36C299.803 40.968 301.019 44.36 303.28 46.536C305.584 48.712 308.72 49.8 312.688 49.8C316.656 49.8 319.856 48.6693 322.288 46.408C324.72 44.1467 325.936 40.7973 325.936 36.36V33.096H314.8C314.374 33.096 314.032 32.968 313.776 32.712C313.52 32.4133 313.392 32.0507 313.392 31.624V30.728C313.392 30.3013 313.52 29.96 313.776 29.704C314.032 29.4053 314.374 29.256 314.8 29.256H328.496C328.966 29.256 329.328 29.384 329.584 29.64C329.84 29.896 329.968 30.2587 329.968 30.728V36.36C329.968 39.7733 329.286 42.7813 327.92 45.384C326.555 47.9867 324.571 50.0133 321.968 51.464C319.366 52.9147 316.272 53.64 312.688 53.64Z" fill="white"/>
</svg>
