<svg width="450" height="484" viewBox="0 0 450 484" fill="none" xmlns="http://www.w3.org/2000/svg">
<circle cx="223.746" cy="284" r="200" fill="#DFE1F2"/>
<mask id="mask0_6763_67515" style="mask-type:alpha" maskUnits="userSpaceOnUse" x="0" y="0" width="450" height="484">
<path d="M423.748 290C420.248 397.5 334.205 484 223.748 484C113.291 484 23.7477 397.143 23.7477 290C-46.2537 207 43.8508 0.000415389 223.748 6.55242e-10C403.645 -0.000415388 498.748 197.5 423.748 290Z" fill="#DFE1F2"/>
</mask>
<g mask="url(#mask0_6763_67515)">
<g clip-path="url(#clip0_6763_67515)">
<path d="M129.39 57.5566H130.953C138.52 57.6436 145.778 60.562 151.283 65.7318C156.788 70.9016 160.138 77.9443 160.666 85.4602C161.672 99.9532 162.597 115.989 162.406 123.756C162.026 139.846 145.837 142.16 145.837 142.16L145.959 148.723C146.011 151.304 145.55 153.869 144.602 156.271C143.653 158.673 142.237 160.864 140.434 162.718C138.63 164.573 136.476 166.053 134.096 167.075C131.715 168.096 129.155 168.638 126.563 168.67C121.401 168.739 116.419 166.781 112.697 163.22C108.975 159.659 106.812 154.781 106.677 149.644L105.073 89.7364C103.836 73.0105 112.562 58.3956 129.39 57.5566Z" fill="#F0C4A4"/>
<path d="M145.957 142.188C138.449 142.106 131.122 139.88 124.848 135.773C124.848 135.773 129.7 147.411 145.848 146.139L145.957 142.188Z" fill="#EAB792"/>
<path d="M155.69 99.5069C155.687 100.105 155.449 100.679 155.028 101.106C154.606 101.533 154.035 101.78 153.434 101.794C153.14 101.816 152.844 101.779 152.565 101.684C152.286 101.59 152.029 101.44 151.809 101.244C151.589 101.048 151.412 100.81 151.287 100.544C151.162 100.278 151.092 99.9898 151.082 99.6964C151.078 99.0968 151.311 98.5197 151.731 98.0894C152.15 97.6591 152.723 97.4101 153.325 97.3959C153.62 97.3776 153.916 97.4179 154.195 97.5145C154.474 97.6111 154.731 97.762 154.951 97.9585C155.171 98.1549 155.35 98.393 155.477 98.6588C155.604 98.9247 155.676 99.2129 155.69 99.5069Z" fill="#242425"/>
<path d="M157.087 93.3228C156.802 93.6205 155.062 92.3079 152.588 92.2944C150.114 92.2808 148.266 93.4852 147.994 93.174C147.722 92.8627 148.17 92.4974 148.972 91.9425C150.052 91.2094 151.336 90.8309 152.642 90.86C153.934 90.8732 155.189 91.2897 156.231 92.0508C156.978 92.6462 157.237 93.1875 157.087 93.3228Z" fill="#242425"/>
<path d="M133.643 99.3577C133.643 99.9585 133.407 100.536 132.986 100.966C132.564 101.395 131.99 101.644 131.387 101.658C131.093 101.676 130.799 101.636 130.522 101.541C130.244 101.445 129.989 101.295 129.77 101.1C129.551 100.904 129.373 100.668 129.247 100.404C129.121 100.139 129.049 99.8528 129.035 99.5607C129.035 98.9598 129.271 98.3827 129.693 97.9528C130.114 97.5229 130.688 97.2743 131.292 97.2602C131.585 97.2419 131.879 97.2819 132.156 97.3778C132.434 97.4737 132.69 97.6236 132.908 97.8188C133.127 98.014 133.305 98.2506 133.431 98.5148C133.557 98.779 133.629 99.0655 133.643 99.3577Z" fill="#242425"/>
<path d="M132.677 93.5795C132.378 93.8637 130.638 92.5646 128.164 92.5375C125.69 92.5104 123.842 93.7283 123.584 93.4306C123.325 93.1329 123.747 92.754 124.549 92.1857C125.634 91.4638 126.914 91.0863 128.219 91.1031C129.513 91.1137 130.77 91.5357 131.807 92.3074C132.555 92.8217 132.813 93.3765 132.677 93.5795Z" fill="#242425"/>
<path d="M141.512 111.943C142.839 111.558 144.208 111.331 145.589 111.266C146.228 111.266 146.826 111.09 146.949 110.657C147.004 110.008 146.862 109.358 146.541 108.79C145.97 107.247 145.358 105.637 144.719 103.959C142.205 97.0844 140.383 91.428 140.642 91.3332C140.9 91.2385 143.197 96.7461 145.725 103.607C146.337 105.299 146.908 106.909 147.465 108.465C147.857 109.229 147.963 110.107 147.764 110.941C147.673 111.164 147.531 111.362 147.35 111.519C147.168 111.677 146.951 111.789 146.718 111.848C146.363 111.941 145.997 111.986 145.63 111.983C144.261 112.151 142.877 112.137 141.512 111.943Z" fill="#242425"/>
<path d="M133.427 83.8229C133.168 84.486 130.708 84.1477 127.772 84.4589C124.836 84.7702 122.498 85.5415 122.118 84.9325C121.941 84.6484 122.362 84.0123 123.314 83.3763C124.592 82.6017 126.035 82.138 127.527 82.0231C129.02 81.8687 130.528 82.0633 131.931 82.5915C133.005 82.9704 133.535 83.4981 133.427 83.8229Z" fill="#242425"/>
<path d="M156.259 86.1505C155.824 86.7053 154.112 86.1505 152.059 86.0558C150.007 85.9611 148.253 86.3941 147.859 85.7987C147.682 85.5145 147.968 84.9461 148.729 84.4454C149.753 83.7984 150.957 83.4905 152.168 83.5658C153.377 83.5983 154.546 84.0051 155.512 84.7296C156.219 85.298 156.463 85.8799 156.259 86.1505Z" fill="#242425"/>
<path d="M159.183 78.0849C159.183 78.0849 155.038 67.9628 150.185 65.554C144.313 62.6446 141.69 69.0724 136.076 67.435C130.462 65.7976 124.848 63.01 119.044 67.2862C112.697 71.9548 115.605 75.3108 115.143 82.4558C113.227 111.388 107.83 119.507 106.471 105.853C106.322 104.365 102.176 103.147 101.619 96.8C100.912 88.6807 100.722 78.6668 102.611 72.8885C104.215 68.0034 107.056 64.6474 112.126 60.9801C120.132 55.1883 131.047 55.1748 138.441 56.0003C145.835 56.8257 160.012 65.4729 159.183 78.0849Z" fill="#242425"/>
<path d="M107.529 105.434C107.518 104.843 107.386 104.26 107.141 103.721C106.896 103.182 106.543 102.698 106.104 102.3C105.666 101.901 105.15 101.595 104.589 101.401C104.027 101.207 103.432 101.129 102.84 101.171C99.8222 101.415 96.4512 103.079 96.5735 109.291C96.8046 120.292 107.855 117.802 107.869 117.41C107.883 117.018 107.638 110.035 107.529 105.434Z" fill="#F0C4A4"/>
<path d="M105.356 113.391C105.356 113.391 105.166 113.527 104.84 113.689C104.377 113.873 103.862 113.873 103.399 113.689C102.23 113.283 101.197 111.456 101.102 109.48C101.069 108.554 101.236 107.631 101.591 106.774C101.683 106.435 101.854 106.122 102.09 105.861C102.327 105.6 102.621 105.398 102.951 105.272C103.172 105.212 103.407 105.229 103.617 105.32C103.827 105.411 103.999 105.571 104.106 105.773C104.255 106.084 104.187 106.3 104.255 106.314C104.323 106.327 104.487 106.124 104.391 105.678C104.32 105.406 104.157 105.167 103.929 105.001C103.78 104.888 103.609 104.806 103.426 104.762C103.244 104.718 103.054 104.712 102.869 104.744C102.416 104.843 101.996 105.055 101.649 105.36C101.301 105.666 101.038 106.054 100.884 106.49C100.436 107.45 100.23 108.504 100.286 109.562C100.395 111.781 101.578 113.838 103.195 114.257C103.493 114.339 103.806 114.352 104.11 114.296C104.413 114.24 104.7 114.115 104.949 113.933C105.343 113.662 105.397 113.405 105.356 113.391Z" fill="#EAB792"/>
<path d="M162.35 66.3801C160.747 65.0269 158.422 64.6615 156.832 63.2677C153.937 60.7237 154.181 55.4055 150.688 53.7951C148.608 52.8208 146.148 53.6734 143.892 53.2809C140.249 52.6449 139.012 49.7896 133.439 49.3836C131.501 49.1338 129.533 49.4451 127.768 50.2803C126.003 51.1155 124.518 52.4391 123.489 54.0929C122.195 53.3881 120.737 53.0358 119.262 53.0714C117.787 53.1071 116.348 53.5294 115.089 54.2958C111.65 56.2851 111.134 60.6966 111.134 60.6966C111.134 60.6966 110.019 60.047 106.349 62.537C104.025 64.1338 101.959 67.7604 100.912 70.3992C99.4304 74.3236 100.912 78.681 102.339 82.5783C103.128 84.7028 104.12 87.0574 106.227 87.9912C108.796 89.0467 111.827 87.2063 113.023 84.7028C114.219 82.1994 116.027 79.7365 117.441 77.3548C119.901 73.2951 122.402 69.3843 120.771 66.529C123.341 65.882 126.05 66.0524 128.519 67.0162C130.979 68.0311 133.072 69.7226 135.519 70.8458C137.965 71.969 141.146 72.0637 142.981 70.1557C143.294 70.9046 143.773 71.5739 144.381 72.1141C144.989 72.6542 145.711 73.0513 146.494 73.2761C147.277 73.5009 148.101 73.5475 148.904 73.4126C149.708 73.2777 150.471 72.9647 151.137 72.4967C152.876 75.8663 157.43 77.6796 160.801 75.9475C164.172 74.2153 165.219 68.8701 162.35 66.3801Z" fill="#242425"/>
<path d="M101.469 79.9531C101.929 80.7768 102.299 81.648 102.57 82.5513C102.908 83.4621 103.48 84.2691 104.228 84.8924C105.242 85.5034 106.446 85.7248 107.613 85.5149C108.816 85.3755 109.976 84.9785 111.011 84.3511C111.842 83.797 112.612 83.1575 113.308 82.4431C113.911 81.7165 114.575 81.042 115.292 80.4268C114.859 81.277 114.305 82.0608 113.648 82.7543C112.971 83.553 112.194 84.2624 111.337 84.8653C110.242 85.5859 108.996 86.0487 107.694 86.2185C106.365 86.4585 104.995 86.172 103.875 85.4201C103.031 84.725 102.412 83.7978 102.094 82.7543C101.765 81.8513 101.555 80.9098 101.469 79.9531Z" fill="#31377C"/>
<path d="M101.307 88.4375C101.936 88.987 102.641 89.4428 103.401 89.7907C104.232 90.1067 105.121 90.245 106.01 90.1967C107.099 90.1036 108.156 89.7807 109.11 89.2494C110.85 88.2078 112.362 86.827 113.554 85.1897C114.032 84.4841 114.579 83.8269 115.185 83.2275C114.882 84.0323 114.456 84.7855 113.921 85.4604C112.791 87.2486 111.249 88.7424 109.422 89.8178C108.385 90.3968 107.226 90.7259 106.038 90.7785C105.062 90.8063 104.094 90.6071 103.21 90.1967C101.688 89.52 101.239 88.451 101.307 88.4375Z" fill="#31377C"/>
<path d="M101.265 94.7433C101.921 95.172 102.623 95.5261 103.359 95.7988C104.259 96.0323 105.197 96.0795 106.116 95.9376C107.035 95.7956 107.914 95.4674 108.701 94.9733C110.286 93.9426 111.669 92.6308 112.778 91.1031C113.223 90.4329 113.743 89.8154 114.328 89.2627C114.047 90.0236 113.648 90.7359 113.145 91.3737C112.083 93.0463 110.663 94.4648 108.986 95.5281C108.029 96.1029 106.957 96.4631 105.846 96.5837C104.925 96.6717 103.996 96.5514 103.128 96.2318C101.741 95.6635 101.211 94.7703 101.265 94.7433Z" fill="#31377C"/>
<path d="M134.174 115.502C133.714 116.67 133.417 117.894 133.29 119.142C133.208 119.732 133.252 120.333 133.421 120.905C133.59 121.476 133.879 122.006 134.269 122.458C134.672 123.003 135.19 123.454 135.786 123.778C136.383 124.103 137.043 124.295 137.722 124.339C138.957 124.417 140.18 124.05 141.166 123.304C142.152 122.559 142.835 121.485 143.091 120.279L143.716 117.572C141.229 116.774 134.351 115.691 134.174 115.502Z" fill="#EAB792"/>
<path d="M140.396 123.73C140.396 123.73 140.084 123.73 139.513 123.73C138.735 123.804 137.952 123.758 137.188 123.595C136.083 123.342 135.112 122.685 134.47 121.754C133.718 120.592 133.418 119.196 133.627 117.83C133.719 117.059 133.973 116.316 134.375 115.651L134.021 115.786C136.468 116.328 138.616 116.774 140.152 117.072C140.959 117.284 141.79 117.397 142.625 117.41C141.858 117.072 141.056 116.818 140.233 116.652C138.724 116.26 136.604 115.732 134.171 115.15H133.94L133.817 115.353C133.356 116.098 133.064 116.934 132.961 117.803C132.726 119.334 133.085 120.897 133.967 122.174C134.715 123.2 135.837 123.895 137.093 124.109C137.906 124.266 138.741 124.266 139.553 124.109C140.152 123.906 140.41 123.77 140.396 123.73Z" fill="#242425"/>
<path d="M70.8321 150.686C65.1133 152.671 60.1831 156.426 56.7637 161.403C53.8821 165.828 26.9688 215.383 26.9688 215.383L29.1164 216.52L61.5483 233.706L79.0828 200.295C79.0828 200.295 84.0849 171.282 82.0188 161.809C81.4071 159.089 80.0302 156.599 78.0493 154.629C76.0683 152.659 73.565 151.291 70.8321 150.686Z" fill="#E86363"/>
<path d="M70.8293 150.686L106.17 145.963C113.034 159.942 143.794 161.741 145.996 148.764C152.358 151.092 157.469 153.216 161.397 155.99L165.57 197.805L167.826 301.692L66.0039 293.099L69.6739 215.465L70.8293 150.686Z" fill="#E86363"/>
<path d="M165.556 232.854L185.945 232.272C185.945 232.272 179.298 186.641 176.199 177.926C168.288 155.693 161.41 155.99 161.41 155.99L163.177 186.208L165.61 232.854H165.556Z" fill="#E86363"/>
<path d="M78.9845 200.796C78.8462 201.271 78.6451 201.726 78.3864 202.149C77.8835 203.083 77.2583 204.206 76.5514 205.532C74.8931 208.536 72.7863 212.393 70.4484 216.656L64.4812 227.86L62.6734 231.189C62.481 231.623 62.2294 232.028 61.9258 232.394C62.0365 231.924 62.2055 231.469 62.4287 231.04C62.7821 230.201 63.3394 229.011 64.0462 227.549C65.4055 224.613 67.4716 220.607 69.8367 216.236C72.2018 211.865 74.4446 207.968 76.1301 205.194C76.9728 203.841 77.666 202.677 78.1689 201.919C78.3875 201.509 78.6619 201.131 78.9845 200.796Z" fill="#242425"/>
<path d="M85.5511 187.372C85.4152 187.372 85.5511 185.206 85.1297 181.742C84.35 174.751 81.8931 168.049 77.9664 162.202C76.891 160.492 75.541 158.97 73.9702 157.695C72.9175 156.839 71.68 156.237 70.3546 155.936C69.4167 155.747 68.8594 155.774 68.8594 155.706C68.9901 155.687 69.1229 155.687 69.2536 155.706C69.6328 155.66 70.0161 155.66 70.3953 155.706C71.8038 155.912 73.1367 156.471 74.2692 157.33C75.9306 158.596 77.3645 160.134 78.5101 161.877C79.9535 163.957 81.196 166.168 82.2209 168.481C84.106 172.676 85.2597 177.161 85.6327 181.742C85.7422 183.124 85.7695 184.511 85.7142 185.897C85.7236 186.393 85.6688 186.889 85.5511 187.372Z" fill="#242425"/>
<path d="M166.526 305.671C169.317 317.968 170.26 330.61 169.326 343.183C168.7 351.153 141.678 571.742 141.678 571.742H105.182L115.445 364.428L112.454 365.064C112.454 365.064 92.5818 453.538 90.9099 467.801C89.4555 480.67 72.655 574.165 72.655 574.165L39.2852 574.544L49.9418 450.832L62.3382 332.181L67.0141 297.646L166.526 305.671Z" fill="#242425"/>
<path d="M109.691 343.277C110.164 343.619 110.675 343.905 111.214 344.129C112.638 344.859 114.156 345.387 115.727 345.699C116.841 345.903 117.983 345.903 119.098 345.699C120.404 345.486 121.621 344.904 122.604 344.021C123.628 342.991 124.363 341.713 124.738 340.313C125.173 338.892 125.418 337.431 125.717 335.942C126.886 329.961 127.661 324.494 128.123 320.529C128.354 318.54 128.504 316.943 128.599 315.82C128.67 315.245 128.67 314.663 128.599 314.088C128.414 314.64 128.299 315.213 128.259 315.793C128.055 317.051 127.824 318.608 127.539 320.462C126.954 324.399 126.071 329.826 124.915 335.794C124.331 338.744 123.923 341.748 122.074 343.507C121.213 344.228 120.202 344.75 119.113 345.033C118.025 345.316 116.886 345.354 115.781 345.144C114.24 344.858 112.736 344.404 111.295 343.791C110.779 343.569 110.242 343.396 109.691 343.277Z" fill="#31377C"/>
<path d="M120.676 315.157C120.676 315.157 120.431 314.967 119.928 314.94C119.19 314.917 118.465 315.146 117.876 315.59C117.424 315.91 117.05 316.329 116.784 316.814C116.518 317.3 116.366 317.839 116.34 318.391C116.388 319.079 116.634 319.739 117.048 320.292C117.462 320.845 118.028 321.268 118.676 321.51C119.325 321.753 120.03 321.804 120.708 321.659C121.385 321.514 122.006 321.178 122.497 320.691C122.845 320.26 123.089 319.756 123.212 319.216C123.334 318.677 123.331 318.117 123.204 317.579C123.053 316.861 122.66 316.216 122.09 315.752C121.682 315.427 121.396 315.387 121.383 315.427C122.043 316.018 122.491 316.806 122.66 317.674C122.736 318.124 122.714 318.586 122.594 319.028C122.474 319.469 122.261 319.88 121.967 320.231C121.565 320.593 121.071 320.837 120.539 320.937C120.007 321.038 119.457 320.99 118.95 320.8C118.443 320.61 117.999 320.284 117.666 319.86C117.332 319.435 117.123 318.926 117.06 318.391C117.067 317.936 117.174 317.488 117.374 317.079C117.574 316.67 117.861 316.309 118.216 316.023C118.918 315.474 119.783 315.169 120.676 315.157Z" fill="#31377C"/>
<path d="M62.8516 330.11C63.2498 330.243 63.6683 330.307 64.0885 330.299C65.2286 330.386 66.3737 330.386 67.5138 330.299C75.1329 329.872 82.3696 326.837 87.9979 321.706C88.847 320.945 89.6376 320.122 90.363 319.243C90.654 318.944 90.897 318.601 91.0834 318.228C90.9882 318.134 89.8193 319.473 87.6309 321.3C81.9346 326.099 74.9012 329.05 67.473 329.758C64.6322 330.069 62.8516 329.974 62.8516 330.11Z" fill="#31377C"/>
<path d="M151.555 315.82C152.007 317.138 152.643 318.386 153.444 319.528C155.227 322.383 157.354 325.009 159.778 327.35C162.196 329.689 164.889 331.729 167.798 333.426C168.975 334.18 170.245 334.78 171.577 335.212C170.459 334.394 169.292 333.643 168.083 332.966C165.303 331.155 162.7 329.089 160.308 326.795C157.934 324.481 155.786 321.948 153.893 319.23C153.171 318.055 152.391 316.917 151.555 315.82Z" fill="#31377C"/>
<path d="M63.043 463.984C65.6822 461.495 68.1653 458.847 70.4781 456.054C72.9655 453.414 75.2896 450.626 77.4375 447.705C74.7894 450.185 72.3016 452.829 69.9888 455.621C67.5047 458.266 65.1851 461.058 63.043 463.984Z" fill="#31377C"/>
<path d="M136.305 452.915C137.221 454.921 138.332 456.834 139.621 458.626C140.732 460.555 142.034 462.368 143.509 464.039C142.592 462.025 141.477 460.108 140.179 458.314C139.077 456.387 137.779 454.577 136.305 452.915Z" fill="#31377C"/>
<path d="M184.616 232.312V245.385L210.428 265.034L205.426 281.881L167.095 269.648L166.293 232.854L184.616 232.312Z" fill="#F0C4A4"/>
<path d="M174.667 249.364C174.585 249.364 174.844 248.741 175.51 248.01C176.395 247.04 177.497 246.289 178.727 245.819C179.957 245.349 181.281 245.173 182.591 245.304C183.584 245.426 184.141 245.696 184.114 245.778C182.376 245.725 180.64 245.954 178.976 246.454C177.385 247.176 175.928 248.159 174.667 249.364Z" fill="#EAB792"/>
<path d="M167.787 301.692L163.438 192.189L93.9389 191.012C93.9389 191.012 94.1292 249.945 83.7716 265.953C72.4897 283.41 63.6953 289.297 63.6953 289.297V301.476L71.8509 306.266L68.8605 440.655L177.601 438.354L167.787 301.692Z" fill="#31377C"/>
<path d="M176.118 418.719C176.118 418.909 152.086 419.22 122.455 419.396C92.8227 419.572 68.7773 419.572 68.7773 419.396C68.7773 419.22 92.7955 418.895 122.441 418.706C152.086 418.516 176.118 418.516 176.118 418.719Z" fill="white"/>
<path d="M173.644 394.212C173.644 394.402 150.401 394.564 121.721 394.564C93.0402 394.564 69.7969 394.402 69.7969 394.212C69.7969 394.023 93.0402 393.86 121.721 393.86C150.401 393.86 173.644 393.996 173.644 394.212Z" fill="white"/>
<path d="M173.264 374.604C173.264 374.793 150.347 374.956 122.088 374.956C93.8293 374.956 70.9258 374.793 70.9258 374.604C70.9258 374.414 93.8293 374.252 122.088 374.252C150.347 374.252 173.264 374.414 173.264 374.604Z" fill="white"/>
<path d="M172.093 355.388C172.093 355.577 149.965 355.74 122.671 355.74C95.3767 355.74 73.2344 355.577 73.2344 355.388C73.2344 355.199 95.3631 355.036 122.671 355.036C149.978 355.036 172.093 355.185 172.093 355.388Z" fill="white"/>
<path d="M169.784 332.316C169.784 332.505 148.036 332.667 121.327 332.667C94.6172 332.667 72.8555 332.505 72.8555 332.316C72.8555 332.126 94.6036 331.964 121.327 331.964C148.05 331.964 169.784 332.126 169.784 332.316Z" fill="white"/>
<path d="M168.235 308.472C168.235 308.675 146.976 308.824 120.742 308.824C94.5084 308.824 73.168 308.675 73.168 308.472C73.168 308.269 94.4404 308.12 120.742 308.12C147.044 308.12 168.235 308.282 168.235 308.472Z" fill="white"/>
<path d="M168.234 285.021C168.234 285.224 146.105 285.373 118.811 285.373C91.5173 285.373 69.375 285.224 69.375 285.021C69.375 284.818 91.5037 284.669 118.811 284.669C146.119 284.669 168.234 284.831 168.234 285.021Z" fill="white"/>
<path d="M163.599 263.491C163.599 263.694 146.051 263.843 124.412 263.843C102.773 263.843 85.2109 263.694 85.2109 263.491C85.2109 263.289 102.759 263.14 124.412 263.14C146.065 263.14 163.599 263.302 163.599 263.491Z" fill="white"/>
<path d="M165.531 241.582C165.531 241.772 149.029 241.934 128.654 241.934C108.279 241.934 91.7773 241.772 91.7773 241.582C91.7773 241.393 108.292 241.23 128.654 241.23C149.016 241.23 165.531 241.393 165.531 241.582Z" fill="white"/>
<path d="M165.15 219.673C165.15 219.863 149.151 220.025 129.428 220.025C109.706 220.025 93.707 219.863 93.707 219.673C93.707 219.484 109.692 219.321 129.428 219.321C149.165 219.321 165.15 219.43 165.15 219.673Z" fill="white"/>
<path d="M163.995 201.216C163.995 201.405 148.254 201.473 128.858 201.351C109.461 201.229 93.7344 200.986 93.7344 200.796C93.7344 200.607 109.461 200.539 128.871 200.647C148.282 200.756 163.995 201.026 163.995 201.216Z" fill="white"/>
<path d="M90.6758 147.221L95.0662 194.327H106.09L97.8663 146.247L90.6758 147.221Z" fill="#31377C"/>
<path d="M156.899 152.918L150.008 150.212C150.008 150.212 153.297 201.635 153.284 201.635L162.01 202.446L156.899 152.918Z" fill="#31377C"/>
<g opacity="0.3">
<path opacity="0.3" d="M135.965 285.305C135.654 282.906 134.404 280.727 132.485 279.243C130.577 277.78 128.479 276.583 126.246 275.684C119.238 272.416 112.055 269.534 104.729 267.05C92.9172 263.207 79.3246 260.812 67.2 263.491C67.2 263.748 67.2 269.026 66.9961 271.15C71.604 274.303 77.8702 274.371 83.416 274.357C88.9618 274.344 95.1192 274.479 99.6455 277.808C102.962 280.244 104.933 284.006 107.434 287.281C109.935 290.556 113.537 293.533 117.629 293.208C120.442 292.991 122.97 291.205 125.784 291.043C128.054 290.894 130.419 291.814 132.58 291.043C133.684 290.569 134.607 289.757 135.215 288.725C135.824 287.693 136.087 286.495 135.965 285.305Z" fill="black"/>
</g>
<path d="M121.274 281.621C121.146 281.101 121.147 280.558 121.279 280.039C121.41 279.52 121.667 279.041 122.027 278.645C122.387 278.249 122.839 277.948 123.344 277.768C123.848 277.588 124.389 277.535 124.918 277.614C135.516 279.2 160.595 284.424 175.325 289.743C196.211 297.284 209.967 302.177 209.967 302.177L255.253 304.184C255.253 304.184 248.789 319.409 231.552 318.344C218.507 317.537 205.384 308.246 205.384 308.246C205.384 308.246 148.743 284.659 124.336 284.109C123.623 284.093 122.936 283.842 122.382 283.393C121.827 282.944 121.438 282.325 121.274 281.631L121.274 281.621Z" fill="#455A64"/>
<path d="M246.792 303.752C247.245 305.376 245.306 306.66 243.639 306.85C241.973 307.04 240.093 306.834 238.827 307.933C238.372 308.411 238.026 308.981 237.811 309.605C237.597 310.229 237.52 310.892 237.584 311.549C237.734 312.857 237.804 314.174 237.793 315.491C237.76 316.384 237.392 317.233 236.764 317.868C235.496 318.996 233.338 318.442 232.273 317.129C231.311 315.714 230.849 314.018 230.959 312.311C231.025 311.101 230.927 309.888 230.668 308.704C230.529 308.111 230.235 307.566 229.815 307.126C229.394 306.686 228.864 306.366 228.279 306.2C226.864 305.925 225.535 306.919 224.136 307.307C223.406 307.463 222.651 307.458 221.923 307.294C221.195 307.129 220.511 306.809 219.919 306.356C219.326 305.902 218.839 305.326 218.49 304.666C218.141 304.006 217.94 303.279 217.899 302.533L246.792 303.752Z" fill="#FF725E"/>
<path d="M230.506 262.432C230.506 262.432 230.136 262.868 229.625 263.766C228.92 265.046 228.51 266.467 228.427 267.926C228.295 270.091 228.921 272.234 230.199 273.987C230.997 274.985 231.846 275.942 232.744 276.852C233.73 277.842 234.482 279.038 234.947 280.356C235.315 281.719 235.176 283.17 234.555 284.439C233.982 285.601 233.235 286.67 232.34 287.609C231.516 288.556 230.654 289.311 229.872 290.06C229.144 290.758 228.471 291.511 227.858 292.312C227.182 293.048 226.675 293.923 226.375 294.877C226.074 295.83 225.987 296.838 226.119 297.829C226.119 297.829 226.128 297.689 226.046 297.423C225.978 297.025 225.965 296.619 226.005 296.218C226.2 294.75 226.803 293.367 227.744 292.224C228.353 291.413 229.023 290.65 229.75 289.942C230.532 289.172 231.386 288.387 232.198 287.479C233.071 286.551 233.8 285.499 234.36 284.355C234.965 283.117 235.099 281.701 234.735 280.372C234.285 279.082 233.547 277.913 232.577 276.951C231.683 276.031 230.837 275.065 230.044 274.057C228.741 272.271 228.116 270.08 228.28 267.876C228.378 266.398 228.816 264.963 229.561 263.682C229.828 263.231 230.145 262.812 230.506 262.432Z" fill="#263238"/>
<path d="M239.688 262.561C239.688 262.561 239.318 263.007 238.807 263.905C238.105 265.182 237.699 266.601 237.619 268.056C237.476 270.225 238.104 272.375 239.391 274.127C240.108 275.096 241.03 275.999 241.926 276.991C242.918 277.972 243.671 279.167 244.129 280.485C244.495 281.851 244.359 283.303 243.747 284.578C243.169 285.739 242.423 286.807 241.532 287.749C240.697 288.695 239.836 289.44 239.064 290.2C238.336 290.897 237.659 291.646 237.041 292.441C236.117 293.558 235.509 294.902 235.279 296.333C235.231 296.864 235.242 297.4 235.313 297.929C235.277 297.795 235.249 297.659 235.23 297.522C235.167 297.127 235.156 296.725 235.199 296.328C235.394 294.858 235.992 293.472 236.929 292.323C237.543 291.518 238.217 290.758 238.944 290.052C239.716 289.282 240.57 288.496 241.392 287.589C242.262 286.661 242.987 285.608 243.544 284.465C244.15 283.227 244.286 281.812 243.929 280.482C243.473 279.198 242.735 278.033 241.771 277.071C240.834 276.077 239.962 275.177 239.227 274.176C237.924 272.386 237.299 270.193 237.463 267.985C237.567 266.511 238.005 265.08 238.744 263.801C239.016 263.357 239.332 262.941 239.688 262.561Z" fill="#263238"/>
<path d="M135.341 264.587L103.086 255.02L96.0859 271.258L113.308 280.325L115.102 282.463L115.442 284.398L113.879 285.399C113.396 285.401 112.932 285.583 112.577 285.908C112.222 286.234 112.003 286.68 111.962 287.159V287.781C111.962 287.781 114.762 289.635 116.624 289.527C117.762 289.468 118.882 289.225 119.941 288.81L122.428 285.711C122.428 285.711 126.37 286.13 127.512 284.357L133.642 284.506L132.636 289.446C132.636 289.446 133.112 294.06 136.714 294.466L140.384 284.466L140.778 276.739C140.778 276.739 137.054 265.236 135.341 264.587Z" fill="#F0C4A4"/>
<path d="M119.547 276.076C119.547 276.008 120.104 276.36 120.729 277.104C121.521 278.103 122.095 279.255 122.415 280.487C122.746 281.718 122.811 283.005 122.605 284.263C122.442 285.223 122.17 285.765 122.089 285.738C122.166 284.038 122.048 282.335 121.735 280.663C121.195 279.052 120.46 277.511 119.547 276.076Z" fill="#EAB792"/>
<path d="M125.527 272.639C125.459 272.639 126.437 272.26 127.579 273.112C128.223 273.607 128.698 274.287 128.939 275.061C129.194 275.976 129.29 276.928 129.224 277.876C129.194 279.555 128.929 281.222 128.436 282.828C128.001 284.073 127.471 284.696 127.403 284.655C127.54 283.99 127.721 283.334 127.946 282.693C128.287 281.099 128.478 279.477 128.517 277.848C128.586 276.977 128.517 276.1 128.313 275.25C128.138 274.581 127.775 273.976 127.267 273.505C126.761 273.086 126.166 272.79 125.527 272.639Z" fill="#EAB792"/>
<path d="M131.523 268.552C132.183 269.094 132.728 269.761 133.127 270.514C133.549 271.163 134.038 271.962 134.487 272.869C134.793 273.36 134.996 273.907 135.085 274.479C135.153 275.077 135.153 275.681 135.085 276.279C134.901 279.153 134.325 281.99 133.372 284.709C133.168 284.709 133.902 280.907 134.378 276.211C134.438 275.662 134.438 275.109 134.378 274.56C134.293 274.083 134.122 273.624 133.875 273.207C133.426 272.3 132.978 271.488 132.611 270.812C132.183 270.091 131.819 269.335 131.523 268.552Z" fill="#EAB792"/>
<path d="M24.4518 259.769C24.4518 259.769 11.6204 251.339 19.0148 235.574C26.4091 219.809 29.0325 216.412 29.0325 216.412L55.9459 230.675L53.3905 235.736L106.945 256.549L96.0713 271.312C96.0713 271.312 48.0486 271.312 24.4518 259.769Z" fill="#F0C4A4"/>
<path d="M53.2275 235.763C49.7248 235.331 46.1921 235.191 42.666 235.344C39.1522 235.743 35.6783 236.435 32.2812 237.414C33.1681 236.841 34.1408 236.412 35.1629 236.142C37.569 235.336 40.0666 234.831 42.598 234.64C45.1346 234.439 47.6864 234.548 50.1963 234.965C51.2428 235.07 52.2659 235.339 53.2275 235.763Z" fill="#EAB792"/>
<path d="M186.086 288.588L201.449 289.692C202.336 289.756 203.215 289.462 203.894 288.876C204.573 288.29 204.996 287.459 205.069 286.566L208.241 247.802C208.313 246.908 208.03 246.026 207.454 245.349C206.878 244.672 206.056 244.256 205.168 244.192L189.805 243.088C189.366 243.056 188.924 243.112 188.504 243.252C188.085 243.392 187.696 243.613 187.359 243.904C187.023 244.194 186.746 244.547 186.545 244.944C186.344 245.34 186.221 245.772 186.185 246.214L183.013 284.977C182.977 285.419 183.028 285.864 183.163 286.285C183.298 286.706 183.514 287.095 183.799 287.43C184.085 287.765 184.433 288.04 184.826 288.239C185.218 288.437 185.646 288.556 186.086 288.588Z" fill="#242425"/>
<path d="M189.862 244.183L192.841 244.396C193.037 244.415 193.216 244.511 193.34 244.664C193.464 244.816 193.522 245.013 193.502 245.21L193.455 245.753C193.445 245.851 193.454 245.949 193.482 246.043C193.509 246.136 193.555 246.224 193.617 246.299C193.678 246.375 193.754 246.437 193.839 246.483C193.925 246.529 194.019 246.557 194.116 246.566L199.922 246.984C200.118 246.993 200.311 246.924 200.459 246.791C200.606 246.658 200.696 246.472 200.708 246.275L200.754 245.73C200.766 245.533 200.856 245.347 201.003 245.214C201.151 245.081 201.344 245.012 201.54 245.022L202.587 245.102L205.194 245.29C205.502 245.312 205.802 245.395 206.077 245.534C206.351 245.673 206.596 245.865 206.795 246.1C206.995 246.335 207.147 246.607 207.241 246.902C207.336 247.197 207.372 247.508 207.346 247.818L204.251 285.655C204.225 285.965 204.138 286.267 203.996 286.545C203.854 286.822 203.66 287.069 203.424 287.272C203.188 287.475 202.914 287.63 202.62 287.727C202.326 287.824 202.016 287.862 201.708 287.839L186.375 286.737C186.067 286.715 185.767 286.632 185.492 286.493C185.218 286.354 184.974 286.162 184.774 285.927C184.574 285.692 184.423 285.42 184.328 285.125C184.234 284.831 184.198 284.519 184.224 284.21L187.32 246.378C187.345 246.067 187.43 245.764 187.571 245.485C187.713 245.206 187.907 244.958 188.143 244.754C188.379 244.55 188.653 244.395 188.947 244.297C189.242 244.199 189.553 244.16 189.862 244.183Z" fill="#242425"/>
<path d="M186.221 261.299C185.2 261.313 184.206 261.624 183.36 262.194C182.515 262.764 181.856 263.568 181.463 264.506C181.092 265.448 180.932 266.458 180.993 267.468C181.054 268.477 181.335 269.461 181.817 270.352C182.279 271.259 183.176 272.165 184.127 271.949C185.079 271.732 185.487 270.595 185.731 269.689C186.357 267.158 188.015 261.813 186.221 261.299Z" fill="#F0C4A4"/>
<path d="M186.219 261.299C186.219 261.299 186.75 261.299 187.021 262.016C187.264 262.977 187.292 263.98 187.103 264.952C186.926 266.17 186.586 267.659 186.206 269.148C186.07 270.031 185.745 270.875 185.254 271.624C185.086 271.842 184.87 272.019 184.623 272.141C184.375 272.263 184.103 272.327 183.827 272.328C183.273 272.303 182.749 272.071 182.359 271.678C181.698 270.978 181.23 270.121 181 269.188C180.745 268.342 180.639 267.458 180.687 266.576C180.759 265.067 181.411 263.642 182.509 262.598C183.232 261.886 184.157 261.414 185.159 261.245C185.516 261.154 185.89 261.154 186.247 261.245C185.909 261.351 185.563 261.432 185.214 261.488C184.325 261.728 183.515 262.195 182.862 262.841C181.907 263.828 181.362 265.138 181.34 266.509C181.31 267.311 181.42 268.112 181.666 268.877C181.884 269.691 182.299 270.439 182.876 271.056C182.988 271.196 183.13 271.31 183.293 271.388C183.455 271.467 183.633 271.507 183.813 271.507C183.994 271.507 184.172 271.467 184.334 271.388C184.497 271.31 184.639 271.196 184.751 271.056C185.182 270.386 185.469 269.635 185.594 268.85C186.029 267.307 186.41 265.913 186.627 264.79C186.852 263.883 186.907 262.943 186.79 262.016C186.6 261.461 186.192 261.38 186.219 261.299Z" fill="#EAB792"/>
<path d="M212.767 264.167C212.848 264.167 212.685 265.006 211.815 265.981C210.629 267.144 209.193 268.023 207.615 268.552C206.124 269.319 204.451 269.67 202.776 269.567C201.417 269.377 200.859 268.741 200.914 268.687C201.542 268.866 202.182 268.997 202.83 269.079C204.403 269.023 205.944 268.621 207.343 267.902C208.829 267.396 210.211 266.625 211.421 265.629C212.345 264.83 212.658 264.086 212.767 264.167Z" fill="#EAB792"/>
<path d="M210.835 275.656C210.835 275.656 210.346 276.333 209.218 277.009C207.742 277.918 206.087 278.5 204.365 278.715C202.64 278.94 200.887 278.787 199.227 278.268C198.526 278.116 197.872 277.796 197.324 277.334C199.582 277.961 201.933 278.19 204.27 278.011C206.582 277.622 208.805 276.825 210.835 275.656Z" fill="#EAB792"/>
<path d="M207.911 284.777C206.961 285.952 205.613 286.742 204.119 286.996C202.689 287.483 201.128 287.42 199.742 286.82C199.742 286.617 201.7 286.82 203.956 286.306C206.212 285.792 207.775 284.615 207.911 284.777Z" fill="#EAB792"/>
<path d="M207.346 257.804C207.346 257.804 210.779 257.483 211.595 258.647C212.41 259.81 212.886 264.344 212.886 264.344L210.548 267.253C210.548 267.253 211.839 273.18 211.01 274.926C210.181 276.671 209.556 276.441 209.556 276.441C210.048 278.664 209.824 280.984 208.917 283.072C208.917 283.072 207.558 286.672 206.932 287.606C206.307 288.539 200.381 294.696 200.381 294.696C200.381 294.696 197.118 294.236 198.165 291.557C199.212 288.878 199.796 287.606 199.796 287.606L201.087 286.564C201.087 286.564 195.8 286.888 196.262 283.952C196.318 283.492 196.487 283.054 196.755 282.676C197.023 282.298 197.382 281.992 197.798 281.787L202.488 280.285L203.194 278.295C203.194 278.295 197.594 278.295 196.398 277.253C195.889 276.874 195.505 276.352 195.294 275.754C195.084 275.157 195.056 274.51 195.216 273.897C195.515 272.801 197.934 271.191 201.319 271.502C203.331 271.646 205.335 271.133 207.027 270.041L207.965 268.295C207.965 268.295 202.99 270 202.148 269.378C201.305 268.755 200.788 269.378 200.952 267.023C201.115 264.668 201.59 263.18 204.023 261.908C206.457 260.636 206.919 259.58 206.919 259.58L207.346 257.804Z" fill="#F0C4A4"/>
</g>
<path d="M276.861 305.361C275.571 306.283 266.911 364.366 255.857 441.811C246.644 505.425 241.854 569.778 241.854 569.778L271.702 574.756C271.702 574.756 297.864 495.468 311.314 438.676C323.843 386.309 329.555 349.615 329.555 349.615L328.633 311.446L276.861 305.361Z" fill="black"/>
<path d="M366.394 281.945C366.394 281.945 394.399 317.533 393.109 355.517C392.188 378.197 352.207 569.964 352.207 569.964L322.912 569.779L326.044 359.943L321.806 310.526L366.394 281.945Z" fill="black"/>
<path d="M322.178 349.799C322.363 349.799 321.626 348.324 320.889 345.927C320.152 343.53 319.046 340.027 318.309 336.339C317.572 332.467 317.204 328.963 317.019 326.382C316.835 323.8 316.835 322.141 316.835 322.141C316.835 322.141 316.651 322.509 316.651 323.247C316.651 323.985 316.651 325.091 316.651 326.382C316.651 328.963 317.019 332.467 317.756 336.523C318.493 340.395 319.599 343.899 320.52 346.296C321.073 347.587 321.441 348.509 321.626 349.062C321.994 349.431 322.178 349.799 322.178 349.799Z" fill="#2F3476"/>
<path d="M223.969 243.96C223.969 243.96 221.574 240.641 225.259 231.052C228.944 221.648 272.242 168.359 272.242 168.359C272.242 168.359 288.271 181.267 287.534 196.387L280.533 204.316L253.264 239.166L223.969 243.96Z" fill="#F0BFA4"/>
<path d="M339.285 58.4672C343.339 53.673 354.025 53.673 356.604 56.6232C360.105 54.5949 365.448 55.8857 367.475 59.5735C371.344 60.1267 375.029 60.6798 378.898 61.4174C380.925 61.7862 382.952 62.155 384.425 63.2613C385.899 64.3676 386.821 66.7647 385.715 68.4242C389.769 69.1618 391.611 74.8779 388.847 77.8282C390.506 79.4877 390.506 82.438 388.479 83.9131C391.795 87.4165 394.559 91.4731 396.401 95.8985C397.138 97.7424 397.875 99.7707 397.323 101.799C396.77 103.643 394.375 105.118 392.532 104.012C393.822 105.487 394.006 107.7 393.085 109.359C394.927 109.359 395.664 112.125 394.559 113.6C393.269 115.075 391.243 115.26 389.216 115.444C387.373 115.444 385.162 115.444 383.689 116.735C383.873 117.288 384.057 117.657 384.425 117.841C387.926 120.238 389.032 124.664 386.821 128.167C386.636 128.536 386.452 128.72 386.268 129.089C385.162 130.748 382.583 132.224 380.925 133.145C376.687 135.543 374.108 135.358 369.317 136.28C370.791 139.23 363.422 146.422 354.025 140.337C336.338 146.053 323.625 148.634 305.016 149.556C302.436 149.741 299.12 149.556 297.83 147.344C295.804 148.081 293.409 147.159 291.75 145.684C290.092 144.209 288.987 142.365 287.881 140.337C283.275 139.415 279.406 135.174 279.037 130.564C275.721 128.351 273.51 124.848 273.142 120.976C268.535 119.869 265.772 114.338 267.798 110.097C268.535 104.749 270.009 99.4019 272.405 94.4234C269.272 93.8702 267.983 89.998 269.088 87.2321C270.194 84.4663 272.773 82.438 275.352 80.5941C273.142 81.3316 270.931 78.5658 271.483 76.3531C271.852 74.1404 273.879 72.4809 275.721 71.1901C278.485 69.3462 281.617 67.6867 284.933 66.5803C285.854 62.5237 290.645 57.914 294.33 55.8857C308.885 48.1412 319.203 45.7442 339.285 58.4672Z" fill="black"/>
<path d="M298.951 88.89C299.504 78.5641 306.505 66.0255 316.823 67.1319L349.25 75.0607C352.382 75.4294 354.777 78.0109 354.777 81.1456L351.092 149.555C350.908 158.405 347.408 165.965 338.564 167.625C327.141 169.838 316.454 161.54 315.902 150.108C315.717 145.498 315.533 141.995 315.533 141.995C315.533 141.995 302.268 139.966 299.32 122.818C297.846 114.336 298.214 100.322 298.951 88.89Z" fill="#F0BFA4"/>
<path d="M305.617 102.527C305.617 103.634 306.538 104.74 307.828 104.74C309.118 104.74 310.039 104.002 310.039 102.712C310.039 101.605 309.118 100.499 307.828 100.499C306.723 100.499 305.617 101.421 305.617 102.527Z" fill="black"/>
<path d="M302.137 96.2703C302.505 96.6391 304.163 95.3484 306.559 95.3484C308.954 95.3484 310.796 96.4547 310.98 96.2703C311.165 96.0859 310.796 95.7171 310.059 95.164C309.322 94.6108 308.032 94.0576 306.559 94.0576C305.085 94.0576 303.795 94.6108 303.058 95.164C302.137 95.5327 301.952 96.0859 302.137 96.2703Z" fill="black"/>
<path d="M327.902 102.532C327.902 103.639 328.824 104.745 330.113 104.745C331.403 104.745 332.324 104.007 332.324 102.717C332.324 101.61 331.403 100.504 330.113 100.504C328.824 100.504 327.902 101.426 327.902 102.532Z" fill="black"/>
<path d="M325.645 96.4676C326.013 96.8364 327.671 95.5456 330.066 95.5456C332.462 95.5456 334.304 96.652 334.488 96.4676C334.672 96.2832 334.304 95.9144 333.567 95.3613C332.83 94.8081 331.54 94.2549 330.066 94.2549C328.592 94.2549 327.303 94.8081 326.566 95.3613C325.829 95.9144 325.46 96.4676 325.645 96.4676Z" fill="black"/>
<path d="M316.908 113.981C316.908 113.796 315.434 113.612 313.039 113.243C312.486 113.243 311.933 113.059 311.749 112.69C311.565 112.321 311.933 111.583 312.118 110.846C312.67 109.371 313.223 107.896 313.96 106.236C316.539 99.7824 318.198 94.2507 318.013 94.2507C317.829 94.0663 315.434 99.4137 313.039 105.867C312.486 107.527 311.933 109.002 311.381 110.477C311.196 111.215 310.828 111.952 311.012 112.874C311.196 113.243 311.565 113.612 311.933 113.796C312.302 113.981 312.67 113.981 313.039 113.981C315.434 114.165 316.908 114.165 316.908 113.981Z" fill="black"/>
<path d="M315.527 141.99C315.527 141.99 327.319 142.728 338.742 135.721C338.742 135.721 333.215 147.522 315.712 145.862L315.527 141.99Z" fill="#B18E7B"/>
<path d="M324.505 86.8493C324.689 87.4025 327.084 87.2181 330.032 87.5869C332.796 87.7713 335.191 88.6932 335.559 88.14C335.744 87.9556 335.375 87.2181 334.454 86.665C333.533 86.1118 332.059 85.5586 330.401 85.3742C328.742 85.1899 327.084 85.5586 326.163 85.9274C324.873 85.9274 324.32 86.4806 324.505 86.8493Z" fill="black"/>
<path d="M302.78 88.1344C303.148 88.6876 304.807 88.1344 306.833 88.1344C308.86 87.95 310.518 88.5032 310.887 87.95C311.071 87.7656 310.702 87.2125 309.965 86.6593C309.228 86.1061 307.939 85.7373 306.649 85.7373C305.359 85.7373 304.07 86.2905 303.333 86.8436C302.78 87.2124 302.596 87.7656 302.78 88.1344Z" fill="black"/>
<path d="M291.577 97.5562C291.577 94.7903 292.314 92.2088 294.156 89.9961C295.077 88.8898 296.367 87.9678 297.288 86.8615C299.131 84.28 298.578 80.7766 299.315 77.642C300.236 73.5854 303.184 70.0819 307.053 68.6068C310.185 67.3161 313.87 67.3161 317.002 65.4722C319.213 64.1814 320.872 62.1531 323.083 60.8624C327.504 58.6497 332.848 60.678 337.269 62.8907C338.375 66.2097 336.348 69.16 334.321 72.1102C332.479 75.0605 329.163 76.9044 325.662 77.2732C322.898 77.642 319.766 77.0888 317.924 79.1171C316.081 81.1454 317.002 84.6488 315.528 87.0459C313.318 90.3649 307.974 89.443 304.474 91.6557C301.894 93.3152 300.789 96.6342 299.683 99.4001C298.578 102.166 296.183 105.301 293.051 105.301C292.129 102.903 291.577 100.138 291.577 97.5562Z" fill="black"/>
<path d="M330.638 69.3432C338.561 68.79 346.483 69.8964 354.037 72.2934C356.248 73.031 358.644 73.953 359.933 75.9812C361.039 77.6408 361.407 79.8534 361.407 81.8817C361.591 88.3354 359.38 96.2642 357.17 102.165L349.247 107.328C342.983 106.221 345.194 95.5267 345.378 90.1793C340.956 88.5198 337.64 84.0944 337.271 79.4847C333.77 77.4564 331.191 73.5842 330.638 69.3432Z" fill="black"/>
<path d="M349.418 105.114C349.418 101.426 354.024 100.504 357.341 102.163C359.183 103.085 360.657 105.113 360.473 108.986C360.473 119.312 349.786 117.099 349.786 116.915C349.786 116.73 349.234 109.355 349.418 105.114Z" fill="#F0BFA4"/>
<path d="M353.134 113.045C353.134 113.045 353.318 113.229 353.687 113.229C354.055 113.414 354.424 113.414 354.976 113.229C356.082 112.86 357.003 111.017 357.187 109.173C357.187 108.251 357.003 107.329 356.635 106.591C356.266 105.854 355.898 105.3 355.345 105.116C354.792 104.932 354.424 105.3 354.239 105.669C354.055 106.038 354.239 106.222 354.055 106.222C354.055 106.222 353.871 106.038 353.871 105.669C353.871 105.485 354.055 105.3 354.239 104.932C354.424 104.747 354.792 104.563 355.345 104.747C356.082 104.747 356.819 105.485 357.187 106.407C357.556 107.144 357.924 108.251 357.74 109.357C357.74 111.385 356.635 113.414 354.976 113.782C354.239 113.967 353.687 113.782 353.318 113.414C353.134 113.229 353.134 113.045 353.134 113.045Z" fill="#B18E7B"/>
<path d="M358.652 119.312C359.205 119.312 359.758 119.312 360.311 119.127C360.863 118.943 361.6 118.758 362.153 118.574H361.969C362.337 120.049 363.258 121.524 364.917 122.262C366.575 122.999 368.786 122.815 370.444 121.524H370.26C370.628 121.893 371.181 122.262 371.734 122.446C372.286 122.631 372.839 122.446 373.392 122.262C373.945 122.077 374.497 121.709 374.682 121.155C375.05 120.602 375.05 120.049 375.05 119.496C375.05 118.205 374.497 117.099 373.76 116.177C373.023 115.255 371.918 114.333 370.813 113.595V113.78C371.734 113.227 372.286 112.305 372.286 111.198C372.471 110.276 372.286 109.17 371.918 108.248C371.365 107.326 370.813 106.404 369.891 105.667C369.154 104.929 368.233 104.376 367.312 103.638V103.823C368.049 103.085 368.417 101.794 368.233 100.688C368.049 99.5817 367.68 98.4754 366.943 97.7378C365.469 96.0783 363.443 95.3407 361.6 94.4188L361.784 94.6031C362.153 92.3905 361.416 89.9934 359.758 88.3339C358.1 86.8587 355.889 86.1212 353.678 86.49L353.862 86.6744C354.23 84.8305 353.309 82.9865 352.204 81.6958C350.914 80.405 349.256 79.6675 347.598 79.8519L347.782 80.0363C347.598 78.1924 346.492 76.5329 345.202 75.6109C343.913 74.689 342.255 74.3202 340.781 74.689L340.965 74.8733C340.965 73.9514 340.412 73.0294 340.044 72.2919C339.491 71.5543 338.938 71.0011 338.385 70.448C337.096 69.526 335.806 69.1572 334.7 69.1572C334.516 69.1572 334.516 69.1572 334.332 69.1572C334.148 69.1572 334.148 69.1572 333.964 69.1572C333.779 69.1572 333.411 69.1572 333.227 69.3416C332.858 69.526 332.49 69.526 332.305 69.7104C332.121 69.8948 331.937 69.8948 331.753 69.8948C331.568 69.8948 331.568 70.0792 331.568 70.0792C331.568 70.0792 331.568 70.0792 331.753 70.0792C331.937 70.0792 332.121 69.8948 332.305 69.8948C332.49 69.7104 332.858 69.7104 333.227 69.526C333.411 69.526 333.595 69.526 333.964 69.3416C334.148 69.3416 334.148 69.3416 334.332 69.3416C334.516 69.3416 334.516 69.3416 334.7 69.3416C335.806 69.3416 337.096 69.7104 338.201 70.6323C338.754 71.1855 339.307 71.7387 339.859 72.4762C340.412 73.2138 340.781 74.1358 340.781 75.0577V75.2421H340.965C342.255 74.8733 343.913 75.2421 345.202 76.1641C346.492 77.086 347.598 78.5611 347.782 80.4051V80.5895H347.966C349.44 80.5895 351.098 81.1426 352.388 82.4334C353.493 83.7241 354.23 85.3836 354.046 87.2275V87.4119H354.23C356.257 87.0431 358.468 87.7807 359.942 89.2558C361.416 90.7309 362.337 93.128 361.784 95.1563V95.3407H361.969C363.811 96.0783 365.838 97.0002 367.128 98.4754C367.865 99.2129 368.233 100.319 368.417 101.241C368.602 102.348 368.233 103.27 367.68 104.007L367.496 104.191L367.68 104.376C369.523 105.667 371.181 106.773 372.102 108.617C372.471 109.539 372.655 110.461 372.471 111.383C372.286 112.305 371.918 113.227 370.997 113.78L370.813 113.964L370.997 114.149C372.102 114.886 373.023 115.624 373.945 116.546C374.682 117.468 375.234 118.574 375.234 119.68C375.234 120.787 374.682 121.893 373.576 122.262C372.655 122.631 371.365 122.631 370.813 121.709V121.524H370.628C369.154 122.815 366.943 122.999 365.285 122.262C363.627 121.524 362.706 120.233 362.337 118.758V118.574H362.153C361.6 118.943 361.048 119.127 360.311 119.127C359.574 118.943 359.021 119.127 358.652 119.312C357.547 119.127 356.81 119.127 356.073 118.758C355.336 118.574 354.967 118.205 354.783 117.836C354.599 117.468 354.599 117.283 354.599 117.283C354.599 117.283 354.599 117.283 354.599 117.468C354.599 117.468 354.599 117.652 354.783 117.836C354.967 118.205 355.336 118.574 356.073 118.943" fill="#2F3476"/>
<path d="M394.009 104.194C394.009 104.194 394.193 104.01 394.378 103.641C394.562 103.272 394.746 102.535 394.746 101.613C394.746 100.691 394.562 99.5845 393.641 98.4781C392.904 97.3718 391.43 96.4498 389.771 96.2654L389.956 96.4498C390.14 94.7903 389.771 92.9464 388.666 91.4713C388.113 90.7337 387.376 89.9962 386.455 89.443C385.534 88.8898 384.428 88.7054 383.507 88.3366C382.954 88.1522 382.586 87.9679 382.033 87.5991C381.665 87.2303 381.296 86.8615 380.928 86.3083C380.375 85.3864 380.191 84.0956 379.638 83.1737C378.348 81.1454 375.585 79.8547 373.005 80.4078L373.189 80.5922C373.374 78.1952 372.452 75.6137 370.61 73.9542C368.583 72.1103 365.82 71.3727 363.424 71.7415L363.609 71.9259C363.793 68.7913 361.95 66.0254 359.371 64.919C356.792 63.8127 353.844 64.1815 351.817 65.6566H352.001C350.896 64.7346 349.606 63.9971 348.132 63.6283C346.842 63.2595 345.553 63.0751 344.263 62.8907C341.868 62.7063 339.657 63.0751 337.999 63.6283C336.34 64.1815 335.051 64.7346 334.314 65.2878C333.945 65.4722 333.761 65.841 333.577 66.0254C333.392 66.2098 333.392 66.2098 333.392 66.2098C333.392 66.2098 333.761 65.841 334.498 65.4722C335.235 64.9191 336.525 64.3659 338.183 63.8127C339.841 63.4439 341.868 63.0751 344.263 63.0751C345.553 63.0751 346.658 63.4439 347.948 63.8127C349.238 64.1815 350.527 64.919 351.633 65.841C353.475 64.3659 356.423 63.9971 359.003 65.1034C361.398 66.2098 363.24 68.9756 363.056 71.9259V72.1103H363.24C365.635 71.7415 368.399 72.479 370.241 74.3229C372.084 75.9825 373.005 78.5639 372.637 80.7766V80.961H372.821C375.216 80.4078 377.796 81.6986 379.085 83.5425C379.638 84.4644 379.822 85.7552 380.375 86.6771C380.559 87.2303 381.112 87.5991 381.48 87.9679C382.033 88.3366 382.402 88.521 382.954 88.7054C384.06 89.0742 384.981 89.2586 385.902 89.8118C386.824 90.3649 387.561 91.1025 387.929 91.84C389.034 93.3152 389.403 95.1591 389.219 96.6342V96.8186H389.403C391.061 97.003 392.351 97.9249 393.272 98.8469C394.009 99.9532 394.378 101.06 394.378 101.982C394.378 102.903 394.193 103.641 394.009 104.01C394.193 104.01 394.009 104.194 394.009 104.194Z" fill="#2F3476"/>
<path d="M272.222 97.002C272.222 97.002 272.222 97.002 272.406 96.8176C272.406 96.6333 272.59 96.4489 272.59 96.2645C272.775 95.7113 273.143 94.9737 273.512 94.0518C273.88 93.1298 274.433 91.8391 275.17 90.364C275.907 89.0732 276.828 87.4137 278.486 86.4917C279.223 85.9386 280.329 85.5698 281.25 85.201C281.803 85.0166 282.171 84.6478 282.724 84.2791C283.092 83.9103 283.461 83.3571 283.645 82.8039C284.014 81.6976 284.014 80.4068 284.382 79.3005C284.566 78.7473 284.935 78.1941 285.303 77.8254C285.856 77.4566 286.409 77.2722 286.961 76.9034C287.514 76.719 288.251 76.5346 288.804 76.1658C289.357 75.7971 289.909 75.2439 290.094 74.6907C290.646 73.4 290.646 71.9248 290.831 70.6341C291.015 69.8965 291.015 69.3434 291.383 68.7902C291.752 68.237 292.305 67.8683 293.042 67.6839C294.331 67.3151 295.989 67.6839 297.463 67.4995C298.2 67.3151 298.937 66.9463 299.49 66.3931C300.043 65.84 300.411 65.1024 300.78 64.5492C301.148 63.9961 301.517 63.2585 301.885 62.7053C302.254 62.1521 302.807 61.5989 303.359 61.4146C304.649 60.8614 305.939 61.0458 307.413 61.2302C308.702 61.4146 310.176 61.7833 311.466 61.4146C312.756 61.0458 313.861 60.3082 314.783 59.755C315.888 59.0175 316.809 58.2799 317.73 57.9111C319.757 56.9892 322.152 56.9892 323.995 57.358C325.837 57.7267 327.495 58.6487 328.785 59.3863C330.075 60.3082 330.812 61.4146 331.549 62.1521C332.102 63.0741 332.47 63.8116 332.839 64.3648C333.023 64.5492 333.023 64.7336 333.023 64.918C333.023 65.1024 333.207 65.1024 333.207 65.1024C333.207 65.1024 333.207 65.1024 333.207 64.918C333.207 64.7336 333.023 64.5492 333.023 64.3648C332.839 63.8116 332.47 63.0741 331.917 62.1521C331.365 61.2302 330.443 60.1238 329.154 59.2019C327.864 58.2799 326.206 57.358 324.363 56.9892C322.521 56.6204 320.126 56.6204 317.915 57.5424C316.809 57.9111 315.888 58.6487 314.783 59.3863C313.861 60.1238 312.756 60.677 311.466 61.0458C310.176 61.4146 308.887 61.0458 307.597 60.8614C306.86 60.677 306.307 60.677 305.57 60.677C304.833 60.677 304.096 60.8614 303.544 61.0458C302.807 61.4146 302.438 61.9677 301.885 62.5209C301.517 63.0741 301.148 63.8116 300.78 64.3648C300.411 64.918 300.043 65.6556 299.674 66.2087C299.122 66.7619 298.569 67.1307 297.832 67.3151C296.358 67.6839 294.884 67.1307 293.41 67.4995C292.673 67.6839 291.936 68.237 291.568 68.7902C291.199 69.3434 291.015 70.0809 290.831 70.8185C290.646 72.2936 290.646 73.5844 290.094 74.8751C289.909 75.4283 289.357 75.9815 288.804 76.3502C288.251 76.719 287.698 76.9034 286.961 77.0878C286.409 77.2722 285.672 77.641 285.303 78.0097C284.751 78.3785 284.382 78.9317 284.198 79.6693C283.829 80.7756 283.829 82.0663 283.461 83.1727C283.092 84.279 282.171 84.8322 281.25 85.3854C280.329 85.9386 279.407 86.3074 278.486 86.6761C276.828 87.7825 275.723 89.2576 275.17 90.7327C274.433 92.2079 274.064 93.3142 273.696 94.4206C273.327 95.3425 272.959 96.2645 272.775 96.8176C272.59 97.002 272.59 97.1864 272.59 97.3708C272.222 96.8176 272.222 97.002 272.222 97.002Z" fill="#2F3476"/>
<path d="M282.926 85.5711C282.926 85.5711 282.926 85.5711 282.742 85.5711C282.558 85.5711 282.374 85.5711 282.189 85.7555C281.821 85.9399 281.268 86.6775 281.268 87.5994C281.268 88.1526 281.452 88.5214 281.637 89.0745C281.821 89.6277 282.005 90.1809 282.005 90.9185C282.005 91.656 281.821 92.2092 281.268 92.9468C280.9 93.4999 280.347 94.2375 279.978 94.9751C279.61 95.7126 279.426 96.6346 279.794 97.5565C280.163 98.4785 280.9 99.2161 281.268 99.9536C281.637 100.876 281.452 101.798 281.084 102.904C280.715 103.826 280.163 104.748 279.794 105.854C279.61 106.407 279.426 106.96 279.61 107.514C279.61 108.067 279.794 108.62 280.163 109.173C280.715 110.28 281.637 111.017 282.374 111.939C283.111 112.861 283.663 113.967 283.663 115.074C283.663 116.364 282.926 117.471 282.558 118.577C282.374 119.13 282.189 119.868 282.189 120.421C282.189 121.159 282.374 121.712 282.742 122.265C283.479 123.371 284.4 124.293 285.137 125.031C286.059 125.953 286.796 126.875 287.164 127.797C287.533 128.903 287.901 130.009 288.454 130.931C288.822 131.485 289.191 131.853 289.559 132.222C290.112 132.591 290.48 132.775 291.033 132.775C291.586 132.96 292.139 132.96 292.507 133.144C292.876 133.328 293.428 133.513 293.797 133.882C294.534 134.435 295.087 135.357 295.639 136.094C296.192 136.832 296.561 137.569 297.113 138.307C298.219 139.598 299.508 140.52 300.982 140.704C302.272 141.073 303.562 141.073 304.483 140.888C305.404 140.704 306.141 140.335 306.51 140.151C306.878 139.967 307.062 139.782 307.062 139.782C307.062 139.782 306.141 140.52 304.299 140.704C303.378 140.888 302.272 140.888 300.982 140.52C299.693 140.151 298.403 139.413 297.298 138.123C296.745 137.385 296.376 136.832 295.824 135.91C295.271 135.172 294.718 134.435 293.981 133.697C293.613 133.328 293.06 133.144 292.691 132.96C292.139 132.775 291.77 132.591 291.217 132.591C290.665 132.406 290.296 132.222 289.743 132.038C289.375 131.669 289.006 131.3 288.638 130.931C288.085 130.009 287.901 128.903 287.348 127.797C286.98 126.69 286.059 125.768 285.322 124.846C284.4 123.924 283.479 123.187 282.926 122.081C282.558 121.527 282.374 120.974 282.374 120.421C282.374 119.868 282.374 119.13 282.742 118.577C283.111 117.471 283.848 116.18 283.848 114.889C283.848 114.336 283.663 113.599 283.479 113.045C283.295 112.492 282.926 111.939 282.558 111.57C281.821 110.648 280.9 109.726 280.347 108.804C280.163 108.251 279.978 107.698 279.978 107.145C279.978 106.592 279.978 106.039 280.163 105.485C280.531 104.379 281.084 103.457 281.452 102.535C281.821 101.613 282.005 100.507 281.637 99.4005C281.268 98.4785 280.531 97.7409 280.163 97.0034C279.794 96.2658 279.978 95.3438 280.347 94.6063C280.715 93.8687 281.268 93.3156 281.637 92.578C282.005 91.8404 282.374 91.2872 282.374 90.5497C282.374 89.8121 282.189 89.2589 282.005 88.7058C281.821 88.1526 281.637 87.5994 281.637 87.2306C281.637 86.3087 282.005 85.5711 282.558 85.3867C282.558 85.5711 282.926 85.5711 282.926 85.5711Z" fill="#2F3476"/>
<path d="M393.638 104.008C393.638 104.008 394.007 104.008 394.56 103.824C395.112 103.639 395.849 103.455 396.77 102.717C397.692 102.164 398.429 101.058 398.797 99.5825C399.166 98.1074 398.981 96.2635 397.692 94.7884C397.139 94.0508 396.218 93.4976 395.481 92.7601C394.744 92.0225 393.823 91.4694 393.454 90.363C392.901 89.4411 393.086 88.1503 393.454 87.044C393.823 85.9376 394.375 84.8313 394.744 83.5405C395.297 81.1434 395.112 78.1932 393.638 75.7961C392.164 73.399 389.401 71.5551 386.453 71.002L386.637 71.1863C387.006 70.4488 387.374 69.7112 387.374 68.9737C387.374 68.2361 387.374 67.3141 387.005 66.5766C386.821 65.839 386.453 65.1015 385.9 64.3639C385.347 63.6263 384.795 63.0732 384.058 62.7044C381.847 61.2293 379.451 60.6761 377.056 60.3073C374.661 59.9385 372.266 59.9385 369.871 60.3073L370.055 60.4917C369.871 57.7258 368.028 55.3288 365.449 54.4068C364.159 53.8536 362.869 53.6692 361.764 53.8536C360.474 54.038 359.369 54.5912 358.263 54.96C357.711 55.1443 357.158 55.3288 356.605 55.3288C356.052 55.3288 355.5 55.3288 354.947 55.3288C353.841 55.1444 352.92 54.5912 352.183 54.038C351.262 53.6692 350.341 53.1161 349.42 52.9317C348.498 52.7473 347.577 52.5629 346.656 52.7473C344.998 52.9317 343.524 53.4848 342.418 54.038C341.313 54.7756 340.576 55.5132 340.023 56.2507C339.47 56.9883 339.102 57.7258 338.918 58.0946C338.733 58.4634 338.733 58.8322 338.733 58.8322C338.733 58.8322 338.733 58.6478 339.102 58.0946C339.286 57.7258 339.655 56.9883 340.207 56.2507C340.76 55.5132 341.497 54.7756 342.602 54.038C343.708 53.3004 345.182 52.7473 346.84 52.7473C347.761 52.7473 348.498 52.7473 349.42 52.9317C350.341 53.1161 351.262 53.4848 351.999 54.038C352.92 54.4068 353.841 54.96 354.947 55.3288C355.5 55.5132 356.052 55.5131 356.605 55.5131C357.158 55.5131 357.711 55.3287 358.263 55.1444C359.369 54.7756 360.474 54.2224 361.58 54.038C362.685 53.8536 363.975 54.038 365.265 54.5912C367.66 55.5131 369.318 57.9102 369.686 60.4917V60.6761H369.871C372.082 60.3073 374.477 60.3073 376.872 60.6761C379.267 61.0449 381.662 61.598 383.873 63.0732C384.61 63.6263 385.163 64.1795 385.716 64.7327C386.269 65.2858 386.637 66.0234 386.821 66.9454C387.006 67.6829 387.19 68.4205 387.005 69.3424C387.005 70.08 386.637 70.8176 386.269 71.5551L386.084 71.7395H386.269C389.216 72.1083 391.796 73.9522 393.27 76.3493C394.744 78.7464 395.112 81.5123 394.375 83.9093C394.007 85.2001 393.454 86.3064 393.086 87.4127C392.717 88.5191 392.533 89.8098 393.086 90.9162C393.638 92.0225 394.375 92.7601 395.297 93.3132C396.034 94.0508 396.955 94.604 397.507 95.3416C398.613 96.8167 398.981 98.6606 398.613 99.9513C398.244 101.426 397.507 102.348 396.586 103.086C395.849 103.639 394.928 104.008 394.56 104.192C394.007 103.824 393.638 104.008 393.638 104.008Z" fill="black"/>
<path d="M278.879 78.7472C278.879 78.7472 278.879 78.7471 278.879 78.5628C278.879 78.3784 278.879 78.194 278.879 78.0096C278.879 77.4564 278.879 76.7188 279.063 75.7969C279.063 74.8749 279.247 73.5842 279.432 72.2935C279.616 71.0027 279.984 69.3432 280.537 67.6837C281.274 66.0242 282.195 64.3647 283.669 63.0739C284.406 62.3364 285.327 61.7832 286.249 61.23C287.17 60.8613 288.275 60.4925 289.565 60.1237C290.67 59.7549 291.776 59.3861 292.881 58.4642C293.803 57.7266 294.724 56.8047 295.461 55.6983C296.198 54.7764 296.935 53.67 297.856 52.7481C298.777 51.8261 299.699 50.9041 300.988 50.351C303.383 49.0602 305.963 48.6915 308.542 48.3227C311.122 48.1383 313.517 48.1383 315.912 48.3227C320.518 48.6915 324.756 49.6134 328.072 51.0886C331.389 52.3793 333.6 54.0388 335.258 55.3295C335.626 55.6983 335.995 55.8827 336.179 56.2515C336.363 56.4359 336.732 56.8047 336.916 56.9891C337.1 57.1734 337.284 57.3578 337.284 57.3578C337.469 57.5422 337.469 57.5422 337.469 57.5422C337.469 57.5422 337.469 57.5422 337.284 57.3578C337.1 57.1734 337.1 57.1734 336.916 56.9891C336.732 56.8047 336.548 56.6203 336.179 56.2515C335.995 56.0671 335.626 55.6983 335.258 55.3295C333.784 54.0388 331.389 52.3793 328.072 50.9042C324.756 49.429 320.702 48.5071 315.912 48.1383C313.517 47.9539 311.122 47.9539 308.542 48.1383C305.963 48.3227 303.383 48.8759 300.804 50.1666C299.514 50.7198 298.593 51.6417 297.672 52.7481C296.751 53.67 296.014 54.7764 295.277 55.8827C294.54 56.8046 293.803 57.911 292.697 58.6486C291.776 59.3861 290.67 59.9393 289.565 60.1237C288.46 60.4925 287.354 60.6769 286.249 61.23C285.143 61.7832 284.406 62.3364 283.485 63.0739C282.011 64.5491 280.905 66.2086 280.353 67.8681C279.616 69.5276 279.432 71.0027 279.247 72.4779C279.063 73.7686 279.063 75.0593 278.879 75.9813C278.879 76.9032 278.879 77.6408 278.879 78.194C278.879 78.3784 278.879 78.5628 278.879 78.7472C278.879 78.7472 278.879 78.5628 278.879 78.7472Z" fill="black"/>
<path d="M327.68 118.76C327.495 117.285 326.574 116.178 325.1 115.625C323.81 115.072 322.152 115.625 321.231 116.732C320.494 117.838 320.494 119.313 321.231 120.419C321.6 120.972 322.152 121.341 322.889 121.71C323.626 122.079 324.547 122.079 325.469 121.894C326.206 121.71 326.758 121.341 327.311 120.788C327.68 120.051 327.68 119.497 327.68 118.76Z" fill="#B18E7B"/>
<path d="M326.041 113.774C325.672 113.774 326.041 116.356 324.014 118.569C321.988 120.781 319.224 120.781 319.224 121.15C319.224 121.334 319.961 121.519 321.066 121.334C322.172 121.15 323.83 120.597 325.12 119.306C326.225 118.015 326.594 116.356 326.594 115.25C326.594 114.328 326.225 113.774 326.041 113.774Z" fill="black"/>
<path d="M351.44 123.186C352.177 120.421 353.467 117.839 355.125 115.442L355.862 115.073C357.336 116.917 358.81 118.945 359.547 121.342C360.099 123.74 359.547 126.505 357.336 127.796C356.415 128.349 355.125 128.534 354.019 128.534C353.098 128.349 352.361 127.981 351.808 127.427C350.703 126.321 351.071 124.662 351.44 123.186Z" fill="#F0F0F1"/>
<path d="M345.389 67.1311C355.338 72.8473 356.812 75.7975 359.391 87.0454C361.418 96.265 357.733 102.719 357.733 102.719C356.259 102.35 354.601 101.981 353.127 101.612C353.127 101.612 356.996 90.18 350.916 80.4073C343.915 69.3438 330.649 69.5282 330.649 69.5282C328.623 67.3155 327.517 65.4716 324.938 64.3653C324.938 64.3653 336.729 61.9682 345.389 67.1311Z" fill="#E86363"/>
<path d="M295.821 75.7969C295.821 75.7969 292.504 78.3783 291.399 88.151C289.741 104.746 298.216 113.597 298.216 113.597L300.059 80.2223L295.821 75.7969Z" fill="#E86363"/>
<path d="M331.387 70.2707C328.992 66.5829 325.307 63.4482 320.885 63.4482C316.463 63.4482 312.225 66.3985 310.567 70.4551C306.33 68.2424 300.802 69.1644 297.67 72.6678C294.538 76.1712 294.169 81.703 296.933 85.5752C292.511 87.2347 289.932 92.7664 291.406 97.1918C291.959 98.4825 292.695 99.7733 293.248 101.064C293.801 102.355 294.169 103.83 293.617 105.305C293.064 106.596 291.59 107.702 290.116 107.333C292.143 109.73 296.012 110.284 298.776 108.624L299.328 99.5889C299.328 99.5889 301.908 93.504 304.119 91.8444C306.514 90.1849 313.515 91.6601 316.279 85.7596C319.043 79.6747 316.095 78.5683 320.701 78.0151C325.491 77.4619 335.44 76.1712 331.387 70.2707Z" fill="black"/>
<path d="M331.385 70.2651C331.385 70.2651 331.569 70.4495 331.937 71.0026C332.121 71.5558 332.674 72.4778 332.306 73.7685C331.937 75.0592 330.463 75.9812 328.989 76.5344C327.331 77.0875 325.304 77.6407 323.093 77.8251C321.988 78.0095 320.882 78.0095 319.593 78.3783C319.04 78.5627 318.487 78.747 318.119 79.1158C317.935 79.669 317.935 80.2222 317.75 80.9597C317.566 82.2505 317.198 83.5412 316.829 85.0163C316.276 86.3071 315.539 87.7822 314.434 88.7041C313.144 89.8105 311.67 90.3637 310.196 90.7324C308.538 91.1012 306.88 91.2856 305.406 91.6544C304.669 91.8388 304.116 92.392 303.563 92.9451C303.011 93.4983 302.642 94.2359 302.089 94.9734C301.168 96.4486 300.431 98.1081 299.694 99.5832V99.3988C299.51 102.165 299.326 105.299 299.142 108.434V108.618L298.957 108.803C296.194 110.647 292.14 110.093 289.745 107.512L288.824 106.406L290.298 106.959C291.035 107.143 292.14 106.774 292.693 106.037C293.246 105.299 293.43 104.193 293.246 103.271C293.061 101.612 292.14 100.136 291.403 98.4768C290.666 96.8173 290.298 94.9734 290.666 93.1295C291.219 89.6261 293.614 86.4915 296.746 85.2007L296.562 85.7539C293.43 81.1441 294.351 74.8748 298.036 71.7402C301.721 68.4212 307.064 68.2368 310.749 70.2651L310.38 70.4495C311.854 66.5773 315.355 64.1802 318.672 63.4426C320.33 63.0738 321.804 63.0738 323.278 63.4426C324.752 63.8114 325.857 64.3645 326.778 65.1021C328.621 66.3928 329.726 67.868 330.463 68.7899C330.832 69.3431 331.016 69.7119 331.2 69.8963C331.384 70.0807 331.385 70.2651 331.385 70.2651C331.385 70.2651 331.016 69.7119 330.279 68.7899C329.542 67.868 328.437 66.5772 326.41 65.2865C324.567 63.9958 321.804 63.0738 318.672 63.8114C315.724 64.5489 312.407 66.7616 310.933 70.4495L310.749 70.8182L310.38 70.6338C307.064 68.7899 301.905 69.1587 298.405 72.109C294.904 75.0592 294.167 80.9597 296.931 85.2007L297.299 85.5695L296.746 85.7539C293.798 86.8602 291.587 89.8105 291.219 92.9451C291.035 94.6046 291.219 96.2642 291.956 97.7393C292.693 99.2144 293.614 100.874 293.983 102.718C294.167 103.824 293.983 105.299 293.246 106.221C292.509 107.143 291.219 107.881 289.929 107.328L290.298 106.59C292.324 108.803 296.009 109.356 298.405 107.696L298.22 108.065C298.405 104.931 298.589 101.98 298.773 99.03C299.51 97.3705 300.247 95.711 301.168 94.2359C301.537 93.4983 302.089 92.7607 302.642 92.0232C303.011 91.6544 303.195 91.2856 303.563 91.1012C303.932 90.7324 304.3 90.548 304.853 90.548C306.511 89.9949 308.17 89.9949 309.644 89.6261C311.117 89.2573 312.591 88.7041 313.697 87.7822C314.802 86.8602 315.539 85.5695 316.092 84.2788C316.645 82.988 317.013 81.6973 317.013 80.4065C317.198 79.8534 317.013 79.1158 317.382 78.3783C317.75 77.6407 318.487 77.4563 319.224 77.4563C320.514 77.2719 321.619 77.2719 322.725 77.0875C324.936 76.7187 326.778 76.35 328.437 75.7968C330.095 75.2436 331.384 74.3216 331.753 73.3997C332.121 72.2933 331.753 71.3714 331.569 70.8182C331.569 70.6338 331.385 70.2651 331.385 70.2651Z" fill="#2F3476"/>
<path d="M370.637 157.484L351.107 150.108C347.607 156.93 340.421 161.54 332.683 161.54C324.392 161.54 319.97 156.93 315.917 149.739L312.047 150.108L288.648 153.611L289.201 266.274H371.19L380.402 161.171L370.637 157.484Z" fill="#E86363"/>
<path d="M289.945 153.611C289.945 153.611 282.76 152.505 270.968 165.781C265.625 171.682 246.832 195.468 246.832 195.468L278.154 211.326L285.892 204.503L289.024 238.616V188.646L289.945 153.611Z" fill="#E86363"/>
<path d="M378.559 161.723L380.401 161.17C380.401 161.17 392.745 167.07 399.194 188.275C405.643 209.296 409.512 223.125 409.512 223.125L379.111 229.579L371.741 192.332L378.559 161.723Z" fill="#E86363"/>
<path d="M378.749 177.396C378.749 177.396 378.565 177.949 378.565 179.055C378.565 180.161 378.381 181.636 378.197 183.48C377.828 187.353 377.46 192.331 377.091 197.863C376.538 203.395 376.17 208.373 375.801 212.245C375.617 213.905 375.617 215.38 375.433 216.671C375.433 217.777 375.433 218.33 375.433 218.33C375.433 218.33 375.617 217.777 375.801 216.671C375.986 215.564 376.17 214.089 376.354 212.245C376.723 208.558 377.275 203.395 377.828 197.863C378.197 192.147 378.565 187.168 378.749 183.48C378.749 181.636 378.934 180.161 378.934 179.055C378.934 177.949 378.934 177.396 378.749 177.396Z" fill="black"/>
<path d="M366.399 155.824C366.399 155.824 368.057 183.667 369.715 192.149C371.374 200.262 375.427 219.438 375.427 219.438V272.912C375.427 272.912 391.64 311.45 394.588 333.945C397.721 356.441 394.588 486.805 394.588 486.805L247.377 487.174C247.377 487.174 257.326 393.135 258.984 375.064C260.642 356.81 265.801 329.704 269.302 312.74C271.328 302.783 274.461 293.01 278.514 283.606L284.594 269.408L286.989 208.928C286.989 208.928 295.096 163.568 299.15 151.951L303.94 151.214L300.439 194.546L361.609 196.758L360.319 153.427L366.399 155.824Z" fill="#F0F0F1"/>
<path d="M366.394 155.821C366.394 155.821 365.841 155.636 364.92 155.267C363.814 154.899 362.34 154.161 360.129 153.423H359.945V153.608C360.129 161.537 360.498 176.288 361.051 196.94L361.235 196.755C344.837 196.202 324.202 195.28 300.066 194.358L300.434 194.727C301.539 181.635 302.829 167.068 304.119 151.395V151.026H303.75C302.276 151.211 300.618 151.395 298.96 151.764H298.776V151.948C297.302 156.189 296.196 160.615 295.275 165.224C294.17 169.834 293.248 174.444 292.327 179.238C290.301 188.827 288.458 198.784 286.616 208.925C285.879 228.102 284.957 248.385 284.22 269.405V269.221C282.746 272.909 281.088 276.597 279.43 280.284C277.772 283.972 276.298 287.844 274.824 291.717C272.06 299.461 269.849 307.574 268.191 315.872C264.875 332.467 261.558 349.615 259.347 367.317C255.662 402.904 251.793 439.967 247.924 477.951C247.556 480.902 247.371 484.036 247.003 486.987V487.54H247.556C299.144 487.355 348.522 487.355 394.767 487.171H395.136V486.802C396.057 443.839 396.61 403.642 396.426 367.133C396.241 357.913 396.241 349.062 395.689 340.396C395.504 338.183 395.32 336.155 395.136 333.942C394.767 331.914 394.583 329.701 394.03 327.673C393.293 323.616 392.188 319.56 391.083 315.687C386.476 300.014 381.133 285.816 375.79 272.724V272.909C375.79 252.073 375.79 234.371 375.79 219.435C373.579 209.294 371.737 200.259 370.079 192.33C369.342 188.458 368.973 184.77 368.605 181.451C368.236 178.132 368.052 174.997 367.868 172.416C367.499 167.068 367.131 162.827 366.946 160.062C366.578 157.296 366.394 155.821 366.394 155.821C366.394 155.821 366.394 157.296 366.578 160.062C366.762 162.827 366.946 166.884 367.499 172.416C367.683 175.182 367.868 178.132 368.236 181.451C368.605 184.77 368.973 188.458 369.526 192.33C371.184 200.074 373.027 209.11 375.237 219.435C375.237 234.555 375.237 252.257 375.053 272.909C380.396 285.816 385.739 300.199 390.161 315.872C391.267 319.744 392.372 323.801 393.109 327.857C393.662 329.886 393.846 331.914 394.215 334.126C394.399 336.155 394.583 338.367 394.767 340.58C395.32 349.247 395.32 358.097 395.504 367.133C395.689 403.642 395.136 443.839 394.215 486.802L394.583 486.433C348.338 486.433 298.776 486.618 247.371 486.618L247.924 487.171C248.293 484.221 248.477 481.27 248.845 478.136C252.715 439.967 256.584 402.904 260.269 367.501C262.48 349.8 265.796 332.651 269.112 316.056C270.771 307.759 272.797 299.645 275.561 291.901C276.851 288.029 278.509 284.341 280.167 280.469C281.825 276.781 283.299 273.093 284.957 269.405C285.694 248.385 286.616 228.102 287.353 208.925C289.195 198.784 291.037 188.827 293.064 179.238C293.985 174.444 295.091 169.834 296.012 165.224C297.118 160.615 298.039 156.189 299.513 151.948L299.144 152.133C300.803 151.948 302.461 151.58 303.935 151.395L303.566 151.026C302.276 166.515 301.171 181.266 300.066 194.358V194.727H300.434C324.386 195.649 345.021 196.202 361.603 196.94H361.788V196.755C361.051 175.919 360.682 161.168 360.314 153.423H360.129C362.156 154.161 363.814 154.714 364.92 155.267C366.025 155.636 366.394 155.821 366.394 155.821Z" fill="#C9CCCF"/>
<path d="M284.221 346.115C284.221 346.115 284.405 346.3 284.774 346.484C285.327 346.668 285.879 347.037 286.616 347.406C288.275 348.144 290.486 349.434 293.433 350.725C299.329 353.491 307.436 356.81 316.648 360.129C325.861 363.264 334.52 365.661 340.784 367.136C343.917 367.873 346.496 368.427 348.154 368.795C349.076 368.98 349.628 369.164 350.181 369.164C350.734 369.164 350.918 369.348 350.918 369.348C350.918 369.348 350.734 369.348 350.181 369.164C349.628 368.98 349.076 368.795 348.154 368.611C346.312 368.242 343.917 367.689 340.784 366.767C334.52 365.292 326.045 362.895 316.833 359.576C307.62 356.441 299.329 352.938 293.618 350.356C290.67 349.066 288.275 347.959 286.801 347.222C286.064 346.853 285.327 346.668 284.958 346.3C284.59 346.115 284.221 346.115 284.221 346.115Z" fill="black"/>
<path d="M299.517 385.944C299.517 385.944 299.701 385.944 300.07 386.129C300.438 386.313 300.991 386.313 301.544 386.497C302.833 386.866 304.676 387.235 306.887 387.788C311.493 388.894 317.757 390.37 324.574 391.66C331.575 392.951 337.84 394.057 342.446 394.795C344.841 395.164 346.684 395.348 347.973 395.532C348.526 395.532 349.079 395.717 349.447 395.717C349.816 395.717 350 395.717 350 395.717C350 395.717 349.816 395.717 349.447 395.532C349.079 395.532 348.526 395.348 347.973 395.164C346.684 394.979 344.841 394.611 342.63 394.242C338.024 393.504 331.76 392.213 324.758 390.923C317.757 389.448 311.493 388.157 306.887 387.235C304.676 386.682 302.833 386.313 301.544 386.129C300.991 385.944 300.438 385.944 300.07 385.76C299.701 385.944 299.517 385.944 299.517 385.944Z" fill="black"/>
<path d="M300.079 231.239C300.079 231.239 300.079 231.239 300.079 231.055C300.079 230.87 300.079 230.686 300.079 230.501C300.079 229.948 300.079 229.211 300.079 228.289C300.079 226.445 300.079 223.679 300.079 220.175L299.895 220.36C312.055 220.36 332.322 220.36 355.537 220.544C354.984 219.991 355.353 220.36 355.169 220.36V220.544V220.913V221.651V223.126C355.169 224.048 355.169 224.97 355.169 225.892C355.169 227.735 355.169 229.579 355.169 231.423L355.353 231.239C339.508 231.239 325.689 231.239 315.74 231.423C310.766 231.423 306.712 231.423 303.948 231.423C302.659 231.423 301.553 231.423 300.816 231.423C300.448 231.423 300.264 231.423 299.895 231.423C300.264 231.239 300.079 231.239 300.079 231.239C300.079 231.239 300.079 231.239 300.264 231.239C300.448 231.239 300.816 231.239 301.001 231.239C301.738 231.239 302.843 231.239 304.133 231.239C306.896 231.239 310.95 231.239 315.74 231.239C325.689 231.239 339.692 231.239 355.537 231.423H355.906V231.239C355.906 229.395 355.906 227.551 355.906 225.707C355.906 224.785 355.906 223.863 355.906 222.941V221.466V220.729V220.36V220.175C355.721 219.991 356.274 220.36 355.537 219.807C332.322 219.807 311.871 219.991 299.895 219.991H299.711V220.175C299.711 223.679 299.711 226.445 299.711 228.473C299.711 229.395 299.711 230.133 299.711 230.686C300.079 230.87 300.079 231.055 300.079 231.239C300.079 231.239 300.079 231.423 300.079 231.239Z" fill="black"/>
<path d="M312.965 268.115C312.965 268.115 311.859 268.115 310.017 267.562C309.096 267.194 307.99 266.64 306.885 265.718C305.779 264.796 304.674 263.506 304.121 261.846C303.384 260.187 303.568 258.158 303.568 255.946C303.568 253.733 303.568 251.336 303.568 248.754C303.568 243.591 303.568 237.875 303.568 231.606L303.384 231.79C314.992 231.79 328.442 231.79 342.997 231.79C346.313 231.79 349.445 231.79 352.578 231.79L352.209 231.606C352.209 241.563 352.209 251.151 352.209 259.633C352.025 261.662 351.104 263.69 349.63 264.981C348.156 266.456 346.498 267.378 344.471 267.562C343.55 267.747 342.628 267.747 341.707 267.747C340.786 267.747 339.865 267.747 338.943 267.747C337.101 267.747 335.443 267.747 333.785 267.747C327.336 267.747 321.993 267.747 318.492 267.747C316.65 267.747 315.36 267.747 314.439 267.747C314.07 267.747 313.702 267.747 313.333 267.747C313.149 268.115 312.965 268.115 312.965 268.115C312.965 268.115 313.149 268.115 313.333 268.115C313.518 268.115 313.886 268.115 314.439 268.115C315.36 268.115 316.834 268.115 318.492 268.115C322.177 268.115 327.336 268.115 333.785 268.115C335.443 268.115 337.101 268.115 338.943 268.115C339.865 268.115 340.786 268.115 341.707 268.115C342.628 268.115 343.55 268.115 344.655 267.931C346.682 267.562 348.524 266.64 349.998 265.165C351.472 263.69 352.578 261.662 352.762 259.449C352.946 250.783 352.762 241.379 352.762 231.422V231.237H352.393C349.261 231.237 346.129 231.237 342.813 231.237C328.441 231.237 314.807 231.237 303.2 231.237H303.016V231.422C303.016 237.691 303.016 243.407 303.016 248.57C303.016 251.151 303.016 253.549 303.016 255.761C303.016 256.868 303.016 257.974 303.016 258.896C303.016 260.002 303.2 260.924 303.568 261.846C304.121 263.69 305.227 264.981 306.332 265.903C307.438 266.825 308.543 267.378 309.649 267.747C310.57 268.115 311.307 268.115 311.859 268.115C312.044 268.115 312.228 268.115 312.412 268.115C312.965 268.115 312.965 268.115 312.965 268.115Z" fill="black"/>
<g opacity="0.3">
<g opacity="0.3">
<g opacity="0.3">
<path opacity="0.3" d="M309.835 267.562C320.521 272.91 333.786 273.094 344.473 267.931L309.835 267.562Z" fill="black"/>
</g>
</g>
</g>
<path d="M288.457 173.525C288.273 173.525 287.904 175.185 287.352 178.135C286.799 181.085 286.246 184.958 285.878 189.383C285.509 193.808 285.509 197.865 285.509 200.815C285.509 203.766 285.693 205.609 285.878 205.609C286.062 205.609 286.062 203.766 286.246 200.815C286.43 197.865 286.615 193.808 286.983 189.383C287.352 184.958 287.72 180.901 288.089 178.135C288.273 175.369 288.457 173.525 288.457 173.525Z" fill="black"/>
<path d="M418.908 199.896C418.908 199.896 430.884 236.22 431.805 243.043C433.279 253.369 429.963 258.163 424.62 260.007C418.54 262.035 410.617 260.929 406.564 257.979C400.668 253.922 393.667 240.277 390.903 233.823L388.139 227.923L402.879 224.788L418.908 199.896Z" fill="#F0BFA4"/>
<path d="M274.82 276.232L249.21 231.609C249.21 231.609 224.521 243.41 223.969 243.964C223.416 244.332 249.763 275.679 267.451 288.402L273.899 285.083L274.82 276.232Z" fill="#F0BFA4"/>
<path d="M305.609 265.719C305.609 265.719 294.739 262.769 293.633 263.506C292.528 264.059 284.421 268.3 284.421 268.3C284.421 268.3 282.026 271.25 280.552 272.357C280.552 272.357 277.788 274.938 275.946 274.938C274.103 274.938 272.998 274.569 272.998 274.569L266.549 287.477C266.549 287.477 269.866 291.718 272.261 291.718C274.656 291.718 287.553 286.37 287.553 286.37L290.686 285.633C290.686 285.633 302.477 287.292 303.398 283.789L303.583 282.867L291.975 280.654L287.553 280.839L295.292 278.81C295.292 278.81 306.346 279.364 307.452 279.179C308.557 278.995 309.847 277.52 309.478 276.598L307.268 276.045C307.268 276.045 310.031 274.57 310.031 273.094L299.898 270.329C299.898 270.329 306.531 267.931 305.609 265.719Z" fill="#F0BFA4"/>
<path d="M308.531 276.045C308.531 276.045 308.163 276.045 307.61 275.861C307.057 275.676 306.136 275.492 305.031 275.123C302.82 274.57 299.872 273.832 296.555 273.095C296.187 273.095 295.818 272.91 295.266 272.91C294.897 272.91 294.529 272.91 294.16 272.91C293.423 273.095 292.686 273.279 291.949 273.648C290.475 274.201 289.37 274.57 288.264 274.939C287.159 275.308 286.422 275.676 285.869 276.045C285.316 276.414 285.132 276.598 284.948 276.414C284.948 276.414 285.132 276.23 285.685 275.861C286.238 275.492 286.975 275.123 288.08 274.57C289.001 274.017 290.291 273.648 291.765 273.095C292.502 272.91 293.239 272.542 293.976 272.357C294.344 272.173 294.897 272.173 295.266 272.173C295.634 272.173 296.187 272.357 296.555 272.357C299.872 273.095 302.82 273.832 305.031 274.386C306.136 274.754 306.873 274.939 307.61 275.123C308.163 275.861 308.531 276.045 308.531 276.045Z" fill="#B18E7B"/>
<path d="M300.074 270.883C300.074 270.883 299.337 270.514 297.863 270.146C296.573 269.777 294.547 269.408 292.336 269.777C290.125 270.146 288.467 270.883 287.177 271.805C286.071 272.543 285.334 273.28 285.334 273.096C285.334 273.096 285.887 272.358 286.993 271.436C288.098 270.514 289.94 269.592 292.151 269.224C294.362 268.855 296.389 269.224 297.863 269.777C299.521 270.146 300.258 270.699 300.074 270.883Z" fill="#B18E7B"/>
<path d="M379.684 155.087C383.184 156.931 383.737 161.909 383.737 161.909L387.238 165.413L387.606 160.987L383 147.895C383 147.895 379.499 138.491 381.342 138.676C383.184 138.86 385.027 141.073 386.501 145.13C387.975 149.186 389.817 154.349 389.817 154.349C389.817 154.349 390.554 155.824 390.37 152.69C390.37 149.555 385.764 138.491 385.395 136.832C385.027 135.172 383.184 131.485 385.395 130.378C387.606 129.272 389.08 134.619 389.08 134.619L396.081 150.846C396.081 150.846 394.423 143.654 394.239 142.364C394.055 141.073 392.581 137.385 392.212 135.357C391.844 133.144 392.396 131.669 393.318 131.116C395.16 130.378 396.081 131.853 396.081 131.853L400.687 146.605C400.687 146.605 402.53 153.427 402.714 153.796C403.083 154.165 403.635 150.108 403.635 150.108L402.898 144.945C402.898 144.945 400.687 138.307 402.346 137.201C403.82 136.094 404.557 137.201 404.557 137.201L408.426 149.555L410.821 164.675L411.742 176.66L412.295 178.504L415.059 187.355L418.928 200.078L429.43 235.112L406.583 245.807L398.845 202.659L395.16 183.298C395.16 183.298 385.395 178.136 383.553 175.001L375.446 156.193C375.63 155.824 376.183 153.427 379.684 155.087Z" fill="#F0BFA4"/>
<path d="M404 170.022C404 170.207 402.895 169.285 401.052 167.994C399.21 166.888 396.446 165.228 393.314 165.781C391.84 165.966 390.55 166.519 389.813 167.441L389.445 167.81L389.076 167.441C387.602 165.966 386.128 164.491 385.023 163.569C384.102 162.647 383.549 161.909 383.549 161.909C383.549 161.909 384.286 162.462 385.391 163.2C386.497 164.122 387.971 165.228 389.629 166.888H389.076C389.997 165.781 391.471 165.044 393.13 164.859C394.972 164.675 396.63 164.859 397.92 165.413C399.394 165.966 400.499 166.703 401.236 167.441C403.079 168.916 404 170.022 404 170.022Z" fill="#B18E7B"/>
<path d="M395.126 183.296C395.126 183.296 395.126 184.218 395.495 185.877C395.863 187.721 396.232 189.934 396.784 192.884C397.89 198.785 399.548 206.898 401.022 215.749C402.496 224.784 403.602 232.897 404.523 238.797C404.891 241.563 405.26 243.96 405.444 245.804C405.628 247.464 405.812 248.386 405.812 248.386C405.812 248.386 405.812 247.464 405.812 245.804C405.628 244.145 405.444 241.748 405.076 238.797C404.523 232.897 403.417 224.599 401.943 215.749C400.469 206.713 398.811 198.6 397.521 192.884C396.784 189.934 396.232 187.537 395.863 186.062C395.495 184.218 395.311 183.296 395.126 183.296Z" fill="#B18E7B"/>
</g>
<defs>
<clipPath id="clip0_6763_67515">
<rect width="246.597" height="571.657" fill="white" transform="translate(16.7461 49.3428)"/>
</clipPath>
</defs>
</svg>
