<svg width="204" height="47" viewBox="0 0 204 47" fill="none" xmlns="http://www.w3.org/2000/svg">
<g clip-path="url(#clip0)">
<path fill-rule="evenodd" clip-rule="evenodd" d="M79.4356 6.36134C79.4356 4.51838 78.0174 3.09658 76.1791 3.09658C74.3468 3.09658 72.922 4.51838 72.922 6.36134C72.922 8.2043 74.3468 9.6261 76.1791 9.6261C78.0174 9.6261 79.4356 8.2043 79.4356 6.36134M71.0205 6.3612C71.0205 3.4979 73.2461 1.33618 76.1792 1.33618C79.1113 1.33618 81.3374 3.4979 81.3374 6.3612C81.3374 9.22505 79.1113 11.3862 76.1792 11.3862C73.2461 11.3862 71.0205 9.22505 71.0205 6.3612" fill="black"/>
<path fill-rule="evenodd" clip-rule="evenodd" d="M90.0825 4.58812C90.0825 3.68937 89.51 3.06391 88.4158 3.06391H86.7364C86.5611 3.06391 86.4185 3.20686 86.4185 3.38267V5.77496C86.4185 5.95077 86.5611 6.09316 86.7364 6.09316H88.4158C89.51 6.09316 90.0825 5.52576 90.0825 4.58812M91.9205 4.60734C91.9205 6.3676 90.6607 7.70012 88.7017 7.70012H86.7361C86.5607 7.70012 86.4181 7.84252 86.4181 8.01887V10.9402C86.4181 11.116 86.2761 11.2584 86.1007 11.2584H84.8404C84.6645 11.2584 84.5225 11.116 84.5225 10.9402V1.78183C84.5225 1.60602 84.6645 1.46362 84.8404 1.46362H88.7017C90.6607 1.46362 91.9205 2.87282 91.9205 4.60734" fill="black"/>
<path fill-rule="evenodd" clip-rule="evenodd" d="M96.8863 3.47247V5.21357C96.8863 5.38937 97.0284 5.53232 97.2043 5.53232H100.035C100.211 5.53232 100.353 5.67472 100.353 5.85107V6.88456C100.353 7.06036 100.211 7.20331 100.035 7.20331H97.2043C97.0284 7.20331 96.8863 7.34571 96.8863 7.52151V9.25001C96.8863 9.42636 97.0284 9.56876 97.2043 9.56876H100.506C100.681 9.56876 100.824 9.71171 100.824 9.88697V10.9402C100.824 11.1165 100.681 11.2589 100.506 11.2589H95.3086C95.1332 11.2589 94.9912 11.1165 94.9912 10.9402V1.78232C94.9912 1.60651 95.1332 1.46411 95.3086 1.46411H100.506C100.681 1.46411 100.824 1.60651 100.824 1.78232V2.83497C100.824 3.01132 100.681 3.15372 100.506 3.15372H97.2043C97.0284 3.15372 96.8863 3.29667 96.8863 3.47247" fill="black"/>
<path fill-rule="evenodd" clip-rule="evenodd" d="M113.474 1.78213V10.94C113.474 11.1158 113.332 11.2587 113.156 11.2587H111.833C111.736 11.2587 111.645 11.2144 111.584 11.1382L106.674 4.95652C106.487 4.72101 106.108 4.85355 106.108 5.15533V10.94C106.108 11.1158 105.966 11.2587 105.79 11.2587H104.556C104.38 11.2587 104.238 11.1158 104.238 10.94V1.78213C104.238 1.60632 104.38 1.46338 104.556 1.46338H105.866C105.963 1.46338 106.054 1.50774 106.114 1.58332L111.026 7.7426C111.213 7.9781 111.592 7.84501 111.592 7.54433V1.78213C111.592 1.60632 111.733 1.46338 111.909 1.46338H113.156C113.332 1.46338 113.474 1.60632 113.474 1.78213" fill="black"/>
<path fill-rule="evenodd" clip-rule="evenodd" d="M81.3374 23.2309C81.3374 26.1068 79.1178 28.2685 76.1792 28.2685C73.2461 28.2685 71.0205 26.1068 71.0205 23.2435C71.0205 20.3802 73.2461 18.219 76.1792 18.219C77.8657 18.219 79.3205 18.9376 80.2448 20.0866C80.3699 20.2421 80.3273 20.4738 80.1531 20.5702L79.0626 21.1738C78.9337 21.2455 78.7676 21.2225 78.6715 21.1102C78.0798 20.418 77.1932 19.9787 76.1721 19.9787C74.3469 19.9787 72.9222 21.3753 72.9222 23.2878C72.9222 25.0804 74.188 26.5088 76.2044 26.5088C77.639 26.5088 78.7048 25.7891 79.1719 24.6477C79.256 24.4407 79.0971 24.2129 78.8736 24.2129H77.0883C76.9129 24.2129 76.7709 24.0705 76.7709 23.8941V22.963C76.7709 22.7867 76.9129 22.6443 77.0883 22.6443H81.0091C81.1774 22.6443 81.3145 22.7746 81.3265 22.9428C81.3336 23.0348 81.3374 23.1312 81.3374 23.2309" fill="black"/>
<path fill-rule="evenodd" clip-rule="evenodd" d="M92.1483 23.2437C92.1483 21.4008 90.7296 19.979 88.8918 19.979C87.06 19.979 85.6347 21.4008 85.6347 23.2437C85.6347 25.0867 87.06 26.5085 88.8918 26.5085C90.7296 26.5085 92.1483 25.0867 92.1483 23.2437M83.7334 23.2438C83.7334 20.3805 85.9596 18.2188 88.8921 18.2188C91.8241 18.2188 94.0509 20.3805 94.0509 23.2438C94.0509 26.1071 91.8241 28.2688 88.8921 28.2688C85.9596 28.2688 83.7334 26.1071 83.7334 23.2438" fill="black"/>
<path fill-rule="evenodd" clip-rule="evenodd" d="M104.903 18.7778L101.442 27.9356C101.396 28.0594 101.277 28.1415 101.145 28.1415H99.625C99.4928 28.1415 99.3742 28.0594 99.3278 27.9356L95.8724 18.7778C95.7938 18.5691 95.9473 18.3462 96.1696 18.3462H97.4895C97.6239 18.3462 97.7435 18.4311 97.7889 18.5576L100.086 25.0121C100.187 25.2941 100.584 25.2941 100.684 25.0126L102.987 18.5576C103.032 18.4311 103.152 18.3462 103.286 18.3462H104.606C104.828 18.3462 104.983 18.5691 104.903 18.7778" fill="black"/>
<path fill-rule="evenodd" clip-rule="evenodd" d="M109.818 20.3546V22.0962C109.818 22.272 109.96 22.4144 110.135 22.4144H112.966C113.142 22.4144 113.284 22.5568 113.284 22.7332V23.7666C113.284 23.9424 113.142 24.0854 112.966 24.0854H110.135C109.96 24.0854 109.818 24.2278 109.818 24.4041V26.1326C109.818 26.3084 109.96 26.4508 110.135 26.4508H113.437C113.613 26.4508 113.755 26.5938 113.755 26.7696V27.8222C113.755 27.9986 113.613 28.141 113.437 28.141H108.239C108.064 28.141 107.922 27.9986 107.922 27.8222V18.6649C107.922 18.4886 108.064 18.3462 108.239 18.3462H113.437C113.613 18.3462 113.755 18.4886 113.755 18.6649V19.7176C113.755 19.8934 113.613 20.0358 113.437 20.0358H110.135C109.96 20.0358 109.818 20.1787 109.818 20.3546" fill="black"/>
<path fill-rule="evenodd" clip-rule="evenodd" d="M119.064 22.1598C119.064 22.3356 119.207 22.4786 119.382 22.4786H120.858C121.768 22.4786 122.258 22.0125 122.258 21.2288C122.258 20.4571 121.768 19.9532 120.858 19.9532H119.382C119.207 19.9532 119.064 20.0956 119.064 20.2719V22.1598ZM120.466 24.0021H119.382C119.207 24.0021 119.064 24.1451 119.064 24.3209V27.8222C119.064 27.9986 118.922 28.141 118.747 28.141H117.486C117.311 28.141 117.169 27.9986 117.169 27.8222V18.6649C117.169 18.4886 117.311 18.3462 117.486 18.3462H120.985C122.995 18.3462 124.096 19.6469 124.096 21.2473C124.096 22.3191 123.546 23.179 122.702 23.639C122.544 23.7245 122.489 23.9233 122.581 24.0783L124.696 27.6601C124.822 27.8726 124.669 28.141 124.423 28.141H123.107C122.991 28.141 122.884 28.078 122.829 27.9756L120.745 24.1675C120.689 24.0657 120.582 24.0021 120.466 24.0021V24.0021Z" fill="black"/>
<path fill-rule="evenodd" clip-rule="evenodd" d="M137.071 18.6647V27.8226C137.071 27.9984 136.928 28.1413 136.753 28.1413H135.43C135.333 28.1413 135.241 28.0969 135.181 28.0208L130.271 21.8391C130.084 21.6036 129.705 21.7361 129.705 22.0379V27.8226C129.705 27.9984 129.562 28.1413 129.387 28.1413H128.152C127.977 28.1413 127.835 27.9984 127.835 27.8226V18.6647C127.835 18.4889 127.977 18.3459 128.152 18.3459H129.463C129.56 18.3459 129.651 18.3903 129.711 18.4659L134.622 24.6252C134.809 24.8607 135.188 24.7276 135.188 24.4264V18.6647C135.188 18.4889 135.33 18.3459 135.506 18.3459H136.753C136.928 18.3459 137.071 18.4889 137.071 18.6647" fill="black"/>
<path fill-rule="evenodd" clip-rule="evenodd" d="M151.604 18.6647V27.8226C151.604 27.9984 151.461 28.1413 151.286 28.1413H150.026C149.85 28.1413 149.708 27.9984 149.708 27.8226V22.5105C149.708 22.1617 149.228 22.0669 149.096 22.3901L146.832 27.943C146.782 28.063 146.666 28.1413 146.538 28.1413H145.978C145.849 28.1413 145.732 28.0624 145.684 27.9425L143.431 22.3873C143.3 22.0636 142.82 22.1573 142.82 22.5073V27.8226C142.82 27.9984 142.677 28.1413 142.502 28.1413H141.242C141.066 28.1413 140.924 27.9984 140.924 27.8226V18.6647C140.924 18.4889 141.066 18.3459 141.242 18.3459H143.282C143.41 18.3459 143.526 18.4237 143.575 18.5431L145.962 24.3382C146.069 24.6005 146.44 24.6011 146.549 24.3393L148.959 18.542C149.008 18.4237 149.124 18.3459 149.252 18.3459H151.286C151.461 18.3459 151.604 18.4889 151.604 18.6647" fill="black"/>
<path fill-rule="evenodd" clip-rule="evenodd" d="M157.359 20.3546V22.0962C157.359 22.272 157.501 22.4144 157.677 22.4144H160.508C160.683 22.4144 160.825 22.5568 160.825 22.7332V23.7666C160.825 23.9424 160.683 24.0854 160.508 24.0854H157.677C157.501 24.0854 157.359 24.2278 157.359 24.4041V26.1326C157.359 26.3084 157.501 26.4508 157.677 26.4508H160.978C161.154 26.4508 161.296 26.5938 161.296 26.7696V27.8222C161.296 27.9986 161.154 28.141 160.978 28.141H155.78C155.605 28.141 155.463 27.9986 155.463 27.8222V18.6649C155.463 18.4886 155.605 18.3462 155.78 18.3462H160.978C161.154 18.3462 161.296 18.4886 161.296 18.6649V19.7176C161.296 19.8934 161.154 20.0358 160.978 20.0358H157.677C157.501 20.0358 157.359 20.1787 157.359 20.3546" fill="black"/>
<path fill-rule="evenodd" clip-rule="evenodd" d="M173.947 18.6647V27.8226C173.947 27.9984 173.804 28.1413 173.629 28.1413H172.306C172.21 28.1413 172.118 28.0969 172.058 28.0208L167.147 21.8391C166.96 21.6036 166.581 21.7361 166.581 22.0379V27.8226C166.581 27.9984 166.439 28.1413 166.264 28.1413H165.028C164.853 28.1413 164.711 27.9984 164.711 27.8226V18.6647C164.711 18.4889 164.853 18.3459 165.028 18.3459H166.339C166.436 18.3459 166.527 18.3903 166.587 18.4659L171.498 24.6252C171.685 24.8607 172.064 24.7276 172.064 24.4264V18.6647C172.064 18.4889 172.206 18.3459 172.382 18.3459H173.629C173.804 18.3459 173.947 18.4889 173.947 18.6647" fill="black"/>
<mask id="mask0" mask-type="alpha" maskUnits="userSpaceOnUse" x="176" y="18" width="8" height="11">
<path fill-rule="evenodd" clip-rule="evenodd" d="M176.884 18.3459H183.805V28.1413H176.884V18.3459Z" fill="white"/>
</mask>
<g mask="url(#mask0)">
<path fill-rule="evenodd" clip-rule="evenodd" d="M183.487 20.0361H181.609C181.434 20.0361 181.292 20.1785 181.292 20.3549V27.8226C181.292 27.9984 181.15 28.1413 180.974 28.1413H179.72C179.545 28.1413 179.403 27.9984 179.403 27.8226V20.3549C179.403 20.1785 179.261 20.0361 179.085 20.0361H177.202C177.026 20.0361 176.884 19.8937 176.884 19.7174V18.6647C176.884 18.4889 177.026 18.3459 177.202 18.3459H183.487C183.662 18.3459 183.805 18.4889 183.805 18.6647V19.7174C183.805 19.8937 183.662 20.0361 183.487 20.0361" fill="black"/>
</g>
<path fill-rule="evenodd" clip-rule="evenodd" d="M77.2529 38.3533C77.2529 37.4545 76.6804 36.8291 75.5861 36.8291H73.9068C73.7314 36.8291 73.5888 36.972 73.5888 37.1478V39.5401C73.5888 39.7159 73.7314 39.8583 73.9068 39.8583H75.5861C76.6804 39.8583 77.2529 39.2909 77.2529 38.3533M79.0914 38.373C79.0914 40.1327 77.8322 41.4653 75.8726 41.4653H73.907C73.7316 41.4653 73.589 41.6077 73.589 41.784V44.7054C73.589 44.8812 73.447 45.0236 73.2716 45.0236H72.0113C71.8354 45.0236 71.6934 44.8812 71.6934 44.7054V35.547C71.6934 35.3712 71.8354 35.2288 72.0113 35.2288H75.8726C77.8322 35.2288 79.0914 36.6385 79.0914 38.373" fill="black"/>
<path fill-rule="evenodd" clip-rule="evenodd" d="M84.0575 39.0423C84.0575 39.2181 84.2001 39.3611 84.3755 39.3611H85.8511C86.7607 39.3611 87.2507 38.895 87.2507 38.1107C87.2507 37.339 86.7607 36.8357 85.8511 36.8357H84.3755C84.2001 36.8357 84.0575 36.9781 84.0575 37.1539V39.0423ZM85.4596 40.8847H84.3757C84.2004 40.8847 84.0578 41.0277 84.0578 41.2035V44.7048C84.0578 44.8812 83.9157 45.0236 83.7398 45.0236H82.4795C82.3041 45.0236 82.1621 44.8812 82.1621 44.7048V35.547C82.1621 35.3712 82.3041 35.2288 82.4795 35.2288H85.9786C87.9884 35.2288 89.0892 36.5295 89.0892 38.1298C89.0892 39.2011 88.5402 40.0615 87.6951 40.521C87.5377 40.607 87.4825 40.8058 87.5738 40.9603L89.6891 44.5427C89.8147 44.7552 89.6618 45.0236 89.4159 45.0236H88.1004C87.9841 45.0236 87.8775 44.96 87.8218 44.8582L85.7382 41.0501C85.6825 40.9482 85.5754 40.8847 85.4596 40.8847V40.8847Z" fill="black"/>
<path fill-rule="evenodd" clip-rule="evenodd" d="M100.309 40.1262C100.309 38.2832 98.89 36.8614 97.0522 36.8614C95.2205 36.8614 93.7952 38.2832 93.7952 40.1262C93.7952 41.9691 95.2205 43.3909 97.0522 43.3909C98.89 43.3909 100.309 41.9691 100.309 40.1262M91.8936 40.1261C91.8936 37.2622 94.1197 35.1011 97.0523 35.1011C99.9843 35.1011 102.211 37.2622 102.211 40.1261C102.211 42.9894 99.9843 45.1511 97.0523 45.1511C94.1197 45.1511 91.8936 42.9894 91.8936 40.1261" fill="black"/>
<path fill-rule="evenodd" clip-rule="evenodd" d="M108.658 43.3333C110.732 43.3333 111.737 42.1985 111.737 40.1261C111.737 38.0531 110.732 36.9188 108.658 36.9188H107.602C107.426 36.9188 107.284 37.0612 107.284 37.2371V43.0146C107.284 43.1909 107.426 43.3333 107.602 43.3333H108.658ZM105.396 35.547C105.396 35.3712 105.538 35.2288 105.713 35.2288H108.741C111.986 35.2288 113.702 37.1604 113.702 40.1262C113.702 43.0913 111.986 45.0236 108.741 45.0236H105.713C105.538 45.0236 105.396 44.8812 105.396 44.7048V35.547Z" fill="black"/>
<path fill-rule="evenodd" clip-rule="evenodd" d="M116.749 41.6312V35.5475C116.749 35.3712 116.891 35.2288 117.066 35.2288H118.327C118.502 35.2288 118.645 35.3712 118.645 35.5475V41.3376C118.645 42.9002 119.541 43.4681 120.718 43.4681C121.901 43.4681 122.798 42.9002 122.798 41.3376V35.5475C122.798 35.3712 122.94 35.2288 123.116 35.2288H124.383C124.558 35.2288 124.7 35.3712 124.7 35.5475V41.6312C124.7 43.9715 122.982 45.1512 120.718 45.1512C118.467 45.1512 116.749 43.9715 116.749 41.6312" fill="black"/>
<path fill-rule="evenodd" clip-rule="evenodd" d="M127.688 40.1261C127.688 37.2622 129.907 35.1011 132.846 35.1011C134.167 35.1011 135.425 35.5929 136.331 36.3942C136.473 36.5196 136.479 36.7398 136.34 36.8696L135.467 37.6905C135.347 37.8028 135.162 37.8061 135.04 37.6949C134.464 37.1691 133.678 36.8613 132.846 36.8613C131.007 36.8613 129.589 38.2766 129.589 40.1261C129.589 41.9751 131.007 43.3908 132.846 43.3908C133.678 43.3908 134.464 43.083 135.04 42.5567C135.162 42.4461 135.347 42.4488 135.467 42.5617L136.34 43.3826C136.479 43.5124 136.473 43.7326 136.331 43.858C135.425 44.6587 134.167 45.1511 132.846 45.1511C129.907 45.1511 127.688 42.9894 127.688 40.1261" fill="black"/>
<path fill-rule="evenodd" clip-rule="evenodd" d="M145.218 36.9187H143.341C143.165 36.9187 143.023 37.0611 143.023 37.2374V44.7051C143.023 44.8809 142.881 45.0233 142.705 45.0233H141.452C141.276 45.0233 141.134 44.8809 141.134 44.7051V37.2374C141.134 37.0611 140.992 36.9187 140.816 36.9187H138.933C138.757 36.9187 138.615 36.7757 138.615 36.5999V35.5473C138.615 35.3709 138.757 35.2285 138.933 35.2285H145.218C145.393 35.2285 145.536 35.3709 145.536 35.5473V36.5999C145.536 36.7757 145.393 36.9187 145.218 36.9187" fill="black"/>
<path fill-rule="evenodd" clip-rule="evenodd" d="M147.832 43.3629L148.52 42.502C148.636 42.3563 148.851 42.3415 148.985 42.4713C149.642 43.1066 150.547 43.5376 151.342 43.5376C152.105 43.5376 152.658 43.1427 152.658 42.4472C152.658 41.5736 151.787 41.2483 150.674 40.7576C149.395 40.1962 148.047 39.5587 148.047 37.8302C148.047 36.0957 149.395 35.1011 151.061 35.1011C152.164 35.1011 153.202 35.514 154.054 36.197C154.184 36.3016 154.203 36.4938 154.104 36.6291L153.489 37.4665C153.382 37.6111 153.175 37.6412 153.036 37.5268C152.38 36.9807 151.638 36.7146 151.017 36.7146C150.4 36.7146 149.911 37.0273 149.911 37.639C149.911 38.4359 150.75 38.7487 151.876 39.2334C153.161 39.8013 154.554 40.5024 154.554 42.3261C154.554 44.2009 153.078 45.1445 151.335 45.1445C150.078 45.1445 148.789 44.639 147.873 43.8033C147.746 43.6882 147.726 43.4965 147.832 43.3629" fill="black"/>
<path fill-rule="evenodd" clip-rule="evenodd" d="M40.354 0.602664L38.0021 4.68676C37.6853 5.23608 37.8481 5.93986 38.3774 6.28764C43.8869 9.90675 47.528 16.1471 47.528 23.2434C47.528 30.3404 43.8869 36.5801 38.3774 40.1998C37.8481 40.5476 37.6853 41.2508 38.0021 41.8007L40.354 45.8848C40.6992 46.4839 41.4744 46.6669 42.0552 46.2928C49.6171 41.4233 54.63 32.9232 54.63 23.2434C54.63 13.5642 49.6171 5.06411 42.0552 0.194091C41.4744 -0.179979 40.6992 0.00294839 40.354 0.602664" fill="#276EF1"/>
<path fill-rule="evenodd" clip-rule="evenodd" d="M16.6284 41.8009C16.9452 41.251 16.7824 40.5478 16.2531 40.2C10.7436 36.5804 7.10194 30.3406 7.10194 23.2437C7.10194 16.1473 10.7436 9.90699 16.2531 6.28789C16.7824 5.93956 16.9452 5.23633 16.6284 4.68645L14.2765 0.602908C13.9313 0.00319253 13.1561 -0.179734 12.5753 0.194335C5.01342 5.06381 0 13.5644 0 23.2437C0 32.9235 5.01342 41.4236 12.5753 46.293C13.1561 46.6671 13.9313 46.4842 14.2765 45.885L16.6284 41.8009Z" fill="#276EF1"/>
</g>
<defs>
<clipPath id="clip0">
<rect width="203.805" height="46.4872" fill="white"/>
</clipPath>
</defs>
</svg>
