<svg width="28" height="24" viewBox="0 0 28 24" fill="none" xmlns="http://www.w3.org/2000/svg">
<mask id="mask0_7092_64042" style="mask-type:alpha" maskUnits="userSpaceOnUse" x="0" y="0" width="9" height="24">
<path d="M0.285156 0.000976562H8.75612V23.9996H0.285156V0.000976562Z" fill="#CCCCCC"/>
</mask>
<g mask="url(#mask0_7092_64042)">
<path fill-rule="evenodd" clip-rule="evenodd" d="M8.67482 21.5797C8.75219 21.4432 8.77567 21.2815 8.74045 21.1277C8.70523 20.974 8.61398 20.8399 8.48542 20.753C5.70562 18.8846 3.8683 15.6632 3.8683 11.9993C3.8683 8.33593 5.70562 5.11458 8.48542 3.24616C8.61393 3.15922 8.70515 3.02515 8.74036 2.87142C8.77558 2.7177 8.75213 2.55598 8.67482 2.41943L7.48818 0.311254C7.44674 0.238042 7.39124 0.174226 7.32504 0.123677C7.25883 0.0731273 7.18331 0.0368977 7.10305 0.0171846C7.02279 -0.0025284 6.93946 -0.00531406 6.85812 0.00899657C6.77678 0.0233072 6.69912 0.0544159 6.62985 0.100436C2.81464 2.6142 0.285156 7.0027 0.285156 11.9996C0.285156 16.9965 2.81441 21.3847 6.62985 23.8987C6.69912 23.9447 6.77676 23.9758 6.85809 23.9901C6.93941 24.0044 7.02272 24.0017 7.10297 23.982C7.18322 23.9623 7.25874 23.9261 7.32495 23.8756C7.39117 23.8251 7.4467 23.7613 7.48818 23.6882L8.67482 21.5797Z" fill="black"/>
</g>
<path fill-rule="evenodd" clip-rule="evenodd" d="M20.6468 0.311073L19.4604 2.41973C19.3831 2.5562 19.3597 2.7178 19.3949 2.87143C19.43 3.02505 19.5212 3.15906 19.6495 3.24598C22.4293 5.1144 24.2664 8.33599 24.2664 11.9996C24.2664 15.6633 22.4293 18.8846 19.6495 20.7533C19.5212 20.8402 19.43 20.9742 19.3949 21.1279C19.3597 21.2815 19.3831 21.4431 19.4604 21.5796L20.6468 23.688C20.6882 23.7612 20.7438 23.825 20.81 23.8755C20.8762 23.926 20.9517 23.9622 21.0319 23.9819C21.1122 24.0016 21.1955 24.0044 21.2768 23.9902C21.3582 23.9759 21.4358 23.9448 21.5051 23.8988C25.3208 21.3848 27.8496 16.9965 27.8496 11.9996C27.8496 7.00276 25.3203 2.6145 21.5051 0.100256C21.4358 0.0542849 21.3582 0.0232226 21.2769 0.00895139C21.1955 -0.00531982 21.1122 -0.00250277 21.032 0.0172318C20.9518 0.0369664 20.8763 0.0732075 20.8101 0.123759C20.7439 0.17431 20.6884 0.238118 20.647 0.311316" fill="black"/>
</svg>
