<svg width="398" height="68" viewBox="0 0 398 68" fill="none" xmlns="http://www.w3.org/2000/svg">
<path d="M20.811 41.9984C32.3146 41.9984 41.622 32.7963 41.622 21.4995C41.622 10.1685 32.2797 1.00065 20.811 1.00065H3.03276C1.35951 0.966309 0 2.30543 0 3.95359V10.9239C0.801764 11.6793 1.67325 12.366 2.57959 12.9498C3.48593 13.6365 4.84544 14.3232 5.96094 14.7696C6.7627 15.0099 7.91306 15.319 8.78454 15.422C12.375 15.8684 15.8261 14.7696 18.4406 12.7094C18.4754 12.6751 18.5103 12.6407 18.5451 12.6407C20.1835 11.3016 22.3448 10.6149 24.6107 10.8552C25.4124 10.9582 26.1445 11.1643 26.8765 11.4733C27.1205 11.5763 27.3297 11.6793 27.5388 11.7823C30.2927 13.2931 31.966 16.3147 31.5825 19.5767C31.4082 20.9845 30.8853 22.2549 30.0487 23.3194C30.0836 23.3881 30.1533 23.4567 30.1881 23.5254C31.1642 25.0019 31.6522 26.856 31.4431 28.7789C31.3036 29.912 30.9202 30.9764 30.3624 31.9035C29.8047 29.5686 28.6195 27.4741 26.9462 25.8259C26.6674 25.5513 26.3536 25.2766 26.0747 25.0362C25.1684 25.4826 24.2969 25.9633 23.4952 26.5127C23.1466 26.7187 22.8328 26.9591 22.5191 27.1994C20.4973 28.7102 18.7543 30.5987 17.3948 32.7619C17.1159 33.2083 16.8719 33.6547 16.6279 34.101C16.593 34.1354 16.593 34.1697 16.5582 34.2041C16.3839 34.5131 16.2444 34.7878 16.0353 35.0625C16.0004 35.0968 16.0004 35.1311 15.9656 35.1655C15.7913 35.4402 15.617 35.6805 15.4078 35.9552C15.3729 35.9896 15.3729 36.0239 15.3381 36.0582C15.1638 36.2642 14.9895 36.4703 14.8152 36.6763C14.7803 36.745 14.7106 36.7793 14.6758 36.848C14.5015 37.054 14.2923 37.2257 14.118 37.4317C14.0832 37.466 14.0483 37.5004 14.0134 37.569C13.9786 37.6034 13.9437 37.6377 13.874 37.672C13.6997 37.8437 13.4905 38.0154 13.2814 38.1871C13.2117 38.2558 13.142 38.2901 13.0722 38.3588C12.8979 38.4961 12.7236 38.6335 12.5493 38.7365C12.5145 38.7708 12.4448 38.8052 12.4099 38.8395C11.8173 39.2515 11.1898 39.5949 10.5624 39.9039C9.34229 40.4533 8.01764 40.831 6.62326 41.0027C6.23981 41.037 5.85636 41.0714 5.47291 41.0714C5.36833 41.0714 5.26375 41.0714 5.15917 41.0714C3.38135 41.0714 1.67325 40.6937 0.104578 40.0413V42.0671V62.566V64.4545C0.104578 66.034 1.35951 67.3045 2.89332 67.4418C2.96304 67.4418 3.03276 67.4761 3.13734 67.4761C3.24191 67.4761 3.27677 67.4418 3.38135 67.4418H12.8979C12.8979 67.3388 12.8979 67.2358 12.8979 67.1328C12.8979 65.519 13.386 64.0082 14.2574 62.7377C14.3272 62.669 14.3969 62.566 14.4317 62.463C14.9546 61.7076 15.2684 60.7462 15.2684 59.7504C15.2684 59.4757 15.2335 59.201 15.1986 58.9264C15.0941 58.3426 14.8849 57.7932 14.606 57.3125L14.5712 57.2782C14.5363 57.2095 14.5015 57.1408 14.4317 57.0722C14.0134 56.3511 13.7694 55.527 13.7694 54.6343C13.7694 53.5699 14.118 52.5741 14.7106 51.7844C14.4317 50.9946 14.0134 50.2735 13.4905 49.6212C14.5015 49.6212 15.4427 49.9302 16.2096 50.4796C16.9416 50.0675 17.8131 49.7928 18.7194 49.7928C21.4385 49.7928 23.6346 51.956 23.6346 54.6343C23.6346 54.9433 23.5997 55.2523 23.53 55.5614C23.4952 55.63 23.4952 55.7331 23.4603 55.8361C23.3906 56.1451 23.3557 56.4541 23.3557 56.7631C23.3557 58.3083 24.1226 59.7161 25.273 60.6088C25.3776 60.6775 25.4821 60.7462 25.5867 60.8149C25.5867 60.8149 25.6216 60.8149 25.6216 60.8492C27.5737 62.2913 28.8286 64.5575 28.8286 67.1328C28.8286 67.2358 28.8286 67.3388 28.8286 67.4418H38.4498C38.5195 67.4418 38.5892 67.4761 38.6938 67.4761C38.7984 67.4761 38.8332 67.4418 38.9378 67.4418C40.5065 67.3388 41.7266 66.034 41.7266 64.4545V62.566C41.6568 51.1663 32.3146 41.9984 20.811 41.9984Z" fill="white"/>
<path d="M4.06147 12.3162C3.82569 12.2001 4.29726 12.3935 4.06147 12.3162V12.3162Z" fill="#0C1462"/>
<path d="M63.374 67.64C58.5953 67.64 54.798 66.2747 51.982 63.544C49.2086 60.8133 47.7366 56.9307 47.566 51.896L47.502 50.296C47.502 44.9627 48.8886 40.76 51.662 37.688C54.478 34.616 58.3606 33.08 63.31 33.08C68.3873 33.08 72.2913 34.616 75.022 37.688C77.7953 40.76 79.182 44.856 79.182 49.976V51.32C79.182 51.7467 79.0326 52.1093 78.734 52.408C78.4353 52.7067 78.0513 52.856 77.582 52.856H56.334V53.368C56.4193 55.7573 57.0593 57.7413 58.254 59.32C59.4913 60.856 61.1766 61.624 63.31 61.624C65.742 61.624 67.726 60.6427 69.262 58.68C69.646 58.2107 69.9446 57.9333 70.158 57.848C70.3713 57.72 70.734 57.656 71.246 57.656H76.878C77.262 57.656 77.582 57.7627 77.838 57.976C78.1366 58.1893 78.286 58.488 78.286 58.872C78.286 59.896 77.6673 61.112 76.43 62.52C75.2353 63.8853 73.5073 65.08 71.246 66.104C68.9846 67.128 66.3606 67.64 63.374 67.64ZM70.35 47.416V47.288C70.35 44.7707 69.71 42.7653 68.43 41.272C67.1926 39.736 65.486 38.968 63.31 38.968C61.134 38.968 59.4273 39.736 58.19 41.272C56.9526 42.7653 56.334 44.7707 56.334 47.288V47.416H70.35Z" fill="white"/>
<path d="M98.326 67.64C94.0166 67.64 90.71 66.2747 88.406 63.544C86.102 60.7707 84.8433 57.08 84.63 52.472L84.566 50.36L84.63 48.248C84.8006 43.7253 86.038 40.0773 88.342 37.304C90.6886 34.488 94.0166 33.08 98.326 33.08C102.422 33.08 105.686 34.488 108.118 37.304V23.096C108.118 22.6267 108.267 22.264 108.566 22.008C108.865 21.7093 109.227 21.56 109.654 21.56H115.222C115.691 21.56 116.054 21.7093 116.31 22.008C116.609 22.264 116.758 22.6267 116.758 23.096V65.464C116.758 65.8907 116.609 66.2533 116.31 66.552C116.054 66.8507 115.691 67 115.222 67H110.038C109.611 67 109.249 66.8507 108.95 66.552C108.651 66.2533 108.502 65.8907 108.502 65.464V63.096C106.155 66.1253 102.763 67.64 98.326 67.64ZM100.758 60.728C103.19 60.728 104.982 59.96 106.134 58.424C107.329 56.8453 107.99 54.904 108.118 52.6C108.161 52.088 108.182 51.2773 108.182 50.168C108.182 49.016 108.161 48.184 108.118 47.672C108.033 45.5387 107.371 43.7253 106.134 42.232C104.897 40.7387 103.105 39.992 100.758 39.992C96.1926 39.992 93.7606 42.808 93.462 48.44L93.398 50.36L93.462 52.28C93.7606 57.912 96.1926 60.728 100.758 60.728Z" fill="white"/>
<path d="M139.686 67.64C134.908 67.64 131.11 66.2747 128.294 63.544C125.521 60.8133 124.049 56.9307 123.878 51.896L123.814 50.296C123.814 44.9627 125.201 40.76 127.974 37.688C130.79 34.616 134.673 33.08 139.622 33.08C144.7 33.08 148.604 34.616 151.334 37.688C154.108 40.76 155.494 44.856 155.494 49.976V51.32C155.494 51.7467 155.345 52.1093 155.046 52.408C154.748 52.7067 154.364 52.856 153.894 52.856H132.646V53.368C132.732 55.7573 133.372 57.7413 134.566 59.32C135.804 60.856 137.489 61.624 139.622 61.624C142.054 61.624 144.038 60.6427 145.574 58.68C145.958 58.2107 146.257 57.9333 146.47 57.848C146.684 57.72 147.046 57.656 147.558 57.656H153.19C153.574 57.656 153.894 57.7627 154.15 57.976C154.449 58.1893 154.598 58.488 154.598 58.872C154.598 59.896 153.98 61.112 152.742 62.52C151.548 63.8853 149.82 65.08 147.558 66.104C145.297 67.128 142.673 67.64 139.686 67.64ZM146.662 47.416V47.288C146.662 44.7707 146.022 42.7653 144.742 41.272C143.505 39.736 141.798 38.968 139.622 38.968C137.446 38.968 135.74 39.736 134.502 41.272C133.265 42.7653 132.646 44.7707 132.646 47.288V47.416H146.662Z" fill="white"/>
<path d="M176.686 67.64C171.908 67.64 168.11 66.2747 165.294 63.544C162.521 60.8133 161.049 56.9307 160.878 51.896L160.814 50.296C160.814 44.9627 162.201 40.76 164.974 37.688C167.79 34.616 171.673 33.08 176.622 33.08C181.7 33.08 185.604 34.616 188.334 37.688C191.108 40.76 192.494 44.856 192.494 49.976V51.32C192.494 51.7467 192.345 52.1093 192.046 52.408C191.748 52.7067 191.364 52.856 190.894 52.856H169.646V53.368C169.732 55.7573 170.372 57.7413 171.566 59.32C172.804 60.856 174.489 61.624 176.622 61.624C179.054 61.624 181.038 60.6427 182.574 58.68C182.958 58.2107 183.257 57.9333 183.47 57.848C183.684 57.72 184.046 57.656 184.558 57.656H190.19C190.574 57.656 190.894 57.7627 191.15 57.976C191.449 58.1893 191.598 58.488 191.598 58.872C191.598 59.896 190.98 61.112 189.742 62.52C188.548 63.8853 186.82 65.08 184.558 66.104C182.297 67.128 179.673 67.64 176.686 67.64ZM183.662 47.416V47.288C183.662 44.7707 183.022 42.7653 181.742 41.272C180.505 39.736 178.798 38.968 176.622 38.968C174.446 38.968 172.74 39.736 171.502 41.272C170.265 42.7653 169.646 44.7707 169.646 47.288V47.416H183.662Z" fill="white"/>
<path d="M200.822 67C200.396 67 200.033 66.8507 199.734 66.552C199.436 66.2533 199.286 65.8907 199.286 65.464V35.256C199.286 34.7867 199.436 34.424 199.734 34.168C200.033 33.8693 200.396 33.72 200.822 33.72H205.878C206.348 33.72 206.71 33.8693 206.966 34.168C207.265 34.424 207.414 34.7867 207.414 35.256V37.432C209.718 34.5307 212.812 33.08 216.694 33.08C221.43 33.08 224.737 34.9787 226.614 38.776C227.638 37.0693 229.089 35.704 230.966 34.68C232.844 33.6133 234.87 33.08 237.046 33.08C240.545 33.08 243.404 34.2747 245.622 36.664C247.841 39.0533 248.95 42.5307 248.95 47.096V65.464C248.95 65.8907 248.801 66.2533 248.502 66.552C248.246 66.8507 247.884 67 247.414 67H242.102C241.676 67 241.313 66.8507 241.014 66.552C240.716 66.2533 240.566 65.8907 240.566 65.464V47.608C240.566 44.92 239.99 42.9787 238.838 41.784C237.729 40.5893 236.257 39.992 234.422 39.992C232.758 39.992 231.329 40.6107 230.134 41.848C228.982 43.0427 228.406 44.9627 228.406 47.608V65.464C228.406 65.8907 228.257 66.2533 227.958 66.552C227.702 66.8507 227.34 67 226.87 67H221.494C221.068 67 220.705 66.8507 220.406 66.552C220.108 66.2533 219.958 65.8907 219.958 65.464V47.608C219.958 44.9627 219.382 43.0427 218.23 41.848C217.078 40.6107 215.606 39.992 213.814 39.992C212.15 39.992 210.721 40.6107 209.526 41.848C208.374 43.0427 207.798 44.9627 207.798 47.608V65.464C207.798 65.8907 207.649 66.2533 207.35 66.552C207.094 66.8507 206.732 67 206.262 67H200.822Z" fill="white"/>
<path d="M273.483 67.64C269.643 67.64 266.358 67.064 263.627 65.912C260.896 64.76 258.827 63.2453 257.419 61.368C256.011 59.4907 255.264 57.4427 255.179 55.224C255.179 54.8827 255.307 54.584 255.563 54.328C255.819 54.0293 256.139 53.88 256.523 53.88H262.347C262.816 53.88 263.2 53.9867 263.499 54.2C263.798 54.4133 264.075 54.712 264.331 55.096C264.758 56.5467 265.718 57.7627 267.211 58.744C268.747 59.7253 270.838 60.216 273.483 60.216C276.47 60.216 278.71 59.7253 280.203 58.744C281.739 57.72 282.507 56.3333 282.507 54.584C282.507 53.432 282.123 52.472 281.355 51.704C280.587 50.936 279.414 50.2747 277.835 49.72C276.299 49.1227 273.995 48.4187 270.923 47.608C265.888 46.4133 262.198 44.8347 259.851 42.872C257.504 40.9093 256.331 38.0933 256.331 34.424C256.331 31.9493 257.014 29.752 258.379 27.832C259.744 25.8693 261.686 24.3333 264.203 23.224C266.763 22.1147 269.728 21.56 273.099 21.56C276.64 21.56 279.691 22.1787 282.251 23.416C284.854 24.6533 286.816 26.2107 288.139 28.088C289.504 29.9227 290.23 31.7573 290.315 33.592C290.315 33.9333 290.187 34.2533 289.931 34.552C289.675 34.808 289.355 34.936 288.971 34.936H282.891C281.952 34.936 281.312 34.552 280.971 33.784C280.758 32.4187 279.926 31.288 278.475 30.392C277.024 29.4533 275.232 28.984 273.099 28.984C270.752 28.984 268.896 29.432 267.531 30.328C266.208 31.224 265.547 32.5253 265.547 34.232C265.547 35.384 265.888 36.344 266.571 37.112C267.254 37.88 268.32 38.5627 269.771 39.16C271.222 39.7147 273.334 40.3547 276.107 41.08C279.904 41.9333 282.912 42.8933 285.131 43.96C287.392 45.0267 289.056 46.3707 290.123 47.992C291.19 49.6133 291.723 51.6827 291.723 54.2C291.723 56.9733 290.955 59.384 289.419 61.432C287.926 63.4373 285.792 64.9733 283.019 66.04C280.288 67.1067 277.11 67.64 273.483 67.64Z" fill="white"/>
<path d="M316.464 67.64C310.576 67.64 305.989 66.1253 302.704 63.096C299.461 60.0667 297.733 55.8427 297.52 50.424C297.477 49.1867 297.456 47.2027 297.456 44.472C297.456 41.7413 297.477 39.7573 297.52 38.52C297.691 33.2293 299.44 29.0907 302.768 26.104C306.096 23.0747 310.661 21.56 316.464 21.56C320.389 21.56 323.76 22.2427 326.576 23.608C329.435 24.9307 331.589 26.5947 333.04 28.6C334.491 30.5627 335.259 32.504 335.344 34.424C335.344 34.808 335.216 35.128 334.96 35.384C334.704 35.64 334.363 35.768 333.936 35.768H327.216C326.789 35.768 326.469 35.6827 326.256 35.512C326.043 35.3413 325.851 35.064 325.68 34.68C325.083 33.1013 324.037 31.7573 322.544 30.648C321.051 29.5387 319.024 28.984 316.464 28.984C313.477 28.984 311.131 29.7947 309.424 31.416C307.76 32.9947 306.885 35.4693 306.8 38.84C306.757 40.0773 306.736 41.9547 306.736 44.472C306.736 46.9467 306.757 48.824 306.8 50.104C306.885 53.56 307.781 56.12 309.488 57.784C311.195 59.4053 313.541 60.216 316.528 60.216C319.557 60.216 321.989 59.4053 323.824 57.784C325.659 56.1627 326.576 53.7307 326.576 50.488V48.504H318.768C318.341 48.504 317.979 48.3547 317.68 48.056C317.381 47.7573 317.232 47.3947 317.232 46.968V43.448C317.232 43.0213 317.381 42.6587 317.68 42.36C317.979 42.0613 318.341 41.912 318.768 41.912H334.128C334.597 41.912 334.981 42.0613 335.28 42.36C335.579 42.6587 335.728 43.0213 335.728 43.448V50.232C335.728 53.7733 334.939 56.8667 333.36 59.512C331.781 62.1147 329.541 64.12 326.64 65.528C323.739 66.936 320.347 67.64 316.464 67.64Z" fill="white"/>
</svg>
