<svg width="100" height="100" viewBox="0 0 100 100" fill="none" xmlns="http://www.w3.org/2000/svg">
<path d="M64.2853 41.4121H73.6462V81.5619H64.2853V41.4121Z" fill="#BBBAEF"/>
<path d="M28.8297 49.9412H36.9097V81.562H28.8297V49.9412Z" fill="#BBBAEF"/>
<path d="M59.1177 30.4963H53.3796C52.6912 30.4963 52.1333 31.0543 52.1333 31.7426V37.4905C52.1333 38.1789 52.6912 38.7368 53.3796 38.7368H59.1177C59.8061 38.7368 60.364 38.1789 60.364 37.4905V31.7426C60.364 31.0543 59.8061 30.4963 59.1177 30.4963V30.4963ZM57.8715 36.2441H54.6259V32.9889H57.8715V36.2441Z" fill="#0D0C66"/>
<path d="M47.8164 30.4963H42.0782C41.3898 30.4963 40.8319 31.0543 40.8319 31.7426V37.4905C40.8319 38.1789 41.3898 38.7368 42.0782 38.7368H47.8164C48.5047 38.7368 49.0626 38.1789 49.0626 37.4905V31.7426C49.0628 31.0543 48.5047 30.4963 47.8164 30.4963V30.4963ZM46.5701 36.2441H43.3245V32.9889H46.5701V36.2441Z" fill="#0D0C66"/>
<path d="M59.1177 43.1494H53.3796C52.6912 43.1494 52.1333 43.7073 52.1333 44.3957V50.1436C52.1333 50.8319 52.6912 51.3899 53.3796 51.3899H59.1177C59.8061 51.3899 60.364 50.8319 60.364 50.1436V44.3957C60.364 43.7073 59.8061 43.1494 59.1177 43.1494ZM57.8715 48.8972H54.6259V45.642H57.8715V48.8972Z" fill="#0D0C66"/>
<path d="M47.8164 43.1494H42.0782C41.3898 43.1494 40.8319 43.7073 40.8319 44.3957V50.1436C40.8319 50.8319 41.3898 51.3899 42.0782 51.3899H47.8164C48.5047 51.3899 49.0626 50.8319 49.0626 50.1436V44.3957C49.0628 43.7073 48.5047 43.1494 47.8164 43.1494ZM46.5701 48.8972H43.3245V45.642H46.5701V48.8972Z" fill="#0D0C66"/>
<path d="M59.1177 55.8022H53.3796C52.6912 55.8022 52.1333 56.3602 52.1333 57.0485V62.7963C52.1333 63.4846 52.6912 64.0426 53.3796 64.0426H59.1177C59.8061 64.0426 60.364 63.4846 60.364 62.7963V57.0485C60.364 56.3603 59.8061 55.8022 59.1177 55.8022ZM57.8715 61.55H54.6259V58.2948H57.8715V61.55Z" fill="#0D0C66"/>
<path d="M47.8164 55.8022H42.0782C41.3898 55.8022 40.8319 56.3602 40.8319 57.0485V62.7963C40.8319 63.4846 41.3898 64.0426 42.0782 64.0426H47.8164C48.5047 64.0426 49.0626 63.4846 49.0626 62.7963V57.0485C49.0628 56.3603 48.5047 55.8022 47.8164 55.8022ZM46.5701 61.55H43.3245V58.2948H46.5701V61.55Z" fill="#0D0C66"/>
<path d="M76.051 79.2855H65.5325V24.9709C65.5325 24.2825 64.9746 23.7246 64.2862 23.7246H61.6331V19.2464C61.6331 18.5579 61.0751 18 60.3868 18H40.8099C40.1215 18 39.5636 18.5579 39.5636 19.2463V23.7245H36.9105C36.2221 23.7245 35.6642 24.2825 35.6642 24.9707V79.2855H24.2463C23.5579 79.2855 23 79.8434 23 80.5318C23 81.2201 23.5579 81.7781 24.2463 81.7781H76.051C76.7394 81.7781 77.2973 81.2201 77.2973 80.5318C77.2973 79.8434 76.7394 79.2855 76.051 79.2855V79.2855ZM42.0562 20.4926H59.1405V23.7245H42.0562V20.4926ZM46.8485 79.2855V72.3139H54.348V79.2855H46.8485ZM56.8407 79.2855V71.0676C56.8407 70.3792 56.2828 69.8213 55.5944 69.8213H45.6022C44.9139 69.8213 44.3559 70.3792 44.3559 71.0676V79.2855H38.1568V26.2172H63.0399V79.2855H56.8407Z" fill="#0D0C66"/>
</svg>
