<svg width="100" height="100" viewBox="0 0 100 100" fill="none" xmlns="http://www.w3.org/2000/svg">
<path d="M34.104 35.4149H35.4343H41.1989L48.7373 33.6403L55.8322 29.2039L58.4928 33.6403L63.3705 35.4149L65.1443 37.1895V40.2951L62.0402 41.1824V43.8443L58.4928 50.499L52.7282 53.1609V55.3792L49.6241 57.1537L46.5201 55.3792V53.1609L41.1989 51.3863L38.0949 46.5062L35.4343 41.1824L34.104 38.9641V35.4149Z" fill="#F8D6D4"/>
<path d="M51.6374 48.2205C52.1163 47.7414 52.1163 46.9606 51.6374 46.4814C51.1585 46.0023 50.3781 46.0023 49.8991 46.4814C49.6686 46.7121 49.2872 46.7121 49.0478 46.4814C48.5689 46.0023 47.7884 46.0023 47.3095 46.4814C46.8306 46.9606 46.8306 47.7414 47.3095 48.2205C47.9037 48.815 48.6841 49.1078 49.4734 49.1078C50.2539 49.1078 51.0432 48.815 51.6374 48.2205Z" fill="#0D0C66"/>
<path d="M54.5996 43.4115C55.2824 43.4115 55.8323 42.8614 55.8323 42.1781V40.3237C55.8323 39.6405 55.2824 39.0903 54.5996 39.0903C53.9167 39.0903 53.3668 39.6405 53.3668 40.3237V42.1781C53.3668 42.8614 53.9167 43.4115 54.5996 43.4115Z" fill="#0D0C66"/>
<path d="M44.3474 39.0991C43.6645 39.0991 43.1146 39.6492 43.1146 40.3325V42.1869C43.1146 42.8701 43.6645 43.4203 44.3474 43.4203C45.0303 43.4203 45.5801 42.8701 45.5801 42.1869V40.3325C45.5801 39.6492 45.0303 39.0991 44.3474 39.0991Z" fill="#0D0C66"/>
<path d="M62.9892 56.0465H57.5793C57.1359 54.9729 56.3377 54.2009 55.3178 53.8904C55.2735 53.8726 54.7768 53.7307 54.023 53.7662C59.7788 52.098 63.1932 47.8923 63.7874 41.7433C65.5611 41.3706 66.9003 39.7912 66.9003 37.9013C66.9003 36.1533 65.7562 34.6715 64.1776 34.1658C64.8428 31.5926 64.9048 28.629 64.355 25.3194C64.0978 23.8021 63.7608 22.5155 63.5213 21.6992C63.0336 20.0488 62.9183 19.9512 62.6877 19.756C62.4305 19.5342 62.0846 19.4277 61.7476 19.4632C61.4106 19.4987 61.1002 19.6762 60.8962 19.9512C60.4794 20.5102 58.1203 20.0045 56.5594 19.6762C54.8478 19.3124 53.0829 18.9308 51.4334 19.0107C49.6596 19.0994 48.3205 19.7383 47.4336 20.9095C42.5026 19.9779 38.8665 20.7143 36.6316 23.11C33.563 26.393 34.1572 31.7612 34.645 34.2012C33.1462 34.7514 32.0731 36.1977 32.0731 37.8835C32.0731 39.7291 33.3502 41.273 35.0618 41.6989C35.6383 47.8656 39.0616 52.0803 44.8174 53.7484C44.1345 53.7396 43.691 53.8638 43.6467 53.8815C42.6357 54.1921 41.8375 54.964 41.3941 56.0377H35.9842C33.2349 56.0377 31 58.2736 31 61.0243V80.7667C31 81.4499 31.5499 82 32.2327 82H66.7673C67.4501 82 68 81.4499 68 80.7667V61.0331C67.9734 58.2825 65.7385 56.0465 62.9892 56.0465ZM38.4142 24.8048C40.1524 22.9592 43.2919 22.5155 47.744 23.5004C48.2939 23.6247 48.8615 23.3496 49.1098 22.8438L49.1275 22.8083C50.0587 20.9628 52.5774 21.3443 56.0273 22.0896C57.9341 22.4978 59.7699 22.8882 61.18 22.5333C61.854 24.8314 62.9271 29.6405 61.6855 33.9173L60.2488 33.8197C58.2268 32.8792 57.5439 31.1667 56.6127 28.4959C56.4796 28.1055 56.1515 27.8038 55.7524 27.7062C55.3533 27.6086 54.9276 27.7151 54.6172 27.999C51.3181 31.0425 47.2385 32.9679 42.5026 33.7221C40.1081 34.1036 38.1393 34.0681 37.0928 34.006C36.7025 32.1161 36.0108 27.369 38.4142 24.8048ZM37.4298 40.5454C37.4032 39.8888 36.8622 39.3653 36.197 39.3653H35.9753C35.1683 39.3653 34.5031 38.7087 34.5031 37.9013C34.5031 37.0938 35.1594 36.4372 35.9753 36.4372H36.1793C36.2502 36.4372 36.3212 36.4284 36.3833 36.4195C36.809 36.455 37.5007 36.5082 38.4053 36.5082C39.5671 36.5082 41.0748 36.4284 42.7864 36.1622C46.0412 35.6564 50.6529 34.3343 54.8921 30.9804C55.7169 33.0832 56.861 35.0531 59.4595 36.1622C59.5837 36.2154 59.7255 36.2509 59.8586 36.2598L62.4571 36.4372C62.5014 36.4372 62.5458 36.4372 62.5813 36.4372C62.599 36.4372 62.6079 36.4372 62.6256 36.4372H62.9537C63.7608 36.4372 64.4259 37.0938 64.4259 37.9013C64.4259 38.7087 63.7697 39.3653 62.9537 39.3653H62.6167C61.9604 39.3653 61.4106 39.8888 61.384 40.5454C61.1357 46.6678 57.9075 50.5275 52.0364 51.7165C51.4422 51.8407 51.0165 52.3731 51.052 52.9853L51.1407 54.689C50.7594 54.9285 50.3691 55.2302 49.9789 55.6029H48.959C48.5244 55.1947 48.0988 54.8753 47.6819 54.618L47.7617 52.9853C47.7883 52.3731 47.3715 51.8407 46.7773 51.7165C40.9151 50.5364 37.6781 46.6767 37.4298 40.5454ZM65.5079 79.5511H33.4389V61.0331C33.4389 59.6401 34.5741 58.5043 35.9664 58.5043H37.7668H40.9063H43.3806C43.4072 58.0429 43.4605 57.617 43.558 57.2533C43.6467 56.9427 43.8595 56.3926 44.3384 56.2506C44.3562 56.2506 45.8993 55.8513 47.5844 57.7058C47.8859 58.0341 48.3382 58.176 48.7728 58.0784C48.8082 58.0696 48.8437 58.0696 48.8881 58.0696H50.0321C50.0765 58.0696 50.1119 58.0784 50.1474 58.0873C50.582 58.1938 51.052 58.0518 51.3535 57.7235C52.9676 55.9489 54.4664 56.2329 54.6172 56.2684C55.0873 56.4281 55.3001 56.9604 55.3888 57.271C55.4863 57.6348 55.5484 58.0696 55.5662 58.5221H58.0405H60.6656H62.9803C64.3727 58.5221 65.5079 59.6578 65.5079 61.0509V79.5511V79.5511Z" fill="#0D0C66"/>
<path d="M49.4735 57.3596V80.2697" stroke="#0D0C66" stroke-width="3"/>
</svg>
