<svg width="100" height="100" viewBox="0 0 100 100" fill="none" xmlns="http://www.w3.org/2000/svg">
<path d="M72.747 32.0794H65.0262V28.9814C65.0262 22.9261 60.064 18 53.9648 18C52.5682 18 51.2313 18.2583 50 18.7291C48.7687 18.2583 47.4318 18 46.0352 18C39.9359 18 34.9738 22.9261 34.9738 28.9814V32.0794H27.253C26.5611 32.0794 26 32.639 26 33.3294V76.0718C26 79.3405 28.6697 82 31.951 82H68.0727C71.341 82 74 79.347 74 76.0863V33.3294C74 32.639 73.439 32.0794 72.747 32.0794V32.0794ZM53.9648 20.5C58.6822 20.5 62.5202 24.3047 62.5202 28.9814V32.0794H57.0969V28.9814C57.0969 25.5931 55.5431 22.5585 53.1059 20.5425C53.3884 20.5144 53.6749 20.5 53.9648 20.5V20.5ZM50 21.4669C52.7267 22.8864 54.5908 25.7221 54.5908 28.9812V32.0793H45.4093V28.9814C45.4092 25.7221 47.2733 22.8865 50 21.4669V21.4669ZM46.0352 20.5C46.325 20.5 46.6116 20.5144 46.8941 20.5425C44.4569 22.5585 42.9031 25.5931 42.9031 28.9814V32.0794H37.4798V28.9814C37.4798 24.3047 41.3178 20.5 46.0352 20.5ZM28.506 76.0718V34.5794H33.7207V79.5H31.951C30.0514 79.5 28.506 77.9621 28.506 76.0718ZM71.494 76.0863C71.494 77.9685 69.9593 79.5 68.0727 79.5H36.2268V34.5794H42.9031V40.9901C42.9031 41.6805 43.4641 42.2401 44.1562 42.2401C44.8481 42.2401 45.4092 41.6805 45.4092 40.9901V34.5794H62.5202V40.9901C62.5202 41.6805 63.0813 42.2401 63.7732 42.2401C64.4653 42.2401 65.0262 41.6805 65.0262 40.9901V34.5794H71.494V76.0863Z" fill="#0D0C66"/>
<path d="M41.712 47.7866H67.3824V73.4801H41.712V47.7866Z" fill="#BBBAEF"/>
<path d="M59.611 69.8535C59.4662 69.8535 59.3205 69.8292 59.1802 69.7796L54.7233 68.2033L50.2665 69.7797C49.8656 69.9213 49.4208 69.857 49.0772 69.6076C48.7335 69.3582 48.535 68.9557 48.5468 68.5319L48.6767 63.8324L45.794 60.106C45.5338 59.7697 45.457 59.327 45.5884 58.923C45.7199 58.519 46.0427 58.2058 46.4512 58.0861L50.9877 56.756L53.6608 52.8764C53.9014 52.5273 54.2988 52.3188 54.7233 52.3188C55.1479 52.3188 55.5453 52.5275 55.7859 52.8764L58.459 56.756L62.9955 58.0861C63.4041 58.2058 63.7269 58.519 63.8583 58.923C63.9898 59.327 63.9129 59.7697 63.6527 60.106L60.77 63.8324L60.8999 68.5319C60.9117 68.9557 60.7132 69.3582 60.3695 69.6076C60.1462 69.7697 59.8799 69.8535 59.611 69.8535V69.8535ZM54.7233 65.5524C54.869 65.5524 55.0149 65.5769 55.1542 65.6263L58.2705 66.7285L58.1797 63.445C58.1716 63.1485 58.2662 62.8585 58.4477 62.6237L60.4592 60.0236L57.2925 59.0952C57.0082 59.0119 56.7613 58.8334 56.5934 58.5897L54.7233 55.8757L52.8533 58.5897C52.6854 58.8334 52.4385 59.0119 52.1542 59.0952L48.9875 60.0236L50.999 62.6237C51.1805 62.8585 51.2753 63.1487 51.267 63.445L51.1762 66.7285L54.2925 65.6263C54.4318 65.5769 54.5777 65.5524 54.7233 65.5524Z" fill="#0D0C66"/>
</svg>
