<svg width="100" height="100" viewBox="0 0 100 100" fill="none" xmlns="http://www.w3.org/2000/svg">
<path d="M72.5344 85.6133L72.5344 14.3867C72.5344 13.6208 71.9135 13 71.1477 13L29.3867 13C28.6209 13 27.9999 13.6208 27.9999 14.3867L27.9999 85.6133C27.9999 86.379 28.6209 87 29.3867 87L71.1477 87C71.9136 87 72.5344 86.379 72.5344 85.6133ZM30.7734 84.2266L30.7734 15.7734L69.761 15.7734L69.761 84.2266L30.7734 84.2266Z" fill="#0D0C66"/>
<path d="M35.8689 60.0715C35.8689 60.8373 36.4899 61.4583 37.2556 61.4583L38.9492 61.4583C39.715 61.4583 40.3359 60.8373 40.3359 60.0715C40.3359 59.3058 39.715 58.6848 38.9492 58.6848L37.2556 58.6848C36.4897 58.6848 35.8689 59.3058 35.8689 60.0715Z" fill="#0D0C66"/>
<path d="M43.9786 60.0715C43.9786 60.8373 44.5996 61.4583 45.3654 61.4583L47.059 61.4583C47.8247 61.4583 48.4457 60.8373 48.4457 60.0715C48.4457 59.3058 47.8247 58.6848 47.059 58.6848L45.3654 58.6848C44.5996 58.6848 43.9786 59.3058 43.9786 60.0715Z" fill="#0D0C66"/>
<path d="M52.0886 60.0715C52.0886 60.8373 52.7096 61.4583 53.4753 61.4583L55.1689 61.4583C55.9347 61.4583 56.5557 60.8373 56.5557 60.0715C56.5557 59.3058 55.9347 58.6848 55.1689 58.6848L53.4753 58.6848C52.7095 58.6848 52.0886 59.3058 52.0886 60.0715Z" fill="#0D0C66"/>
<path d="M60.1985 60.0715C60.1985 60.8373 60.8193 61.4583 61.5852 61.4583L63.2788 61.4583C64.0446 61.4583 64.6655 60.8373 64.6655 60.0715C64.6655 59.3058 64.0446 58.6848 63.2788 58.6848L61.5852 58.6848C60.8195 58.6848 60.1985 59.3058 60.1985 60.0715Z" fill="#0D0C66"/>
<path d="M60.0839 74.1077H37.3882C36.6215 74.1077 36 74.7292 36 75.4959C36 76.2624 36.6215 76.8841 37.3882 76.8841H60.0839C60.8504 76.8841 61.4721 76.2624 61.4721 75.4959C61.4721 74.7292 60.8504 74.1077 60.0839 74.1077Z" fill="#0D0C66"/>
<path d="M49.0839 68H37.3882C36.6215 68 36 68.6215 36 69.3882C36 70.1548 36.6215 70.7764 37.3882 70.7764H49.0839C49.8504 70.7764 50.4721 70.1548 50.4721 69.3882C50.4721 68.6215 49.8504 68 49.0839 68Z" fill="#0D0C66"/>
<path d="M37 23C37 22.4477 37.4477 22 38 22H62C62.5523 22 63 22.4477 63 23V45C63 45.5523 62.5523 46 62 46H38C37.4477 46 37 45.5523 37 45V23Z" fill="#BBBAEF"/>
<path d="M51.6058 33.3108C51.4799 33.2673 51.3597 33.2255 51.2453 33.1853V30.7116C51.5254 30.8055 51.7203 30.9494 51.8191 31.0869C52.0936 31.4687 52.6331 31.561 53.0242 31.293C53.4153 31.0252 53.5099 30.4986 53.2354 30.1169C52.8487 29.5791 52.1525 29.1287 51.2453 28.9748V28.8443C51.2453 28.378 50.858 28 50.3802 28C49.9025 28 49.5152 28.378 49.5152 28.8443V29.0376C49.4015 29.0631 49.2863 29.0928 49.1694 29.1271C48.1243 29.4345 47.3354 30.4247 47.2511 31.5352C47.1677 32.6332 47.766 33.587 48.8516 34.0867C48.9986 34.1543 49.2262 34.2469 49.5152 34.3574V37.3391C49.126 37.2172 48.7722 37.0215 48.5388 36.7387C48.2391 36.3757 47.6944 36.3183 47.3224 36.6108C46.9504 36.9033 46.8917 37.4348 47.1914 37.7981C47.7866 38.5193 48.6604 38.9098 49.5151 39.08V39.1557C49.5151 39.6219 49.9024 40 50.3802 40C50.8579 40 51.2452 39.6219 51.2452 39.1557V39.1439C53.0515 38.9051 53.842 37.7473 53.9766 36.7129C54.166 35.2566 53.1911 33.8577 51.6058 33.3108ZM48.9765 31.6601C49.0035 31.3049 49.2248 30.9655 49.5151 30.8079V32.5229C49.1293 32.3225 48.9482 32.0326 48.9765 31.6601ZM52.2602 36.5C52.1998 36.965 51.8362 37.2922 51.2453 37.4283V34.9888C52.0294 35.345 52.3249 36.0028 52.2602 36.5Z" fill="#0D0C66"/>
</svg>
