<svg width="100" height="100" viewBox="0 0 100 100" fill="none" xmlns="http://www.w3.org/2000/svg">
<path d="M50.8081 53.8154H70.6502V66.3875H50.8081V53.8154Z" fill="#BBBAEF"/>
<path d="M29.3497 53.8154H43.7567V74.7536H29.3497V53.8154Z" fill="#BBBAEF"/>
<path d="M76.7886 24H23.2114C20.3379 24 18 26.3308 18 29.1958V40.1339C18 42.6187 19.6006 44.7349 21.8207 45.4976V74.7538C21.8207 75.4421 22.3804 76 23.0708 76H76.9291C77.6194 76 78.1791 75.4421 78.1791 74.7538V45.4976C80.3994 44.7349 82 42.6185 82 40.1339V29.1958C82 26.3308 79.6621 24 76.7886 24V24ZM24.3208 73.5074V45.7599C25.8166 45.5792 27.1343 44.8085 28.0356 43.6869C29.0709 44.9753 30.6555 45.8006 32.4286 45.8006C34.2018 45.8006 35.7862 44.9753 36.8216 43.6869C37.8569 44.9753 39.4415 45.8006 41.2145 45.8006C42.9875 45.8006 44.572 44.9753 45.6073 43.687C46.6425 44.9753 48.2271 45.8006 50.0003 45.8006C51.7733 45.8006 53.3577 44.9753 54.3931 43.687C55.4284 44.9753 57.013 45.8006 58.786 45.8006C60.559 45.8006 62.1435 44.9753 63.1789 43.6869C64.2141 44.9753 65.7988 45.8006 67.5719 45.8006C69.345 45.8006 70.9295 44.9753 71.9649 43.6869C72.8661 44.8085 74.1839 45.5792 75.6797 45.7599V73.5074H24.3208ZM79.5 40.1339C79.5 41.8842 78.0901 43.3083 76.357 43.3083C74.6241 43.3083 73.2142 41.8842 73.2142 40.1339C73.2142 40.1182 73.2139 40.1025 73.2132 40.0868V36.609C73.2132 35.9207 72.6535 35.3627 71.9632 35.3627C71.273 35.3627 70.7132 35.9207 70.7132 36.609V40.1339C70.7132 40.1474 70.7136 40.1608 70.714 40.1742C70.6925 41.9061 69.291 43.3082 67.5713 43.3082C65.8383 43.3082 64.4282 41.8841 64.4282 40.1338C64.4282 39.4455 63.8685 38.8876 63.1782 38.8876C62.488 38.8876 61.9282 39.4455 61.9282 40.1338C61.9282 41.8841 60.5184 43.3082 58.7854 43.3082C57.0525 43.3082 55.6425 41.8841 55.6425 40.1338C55.6425 40.1112 55.6419 40.0887 55.6406 40.0664V36.6088C55.6406 35.9205 55.0809 35.3626 54.3906 35.3626C53.7004 35.3626 53.1406 35.9205 53.1406 36.6088V40.1338C53.1406 40.1524 53.1411 40.1709 53.1419 40.1893C53.1125 41.914 51.7141 43.3081 49.9996 43.3081C48.2666 43.3081 46.8566 41.884 46.8566 40.1337C46.8566 39.4454 46.297 38.8874 45.6066 38.8874C44.9164 38.8874 44.3566 39.4454 44.3566 40.1337C44.3566 41.884 42.9469 43.3081 41.2139 43.3081C39.481 43.3081 38.071 41.884 38.071 40.1337V36.6087C38.071 35.9204 37.5112 35.3625 36.821 35.3625C36.1307 35.3625 35.571 35.9204 35.571 36.6087V40.1337C35.571 41.884 34.1611 43.3081 32.428 43.3081C30.695 43.3081 29.285 41.884 29.285 40.1337C29.285 39.4454 28.7252 38.8874 28.035 38.8874C27.3447 38.8874 26.785 39.4454 26.785 40.1337C26.785 41.884 25.3751 43.3081 23.6421 43.3081C21.9091 43.3081 20.5 41.8841 20.5 40.1339V29.1958C20.5 27.7052 21.7163 26.4925 23.2114 26.4925H76.7885C78.2836 26.4925 79.4999 27.7052 79.4999 29.1958V40.1339H79.5Z" fill="#0D0C66"/>
</svg>
