<svg width="512" height="512" viewBox="0 0 512 512" fill="none" xmlns="http://www.w3.org/2000/svg">
<g clip-path="url(#clip0)">
<path d="M216 382.75H504.5V129.25H216C200.536 129.25 188 141.786 188 157.25V354.75C188 370.214 200.536 382.75 216 382.75Z" fill="#FCFDFF"/>
<path d="M504.5 362.75V382.75H216C200.54 382.75 188 370.21 188 354.75V157.25C188 141.79 200.54 129.25 216 129.25H259.17C258.41 131.79 258 134.47 258 137.25V334.75C258 350.21 270.54 362.75 286 362.75H504.5Z" fill="#E4E9F3"/>
<path d="M160 382.75H7.5V129.25H160C175.464 129.25 188 141.786 188 157.25V354.75C188 370.214 175.464 382.75 160 382.75Z" fill="#777DB9"/>
<path d="M186.83 362.75C183.4 374.31 172.68 382.75 160 382.75H7.5V129.25H77.5V332.75C77.5 349.319 90.931 362.75 107.5 362.75H186.83Z" fill="#50579B"/>
<path d="M7.5 246.16C11.643 246.16 15 242.803 15 238.66V136.75H160.17C171.38 136.75 180.5 145.87 180.5 157.08V172.917C180.5 177.06 183.857 180.417 188 180.417C192.143 180.417 195.5 177.06 195.5 172.917V157.08C195.5 145.87 204.62 136.75 215.83 136.75H430.68C434.823 136.75 438.18 133.393 438.18 129.25C438.18 125.107 434.823 121.75 430.68 121.75H215.83C204.541 121.75 194.473 127.072 188 135.338C181.527 127.072 171.459 121.75 160.17 121.75H7.5C3.357 121.75 0 125.107 0 129.25V238.66C0 242.803 3.357 246.16 7.5 246.16V246.16Z" fill="#10143A"/>
<path d="M504.5 121.75H463.37C459.227 121.75 455.87 125.107 455.87 129.25C455.87 133.393 459.227 136.75 463.37 136.75H497V375.25H269.32C265.177 375.25 261.82 378.607 261.82 382.75C261.82 386.893 265.177 390.25 269.32 390.25H504.5C508.643 390.25 512 386.893 512 382.75V129.25C512 125.107 508.643 121.75 504.5 121.75Z" fill="#10143A"/>
<path d="M236.63 375.25H215.83C204.62 375.25 195.5 366.13 195.5 354.92C195.5 354.751 195.486 354.585 195.475 354.419C195.486 354.252 195.5 354.087 195.5 353.918V337.084C195.5 332.941 192.143 329.584 188 329.584C183.857 329.584 180.5 332.941 180.5 337.084V353.918C180.5 354.087 180.514 354.253 180.525 354.419C180.514 354.586 180.5 354.751 180.5 354.92C180.5 366.13 171.38 375.25 160.17 375.25H15V271.34C15 267.197 11.643 263.84 7.5 263.84C3.357 263.84 0 267.197 0 271.34V382.75C0 386.893 3.357 390.25 7.5 390.25H160.17C171.459 390.25 181.527 384.928 188 376.662C194.473 384.928 204.541 390.25 215.83 390.25H236.63C240.773 390.25 244.13 386.893 244.13 382.75C244.13 378.607 240.772 375.25 236.63 375.25Z" fill="#10143A"/>
<path d="M195.5 201.333C195.5 197.19 192.143 193.833 188 193.833C183.857 193.833 180.5 197.19 180.5 201.333V218.167C180.5 222.31 183.857 225.667 188 225.667C192.143 225.667 195.5 222.31 195.5 218.167V201.333Z" fill="#10143A"/>
<path d="M195.5 246.583C195.5 242.44 192.143 239.083 188 239.083C183.857 239.083 180.5 242.44 180.5 246.583V263.417C180.5 267.56 183.857 270.917 188 270.917C192.143 270.917 195.5 267.56 195.5 263.417V246.583Z" fill="#10143A"/>
<path d="M188 284.333C183.857 284.333 180.5 287.69 180.5 291.833V308.667C180.5 312.81 183.857 316.167 188 316.167C192.143 316.167 195.5 312.81 195.5 308.667V291.833C195.5 287.69 192.143 284.333 188 284.333Z" fill="#10143A"/>
<path d="M298.704 312.982C300.094 314.11 301.764 314.658 303.424 314.658C305.607 314.658 307.772 313.71 309.253 311.883L392.252 209.567C394.861 206.35 394.369 201.628 391.152 199.018C387.935 196.406 383.212 196.9 380.603 200.118L297.604 302.434C294.995 305.65 295.487 310.373 298.704 312.982V312.982Z" fill="#10143A"/>
<path d="M339.261 218.714C339.261 204.811 327.95 193.5 314.047 193.5C300.144 193.5 288.833 204.811 288.833 218.714C288.833 232.616 300.144 243.927 314.047 243.927C327.95 243.927 339.261 232.616 339.261 218.714ZM303.833 218.714C303.833 213.082 308.415 208.5 314.047 208.5C319.679 208.5 324.261 213.082 324.261 218.714C324.261 224.346 319.679 228.927 314.047 228.927C308.415 228.927 303.833 224.346 303.833 218.714Z" fill="#10143A"/>
<path d="M375.81 318.5C389.712 318.5 401.023 307.189 401.023 293.286C401.023 279.384 389.712 268.073 375.81 268.073C361.907 268.073 350.596 279.384 350.596 293.286C350.596 307.189 361.906 318.5 375.81 318.5ZM375.81 283.073C381.442 283.073 386.023 287.654 386.023 293.286C386.023 298.918 381.441 303.5 375.81 303.5C370.179 303.5 365.596 298.918 365.596 293.286C365.596 287.654 370.178 283.073 375.81 283.073Z" fill="#10143A"/>
</g>
<defs>
<clipPath id="clip0">
<rect width="512" height="512" fill="white"/>
</clipPath>
</defs>
</svg>
