<svg width="512" height="512" viewBox="0 0 512 512" fill="none" xmlns="http://www.w3.org/2000/svg">
<g clip-path="url(#clip0)">
<path d="M94.353 378.453C89.568 378.424 84.467 378.409 79.006 378.409C63.767 378.409 49.815 385.164 44.185 401.843C25.029 401.843 9.49902 417.373 9.49902 436.529C9.49902 455.685 25.028 471.215 44.185 471.215H94.352V378.453H94.353Z" fill="#F2F2F2"/>
<path d="M417.647 378.453C422.432 378.424 427.533 378.409 432.994 378.409C448.233 378.409 462.185 385.164 467.815 401.843C486.971 401.843 502.501 417.373 502.501 436.529C502.501 455.685 486.972 471.215 467.815 471.215C458.006 471.215 430.189 471.215 417.648 471.215V378.453H417.647Z" fill="#F2F2F2"/>
<path d="M436.235 469.544H205.357V150.675C205.357 143.486 211.185 137.658 218.374 137.658H423.218C430.407 137.658 436.235 143.486 436.235 150.675V469.544Z" fill="#777DB9"/>
<path d="M393.825 232.638H313.5V183.138H393.825C397.512 183.138 400.5 186.127 400.5 189.813V225.963C400.5 229.649 397.511 232.638 393.825 232.638V232.638Z" fill="#FFE1EC"/>
<path d="M393.825 324.451H313.5V274.951H393.825C397.512 274.951 400.5 277.94 400.5 281.626V317.776C400.5 321.462 397.511 324.451 393.825 324.451Z" fill="#FFE1EC"/>
<path d="M393.825 416.264H313.5V366.764H393.825C397.512 366.764 400.5 369.753 400.5 373.439V409.589C400.5 413.276 397.511 416.264 393.825 416.264Z" fill="#FFE1EC"/>
<path d="M423.218 137.658H387.483C394.672 137.658 400.5 143.486 400.5 150.675V469.544H436.235V150.675C436.235 143.485 430.407 137.658 423.218 137.658V137.658Z" fill="#50579B"/>
<path d="M321.742 469.544H88.9709V20.8041C88.9709 13.6151 94.7989 7.78711 101.988 7.78711H308.724C315.913 7.78711 321.741 13.6151 321.741 20.8041V469.544H321.742Z" fill="#FCFDFF"/>
<path d="M308.725 7.78711H273.044C280.233 7.78711 286.061 13.6151 286.061 20.8041V469.544H321.742V20.8041C321.742 13.6151 315.914 7.78711 308.725 7.78711V7.78711Z" fill="#E4E9F3"/>
<path d="M494.129 458.788H17.871C12.143 458.788 7.5 463.431 7.5 469.159V493.841C7.5 499.569 12.143 504.212 17.871 504.212H494.129C499.857 504.212 504.5 499.569 504.5 493.841V469.159C504.5 463.432 499.857 458.788 494.129 458.788Z" fill="#777DB9"/>
<path d="M234.368 361.517H175.507C173.102 361.517 171.153 363.466 171.153 365.871V458.788H238.722V365.871C238.722 363.466 236.772 361.517 234.368 361.517V361.517Z" fill="#E4E9F3"/>
<path d="M217.475 79.5838H192.399C189.994 79.5838 188.045 77.6348 188.045 75.2298V50.1538C188.045 47.7488 189.994 45.7998 192.399 45.7998H217.475C219.88 45.7998 221.829 47.7488 221.829 50.1538V75.2298C221.83 77.6348 219.88 79.5838 217.475 79.5838Z" fill="#FFE1EC"/>
<path d="M281.736 79.5838H256.66C254.255 79.5838 252.306 77.6348 252.306 75.2298V50.1538C252.306 47.7488 254.255 45.7998 256.66 45.7998H281.736C284.141 45.7998 286.09 47.7488 286.09 50.1538V75.2298C286.09 77.6348 284.14 79.5838 281.736 79.5838Z" fill="#FFE1EC"/>
<path d="M217.475 158.513H192.399C189.994 158.513 188.045 156.564 188.045 154.159V129.083C188.045 126.678 189.994 124.729 192.399 124.729H217.475C219.88 124.729 221.829 126.678 221.829 129.083V154.159C221.83 156.563 219.88 158.513 217.475 158.513Z" fill="#FFE1EC"/>
<path d="M281.736 158.513H256.66C254.255 158.513 252.306 156.564 252.306 154.159V129.083C252.306 126.678 254.255 124.729 256.66 124.729H281.736C284.141 124.729 286.09 126.678 286.09 129.083V154.159C286.09 156.563 284.14 158.513 281.736 158.513Z" fill="#FFE1EC"/>
<path d="M217.475 237.443H192.399C189.994 237.443 188.045 235.494 188.045 233.089V208.013C188.045 205.608 189.994 203.659 192.399 203.659H217.475C219.88 203.659 221.829 205.608 221.829 208.013V233.089C221.83 235.493 219.88 237.443 217.475 237.443Z" fill="#FFE1EC"/>
<path d="M281.736 237.443H256.66C254.255 237.443 252.306 235.494 252.306 233.089V208.013C252.306 205.608 254.255 203.659 256.66 203.659H281.736C284.141 203.659 286.09 205.608 286.09 208.013V233.089C286.09 235.493 284.14 237.443 281.736 237.443Z" fill="#FFE1EC"/>
<path d="M217.475 316.372H192.399C189.994 316.372 188.045 314.423 188.045 312.018V286.942C188.045 284.537 189.994 282.588 192.399 282.588H217.475C219.88 282.588 221.829 284.537 221.829 286.942V312.018C221.83 314.423 219.88 316.372 217.475 316.372Z" fill="#FFE1EC"/>
<path d="M281.736 316.372H256.66C254.255 316.372 252.306 314.423 252.306 312.018V286.942C252.306 284.537 254.255 282.588 256.66 282.588H281.736C284.141 282.588 286.09 284.537 286.09 286.942V312.018C286.09 314.423 284.14 316.372 281.736 316.372Z" fill="#FFE1EC"/>
<path d="M153.215 79.5838H128.139C125.734 79.5838 123.785 77.6348 123.785 75.2298V50.1538C123.785 47.7488 125.734 45.7998 128.139 45.7998H153.215C155.62 45.7998 157.569 47.7488 157.569 50.1538V75.2298C157.569 77.6348 155.62 79.5838 153.215 79.5838Z" fill="#FFE1EC"/>
<path d="M153.215 158.513H128.139C125.734 158.513 123.785 156.564 123.785 154.159V129.083C123.785 126.678 125.734 124.729 128.139 124.729H153.215C155.62 124.729 157.569 126.678 157.569 129.083V154.159C157.569 156.563 155.62 158.513 153.215 158.513Z" fill="#FFE1EC"/>
<path d="M153.215 237.443H128.139C125.734 237.443 123.785 235.494 123.785 233.089V208.013C123.785 205.608 125.734 203.659 128.139 203.659H153.215C155.62 203.659 157.569 205.608 157.569 208.013V233.089C157.569 235.493 155.62 237.443 153.215 237.443Z" fill="#FFE1EC"/>
<path d="M153.215 316.372H128.139C125.734 316.372 123.785 314.423 123.785 312.018V286.942C123.785 284.537 125.734 282.588 128.139 282.588H153.215C155.62 282.588 157.569 284.537 157.569 286.942V312.018C157.569 314.423 155.62 316.372 153.215 316.372Z" fill="#FFE1EC"/>
<path d="M192.399 87.0838H217.475C224.012 87.0838 229.329 81.7668 229.329 75.2298V50.1538C229.329 43.6178 224.011 38.2998 217.475 38.2998H192.399C185.862 38.2998 180.545 43.6178 180.545 50.1538V75.2298C180.545 81.7668 185.863 87.0838 192.399 87.0838ZM195.545 53.2998H214.33V72.0838H195.545V53.2998Z" fill="#10143A"/>
<path d="M256.66 87.0838H281.736C288.272 87.0838 293.59 81.7668 293.59 75.2298V50.1538C293.59 43.6178 288.272 38.2998 281.736 38.2998H256.66C250.123 38.2998 244.806 43.6178 244.806 50.1538V75.2298C244.805 81.7668 250.123 87.0838 256.66 87.0838ZM259.805 53.2998H278.59V72.0838H259.805V53.2998Z" fill="#10143A"/>
<path d="M180.545 154.159C180.545 160.695 185.863 166.013 192.399 166.013H217.475C224.012 166.013 229.329 160.695 229.329 154.159V129.083C229.329 122.547 224.011 117.229 217.475 117.229H192.399C185.862 117.229 180.545 122.546 180.545 129.083V154.159ZM195.545 132.229H214.33V151.013H195.545V132.229Z" fill="#10143A"/>
<path d="M244.805 154.159C244.805 160.695 250.123 166.013 256.659 166.013H281.735C288.271 166.013 293.589 160.695 293.589 154.159V129.083C293.589 122.547 288.271 117.229 281.735 117.229H256.66C250.123 117.229 244.806 122.546 244.806 129.083V154.159H244.805ZM259.805 132.229H278.59V151.013H259.805V132.229Z" fill="#10143A"/>
<path d="M180.545 233.089C180.545 239.625 185.863 244.943 192.399 244.943H217.475C224.012 244.943 229.329 239.625 229.329 233.089V208.013C229.329 201.477 224.011 196.159 217.475 196.159H192.399C185.862 196.159 180.545 201.477 180.545 208.013V233.089ZM195.545 211.158H214.33V229.943H195.545V211.158Z" fill="#10143A"/>
<path d="M244.805 233.089C244.805 239.625 250.123 244.943 256.659 244.943H281.735C288.271 244.943 293.589 239.625 293.589 233.089V208.013C293.589 201.477 288.271 196.159 281.735 196.159H256.66C250.123 196.159 244.806 201.477 244.806 208.013V233.089H244.805ZM259.805 211.158H278.59V229.943H259.805V211.158Z" fill="#10143A"/>
<path d="M180.545 312.018C180.545 318.554 185.863 323.872 192.399 323.872H217.475C224.012 323.872 229.329 318.554 229.329 312.018V286.943C229.329 280.407 224.011 275.089 217.475 275.089H192.399C185.862 275.089 180.545 280.407 180.545 286.943V312.018ZM195.545 290.088H214.33V308.872H195.545V290.088Z" fill="#10143A"/>
<path d="M244.805 312.018C244.805 318.554 250.123 323.872 256.659 323.872H281.735C288.271 323.872 293.589 318.554 293.589 312.018V286.943C293.589 280.407 288.271 275.089 281.735 275.089H256.66C250.123 275.089 244.806 280.407 244.806 286.943V312.018H244.805ZM259.805 290.088H278.59V308.872H259.805V290.088Z" fill="#10143A"/>
<path d="M128.139 87.0838H153.215C159.752 87.0838 165.069 81.7668 165.069 75.2298V50.1538C165.069 43.6178 159.751 38.2998 153.215 38.2998H128.139C121.602 38.2998 116.285 43.6178 116.285 50.1538V75.2298C116.285 81.7668 121.603 87.0838 128.139 87.0838V87.0838ZM131.285 53.2998H150.07V72.0838H131.285V53.2998Z" fill="#10143A"/>
<path d="M116.285 154.159C116.285 160.695 121.603 166.013 128.139 166.013H153.215C159.752 166.013 165.069 160.695 165.069 154.159V129.083C165.069 122.547 159.751 117.229 153.215 117.229H128.139C121.602 117.229 116.285 122.546 116.285 129.083V154.159ZM131.285 132.229H150.07V151.013H131.285V132.229Z" fill="#10143A"/>
<path d="M116.285 233.089C116.285 239.625 121.603 244.943 128.139 244.943H153.215C159.752 244.943 165.069 239.625 165.069 233.089V208.013C165.069 201.477 159.751 196.159 153.215 196.159H128.139C121.602 196.159 116.285 201.477 116.285 208.013V233.089ZM131.285 211.158H150.07V229.943H131.285V211.158Z" fill="#10143A"/>
<path d="M116.285 312.018C116.285 318.554 121.603 323.872 128.139 323.872H153.215C159.752 323.872 165.069 318.554 165.069 312.018V286.943C165.069 280.407 159.751 275.089 153.215 275.089H128.139C121.602 275.089 116.285 280.407 116.285 286.943V312.018ZM131.285 290.088H150.07V308.872H131.285V290.088Z" fill="#10143A"/>
<path d="M505.525 455.406C508.439 449.582 510 443.118 510 436.529C510 415.025 493.825 397.228 473.005 394.661C467.396 382.677 457.087 374.725 443.734 371.986V273.203C443.734 269.06 440.377 265.703 436.234 265.703C432.091 265.703 428.734 269.06 428.734 273.203V451.288H329.242V423.764H393.825C401.641 423.764 408 417.406 408 409.589V373.44C408 365.624 401.642 359.264 393.825 359.264H329.242V331.951H393.825C401.641 331.951 408 325.592 408 317.775V281.626C408 273.81 401.642 267.451 393.825 267.451H329.242V240.138H393.825C401.641 240.138 408 233.78 408 225.963V189.814C408 181.998 401.642 175.638 393.825 175.638H329.242V145.158H423.218C426.26 145.158 428.735 147.634 428.735 150.676V238.142C428.735 242.285 432.092 245.642 436.235 245.642C440.378 245.642 443.735 242.285 443.735 238.142V150.676C443.735 139.363 434.531 130.158 423.218 130.158H329.242V20.8051C329.242 9.49211 320.038 0.287109 308.724 0.287109H101.988C90.675 0.287109 81.471 9.49111 81.471 20.8051V87.0341C81.471 91.1771 84.829 94.5341 88.971 94.5341C93.113 94.5341 96.471 91.1771 96.471 87.0341V20.8051C96.471 17.7631 98.946 15.2871 101.988 15.2871H308.724C311.766 15.2871 314.242 17.7631 314.242 20.8051V451.288H246.221V365.871C246.221 359.335 240.903 354.017 234.367 354.017H175.506C168.97 354.017 163.652 359.334 163.652 365.871V451.288H96.471V122.096C96.471 117.953 93.113 114.596 88.971 114.596C84.829 114.596 81.471 117.953 81.471 122.096V370.91C80.658 370.909 79.837 370.909 79.006 370.909C60.36 370.909 46.042 379.492 38.987 394.662C18.169 397.231 2 415.027 2 436.529C2 443.117 3.56 449.582 6.475 455.406C2.522 458.687 0 463.633 0 469.159V493.842C0 503.696 8.017 511.713 17.871 511.713H494.129C503.983 511.713 512 503.696 512 493.842V469.159C512 463.633 509.478 458.687 505.525 455.406ZM393 374.264V408.764H329.242V374.264H393ZM393 282.451V316.951H329.242V282.451H393ZM393 190.638V225.138H329.242V190.638H393ZM443.734 387.426C450.535 389.516 457.328 394.231 460.708 404.242C461.737 407.291 464.597 409.344 467.814 409.344C482.804 409.344 495 421.539 495 436.53C495 441.783 493.459 446.913 490.628 451.289H443.734V387.426ZM178.653 369.018H231.222V451.289H178.653V369.018ZM44.186 409.344C47.404 409.344 50.263 407.291 51.292 404.242C56.407 389.09 69.187 385.909 79.007 385.909C79.838 385.909 80.659 385.909 81.472 385.91V451.288H21.372C18.541 446.912 17 441.783 17 436.529C17 421.539 29.195 409.344 44.186 409.344ZM497 493.842C497 495.425 495.712 496.713 494.129 496.713H17.871C16.288 496.713 15 495.425 15 493.842V469.159C15 467.616 16.226 466.363 17.754 466.3H17.764C17.851 466.298 17.94 466.293 18.028 466.288H493.972C494.06 466.293 494.149 466.298 494.238 466.3H494.247C495.775 466.363 497.001 467.616 497.001 469.159V493.842H497Z" fill="#10143A"/>
</g>
<defs>
<clipPath id="clip0">
<rect width="512" height="512" fill="white"/>
</clipPath>
</defs>
</svg>
