<svg width="512" height="512" viewBox="0 0 512 512" fill="none" xmlns="http://www.w3.org/2000/svg">
<path d="M468.67 102.56H43.3301V466.61H468.67V102.56Z" fill="#E9EAEB"/>
<path d="M468.67 102.56H414.67V466.61H468.67V102.56Z" fill="#B9BBC1"/>
<path d="M470.153 102.558H41.8469V42.7964C41.8469 38.0214 45.7169 34.1514 50.4919 34.1514H461.508C466.283 34.1514 470.153 38.0214 470.153 42.7964V102.558Z" fill="#FFE1EC"/>
<path d="M461.508 34.1514H416.153V79.1404H470.153V42.7964C470.153 38.0214 466.282 34.1514 461.508 34.1514Z" fill="#F9C3D6"/>
<path d="M43.332 210.929C23.756 210.929 7.88696 195.06 7.88696 175.484V146.607H78.776V175.484C78.776 195.06 62.907 210.929 43.332 210.929Z" fill="#50579B"/>
<path d="M114.221 210.929C94.6449 210.929 78.7759 195.06 78.7759 175.484V146.607H149.665V175.484C149.666 195.06 133.797 210.929 114.221 210.929Z" fill="#F2F2F2"/>
<path d="M185.111 210.929C165.535 210.929 149.666 195.06 149.666 175.484V146.607H220.555V175.484C220.555 195.06 204.686 210.929 185.111 210.929Z" fill="#50579B"/>
<path d="M256 210.929C236.424 210.929 220.555 195.06 220.555 175.484V146.607H291.444V175.484C291.445 195.06 275.576 210.929 256 210.929Z" fill="#F2F2F2"/>
<path d="M326.89 210.929C307.314 210.929 291.445 195.06 291.445 175.484V146.607H362.334V175.484C362.334 195.06 346.465 210.929 326.89 210.929Z" fill="#50579B"/>
<path d="M397.779 210.929C378.203 210.929 362.334 195.06 362.334 175.484V146.607H433.223V175.484C433.224 195.06 417.355 210.929 397.779 210.929Z" fill="#F2F2F2"/>
<path d="M468.668 210.929C449.092 210.929 433.223 195.06 433.223 175.484V146.607H504.112V175.484C504.113 195.06 488.244 210.929 468.668 210.929Z" fill="#50579B"/>
<path d="M78.776 146.608H7.88696L41.811 79.1396H103.008L78.776 146.608Z" fill="#777DB9"/>
<path d="M149.666 146.608H78.7759L103.008 79.1396H164.205L149.666 146.608Z" fill="white"/>
<path d="M220.555 146.608H149.666L164.205 79.1396H225.402L220.555 146.608Z" fill="#777DB9"/>
<path d="M291.445 146.608H220.555L225.402 79.1396H286.598L291.445 146.608Z" fill="white"/>
<path d="M362.334 146.608H291.445L286.598 79.1396H347.795L362.334 146.608Z" fill="#777DB9"/>
<path d="M433.224 146.608H362.334L347.795 79.1396H408.992L433.224 146.608Z" fill="white"/>
<path d="M504.113 146.608H433.224L408.992 79.1396H470.189L504.113 146.608Z" fill="#777DB9"/>
<path d="M488.311 433.349H23.688C14.747 433.349 7.5 440.597 7.5 449.538V473.261C7.5 475.795 9.555 477.85 12.089 477.85H499.911C502.445 477.85 504.5 475.795 504.5 473.261V449.538C504.5 440.597 497.252 433.349 488.311 433.349Z" fill="#8B8996"/>
<path d="M488.312 433.349H450.334V477.849H499.912C502.446 477.849 504.501 475.795 504.501 473.26V449.537C504.5 440.597 497.252 433.349 488.312 433.349Z" fill="#706F7F"/>
<path d="M426.774 385.77H208.45C204.888 385.77 202 382.882 202 379.32V259.185C202 255.623 204.888 252.735 208.45 252.735H426.774C430.336 252.735 433.224 255.623 433.224 259.185V379.32C433.224 382.883 430.336 385.77 426.774 385.77Z" fill="#FFE1EC"/>
<path d="M426.774 252.735H379.057V385.77H426.774C430.336 385.77 433.224 382.882 433.224 379.32V259.185C433.224 255.622 430.336 252.735 426.774 252.735Z" fill="#F9C3D7"/>
<path d="M171.336 433.349H71.7271V259.185C71.7271 255.623 74.6151 252.735 78.1771 252.735H164.886C168.448 252.735 171.336 255.623 171.336 259.185V433.349Z" fill="#FFE1EC"/>
<path d="M164.886 252.735H117.169V433.35H171.336V259.185C171.336 255.622 168.448 252.735 164.886 252.735Z" fill="#F9C3D7"/>
<path d="M143.5 354.755C147.642 354.755 151 351.397 151 347.255V333.755C151 329.613 147.642 326.255 143.5 326.255C139.358 326.255 136 329.613 136 333.755V347.255C136 351.397 139.358 354.755 143.5 354.755Z" fill="#10143A"/>
<path d="M488.312 425.849H476.169V217.76C496.284 214.2 511.614 196.605 511.614 175.484V146.608C511.614 146.461 511.6 146.317 511.592 146.172C511.587 146.091 511.587 146.01 511.58 145.929C511.553 145.633 511.512 145.342 511.452 145.058C511.449 145.041 511.443 145.025 511.439 145.009C511.38 144.736 511.303 144.47 511.215 144.209C511.193 144.143 511.167 144.077 511.143 144.012C511.06 143.788 510.968 143.57 510.865 143.357C510.846 143.318 510.834 143.277 510.815 143.239L477.653 77.2904V42.7964C477.653 33.8944 470.41 26.6514 461.508 26.6514H120.456C116.314 26.6514 112.956 30.0094 112.956 34.1514C112.956 38.2934 116.314 41.6514 120.456 41.6514H461.508C462.139 41.6514 462.653 42.1654 462.653 42.7964V71.6404H49.347V42.7964C49.347 42.1654 49.861 41.6514 50.492 41.6514H85.56C89.702 41.6514 93.06 38.2934 93.06 34.1514C93.06 30.0094 89.702 26.6514 85.56 26.6514H50.492C41.59 26.6514 34.347 33.8944 34.347 42.7964V77.2904L1.186 143.239C1.167 143.278 1.154 143.319 1.136 143.357C1.033 143.57 0.941 143.788 0.858 144.012C0.834 144.078 0.808 144.143 0.786 144.209C0.698 144.47 0.621 144.736 0.562 145.009C0.558 145.025 0.553 145.041 0.549 145.058C0.489 145.343 0.447 145.633 0.421 145.929C0.414 146.01 0.414 146.091 0.409 146.172C0.401 146.317 0.387 146.461 0.387 146.608V175.484C0.387 196.604 15.717 214.2 35.832 217.76V425.849H23.688C10.626 425.849 0 436.476 0 449.538V473.26C0 479.926 5.423 485.349 12.089 485.349H499.911C506.577 485.349 512 479.926 512 473.26V449.538C512 436.476 501.374 425.849 488.312 425.849ZM496.613 175.485C496.613 190.894 484.077 203.43 468.668 203.43C453.259 203.43 440.723 190.894 440.723 175.485V154.109H496.613V175.485ZM465.565 86.6404L491.947 139.108H438.499L419.655 86.6404H465.565ZM403.716 86.6404L422.56 139.108H368.39L357.083 86.6404H403.716ZM425.724 154.108V175.484C425.724 190.893 413.188 203.429 397.779 203.429C382.37 203.429 369.834 190.893 369.834 175.484V154.108H425.724ZM341.739 86.6404L353.046 139.108H298.426L294.657 86.6404H341.739ZM354.834 154.108V175.484C354.834 190.893 342.298 203.429 326.89 203.429C311.482 203.429 298.945 190.893 298.945 175.484V154.108H354.834ZM232.382 86.6404H279.617L283.386 139.108H228.613L232.382 86.6404ZM228.055 154.108H283.945V175.484C283.945 190.893 271.409 203.429 256 203.429C240.591 203.429 228.055 190.893 228.055 175.484V154.108ZM256 218.429C270.704 218.429 283.701 210.998 291.445 199.697C299.189 210.998 312.186 218.429 326.89 218.429C341.594 218.429 354.591 210.998 362.334 199.697C370.078 210.998 383.075 218.429 397.779 218.429C412.483 218.429 425.48 210.998 433.224 199.697C439.62 209.031 449.603 215.713 461.169 217.76V425.849H178.836V259.185C178.836 251.493 172.578 245.235 164.886 245.235H78.177C70.485 245.235 64.227 251.493 64.227 259.185V425.849H50.832V217.76C62.398 215.713 72.381 209.031 78.777 199.697C86.521 210.998 99.518 218.429 114.222 218.429C128.926 218.429 141.923 210.998 149.667 199.697C157.411 210.998 170.408 218.429 185.111 218.429C199.814 218.429 212.812 210.998 220.556 199.697C228.299 210.998 241.296 218.429 256 218.429ZM163.836 260.235V425.849H79.227V260.235H163.836ZM86.276 175.485V154.109H142.166V175.485C142.166 190.894 129.63 203.43 114.221 203.43C98.812 203.43 86.276 190.893 86.276 175.485ZM170.261 86.6404H217.343L213.574 139.108H158.954L170.261 86.6404ZM157.166 154.108H213.055V175.484C213.055 190.893 200.519 203.429 185.11 203.429C169.701 203.429 157.166 190.893 157.166 175.484V154.108ZM154.916 86.6404L143.609 139.108H89.439L108.283 86.6404H154.916ZM46.435 86.6404H92.345L73.501 139.108H20.053L46.435 86.6404ZM15.387 175.485V154.109H71.277V175.485C71.277 190.894 58.741 203.43 43.332 203.43C27.923 203.43 15.387 190.893 15.387 175.485ZM497 470.349H15V449.537C15 444.746 18.897 440.849 23.688 440.849H488.311C493.102 440.849 496.999 444.746 496.999 449.537V470.349H497Z" fill="#10143A"/>
<path d="M194.5 259.185V379.321C194.5 387.013 200.758 393.271 208.45 393.271H426.773C434.465 393.271 440.723 387.013 440.723 379.321V259.185C440.723 251.493 434.465 245.235 426.773 245.235H335.06C330.918 245.235 327.56 248.593 327.56 252.735C327.56 256.877 330.918 260.235 335.06 260.235H425.724V378.27H209.5V260.235H299.75C303.892 260.235 307.25 256.877 307.25 252.735C307.25 248.593 303.892 245.235 299.75 245.235H208.45C200.758 245.235 194.5 251.492 194.5 259.185Z" fill="#10143A"/>
</svg>
