<svg width="512" height="512" viewBox="0 0 512 512" fill="none" xmlns="http://www.w3.org/2000/svg">
<path d="M349.785 79.838L333.314 165.823H160.594L143.454 76.399C142.315 70.455 145.5 64.508 151.099 62.212C159.837 58.628 170.264 56.901 182.926 57.637L209.071 16.477C212.613 10.9 218.762 7.499 225.368 7.5C265.046 7.509 299.775 17.325 330.133 35.802C345.219 44.985 353.107 62.493 349.785 79.838Z" fill="#353535"/>
<path d="M330.133 35.8016C311.177 24.2636 290.516 16.1036 268.011 11.5996C280.4 16.2656 292.151 22.2986 303.292 29.6426C317.882 39.2596 325.511 57.5976 322.297 75.7646L306.367 165.823H333.312L349.783 79.8376C353.107 62.4926 345.219 44.9836 330.133 35.8016Z" fill="#0C0C0C"/>
<path d="M332.544 183.911H161.357C150.82 183.911 142.278 175.369 142.278 164.832C142.278 154.295 150.82 145.753 161.357 145.753H332.544C343.081 145.753 351.623 154.295 351.623 164.832C351.623 175.369 343.081 183.911 332.544 183.911Z" fill="#EBAE9D"/>
<path d="M410.439 350.84L373.099 373.03L345.229 325.06V400.78H148.669V323.76L114.669 380.96C111.049 387.05 112.299 394.86 117.649 399.51L195.009 466.78L166.539 499.52L66.899 412.87C58.619 405.67 56.679 393.57 62.289 384.14L117.239 291.72C126.329 276.42 142.809 267.05 160.599 267.05H332.889C350.909 267.05 367.549 276.66 376.569 292.25L410.439 350.84Z" fill="#FCFDFF"/>
<path d="M148.668 426.481L129.845 410.115V467.609L148.668 483.979V426.481Z" fill="#DCDCDC"/>
<path d="M148.667 297.524V499.5C148.667 502.261 150.906 504.5 153.667 504.5H340.233C342.994 504.5 345.233 502.261 345.233 499.5V297.524H148.667Z" fill="#FCFDFF"/>
<path d="M332.889 267.05H312.485C316.704 267.05 320.841 267.596 324.829 268.603V499.5C324.829 502.261 322.59 504.5 319.829 504.5H340.233C342.994 504.5 345.233 502.261 345.233 499.5V268.603C341.245 267.596 337.108 267.05 332.889 267.05Z" fill="#DCDCDC"/>
<path d="M264.89 240.841H229.011L207.868 254.62C194.984 263.016 190.109 279.528 196.367 293.575L207.329 318.183C208.418 320.627 211.499 321.421 213.633 319.807L238.304 301.151C243.42 297.282 250.483 297.282 255.599 301.151L280.27 319.807C282.404 321.421 285.486 320.627 286.574 318.183L297.536 293.575C303.793 279.528 298.918 263.016 286.035 254.62L264.89 240.841Z" fill="#DCDCDC"/>
<path d="M218.111 176.76V263.39C218.111 269.419 220.751 275.145 225.335 279.061L246.95 297.524L268.565 279.061C273.149 275.145 275.789 269.419 275.789 263.39V176.76H218.111Z" fill="#FFCDBE"/>
<path d="M275.789 251.743V176.76H218.111V251.743C236.138 257.806 257.762 257.806 275.789 251.743Z" fill="#EBAE9D"/>
<path d="M308.683 203.55C289.14 245.19 204.757 245.19 185.214 203.55C173.221 177.98 181.73 97.04 203.674 78.386C204.798 77.436 206.013 76.537 207.311 75.709C221.97 93.568 260.818 109.369 297.527 115.339C304.181 116.421 309.448 121.599 310.624 128.237C315.692 156.852 315.472 189.073 308.683 203.55Z" fill="#FFCDBE"/>
<path d="M351.606 266.401L276.854 395.876C274.662 399.673 275.963 404.528 279.76 406.72L366.241 456.65C370.038 458.842 374.893 457.541 377.085 453.744L451.837 324.269C454.029 320.472 452.728 315.617 448.931 313.425L362.45 263.495C358.654 261.303 353.798 262.604 351.606 266.401Z" fill="#777DB9"/>
<path d="M448.932 313.425L429.338 302.113C433.021 304.239 434.23 309.041 432.037 312.838L357.285 442.312C355.093 446.109 350.33 447.463 346.647 445.337L366.241 456.649C370.038 458.841 374.893 457.54 377.085 453.743L451.837 324.268C454.03 320.472 452.729 315.617 448.932 313.425Z" fill="#50579B"/>
<path d="M385.659 276.894L373.52 297.919C371.647 301.164 372.758 305.313 376.003 307.186L404.317 323.533C407.562 325.406 411.711 324.295 413.584 321.05L425.723 300.025L385.659 276.894Z" fill="#DCDCDC"/>
<path d="M365.873 348.082L418.834 402.658C427.178 411.256 426.971 424.99 418.373 433.334C409.775 441.678 396.041 441.471 387.697 432.873L334.736 378.297L365.873 348.082Z" fill="#FCFDFF"/>
<path d="M365.873 348.082L345.899 327.499C339.663 321.072 329.397 320.918 322.971 327.155L315.107 334.786C308.68 341.022 308.526 351.288 314.763 357.714L334.737 378.297L365.873 348.082Z" fill="#FFCDBE"/>
<path d="M282.752 497H156.174V306.718C156.174 302.575 152.816 299.218 148.674 299.218C144.532 299.218 141.174 302.575 141.174 306.718V321.702L108.229 377.128C102.75 386.346 104.645 398.14 112.735 405.17L141.174 429.897V467.518L71.827 407.211C66.279 402.386 64.981 394.296 68.743 387.973L95.442 343.069C97.559 339.508 96.388 334.906 92.828 332.79C89.266 330.673 84.665 331.843 82.548 335.403L55.85 380.306C48.378 392.866 50.958 408.942 61.984 418.53L141.173 487.396V499.5C141.173 506.393 146.78 512 153.673 512H282.752C286.895 512 290.252 508.643 290.252 504.5C290.252 500.357 286.895 497 282.752 497V497ZM141.174 410.019L122.575 393.848C119.963 391.578 119.352 387.77 121.123 384.791L141.174 351.058V410.019Z" fill="#10143A"/>
<path d="M452.687 306.925L366.203 256.992C362.63 254.932 358.469 254.385 354.49 255.455C351.113 256.361 348.216 258.346 346.157 261.101C341.82 260.078 337.383 259.549 332.898 259.549H301.424C295.236 250.159 287.78 247.207 283.298 243.884V235.522C298.086 229.436 309.494 219.497 315.481 206.734C317.555 202.312 318.95 196.942 319.881 191.409H332.548C347.204 191.409 359.128 179.485 359.128 164.829C359.128 154.906 353.658 146.241 345.579 141.676L357.153 81.253C361.039 61.009 351.749 40.167 334.038 29.393C302.02 9.899 265.462 0.01 225.376 0C216.155 0 207.694 4.659 202.745 12.46L178.914 49.982C167.47 49.794 157.399 51.528 148.256 55.272C139.399 58.91 134.282 68.389 136.09 77.812L148.335 141.677C140.256 146.242 134.786 154.907 134.786 164.83C134.786 179.486 146.71 191.41 161.366 191.41H174.005C174.99 197.224 176.428 202.466 178.431 206.736C184.421 219.498 195.827 229.438 210.616 235.524V243.885C206.189 247.167 198.681 250.155 192.49 259.55H160.606C140.269 259.55 121.184 270.409 110.8 287.886L100.42 305.336C98.3021 308.896 99.472 313.498 103.032 315.616C104.234 316.331 105.555 316.671 106.859 316.671C109.417 316.671 111.91 315.362 113.312 313.004L123.694 295.551C131.39 282.597 145.534 274.55 160.606 274.55H186.632C185.449 281.8 186.326 289.451 189.525 296.633L200.483 321.229C201.938 324.5 204.759 326.887 208.223 327.781C211.686 328.673 215.306 327.949 218.16 325.792L242.828 307.135C245.258 305.296 248.652 305.298 251.081 307.133L275.752 325.793C277.804 327.345 280.254 328.154 282.757 328.154C287.257 328.154 291.497 325.572 293.426 321.233L304.386 296.633C307.586 289.451 308.462 281.8 307.28 274.55H332.896C334.631 274.55 336.357 274.659 338.067 274.867L270.362 392.127C268.299 395.697 267.751 399.858 268.82 403.844C269.889 407.83 272.447 411.159 276.015 413.215L337.735 448.85V497H317.755C313.612 497 310.255 500.357 310.255 504.5C310.255 508.643 313.612 512 317.755 512H340.235C347.128 512 352.735 506.393 352.735 499.5V457.51L362.501 463.148C364.921 464.543 367.566 465.206 370.18 465.206C375.521 465.206 380.727 462.437 383.59 457.49L391.186 444.333C395.013 446.068 399.142 446.946 403.275 446.946C410.603 446.946 417.94 444.211 423.602 438.717C435.153 427.507 435.431 408.988 424.221 397.436L420.486 393.587L458.342 328.016C462.589 320.65 460.055 311.191 452.687 306.925V306.925ZM344.126 164.83C344.126 171.216 338.932 176.41 332.546 176.41H321.426C321.801 168.801 321.666 161.164 321.155 153.25H332.545C338.932 153.25 344.126 158.444 344.126 164.83V164.83ZM172.461 176.41H161.366C154.981 176.41 149.786 171.216 149.786 164.83C149.786 158.444 154.981 153.25 161.366 153.25H172.742C172.244 160.923 172.099 168.846 172.461 176.41V176.41ZM174.181 138.25H162.952L150.823 74.987C150.354 72.542 151.672 70.086 153.95 69.15C162.131 65.799 171.471 64.484 182.5 65.127C185.207 65.287 187.809 63.959 189.268 61.66L215.41 20.498C217.594 17.056 221.32 15 225.375 15C262.669 15.009 296.604 24.162 326.238 42.207C338.63 49.745 345.133 64.301 342.421 78.429L330.961 138.25H319.731C319.246 134.436 318.675 130.646 318.016 126.929C316.287 117.162 308.538 109.531 298.738 107.937C261.783 101.927 225.774 86.373 213.115 70.951C210.707 68.018 206.487 67.345 203.286 69.386C201.732 70.377 200.235 71.479 198.824 72.672C183.533 85.669 176.713 118.435 174.181 138.25V138.25ZM192.011 200.365C186.03 187.613 186.923 160.73 188.331 146.559C188.334 146.53 188.337 146.502 188.34 146.473C190.081 129.006 195.687 98.267 206.69 85.92C226.603 104.403 265.842 117.782 296.33 122.74C299.848 123.312 302.627 126.047 303.247 129.544C306.585 148.392 307.421 168.276 305.882 183.036C305.874 183.102 305.867 183.168 305.861 183.235C305.1 190.406 303.778 196.36 301.901 200.363C292.905 219.528 268.051 227.279 246.956 227.279C225.641 227.279 200.945 219.4 192.011 200.365V200.365ZM212.475 311.284L203.227 290.527C198.701 280.367 201.753 268.556 210.617 261.874V263.389C210.617 271.635 214.213 279.428 220.475 284.761L233.186 295.619L212.475 311.284ZM246.957 287.656L230.209 273.349C227.291 270.864 225.616 267.233 225.616 263.389V240.107C232.332 241.526 239.484 242.278 246.955 242.278C254.426 242.278 261.58 241.526 268.296 240.106V263.388C268.296 267.232 266.623 270.865 263.706 273.354L246.957 287.656ZM290.686 290.527L281.438 311.284L260.73 295.621L273.446 284.764C279.706 279.42 283.297 271.629 283.297 263.389V261.874C292.05 268.474 295.268 280.244 290.686 290.527V290.527ZM388.413 287.136L415.487 302.767L407.454 316.68L380.381 301.049L388.413 287.136ZM320.336 340.168L328.199 332.537C329.87 330.915 332.07 330.033 334.399 330.077C336.726 330.112 338.9 331.052 340.522 332.723L355.273 347.924L334.901 367.694L320.15 352.49C318.53 350.82 317.656 348.619 317.691 346.292C317.726 343.964 318.665 341.79 320.336 340.168V340.168ZM370.605 449.983C370.478 450.204 370.208 450.275 369.997 450.155L283.512 400.22C283.469 400.196 283.357 400.131 283.31 399.957C283.264 399.783 283.328 399.673 283.353 399.629L306.568 359.422C307.387 360.666 308.326 361.843 309.386 362.935L379.279 434.96L370.605 449.983ZM413.158 427.952C407.54 433.404 398.536 433.267 393.087 427.651L345.349 378.457L365.721 358.687L413.458 407.88C418.908 413.498 418.774 422.502 413.158 427.952ZM445.351 320.52L409.629 382.396L351.288 322.276C346.876 317.73 340.959 315.173 334.626 315.079C333.781 315.067 332.944 315.101 332.116 315.175L358.116 270.145C358.14 270.102 358.207 269.988 358.378 269.942C358.554 269.894 358.669 269.963 358.708 269.985L375.424 279.636L367.032 294.17C363.095 300.99 365.441 309.743 372.261 313.682L400.575 330.03C402.776 331.3 405.219 331.949 407.693 331.949C412.568 331.949 417.402 329.451 420.087 324.801L428.478 310.268L445.18 319.911C445.399 320.038 445.473 320.308 445.351 320.52V320.52Z" fill="#10143A"/>
<path d="M225.616 154.754V152.754C225.616 148.611 222.258 145.254 218.116 145.254C213.974 145.254 210.616 148.611 210.616 152.754V154.754C210.616 158.897 213.974 162.254 218.116 162.254C222.258 162.254 225.616 158.896 225.616 154.754Z" fill="#10143A"/>
<path d="M275.794 162.254C279.937 162.254 283.294 158.897 283.294 154.754V152.754C283.294 148.611 279.937 145.254 275.794 145.254C271.651 145.254 268.294 148.611 268.294 152.754V154.754C268.294 158.896 271.652 162.254 275.794 162.254Z" fill="#10143A"/>
<path d="M232.154 197.416C236.989 199.919 242.785 201.17 248.58 201.17C254.375 201.17 260.171 199.918 265.006 197.415C268.685 195.512 270.123 190.985 268.219 187.308C266.315 183.627 261.786 182.189 258.112 184.095C252.68 186.906 244.485 186.908 239.05 184.094C235.372 182.192 230.846 183.63 228.942 187.308C227.036 190.986 228.475 195.512 232.154 197.416V197.416Z" fill="#10143A"/>
</svg>
