<svg width="600" height="600" viewBox="0 0 600 600" fill="none" xmlns="http://www.w3.org/2000/svg">
<g clip-path="url(#clip0)">
<path d="M462.33 430.14H245.54C239.36 430.14 234.34 425.13 234.34 418.94V62.7C234.34 56.52 239.35 51.5 245.54 51.5H462.33C468.51 51.5 473.53 56.51 473.53 62.7V418.94C473.53 425.13 468.51 430.14 462.33 430.14Z" fill="#FFE1EC"/>
<path d="M462.33 51.5098H419.4C425.58 51.5098 430.6 56.5198 430.6 62.7098V418.95C430.6 425.13 425.59 430.15 419.4 430.15H462.32C468.5 430.15 473.52 425.14 473.52 418.95V62.6998C473.53 56.5198 468.51 51.5098 462.33 51.5098Z" fill="#F9C3D6"/>
<path d="M462.33 430.14H245.54C239.36 430.14 234.34 425.13 234.34 418.94V386.97H473.52V418.94C473.53 425.13 468.51 430.14 462.33 430.14Z" fill="#8B8996"/>
<path d="M272 131H436V231H272V131Z" fill="#FCFDFF"/>
<path d="M430.6 418.94C430.6 425.12 425.59 430.14 419.4 430.14H462.32C468.5 430.14 473.52 425.13 473.52 418.94V386.97H430.6V418.94Z" fill="#706F7F"/>
<path d="M427.68 123.81H280.19C271.65 123.81 264.7 130.76 264.7 139.3V224C264.7 232.54 271.65 239.49 280.19 239.49H427.67C436.21 239.49 443.16 232.54 443.16 224V139.3C443.16 130.76 436.22 123.81 427.68 123.81ZM429.88 224C429.88 225.22 428.89 226.21 427.67 226.21H280.19C278.97 226.21 277.98 225.22 277.98 224V139.3C277.98 138.08 278.97 137.09 280.19 137.09H427.67C428.89 137.09 429.88 138.08 429.88 139.3V224V224Z" fill="#10143A"/>
<path d="M398.48 147.71C394.81 147.71 391.84 150.68 391.84 154.35V209.42C391.84 213.09 394.81 216.06 398.48 216.06C402.15 216.06 405.12 213.09 405.12 209.42V154.35C405.12 150.68 402.15 147.71 398.48 147.71Z" fill="#10143A"/>
<path d="M373.78 147.71C370.11 147.71 367.14 150.68 367.14 154.35V209.42C367.14 213.09 370.11 216.06 373.78 216.06C377.45 216.06 380.42 213.09 380.42 209.42V154.35C380.42 150.68 377.45 147.71 373.78 147.71Z" fill="#10143A"/>
<path d="M349.08 147.71C345.41 147.71 342.44 150.68 342.44 154.35V209.42C342.44 213.09 345.41 216.06 349.08 216.06C352.75 216.06 355.72 213.09 355.72 209.42V154.35C355.72 150.68 352.75 147.71 349.08 147.71Z" fill="#10143A"/>
<path d="M300.56 147.71C296.89 147.71 293.92 150.68 293.92 154.35V209.42C293.92 213.09 296.89 216.06 300.56 216.06C304.23 216.06 307.2 213.09 307.2 209.42V154.35C307.19 150.68 304.22 147.71 300.56 147.71Z" fill="#10143A"/>
<path d="M366.91 385.25L360.36 379.21C354.7 373.99 345.89 374.35 340.67 380.01L338.97 381.86L346.73 373.45C351.95 367.79 351.59 358.98 345.93 353.76L339.38 347.72C333.72 342.5 324.91 342.86 319.69 348.52L324.5 343.3C329.72 337.64 329.36 328.83 323.7 323.61L317.15 317.57C311.49 312.35 302.68 312.71 297.46 318.37L295.47 320.53L352.9 258.25C359.79 250.79 359.31 239.15 351.85 232.27C344.39 225.39 332.75 225.86 325.87 233.32L253.32 311.99L217.32 351.03L211.69 303.41C210.39 292.37 199.5 285.12 188.81 288.18C181.1 290.39 175.77 297.42 175.73 305.44L175.2 412.66C176.01 415.72 175.2 418.97 173.06 421.3L157.08 438.62L239.44 514.57L257.81 494.65C258.5 493.9 259.3 493.27 260.2 492.79L293.67 474.62C306.63 467.59 318.34 458.47 328.34 447.63L337.21 438.02L367.72 404.94C372.92 399.29 372.57 390.47 366.91 385.25Z" fill="#FFCDBE"/>
<path d="M366.91 385.25L360.36 379.21C354.7 373.99 345.89 374.35 340.67 380.01L346.72 373.44C351.37 368.4 351.58 360.87 347.58 355.59C348.41 359.8 347.3 364.33 344.17 367.72L313.66 400.8L304.79 410.41C294.79 421.25 283.08 430.37 270.12 437.4L236.65 455.57C235.76 456.05 234.95 456.68 234.26 457.43L207.2 484.85L239.43 514.57L257.8 494.65C258.49 493.9 259.29 493.27 260.19 492.79L293.66 474.62C306.62 467.59 318.33 458.47 328.33 447.63L337.2 438.02L367.71 404.94C372.92 399.29 372.57 390.47 366.91 385.25Z" fill="#EBAE9D"/>
<path d="M244.32 528.39L228.47 545.57C225.08 549.25 219.34 549.48 215.66 546.09L128.42 465.63C124.72 462.22 124.51 456.45 127.94 452.77L143.91 435.7C147.31 432.06 153.01 431.85 156.68 435.23L243.8 515.58C247.48 518.98 247.71 524.71 244.32 528.39Z" fill="#777DB9"/>
<path d="M243.8 515.58L219.13 492.83L190.99 523.34L215.66 546.09C219.34 549.48 225.07 549.25 228.47 545.57L244.32 528.39C247.71 524.71 247.48 518.98 243.8 515.58Z" fill="#50579B"/>
<path d="M462.33 51.5098H245.54C239.36 51.5098 234.34 56.5198 234.34 62.7098V94.6798H473.52V62.6998C473.53 56.5198 468.51 51.5098 462.33 51.5098Z" fill="#8B8996"/>
<path d="M472.17 57.3695C472 57.0495 471.81 56.7495 471.61 56.4495C471.3 55.9995 470.96 55.5695 470.59 55.1695C470.17 54.7095 469.72 54.2895 469.23 53.9095C468.85 53.6095 468.44 53.3395 468.02 53.0895C467.05 52.5095 465.98 52.0795 464.85 51.8195C464.7 51.7895 464.55 51.7495 464.4 51.7195C463.72 51.5895 463.03 51.5195 462.31 51.5195H419.4C425.58 51.5195 430.6 56.5295 430.6 62.7195V94.6895H473.52V62.6995C473.53 60.7695 473.04 58.9495 472.17 57.3695Z" fill="#706F7F"/>
<path d="M373.95 80.6001H333.93C329.79 80.6001 326.42 77.2401 326.42 73.0901C326.42 68.9401 329.78 65.5801 333.93 65.5801H373.95C378.1 65.5801 381.46 68.9401 381.46 73.0901C381.46 77.2401 378.09 80.6001 373.95 80.6001Z" fill="#10143A"/>
<path d="M462.33 44H245.54C235.23 44 226.83 52.39 226.83 62.71V298.61C226.83 302.75 230.19 306.12 234.34 306.12C238.49 306.12 241.85 302.76 241.85 298.61V102.18H466.02V379.47H371.71L365.45 373.7C363.05 371.49 360.27 369.92 357.34 369.01C357.79 367.11 357.99 365.14 357.91 363.14C357.68 357.42 355.23 352.13 351.02 348.25L344.47 342.21C341.82 339.76 338.71 338.11 335.44 337.25C335.66 335.86 335.74 334.43 335.68 332.99C335.45 327.27 333 321.98 328.79 318.1L322.24 312.06C320.61 310.56 318.8 309.34 316.85 308.42L323.17 301.57L358.42 263.35C368.1 252.86 367.43 236.44 356.94 226.76C351.86 222.07 345.27 219.65 338.34 219.92C331.43 220.2 325.04 223.15 320.35 228.24L283.54 268.15L222.85 333.96L219.14 302.53C218.26 295.08 214.17 288.42 207.93 284.26C201.68 280.1 193.96 278.9 186.75 280.96C175.9 284.06 168.28 294.11 168.22 305.4L167.69 412.63C167.69 413.29 167.77 413.95 167.94 414.58C168.09 415.16 167.94 415.77 167.54 416.21L157.65 426.94C151.31 423.94 143.47 425.21 138.44 430.59L122.47 447.66C119.43 450.91 117.85 455.14 118.01 459.59C118.17 464.03 120.07 468.14 123.34 471.16L210.58 551.62C213.67 554.47 217.62 556.01 221.8 556.01C222.03 556.01 222.26 556 222.49 556C226.91 555.82 231 553.93 234 550.68L249.85 533.5C255.2 527.7 255.6 519.07 251.28 512.84L263.33 499.77C263.46 499.63 263.61 499.51 263.78 499.42L297.25 481.25C310.96 473.81 323.28 464.22 333.85 452.75L373.23 410.05C377.11 405.84 379.12 400.37 378.89 394.65C378.89 394.6 378.88 394.55 378.88 394.5H466.03V418.96C466.03 421 464.37 422.66 462.33 422.66H382.11C377.96 422.66 374.6 426.02 374.6 430.17C374.6 434.31 377.96 437.68 382.11 437.68H462.33C472.64 437.68 481.03 429.29 481.03 418.97V62.71C481.03 52.39 472.64 44 462.33 44ZM238.8 523.31L222.95 540.49C222.59 540.88 222.16 540.98 221.87 540.99C221.57 541 221.14 540.94 220.75 540.58L133.51 460.12C133.12 459.76 133.02 459.33 133.01 459.03C133 458.73 133.06 458.3 133.43 457.91L149.39 440.84C149.7 440.51 150.11 440.35 150.53 440.35C150.91 440.35 151.29 440.49 151.59 440.76L208.53 493.28L235.85 518.47L238.71 521.11C239.34 521.68 239.38 522.67 238.8 523.31ZM362.19 399.85L322.81 442.54C313.35 452.8 302.34 461.37 290.08 468.02L256.61 486.19C254.99 487.07 253.54 488.2 252.29 489.56L240.51 502.33L202.21 467.01L169.19 436.55L178.58 426.37C182.22 422.42 183.73 417.06 182.71 411.83L183.24 305.45C183.26 300.8 186.41 296.65 190.88 295.37C193.86 294.52 197.04 295.01 199.62 296.73C202.2 298.45 203.88 301.19 204.25 304.26L209.88 351.88C210.22 354.79 212.23 357.23 215.02 358.14C217.81 359.05 220.87 358.24 222.85 356.09L295.05 277.8L331.41 238.38C333.38 236.24 336.07 235 338.97 234.89C341.88 234.77 344.65 235.79 346.79 237.76C351.2 241.83 351.48 248.73 347.41 253.14L316.93 286.19L311.71 291.85L289.98 315.42C287.17 318.47 287.36 323.22 290.41 326.03C293.46 328.84 298.2 328.65 301.02 325.6L303.01 323.44C304.18 322.18 305.76 321.45 307.48 321.37C309.19 321.31 310.84 321.9 312.1 323.07L318.65 329.11C319.91 330.27 320.64 331.86 320.72 333.57C320.79 335.29 320.19 336.93 319.02 338.19L314.21 343.4C311.4 346.45 311.59 351.19 314.64 354C317.69 356.81 322.43 356.62 325.25 353.57C327.65 350.96 331.73 350.8 334.33 353.2L340.88 359.24C342.14 360.4 342.87 361.99 342.95 363.7C343.02 365.42 342.42 367.06 341.25 368.32L335.21 374.87L335.2 374.88C332.39 377.93 332.58 382.68 335.63 385.49C338.68 388.3 343.42 388.11 346.23 385.06L346.24 385.05C348.64 382.46 352.71 382.29 355.31 384.69L361.86 390.73C362.11 390.96 362.34 391.22 362.55 391.48C362.62 391.57 362.68 391.65 362.75 391.74C363.46 392.75 363.88 393.93 363.93 395.19C363.96 396.95 363.35 398.59 362.19 399.85ZM466.02 87.17H241.85V62.71C241.85 60.67 243.51 59.01 245.55 59.01H462.33C464.37 59.01 466.03 60.67 466.03 62.71V87.17H466.02Z" fill="#10143A"/>
</g>
<defs>
<clipPath id="clip0">
<rect width="363.03" height="512" fill="white" transform="translate(118 44)"/>
</clipPath>
</defs>
</svg>
