<svg width="600" height="600" viewBox="0 0 600 600" fill="none" xmlns="http://www.w3.org/2000/svg">
<path d="M387.141 548.609H102.462C94.3389 548.609 87.7549 542.024 87.7549 533.902V66.0986C87.7549 57.9756 94.3399 51.3916 102.462 51.3916H387.14C395.263 51.3916 401.847 57.9766 401.847 66.0986V533.902C401.848 542.024 395.263 548.609 387.141 548.609Z" fill="#FFE1EC"/>
<path d="M387.141 51.3906H345.092C353.215 51.3906 359.799 57.9756 359.799 66.0976V533.901C359.799 542.024 353.215 548.608 345.092 548.608H387.141C395.263 548.608 401.848 542.023 401.848 533.901V66.0986C401.848 57.9756 395.263 51.3906 387.141 51.3906Z" fill="#F9C3D6"/>
<path d="M387.141 548.609H102.463C94.3401 548.609 87.7561 542.024 87.7561 533.902V491.921H401.848V533.902C401.848 542.024 395.263 548.609 387.141 548.609Z" fill="#8B8996"/>
<path d="M359.798 533.902C359.798 542.025 353.214 548.609 345.091 548.609H387.14C390.935 548.609 394.383 547.159 396.993 544.799C397.493 544.347 397.969 543.869 398.403 543.352C398.733 542.959 399.048 542.551 399.336 542.125C400.922 539.778 401.848 536.948 401.848 533.902V491.921H359.799V533.902H359.798Z" fill="#706F7F"/>
<path d="M387.141 51.3906H102.463C94.3401 51.3906 87.7561 57.9756 87.7561 66.0976V108.079H401.848V66.0976C401.848 57.9756 395.263 51.3906 387.141 51.3906Z" fill="#8B8996"/>
<path d="M399.336 57.8756C396.693 53.9636 392.217 51.3916 387.14 51.3916H345.092C353.214 51.3926 359.798 57.9766 359.798 66.0986V108.08H401.847V66.0986C401.847 63.5606 401.204 61.1726 400.072 59.0886C399.846 58.6706 399.6 58.2666 399.336 57.8756Z" fill="#706F7F"/>
<path d="M469.453 181.932H267.267C243.634 181.932 224.475 201.091 224.475 224.724V306.389C224.475 330.022 243.634 349.181 267.267 349.181H276.543V424.334L337.928 349.181H469.453C493.086 349.181 512.245 330.022 512.245 306.389V224.724C512.245 201.091 493.086 181.932 469.453 181.932Z" fill="#FCFDFF"/>
<path d="M276.543 372.578V424.335L337.928 349.182H295.653L276.543 372.578Z" fill="#E4E9F3"/>
<path d="M469.97 181.945V349.168C493.364 348.89 512.245 329.849 512.245 306.389V224.724C512.245 201.264 493.365 182.224 469.97 181.945Z" fill="#E4E9F3"/>
<path d="M271.082 72.3438H218.521C214.438 72.3438 211.13 75.6528 211.13 79.7348C211.13 83.8168 214.439 87.1257 218.521 87.1257H271.082C275.165 87.1257 278.473 83.8168 278.473 79.7348C278.473 75.6528 275.165 72.3438 271.082 72.3438Z" fill="#10143A"/>
<path d="M458.141 232.644H278.635C274.552 232.644 271.244 235.953 271.244 240.035C271.244 244.117 274.553 247.426 278.635 247.426H458.141C462.224 247.426 465.532 244.117 465.532 240.035C465.533 235.953 462.224 232.644 458.141 232.644Z" fill="#10143A"/>
<path d="M458.141 283.686H435.273C431.19 283.686 427.882 286.995 427.882 291.077C427.882 295.159 431.191 298.468 435.273 298.468H458.141C462.224 298.468 465.532 295.159 465.532 291.077C465.533 286.995 462.224 283.686 458.141 283.686Z" fill="#10143A"/>
<path d="M400.882 283.686H278.635C274.552 283.686 271.244 286.995 271.244 291.077C271.244 295.159 274.553 298.468 278.635 298.468H400.881C404.964 298.468 408.272 295.159 408.272 291.077C408.273 286.995 404.964 283.686 400.882 283.686Z" fill="#10143A"/>
<path d="M469.452 174.541H409.239V66.099C409.239 59.626 406.441 53.794 401.991 49.748C401.729 49.51 401.462 49.278 401.189 49.053C400.643 48.602 400.075 48.177 399.487 47.78C399.193 47.581 398.894 47.389 398.59 47.205C397.982 46.835 397.356 46.494 396.712 46.184C393.814 44.784 390.567 44 387.141 44H102.462C99.035 44 95.788 44.784 92.89 46.182C92.246 46.493 91.619 46.834 91.012 47.203C90.708 47.388 90.409 47.58 90.115 47.778C89.527 48.176 88.959 48.601 88.413 49.051C88.14 49.276 87.873 49.508 87.611 49.746C83.161 53.791 80.363 59.623 80.363 66.097V146.333C80.363 150.415 83.672 153.724 87.754 153.724C91.836 153.724 95.145 150.415 95.145 146.333V115.471H394.455V174.541H267.267C239.596 174.541 217.084 197.053 217.084 224.725V306.39C217.084 334.061 239.596 356.573 267.267 356.573H269.151V424.335C269.151 427.46 271.116 430.248 274.06 431.297C274.872 431.587 275.711 431.727 276.541 431.727C278.717 431.727 280.835 430.763 282.266 429.011L341.432 356.573H394.455V484.53H95.147V180.725C95.147 176.643 91.838 173.334 87.756 173.334C83.674 173.334 80.365 176.643 80.365 180.725V533.901C80.365 546.086 90.278 556 102.463 556H387.14C399.325 556 409.239 546.087 409.239 533.901V356.572H469.452C497.124 356.572 519.636 334.06 519.636 306.389V224.724C519.636 197.053 497.124 174.541 469.452 174.541ZM394.456 533.901C394.456 537.935 391.174 541.217 387.14 541.217H102.462C98.428 541.217 95.147 537.935 95.147 533.901V499.312H394.457V533.901H394.456ZM95.147 100.688V66.099C95.147 63.326 96.698 60.908 98.978 59.667C100.015 59.103 101.201 58.783 102.462 58.783H387.14C388.401 58.783 389.588 59.104 390.625 59.667C392.905 60.907 394.457 63.325 394.457 66.099V100.688H95.147ZM504.853 306.389C504.853 325.909 488.972 341.789 469.452 341.789H337.927C335.708 341.789 333.607 342.786 332.202 344.504L283.933 403.6V349.18C283.933 345.098 280.624 341.789 276.542 341.789H267.266C247.746 341.789 231.866 325.909 231.866 306.389V224.724C231.866 205.204 247.746 189.323 267.266 189.323H401.837C401.84 189.323 401.843 189.323 401.847 189.323C401.85 189.323 401.853 189.323 401.857 189.323H469.452C488.972 189.323 504.853 205.204 504.853 224.724V306.389Z" fill="#10143A"/>
</svg>
