<svg width="600" height="600" viewBox="0 0 600 600" fill="none" xmlns="http://www.w3.org/2000/svg">
<path d="M186.402 203.03H249.822V121.442H156.585C153.017 121.442 150.598 125.071 151.969 128.364L181.787 199.952C182.563 201.816 184.384 203.03 186.402 203.03V203.03Z" fill="#F9C3D6"/>
<path d="M61.495 425.403H240.992C246.512 425.403 250.987 420.928 250.987 415.408V295.722C250.987 290.202 246.512 285.727 240.992 285.727H61.495C55.975 285.727 51.5 290.202 51.5 295.722V415.409C51.5 420.929 55.975 425.403 61.495 425.403V425.403Z" fill="#FCFDFF"/>
<path d="M296.001 200.278C313.762 190.792 335.767 190.504 353.963 199.126C372.159 207.748 386.024 224.709 391.612 244.053C397.2 263.398 392.418 285.556 383.122 303.417C370.904 304.83 358.372 306.226 346.436 303.259C334.5 300.292 323.096 291.991 320.039 280.078C318.452 273.892 319.214 267.388 319.294 261.003C319.569 238.799 311.055 216.603 296.001 200.278V200.278Z" fill="#706F7F"/>
<path d="M377.384 391.444L350.709 179.724L423.463 170.982L454.45 418.604C456.469 435.409 445.372 450.99 428.831 454.577L367.215 467.938C352.909 471.04 339.394 460.141 339.394 445.503V436.308C339.394 425.505 346.926 416.164 357.483 413.874L362.13 412.866C371.979 410.728 378.586 401.45 377.384 391.444Z" fill="#777DB9"/>
<path d="M240.458 226.969H420.187C455.938 226.969 484.92 197.987 484.92 162.236C484.92 126.485 455.938 97.5029 420.187 97.5029H193.125C182.84 97.5029 175.864 107.966 179.819 117.46L219.653 213.097C223.152 221.497 231.359 226.969 240.458 226.969Z" fill="#777DB9"/>
<path d="M420.188 197.649H240.458C231.359 197.649 223.152 192.177 219.653 183.777L184.813 100.132C179.59 103.837 177.077 110.879 179.818 117.46L219.652 213.097C223.151 221.497 231.358 226.969 240.457 226.969H420.186C455.937 226.969 484.919 197.987 484.919 162.236C484.919 157.191 484.323 152.289 483.231 147.576C476.588 176.262 450.894 197.649 420.188 197.649V197.649Z" fill="#50579B"/>
<path d="M240.992 278.227H61.495C51.849 278.227 44 286.075 44 295.722V415.409C44 425.055 51.849 432.904 61.495 432.904H240.992C250.638 432.904 258.486 425.056 258.486 415.409V295.722C258.486 286.075 250.639 278.227 240.992 278.227V278.227ZM243.486 415.409C243.486 416.784 242.367 417.904 240.992 417.904H61.495C60.119 417.904 59 416.785 59 415.409V295.722C59 294.347 60.119 293.227 61.495 293.227H240.992C242.367 293.227 243.486 294.346 243.486 295.722V415.409Z" fill="#10143A"/>
<path d="M207.051 308.959C202.908 308.959 199.551 312.317 199.551 316.459V394.673C199.551 398.815 202.908 402.173 207.051 402.173C211.194 402.173 214.551 398.815 214.551 394.673V316.459C214.551 312.316 211.193 308.959 207.051 308.959Z" fill="#10143A"/>
<path d="M179.147 308.959C175.004 308.959 171.647 312.317 171.647 316.459V394.673C171.647 398.815 175.004 402.173 179.147 402.173C183.29 402.173 186.647 398.815 186.647 394.673V316.459C186.647 312.316 183.29 308.959 179.147 308.959Z" fill="#10143A"/>
<path d="M151.243 308.959C147.1 308.959 143.743 312.317 143.743 316.459V394.673C143.743 398.815 147.1 402.173 151.243 402.173C155.386 402.173 158.743 398.815 158.743 394.673V316.459C158.743 312.316 155.386 308.959 151.243 308.959Z" fill="#10143A"/>
<path d="M95.436 308.959C91.293 308.959 87.936 312.317 87.936 316.459V394.673C87.936 398.815 91.293 402.173 95.436 402.173C99.579 402.173 102.936 398.815 102.936 394.673V316.459C102.936 312.316 99.578 308.959 95.436 308.959Z" fill="#10143A"/>
<path d="M548.5 393.36H524.97C503.758 393.36 486.5 410.618 486.5 431.83V471.41C486.5 484.351 475.976 494.88 463.04 494.88H443.65C427.176 494.88 413.663 481.986 412.656 465.761L430.42 461.909C450.858 457.472 464.391 438.469 461.892 417.669L438.665 232.057C452.67 228.344 465.35 220.46 474.913 209.372C486.202 196.283 492.419 179.544 492.419 162.24C492.419 122.407 460.017 90 420.19 90H377.18C373.037 90 369.68 93.358 369.68 97.5C369.68 101.642 373.037 105 377.18 105H420.191C451.748 105 477.42 130.678 477.42 162.24C477.42 190.555 457.138 214.326 429.193 218.763C426.24 219.232 423.211 219.47 420.19 219.47H240.46C234.366 219.47 228.916 215.838 226.574 210.217L186.742 114.572C185.838 112.405 186.066 110.04 187.37 108.084C188.676 106.125 190.775 105.001 193.13 105.001H342.18C346.323 105.001 349.68 101.643 349.68 97.501C349.68 93.359 346.323 90.001 342.18 90.001H193.13C185.781 90.001 178.962 93.652 174.888 99.767C172.061 104.009 170.842 109.013 171.303 113.941H156.58C152.395 113.941 148.51 116.021 146.186 119.505C143.862 122.99 143.436 127.379 145.045 131.245L174.854 202.805C176.785 207.498 181.317 210.531 186.4 210.531H210.455L212.727 215.986C217.406 227.215 228.291 234.471 240.459 234.471H307.574C310.442 243.06 311.904 252.102 311.791 260.908C311.773 262.282 311.723 263.66 311.673 265.04C311.476 270.474 311.273 276.094 312.775 281.942C316.944 298.222 331.964 307.389 344.629 310.539C349.347 311.713 354.303 312.348 359.876 312.481L360.908 320.669C361.387 324.461 364.616 327.232 368.34 327.232C368.653 327.232 368.969 327.212 369.287 327.172C373.396 326.654 376.308 322.903 375.791 318.794L365.165 234.471C365.165 234.471 422.622 234.429 423.837 234.368L447.004 419.496C448.57 432.534 440.073 444.466 427.24 447.252L365.632 460.611C361.03 461.605 356.303 460.484 352.644 457.533C348.988 454.583 346.89 450.198 346.89 445.501V436.311C346.89 429.087 352.013 422.732 359.074 421.2L363.716 420.191C377.436 417.225 386.512 404.478 384.822 390.503L380.202 353.833C379.684 349.724 375.94 346.816 371.823 347.329C367.714 347.847 364.802 351.598 365.319 355.708L369.935 392.34C370.684 398.54 366.648 404.21 360.538 405.531L355.891 406.541C341.985 409.559 331.891 422.079 331.891 436.31V445.5C331.891 454.755 336.023 463.396 343.228 469.208C348.713 473.632 355.424 475.969 362.307 475.969C364.469 475.969 366.648 475.739 368.811 475.27L397.886 468.965C400.453 491.949 419.994 509.88 443.652 509.88H463.042C484.249 509.88 501.502 492.623 501.502 471.41V431.83C501.502 418.889 512.03 408.36 524.972 408.36H548.502C552.645 408.36 556.002 405.002 556.002 400.86C556.002 396.718 552.643 393.36 548.5 393.36V393.36ZM188.073 195.53L160.336 128.94H176.477L204.209 195.53H188.073ZM357.974 297.387C354.443 297.187 351.25 296.729 348.251 295.982C337.612 293.336 329.392 286.364 327.305 278.215C326.341 274.465 326.497 270.15 326.663 265.582C326.717 264.084 326.77 262.586 326.789 261.098C326.903 252.247 325.692 243.205 323.265 234.471H350.046L357.974 297.387Z" fill="#10143A"/>
</svg>
